<svg width="48" height="32" viewBox="0 0 48 32" fill="none" xmlns="http://www.w3.org/2000/svg">
<path fill-rule="evenodd" clip-rule="evenodd" d="M24 21.5C27.0376 21.5 29.5 19.0376 29.5 16C29.5 12.9624 27.0376 10.5 24 10.5C20.9624 10.5 18.5 12.9624 18.5 16C18.5 19.0376 20.9624 21.5 24 21.5ZM24 23C27.866 23 31 19.866 31 16C31 12.134 27.866 9 24 9C20.134 9 17 12.134 17 16C17 19.866 20.134 23 24 23ZM24 18.5C25.3807 18.5 26.5 17.3807 26.5 16C26.5 14.6193 25.3807 13.5 24 13.5C22.6193 13.5 21.5 14.6193 21.5 16C21.5 17.3807 22.6193 18.5 24 18.5ZM24 20C26.2091 20 28 18.2091 28 16C28 13.7909 26.2091 12 24 12C21.7909 12 20 13.7909 20 16C20 18.2091 21.7909 20 24 20ZM24 17C24.5523 17 25 16.5523 25 16C25 15.4477 24.5523 15 24 15C23.4477 15 23 15.4477 23 16C23 16.5523 23.4477 17 24 17Z" fill="black"/>
</svg>
