<svg width="48" height="32" viewBox="0 0 48 32" fill="none" xmlns="http://www.w3.org/2000/svg">
<path fill-rule="evenodd" clip-rule="evenodd" d="M28.0121 18V18C28.4432 18.0035 28.7763 17.8494 29.0139 17.5886C29.2577 17.321 29.5 16.8274 29.5 16C29.5 12.9624 27.0376 10.5 24 10.5C20.9624 10.5 18.5 12.9624 18.5 16C18.5 19.0376 20.9624 21.5 24 21.5C24.1271 21.5 24.2366 21.4966 24.3302 21.4911C24.285 21.2768 24.222 20.947 24.2236 20.6003C24.2257 20.1775 24.3222 19.6251 24.719 19.1201C25.1054 18.6283 25.6389 18.3576 26.1673 18.2075C26.6894 18.0592 27.3034 18 28 18H28.0121ZM24.4291 22.0099L24.429 22.0049C24.4291 22.0084 24.4291 22.01 24.4291 22.0099ZM28 19.5C29.6607 19.5134 31 18.25 31 16C31 12.134 27.866 9 24 9C20.134 9 17 12.134 17 16C17 19.866 20.134 23 24 23C26.1907 23 26.0114 22.1705 25.8274 21.3191C25.6334 20.4217 25.4342 19.5 28 19.5ZM25 13C25 13.5523 24.5523 14 24 14C23.4477 14 23 13.5523 23 13C23 12.4477 23.4477 12 24 12C24.5523 12 25 12.4477 25 13ZM27 15.75C27.5523 15.75 28 15.3023 28 14.75C28 14.1977 27.5523 13.75 27 13.75C26.4477 13.75 26 14.1977 26 14.75C26 15.3023 26.4477 15.75 27 15.75ZM22.25 14.75C22.25 15.3023 21.8023 15.75 21.25 15.75C20.6977 15.75 20.25 15.3023 20.25 14.75C20.25 14.1977 20.6977 13.75 21.25 13.75C21.8023 13.75 22.25 14.1977 22.25 14.75ZM21.75 19C22.3023 19 22.75 18.5523 22.75 18C22.75 17.4477 22.3023 17 21.75 17C21.1977 17 20.75 17.4477 20.75 18C20.75 18.5523 21.1977 19 21.75 19Z" fill="black"/>
</svg>
