<svg width="48" height="32" viewBox="0 0 48 32" fill="none" xmlns="http://www.w3.org/2000/svg">
<path fill-rule="evenodd" clip-rule="evenodd" d="M24 14.5C25.1046 14.5 26 13.6046 26 12.5C26 11.3954 25.1046 10.5 24 10.5C22.8954 10.5 22 11.3954 22 12.5C22 13.6046 22.8954 14.5 24 14.5ZM24 16C25.933 16 27.5 14.433 27.5 12.5C27.5 10.567 25.933 9 24 9C22.067 9 20.5 10.567 20.5 12.5C20.5 14.433 22.067 16 24 16ZM25 17.2252C25 16.8401 24.7063 16.5158 24.3214 16.5047C24.2148 16.5016 24.1077 16.5 24 16.5C20.15 16.5 17 18.5 17 20.5C17 21.8807 18.1193 23 19.5 23H22.75C23.1642 23 23.5 22.6642 23.5 22.25C23.5 21.8358 23.1642 21.5 22.75 21.5H19.5C18.9477 21.5 18.5 21.0523 18.5 20.5C18.5 20.2955 18.7203 19.6911 19.8196 19.0413C20.8375 18.4395 22.3198 18 24 18C24.0584 18 24.1167 18.0005 24.1746 18.0016C24.6166 18.0096 25 17.6673 25 17.2252ZM29 20.5C28.1716 20.5 27.5 19.8284 27.5 19C27.5 18.1716 28.1716 17.5 29 17.5C29.8284 17.5 30.5 18.1716 30.5 19C30.5 19.8284 29.8284 20.5 29 20.5ZM29 22C28.4436 22 27.9227 21.8486 27.476 21.5846L26.0303 23.0303C25.7374 23.3232 25.2626 23.3232 24.9697 23.0303C24.6768 22.7374 24.6768 22.2626 24.9697 21.9697L26.4154 20.524C26.1514 20.0773 26 19.5564 26 19C26 17.3431 27.3431 16 29 16C30.6569 16 32 17.3431 32 19C32 20.6569 30.6569 22 29 22Z" fill="black"/>
</svg>
