<svg width="48" height="32" viewBox="0 0 48 32" fill="none" xmlns="http://www.w3.org/2000/svg">
<path fill-rule="evenodd" clip-rule="evenodd" d="M29.25 11H24.75V21H27.25C27.6642 21 28 21.3358 28 21.75C28 22.1642 27.6642 22.5 27.25 22.5H24H20.75C20.3358 22.5 20 22.1642 20 21.75C20 21.3358 20.3358 21 20.75 21H23.25V11H18.75C18.3358 11 18 10.6642 18 10.25C18 9.83579 18.3358 9.5 18.75 9.5H24H29.25C29.6642 9.5 30 9.83579 30 10.25C30 10.6642 29.6642 11 29.25 11ZM17.6428 16.5683L17.6499 16.586C17.8707 17.138 18.4054 17.5 19 17.5C19.5945 17.5 20.1292 17.138 20.35 16.586L20.3571 16.5683L19 13.8541L17.6428 16.5683ZM19 12C18.5403 12 18.1201 12.2597 17.9145 12.6708L16.2008 16.0983C16.073 16.3538 16.0607 16.6517 16.1667 16.9169L16.2572 17.143C16.7058 18.2646 17.792 19 19 19C20.2079 19 21.2941 18.2646 21.7427 17.143L21.8332 16.9169C21.9393 16.6517 21.9269 16.3538 21.7991 16.0983L20.0854 12.6708C19.8798 12.2597 19.4596 12 19 12ZM27.6428 16.5683L27.6499 16.586C27.8707 17.138 28.4054 17.5 29 17.5C29.5945 17.5 30.1292 17.138 30.35 16.586L30.3571 16.5683L29 13.8541L27.6428 16.5683ZM29 12C28.5403 12 28.1201 12.2597 27.9145 12.6708L26.2008 16.0983C26.073 16.3538 26.0607 16.6517 26.1667 16.9169L26.2572 17.143C26.7058 18.2646 27.792 19 29 19C30.2079 19 31.2941 18.2646 31.7427 17.143L31.8332 16.9169C31.9393 16.6517 31.9269 16.3538 31.7991 16.0983L30.0854 12.6708C29.8798 12.2597 29.4596 12 29 12Z" fill="black"/>
</svg>
