<svg width="48" height="32" viewBox="0 0 48 32" fill="none" xmlns="http://www.w3.org/2000/svg">
<path fill-rule="evenodd" clip-rule="evenodd" d="M24 9.5C20.6985 9.5 17.973 11.9607 17.5554 15.1485C17.5016 15.5592 17.7909 15.9358 18.2016 15.9896C18.6123 16.0434 18.9889 15.754 19.0427 15.3433C19.3637 12.8925 21.4615 11 24 11C25.3984 11 26.6626 11.5734 27.5708 12.5H26.25C25.8358 12.5 25.5 12.8358 25.5 13.25C25.5 13.6642 25.8358 14 26.25 14H29.25C29.6642 14 30 13.6642 30 13.25V10.25C30 9.83579 29.6642 9.5 29.25 9.5C28.8358 9.5 28.5 9.83579 28.5 10.25V11.3096C27.3327 10.1896 25.7468 9.5 24 9.5ZM18.75 22.5C18.3358 22.5 18 22.1642 18 21.75L18 18.75C18 18.3358 18.3358 18 18.75 18H21.75C22.1642 18 22.5 18.3358 22.5 18.75C22.5 19.1642 22.1642 19.5 21.75 19.5H20.4293C21.3374 20.4266 22.6016 21 24 21C26.5386 21 28.6363 19.1075 28.9574 16.6567C29.0112 16.246 29.3877 15.9566 29.7984 16.0104C30.2091 16.0642 30.4985 16.4408 30.4447 16.8515C30.0271 20.0393 27.3015 22.5 24 22.5C22.2532 22.5 20.6673 21.8104 19.5 20.6904L19.5 21.75C19.5 22.1642 19.1642 22.5 18.75 22.5Z" fill="black"/>
</svg>
