<svg width="3016" height="816" viewBox="0 0 3016 816" fill="none" xmlns="http://www.w3.org/2000/svg">
<path d="M868.012 810V443.2H943.992V742.928H1144.68V810H868.012ZM1279.32 814.716C1259.75 814.716 1242.46 811.223 1227.44 804.236C1212.42 796.9 1200.72 786.944 1192.33 774.368C1183.95 761.792 1179.76 747.295 1179.76 730.876C1179.76 704.676 1189.54 684.415 1209.1 670.092C1229.01 655.42 1256.26 648.084 1290.84 648.084C1314.6 648.084 1336.96 651.752 1357.92 659.088V639.176C1357.92 623.456 1353.02 611.579 1343.24 603.544C1333.46 595.509 1319.14 591.492 1300.28 591.492C1288.75 591.492 1276.35 593.413 1263.07 597.256C1249.8 600.749 1234.43 606.339 1216.96 614.024L1190.76 561.1C1212.42 551.319 1233.03 543.983 1252.59 539.092C1272.5 534.201 1292.42 531.756 1312.33 531.756C1349.01 531.756 1377.48 540.664 1397.74 558.48C1418.35 575.947 1428.66 600.749 1428.66 632.888V810H1357.92V790.612C1346.74 798.996 1334.68 805.109 1321.76 808.952C1308.83 812.795 1294.69 814.716 1279.32 814.716ZM1247.88 729.304C1247.88 739.784 1252.42 748.168 1261.5 754.456C1270.58 760.395 1282.63 763.364 1297.66 763.364C1309.53 763.364 1320.54 761.967 1330.67 759.172C1340.8 756.028 1349.88 751.487 1357.92 745.548V705.724C1349.18 702.231 1340.1 699.611 1330.67 697.864C1321.24 696.117 1311.1 695.244 1300.28 695.244C1283.86 695.244 1270.93 698.388 1261.5 704.676C1252.42 710.615 1247.88 718.824 1247.88 729.304ZM1482.99 810V443.2L1554.78 431.148V559.004C1576.43 541.887 1601.94 533.328 1631.28 533.328C1657.13 533.328 1680.54 539.616 1701.5 552.192C1722.46 564.768 1739.05 581.711 1751.28 603.02C1763.85 623.98 1770.14 647.56 1770.14 673.76C1770.14 699.96 1763.85 723.715 1751.28 745.024C1738.7 765.984 1721.76 782.752 1700.45 795.328C1679.14 807.555 1655.38 813.668 1629.18 813.668C1615.56 813.668 1602.28 811.747 1589.36 807.904C1576.43 804.061 1564.56 798.472 1553.73 791.136V810H1482.99ZM1619.75 752.884C1634.77 752.884 1648.22 749.391 1660.1 742.404C1672.33 735.417 1681.93 725.985 1688.92 714.108C1695.91 702.231 1699.4 688.781 1699.4 673.76C1699.4 658.739 1695.91 645.289 1688.92 633.412C1681.93 621.185 1672.33 611.753 1660.1 605.116C1648.22 598.129 1634.77 594.636 1619.75 594.636C1606.48 594.636 1594.25 596.907 1583.07 601.448C1572.24 605.64 1562.81 612.103 1554.78 620.836V727.208C1562.46 735.243 1571.89 741.531 1583.07 746.072C1594.6 750.613 1606.83 752.884 1619.75 752.884ZM1915.74 815.24C1890.59 815.24 1867.36 812.096 1846.05 805.808C1824.74 799.171 1806.22 789.739 1790.5 777.512L1826.13 729.828C1841.85 740.308 1856.88 748.168 1871.2 753.408C1885.87 758.648 1900.37 761.268 1914.69 761.268C1930.76 761.268 1943.51 758.648 1952.94 753.408C1962.72 747.819 1967.61 740.657 1967.61 731.924C1967.61 724.937 1964.82 719.348 1959.23 715.156C1953.99 710.964 1945.43 707.995 1933.55 706.248L1881.15 698.388C1853.91 694.196 1833.3 685.463 1819.32 672.188C1805.35 658.564 1798.36 640.748 1798.36 618.74C1798.36 600.924 1802.9 585.728 1811.99 573.152C1821.42 560.227 1834.52 550.271 1851.29 543.284C1868.4 535.948 1888.66 532.28 1912.07 532.28C1931.98 532.28 1951.37 535.075 1970.23 540.664C1989.45 546.253 2007.44 554.812 2024.21 566.34L1989.62 612.976C1974.6 603.544 1960.28 596.732 1946.65 592.54C1933.03 588.348 1919.23 586.252 1905.26 586.252C1892.33 586.252 1881.85 588.697 1873.82 593.588C1866.13 598.479 1862.29 604.941 1862.29 612.976C1862.29 620.312 1865.08 626.076 1870.67 630.268C1876.26 634.46 1885.87 637.429 1899.49 639.176L1951.37 647.036C1978.62 650.879 1999.4 659.612 2013.73 673.236C2028.05 686.511 2035.21 703.803 2035.21 725.112C2035.21 742.579 2029.97 758.124 2019.49 771.748C2009.01 785.023 1994.86 795.677 1977.05 803.712C1959.23 811.397 1938.79 815.24 1915.74 815.24Z" fill="#F39639"/>
<path d="M803.974 255.841C803.974 222.417 797.39 189.321 784.6 158.442C771.809 127.562 753.061 99.5044 729.427 75.8704C705.793 52.2363 677.736 33.4888 646.856 20.6981C615.977 7.90748 582.881 1.32422 549.457 1.32422L549.457 255.841H803.974Z" fill="#F39639"/>
<path d="M274.706 1.32375C274.706 34.7474 281.289 67.8437 294.08 98.723C306.871 129.602 325.618 157.66 349.252 181.294C372.886 204.928 400.944 223.676 431.823 236.466C462.703 249.257 495.799 255.84 529.223 255.84L529.223 1.32378L274.706 1.32375Z" fill="#F39639"/>
<path d="M-0.000927751 255.841C33.4227 255.841 66.519 249.258 97.3983 236.467C128.278 223.676 156.335 204.929 179.969 181.295C203.604 157.661 222.351 129.603 235.142 98.7235C247.932 67.8441 254.516 34.7478 254.516 1.32422L-0.000930786 1.32424L-0.000927751 255.841Z" fill="#F39639"/>
<path d="M254.524 533.068C254.524 499.645 247.941 466.548 235.15 435.669C222.36 404.79 203.612 376.732 179.978 353.098C156.344 329.464 128.286 310.716 97.4071 297.926C66.5277 285.135 33.4314 278.552 0.0078125 278.552L0.00783073 533.068H254.524Z" fill="#F39639"/>
<path d="M549.448 533.081C582.872 533.081 615.968 526.498 646.848 513.708C677.727 500.917 705.785 482.169 729.419 458.535C753.053 434.901 771.8 406.844 784.591 375.964C797.382 345.085 803.965 311.989 803.965 278.565L549.448 278.565L549.448 533.081Z" fill="#F39639"/>
<path d="M529.231 278.565C495.808 278.565 462.711 285.149 431.832 297.939C400.953 310.73 372.895 329.478 349.261 353.112C325.627 376.746 306.879 404.803 294.089 435.683C281.298 466.562 274.715 499.658 274.715 533.082L529.231 533.082L529.231 278.565Z" fill="#F39639"/>
<path d="M803.974 810.324C803.974 776.9 797.39 743.804 784.6 712.924C771.809 682.045 753.061 653.987 729.427 630.353C705.793 606.719 677.736 587.972 646.856 575.181C615.977 562.39 582.881 555.807 549.457 555.807L549.457 810.324H803.974Z" fill="#F39639"/>
<path d="M274.706 555.806C274.706 589.23 281.289 622.326 294.08 653.205C306.871 684.085 325.618 712.143 349.252 735.777C372.886 759.411 400.944 778.158 431.823 790.949C462.703 803.739 495.799 810.323 529.223 810.323L529.223 555.806L274.706 555.806Z" fill="#F39639"/>
<path d="M-0.000927751 810.324C33.4227 810.324 66.519 803.74 97.3983 790.95C128.278 778.159 156.335 759.412 179.969 735.777C203.604 712.143 222.351 684.086 235.142 653.206C247.932 622.327 254.516 589.231 254.516 555.807L-0.000930786 555.807L-0.000927751 810.324Z" fill="#F39639"/>
<path d="M1910.03 70.7364C1919.29 70.7364 1928.47 68.9117 1937.02 65.3664C1945.58 61.8212 1953.36 56.6248 1959.91 50.074C1966.46 43.5232 1971.66 35.7463 1975.2 27.1872C1978.75 18.6282 1980.57 9.45466 1980.57 0.19043L1910.03 0.190436L1910.03 70.7364Z" fill="#F39639"/>
<path d="M2886.04 371.02C2858.86 371.02 2834.13 364.749 2811.83 352.207C2789.89 339.666 2772.47 322.77 2759.58 301.519C2746.69 280.268 2740.24 256.404 2740.24 229.927C2740.24 203.451 2746.34 179.587 2758.53 158.336C2771.07 137.085 2787.97 120.189 2809.22 107.648C2830.47 95.1062 2854.16 88.8354 2880.29 88.8354C2906.42 88.8354 2929.58 95.2804 2949.79 108.17C2970 121.06 2985.85 138.479 2997.34 160.427C3009.19 182.374 3015.11 207.283 3015.11 235.153V253.965H2813.4C2816.54 264.765 2821.59 274.52 2828.56 283.229C2835.87 291.938 2844.75 298.732 2855.21 303.609C2866.01 308.486 2877.5 310.925 2889.7 310.925C2901.89 310.925 2913.04 309.009 2923.14 305.177C2933.59 301.344 2942.47 295.945 2949.79 288.977L2996.82 331.827C2980.1 345.414 2962.85 355.343 2945.09 361.613C2927.67 367.884 2907.98 371.02 2886.04 371.02ZM2812.36 202.754H2944.56C2942.13 191.955 2937.6 182.548 2930.98 174.536C2924.71 166.175 2917.04 159.73 2907.98 155.201C2899.28 150.324 2889.52 147.885 2878.72 147.885C2867.57 147.885 2857.47 150.15 2848.41 154.678C2839.36 159.207 2831.69 165.652 2825.42 174.013C2819.5 182.026 2815.14 191.606 2812.36 202.754Z" fill="#1b0532"/>
<path d="M2679.12 369.975C2648.82 369.975 2625.82 363.182 2610.15 349.595C2594.82 335.66 2587.15 315.455 2587.15 288.978V153.112H2531.24V93.5395H2587.15V24.0386L2658.74 24.0386V93.5395H2736.61V153.112H2658.74V274.346C2658.74 286.888 2661.53 295.946 2667.1 301.52C2672.68 306.745 2682.43 309.358 2696.37 309.358C2703.34 309.358 2709.61 309.01 2715.18 308.313C2721.1 307.268 2727.55 305.526 2734.52 303.087V362.137C2727.2 364.576 2717.97 366.492 2706.82 367.885C2696.02 369.279 2686.79 369.975 2679.12 369.975Z" fill="#1b0532"/>
<path d="M2370.26 370.497C2350.75 370.497 2333.51 367.013 2318.53 360.046C2303.55 352.73 2291.88 342.801 2283.51 330.26C2275.15 317.718 2270.97 303.261 2270.97 286.887C2270.97 260.759 2280.73 240.553 2300.24 226.27C2320.09 211.638 2347.27 204.322 2381.76 204.322C2405.45 204.322 2427.74 207.98 2448.64 215.296V195.438C2448.64 179.762 2443.77 167.917 2434.01 159.904C2424.26 151.891 2409.97 147.885 2391.16 147.885C2379.67 147.885 2367.3 149.801 2354.06 153.633C2340.82 157.117 2325.49 162.691 2308.07 170.355L2281.95 117.577C2303.55 107.822 2324.1 100.506 2343.61 95.6289C2363.47 90.7516 2383.32 88.313 2403.18 88.313C2439.76 88.313 2468.15 97.1966 2488.36 114.964C2508.91 132.382 2519.19 157.117 2519.19 189.168V365.794H2448.64V346.459C2437.5 354.82 2425.48 360.917 2412.59 364.749C2399.7 368.581 2385.59 370.497 2370.26 370.497ZM2338.91 285.319C2338.91 295.771 2343.43 304.132 2352.49 310.402C2361.55 316.325 2373.57 319.286 2388.55 319.286C2400.39 319.286 2411.37 317.892 2421.47 315.105C2431.57 311.97 2440.63 307.441 2448.64 301.519V261.804C2439.93 258.32 2430.88 255.707 2421.47 253.965C2412.06 252.224 2401.96 251.353 2391.16 251.353C2374.79 251.353 2361.9 254.488 2352.49 260.759C2343.43 266.681 2338.91 274.868 2338.91 285.319Z" fill="#1b0532"/>
<path d="M2151.2 371.02C2124.37 371.02 2100.16 364.923 2078.56 352.73C2056.96 340.188 2039.89 323.292 2027.35 302.041C2014.81 280.442 2008.54 256.404 2008.54 229.928C2008.54 203.103 2014.81 179.065 2027.35 157.814C2039.89 136.563 2056.96 119.667 2078.56 107.125C2100.16 94.5837 2124.37 88.313 2151.2 88.313C2172.8 88.313 2193.35 92.4935 2212.86 100.854C2232.72 109.216 2249.79 121.234 2264.07 136.911L2220.18 183.419C2210.07 172.271 2199.45 164.085 2188.3 158.859C2177.5 153.285 2165.66 150.498 2152.77 150.498C2138.83 150.498 2126.29 153.982 2115.14 160.949C2104.34 167.917 2095.63 177.323 2089.01 189.168C2082.74 201.012 2079.61 214.599 2079.61 229.928C2079.61 244.559 2082.74 257.972 2089.01 270.165C2095.63 282.01 2104.69 291.416 2116.19 298.383C2127.68 305.002 2140.4 308.312 2154.33 308.312C2166.53 308.312 2177.85 305.873 2188.3 300.996C2199.1 295.771 2209.38 288.106 2219.13 278.003L2261.98 322.944C2248.05 337.924 2231.33 349.769 2211.82 358.478C2192.31 366.839 2172.1 371.02 2151.2 371.02Z" fill="#1b0532"/>
<path d="M1909.17 365.794V93.5386H1980.76V365.794H1909.17Z" fill="#1b0532"/>
<path d="M1797.27 365.794V0L1868.86 -2.40112e-06V365.794H1797.27Z" fill="#1b0532"/>
<path d="M1325.8 372.184C1298.62 372.184 1273.89 365.913 1251.59 353.372C1229.64 340.83 1212.22 323.934 1199.33 302.683C1186.44 281.432 1180 257.569 1180 231.092C1180 204.616 1186.1 180.752 1198.29 159.501C1210.83 138.25 1227.73 121.354 1248.98 108.812C1270.23 96.2708 1293.92 90 1320.05 90C1346.18 90 1369.34 96.4449 1389.55 109.335C1409.75 122.225 1425.6 139.644 1437.1 161.591C1448.95 183.539 1454.87 208.448 1454.87 236.318V255.13H1253.16C1256.29 265.93 1261.35 275.684 1268.31 284.393C1275.63 293.103 1284.51 299.896 1294.96 304.773C1305.76 309.651 1317.26 312.089 1329.45 312.089C1341.65 312.089 1352.79 310.173 1362.9 306.341C1373.35 302.509 1382.23 297.109 1389.55 290.142L1436.58 332.992C1419.86 346.578 1402.61 356.507 1384.84 362.778C1367.43 369.049 1347.74 372.184 1325.8 372.184ZM1252.11 203.919H1384.32C1381.88 193.119 1377.35 183.713 1370.74 175.7C1364.46 167.339 1356.8 160.894 1347.74 156.366C1339.03 151.488 1329.28 149.05 1318.48 149.05C1307.33 149.05 1297.23 151.314 1288.17 155.843C1279.11 160.372 1271.45 166.817 1265.18 175.178C1259.26 183.19 1254.9 192.771 1252.11 203.919Z" fill="#1b0532"/>
<path d="M869.301 365.794V0H1048.02C1072.75 0 1094.53 4.87725 1113.34 14.6318C1132.5 24.0379 1147.3 37.2762 1157.76 54.3466C1168.56 71.417 1173.96 91.1002 1173.96 113.396C1173.96 136.737 1167.51 157.292 1154.62 175.059C1141.73 192.826 1124.49 206.064 1102.89 214.773L1183.88 365.794H1099.23L1027.64 225.747H945.072V365.794H869.301ZM945.072 163.562H1041.22C1058.29 163.562 1071.88 159.033 1081.98 149.976C1092.44 140.918 1097.66 129.073 1097.66 114.441C1097.66 99.8096 1092.44 87.9648 1081.98 78.907C1071.88 69.8493 1058.29 65.3204 1041.22 65.3204H945.072V163.562Z" fill="#1b0532"/>
<path d="M1483.27 488.5V93.5388H1553.82V116.009C1576.12 98.5902 1601.9 89.8809 1631.16 89.8809C1656.94 89.8809 1680.28 96.1516 1701.18 108.693C1722.08 121.235 1738.63 138.131 1750.83 159.382C1763.37 180.284 1769.64 203.8 1769.64 229.928C1769.64 256.056 1763.37 279.745 1750.83 300.996C1738.28 321.899 1721.39 338.621 1700.14 351.162C1678.89 363.356 1655.2 369.452 1629.07 369.452C1615.48 369.452 1602.42 367.71 1589.88 364.226C1577.33 360.394 1565.66 354.995 1554.86 348.027V464.5L1483.27 488.5ZM1619.66 308.835C1634.64 308.835 1648.05 305.351 1659.9 298.384C1672.09 291.416 1681.67 282.01 1688.64 270.165C1695.61 258.32 1699.09 244.908 1699.09 229.928C1699.09 214.948 1695.61 201.535 1688.64 189.69C1681.67 177.497 1672.09 168.091 1659.9 161.472C1648.05 154.504 1634.64 151.021 1619.66 151.021C1606.42 151.021 1594.23 153.285 1583.08 157.814C1572.28 161.995 1562.88 168.439 1554.86 177.149V283.229C1562.53 291.242 1571.93 297.513 1583.08 302.041C1594.58 306.57 1606.77 308.835 1619.66 308.835Z" fill="#1b0532"/>
</svg>
