<svg width="2116" height="500" viewBox="0 0 2116 500" fill="none" xmlns="http://www.w3.org/2000/svg">
<path d="M428.536 381.066L323.014 320.091C308.19 311.554 289.233 316.631 280.653 331.459C277.329 337.3 276.025 343.725 276.654 349.971V469.13C276.654 486.158 290.49 499.997 307.561 499.997C324.587 499.997 338.422 486.159 338.422 469.13V400.609L397.54 434.757C412.365 443.338 431.366 438.217 439.901 423.389C448.482 408.562 443.406 389.603 428.536 381.066ZM166.1 250.403C166.187 244.996 164.83 239.664 162.168 234.957C159.507 230.25 155.639 226.338 150.962 223.625L45.439 162.697C40.8481 160.051 35.6435 158.657 30.3452 158.654C19.519 158.654 9.45638 164.45 4.06629 173.796C-4.28968 188.263 0.696761 206.819 15.1616 215.177L75.9867 250.269L15.1627 285.405C8.15457 289.449 3.12213 295.964 1.05671 303.783C-1.0547 311.6 0.0228549 319.778 4.06629 326.788C9.45638 336.133 19.519 341.93 30.3003 341.93C35.6018 341.93 40.8574 340.537 45.439 337.885L150.962 276.958C155.601 274.259 159.445 270.381 162.103 265.718C164.762 261.054 166.141 255.771 166.1 250.403ZM69.3834 119.518L174.906 180.445C187.214 187.588 202.398 185.253 212.101 175.772C218.256 170.111 222.074 162.023 222.074 153.037V30.9129C222.074 13.8386 208.238 0 191.212 0C174.142 0 160.305 13.8386 160.305 30.9129V100.422L100.378 65.8252C85.5548 57.2432 66.5981 62.3204 58.0178 77.1471C49.4376 91.9738 54.5586 110.936 69.3834 119.518ZM306.661 255.346C306.661 257.682 305.315 260.918 303.653 262.625L261.831 304.456C260.168 306.119 256.889 307.467 254.552 307.467H243.907C241.57 307.467 238.291 306.119 236.628 304.457L194.761 262.625C193.099 260.918 191.751 257.682 191.751 255.346V244.697C191.751 242.316 193.099 239.081 194.761 237.418L236.628 195.542C238.291 193.88 241.57 192.532 243.907 192.532H254.552C256.889 192.532 260.168 193.88 261.831 195.542L303.653 237.418C305.315 239.081 306.663 242.316 306.663 244.697L306.661 255.346ZM269.332 250.224V249.775C269.332 248.067 268.343 245.686 267.131 244.428L254.778 232.117C253.564 230.858 251.184 229.87 249.431 229.87H248.983C247.275 229.87 244.894 230.859 243.636 232.117L231.328 244.428C230.114 245.641 229.127 248.022 229.127 249.774V250.224C229.127 251.976 230.116 254.358 231.328 255.57L243.636 267.927C244.894 269.14 247.275 270.129 248.983 270.129H249.431C251.184 270.129 253.564 269.14 254.778 267.927L267.131 255.57C268.344 254.358 269.332 251.976 269.332 250.224ZM323.014 180.445L428.536 119.518C443.361 110.98 448.482 91.975 439.901 77.1471C431.322 62.3204 412.365 57.2432 397.54 65.8252L338.422 99.9726V30.9129C338.422 13.8386 324.587 0 307.561 0C290.49 0 276.654 13.8386 276.654 30.9129V150.611C276.07 156.811 277.283 163.281 280.653 169.122C289.232 183.949 308.19 189.027 323.014 180.445ZM196.064 316.498C189.056 315.149 181.554 316.273 174.906 320.092L69.3834 381.066C54.5598 389.603 49.4376 408.563 58.0178 423.391C66.5969 438.264 85.5548 443.341 100.38 434.759L160.307 400.162V469.131C160.307 486.16 174.141 500 191.212 500C208.238 500 222.074 486.16 222.074 469.132V347.007C222.074 331.595 210.799 318.835 196.064 316.498ZM494.482 173.435C485.947 158.563 466.945 153.487 452.12 162.068L346.598 222.996C336.49 228.836 330.921 239.53 331.1 250.403C331.011 261.232 336.581 271.791 346.598 277.542L452.12 338.514C466.944 347.052 485.902 341.974 494.482 327.147C503.062 312.32 497.941 293.358 483.117 284.776L423.37 250.269L483.117 215.761C497.986 207.224 503.062 188.263 494.482 173.435ZM2116 243.124V244.293C2116 250.044 2111.19 254.312 2105.26 254.312H1957.02C1957.29 257.818 1957.74 261.232 1958.45 264.602C1965.33 296.728 1992.82 320.632 2025.48 320.901H2034.1C2034.78 320.901 2035.45 320.901 2036.17 320.856C2036.8 320.856 2037.43 320.811 2038.06 320.766C2038.1 320.766 2038.15 320.766 2038.19 320.721C2049.02 319.868 2059.93 315.511 2069.68 308.5H2069.73C2070.25 308.125 2070.76 307.736 2071.26 307.332C2071.35 307.286 2071.43 307.198 2071.57 307.107C2072.01 306.766 2072.44 306.422 2072.87 306.074C2073.05 305.939 2073.19 305.805 2073.37 305.669C2073.74 305.383 2074.1 305.084 2074.44 304.772C2074.67 304.591 2074.94 304.367 2075.16 304.186C2075.43 303.909 2075.71 303.653 2076.02 303.423C2076.29 303.154 2076.6 302.884 2076.87 302.614C2077.11 302.416 2077.33 302.206 2077.54 301.985C2077.9 301.671 2078.22 301.356 2078.58 301.042C2078.76 300.862 2078.94 300.637 2079.12 300.457L2080.19 299.38L2080.69 298.885L2081.77 297.671C2081.94 297.537 2082.08 297.357 2082.21 297.177C2082.62 296.773 2082.98 296.368 2083.34 295.964C2083.47 295.785 2083.65 295.604 2083.79 295.425C2084.15 294.976 2084.46 294.572 2084.82 294.167L2085.36 293.494C2085.67 293.089 2085.99 292.729 2086.26 292.37C2086.5 292.043 2086.74 291.713 2086.98 291.381C2087.2 291.067 2087.43 290.798 2087.65 290.484C2088.01 289.989 2088.37 289.494 2088.68 289C2088.79 288.853 2088.9 288.704 2089 288.551C2089.9 287.227 2090.77 285.878 2091.6 284.507C2091.6 284.507 2091.6 284.461 2091.65 284.417C2091.83 284.103 2092.05 283.833 2092.28 283.519C2092.37 283.384 2092.46 283.248 2092.59 283.159C2092.73 282.934 2092.91 282.8 2093.04 282.619L2093.45 282.216C2093.63 282.081 2093.76 281.945 2093.94 281.811C2094.08 281.676 2094.21 281.542 2094.39 281.452C2094.63 281.261 2094.88 281.096 2095.15 280.957C2095.34 280.821 2095.53 280.701 2095.74 280.598C2095.94 280.517 2096.13 280.427 2096.32 280.328C2096.5 280.238 2096.68 280.193 2096.82 280.104C2097.09 280.014 2097.31 279.969 2097.58 279.879C2097.71 279.833 2097.8 279.79 2097.94 279.744C2098.79 279.564 2099.69 279.43 2100.54 279.43C2101.49 279.43 2102.48 279.564 2103.37 279.835H2103.47C2103.83 279.969 2104.23 280.059 2104.59 280.238C2104.68 280.284 2104.77 280.284 2104.86 280.328C2105.25 280.496 2105.62 280.691 2105.98 280.912L2106.16 281.002C2111.1 284.597 2112.63 290.887 2109.62 296.054L2109.58 296.099C2109.23 296.674 2108.87 297.243 2108.5 297.806C2108.41 297.941 2108.32 298.076 2108.23 298.211C2097.72 314.206 2083.43 326.967 2067.48 334.605C2067.13 334.74 2066.81 334.92 2066.45 335.099C2066.41 335.099 2066.32 335.145 2066.27 335.145C2058.91 338.559 2051 340.94 2042.55 341.93C2042.37 341.93 2042.19 341.974 2042.01 341.974C2041.3 342.071 2040.58 342.146 2039.86 342.199C2039.45 342.199 2039.05 342.244 2038.6 342.288C2038.11 342.288 2037.57 342.333 2037.07 342.378C2036.08 342.378 2035.1 342.423 2034.11 342.423H2025.39C1975.53 342.063 1935.37 300.457 1935.37 249.505C1935.37 197.698 1975.8 155.867 2026.07 155.867C2027.55 155.867 2029.03 155.913 2030.51 155.956C2048.03 156.856 2064.21 162.831 2077.64 172.627C2077.68 172.672 2077.73 172.717 2077.77 172.717C2078.53 173.255 2079.25 173.839 2079.97 174.379C2080.33 174.693 2080.74 175.008 2081.14 175.322C2081.5 175.592 2081.86 175.906 2082.22 176.175C2101.13 191.946 2113.89 215.625 2116 243.034L2116 243.124ZM1958.45 233.149H2092.64C2085.99 200.799 2058.18 177.39 2026.06 177.39C1993.36 177.39 1965.78 200.349 1958.45 233.149ZM1736.99 159.013C1738.65 160.675 1739.77 162.922 1740.04 165.528C1740.04 165.888 1740.09 166.246 1740.09 166.606V331.639C1740.09 337.525 1735.15 342.423 1729.31 342.423C1723.47 342.423 1718.57 337.525 1718.57 331.639V309.713C1714.48 314.656 1709.99 319.149 1705.09 323.057C1704.96 323.193 1704.82 323.283 1704.69 323.417C1704.23 323.776 1703.77 324.121 1703.3 324.45C1688.47 335.863 1670.46 342.423 1651.63 342.423C1621.31 342.423 1594.63 326.293 1578.73 301.85C1578.59 301.671 1578.41 301.445 1578.28 301.266C1577.83 300.502 1577.38 299.738 1576.88 298.93C1576.57 298.435 1576.3 297.941 1575.99 297.446C1575.67 296.953 1575.4 296.413 1575.13 295.875C1574.68 295.105 1574.25 294.326 1573.83 293.537C1573.69 293.268 1573.6 292.999 1573.47 292.729C1567.38 280.651 1563.92 267.42 1563.32 253.908C1563.14 250.735 1563.14 247.555 1563.32 244.383C1563.93 230.857 1567.39 217.612 1573.47 205.516C1573.6 205.293 1573.69 205.022 1573.83 204.753C1574.25 203.965 1574.68 203.186 1575.13 202.417C1575.4 201.877 1575.67 201.338 1575.99 200.844C1576.25 200.349 1576.57 199.856 1576.88 199.361C1577.33 198.597 1577.83 197.789 1578.28 197.025C1578.41 196.845 1578.59 196.62 1578.73 196.44C1594.63 171.998 1621.31 155.868 1651.63 155.868C1672.12 155.868 1691.48 163.371 1706.89 176.446C1711.11 179.995 1715.02 183.905 1718.57 188.218V166.605C1718.57 166.246 1718.57 165.888 1718.62 165.528C1718.88 162.922 1720.01 160.675 1721.67 159.013V158.968C1721.85 158.788 1722.07 158.654 1722.25 158.473L1722.43 158.294C1722.57 158.159 1722.75 158.069 1722.88 157.98C1723.02 157.89 1723.15 157.754 1723.29 157.664C1723.39 157.621 1723.48 157.561 1723.56 157.485C1723.78 157.395 1723.96 157.261 1724.19 157.126C1724.23 157.126 1724.28 157.08 1724.32 157.08L1725.13 156.676H1725.18C1725.81 156.414 1726.47 156.218 1727.15 156.092C1727.2 156.092 1727.29 156.047 1727.33 156.047C1727.6 156.002 1727.92 155.957 1728.23 155.913C1728.59 155.913 1728.95 155.868 1729.31 155.868C1729.71 155.868 1730.07 155.913 1730.43 155.913C1730.74 155.957 1731.01 156.002 1731.33 156.047C1731.37 156.047 1731.42 156.093 1731.51 156.093C1732.18 156.219 1732.85 156.414 1733.48 156.676H1733.53C1733.8 156.811 1734.07 156.946 1734.29 157.081C1734.39 157.081 1734.43 157.126 1734.47 157.126C1734.66 157.262 1734.85 157.382 1735.06 157.485C1735.15 157.575 1735.28 157.62 1735.37 157.664C1735.51 157.754 1735.64 157.89 1735.78 157.98C1735.92 158.07 1736.06 158.175 1736.18 158.294C1736.27 158.34 1736.32 158.428 1736.4 158.473C1736.58 158.654 1736.81 158.788 1736.95 158.968L1736.99 159.013ZM1651.63 320.901C1688.52 320.901 1718.57 288.731 1718.57 249.146C1718.57 209.382 1688.52 177.03 1651.63 177.03C1615.02 177.03 1584.7 209.336 1584.7 249.146C1584.7 250.403 1584.75 251.617 1584.79 252.83C1584.79 253.368 1584.88 253.863 1584.88 254.358C1584.93 255.077 1584.98 255.796 1585.06 256.47C1585.11 257.054 1585.2 257.592 1585.24 258.132C1585.33 258.761 1585.38 259.435 1585.47 260.064C1585.56 260.559 1585.65 261.007 1585.69 261.456C1585.83 262.176 1585.92 262.894 1586.05 263.614C1586.14 263.973 1586.23 264.288 1586.27 264.603C1586.45 265.455 1586.63 266.264 1586.81 267.119C1586.85 267.304 1586.92 267.484 1586.99 267.657C1594.63 298.39 1620.86 320.901 1651.63 320.901ZM1466.96 78.0466H1464.04C1463.68 78.0466 1463.28 78.0466 1462.92 78.0915C1462.51 78.0455 1462.15 78.0455 1461.75 78.0455C1460.71 78.0455 1459.68 78.0455 1458.65 78.0915C1458.47 78.0915 1458.24 78.1363 1458.06 78.1363C1457.26 78.1363 1456.45 78.1812 1455.64 78.2709H1455.19C1454.34 78.3606 1453.53 78.4055 1452.72 78.4952C1452.63 78.5412 1452.54 78.5412 1452.45 78.5412C1451.55 78.6758 1450.7 78.7655 1449.89 78.9001H1449.8C1444.36 79.7536 1439.46 81.2811 1435.11 83.4378C1435.11 83.4838 1435.06 83.4838 1435.01 83.4838C1434.39 83.8427 1433.71 84.2016 1433.08 84.5616C1432.95 84.6065 1432.86 84.6962 1432.72 84.7859C1432.18 85.0993 1431.64 85.4292 1431.11 85.7751C1430.88 85.9097 1430.7 86.0891 1430.52 86.2237C1430.07 86.4929 1429.67 86.808 1429.22 87.1221C1428.92 87.3901 1428.6 87.6449 1428.28 87.8858L1427.47 88.5599C1426.97 89.0096 1426.53 89.4145 1426.08 89.8631C1425.98 89.9528 1425.9 90.0425 1425.81 90.1334C1425.27 90.7166 1424.73 91.256 1424.19 91.8404C1424.1 91.975 1424.01 92.1095 1423.92 92.1993C1423.47 92.6826 1423.04 93.1774 1422.62 93.6831C1422.48 93.9074 1422.3 94.1317 1422.17 94.356C1421.82 94.7794 1421.49 95.2141 1421.18 95.6592C1421.1 95.825 1420.99 95.9766 1420.87 96.1078C1420.51 96.6484 1420.15 97.1867 1419.83 97.7262C1419.79 97.8159 1419.74 97.8608 1419.7 97.9505C1416.78 102.759 1414.71 108.42 1413.41 115.25C1413.41 115.339 1413.41 115.475 1413.36 115.564C1413.18 116.418 1413.05 117.316 1412.91 118.216C1412.87 118.485 1412.82 118.754 1412.82 119.024C1412.69 119.799 1412.59 120.578 1412.51 121.359C1412.46 121.81 1412.42 122.259 1412.37 122.753C1412.28 123.382 1412.19 123.967 1412.15 124.64C1412.1 125.328 1412.06 126.017 1412.01 126.707C1411.97 127.155 1411.97 127.606 1411.92 128.1C1411.88 129.043 1411.83 130.032 1411.79 131.021C1411.79 131.29 1411.74 131.47 1411.74 131.694C1411.7 132.953 1411.7 134.256 1411.7 135.513V153.261H1389.33C1387.93 153.216 1386.54 153.487 1385.28 153.935C1381.24 155.419 1378.36 159.238 1378.36 163.686C1378.36 167.865 1380.43 171.413 1383.66 173.48C1385.33 174.548 1387.26 175.153 1389.24 175.233H1389.33V175.278H1411.7V331.999C1411.65 332.224 1411.7 332.403 1411.7 332.629V333.032C1411.83 335.487 1412.83 337.813 1414.53 339.592L1414.57 339.638C1414.8 339.863 1415.07 340.087 1415.29 340.311C1415.34 340.357 1415.39 340.357 1415.43 340.401C1415.61 340.581 1415.83 340.716 1416.01 340.849C1416.11 340.939 1416.21 341.014 1416.33 341.075C1416.41 341.16 1416.52 341.222 1416.64 341.255C1418.44 342.405 1420.53 343.014 1422.66 343.007C1423.01 343.002 1423.35 342.972 1423.69 342.918C1425.8 342.738 1427.74 341.839 1429.31 340.537L1429.35 340.491C1429.57 340.319 1429.77 340.124 1429.94 339.907C1429.98 339.861 1430.07 339.818 1430.12 339.773C1430.3 339.592 1430.43 339.413 1430.57 339.278C1432.27 337.211 1433.22 334.65 1433.08 331.999V175.278H1457.16V175.232H1457.25C1463.63 174.918 1468.3 169.931 1468.12 163.73V163.641C1468.17 163.416 1468.12 163.193 1468.12 162.967V162.743C1467.94 160.362 1466.91 158.204 1465.29 156.542V156.497H1465.25C1465.05 156.29 1464.84 156.095 1464.62 155.913C1464.53 155.823 1464.44 155.778 1464.39 155.688C1464.21 155.554 1464.08 155.464 1463.9 155.328C1463.77 155.239 1463.59 155.104 1463.45 155.014C1463.36 154.969 1463.23 154.88 1463.14 154.835C1462.92 154.697 1462.7 154.577 1462.46 154.475C1462.41 154.428 1462.35 154.397 1462.28 154.385C1462.02 154.247 1461.75 154.127 1461.47 154.026C1461.43 153.98 1461.38 153.98 1461.29 153.936L1460.49 153.666C1460.39 153.666 1460.31 153.621 1460.22 153.621C1459.95 153.576 1459.72 153.487 1459.45 153.442C1459.32 153.442 1459.18 153.442 1459.05 153.397C1458.87 153.352 1458.64 153.352 1458.42 153.307H1457.93C1457.79 153.307 1457.66 153.262 1457.52 153.262H1433.08V135.2C1433.13 134.302 1433.13 133.402 1433.18 132.549C1433.18 132.324 1433.18 132.054 1433.22 131.83C1433.22 131.066 1433.27 130.302 1433.31 129.583C1433.31 129.449 1433.36 129.269 1433.36 129.135C1433.41 128.294 1433.49 127.455 1433.58 126.618C1434.44 117.857 1436.32 112.33 1438.3 108.96C1438.35 108.87 1438.35 108.825 1438.39 108.735C1438.53 108.511 1438.71 108.287 1438.84 108.061C1438.95 107.872 1439.07 107.691 1439.2 107.522C1439.25 107.432 1439.34 107.253 1439.43 107.163C1439.64 106.858 1439.88 106.573 1440.14 106.309C1442.97 103.119 1447.38 101.187 1453.76 100.424C1453.85 100.424 1453.89 100.378 1454.02 100.378C1454.4 100.325 1454.77 100.295 1455.15 100.288C1455.33 100.243 1455.55 100.243 1455.73 100.198C1456.09 100.198 1456.41 100.153 1456.77 100.153C1457.03 100.153 1457.26 100.108 1457.57 100.108C1457.89 100.063 1458.2 100.063 1458.52 100.063C1458.83 100.063 1459.15 100.017 1459.46 100.017H1461.8C1462.16 100.017 1462.47 99.9738 1462.83 99.9289C1463.23 99.9738 1463.64 100.019 1464.04 100.019H1466.96C1472.98 100.019 1477.92 95.076 1477.92 89.0108C1477.92 82.9444 1472.98 78.0466 1466.96 78.0466ZM1524.91 78.3606C1524.91 78.3606 1524.86 78.3146 1524.82 78.3146C1524.59 78.226 1524.41 78.1363 1524.14 78.0915C1524.03 78.0392 1523.91 77.9939 1523.78 77.9557C1523.6 77.9107 1523.42 77.8659 1523.24 77.8212C1523.07 77.7763 1522.89 77.6866 1522.75 77.6866C1522.53 77.6406 1522.35 77.5969 1522.12 77.5969C1521.94 77.5508 1521.81 77.5508 1521.63 77.5071C1521.27 77.4611 1520.86 77.4611 1520.5 77.4611C1514.66 77.4611 1509.72 82.36 1509.72 88.201V331.639C1509.72 337.525 1514.66 342.423 1520.5 342.423C1520.86 342.423 1521.27 342.423 1521.63 342.378C1521.67 342.378 1521.76 342.333 1521.81 342.333L1522.75 342.199C1522.8 342.199 1522.88 342.154 1522.97 342.154C1523.24 342.064 1523.51 342.019 1523.78 341.93C1523.83 341.93 1523.87 341.93 1523.92 341.884C1528.05 340.581 1531.1 337.077 1531.55 332.763C1531.61 332.391 1531.64 332.016 1531.64 331.639V88.201C1531.64 87.841 1531.6 87.4821 1531.55 87.1221C1531.15 83.1687 1528.55 79.8882 1524.91 78.3606ZM700.091 285.135C700.001 284.507 700.001 283.923 699.912 283.338C699.869 282.918 699.825 282.499 699.777 282.08C699.687 281.585 699.643 281.137 699.552 280.642C699.462 280.193 699.372 279.745 699.283 279.25C699.23 278.872 699.155 278.496 699.058 278.126C698.924 277.587 698.833 277.092 698.698 276.554C698.609 276.284 698.519 275.97 698.429 275.699C698.297 275.131 698.117 274.575 697.89 274.037C697.845 273.813 697.755 273.589 697.711 273.408C697.491 272.787 697.251 272.173 696.992 271.567C696.946 271.477 696.902 271.341 696.857 271.207C696.542 270.577 696.273 269.903 695.958 269.274C695.913 269.229 695.913 269.184 695.868 269.14C693.308 263.973 689.67 259.659 685.223 256.02C685.223 255.975 685.223 255.975 685.177 255.975C684.549 255.48 683.92 254.942 683.245 254.447C683.245 254.447 683.201 254.401 683.156 254.358C683.11 254.358 683.066 254.312 683.022 254.268C682.617 253.999 682.213 253.684 681.853 253.415C676.327 249.505 670.218 246.405 661.323 242.99L660.919 242.855C660.785 242.766 660.604 242.721 660.471 242.631C655.439 240.745 650.228 238.947 644.883 237.194H644.837C644.837 237.194 644.793 237.194 644.793 237.149C644.703 237.149 644.612 237.104 644.478 237.059C643.899 236.851 643.315 236.656 642.726 236.475C642.366 236.385 642.097 236.295 641.827 236.206C640.031 235.576 638.188 234.992 636.347 234.363C635.044 233.914 633.652 233.466 631.989 232.925C631.54 232.791 630.463 232.431 629.563 232.161C629.519 232.161 629.518 232.117 629.474 232.117C628.922 231.93 628.368 231.75 627.812 231.577C623.32 230.139 619.635 228.882 616.491 227.713C611.37 225.827 606.699 223.805 602.88 221.378C602.799 221.343 602.724 221.298 602.655 221.243C597.445 217.919 593.851 213.83 592.998 208.482L592.952 208.438C592.9 208.065 592.87 207.691 592.863 207.315C592.817 207.225 592.817 207.18 592.817 207.134C592.773 206.686 592.773 206.281 592.773 205.832C592.773 205.203 592.818 204.574 592.863 203.99C592.863 203.81 592.863 203.676 592.908 203.541C592.953 203.046 592.998 202.598 593.042 202.148C593.087 202.012 593.087 201.878 593.132 201.743C593.222 201.248 593.312 200.8 593.401 200.305C593.447 200.26 593.447 200.171 593.491 200.081C593.614 199.564 593.763 199.054 593.939 198.553V198.507C596.276 191.544 601.802 186.377 608.315 182.738C608.764 182.512 609.214 182.288 609.619 182.064C610.067 181.838 610.472 181.615 610.876 181.434C611.541 181.116 612.215 180.816 612.897 180.536C613.302 180.355 613.661 180.176 614.066 180.041L616.222 179.233C616.609 179.091 616.998 178.956 617.389 178.828C618.108 178.604 618.782 178.379 619.501 178.199C619.95 178.064 620.355 177.93 620.804 177.84C621.478 177.659 622.152 177.525 622.781 177.345L624.128 177.076C624.847 176.94 625.52 176.806 626.15 176.716C626.542 176.678 626.932 176.618 627.317 176.537C628.108 176.437 628.902 176.363 629.698 176.312C629.878 176.266 630.058 176.266 630.282 176.223C631.271 176.177 632.26 176.133 633.203 176.133C634.326 176.133 635.449 176.178 636.527 176.223H637.021C644.972 176.717 651.396 178.648 656.698 181.209C657.1 181.389 657.505 181.614 657.91 181.793C658.125 181.931 658.35 182.051 658.584 182.153C659.078 182.422 659.573 182.692 660.111 183.007L660.38 183.141C660.92 183.456 661.459 183.815 661.998 184.13C662.021 184.156 662.053 184.172 662.088 184.175C662.671 184.534 663.255 184.939 663.839 185.298C663.839 185.344 663.884 185.344 663.884 185.388C664.468 185.748 665.008 186.107 665.546 186.511C665.745 186.676 665.955 186.826 666.175 186.96C667.433 187.903 669.41 189.432 671.206 190.915C671.402 191.027 671.583 191.163 671.746 191.318C673.094 192.442 674.352 193.43 675.564 194.33C675.738 194.472 675.918 194.606 676.103 194.733C676.148 194.779 676.193 194.823 676.238 194.823L676.642 195.094C676.956 195.318 677.316 195.542 677.631 195.768C677.765 195.857 677.901 195.902 678.034 195.992L678.978 196.531C679.113 196.576 679.202 196.621 679.338 196.666C679.674 196.834 680.019 196.984 680.371 197.114C680.46 197.16 680.505 197.161 680.595 197.204C681 197.34 681.403 197.475 681.808 197.519L681.853 197.564C682.751 197.699 683.605 197.744 684.504 197.518C684.594 197.518 684.683 197.475 684.773 197.475C684.997 197.429 685.267 197.34 685.492 197.295C685.581 197.249 685.626 197.205 685.716 197.159C685.812 197.15 685.904 197.119 685.986 197.07C686.355 196.893 686.714 196.698 687.064 196.486C687.154 196.486 687.198 196.44 687.243 196.397C687.636 196.137 688.012 195.852 688.367 195.542L688.412 195.497C688.726 195.228 688.996 194.914 689.265 194.599C689.455 194.362 689.621 194.106 689.759 193.835C689.804 193.789 689.849 193.745 689.849 193.701C691.735 190.555 690.658 186.422 687.333 181.928C687.288 181.838 687.243 181.748 687.153 181.659C687.019 181.479 686.929 181.345 686.795 181.164C679.157 171.28 661.773 160.45 645.645 156.992C645.555 156.992 645.466 156.992 645.376 156.946C644.702 156.811 643.983 156.676 643.309 156.542C643.112 156.534 642.916 156.504 642.725 156.452C642.141 156.362 641.558 156.273 640.974 156.228C640.753 156.176 640.527 156.146 640.3 156.138C639.76 156.092 639.176 156.048 638.638 156.003C638.413 155.957 638.188 155.957 638.009 155.914C637.245 155.914 636.526 155.868 635.808 155.868C634.639 155.868 633.471 155.868 632.349 155.914C631.72 155.914 631.091 155.959 630.417 156.003C629.968 156.048 629.428 156.048 628.979 156.048C628.081 156.138 627.228 156.183 626.374 156.273C626.149 156.273 625.88 156.273 625.656 156.318C624.679 156.398 623.705 156.502 622.735 156.632H622.421C621.414 156.756 620.41 156.905 619.411 157.08H619.232C618.254 157.219 617.28 157.384 616.311 157.575C616.267 157.575 616.222 157.621 616.131 157.621C614.153 157.976 612.19 158.41 610.247 158.923C610.202 158.923 610.202 158.969 610.202 158.969C609.259 159.193 608.316 159.462 607.373 159.731C606.473 160.002 605.62 160.316 604.812 160.586C604.722 160.586 604.676 160.631 604.586 160.631C603.778 160.945 602.969 161.214 602.16 161.528C602.091 161.57 602.015 161.601 601.937 161.619C601.161 161.921 600.397 162.251 599.645 162.608C599.555 162.652 599.42 162.652 599.331 162.743C598.657 163.012 597.938 163.371 597.309 163.686C597.13 163.776 596.995 163.821 596.861 163.91C596.203 164.213 595.558 164.543 594.928 164.9C594.749 164.989 594.613 165.079 594.434 165.169C593.85 165.483 593.267 165.843 592.683 166.202C592.493 166.29 592.313 166.395 592.143 166.517C591.38 166.965 590.66 167.46 589.942 167.909C589.089 168.539 588.235 169.122 587.471 169.751C587.381 169.751 587.336 169.797 587.336 169.841C583.518 172.672 580.238 175.682 577.544 179.187C577.454 179.321 577.318 179.457 577.229 179.592C576.915 180.086 576.555 180.535 576.24 180.983C576.017 181.343 575.791 181.703 575.567 182.062C575.386 182.322 575.221 182.592 575.072 182.871C574.716 183.455 574.386 184.055 574.083 184.669C574.04 184.759 573.995 184.803 573.95 184.893C571.523 189.701 570.132 195.228 569.592 201.923C569.592 202.012 569.592 202.102 569.548 202.192C569.502 203.36 569.412 204.529 569.367 205.786C569.367 206.729 569.367 207.673 569.413 208.617V209.022C569.907 221.872 575.746 231.532 586.303 239.036C586.393 239.081 586.483 239.171 586.573 239.216L587.92 240.159C588.234 240.383 588.594 240.564 588.909 240.788C588.998 240.878 589.134 240.923 589.223 240.968C599.645 247.574 612.403 251.348 623.05 254.358C628.26 255.885 632.933 257.187 634.326 257.592C634.639 257.682 634.953 257.773 635.223 257.907C641.603 260.019 646.5 261.726 650.542 263.343C650.857 263.433 651.126 263.569 651.44 263.659C651.53 263.703 651.665 263.748 651.8 263.838C654.091 264.781 656.337 265.77 658.493 266.848C660.234 267.729 661.942 268.673 663.614 269.679C667.882 272.33 671.161 275.206 673.363 278.352C673.452 278.44 673.497 278.531 673.542 278.621C673.763 278.877 673.945 279.165 674.081 279.475C674.202 279.629 674.307 279.794 674.395 279.969C674.533 280.184 674.653 280.409 674.755 280.643C674.89 280.867 674.98 281.138 675.114 281.362L675.384 281.9C675.474 282.171 675.609 282.44 675.698 282.754C675.744 282.89 675.833 283.069 675.878 283.248L676.148 284.192C676.199 284.34 676.244 284.49 676.282 284.641C676.378 284.966 676.453 285.296 676.507 285.631C676.558 285.775 676.588 285.926 676.596 286.079L676.732 287.158C676.777 287.293 676.777 287.427 676.777 287.562C676.822 288.101 676.867 288.596 676.867 289.134C676.867 289.943 676.821 290.708 676.777 291.472C676.777 291.696 676.731 291.92 676.731 292.144C676.685 292.735 676.595 293.321 676.462 293.897C676.462 294.077 676.417 294.256 676.372 294.437C676.103 296.009 675.653 297.492 675.069 298.975C675.024 299.02 675.024 299.064 675.024 299.109C674.71 299.783 674.395 300.502 674.037 301.131C673.992 301.221 673.992 301.266 673.947 301.311C673.183 302.749 672.285 304.142 671.161 305.445C670.617 306.11 670.047 306.754 669.455 307.377C669.409 307.377 669.409 307.377 669.409 307.422C668.197 308.634 666.849 309.757 665.456 310.792C665.411 310.836 665.367 310.836 665.367 310.881C664.693 311.329 664.019 311.824 663.345 312.229C663.255 312.319 663.165 312.364 663.076 312.408C661.439 313.422 659.744 314.337 658 315.149C657.505 315.375 656.966 315.644 656.428 315.868C655.979 316.048 655.574 316.228 655.125 316.408C653.911 316.856 652.744 317.306 651.531 317.711C651.345 317.75 651.164 317.81 650.991 317.89C650.273 318.115 649.554 318.295 648.835 318.52C648.656 318.565 648.432 318.654 648.251 318.699C645.97 319.304 643.662 319.799 641.334 320.183H641.199C640.076 320.362 638.998 320.497 637.964 320.632C637.561 320.676 637.201 320.721 636.797 320.721C636.437 320.766 636.078 320.766 635.673 320.811C634.821 320.863 633.967 320.892 633.112 320.901C631.494 320.902 629.877 320.857 628.262 320.766C627.632 320.766 627.003 320.72 626.374 320.676C625.521 320.587 624.623 320.542 623.813 320.451C623.048 320.401 622.283 320.326 621.522 320.227C620.849 320.137 620.219 320.047 619.59 319.957C618.199 319.732 616.896 319.553 615.593 319.283C615.009 319.149 614.38 319.059 613.796 318.923C613.122 318.744 612.449 318.609 611.775 318.429C611.034 318.261 610.3 318.066 609.574 317.846C609.079 317.711 608.54 317.575 608.09 317.441C606.877 317.084 605.679 316.679 604.498 316.228L603.688 315.958C601.083 314.969 598.522 313.891 596.006 312.634C595.917 312.588 595.782 312.498 595.647 312.453C594.03 311.645 591.29 310.117 588.685 308.634C588.46 308.5 588.191 308.365 587.966 308.23C586.124 307.152 584.551 306.253 583.07 305.535C582.969 305.467 582.864 305.407 582.755 305.354C582.685 305.312 582.609 305.282 582.53 305.264C582.125 305.085 581.811 304.905 581.452 304.77C581.344 304.733 581.239 304.688 581.138 304.635C580.195 304.276 579.34 304.006 578.487 303.916C578.218 303.871 577.949 303.871 577.678 303.871C577.589 303.826 577.499 303.826 577.409 303.826C575.701 303.826 574.219 304.411 572.826 305.714C572.52 305.976 572.235 306.261 571.973 306.567C571.912 306.668 571.837 306.759 571.749 306.838C571.596 307.03 571.447 307.224 571.3 307.421C571.219 307.537 571.144 307.657 571.075 307.781C570.94 307.96 570.806 308.14 570.716 308.32C570.638 308.446 570.577 308.582 570.536 308.724L570.267 309.264C570.221 309.398 570.177 309.488 570.132 309.623C570.058 309.813 569.997 310.008 569.951 310.207C569.907 310.341 569.862 310.432 569.862 310.567L569.727 311.241C569.727 311.331 569.682 311.42 569.682 311.51C569.638 311.824 569.637 312.094 569.637 312.364V312.498C569.637 312.858 569.683 313.172 569.772 313.532V313.712C569.862 313.982 569.908 314.296 569.997 314.565L570.132 314.97C570.222 315.194 570.267 315.465 570.401 315.689C570.438 315.797 570.483 315.902 570.536 316.003C571.12 317.351 572.064 318.744 573.276 320.092C574.579 321.53 576.241 322.968 578.173 324.452C578.218 324.452 578.218 324.452 578.218 324.495C578.757 324.855 579.296 325.259 579.879 325.664C580.015 325.754 580.105 325.843 580.239 325.888C581.901 327.022 583.61 328.086 585.36 329.078C585.809 329.348 586.259 329.618 586.708 329.843C587.157 330.112 587.606 330.337 588.056 330.562C588.595 330.876 589.223 331.19 589.808 331.505C590.212 331.684 590.571 331.909 590.976 332.089C591.874 332.538 592.817 332.988 593.761 333.437C593.871 333.515 593.992 333.575 594.12 333.617C595.154 334.111 596.187 334.56 597.219 334.965C597.669 335.144 598.074 335.324 598.522 335.503C598.604 335.553 598.697 335.584 598.793 335.593C608.407 339.368 620.265 341.885 630.732 342.333C631.495 342.378 632.304 342.423 633.067 342.423H633.113C633.472 342.423 633.786 342.423 634.146 342.377H636.573C636.661 342.377 636.751 342.377 636.842 342.333C653.867 341.794 667.838 337.391 679.742 328.674V328.628C692.95 318.654 700.227 304.59 700.227 289.089C700.227 288.1 700.181 287.112 700.137 286.168C700.137 285.809 700.091 285.45 700.091 285.135ZM809.926 156.227H809.792C788.858 156.227 769.093 164.764 754.806 179.861V167.01C754.806 161.08 750.225 156.227 744.43 156.227C744.025 156.227 743.666 156.273 743.306 156.273C740.746 156.542 738.499 157.664 736.837 159.328C736.793 159.328 736.792 159.328 736.748 159.373C736.613 159.552 736.434 159.731 736.299 159.911C736.203 159.962 736.124 160.04 736.074 160.136C735.939 160.271 735.85 160.405 735.76 160.54C735.67 160.686 735.564 160.821 735.446 160.945L735.31 161.214C735.186 161.43 735.051 161.64 734.907 161.843C734.907 161.889 734.906 161.933 734.86 161.978L734.458 162.786C734.233 163.461 734.008 164.135 733.874 164.809C733.874 164.855 733.874 164.898 733.828 164.898C733.786 165.229 733.741 165.558 733.693 165.888C733.693 166.246 733.648 166.606 733.648 167.01V333.886L733.514 334.605L734.053 335.053C734.053 335.279 734.098 335.594 734.233 335.908C734.233 335.954 734.279 336.043 734.279 336.087C734.378 336.355 734.53 336.6 734.727 336.806C736.119 339.458 738.68 341.48 741.689 342.378L741.915 342.424H744.43C744.834 342.424 745.238 342.424 745.643 342.378C745.912 342.333 746.182 342.244 746.451 342.199C746.586 342.199 746.676 342.199 746.811 342.153C747.176 342.069 747.536 341.964 747.889 341.839H747.934C749.82 341.166 751.438 339.997 752.515 338.425L752.651 338.289C753.37 337.525 753.774 336.717 754.178 335.594C754.223 335.459 754.268 335.369 754.268 335.279C754.313 335.234 754.313 335.234 754.313 335.189C754.492 334.651 754.627 334.111 754.761 333.572L754.807 333.392V232.385C755.525 202.28 780.142 177.794 809.702 177.748H809.792C839.89 177.748 864.371 202.237 864.371 232.34V331.638C864.371 332.043 864.417 332.402 864.462 332.762C864.661 335.222 865.728 337.531 867.472 339.277C867.472 339.277 867.516 339.277 867.516 339.322C867.696 339.501 867.875 339.636 868.056 339.817C868.119 339.89 868.195 339.95 868.28 339.996C868.414 340.131 868.549 340.22 868.684 340.31C868.807 340.429 868.943 340.534 869.088 340.625C869.207 340.657 869.315 340.719 869.402 340.805C869.583 340.939 869.807 341.029 869.987 341.165C870.033 341.165 870.076 341.209 870.166 341.209C870.391 341.344 870.66 341.479 870.931 341.613H870.976C871.612 341.876 872.274 342.071 872.951 342.198C873.041 342.198 873.086 342.242 873.132 342.242C873.446 342.287 873.715 342.332 874.029 342.377C874.402 342.416 874.777 342.431 875.152 342.423C875.512 342.423 875.871 342.423 876.231 342.377C876.545 342.332 876.86 342.287 877.129 342.242C877.175 342.242 877.264 342.198 877.31 342.198C878.001 342.071 878.678 341.876 879.33 341.613L880.14 341.209C880.185 341.209 880.23 341.163 880.275 341.163C880.499 341.029 880.678 340.939 880.904 340.805C880.993 340.715 881.083 340.67 881.173 340.625C881.318 340.534 881.454 340.429 881.578 340.31C881.712 340.22 881.892 340.131 882.026 339.996C882.072 339.951 882.161 339.906 882.207 339.817C882.386 339.636 882.61 339.501 882.79 339.322V339.277C884.497 337.615 885.62 335.369 885.845 332.762C885.89 332.402 885.89 332.043 885.89 331.638V232.34C885.89 190.419 851.838 156.316 809.926 156.227ZM1003.72 155.868C1052.51 155.868 1092.17 197.699 1092.17 249.146C1092.17 300.592 1052.51 342.423 1003.72 342.423C1002.22 342.424 1000.72 342.379 999.228 342.288C999.004 342.288 998.824 342.288 998.6 342.244C997.297 342.199 995.994 342.064 994.736 341.93H994.602C975.33 339.818 957.316 331.011 942.986 316.587C942.402 316.004 941.772 315.42 941.234 314.791C941.188 314.791 941.188 314.746 941.145 314.746C940.829 314.432 940.56 314.072 940.245 313.713C939.561 312.974 938.887 312.224 938.225 311.465C937.684 310.882 937.191 310.208 936.652 309.579C936.293 309.084 935.888 308.59 935.484 308.095C934.681 307.107 933.917 306.088 933.193 305.041L932.923 304.636C924.145 292.358 918.445 278.15 916.302 263.209C916.078 261.817 915.943 260.423 915.808 259.03C915.763 258.895 915.763 258.716 915.718 258.535C915.583 257.251 915.494 255.962 915.449 254.672C915.404 254.403 915.404 254.133 915.404 253.818C915.314 252.262 915.269 250.704 915.269 249.146C915.269 247.574 915.314 246 915.404 244.472C915.404 244.158 915.404 243.888 915.449 243.619C915.492 242.328 915.582 241.039 915.718 239.754C915.764 239.575 915.764 239.395 915.808 239.26C915.943 237.868 916.078 236.475 916.302 235.082C918.445 220.141 924.145 205.933 932.923 193.655C932.971 193.52 933.048 193.397 933.149 193.296C933.901 192.229 934.68 191.18 935.483 190.151C935.843 189.701 936.248 189.251 936.607 188.758C937.147 188.084 937.685 187.455 938.225 186.78C938.856 186.065 939.501 185.361 940.157 184.669C940.471 184.309 940.829 183.905 941.145 183.545C941.189 183.545 941.189 183.5 941.234 183.5C941.729 182.917 942.312 182.378 942.851 181.838C957.18 167.37 975.24 158.474 994.602 156.362H994.736C995.994 156.227 997.297 156.137 998.6 156.047C998.824 156.047 999.004 156.002 999.228 156.002C1000.72 155.912 1002.22 155.867 1003.72 155.868ZM1070.3 241.821V241.731C1068.72 225.557 1062.07 210.954 1052.15 199.676C1051.7 199.181 1051.29 198.687 1050.84 198.192L1050.04 197.385C1049.5 196.845 1049 196.306 1048.46 195.766C1047.97 195.272 1047.43 194.823 1046.94 194.375C1046.62 194.104 1046.35 193.79 1046.04 193.52C1045.23 192.801 1044.42 192.128 1043.61 191.453C1043.61 191.453 1043.57 191.453 1043.57 191.408C1034.18 183.815 1022.9 178.828 1010.77 177.435C1010.64 177.435 1010.55 177.39 1010.46 177.39C1009.52 177.255 1008.62 177.211 1007.67 177.166C1007.45 177.12 1007.27 177.12 1007.09 177.12C1005.97 177.031 1004.84 177.031 1003.72 177.031C1002.6 177.031 1001.48 177.031 1000.35 177.121C1000.17 177.121 999.993 177.121 999.767 177.166C998.824 177.211 997.926 177.255 996.982 177.39C996.892 177.39 996.803 177.435 996.668 177.435C984.539 178.828 973.263 183.815 963.874 191.408C963.874 191.454 963.83 191.454 963.83 191.454C963.01 192.13 962.202 192.818 961.404 193.52C961.09 193.79 960.82 194.059 960.506 194.329C960.012 194.823 959.472 195.272 958.979 195.766C958.484 196.261 957.99 196.8 957.451 197.34L956.597 198.193C956.194 198.642 955.789 199.137 955.34 199.631C945.412 210.909 938.718 225.557 937.147 241.731V241.821C937.048 242.868 936.972 243.917 936.922 244.967C936.922 245.147 936.876 245.326 936.876 245.505C936.832 246.719 936.787 247.932 936.787 249.146C936.787 288.64 967.154 320.901 1003.72 320.901C1040.29 320.901 1070.66 288.64 1070.66 249.146C1070.66 247.932 1070.61 246.719 1070.57 245.505C1070.57 245.326 1070.52 245.147 1070.52 244.967C1070.48 243.888 1070.38 242.855 1070.3 241.821ZM1352.14 160.495C1352.05 160.405 1352 160.316 1351.91 160.226C1350.82 158.864 1349.4 157.798 1347.78 157.126H1347.73C1347.56 156.99 1347.33 156.946 1347.15 156.856C1347.06 156.856 1346.97 156.811 1346.84 156.766C1345.4 156.271 1343.83 156.182 1342.3 156.407H1342.25C1339.15 156.902 1336.19 158.788 1334.53 161.574H1334.48C1334.26 162.023 1333.99 162.472 1333.81 162.922L1333.76 162.967V163.012L1282.28 303.962L1241.85 207.719C1241.45 206.82 1240.91 206.012 1240.28 205.247C1238.08 202.686 1234.71 201.069 1231.25 201.069C1230.71 201.069 1230.22 201.069 1229.68 201.204H1229.5C1225.9 201.833 1222.53 204.348 1221.01 207.719V207.763L1180.58 304.007L1160.99 250.762L1128.74 163.012C1128.57 162.551 1128.37 162.101 1128.15 161.664L1128.06 161.574C1127.07 159.731 1125.5 158.294 1123.62 157.395C1123.62 157.395 1123.57 157.395 1123.57 157.35C1122.62 156.937 1121.63 156.635 1120.61 156.452C1120.52 156.452 1120.47 156.452 1120.38 156.406C1119.87 156.354 1119.36 156.325 1118.85 156.318H1118.49C1118.27 156.318 1118.05 156.318 1117.82 156.362C1117.69 156.362 1117.51 156.407 1117.37 156.407C1117.15 156.452 1116.97 156.452 1116.79 156.497C1116.65 156.542 1116.52 156.542 1116.38 156.587C1116.16 156.632 1115.93 156.676 1115.71 156.766C1115.62 156.811 1115.53 156.811 1115.44 156.856C1115.21 156.946 1114.99 156.99 1114.77 157.125H1114.72C1112.88 157.934 1111.4 159.327 1110.32 160.944C1110.27 161.035 1110.23 161.08 1110.18 161.169L1110.05 161.438C1109.24 162.787 1108.75 164.36 1108.57 165.932C1108.38 167.644 1108.63 169.374 1109.29 170.965L1146.62 271.296L1170.56 335.639V335.684C1171.55 338.111 1172.99 339.772 1174.96 340.671C1175.01 340.716 1175.1 340.761 1175.14 340.806C1175.19 340.86 1175.25 340.906 1175.32 340.94C1175.32 340.985 1175.37 340.985 1175.41 341.03C1175.5 341.075 1175.55 341.12 1175.64 341.209H1175.73C1176.15 341.472 1176.63 341.626 1177.12 341.658C1177.17 341.658 1177.21 341.704 1177.26 341.704C1177.44 341.749 1177.62 341.839 1177.8 341.884C1177.89 341.884 1177.98 341.93 1178.06 341.93C1179.19 342.288 1179.91 342.423 1180.8 342.423C1181.3 342.423 1181.75 342.377 1182.24 342.288C1182.63 342.241 1183 342.15 1183.37 342.018C1183.46 341.973 1183.54 341.973 1183.63 341.928C1184.01 341.834 1184.37 341.698 1184.71 341.525C1184.85 341.479 1184.98 341.435 1185.12 341.344C1185.34 341.209 1185.61 341.075 1185.88 340.94C1186.08 340.795 1186.29 340.66 1186.51 340.535C1186.64 340.446 1186.78 340.311 1186.91 340.221C1187.22 339.996 1187.52 339.756 1187.81 339.503C1187.86 339.456 1187.9 339.413 1187.95 339.322C1188.26 339.008 1188.58 338.694 1188.89 338.334C1188.89 338.289 1188.94 338.244 1188.98 338.199C1189.26 337.827 1189.52 337.437 1189.75 337.031C1189.98 336.564 1190.19 336.084 1190.37 335.593L1190.42 335.458L1190.56 335.279L1190.69 334.964L1231.26 238.092L1272.18 335.323C1272.5 336.32 1273 337.249 1273.66 338.065C1273.75 338.199 1273.84 338.289 1273.93 338.424C1274.16 338.705 1274.4 338.974 1274.65 339.232C1274.78 339.322 1274.92 339.458 1275.05 339.547C1275.28 339.772 1275.55 339.996 1275.82 340.221C1275.95 340.311 1276.04 340.401 1276.18 340.446C1276.48 340.671 1276.8 340.881 1277.12 341.075L1277.39 341.209C1277.75 341.389 1278.06 341.57 1278.47 341.704C1278.56 341.749 1278.65 341.794 1278.78 341.794C1279.1 341.94 1279.43 342.06 1279.77 342.153C1280.2 342.238 1280.64 342.328 1281.07 342.423H1282.42C1282.93 342.424 1283.44 342.379 1283.95 342.287C1284.08 342.287 1284.17 342.287 1284.31 342.242C1284.73 342.164 1285.15 342.059 1285.56 341.928C1285.67 341.892 1285.78 341.847 1285.88 341.794C1286.33 341.659 1286.77 341.434 1287.18 341.209C1287.22 341.209 1287.27 341.165 1287.31 341.165C1287.79 340.871 1288.26 340.557 1288.71 340.221C1290.5 338.873 1291.81 337.12 1292.7 334.965V334.919L1318 266.803L1353.57 170.965C1354.97 167.595 1354.43 163.91 1352.5 161.035C1352.39 160.845 1352.27 160.665 1352.14 160.495ZM1923.41 163.505C1923.41 163.308 1923.37 163.112 1923.32 162.922C1923.32 162.786 1923.28 162.652 1923.23 162.517C1923.18 162.293 1923.14 162.069 1923.1 161.888C1923.05 161.754 1923 161.619 1922.96 161.529C1922.92 161.275 1922.83 161.03 1922.69 160.81C1922.69 160.721 1922.65 160.675 1922.6 160.585C1922.48 160.287 1922.33 160.001 1922.15 159.731V159.687C1921.62 158.769 1920.95 157.936 1920.17 157.216L1920.13 157.17L1920.08 157.126C1916.26 153.307 1910.87 152.813 1906.65 155.778C1906.52 155.868 1906.43 155.957 1906.29 156.002L1905.75 156.407C1905.48 156.676 1905.21 156.902 1904.94 157.171C1904.94 157.171 1904.9 157.171 1904.9 157.216L1799.64 259.84V88.1998C1799.64 87.841 1799.64 87.4821 1799.6 87.1221C1799.19 83.1687 1796.54 79.8882 1792.95 78.3606C1792.9 78.3606 1792.9 78.3146 1792.86 78.3146C1792.64 78.2202 1792.41 78.1455 1792.18 78.0915C1792.07 78.0392 1791.95 77.9939 1791.82 77.9557C1791.63 77.9058 1791.44 77.861 1791.24 77.8212C1791.08 77.7704 1790.91 77.7256 1790.75 77.6866C1790.56 77.6348 1790.36 77.6047 1790.16 77.5969C1789.98 77.5508 1789.85 77.5508 1789.67 77.5071C1789.26 77.4611 1788.9 77.4611 1788.54 77.4611C1782.66 77.4611 1777.76 82.36 1777.76 88.201V331.639C1777.76 337.525 1782.66 342.423 1788.54 342.423C1788.9 342.423 1789.31 342.423 1789.67 342.378C1789.71 342.378 1789.76 342.333 1789.85 342.333C1790.16 342.288 1790.48 342.288 1790.75 342.199C1790.84 342.199 1790.92 342.154 1791.01 342.154C1791.28 342.064 1791.55 342.019 1791.82 341.93C1791.87 341.93 1791.91 341.884 1791.96 341.884C1796.09 340.581 1799.14 337.032 1799.59 332.763C1799.64 332.404 1799.64 332.044 1799.64 331.639V290.572L1835.08 255.167L1903.95 338.29C1904.4 339.009 1904.89 339.638 1905.52 340.132C1905.63 340.249 1905.75 340.355 1905.88 340.447C1906.06 340.581 1906.24 340.716 1906.42 340.806C1906.64 340.986 1906.87 341.076 1907.09 341.211C1907.19 341.255 1907.32 341.345 1907.41 341.39C1907.72 341.525 1907.99 341.614 1908.31 341.75C1908.4 341.795 1908.49 341.795 1908.53 341.84C1908.89 341.93 1909.2 342.019 1909.56 342.109C1909.61 342.109 1909.7 342.154 1909.79 342.154C1910.14 342.239 1910.5 342.299 1910.86 342.333C1910.96 342.333 1911.04 342.333 1911.13 342.379C1911.58 342.379 1912.03 342.423 1912.53 342.423C1913.2 342.426 1913.88 342.381 1914.55 342.288H1914.59C1915.82 342.106 1917 341.727 1918.1 341.166C1918.14 341.166 1918.14 341.12 1918.14 341.12C1918.66 340.838 1919.15 340.523 1919.63 340.177L1919.76 340.042C1923.85 335.953 1924.48 330.382 1921.51 325.754C1921.24 325.339 1920.96 324.934 1920.66 324.54L1850.72 239.575L1920.16 172.446C1922.01 170.56 1923.13 168.269 1923.4 165.798C1923.4 165.752 1923.4 165.708 1923.45 165.662V164.943C1923.45 164.809 1923.49 164.674 1923.49 164.584V164.405C1923.49 164.224 1923.45 164.09 1923.45 163.91C1923.45 163.776 1923.4 163.641 1923.4 163.505" fill="#29B5E8"/>
</svg>
