<svg width="412" height="103" viewBox="0 0 412 103" fill="none" xmlns="http://www.w3.org/2000/svg">
<g clip-path="url(#clip0_0_12)">
<path d="M60.7434 103H60.7318C60.3397 103 59.9477 102.949 59.5617 102.852C59.1813 102.749 58.813 102.606 58.4791 102.411C58.4558 102.4 58.4381 102.388 58.4209 102.377L2.27309 71.0274C1.09713 70.37 0.283903 69.2326 0.0615823 67.9235C-0.160738 66.62 0.225397 65.2826 1.11468 64.2881L57.2857 1.56061C57.3677 1.46914 57.4496 1.37768 57.5432 1.29193C57.912 0.93179 58.3329 0.64025 58.7837 0.434455C58.8889 0.383006 58.9941 0.337274 59.1054 0.297259C59.462 0.160062 59.8424 0.068598 60.24 0.0285826C60.404 0.011433 60.5679 0 60.7318 0C60.9073 0 61.0829 0.011433 61.2523 0.0285826C61.5979 0.068598 61.9252 0.142913 62.2414 0.251526C62.3875 0.302975 62.5276 0.36014 62.6683 0.423022C63.1246 0.63453 63.546 0.926075 63.9204 1.28622C64.0079 1.37196 64.0959 1.46343 64.1718 1.55489L120.343 64.282C121.232 65.2765 121.624 66.6144 121.396 67.918C121.174 69.221 120.36 70.3645 119.184 71.0218L63.0371 102.371C63.0371 102.371 63.0133 102.383 63.0017 102.388C62.6506 102.589 62.2762 102.743 61.8725 102.845C61.4921 102.943 61.1061 102.988 60.7257 102.988L60.7434 103ZM65.2544 16.1606V90.9783L109.917 66.0368L65.2544 16.1606ZM11.5521 66.0368L56.2153 90.9783V16.1606L11.5521 66.0368Z" fill="#222227"/>
<path d="M173.733 52.5923C172.341 51.4776 170.767 50.5572 169.018 49.8255C167.268 49.0938 165.449 48.5107 163.559 48.082L158.867 46.9387C157.843 46.6986 156.825 46.4071 155.813 46.0584C154.801 45.7097 153.882 45.2752 153.052 44.755C152.221 44.2405 151.566 43.606 151.086 42.8571C150.606 42.1083 150.366 41.2279 150.366 40.2103C150.384 38.987 150.747 37.8952 151.466 36.9405C152.18 35.9858 153.215 35.2313 154.567 34.671C155.918 34.1166 157.539 33.8365 159.429 33.8365C162.114 33.8365 164.302 34.4195 165.987 35.58C167.672 36.7405 168.626 38.3639 168.86 40.4504H177.577C177.53 37.7008 176.74 35.2599 175.208 33.1391C173.675 31.0125 171.574 29.3547 168.895 28.1542C166.216 26.9538 163.103 26.3535 159.552 26.3535C156 26.3535 152.917 26.9538 150.15 28.1542C147.383 29.3547 145.194 31.0354 143.591 33.2019C141.988 35.3685 141.187 37.8895 141.187 40.7648C141.187 44.2633 142.38 47.0701 144.761 49.1738C147.148 51.2832 150.401 52.8552 154.52 53.8843L160.213 55.3191C162.003 55.7651 163.571 56.2679 164.916 56.8339C166.262 57.3998 167.304 58.0976 168.052 58.9321C168.801 59.7666 169.182 60.8243 169.199 62.093C169.182 63.4934 168.748 64.7173 167.906 65.7572C167.058 66.7977 165.893 67.6096 164.401 68.1927C162.91 68.7758 161.184 69.0615 159.212 69.0615C157.241 69.0615 155.62 68.7813 154.093 68.227C152.572 67.6727 151.338 66.8265 150.39 65.7002C149.448 64.5683 148.909 63.1562 148.781 61.4528H139.865C139.993 64.7001 140.859 67.4495 142.468 69.7078C144.077 71.9655 146.3 73.686 149.161 74.8639C152.016 76.0412 155.392 76.6304 159.282 76.6304C163.173 76.6304 166.701 76.024 169.527 74.8068C172.352 73.5891 174.512 71.8968 176.009 69.7249C177.507 67.5525 178.256 65.0373 178.256 62.1733C178.256 60.0579 177.846 58.2116 177.033 56.634C176.22 55.0561 175.114 53.7128 173.722 52.6037L173.733 52.5923Z" fill="#222227"/>
<path d="M214.758 29.1032C212.143 27.7026 208.919 27.0052 205.075 27.0052H186.319V75.8756H195.381V59.3607H204.953C208.814 59.3607 212.061 58.663 214.7 57.2742C217.338 55.8848 219.333 53.97 220.685 51.5347C222.036 49.0995 222.715 46.3156 222.715 43.1829C222.715 40.0503 222.042 37.3063 220.702 34.8654C219.357 32.4245 217.379 30.5037 214.77 29.1032H214.758ZM212.435 47.7904C211.745 49.1281 210.68 50.1742 209.247 50.9402C207.814 51.7062 205.976 52.0835 203.73 52.0835H195.375V34.4024H203.677C205.941 34.4024 207.79 34.774 209.235 35.5114C210.674 36.2488 211.745 37.2835 212.435 38.604C213.126 39.9245 213.477 41.4508 213.477 43.1829C213.477 44.915 213.132 46.4528 212.435 47.7904Z" fill="#222227"/>
<path d="M239.639 27.0052H230.576V75.8756H239.639V27.0052Z" fill="#222227"/>
<path d="M289.716 27.0052H278.652L259.141 49.4597H258.532V27.0052H249.47V75.8756H258.532V61.3216L264.073 54.9247L278.998 75.8756H289.891L270.374 48.9337L289.716 27.0052Z" fill="#222227"/>
<path d="M327.796 27.0052L315.562 48.625H315.071L302.837 27.0052H292.604L310.8 57.6457V75.8756H319.833V57.6457L338.029 27.0052H327.796Z" fill="#222227"/>
<path d="M338.244 65.9571C336.764 65.9571 335.494 66.466 334.435 67.4838C333.376 68.5011 332.856 69.7244 332.873 71.1592C332.856 72.6228 333.376 73.8632 334.435 74.881C335.494 75.8983 336.764 76.4072 338.244 76.4072C339.203 76.4072 340.087 76.1729 340.894 75.7039C341.701 75.2354 342.351 74.6008 342.848 73.8062C343.346 73.0115 343.603 72.1255 343.62 71.1592C343.603 69.7305 343.065 68.5011 341.994 67.4838C340.929 66.466 339.677 65.9571 338.244 65.9571Z" fill="#222227"/>
<path d="M367.532 27.0052L349.922 75.8756H359.593L363.729 63.8252H382.533L386.675 75.8756H396.346L378.712 27.0052H367.526H367.532ZM366.175 56.7137L372.932 37.0262H373.324L380.093 56.7137H366.175Z" fill="#222227"/>
<path d="M411.993 27.0052H402.931V75.8756H411.993V27.0052Z" fill="#222227"/>
</g>
<defs>
<clipPath id="clip0_0_12">
<rect width="412" height="103" fill="white"/>
</clipPath>
</defs>
</svg>
