<svg width="48" height="32" viewBox="0 0 48 32" fill="none" xmlns="http://www.w3.org/2000/svg">
<path fill-rule="evenodd" clip-rule="evenodd" d="M21.0194 19.4186L20.692 18H18.8083L18.481 19.4186C18.3878 19.8223 17.9851 20.0739 17.5815 19.9808C17.1779 19.8877 16.9262 19.485 17.0194 19.0814L18.4069 13.0686C18.5513 12.4431 19.1083 12 19.7502 12C20.3921 12 20.9491 12.4431 21.0934 13.0686L22.481 19.0814C22.5741 19.485 22.3224 19.8877 21.9188 19.9808C21.5152 20.0739 21.1125 19.8222 21.0194 19.4186ZM19.7502 13.9187L20.3459 16.5H19.1545L19.7502 13.9187ZM30.5002 12.75C30.5002 12.3358 30.1644 12 29.7502 12C29.336 12 29.0002 12.3358 29.0002 12.75V19.25C29.0002 19.6642 29.336 20 29.7502 20C30.1644 20 30.5002 19.6642 30.5002 19.25V12.75ZM24.2502 12C23.836 12 23.5002 12.3358 23.5002 12.75V16.75V19.25C23.5002 19.6642 23.836 20 24.2502 20C24.6644 20 25.0002 19.6642 25.0002 19.25V17.5H25.5002C27.0189 17.5 28.2502 16.2688 28.2502 14.75C28.2502 13.2312 27.0189 12 25.5002 12H24.2502ZM25.5002 16H25.0002V13.5H25.5002C26.1905 13.5 26.7502 14.0596 26.7502 14.75C26.7502 15.4404 26.1905 16 25.5002 16Z" fill="black"/>
</svg>
