<svg width="48" height="32" viewBox="0 0 48 32" fill="none" xmlns="http://www.w3.org/2000/svg">
<g clip-path="url(#clip0_74_4590)">
<path fill-rule="evenodd" clip-rule="evenodd" d="M29.5002 12.75C29.5002 12.3358 29.1644 12 28.7502 12C28.336 12 28.0002 12.3358 28.0002 12.75V19.25C28.0002 19.6642 28.336 20 28.7502 20H31.2502C31.6644 20 32.0002 19.6642 32.0002 19.25C32.0002 18.8358 31.6644 18.5 31.2502 18.5H29.5002V12.75ZM27.0002 16.0001C27.0002 17.3206 26.7427 18.3141 26.2915 18.9807L27.2805 19.9697C27.5734 20.2626 27.5734 20.7375 27.2805 21.0303C26.9876 21.3232 26.5127 21.3232 26.2198 21.0303L25.0875 19.8981C24.8649 19.9661 24.6267 20.0001 24.3752 20.0001C22.8002 20.0001 21.7502 18.6668 21.7502 16.0001C21.7502 13.3334 22.8002 12.0001 24.3752 12.0001C25.9502 12.0001 27.0002 13.3334 27.0002 16.0001ZM25.0431 18.149C25.2653 17.8266 25.5002 17.1681 25.5002 16.0001C25.5002 14.8321 25.2653 14.1736 25.0431 13.8512C24.8681 13.5972 24.6771 13.5001 24.3752 13.5001C24.0732 13.5001 23.8822 13.5972 23.7072 13.8512C23.4851 14.1736 23.2502 14.8321 23.2502 16.0001C23.2502 17.1681 23.4851 17.8266 23.7072 18.149C23.8822 18.403 24.0732 18.5001 24.3752 18.5001C24.6771 18.5001 24.8681 18.403 25.0431 18.149ZM18.5617 12.0024C17.8731 12.0024 17.277 12.2506 16.8599 12.7153C16.4531 13.1686 16.2766 13.7601 16.2766 14.3518C16.2766 15.0839 16.6033 15.6322 17.0359 16.0102C17.4456 16.3681 17.9439 16.5713 18.3409 16.6936C18.7388 16.8162 19.0252 16.9111 19.2302 17.0665C19.3783 17.1788 19.5002 17.3319 19.5002 17.6913C19.5001 17.9801 19.3922 18.1596 19.248 18.2797C19.0878 18.4133 18.8435 18.5024 18.5617 18.5024C18.3603 18.5024 18.1239 18.4087 17.9035 18.2092C17.6821 18.0088 17.5327 17.7503 17.4815 17.525C17.3896 17.1211 16.9877 16.8682 16.5838 16.9601C16.1799 17.052 15.927 17.4539 16.0188 17.8578C16.1456 18.4149 16.4722 18.9369 16.8971 19.3214C17.323 19.7069 17.9034 20.0024 18.5617 20.0024C19.1396 20.0024 19.7394 19.8229 20.2085 19.4319C20.6936 19.0275 21.0001 18.4264 21.0002 17.6915C21.0003 16.8489 20.6476 16.2586 20.1362 15.8711C19.7025 15.5423 19.1744 15.3803 18.8304 15.2748L18.7825 15.2601C18.4734 15.1649 18.2042 15.039 18.0229 14.8806C17.8645 14.7422 17.7766 14.5868 17.7766 14.3518C17.7766 14.0479 17.8662 13.8397 17.9762 13.7172C18.076 13.6061 18.2474 13.5024 18.5617 13.5024C18.8835 13.5024 19.0601 13.6009 19.1738 13.7084C19.3034 13.8309 19.4072 14.0211 19.4732 14.2684C19.5799 14.6686 19.9908 14.9065 20.3911 14.7998C20.7913 14.6931 21.0292 14.2822 20.9225 13.8819C20.8105 13.4616 20.5977 12.9904 20.2045 12.6185C19.7953 12.2316 19.2428 12.0024 18.5617 12.0024Z" fill="black"/>
</g>
<defs>
<clipPath id="clip0_74_4590">
<rect width="16" height="16" fill="white" transform="translate(16 8)"/>
</clipPath>
</defs>
</svg>
