<svg width="48" height="32" viewBox="0 0 48 32" fill="none" xmlns="http://www.w3.org/2000/svg">
<path fill-rule="evenodd" clip-rule="evenodd" d="M18.5 19.25L18.5 14.6723L19.9363 18.0614C20.1132 18.4789 20.5226 18.75 20.9759 18.75C21.4259 18.75 21.833 18.4828 22.0119 18.0699L23.5252 14.578V19.25C23.5252 19.6642 23.861 20 24.2752 20C24.6894 20 25.0252 19.6642 25.0252 19.25V13.218C25.0252 12.5453 24.4799 12 23.8072 12C23.3218 12 22.8827 12.2883 22.6897 12.7337L20.9797 16.6794L19.3071 12.7325C19.119 12.2884 18.6835 12 18.2012 12C17.5378 12 17.0001 12.5378 17.0001 13.2011L17 19.25C17 19.6642 17.3358 20 17.75 20C18.1642 20 18.5 19.6642 18.5 19.25ZM28 12.75C28 12.3358 27.6642 12 27.25 12C26.8358 12 26.5 12.3358 26.5 12.75V19.25C26.5 19.6642 26.8358 20 27.25 20H30.75C31.1642 20 31.5 19.6642 31.5 19.25C31.5 18.8358 31.1642 18.5 30.75 18.5H28V12.75Z" fill="black"/>
</svg>
