<svg width="48" height="32" viewBox="0 0 48 32" fill="none" xmlns="http://www.w3.org/2000/svg">
<path fill-rule="evenodd" clip-rule="evenodd" d="M26.75 12C27.1642 12 27.5 12.3358 27.5 12.75V18.5H30.25C30.6642 18.5 31 18.8358 31 19.25C31 19.6642 30.6642 20 30.25 20H26.75C26.3358 20 26 19.6642 26 19.25V12.75C26 12.3358 26.3358 12 26.75 12ZM23.5401 18.9973C24.151 18.3306 24.5 17.3316 24.5 16.0001C24.5 13.3335 23.1 12.0001 21 12.0001C18.9 12.0001 17.5 13.3335 17.5 16.0001C17.5 18.6668 18.9 20.0001 21 20.0001C21.4477 20.0001 21.8635 19.9395 22.2408 19.8184L23.6961 21.2793C23.9884 21.5728 24.4633 21.5737 24.7567 21.2814C25.0502 20.989 25.0511 20.5142 24.7588 20.2207L23.5401 18.9973ZM23 16.0001C23 17.0826 22.7176 17.6755 22.4329 17.9853C22.1627 18.2794 21.7247 18.5001 21 18.5001C20.2753 18.5001 19.8373 18.2794 19.5671 17.9853C19.2824 17.6755 19 17.0826 19 16.0001C19 14.9176 19.2824 14.3248 19.5671 14.015C19.8373 13.7209 20.2753 13.5001 21 13.5001C21.7247 13.5001 22.1627 13.7209 22.4329 14.015C22.7176 14.3248 23 14.9176 23 16.0001Z" fill="black"/>
</svg>
