<svg width="48" height="32" viewBox="0 0 48 32" fill="none" xmlns="http://www.w3.org/2000/svg">
<path fill-rule="evenodd" clip-rule="evenodd" d="M17 12.75C17 12.3358 17.3358 12 17.75 12H20.8628C21.4908 12 22 12.5092 22 13.1372C22 13.3535 21.9383 13.5653 21.8222 13.7478L18.7981 18.5H21.25C21.6642 18.5 22 18.8358 22 19.25C22 19.6642 21.6642 20 21.25 20H18.1372C17.5092 20 17 19.4908 17 18.8628C17 18.6465 17.0617 18.4347 17.1778 18.2522L20.2019 13.5H17.75C17.3358 13.5 17 13.1642 17 12.75ZM23.75 12C24.1642 12 24.5 12.3358 24.5 12.75V19.25C24.5 19.6642 24.1642 20 23.75 20C23.3358 20 23 19.6642 23 19.25V12.75C23 12.3358 23.3358 12 23.75 12ZM26.75 12C26.3358 12 26 12.3358 26 12.75V16.75V19.25C26 19.6642 26.3358 20 26.75 20C27.1642 20 27.5 19.6642 27.5 19.25V17.5H28C29.5188 17.5 30.75 16.2688 30.75 14.75C30.75 13.2312 29.5188 12 28 12H26.75ZM28 16H27.5V13.5H28C28.6904 13.5 29.25 14.0596 29.25 14.75C29.25 15.4404 28.6904 16 28 16Z" fill="black"/>
</svg>
