<svg width="48" height="32" viewBox="0 0 48 32" fill="none" xmlns="http://www.w3.org/2000/svg">
<path fill-rule="evenodd" clip-rule="evenodd" d="M21.5597 12.403C21.8292 12.7174 21.7831 13.187 21.5448 13.5257C21.2015 14.0135 21 14.6082 21 15.25C21 15.8918 21.2015 16.4865 21.5448 16.9744C21.7831 17.313 21.8292 17.7826 21.5597 18.097C21.2901 18.4116 20.8105 18.4513 20.5449 18.1333C19.8926 17.3524 19.5 16.3471 19.5 15.25C19.5 14.153 19.8926 13.1476 20.5449 12.3667C20.8105 12.0488 21.2901 12.0884 21.5597 12.403ZM26.4403 12.403C26.1708 12.7174 26.2169 13.187 26.4552 13.5257C26.7985 14.0135 27 14.6082 27 15.25C27 15.8918 26.7985 16.4865 26.4552 16.9744C26.2169 17.313 26.1708 17.7826 26.4403 18.097C26.7099 18.4116 27.1895 18.4513 27.4551 18.1333C28.1074 17.3524 28.5 16.3471 28.5 15.25C28.5 14.153 28.1074 13.1476 27.4551 12.3667C27.1895 12.0488 26.7099 12.0884 26.4403 12.403ZM28.3927 10.1252C28.1232 10.4396 28.1636 10.9101 28.4421 11.2166C29.4101 12.282 30 13.6971 30 15.25C30 16.8029 29.4101 18.218 28.4421 19.2834C28.1636 19.5899 28.1232 20.0604 28.3927 20.3748C28.6624 20.6894 29.1392 20.7281 29.4253 20.4284C30.7107 19.0822 31.5 17.2583 31.5 15.25C31.5 13.2417 30.7107 11.4178 29.4253 10.0716C29.1392 9.77189 28.6624 9.8106 28.3927 10.1252ZM19.6073 10.1252C19.3376 9.8106 18.8608 9.77188 18.5747 10.0716C17.2893 11.4178 16.5 13.2417 16.5 15.25C16.5 17.2583 17.2893 19.0822 18.5747 20.4284C18.8608 20.7281 19.3376 20.6894 19.6073 20.3748C19.8768 20.0604 19.8364 19.5899 19.5579 19.2834C18.5899 18.218 18 16.8029 18 15.25C18 13.6971 18.5899 12.282 19.5579 11.2166C19.8364 10.9101 19.8768 10.4396 19.6073 10.1252ZM24.75 16.5493C25.1984 16.29 25.5 15.8052 25.5 15.25C25.5 14.4216 24.8284 13.75 24 13.75C23.1716 13.75 22.5 14.4216 22.5 15.25C22.5 15.8052 22.8016 16.29 23.25 16.5493V22.25C23.25 22.6642 23.5858 23 24 23C24.4142 23 24.75 22.6642 24.75 22.25V16.5493Z" fill="black"/>
</svg>
