<svg width="48" height="32" viewBox="0 0 48 32" fill="none" xmlns="http://www.w3.org/2000/svg">
<path fill-rule="evenodd" clip-rule="evenodd" d="M29.5 16C29.5 16.802 29.3283 17.564 29.0197 18.2511C28.9143 17.3889 28.6123 16.4888 28.1226 15.6405C27.4827 14.5322 26.6059 13.6572 25.6557 13.1326L25.6429 13.125L25.6426 13.1255C25.5799 13.0911 25.5168 13.0582 25.4535 13.0269C24.8189 12.7131 24.1233 12.5435 23.4472 12.5987C23.9113 12.0241 24.442 11.5971 24.9612 11.3404C25.694 10.9781 26.3172 10.987 26.7499 11.2368L26.7504 11.236C28.3941 12.187 29.5 13.9644 29.5 16ZM23.438 10.5284C20.6644 10.8099 18.5 13.1522 18.5 16V16C18.5 16.4996 18.8038 17.0438 19.484 17.4973C19.9659 17.8185 20.601 18.0647 21.3306 18.1793C20.9448 17.6214 20.7439 16.9342 20.6983 16.2277C20.6938 16.1573 20.6907 16.0862 20.6892 16.0147L20.6887 16.0147C20.6888 16.0107 20.6888 16.0067 20.6889 16.0027C20.6675 14.9167 20.9868 13.7187 21.6273 12.6094C22.1167 11.7618 22.7446 11.0507 23.438 10.5284ZM22.1893 16.0019C22.1905 16.0455 22.1925 16.0886 22.1952 16.1312C22.2478 16.9471 22.5672 17.4822 22.9999 17.732C23.4326 17.9819 24.0557 17.9908 24.7886 17.6285C24.8277 17.6091 24.8669 17.5888 24.9062 17.5675C24.9436 17.5445 24.9802 17.5211 25.016 17.4973C25.6962 17.0438 26 16.4996 26 16C26 15.5004 25.6962 14.9562 25.016 14.5027C24.98 14.4787 24.9431 14.4551 24.9054 14.432C24.8665 14.4109 24.8275 14.3907 24.7887 14.3715C24.0558 14.0091 23.4327 14.0181 23 14.2679C22.5673 14.5178 22.2479 15.0529 22.1953 15.8688C22.1925 15.9126 22.1905 15.957 22.1893 16.0019ZM25.6568 18.8667C25.6606 18.8646 25.6645 18.8624 25.6683 18.8603L25.668 18.8599C25.7292 18.8227 25.7892 18.7845 25.848 18.7454C26.4371 18.3526 26.9317 17.8351 27.2219 17.222C27.4876 17.9112 27.5919 18.5844 27.5547 19.1623C27.502 19.9781 27.1827 20.5133 26.75 20.7631L26.7505 20.7639C25.9414 21.2321 25.002 21.5 24 21.5C22.166 21.5 20.5417 20.6023 19.5424 19.2224C20.3414 19.5617 21.2713 19.75 22.25 19.75C23.5304 19.75 24.7272 19.4278 25.6568 18.8667ZM17 16C17 12.134 20.134 9 24 9C27.866 9 31 12.134 31 16C31 19.866 27.866 23 24 23C20.134 23 17 19.866 17 16Z" fill="black"/>
</svg>
