<svg width="48" height="32" viewBox="0 0 48 32" fill="none" xmlns="http://www.w3.org/2000/svg">
<path fill-rule="evenodd" clip-rule="evenodd" d="M18.5 16H29.5V19C29.5 19.8284 28.8284 20.5 28 20.5H20C19.1716 20.5 18.5 19.8284 18.5 19V16ZM29.1972 14.5L27.3457 11.7226C27.2529 11.5836 27.0968 11.5 26.9296 11.5H21.0704C20.9032 11.5 20.7471 11.5836 20.6543 11.7226L18.8028 14.5H29.1972ZM31 15.4083V16V19C31 20.6569 29.6569 22 28 22H20C18.3431 22 17 20.6569 17 19V16V15.4083C17 14.8161 17.1753 14.237 17.5038 13.7442L19.4063 10.8906C19.7772 10.3342 20.4017 10 21.0704 10H26.9296C27.5983 10 28.2228 10.3342 28.5937 10.8906L30.4962 13.7442C30.8247 14.237 31 14.8161 31 15.4083ZM25.25 19C25.6642 19 26 18.6642 26 18.25C26 17.8358 25.6642 17.5 25.25 17.5H22.75C22.3358 17.5 22 17.8358 22 18.25C22 18.6642 22.3358 19 22.75 19H25.25Z" fill="black"/>
</svg>
