<svg width="48" height="32" viewBox="0 0 48 32" fill="none" xmlns="http://www.w3.org/2000/svg">
<path fill-rule="evenodd" clip-rule="evenodd" d="M24.5303 19.7803C24.2374 20.0732 23.7626 20.0732 23.4697 19.7803L20.9697 17.2803C20.6768 16.9874 20.6768 16.5126 20.9697 16.2197C21.2626 15.9268 21.7374 15.9268 22.0303 16.2197L23.25 17.4393L23.25 9.75C23.25 9.33579 23.5858 9 24 9C24.4142 9 24.75 9.33579 24.75 9.75L24.75 17.4393L25.9697 16.2197C26.2626 15.9268 26.7374 15.9268 27.0303 16.2197C27.3232 16.5126 27.3232 16.9874 27.0303 17.2803L24.5303 19.7803ZM17.75 21.5C17.3358 21.5 17 21.8358 17 22.25C17 22.6642 17.3358 23 17.75 23H30.25C30.6642 23 31 22.6642 31 22.25C31 21.8358 30.6642 21.5 30.25 21.5H17.75Z" fill="black"/>
</svg>
