<svg width="48" height="32" viewBox="0 0 48 32" fill="none" xmlns="http://www.w3.org/2000/svg">
<path fill-rule="evenodd" clip-rule="evenodd" d="M25.5 18L27.971 18L24.4723 13.7238C24.3564 13.5822 24.183 13.5 24 13.5C23.817 13.5 23.6436 13.5822 23.5277 13.7238L20.029 18L22.5 18L22.5 21.25C22.5 21.3881 22.6119 21.5 22.75 21.5L25.25 21.5C25.3881 21.5 25.5 21.3881 25.5 21.25L25.5 18ZM24.0016 10.5L30.25 10.5C30.6642 10.5 31 10.1642 31 9.75C31 9.33579 30.6642 9 30.25 9L17.75 9C17.3358 9 17 9.33579 17 9.75C17 10.1642 17.3358 10.5 17.75 10.5L24 10.5C24.0005 10.5 24.0011 10.5 24.0016 10.5ZM24.0012 12C24.6337 12.0004 25.2327 12.2844 25.6332 12.774L29.1668 17.0928C29.3823 17.3561 29.5 17.6859 29.5 18.0261C29.5 18.8401 28.8401 19.5 28.0261 19.5L27 19.5L27 21.25C27 22.2165 26.2165 23 25.25 23L22.75 23C21.7835 23 21 22.2165 21 21.25L21 19.5L19.9739 19.5C19.1599 19.5 18.5 18.8401 18.5 18.0261C18.5 17.6859 18.6177 17.3561 18.8332 17.0928L22.3668 12.774C22.7673 12.2844 23.3663 12.0004 23.9988 12C23.9992 12 23.9996 12 24 12C24.0004 12 24.0008 12 24.0012 12Z" fill="black"/>
</svg>
