<svg width="48" height="32" viewBox="0 0 48 32" fill="none" xmlns="http://www.w3.org/2000/svg">
<path fill-rule="evenodd" clip-rule="evenodd" d="M23.4993 18V20.6703C23.4993 20.8524 23.6469 21 23.829 21C23.907 21 23.9825 20.9724 24.042 20.922L29.267 16.5009C29.4143 16.3762 29.4993 16.193 29.4993 16C29.4993 15.807 29.4143 15.6238 29.267 15.4991L24.042 11.078C23.9825 11.0276 23.907 11 23.829 11C23.6469 11 23.4993 11.1476 23.4993 11.3297V14H19C18.7239 14 18.5 14.2239 18.5 14.5V17.5C18.5 17.7761 18.7239 18 19 18H23.4993ZM19 19.5C17.8954 19.5 17 18.6046 17 17.5V14.5C17 13.3954 17.8954 12.5 19 12.5H21.9993V11.3297C21.9993 10.3192 22.8185 9.5 23.829 9.5C24.2618 9.5 24.6806 9.6534 25.0109 9.93294L30.2359 14.3541C30.72 14.7637 30.9993 15.3658 30.9993 16C30.9993 16.6342 30.72 17.2363 30.2359 17.6459L25.0109 22.0671C24.6806 22.3466 24.2618 22.5 23.829 22.5C22.8185 22.5 21.9993 21.6808 21.9993 20.6703V19.5H19Z" fill="black"/>
</svg>
