<svg width="48" height="32" viewBox="0 0 48 32" fill="none" xmlns="http://www.w3.org/2000/svg">
<path fill-rule="evenodd" clip-rule="evenodd" d="M26 9.5C25.5858 9.5 25.25 9.83579 25.25 10.25C25.25 10.6642 25.5858 11 26 11H27.9393L22.9697 15.9697C22.6768 16.2626 22.6768 16.7374 22.9697 17.0303C23.2626 17.3232 23.7374 17.3232 24.0303 17.0303L29 12.0607V14C29 14.4142 29.3358 14.75 29.75 14.75C30.1642 14.75 30.5 14.4142 30.5 14V10.25C30.5 9.83579 30.1642 9.5 29.75 9.5H26ZM23.5 11.25C23.5 10.8358 23.1642 10.5 22.75 10.5H20.5C18.8431 10.5 17.5 11.8431 17.5 13.5V19.5C17.5 21.1569 18.8431 22.5 20.5 22.5H26.5C28.1569 22.5 29.5 21.1569 29.5 19.5V17.25C29.5 16.8358 29.1642 16.5 28.75 16.5C28.3358 16.5 28 16.8358 28 17.25V19.5C28 20.3284 27.3284 21 26.5 21H20.5C19.6716 21 19 20.3284 19 19.5V13.5C19 12.6716 19.6716 12 20.5 12H22.75C23.1642 12 23.5 11.6642 23.5 11.25Z" fill="black"/>
</svg>
