<svg width="48" height="32" viewBox="0 0 48 32" fill="none" xmlns="http://www.w3.org/2000/svg">
<path fill-rule="evenodd" clip-rule="evenodd" d="M22.5 14L20.029 14L23.5277 18.2762C23.6436 18.4178 23.817 18.5 24 18.5C24.183 18.5 24.3564 18.4178 24.4723 18.2762L27.971 14L25.5 14L25.5 10.75C25.5 10.6119 25.3881 10.5 25.25 10.5L22.75 10.5C22.6119 10.5 22.5 10.6119 22.5 10.75L22.5 14ZM23.9984 21.5L17.75 21.5C17.3358 21.5 17 21.8358 17 22.25C17 22.6642 17.3358 23 17.75 23L30.25 23C30.6642 23 31 22.6642 31 22.25C31 21.8358 30.6642 21.5 30.25 21.5L24 21.5C23.9995 21.5 23.9989 21.5 23.9984 21.5ZM23.9988 20C23.3663 19.9996 22.7673 19.7156 22.3668 19.226L18.8332 14.9072C18.6177 14.6439 18.5 14.3141 18.5 13.9739C18.5 13.1599 19.1599 12.5 19.9739 12.5L21 12.5L21 10.75C21 9.7835 21.7835 9 22.75 9L25.25 9C26.2165 9 27 9.7835 27 10.75L27 12.5L28.0261 12.5C28.8401 12.5 29.5 13.1599 29.5 13.9739C29.5 14.3141 29.3823 14.6439 29.1668 14.9072L25.6332 19.226C25.2327 19.7156 24.6337 19.9996 24.0012 20C24.0008 20 24.0004 20 24 20C23.9996 20 23.9992 20 23.9988 20Z" fill="black"/>
</svg>
