<svg width="48" height="32" viewBox="0 0 48 32" fill="none" xmlns="http://www.w3.org/2000/svg">
<path fill-rule="evenodd" clip-rule="evenodd" d="M18.4697 12.7197C18.329 12.8603 18.25 13.0511 18.25 13.25C18.25 13.4489 18.329 13.6397 18.4697 13.7803L21.4697 16.7803C21.7626 17.0732 22.2374 17.0732 22.5303 16.7803C22.8232 16.4874 22.8232 16.0126 22.5303 15.7197L20.8107 14H25C26.7949 14 28.25 15.4551 28.25 17.25C28.25 19.0449 26.7949 20.5 25 20.5H24C23.5858 20.5 23.25 20.8358 23.25 21.25C23.25 21.6642 23.5858 22 24 22H25C27.6234 22 29.75 19.8734 29.75 17.25C29.75 14.6266 27.6234 12.5 25 12.5L20.8107 12.5L22.5303 10.7803C22.8232 10.4874 22.8232 10.0126 22.5303 9.71967C22.2374 9.42678 21.7626 9.42678 21.4697 9.71967L18.4697 12.7197Z" fill="black"/>
</svg>
