<svg width="48" height="32" viewBox="0 0 48 32" fill="none" xmlns="http://www.w3.org/2000/svg">
<path fill-rule="evenodd" clip-rule="evenodd" d="M20.7197 21.5303C20.8603 21.671 21.0511 21.75 21.25 21.75C21.4489 21.75 21.6397 21.671 21.7803 21.5303L24.7803 18.5303C25.0732 18.2374 25.0732 17.7626 24.7803 17.4697C24.4874 17.1768 24.0126 17.1768 23.7197 17.4697L22 19.1893L22 15C22 13.2051 23.4551 11.75 25.25 11.75C27.0449 11.75 28.5 13.2051 28.5 15L28.5 16C28.5 16.4142 28.8358 16.75 29.25 16.75C29.6642 16.75 30 16.4142 30 16L30 15C30 12.3766 27.8734 10.25 25.25 10.25C22.6266 10.25 20.5 12.3766 20.5 15L20.5 19.1893L18.7803 17.4697C18.4874 17.1768 18.0126 17.1768 17.7197 17.4697C17.4268 17.7626 17.4268 18.2374 17.7197 18.5303L20.7197 21.5303Z" fill="black"/>
</svg>
