<svg width="48" height="32" viewBox="0 0 48 32" fill="none" xmlns="http://www.w3.org/2000/svg">
<path fill-rule="evenodd" clip-rule="evenodd" d="M21.9998 15.4996L19.3295 15.4996C19.1474 15.4996 18.9998 15.6473 18.9998 15.8294C18.9998 15.9074 19.0274 15.9828 19.0778 16.0424L23.4989 21.2673C23.6236 21.4147 23.8068 21.4996 23.9998 21.4996C24.1927 21.4996 24.376 21.4147 24.5006 21.2673L28.9217 16.0424C28.9721 15.9828 28.9998 15.9074 28.9998 15.8294C28.9998 15.6473 28.8521 15.4996 28.67 15.4996L25.9998 15.4996L25.9998 11.0004C25.9998 10.7242 25.7759 10.5004 25.4998 10.5004L22.4998 10.5004C22.2236 10.5004 21.9998 10.7242 21.9998 11.0004L21.9998 15.4996ZM20.4998 11.0004C20.4998 9.8958 21.3952 9.00037 22.4998 9.00037L25.4998 9.00037C26.6043 9.00037 27.4998 9.8958 27.4998 11.0004L27.4998 13.9996L28.67 13.9996C29.6805 13.9996 30.4998 14.8188 30.4998 15.8294C30.4998 16.2622 30.3464 16.6809 30.0668 17.0113L25.6457 22.2362C25.236 22.7204 24.634 22.9996 23.9998 22.9996C23.3655 22.9996 22.7635 22.7204 22.3538 22.2362L17.9327 17.0113C17.6532 16.6809 17.4998 16.2622 17.4998 15.8294C17.4998 14.8188 18.319 13.9996 19.3295 13.9996L20.4998 13.9996L20.4998 11.0004Z" fill="black"/>
</svg>
