<svg width="48" height="32" viewBox="0 0 48 32" fill="none" xmlns="http://www.w3.org/2000/svg">
<path fill-rule="evenodd" clip-rule="evenodd" d="M24 9.5C27.5899 9.5 30.5 12.4101 30.5 16C30.5 19.5899 27.5899 22.5 24 22.5C20.6974 22.5 17.9712 20.0377 17.555 16.8484C17.5014 16.4377 17.7909 16.0613 18.2016 16.0077C18.6123 15.9541 18.9887 16.2436 19.0423 16.6543C19.3623 19.1063 21.4606 21 24 21C26.7614 21 29 18.7614 29 16C29 13.2386 26.7614 11 24 11C22.6016 11 21.3374 11.5734 20.4292 12.5H21.75C22.1642 12.5 22.5 12.8358 22.5 13.25C22.5 13.6642 22.1642 14 21.75 14H18.75C18.3358 14 18 13.6642 18 13.25V10.25C18 9.83579 18.3358 9.5 18.75 9.5C19.1642 9.5 19.5 9.83579 19.5 10.25V11.3096C20.6673 10.1896 22.2532 9.5 24 9.5Z" fill="black"/>
</svg>
