<svg width="48" height="32" viewBox="0 0 48 32" fill="none" xmlns="http://www.w3.org/2000/svg">
<path fill-rule="evenodd" clip-rule="evenodd" d="M30.7803 15.4697C31.0732 15.7626 31.0732 16.2374 30.7803 16.5303L28.2803 19.0303C27.9874 19.3232 27.5126 19.3232 27.2197 19.0303C26.9268 18.7374 26.9268 18.2626 27.2197 17.9697L28.4393 16.75L20.75 16.75C20.3358 16.75 20 16.4142 20 16C20 15.5858 20.3358 15.25 20.75 15.25L28.4393 15.25L27.2197 14.0303C26.9268 13.7374 26.9268 13.2626 27.2197 12.9697C27.5126 12.6768 27.9874 12.6768 28.2803 12.9697L30.7803 15.4697ZM18.5 9.75C18.5 9.33579 18.1642 9 17.75 9C17.3358 9 17 9.33579 17 9.75L17 22.25C17 22.6642 17.3358 23 17.75 23C18.1642 23 18.5 22.6642 18.5 22.25L18.5 9.75Z" fill="black"/>
</svg>
