<svg width="48" height="32" viewBox="0 0 48 32" fill="none" xmlns="http://www.w3.org/2000/svg">
<path fill-rule="evenodd" clip-rule="evenodd" d="M23 14.5L23 12.029L18.7238 15.5277C18.5822 15.6436 18.5 15.817 18.5 16C18.5 16.183 18.5822 16.3564 18.7238 16.4723L23 19.971L23 17.5L26.25 17.5C26.3881 17.5 26.5 17.3881 26.5 17.25L26.5 14.75C26.5 14.6119 26.3881 14.5 26.25 14.5L23 14.5ZM28 17.25L28 14.75C28 14.7495 28 14.7491 28 14.7486C27.9993 13.7828 27.216 13 26.25 13L24.5 13L24.5 11.9739C24.5 11.1599 23.8401 10.5 23.0261 10.5C22.6859 10.5 22.3561 10.6177 22.0928 10.8332L17.774 14.3668C17.2841 14.7676 17 15.3671 17 16C17 16.6329 17.2841 17.2324 17.774 17.6332L22.0928 21.1668C22.3561 21.3823 22.6859 21.5 23.0261 21.5C23.8401 21.5 24.5 20.8401 24.5 20.0261L24.5 19L26.25 19C27.2165 19 28 18.2165 28 17.25ZM29.5 9.75C29.5 9.33579 29.8358 9 30.25 9C30.6642 9 31 9.33579 31 9.75L31 22.25C31 22.6642 30.6642 23 30.25 23C29.8358 23 29.5 22.6642 29.5 22.25L29.5 9.75Z" fill="black"/>
</svg>
