<svg width="48" height="32" viewBox="0 0 48 32" fill="none" xmlns="http://www.w3.org/2000/svg">
<path fill-rule="evenodd" clip-rule="evenodd" d="M25.2803 12.7803C25.5732 12.4874 25.5732 12.0126 25.2803 11.7197L22.7803 9.21967C22.4874 8.92678 22.0126 8.92678 21.7197 9.21967C21.4268 9.51256 21.4268 9.98744 21.7197 10.2803L22.9393 11.5L17.75 11.5C17.3358 11.5 17 11.8358 17 12.25C17 12.6642 17.3358 13 17.75 13L22.9393 13L21.7197 14.2197C21.4268 14.5126 21.4268 14.9874 21.7197 15.2803C22.0126 15.5732 22.4874 15.5732 22.7803 15.2803L25.2803 12.7803ZM25.2197 16.7197L22.7197 19.2197C22.4268 19.5126 22.4268 19.9874 22.7197 20.2803L25.2197 22.7803C25.5126 23.0732 25.9874 23.0732 26.2803 22.7803C26.5732 22.4874 26.5732 22.0126 26.2803 21.7197L25.0607 20.5H30.25C30.6642 20.5 31 20.1642 31 19.75C31 19.3358 30.6642 19 30.25 19H25.0607L26.2803 17.7803C26.5732 17.4874 26.5732 17.0126 26.2803 16.7197C25.9874 16.4268 25.5126 16.4268 25.2197 16.7197ZM30 12.25C30 13.2165 29.2165 14 28.25 14C27.2835 14 26.5 13.2165 26.5 12.25C26.5 11.2835 27.2835 10.5 28.25 10.5C29.2165 10.5 30 11.2835 30 12.25ZM19.75 21.5C20.7165 21.5 21.5 20.7165 21.5 19.75C21.5 18.7835 20.7165 18 19.75 18C18.7835 18 18 18.7835 18 19.75C18 20.7165 18.7835 21.5 19.75 21.5Z" fill="black"/>
</svg>
