<svg width="48" height="32" viewBox="0 0 48 32" fill="none" xmlns="http://www.w3.org/2000/svg">
<path fill-rule="evenodd" clip-rule="evenodd" d="M27.2803 21.5303C27.1397 21.671 26.9489 21.75 26.75 21.75C26.5511 21.75 26.3603 21.671 26.2197 21.5303L23.2197 18.5303C22.9268 18.2374 22.9268 17.7626 23.2197 17.4697C23.5126 17.1768 23.9874 17.1768 24.2803 17.4697L26 19.1893L26 15C26 13.2051 24.5449 11.75 22.75 11.75C20.9551 11.75 19.5 13.2051 19.5 15L19.5 16C19.5 16.4142 19.1642 16.75 18.75 16.75C18.3358 16.75 18 16.4142 18 16L18 15C18 12.3766 20.1266 10.25 22.75 10.25C25.3734 10.25 27.5 12.3766 27.5 15L27.5 19.1893L29.2197 17.4697C29.5126 17.1768 29.9874 17.1768 30.2803 17.4697C30.5732 17.7626 30.5732 18.2374 30.2803 18.5303L27.2803 21.5303Z" fill="black"/>
</svg>
