<svg width="48" height="32" viewBox="0 0 48 32" fill="none" xmlns="http://www.w3.org/2000/svg">
<path fill-rule="evenodd" clip-rule="evenodd" d="M29.5303 19.2803C29.671 19.1397 29.75 18.9489 29.75 18.75C29.75 18.5511 29.671 18.3603 29.5303 18.2197L26.5303 15.2197C26.2374 14.9268 25.7626 14.9268 25.4697 15.2197C25.1768 15.5126 25.1768 15.9874 25.4697 16.2803L27.1893 18H23C21.2051 18 19.75 16.5449 19.75 14.75C19.75 12.9551 21.2051 11.5 23 11.5H24C24.4142 11.5 24.75 11.1642 24.75 10.75C24.75 10.3358 24.4142 10 24 10H23C20.3766 10 18.25 12.1266 18.25 14.75C18.25 17.3734 20.3766 19.5 23 19.5L27.1893 19.5L25.4697 21.2197C25.1768 21.5126 25.1768 21.9874 25.4697 22.2803C25.7626 22.5732 26.2374 22.5732 26.5303 22.2803L29.5303 19.2803Z" fill="black"/>
</svg>
