<svg width="48" height="32" viewBox="0 0 48 32" fill="none" xmlns="http://www.w3.org/2000/svg">
<g clip-path="url(#clip0_74_2135)">
<path fill-rule="evenodd" clip-rule="evenodd" d="M27.3906 10.5029C26.4081 9.88904 25.2489 9.53014 24.0074 9.5193C22.2606 9.50406 20.6687 10.1799 19.4916 11.2898L19.4965 10.73C19.5001 10.3158 19.1673 9.97711 18.7531 9.97349C18.3389 9.96988 18.0002 10.3027 17.9966 10.7169L17.9748 13.2168C17.9712 13.631 18.304 13.9697 18.7182 13.9733L21.2147 13.9951C21.6289 13.9987 21.9676 13.6659 21.9712 13.2517C21.9748 12.8375 21.642 12.4988 21.2278 12.4952L20.4106 12.488C21.3269 11.5694 22.596 11.007 23.9944 11.0192C24.9514 11.0276 25.8412 11.3035 26.5958 11.7751C26.9471 11.9945 27.4098 11.8877 27.6293 11.5364C27.8488 11.1851 27.7419 10.7224 27.3906 10.5029ZM18.2931 19.2191C17.6818 18.1386 17.413 16.9552 17.4534 15.7973C17.4678 15.3834 17.8151 15.0595 18.2291 15.0739C18.643 15.0884 18.9669 15.4356 18.9525 15.8496C18.9215 16.7389 19.1274 17.6475 19.5987 18.4805C20.2873 19.6976 21.4089 20.5155 22.6625 20.8497L22.2601 20.1384C22.0562 19.7779 22.1831 19.3203 22.5436 19.1163C22.9041 18.9124 23.3617 19.0393 23.5657 19.3998L24.7951 21.5727C24.999 21.9332 24.8721 22.3908 24.5116 22.5948L22.3357 23.8258C21.9752 24.0298 21.5176 23.9029 21.3137 23.5424C21.1097 23.1819 21.2366 22.7243 21.5971 22.5203L22.0843 22.2447C20.5346 21.7803 19.1533 20.7395 18.2931 19.2191ZM29.5507 19.3177C28.9206 20.3874 28.0302 21.2119 27.0072 21.7559C26.6415 21.9503 26.1874 21.8115 25.9929 21.4458C25.7984 21.0801 25.9372 20.626 26.303 20.4315C27.0886 20.0137 27.7725 19.3811 28.2583 18.5564C28.968 17.3515 29.1155 15.9712 28.7781 14.7184L28.3633 15.4226C28.1531 15.7795 27.6934 15.8984 27.3365 15.6881C26.9796 15.4779 26.8607 15.0182 27.0709 14.6613L28.338 12.5101C28.5483 12.1532 29.008 12.0343 29.3649 12.2445L31.519 13.5134C31.8759 13.7236 31.9948 14.1834 31.7845 14.5403C31.5743 14.8972 31.1145 15.016 30.7576 14.8058L30.2753 14.5217C30.648 16.096 30.4373 17.8126 29.5507 19.3177Z" fill="black"/>
</g>
<defs>
<clipPath id="clip0_74_2135">
<rect width="16" height="16" fill="white" transform="translate(16 8)"/>
</clipPath>
</defs>
</svg>
