<svg width="48" height="32" viewBox="0 0 48 32" fill="none" xmlns="http://www.w3.org/2000/svg">
<path fill-rule="evenodd" clip-rule="evenodd" d="M22.5 17L20.029 17L23.5277 21.2762C23.6436 21.4178 23.817 21.5 24 21.5C24.183 21.5 24.3564 21.4178 24.4723 21.2762L27.971 17L25.5 17L25.5 13.75C25.5 13.6119 25.3881 13.5 25.25 13.5L22.75 13.5C22.6119 13.5 22.5 13.6119 22.5 13.75L22.5 17ZM25.25 12L22.75 12C22.7495 12 22.7491 12 22.7486 12C21.7828 12.0007 21 12.784 21 13.75L21 15.5L19.9739 15.5C19.1599 15.5 18.5 16.1599 18.5 16.9739C18.5 17.3141 18.6177 17.6439 18.8332 17.9072L22.3668 22.226C22.7676 22.7159 23.3671 23 24 23C24.6329 23 25.2324 22.7159 25.6332 22.226L29.1668 17.9072C29.3823 17.6439 29.5 17.3141 29.5 16.9739C29.5 16.1599 28.8401 15.5 28.0261 15.5L27 15.5L27 13.75C27 12.7835 26.2165 12 25.25 12ZM17.75 10.5C17.3358 10.5 17 10.1642 17 9.75C17 9.33579 17.3358 9 17.75 9L30.25 9C30.6642 9 31 9.33579 31 9.75C31 10.1642 30.6642 10.5 30.25 10.5L17.75 10.5Z" fill="black"/>
</svg>
