<svg width="48" height="32" viewBox="0 0 48 32" fill="none" xmlns="http://www.w3.org/2000/svg">
<path fill-rule="evenodd" clip-rule="evenodd" d="M22 17.5L22 19.971L26.2762 16.4723C26.4178 16.3564 26.5 16.183 26.5 16C26.5 15.817 26.4178 15.6436 26.2762 15.5277L22 12.029L22 14.5L18.75 14.5C18.6119 14.5 18.5 14.6119 18.5 14.75L18.5 17.25C18.5 17.3881 18.6119 17.5 18.75 17.5L22 17.5ZM29.5 16.0016L29.5 22.25C29.5 22.6642 29.8358 23 30.25 23C30.6642 23 31 22.6642 31 22.25L31 9.75C31 9.33579 30.6642 9 30.25 9C29.8358 9 29.5 9.33579 29.5 9.75L29.5 16C29.5 16.0005 29.5 16.0011 29.5 16.0016ZM28 16.0012C27.9996 16.6337 27.7156 17.2327 27.226 17.6332L22.9072 21.1668C22.6439 21.3823 22.3141 21.5 21.9739 21.5C21.1599 21.5 20.5 20.8401 20.5 20.0261L20.5 19L18.75 19C17.7835 19 17 18.2165 17 17.25L17 14.75C17 13.7835 17.7835 13 18.75 13L20.5 13L20.5 11.9739C20.5 11.1599 21.1599 10.5 21.9739 10.5C22.3141 10.5 22.6439 10.6177 22.9072 10.8332L27.226 14.3668C27.7156 14.7673 27.9996 15.3663 28 15.9988C28 15.9992 28 15.9996 28 16C28 16.0004 28 16.0008 28 16.0012Z" fill="black"/>
</svg>
