<svg width="48" height="32" viewBox="0 0 48 32" fill="none" xmlns="http://www.w3.org/2000/svg">
<path fill-rule="evenodd" clip-rule="evenodd" d="M19.7197 10.2197C20.0126 9.92678 20.4874 9.92678 20.7803 10.2197L23.7803 13.2197C24.0732 13.5126 24.0732 13.9874 23.7803 14.2803C23.4874 14.5732 23.0126 14.5732 22.7197 14.2803L21 12.5607L21 21.25C21 21.6642 20.6642 22 20.25 22C19.8358 22 19.5 21.6642 19.5 21.25L19.5 12.5607L17.7803 14.2803C17.4874 14.5732 17.0126 14.5732 16.7197 14.2803C16.4268 13.9874 16.4268 13.5126 16.7197 13.2197L19.7197 10.2197ZM27.75 22C27.5511 22 27.3603 21.921 27.2197 21.7803L24.2197 18.7803C23.9268 18.4874 23.9268 18.0126 24.2197 17.7197C24.5126 17.4268 24.9874 17.4268 25.2803 17.7197L27 19.4393L27 10.75C27 10.3358 27.3358 10 27.75 10C28.1642 10 28.5 10.3358 28.5 10.75L28.5 19.4393L30.2197 17.7197C30.5126 17.4268 30.9874 17.4268 31.2803 17.7197C31.5732 18.0126 31.5732 18.4874 31.2803 18.7803L28.2803 21.7803C28.1397 21.921 27.9489 22 27.75 22Z" fill="black"/>
</svg>
