<svg width="48" height="32" viewBox="0 0 48 32" fill="none" xmlns="http://www.w3.org/2000/svg">
<path fill-rule="evenodd" clip-rule="evenodd" d="M29.5303 12.7197C29.671 12.8603 29.75 13.0511 29.75 13.25C29.75 13.4489 29.671 13.6397 29.5303 13.7803L26.5303 16.7803C26.2374 17.0732 25.7626 17.0732 25.4697 16.7803C25.1768 16.4874 25.1768 16.0126 25.4697 15.7197L27.1893 14H23C21.2051 14 19.75 15.4551 19.75 17.25C19.75 19.0449 21.2051 20.5 23 20.5H24C24.4142 20.5 24.75 20.8358 24.75 21.25C24.75 21.6642 24.4142 22 24 22H23C20.3766 22 18.25 19.8734 18.25 17.25C18.25 14.6266 20.3766 12.5 23 12.5L27.1893 12.5L25.4697 10.7803C25.1768 10.4874 25.1768 10.0126 25.4697 9.71967C25.7626 9.42678 26.2374 9.42678 26.5303 9.71967L29.5303 12.7197Z" fill="black"/>
</svg>
