<svg width="48" height="32" viewBox="0 0 48 32" fill="none" xmlns="http://www.w3.org/2000/svg">
<path fill-rule="evenodd" clip-rule="evenodd" d="M23.4697 9.21967C23.7626 8.92678 24.2374 8.92678 24.5303 9.21967L27.0303 11.7197C27.3232 12.0126 27.3232 12.4874 27.0303 12.7803C26.7374 13.0732 26.2626 13.0732 25.9697 12.7803L24.75 11.5607V15.2979L23.25 13.7979V11.5607L22.1314 12.6793L21.0707 11.6186L23.4697 9.21967ZM23.25 18.0607V19.25C23.25 19.6642 23.5858 20 24 20C24.3216 20 24.5959 19.7976 24.7025 19.5132L26.6893 21.5H20C19.1716 21.5 18.5 20.8284 18.5 20V17.5C18.5 16.6716 19.1716 16 20 16H21.1893L23.25 18.0607ZM19.7038 14.5144L17.9697 12.7803C17.6768 12.4874 17.6768 12.0126 17.9697 11.7197C18.2626 11.4268 18.7374 11.4268 19.0303 11.7197L30.0303 22.7197C30.3232 23.0126 30.3232 23.4874 30.0303 23.7803C29.7374 24.0732 29.2626 24.0732 28.9697 23.7803L28.1838 22.9945C28.123 22.9981 28.0617 23 28 23H20C18.3431 23 17 21.6569 17 20V17.5C17 15.9431 18.186 14.6632 19.7038 14.5144ZM29.4993 20.0472L30.7198 21.2677C30.8996 20.8826 31 20.453 31 20V17.5C31 15.8431 29.6569 14.5 28 14.5H27.75C27.3358 14.5 27 14.8358 27 15.25C27 15.6642 27.3358 16 27.75 16H28C28.8284 16 29.5 16.6716 29.5 17.5V20C29.5 20.0158 29.4998 20.0315 29.4993 20.0472Z" fill="black"/>
</svg>
