<svg width="48" height="32" viewBox="0 0 48 32" fill="none" xmlns="http://www.w3.org/2000/svg">
<path fill-rule="evenodd" clip-rule="evenodd" d="M25 17.5L25 19.971L29.2762 16.4723C29.4178 16.3564 29.5 16.183 29.5 16C29.5 15.817 29.4178 15.6436 29.2762 15.5277L25 12.029L25 14.5L21.75 14.5C21.6119 14.5 21.5 14.6119 21.5 14.75L21.5 17.25C21.5 17.3881 21.6119 17.5 21.75 17.5L25 17.5ZM20 14.75L20 17.25C20 17.2505 20 17.2509 20 17.2514C20.0007 18.2172 20.784 19 21.75 19L23.5 19L23.5 20.0261C23.5 20.8401 24.1599 21.5 24.9739 21.5C25.3141 21.5 25.6439 21.3823 25.9072 21.1668L30.226 17.6332C30.7159 17.2324 31 16.6329 31 16C31 15.3671 30.7159 14.7676 30.226 14.3668L25.9072 10.8332C25.6439 10.6177 25.3141 10.5 24.9739 10.5C24.1599 10.5 23.5 11.1599 23.5 11.9739L23.5 13L21.75 13C20.7835 13 20 13.7835 20 14.75ZM18.5 22.25C18.5 22.6642 18.1642 23 17.75 23C17.3358 23 17 22.6642 17 22.25L17 9.75C17 9.33579 17.3358 9 17.75 9C18.1642 9 18.5 9.33579 18.5 9.75L18.5 22.25Z" fill="black"/>
</svg>
