<svg width="48" height="32" viewBox="0 0 48 32" fill="none" xmlns="http://www.w3.org/2000/svg">
<path fill-rule="evenodd" clip-rule="evenodd" d="M25.9998 16.5004L28.67 16.5004C28.8521 16.5004 28.9998 16.3527 28.9998 16.1706C28.9998 16.0926 28.9721 16.0172 28.9217 15.9576L24.5006 10.7327C24.376 10.5853 24.1927 10.5004 23.9998 10.5004C23.8068 10.5004 23.6236 10.5853 23.4989 10.7327L19.0778 15.9576C19.0274 16.0172 18.9998 16.0926 18.9998 16.1706C18.9998 16.3527 19.1474 16.5004 19.3295 16.5004L21.9998 16.5004L21.9998 20.9996C21.9998 21.2758 22.2236 21.4996 22.4998 21.4996L25.4998 21.4996C25.7759 21.4996 25.9998 21.2758 25.9998 20.9996L25.9998 16.5004ZM27.4998 20.9996C27.4998 22.1042 26.6043 22.9996 25.4998 22.9996L22.4998 22.9996C21.3952 22.9996 20.4998 22.1042 20.4998 20.9996L20.4998 18.0004L19.3295 18.0004C18.319 18.0004 17.4998 17.1812 17.4998 16.1706C17.4998 15.7378 17.6532 15.3191 17.9327 14.9887L22.3538 9.76375C22.7635 9.2796 23.3655 9.00037 23.9998 9.00037C24.634 9.00037 25.236 9.2796 25.6457 9.76375L30.0668 14.9887C30.3464 15.3191 30.4998 15.7378 30.4998 16.1706C30.4998 17.1812 29.6805 18.0004 28.67 18.0004L27.4998 18.0004L27.4998 20.9996Z" fill="black"/>
</svg>
