<svg width="48" height="32" viewBox="0 0 48 32" fill="none" xmlns="http://www.w3.org/2000/svg">
<path fill-rule="evenodd" clip-rule="evenodd" d="M30.7803 15.4697C31.0732 15.7626 31.0732 16.2374 30.7803 16.5303L28.2803 19.0303C27.9874 19.3232 27.5126 19.3232 27.2197 19.0303C26.9268 18.7374 26.9268 18.2626 27.2197 17.9697L28.4393 16.75L20.75 16.75C20.3358 16.75 20 16.4142 20 16C20 15.5858 20.3358 15.25 20.75 15.25L28.4393 15.25L27.2197 14.0303C26.9268 13.7374 26.9268 13.2626 27.2197 12.9697C27.5126 12.6768 27.9874 12.6768 28.2803 12.9697L30.7803 15.4697ZM25.5 12.25C25.5 12.6642 25.1642 13 24.75 13C24.3358 13 24 12.6642 24 12.25L24 12C24 11.1716 23.3284 10.5 22.5 10.5L20 10.5C19.1716 10.5 18.5 11.1716 18.5 12L18.5 20C18.5 20.8284 19.1716 21.5 20 21.5L22.5 21.5C23.3284 21.5 24 20.8284 24 20L24 19.75C24 19.3358 24.3358 19 24.75 19C25.1642 19 25.5 19.3358 25.5 19.75L25.5 20C25.5 21.6569 24.1569 23 22.5 23L20 23C18.3431 23 17 21.6569 17 20L17 12C17 10.3431 18.3431 9 20 9L22.5 9C24.1569 9 25.5 10.3431 25.5 12L25.5 12.25Z" fill="black"/>
</svg>
