<svg width="48" height="32" viewBox="0 0 48 32" fill="none" xmlns="http://www.w3.org/2000/svg">
<path fill-rule="evenodd" clip-rule="evenodd" d="M18.904 11.9647C18.1915 12.8634 17.7116 13.955 17.5553 15.1485C17.5015 15.5592 17.7908 15.9358 18.2015 15.9896C18.6122 16.0434 18.9888 15.754 19.0426 15.3433C19.1548 14.4864 19.4842 13.6978 19.9738 13.0344L26.9654 20.026C26.1356 20.6382 25.1099 21 23.9999 21C22.6015 21 21.3373 20.4266 20.4291 19.5H21.7499C22.1641 19.5 22.4999 19.1642 22.4999 18.75C22.4999 18.3358 22.1641 18 21.7499 18H18.7499C18.3357 18 17.9999 18.3358 17.9999 18.75L17.9999 21.75C17.9999 22.1642 18.3357 22.5 18.7499 22.5C19.1641 22.5 19.4999 22.1642 19.4999 21.75L19.4999 20.6904C20.6672 21.8104 22.2531 22.5 23.9999 22.5C25.5248 22.5 26.9268 21.975 28.0353 21.096L28.9697 22.0303C29.2626 22.3232 29.7374 22.3232 30.0303 22.0303C30.3232 21.7374 30.3232 21.2626 30.0303 20.9697L19.0303 9.96967C18.7374 9.67678 18.2626 9.67678 17.9697 9.96967C17.6768 10.2626 17.6768 10.7374 17.9697 11.0303L18.904 11.9647ZM28.7544 17.5523L29.9103 18.7083C30.1757 18.13 30.3588 17.5061 30.4445 16.8515C30.4983 16.4408 30.209 16.0642 29.7983 16.0104C29.3876 15.9566 29.011 16.246 28.9572 16.6567C28.9169 16.9649 28.8484 17.2644 28.7544 17.5523ZM21.2915 10.0894L22.4477 11.2457C22.9364 11.0862 23.4581 11 23.9999 11C25.3983 11 26.6625 11.5734 27.5707 12.5H26.2499C25.8357 12.5 25.4999 12.8358 25.4999 13.25C25.4999 13.6642 25.8357 14 26.2499 14H29.2499C29.6641 14 29.9999 13.6642 29.9999 13.25V10.25C29.9999 9.83579 29.6641 9.5 29.2499 9.5C28.8357 9.5 28.4999 9.83579 28.4999 10.25V11.3096C27.3326 10.1896 25.7467 9.5 23.9999 9.5C23.0332 9.5 22.1159 9.71097 21.2915 10.0894Z" fill="black"/>
</svg>
