<svg width="48" height="32" viewBox="0 0 48 32" fill="none" xmlns="http://www.w3.org/2000/svg">
<path fill-rule="evenodd" clip-rule="evenodd" d="M17.2197 16.5303C16.9268 16.2374 16.9268 15.7626 17.2197 15.4697L19.7197 12.9697C20.0126 12.6768 20.4874 12.6768 20.7803 12.9697C21.0732 13.2626 21.0732 13.7374 20.7803 14.0303L19.5607 15.25L27.25 15.25C27.6642 15.25 28 15.5858 28 16C28 16.4142 27.6642 16.75 27.25 16.75L19.5607 16.75L20.7803 17.9697C21.0732 18.2626 21.0732 18.7374 20.7803 19.0303C20.4874 19.3232 20.0126 19.3232 19.7197 19.0303L17.2197 16.5303ZM29.5 22.25C29.5 22.6642 29.8358 23 30.25 23C30.6642 23 31 22.6642 31 22.25L31 9.75C31 9.33579 30.6642 9 30.25 9C29.8358 9 29.5 9.33579 29.5 9.75L29.5 22.25Z" fill="black"/>
</svg>
