<svg width="48" height="32" viewBox="0 0 48 32" fill="none" xmlns="http://www.w3.org/2000/svg">
<path fill-rule="evenodd" clip-rule="evenodd" d="M25.5 15L27.971 15L24.4723 10.7238C24.3564 10.5822 24.183 10.5 24 10.5C23.817 10.5 23.6436 10.5822 23.5277 10.7238L20.029 15L22.5 15L22.5 18.25C22.5 18.3881 22.6119 18.5 22.75 18.5L25.25 18.5C25.3881 18.5 25.5 18.3881 25.5 18.25L25.5 15ZM22.75 20L25.25 20C25.2505 20 25.2509 20 25.2514 20C26.2172 19.9993 27 19.216 27 18.25L27 16.5L28.0261 16.5C28.8401 16.5 29.5 15.8401 29.5 15.0261C29.5 14.6859 29.3823 14.3561 29.1668 14.0928L25.6332 9.77396C25.2324 9.28409 24.6329 9 24 9C23.3671 9 22.7676 9.2841 22.3668 9.77396L18.8332 14.0928C18.6177 14.3561 18.5 14.6859 18.5 15.0261C18.5 15.8401 19.1599 16.5 19.9739 16.5L21 16.5L21 18.25C21 19.2165 21.7835 20 22.75 20ZM30.25 21.5C30.6642 21.5 31 21.8358 31 22.25C31 22.6642 30.6642 23 30.25 23L17.75 23C17.3358 23 17 22.6642 17 22.25C17 21.8358 17.3358 21.5 17.75 21.5L30.25 21.5Z" fill="black"/>
</svg>
