<svg width="48" height="32" viewBox="0 0 48 32" fill="none" xmlns="http://www.w3.org/2000/svg">
<path fill-rule="evenodd" clip-rule="evenodd" d="M29.7803 11.7197C30.0732 12.0126 30.0732 12.4874 29.7803 12.7803L26.7803 15.7803C26.4874 16.0732 26.0126 16.0732 25.7197 15.7803C25.4268 15.4874 25.4268 15.0126 25.7197 14.7197L27.4393 13L18.75 13C18.3358 13 18 12.6642 18 12.25C18 11.8358 18.3358 11.5 18.75 11.5L27.4393 11.5L25.7197 9.78033C25.4268 9.48744 25.4268 9.01256 25.7197 8.71967C26.0126 8.42678 26.4874 8.42678 26.7803 8.71967L29.7803 11.7197ZM18 19.75C18 19.5511 18.079 19.3603 18.2197 19.2197L21.2197 16.2197C21.5126 15.9268 21.9874 15.9268 22.2803 16.2197C22.5732 16.5126 22.5732 16.9874 22.2803 17.2803L20.5607 19H29.25C29.6642 19 30 19.3358 30 19.75C30 20.1642 29.6642 20.5 29.25 20.5H20.5607L22.2803 22.2197C22.5732 22.5126 22.5732 22.9874 22.2803 23.2803C21.9874 23.5732 21.5126 23.5732 21.2197 23.2803L18.2197 20.2803C18.079 20.1397 18 19.9489 18 19.75Z" fill="black"/>
</svg>
