<svg width="48" height="32" viewBox="0 0 48 32" fill="none" xmlns="http://www.w3.org/2000/svg">
<path fill-rule="evenodd" clip-rule="evenodd" d="M24 9.5C27.3015 9.5 30.027 11.9607 30.4446 15.1485C30.4984 15.5592 30.2091 15.9358 29.7984 15.9896C29.3877 16.0434 29.0111 15.754 28.9573 15.3433C28.6363 12.8925 26.5385 11 24 11C22.6016 11 21.3374 11.5734 20.4292 12.5H21.75C22.1642 12.5 22.5 12.8358 22.5 13.25C22.5 13.6642 22.1642 14 21.75 14H18.75C18.3358 14 18 13.6642 18 13.25V10.25C18 9.83579 18.3358 9.5 18.75 9.5C19.1642 9.5 19.5 9.83579 19.5 10.25V11.3096C20.6673 10.1896 22.2532 9.5 24 9.5ZM29.25 22.5C29.6642 22.5 30 22.1642 30 21.75L30 18.75C30 18.3358 29.6642 18 29.25 18H26.25C25.8358 18 25.5 18.3358 25.5 18.75C25.5 19.1642 25.8358 19.5 26.25 19.5H27.5707C26.6626 20.4266 25.3984 21 24 21C21.4614 21 19.3637 19.1075 19.0426 16.6567C18.9888 16.246 18.6123 15.9566 18.2016 16.0104C17.7909 16.0642 17.5015 16.4408 17.5553 16.8515C17.9729 20.0393 20.6985 22.5 24 22.5C25.7468 22.5 27.3327 21.8104 28.5 20.6904L28.5 21.75C28.5 22.1642 28.8358 22.5 29.25 22.5Z" fill="black"/>
</svg>
