<svg width="48" height="32" viewBox="0 0 48 32" fill="none" xmlns="http://www.w3.org/2000/svg">
<path fill-rule="evenodd" clip-rule="evenodd" d="M23.4697 9.21967C23.7626 8.92678 24.2374 8.92678 24.5303 9.21967L27.0303 11.7197C27.3232 12.0126 27.3232 12.4874 27.0303 12.7803C26.7374 13.0732 26.2626 13.0732 25.9697 12.7803L24.75 11.5607V19.25C24.75 19.6642 24.4142 20 24 20C23.5858 20 23.25 19.6642 23.25 19.25V11.5607L22.0303 12.7803C21.7374 13.0732 21.2626 13.0732 20.9697 12.7803C20.6768 12.4874 20.6768 12.0126 20.9697 11.7197L23.4697 9.21967ZM17.75 21.5C17.3358 21.5 17 21.8358 17 22.25C17 22.6642 17.3358 23 17.75 23H30.25C30.6642 23 31 22.6642 31 22.25C31 21.8358 30.6642 21.5 30.25 21.5H17.75Z" fill="black"/>
</svg>
