<svg width="48" height="32" viewBox="0 0 48 32" fill="none" xmlns="http://www.w3.org/2000/svg">
<g clip-path="url(#clip0_74_1990)">
<path fill-rule="evenodd" clip-rule="evenodd" d="M20.6094 10.5029C21.5919 9.88904 22.7511 9.53014 23.9926 9.5193C25.7394 9.50406 27.3313 10.1799 28.5084 11.2898L28.5035 10.73C28.4999 10.3158 28.8327 9.97711 29.2469 9.97349C29.6611 9.96988 29.9998 10.3027 30.0034 10.7169L30.0252 13.2168C30.0288 13.631 29.696 13.9697 29.2818 13.9733L26.7853 13.9951C26.3711 13.9987 26.0324 13.6659 26.0288 13.2517C26.0252 12.8375 26.358 12.4988 26.7722 12.4952L27.5894 12.488C26.6731 11.5694 25.404 11.007 24.0056 11.0192C23.0486 11.0276 22.1588 11.3035 21.4042 11.7751C21.0529 11.9945 20.5902 11.8877 20.3707 11.5364C20.1512 11.1851 20.2581 10.7224 20.6094 10.5029ZM29.7069 19.2191C30.3182 18.1386 30.587 16.9552 30.5466 15.7973C30.5322 15.3834 30.1849 15.0595 29.7709 15.0739C29.357 15.0884 29.0331 15.4356 29.0475 15.8496C29.0785 16.7389 28.8726 17.6475 28.4013 18.4805C27.7127 19.6976 26.5911 20.5155 25.3375 20.8497L25.7399 20.1384C25.9438 19.7779 25.8169 19.3203 25.4564 19.1163C25.0959 18.9124 24.6383 19.0393 24.4343 19.3998L23.2049 21.5727C23.001 21.9332 23.1279 22.3908 23.4884 22.5948L25.6643 23.8258C26.0248 24.0298 26.4824 23.9029 26.6863 23.5424C26.8903 23.1819 26.7634 22.7243 26.4029 22.5203L25.9157 22.2447C27.4654 21.7803 28.8467 20.7395 29.7069 19.2191ZM18.4493 19.3177C19.0794 20.3874 19.9698 21.2119 20.9928 21.7559C21.3585 21.9503 21.8126 21.8115 22.0071 21.4458C22.2016 21.0801 22.0628 20.626 21.697 20.4315C20.9114 20.0137 20.2275 19.3811 19.7417 18.5564C19.032 17.3515 18.8845 15.9712 19.2219 14.7184L19.6367 15.4226C19.8469 15.7795 20.3066 15.8984 20.6635 15.6881C21.0204 15.4779 21.1393 15.0182 20.9291 14.6613L19.662 12.5101C19.4517 12.1532 18.992 12.0343 18.6351 12.2445L16.481 13.5134C16.1241 13.7236 16.0052 14.1834 16.2155 14.5403C16.4257 14.8972 16.8855 15.016 17.2424 14.8058L17.7247 14.5217C17.352 16.096 17.5627 17.8126 18.4493 19.3177Z" fill="black"/>
</g>
<defs>
<clipPath id="clip0_74_1990">
<rect width="16" height="16" fill="white" transform="translate(16 8)"/>
</clipPath>
</defs>
</svg>
