<svg width="48" height="32" viewBox="0 0 48 32" fill="none" xmlns="http://www.w3.org/2000/svg">
<path fill-rule="evenodd" clip-rule="evenodd" d="M20.2197 16.5303C19.9268 16.2374 19.9268 15.7626 20.2197 15.4697L22.7197 12.9697C23.0126 12.6768 23.4874 12.6768 23.7803 12.9697C24.0732 13.2626 24.0732 13.7374 23.7803 14.0303L22.5607 15.25L30.25 15.25C30.6642 15.25 31 15.5858 31 16C31 16.4142 30.6642 16.75 30.25 16.75L22.5607 16.75L23.7803 17.9697C24.0732 18.2626 24.0732 18.7374 23.7803 19.0303C23.4874 19.3232 23.0126 19.3232 22.7197 19.0303L20.2197 16.5303ZM18.5 9.75C18.5 9.33579 18.1642 9 17.75 9C17.3358 9 17 9.33579 17 9.75L17 22.25C17 22.6642 17.3358 23 17.75 23C18.1642 23 18.5 22.6642 18.5 22.25L18.5 9.75Z" fill="black"/>
</svg>
