<svg width="48" height="32" viewBox="0 0 48 32" fill="none" xmlns="http://www.w3.org/2000/svg">
<path fill-rule="evenodd" clip-rule="evenodd" d="M24.5 14L24.5 11.3297C24.5 11.1476 24.3524 11 24.1703 11C24.0923 11 24.0168 11.0276 23.9573 11.078L18.7323 15.4991C18.585 15.6238 18.5 15.807 18.5 16C18.5 16.193 18.585 16.3762 18.7323 16.5009L23.9573 20.922C24.0168 20.9724 24.0923 21 24.1703 21C24.3524 21 24.5 20.8524 24.5 20.6703L24.5 18L28.9993 18C29.2754 18 29.4993 17.7761 29.4993 17.5L29.4993 14.5C29.4993 14.2239 29.2754 14 28.9993 14L24.5 14ZM28.9993 12.5C30.1038 12.5 30.9993 13.3954 30.9993 14.5L30.9993 17.5C30.9993 18.6046 30.1038 19.5 28.9993 19.5L26 19.5L26 20.6703C26 21.6808 25.1808 22.5 24.1703 22.5C23.7375 22.5 23.3187 22.3466 22.9883 22.0671L17.7634 17.6459C17.2792 17.2363 17 16.6342 17 16C17 15.3658 17.2792 14.7637 17.7634 14.3541L22.9883 9.93294C23.3187 9.6534 23.7375 9.5 24.1703 9.5C25.1808 9.5 26 10.3192 26 11.3297L26 12.5L28.9993 12.5Z" fill="black"/>
</svg>
