<svg width="48" height="32" viewBox="0 0 48 32" fill="none" xmlns="http://www.w3.org/2000/svg">
<path fill-rule="evenodd" clip-rule="evenodd" d="M23.0007 17L23.0007 19.6645C23.0007 19.8498 22.8505 20 22.6652 20C22.5867 20 22.5107 19.9725 22.4504 19.9222L17.7292 15.9879C17.5844 15.8672 17.5007 15.6885 17.5007 15.5C17.5007 15.3115 17.5844 15.1328 17.7292 15.0121L22.4504 11.0778C22.5107 11.0275 22.5867 11 22.6652 11C22.8505 11 23.0007 11.1502 23.0007 11.3355L23.0007 14H24.5007C26.0841 14 27.6824 14.5713 28.7412 15.6919C29.6403 16.6434 30.2897 18.1383 30.0507 20.4146C29.4017 19.3893 28.6856 18.5783 27.8496 18.0015C26.8022 17.2788 25.6773 17 24.5007 17H23.0007ZM26.0007 18.7313C27.1617 19.1271 28.1648 20.0681 29.1511 21.8371C29.3745 22.2376 29.7904 22.5 30.249 22.5C30.8006 22.4999 31.2894 22.1245 31.3923 21.5826C32.5983 15.2371 28.3214 12.5 24.5007 12.5L24.5007 11.3355C24.5007 10.3218 23.6789 9.5 22.6652 9.5C22.2358 9.5 21.82 9.65054 21.4902 9.92542L16.7689 13.8598C16.2821 14.2655 16.0007 14.8664 16.0007 15.5C16.0007 16.1336 16.2821 16.7345 16.7689 17.1402L21.4902 21.0746C21.82 21.3495 22.2358 21.5 22.6652 21.5C23.6789 21.5 24.5007 20.6782 24.5007 19.6645L24.5007 18.5C25.0329 18.5 25.5298 18.5708 26.0007 18.7313Z" fill="black"/>
</svg>
