<svg width="48" height="32" viewBox="0 0 48 32" fill="none" xmlns="http://www.w3.org/2000/svg">
<path fill-rule="evenodd" clip-rule="evenodd" d="M26 14.5L26 12.029L21.7238 15.5277C21.5822 15.6436 21.5 15.817 21.5 16C21.5 16.183 21.5822 16.3564 21.7238 16.4723L26 19.971L26 17.5L29.25 17.5C29.3881 17.5 29.5 17.3881 29.5 17.25L29.5 14.75C29.5 14.6119 29.3881 14.5 29.25 14.5L26 14.5ZM18.5 15.9984L18.5 9.75C18.5 9.33579 18.1642 9 17.75 9C17.3358 9 17 9.33579 17 9.75L17 22.25C17 22.6642 17.3358 23 17.75 23C18.1642 23 18.5 22.6642 18.5 22.25L18.5 16C18.5 15.9995 18.5 15.9989 18.5 15.9984ZM20 15.9988C20.0004 15.3663 20.2844 14.7673 20.774 14.3668L25.0928 10.8332C25.3561 10.6177 25.6859 10.5 26.0261 10.5C26.8401 10.5 27.5 11.1599 27.5 11.9739L27.5 13L29.25 13C30.2165 13 31 13.7835 31 14.75L31 17.25C31 18.2165 30.2165 19 29.25 19L27.5 19L27.5 20.0261C27.5 20.8401 26.8401 21.5 26.0261 21.5C25.6859 21.5 25.3561 21.3823 25.0928 21.1668L20.774 17.6332C20.2844 17.2327 20.0004 16.6337 20 16.0012C20 16.0008 20 16.0004 20 16C20 15.9996 20 15.9992 20 15.9988Z" fill="black"/>
</svg>
