<svg width="48" height="32" viewBox="0 0 48 32" fill="none" xmlns="http://www.w3.org/2000/svg">
<g clip-path="url(#clip0_74_2154)">
<path fill-rule="evenodd" clip-rule="evenodd" d="M24.0076 9.5193C25.249 9.53014 26.4082 9.88904 27.3908 10.5029C27.7421 10.7224 27.8489 11.1851 27.6294 11.5364C27.41 11.8877 26.9473 11.9945 26.596 11.7751C25.8413 11.3035 24.9515 11.0276 23.9945 11.0192C22.5962 11.007 21.327 11.5694 20.4108 12.488L21.2279 12.4952C21.6421 12.4988 21.975 12.8375 21.9714 13.2517C21.9677 13.6659 21.629 13.9987 21.2148 13.9951L18.7183 13.9733C18.3041 13.9697 17.9713 13.631 17.9749 13.2168L17.9967 10.7169C18.0003 10.3027 18.339 9.96988 18.7532 9.97349C19.1674 9.97711 19.5003 10.3158 19.4967 10.73L19.4918 11.2898C20.6688 10.1799 22.2608 9.50406 24.0076 9.5193ZM17.4535 15.7973C17.4132 16.9552 17.6819 18.1386 18.2933 19.2191C19.1535 20.7395 20.5347 21.7803 22.0844 22.2447L21.5972 22.5203C21.2367 22.7243 21.1098 23.1819 21.3138 23.5424C21.5177 23.9029 21.9753 24.0298 22.3359 23.8258L24.5117 22.5948C24.8722 22.3908 24.9991 21.9332 24.7952 21.5727L23.5658 19.3998C23.3618 19.0393 22.9042 18.9124 22.5437 19.1163C22.1832 19.3203 22.0563 19.7779 22.2603 20.1384L22.6627 20.8497C21.409 20.5155 20.2874 19.6976 19.5988 18.4805C19.1275 17.6475 18.9216 16.7389 18.9526 15.8496C18.967 15.4356 18.6431 15.0884 18.2292 15.0739C17.8152 15.0595 17.4679 15.3834 17.4535 15.7973ZM27.0074 21.7559C28.0303 21.2119 28.9207 20.3874 29.5508 19.3177C30.4374 17.8126 30.6481 16.096 30.2755 14.5217L30.7578 14.8058C31.1147 15.016 31.5744 14.8971 31.7846 14.5402C31.9949 14.1834 31.876 13.7236 31.5191 13.5134L29.365 12.2445C29.0081 12.0343 28.5484 12.1532 28.3382 12.5101L27.071 14.6613C26.8608 15.0182 26.9797 15.4779 27.3366 15.6881C27.6935 15.8984 28.1532 15.7795 28.3635 15.4226L28.7782 14.7184C29.1156 15.9712 28.9681 17.3515 28.2584 18.5564C27.7726 19.3811 27.0888 20.0137 26.3031 20.4315C25.9374 20.626 25.7985 21.0801 25.993 21.4458C26.1875 21.8115 26.6416 21.9503 27.0074 21.7559ZM23.0031 13.2836C23.1514 12.8599 23.5513 12.5761 24.0002 12.5761C24.4491 12.5761 24.849 12.8599 24.9973 13.2836L26.4472 17.4261C26.584 17.8171 26.378 18.2449 25.9871 18.3818C25.5961 18.5186 25.1683 18.3126 25.0314 17.9217L24.8991 17.5435L23.1013 17.5435L22.969 17.9217C22.8321 18.3126 22.4043 18.5186 22.0133 18.3818C21.6223 18.2449 21.4163 17.8171 21.5532 17.4261L23.0031 13.2836ZM24.0002 14.9753L24.374 16.0435L23.6263 16.0435L24.0002 14.9753Z" fill="black"/>
</g>
<defs>
<clipPath id="clip0_74_2154">
<rect width="16" height="16" fill="white" transform="translate(16 8)"/>
</clipPath>
</defs>
</svg>
