<svg width="48" height="32" viewBox="0 0 48 32" fill="none" xmlns="http://www.w3.org/2000/svg">
<path fill-rule="evenodd" clip-rule="evenodd" d="M24.9993 17L24.9993 19.6645C24.9993 19.8498 25.1495 20 25.3348 20C25.4133 20 25.4893 19.9725 25.5496 19.9222L30.2708 15.9879C30.4156 15.8672 30.4993 15.6885 30.4993 15.5C30.4993 15.3115 30.4156 15.1328 30.2708 15.0121L25.5496 11.0778C25.4893 11.0275 25.4133 11 25.3348 11C25.1495 11 24.9993 11.1502 24.9993 11.3355L24.9993 14H23.4993C21.9159 14 20.3176 14.5713 19.2588 15.6919C18.3597 16.6434 17.7103 18.1383 17.9493 20.4146C18.5983 19.3893 19.3144 18.5783 20.1504 18.0015C21.1978 17.2788 22.3227 17 23.4993 17H24.9993ZM21.9993 18.7313C20.8383 19.1271 19.8352 20.0681 18.8489 21.8371C18.6255 22.2376 18.2096 22.5 17.751 22.5C17.1994 22.4999 16.7106 22.1245 16.6077 21.5826C15.4017 15.2371 19.6786 12.5 23.4993 12.5L23.4993 11.3355C23.4993 10.3218 24.3211 9.5 25.3348 9.5C25.7642 9.5 26.18 9.65054 26.5098 9.92542L31.2311 13.8598C31.7179 14.2655 31.9993 14.8664 31.9993 15.5C31.9993 16.1336 31.7179 16.7345 31.2311 17.1402L26.5098 21.0746C26.18 21.3495 25.7642 21.5 25.3348 21.5C24.3211 21.5 23.4993 20.6782 23.4993 19.6645L23.4993 18.5C22.9671 18.5 22.4702 18.5708 21.9993 18.7313Z" fill="black"/>
</svg>
