<svg width="48" height="32" viewBox="0 0 48 32" fill="none" xmlns="http://www.w3.org/2000/svg">
<path fill-rule="evenodd" clip-rule="evenodd" d="M18.4697 19.2803C18.329 19.1397 18.25 18.9489 18.25 18.75C18.25 18.5511 18.329 18.3603 18.4697 18.2197L21.4697 15.2197C21.7626 14.9268 22.2374 14.9268 22.5303 15.2197C22.8232 15.5126 22.8232 15.9874 22.5303 16.2803L20.8107 18H25C26.7949 18 28.25 16.5449 28.25 14.75C28.25 12.9551 26.7949 11.5 25 11.5H24C23.5858 11.5 23.25 11.1642 23.25 10.75C23.25 10.3358 23.5858 10 24 10H25C27.6234 10 29.75 12.1266 29.75 14.75C29.75 17.3734 27.6234 19.5 25 19.5L20.8107 19.5L22.5303 21.2197C22.8232 21.5126 22.8232 21.9874 22.5303 22.2803C22.2374 22.5732 21.7626 22.5732 21.4697 22.2803L18.4697 19.2803Z" fill="black"/>
</svg>
