<svg width="48" height="32" viewBox="0 0 48 32" fill="none" xmlns="http://www.w3.org/2000/svg">
<path fill-rule="evenodd" clip-rule="evenodd" d="M23.4697 12.2197C23.7626 11.9268 24.2374 11.9268 24.5303 12.2197L27.0303 14.7197C27.3232 15.0126 27.3232 15.4874 27.0303 15.7803C26.7374 16.0732 26.2626 16.0732 25.9697 15.7803L24.75 14.5607L24.75 22.25C24.75 22.6642 24.4142 23 24 23C23.5858 23 23.25 22.6642 23.25 22.25L23.25 14.5607L22.0303 15.7803C21.7374 16.0732 21.2626 16.0732 20.9697 15.7803C20.6768 15.4874 20.6768 15.0126 20.9697 14.7197L23.4697 12.2197ZM30.25 10.5C30.6642 10.5 31 10.1642 31 9.75C31 9.33579 30.6642 9 30.25 9L17.75 9C17.3358 9 17 9.33579 17 9.75C17 10.1642 17.3358 10.5 17.75 10.5L30.25 10.5Z" fill="black"/>
</svg>
