<svg width="48" height="32" viewBox="0 0 48 32" fill="none" xmlns="http://www.w3.org/2000/svg">
<path fill-rule="evenodd" clip-rule="evenodd" d="M24.5303 22.7803C24.2374 23.0732 23.7626 23.0732 23.4697 22.7803L20.9697 20.2803C20.6768 19.9874 20.6768 19.5126 20.9697 19.2197C21.2626 18.9268 21.7374 18.9268 22.0303 19.2197L23.25 20.4393L23.25 12.75C23.25 12.3358 23.5858 12 24 12C24.4142 12 24.75 12.3358 24.75 12.75L24.75 20.4393L25.9697 19.2197C26.2626 18.9268 26.7374 18.9268 27.0303 19.2197C27.3232 19.5126 27.3232 19.9874 27.0303 20.2803L24.5303 22.7803ZM30.25 10.5C30.6642 10.5 31 10.1642 31 9.75C31 9.33579 30.6642 9 30.25 9L17.75 9C17.3358 9 17 9.33579 17 9.75C17 10.1642 17.3358 10.5 17.75 10.5L30.25 10.5Z" fill="black"/>
</svg>
