<svg width="48" height="32" viewBox="0 0 48 32" fill="none" xmlns="http://www.w3.org/2000/svg">
<path fill-rule="evenodd" clip-rule="evenodd" d="M24.0001 9.5C24.9668 9.5 25.8841 9.71097 26.7086 10.0894L25.5523 11.2457C25.0637 11.0862 24.5419 11 24.0001 11C22.6018 11 21.3376 11.5734 20.4294 12.5H21.7501C22.1644 12.5 22.5001 12.8358 22.5001 13.25C22.5001 13.6642 22.1644 14 21.7501 14H18.7501C18.3359 14 18.0001 13.6642 18.0001 13.25V10.25C18.0001 9.83579 18.3359 9.5 18.7501 9.5C19.1644 9.5 19.5001 9.83579 19.5001 10.25V11.3096C20.6674 10.1896 22.2534 9.5 24.0001 9.5ZM28.0263 13.0344L21.0347 20.026C21.8644 20.6382 22.8902 21 24.0002 21C25.3985 21 26.6627 20.4266 27.5709 19.5H26.2501C25.8359 19.5 25.5001 19.1642 25.5001 18.75C25.5001 18.3358 25.8359 18 26.2501 18H29.2501C29.6644 18 30.0001 18.3358 30.0001 18.75V21.75C30.0001 22.1642 29.6644 22.5 29.2501 22.5C28.8359 22.5 28.5001 22.1642 28.5001 21.75V20.6904C27.3329 21.8104 25.7469 22.5 24.0002 22.5C22.4753 22.5 21.0732 21.975 19.9647 21.096L19.0304 22.0303C18.7375 22.3232 18.2626 22.3232 17.9697 22.0303C17.6768 21.7374 17.6768 21.2626 17.9697 20.9697L28.9697 9.96967C29.2626 9.67678 29.7375 9.67678 30.0304 9.96967C30.3233 10.2626 30.3233 10.7374 30.0304 11.0303L29.0961 11.9647C29.8086 12.8634 30.2884 13.955 30.4448 15.1485C30.4986 15.5592 30.2093 15.9358 29.7985 15.9896C29.3878 16.0434 29.0113 15.754 28.9575 15.3433C28.8452 14.4864 28.5158 13.6978 28.0263 13.0344ZM19.0428 16.6567C19.0832 16.9649 19.1517 17.2644 19.2456 17.5523L18.0897 18.7083C17.8243 18.13 17.6413 17.5061 17.5555 16.8515C17.5017 16.4408 17.791 16.0642 18.2017 16.0104C18.6125 15.9566 18.989 16.246 19.0428 16.6567Z" fill="black"/>
</svg>
