<svg width="48" height="32" viewBox="0 0 48 32" fill="none" xmlns="http://www.w3.org/2000/svg">
<path fill-rule="evenodd" clip-rule="evenodd" d="M24 9.5C20.4101 9.5 17.5 12.4101 17.5 16C17.5 19.5899 20.4101 22.5 24 22.5C27.3026 22.5 30.0288 20.0377 30.445 16.8484C30.4986 16.4377 30.2091 16.0613 29.7984 16.0077C29.3877 15.9541 29.0113 16.2436 28.9577 16.6543C28.6377 19.1063 26.5394 21 24 21C21.2386 21 19 18.7614 19 16C19 13.2386 21.2386 11 24 11C25.3984 11 26.6626 11.5734 27.5708 12.5H26.25C25.8358 12.5 25.5 12.8358 25.5 13.25C25.5 13.6642 25.8358 14 26.25 14H29.25C29.6642 14 30 13.6642 30 13.25V10.25C30 9.83579 29.6642 9.5 29.25 9.5C28.8358 9.5 28.5 9.83579 28.5 10.25V11.3096C27.3327 10.1896 25.7468 9.5 24 9.5Z" fill="black"/>
</svg>
