<svg width="48" height="32" viewBox="0 0 48 32" fill="none" xmlns="http://www.w3.org/2000/svg">
<path fill-rule="evenodd" clip-rule="evenodd" d="M23.4697 9.21967C23.7626 8.92678 24.2374 8.92678 24.5303 9.21967L27.0303 11.7197C27.3232 12.0126 27.3232 12.4874 27.0303 12.7803C26.7374 13.0732 26.2626 13.0732 25.9697 12.7803L24.75 11.5607V19.25C24.75 19.6642 24.4142 20 24 20C23.5858 20 23.25 19.6642 23.25 19.25V11.5607L22.0303 12.7803C21.7374 13.0732 21.2626 13.0732 20.9697 12.7803C20.6768 12.4874 20.6768 12.0126 20.9697 11.7197L23.4697 9.21967ZM20.25 14.5C20.6642 14.5 21 14.8358 21 15.25C21 15.6642 20.6642 16 20.25 16H20C19.1716 16 18.5 16.6716 18.5 17.5V20C18.5 20.8284 19.1716 21.5 20 21.5H28C28.8284 21.5 29.5 20.8284 29.5 20V17.5C29.5 16.6716 28.8284 16 28 16H27.75C27.3358 16 27 15.6642 27 15.25C27 14.8358 27.3358 14.5 27.75 14.5H28C29.6569 14.5 31 15.8431 31 17.5V20C31 21.6569 29.6569 23 28 23H20C18.3431 23 17 21.6569 17 20V17.5C17 15.8431 18.3431 14.5 20 14.5H20.25Z" fill="black"/>
</svg>
