<svg width="48" height="32" viewBox="0 0 48 32" fill="none" xmlns="http://www.w3.org/2000/svg">
<path fill-rule="evenodd" clip-rule="evenodd" d="M27.7803 15.4697C28.0732 15.7626 28.0732 16.2374 27.7803 16.5303L25.2803 19.0303C24.9874 19.3232 24.5126 19.3232 24.2197 19.0303C23.9268 18.7374 23.9268 18.2626 24.2197 17.9697L25.4393 16.75L17.75 16.75C17.3358 16.75 17 16.4142 17 16C17 15.5858 17.3358 15.25 17.75 15.25L25.4393 15.25L24.2197 14.0303C23.9268 13.7374 23.9268 13.2626 24.2197 12.9697C24.5126 12.6768 24.9874 12.6768 25.2803 12.9697L27.7803 15.4697ZM29.5 22.25C29.5 22.6642 29.8358 23 30.25 23C30.6642 23 31 22.6642 31 22.25L31 9.75C31 9.33579 30.6642 9 30.25 9C29.8358 9 29.5 9.33579 29.5 9.75L29.5 22.25Z" fill="black"/>
</svg>
