<svg width="48" height="32" viewBox="0 0 48 32" fill="none" xmlns="http://www.w3.org/2000/svg">
<path fill-rule="evenodd" clip-rule="evenodd" d="M24.5303 19.7803C24.2374 20.0732 23.7626 20.0732 23.4697 19.7803L20.9697 17.2803C20.6768 16.9874 20.6768 16.5126 20.9697 16.2197C21.2626 15.9268 21.7374 15.9268 22.0303 16.2197L23.25 17.4393L23.25 9.75C23.25 9.33579 23.5858 9 24 9C24.4142 9 24.75 9.33579 24.75 9.75L24.75 17.4393L25.9697 16.2197C26.2626 15.9268 26.7374 15.9268 27.0303 16.2197C27.3232 16.5126 27.3232 16.9874 27.0303 17.2803L24.5303 19.7803ZM20.25 12C20.6642 12 21 12.3358 21 12.75C21 13.1642 20.6642 13.5 20.25 13.5H20C19.1716 13.5 18.5 14.1716 18.5 15V20C18.5 20.8284 19.1716 21.5 20 21.5H28C28.8284 21.5 29.5 20.8284 29.5 20V15C29.5 14.1716 28.8284 13.5 28 13.5H27.75C27.3358 13.5 27 13.1642 27 12.75C27 12.3358 27.3358 12 27.75 12H28C29.6569 12 31 13.3432 31 15V20C31 21.6569 29.6569 23 28 23H20C18.3431 23 17 21.6569 17 20V15C17 13.3432 18.3431 12 20 12H20.25Z" fill="black"/>
</svg>
