<svg width="48" height="32" viewBox="0 0 48 32" fill="none" xmlns="http://www.w3.org/2000/svg">
<path fill-rule="evenodd" clip-rule="evenodd" d="M27.7803 15.4697C28.0732 15.7626 28.0732 16.2374 27.7803 16.5303L25.2803 19.0303C24.9874 19.3232 24.5126 19.3232 24.2197 19.0303C23.9268 18.7374 23.9268 18.2626 24.2197 17.9697L25.4393 16.75L17.75 16.75C17.3358 16.75 17 16.4142 17 16C17 15.5858 17.3358 15.25 17.75 15.25L25.4393 15.25L24.2197 14.0303C23.9268 13.7374 23.9268 13.2626 24.2197 12.9697C24.5126 12.6768 24.9874 12.6768 25.2803 12.9697L27.7803 15.4697ZM20 19.75C20 19.3358 20.3358 19 20.75 19C21.1642 19 21.5 19.3358 21.5 19.75L21.5 20C21.5 20.8284 22.1716 21.5 23 21.5L28 21.5C28.8284 21.5 29.5 20.8284 29.5 20L29.5 12C29.5 11.1716 28.8284 10.5 28 10.5L23 10.5C22.1716 10.5 21.5 11.1716 21.5 12L21.5 12.25C21.5 12.6642 21.1642 13 20.75 13C20.3358 13 20 12.6642 20 12.25L20 12C20 10.3431 21.3431 9 23 9L28 9C29.6569 9 31 10.3431 31 12L31 20C31 21.6569 29.6569 23 28 23L23 23C21.3431 23 20 21.6569 20 20L20 19.75Z" fill="black"/>
</svg>
