<svg width="48" height="32" viewBox="0 0 48 32" fill="none" xmlns="http://www.w3.org/2000/svg">
<path fill-rule="evenodd" clip-rule="evenodd" d="M24 10.5C20.9624 10.5 18.5 12.9624 18.5 16C18.5 19.0376 20.9624 21.5 24 21.5C25.3396 21.5 26.5656 21.022 27.5197 20.2265C27.8378 19.9613 28.3108 20.0041 28.576 20.3223C28.8413 20.6404 28.7984 21.1133 28.4803 21.3786C27.2666 22.3905 25.7035 23 24 23C20.134 23 17 19.866 17 16C17 12.134 20.134 9 24 9C27.866 9 31 12.134 31 16C31 17.3807 29.8807 18.5 28.5 18.5C27.8993 18.5 27.348 18.2881 26.9169 17.935C26.2899 18.8783 25.2176 19.5 24 19.5C22.067 19.5 20.5 17.933 20.5 16C20.5 14.067 22.067 12.5 24 12.5C25.933 12.5 27.5 14.067 27.5 16C27.5 16.5523 27.9477 17 28.5 17C29.0523 17 29.5 16.5523 29.5 16C29.5 12.9624 27.0376 10.5 24 10.5ZM26 16C26 14.8954 25.1046 14 24 14C22.8954 14 22 14.8954 22 16C22 17.1046 22.8954 18 24 18C25.1046 18 26 17.1046 26 16Z" fill="black"/>
</svg>
