<svg width="48" height="32" viewBox="0 0 48 32" fill="none" xmlns="http://www.w3.org/2000/svg">
<path fill-rule="evenodd" clip-rule="evenodd" d="M27.3226 20.3833C26.3996 21.0841 25.2484 21.5 24 21.5C20.9624 21.5 18.5 19.0376 18.5 16C18.5 14.7516 18.9159 13.6004 19.6167 12.6774L27.3226 20.3833ZM28.3833 19.3226L20.6774 11.6167C21.6004 10.9159 22.7516 10.5 24 10.5C27.0376 10.5 29.5 12.9624 29.5 16C29.5 17.2484 29.0841 18.3996 28.3833 19.3226ZM31 16C31 19.866 27.866 23 24 23C20.134 23 17 19.866 17 16C17 12.134 20.134 9 24 9C27.866 9 31 12.134 31 16Z" fill="black"/>
</svg>
