<svg width="48" height="32" viewBox="0 0 48 32" fill="none" xmlns="http://www.w3.org/2000/svg">
<path fill-rule="evenodd" clip-rule="evenodd" d="M17.25 11.25C17.25 10.8358 17.5858 10.5 18 10.5H30C30.4142 10.5 30.75 10.8358 30.75 11.25C30.75 11.6642 30.4142 12 30 12H18C17.5858 12 17.25 11.6642 17.25 11.25ZM17.25 16C17.25 15.5858 17.5858 15.25 18 15.25H30C30.4142 15.25 30.75 15.5858 30.75 16C30.75 16.4142 30.4142 16.75 30 16.75H18C17.5858 16.75 17.25 16.4142 17.25 16ZM18 20C17.5858 20 17.25 20.3358 17.25 20.75C17.25 21.1642 17.5858 21.5 18 21.5H30C30.4142 21.5 30.75 21.1642 30.75 20.75C30.75 20.3358 30.4142 20 30 20H18Z" fill="black"/>
</svg>
