<svg width="48" height="32" viewBox="0 0 48 32" fill="none" xmlns="http://www.w3.org/2000/svg">
<path fill-rule="evenodd" clip-rule="evenodd" d="M17.75 11.25C17.75 10.8358 18.0858 10.5 18.5 10.5H29.5C29.9142 10.5 30.25 10.8358 30.25 11.25C30.25 11.6642 29.9142 12 29.5 12H18.5C18.0858 12 17.75 11.6642 17.75 11.25ZM18.5 14.25C18.0858 14.25 17.75 14.5858 17.75 15C17.75 15.4142 18.0858 15.75 18.5 15.75H29.5C29.9142 15.75 30.25 15.4142 30.25 15C30.25 14.5858 29.9142 14.25 29.5 14.25H18.5ZM18.5 18C18.0858 18 17.75 18.3358 17.75 18.75C17.75 19.1642 18.0858 19.5 18.5 19.5H22.75C23.1642 19.5 23.5 19.1642 23.5 18.75C23.5 18.3358 23.1642 18 22.75 18H18.5ZM29.5 21.116C30.1667 20.7311 30.1667 19.7689 29.5 19.384L26.5 17.6519C25.8333 17.267 25 17.7481 25 18.5179L25 21.9821C25 22.7519 25.8333 23.233 26.5 22.8481L29.5 21.116Z" fill="black"/>
</svg>
