<svg width="48" height="32" viewBox="0 0 48 32" fill="none" xmlns="http://www.w3.org/2000/svg">
<path fill-rule="evenodd" clip-rule="evenodd" d="M31 20.75C31 21.1642 30.6642 21.5 30.25 21.5H17.75C17.3358 21.5 17 21.1642 17 20.75C17 20.3358 17.3358 20 17.75 20H30.25C30.6642 20 31 20.3358 31 20.75ZM31 16C31 16.4142 30.6642 16.75 30.25 16.75H21.75C21.3358 16.75 21 16.4142 21 16C21 15.5858 21.3358 15.25 21.75 15.25H30.25C30.6642 15.25 31 15.5858 31 16ZM30.25 12C30.6642 12 31 11.6642 31 11.25C31 10.8358 30.6642 10.5 30.25 10.5H27.75C27.3358 10.5 27 10.8358 27 11.25C27 11.6642 27.3358 12 27.75 12H30.25Z" fill="black"/>
</svg>
