<svg width="48" height="32" viewBox="0 0 48 32" fill="none" xmlns="http://www.w3.org/2000/svg">
<path fill-rule="evenodd" clip-rule="evenodd" d="M18.2197 10.7197C18.3603 10.579 18.5511 10.5 18.75 10.5C18.9489 10.5 19.1397 10.579 19.2803 10.7197L21.2803 12.7197C21.5732 13.0126 21.5732 13.4874 21.2803 13.7803C20.9874 14.0732 20.5126 14.0732 20.2197 13.7803L19.5 13.0607L19.5 20.75C19.5 21.1642 19.1642 21.5 18.75 21.5C18.3358 21.5 18 21.1642 18 20.75L18 13.0607L17.2803 13.7803C16.9874 14.0732 16.5126 14.0732 16.2197 13.7803C15.9268 13.4874 15.9268 13.0126 16.2197 12.7197L18.2197 10.7197ZM23.75 12C23.3358 12 23 11.6642 23 11.25C23 10.8358 23.3358 10.5 23.75 10.5H31.25C31.6642 10.5 32 10.8358 32 11.25C32 11.6642 31.6642 12 31.25 12H23.75ZM23.75 15.25C23.3358 15.25 23 15.5858 23 16C23 16.4142 23.3358 16.75 23.75 16.75H29.25C29.6642 16.75 30 16.4142 30 16C30 15.5858 29.6642 15.25 29.25 15.25H23.75ZM23.75 20C23.3358 20 23 20.3358 23 20.75C23 21.1642 23.3358 21.5 23.75 21.5H26.25C26.6642 21.5 27 21.1642 27 20.75C27 20.3358 26.6642 20 26.25 20H23.75Z" fill="black"/>
</svg>
