<svg width="48" height="32" viewBox="0 0 48 32" fill="none" xmlns="http://www.w3.org/2000/svg">
<path fill-rule="evenodd" clip-rule="evenodd" d="M18.75 10.5C18.3358 10.5 18 10.8358 18 11.25C18 11.6642 18.3358 12 18.75 12H29.25C29.6642 12 30 11.6642 30 11.25C30 10.8358 29.6642 10.5 29.25 10.5H18.75ZM20 16C20 15.5858 20.3358 15.25 20.75 15.25H31.25C31.6642 15.25 32 15.5858 32 16C32 16.4142 31.6642 16.75 31.25 16.75H20.75C20.3358 16.75 20 16.4142 20 16ZM16 20.75C16 20.3358 16.3358 20 16.75 20H27.25C27.6642 20 28 20.3358 28 20.75C28 21.1642 27.6642 21.5 27.25 21.5H16.75C16.3358 21.5 16 21.1642 16 20.75Z" fill="black"/>
</svg>
