<svg width="48" height="32" viewBox="0 0 48 32" fill="none" xmlns="http://www.w3.org/2000/svg">
<path fill-rule="evenodd" clip-rule="evenodd" d="M17 11.25C17 10.8358 17.3358 10.5 17.75 10.5H30.25C30.6642 10.5 31 10.8358 31 11.25C31 11.6642 30.6642 12 30.25 12H17.75C17.3358 12 17 11.6642 17 11.25ZM19 16C19 15.5858 19.3358 15.25 19.75 15.25H28.25C28.6642 15.25 29 15.5858 29 16C29 16.4142 28.6642 16.75 28.25 16.75H19.75C19.3358 16.75 19 16.4142 19 16ZM22.75 20C22.3358 20 22 20.3358 22 20.75C22 21.1642 22.3358 21.5 22.75 21.5H25.25C25.6642 21.5 26 21.1642 26 20.75C26 20.3358 25.6642 20 25.25 20H22.75Z" fill="black"/>
</svg>
