<svg width="48" height="32" viewBox="0 0 48 32" fill="none" xmlns="http://www.w3.org/2000/svg">
<path fill-rule="evenodd" clip-rule="evenodd" d="M17 11.25C17 10.8358 17.3358 10.5 17.75 10.5H30.25C30.6642 10.5 31 10.8358 31 11.25C31 11.6642 30.6642 12 30.25 12H17.75C17.3358 12 17 11.6642 17 11.25ZM17 16C17 15.5858 17.3358 15.25 17.75 15.25H26.25C26.6642 15.25 27 15.5858 27 16C27 16.4142 26.6642 16.75 26.25 16.75H17.75C17.3358 16.75 17 16.4142 17 16ZM17.75 20C17.3358 20 17 20.3358 17 20.75C17 21.1642 17.3358 21.5 17.75 21.5H20.25C20.6642 21.5 21 21.1642 21 20.75C21 20.3358 20.6642 20 20.25 20H17.75Z" fill="black"/>
</svg>
