<svg width="48" height="32" viewBox="0 0 48 32" fill="none" xmlns="http://www.w3.org/2000/svg">
<path fill-rule="evenodd" clip-rule="evenodd" d="M18.2197 21.2803C18.3603 21.421 18.5511 21.5 18.75 21.5C18.9489 21.5 19.1397 21.421 19.2803 21.2803L21.2803 19.2803C21.5732 18.9874 21.5732 18.5126 21.2803 18.2197C20.9874 17.9268 20.5126 17.9268 20.2197 18.2197L19.5 18.9393L19.5 11.25C19.5 10.8358 19.1642 10.5 18.75 10.5C18.3358 10.5 18 10.8358 18 11.25L18 18.9393L17.2803 18.2197C16.9874 17.9268 16.5126 17.9268 16.2197 18.2197C15.9268 18.5126 15.9268 18.9874 16.2197 19.2803L18.2197 21.2803ZM23.75 20C23.3358 20 23 20.3358 23 20.75C23 21.1642 23.3358 21.5 23.75 21.5H31.25C31.6642 21.5 32 21.1642 32 20.75C32 20.3358 31.6642 20 31.25 20H23.75ZM23.75 16.75C23.3358 16.75 23 16.4142 23 16C23 15.5858 23.3358 15.25 23.75 15.25H29.25C29.6642 15.25 30 15.5858 30 16C30 16.4142 29.6642 16.75 29.25 16.75H23.75ZM23.75 12C23.3358 12 23 11.6642 23 11.25C23 10.8358 23.3358 10.5 23.75 10.5H26.25C26.6642 10.5 27 10.8358 27 11.25C27 11.6642 26.6642 12 26.25 12H23.75Z" fill="black"/>
</svg>
