<svg width="48" height="32" viewBox="0 0 48 32" fill="none" xmlns="http://www.w3.org/2000/svg">
<path fill-rule="evenodd" clip-rule="evenodd" d="M17 20.75C17 21.1642 17.3358 21.5 17.75 21.5H30.25C30.6642 21.5 31 21.1642 31 20.75C31 20.3358 30.6642 20 30.25 20H17.75C17.3358 20 17 20.3358 17 20.75ZM19 16C19 16.4142 19.3358 16.75 19.75 16.75H28.25C28.6642 16.75 29 16.4142 29 16C29 15.5858 28.6642 15.25 28.25 15.25H19.75C19.3358 15.25 19 15.5858 19 16ZM22.75 12C22.3358 12 22 11.6642 22 11.25C22 10.8358 22.3358 10.5 22.75 10.5H25.25C25.6642 10.5 26 10.8358 26 11.25C26 11.6642 25.6642 12 25.25 12H22.75Z" fill="black"/>
</svg>
