<svg width="48" height="32" viewBox="0 0 48 32" fill="none" xmlns="http://www.w3.org/2000/svg">
<path fill-rule="evenodd" clip-rule="evenodd" d="M19.7399 12.8005L17.9697 11.0303C17.6768 10.7374 17.6768 10.2626 17.9697 9.96967C18.2626 9.67678 18.7374 9.67678 19.0303 9.96967L30.0303 20.9697C30.3232 21.2626 30.3232 21.7374 30.0303 22.0303C29.7374 22.3232 29.2626 22.3232 28.9697 22.0303L28.0131 21.0738C27.3331 21.2281 26.6463 21.3427 25.9563 21.4176C25.7643 22.3218 24.9614 23.0001 24 23.0001C23.0386 23.0001 22.2357 22.3218 22.0437 21.4176C21.3321 21.3404 20.624 21.2209 19.9231 21.0592L19.1019 20.8697C18.1642 20.6533 17.5 19.8183 17.5 18.856C17.5 18.3079 17.7177 17.7823 18.1053 17.3947L18.2991 17.2009C18.7561 16.7439 19.0676 16.1618 19.1944 15.528L19.7399 12.8005ZM26.7362 19.7969C24.5887 20.1551 22.3883 20.0886 20.2604 19.5976L19.4392 19.4081C19.1821 19.3488 19 19.1198 19 18.856C19 18.7057 19.0597 18.5616 19.1659 18.4554L19.3597 18.2616C20.0262 17.5951 20.4804 16.7464 20.6653 15.8222L21.0146 14.0753L26.7362 19.7969ZM27.3347 15.8222C27.3626 15.9614 27.3965 16.0989 27.4364 16.2343L30.4606 19.2585C30.4865 19.1279 30.5 18.9932 30.5 18.856C30.5 18.3079 30.2823 17.7823 29.8947 17.3947L29.7009 17.2009C29.2439 16.7439 28.9324 16.1618 28.8056 15.528L28.1864 12.432C27.7873 10.4365 26.0351 9 24 9C22.9515 9 21.978 9.38132 21.226 10.024L22.2917 11.0897C22.7658 10.718 23.3614 10.5 24 10.5C25.3201 10.5 26.4566 11.4318 26.7155 12.7262L27.3347 15.8222Z" fill="black"/>
</svg>
