<svg width="48" height="32" viewBox="0 0 48 32" fill="none" xmlns="http://www.w3.org/2000/svg">
<path fill-rule="evenodd" clip-rule="evenodd" d="M20.6653 15.8222L21.2845 12.7262C21.5434 11.4318 22.6799 10.5 24 10.5C25.3201 10.5 26.4566 11.4318 26.7155 12.7262L27.3347 15.8222C27.5196 16.7464 27.9738 17.5951 28.6403 18.2616L28.8341 18.4554C28.9403 18.5616 29 18.7057 29 18.856C29 19.1198 28.8179 19.3488 28.5608 19.4081L27.7396 19.5976C25.2789 20.1655 22.7211 20.1655 20.2604 19.5976L19.4392 19.4081C19.1821 19.3488 19 19.1198 19 18.856C19 18.7057 19.0597 18.5616 19.1659 18.4554L19.3597 18.2616C20.0262 17.5951 20.4804 16.7464 20.6653 15.8222ZM19.1944 15.528L19.8136 12.432C20.2127 10.4365 21.9649 9 24 9C26.0351 9 27.7873 10.4365 28.1864 12.432L28.8056 15.528C28.9324 16.1618 29.2439 16.7439 29.7009 17.2009L29.8947 17.3947C30.2823 17.7823 30.5 18.3079 30.5 18.856C30.5 19.8183 29.8358 20.6533 28.8981 20.8697L28.0769 21.0592C27.376 21.2209 26.6679 21.3404 25.9563 21.4176C25.7643 22.3218 24.9614 23.0001 24 23.0001C23.0386 23.0001 22.2357 22.3218 22.0437 21.4176C21.3321 21.3404 20.624 21.2209 19.9231 21.0592L19.1019 20.8697C18.1642 20.6533 17.5 19.8183 17.5 18.856C17.5 18.3079 17.7177 17.7823 18.1053 17.3947L18.2991 17.2009C18.7561 16.7439 19.0676 16.1618 19.1944 15.528Z" fill="black"/>
</svg>
