<svg width="48" height="32" viewBox="0 0 48 32" fill="none" xmlns="http://www.w3.org/2000/svg">
<path fill-rule="evenodd" clip-rule="evenodd" d="M24 10.5C22.6799 10.5 21.5434 11.4318 21.2845 12.7262L20.6653 15.8222C20.4804 16.7464 20.0262 17.5951 19.3597 18.2616L19.1659 18.4554C19.0597 18.5616 19 18.7057 19 18.856C19 19.1198 19.1821 19.3488 19.4392 19.4081L20.2604 19.5976C22.7211 20.1655 25.2789 20.1655 27.7396 19.5976L28.5608 19.4081C28.8179 19.3488 29 19.1198 29 18.856C29 18.7057 28.9403 18.5616 28.8341 18.4554L28.6403 18.2616C27.9738 17.5951 27.5196 16.7464 27.3347 15.8222L27.2672 15.4846C27.186 15.0785 27.4494 14.6833 27.8556 14.6021C28.2617 14.5209 28.6569 14.7843 28.7381 15.1905L28.8056 15.528C28.9324 16.1618 29.2439 16.7439 29.7009 17.2009L29.8947 17.3947C30.2823 17.7823 30.5 18.3079 30.5 18.856C30.5 19.8183 29.8358 20.6533 28.8981 20.8697L28.0769 21.0592C27.376 21.2209 26.6679 21.3404 25.9563 21.4176C25.7643 22.3218 24.9614 23.0001 24 23.0001C23.0386 23.0001 22.2357 22.3218 22.0437 21.4176C21.3321 21.3404 20.624 21.2209 19.9231 21.0592L19.1019 20.8697C18.1642 20.6533 17.5 19.8183 17.5 18.856C17.5 18.3079 17.7177 17.7823 18.1053 17.3947L18.2991 17.2009C18.7561 16.7439 19.0676 16.1618 19.1944 15.528L19.8136 12.432C20.2127 10.4365 21.9649 9 24 9C24.4188 9 24.8265 9.06098 25.2131 9.17552C25.6102 9.29319 25.8368 9.71053 25.7191 10.1077C25.6014 10.5048 25.1841 10.7314 24.7869 10.6137C24.537 10.5397 24.2728 10.5 24 10.5Z" fill="black"/>
<path fill-rule="evenodd" clip-rule="evenodd" d="M28.5 13.5C29.6046 13.5 30.5 12.6046 30.5 11.5C30.5 10.3954 29.6046 9.5 28.5 9.5C27.3954 9.5 26.5 10.3954 26.5 11.5C26.5 12.6046 27.3954 13.5 28.5 13.5Z" fill="#FF3333"/>
</svg>
