<svg width="48" height="32" viewBox="0 0 48 32" fill="none" xmlns="http://www.w3.org/2000/svg">
<path fill-rule="evenodd" clip-rule="evenodd" d="M20.25 10.25C20.0511 10.25 19.8603 10.329 19.7197 10.4697C19.579 10.6103 19.5 10.8011 19.5 11V16V21C19.5 21.4142 19.8358 21.75 20.25 21.75H21H24.75H25.5C27.2949 21.75 28.75 20.2949 28.75 18.5C28.75 17.2369 28.0294 16.1421 26.9769 15.6042C27.4591 15.0372 27.75 14.3026 27.75 13.5C27.75 11.7051 26.2949 10.25 24.5 10.25H23.75H21H20.25ZM23.75 15.25C24.7165 15.25 25.5 14.4665 25.5 13.5C25.5 12.5335 24.7165 11.75 23.75 11.75H21.75L21.75 15.25H23.75ZM21.75 16.75L21.75 20.25H24.75C25.7165 20.25 26.5 19.4665 26.5 18.5C26.5 17.5335 25.7165 16.75 24.75 16.75H24.5H23.75H21.75Z" fill="black"/>
</svg>
