<svg width="48" height="32" viewBox="0 0 48 32" fill="none" xmlns="http://www.w3.org/2000/svg">
<path fill-rule="evenodd" clip-rule="evenodd" d="M19.5 19.937V21C19.5 21.2761 19.7239 21.5 20 21.5H27C27.8284 21.5 28.5 20.8284 28.5 20V19.5987C28.0587 19.8539 27.5464 20 27 20H20C19.8274 20 19.6598 19.9781 19.5 19.937ZM18 18V11C18 10.931 18.0035 10.8627 18.0103 10.7955C18.0411 10.493 18.1392 10.2103 18.2895 9.96293C18.3969 9.78628 18.5308 9.62757 18.6858 9.49237C18.9408 9.26989 19.2528 9.11106 19.5969 9.04063C19.7271 9.01399 19.8619 9 20 9H27C28.5533 9 29.8309 10.1805 29.9845 11.6933C29.9948 11.7941 30 11.8964 30 12V17V20C30 21.6569 28.6569 23 27 23H20C18.8954 23 18 22.1046 18 21V18ZM19.5 18.0005C19.5003 18.2764 19.724 18.5 20 18.5H27C27.8284 18.5 28.5 17.8284 28.5 17V12C28.5 11.8964 28.4895 11.7953 28.4695 11.6977C28.3297 11.0142 27.7249 10.5 27 10.5L20 10.5C19.8619 10.5 19.7369 10.556 19.6464 10.6464C19.5673 10.7256 19.5145 10.8312 19.5026 10.9489C19.5009 10.9657 19.5 10.9827 19.5 11V18C19.5 18.0002 19.5 18.0003 19.5 18.0005ZM21.5 13.25C21.5 12.8358 21.8358 12.5 22.25 12.5H25.75C26.1642 12.5 26.5 12.8358 26.5 13.25C26.5 13.6642 26.1642 14 25.75 14H22.25C21.8358 14 21.5 13.6642 21.5 13.25Z" fill="black"/>
</svg>
