<svg width="48" height="32" viewBox="0 0 48 32" fill="none" xmlns="http://www.w3.org/2000/svg">
<path fill-rule="evenodd" clip-rule="evenodd" d="M23.3453 10.6338C23.4353 10.6799 23.5244 10.7282 23.6127 10.7787L24 11L24.3873 10.7787C24.4756 10.7282 24.5647 10.6799 24.6547 10.6338C26.5465 9.66367 28.7942 9.64708 30.7065 10.6033C31.1928 10.8464 31.5 11.3434 31.5 11.8871V20.8254C31.5 21.4741 30.9741 22 30.3254 22H30.2845C30.0983 22 29.9157 21.9494 29.7561 21.8536C28.3509 21.0105 26.6124 20.9438 25.1468 21.6766L24.9472 21.7764C24.8828 21.8086 24.817 21.8374 24.75 21.8628C24.5109 21.9533 24.2568 22 24 22H23.8833C23.6654 22 23.45 21.9561 23.25 21.8714C23.2187 21.8581 23.1877 21.8439 23.1572 21.8286L22.9242 21.7121C21.4143 20.9572 19.6234 21.0259 18.1759 21.8945C18.0608 21.9635 17.9291 22 17.7949 22H17.6746C17.0259 22 16.5 21.4741 16.5 20.8254V11.8871C16.5 11.3434 16.8072 10.8464 17.2935 10.6033C19.2058 9.64708 21.4535 9.66367 23.3453 10.6338ZM24.75 20.2061V12.299L25.1316 12.081C26.6292 11.2252 28.4529 11.1684 30 11.9272V20.2839C28.35 19.4964 26.4315 19.4639 24.75 20.2061ZM23.25 20.2105V12.299L22.8684 12.081C21.3708 11.2252 19.5471 11.1684 18 11.9272V20.2919C19.6541 19.5218 21.5645 19.4885 23.25 20.2105Z" fill="black"/>
</svg>
