<svg width="48" height="56" viewBox="0 0 48 56" fill="none" xmlns="http://www.w3.org/2000/svg">
<path fill-rule="evenodd" clip-rule="evenodd" d="M24 17.5244L24.9762 18.3611L27.9636 20.9218C28.0225 20.9723 28.0975 21 28.1751 21C28.3545 21 28.5 20.8545 28.5 20.6751V12.5C28.5 11.6716 27.8284 11 27 11L21 11C20.1716 11 19.5 11.6716 19.5 12.5L19.5 20.6751C19.5 20.8545 19.6455 21 19.8249 21C19.9025 21 19.9775 20.9723 20.0364 20.9218L23.0238 18.3611L24 17.5244ZM30 12.5C30 10.8431 28.6569 9.5 27 9.5L21 9.5C19.3431 9.5 18 10.8431 18 12.5L18 20.6751C18 21.683 18.817 22.5 19.8249 22.5C20.2605 22.5 20.6818 22.3442 21.0126 22.0607L24 19.5L26.9874 22.0607C27.3182 22.3442 27.7395 22.5 28.1751 22.5C29.183 22.5 30 21.683 30 20.6751V12.5Z" fill="black"/>
<path d="M27 33.5C28.6569 33.5 30 34.8431 30 36.5V45.0462C30 45.8491 29.3491 46.5 28.5462 46.5C28.1941 46.5 27.8539 46.3722 27.5889 46.1403L24 43L20.4111 46.1403C20.1461 46.3722 19.8059 46.5 19.4538 46.5C18.6509 46.5 18 45.8491 18 45.0462L18 36.5C18 34.8431 19.3431 33.5 21 33.5L27 33.5Z" fill="black"/>
</svg>
