<svg width="48" height="32" viewBox="0 0 48 32" fill="none" xmlns="http://www.w3.org/2000/svg">
<path fill-rule="evenodd" clip-rule="evenodd" d="M29.5 18.421V13.475L27.5 14.1892V16.25C27.5 16.6642 27.1642 17 26.75 17C26.3358 17 26 16.6642 26 16.25V14.725L23.75 15.5285V21.6167L28.5267 19.8255C29.1121 19.6059 29.5 19.0462 29.5 18.421ZM27.2458 12.6872L28.8463 12.1156C28.7907 12.0776 28.7321 12.0431 28.6708 12.0124L25.4993 10.4267C25.1262 10.2401 24.6923 10.2174 24.3018 10.3638L23.3606 10.7168L27.0854 12.5792C27.1442 12.6085 27.1979 12.645 27.2458 12.6872ZM21.444 11.4355L25.3218 13.3744L23.0492 14.186L19.2439 12.2834C19.3163 12.2412 19.393 12.2046 19.4733 12.1745L21.444 11.4355ZM22.25 15.4635L18.5 13.5885V18.6459C18.5 19.214 18.821 19.7334 19.3292 19.9875L22.25 21.4479V15.4635ZM17 13.579C17 13.1432 17.0942 12.7233 17.2665 12.3427C17.2795 12.2822 17.3003 12.2224 17.3292 12.1646C17.3655 12.092 17.412 12.0278 17.4661 11.973C17.808 11.4336 18.3209 11.0047 18.9466 10.77L23.7751 8.95932C24.5562 8.66642 25.424 8.71196 26.1701 9.08503L29.3416 10.6708C30.358 11.179 31 12.2178 31 13.3541V18.421C31 19.6715 30.2243 20.7909 29.0534 21.23L24.2249 23.0406C23.4438 23.3336 22.576 23.288 21.8299 22.9149L18.6584 21.3292C17.642 20.821 17 19.7822 17 18.6459V13.579Z" fill="black"/>
</svg>
