<svg width="48" height="32" viewBox="0 0 48 32" fill="none" xmlns="http://www.w3.org/2000/svg">
<path fill-rule="evenodd" clip-rule="evenodd" d="M23.25 10H22.5C21.9477 10 21.5 10.4477 21.5 11V14C21.5 14.5523 21.9477 15 22.5 15H25.5C26.0523 15 26.5 14.5523 26.5 14V11C26.5 10.4477 26.0523 10 25.5 10H24.75V11.75C24.75 12.1642 24.4142 12.5 24 12.5C23.5858 12.5 23.25 12.1642 23.25 11.75V10ZM22.5 8.5C21.1193 8.5 20 9.61929 20 11V14C20 14.3556 20.0742 14.6938 20.208 15H19C17.6193 15 16.5 16.1193 16.5 17.5V20.5C16.5 21.8807 17.6193 23 19 23H22H22.25H25.75H26H29C30.3807 23 31.5 21.8807 31.5 20.5V17.5C31.5 16.1193 30.3807 15 29 15H27.792C27.9258 14.6938 28 14.3556 28 14V11C28 9.61929 26.8807 8.5 25.5 8.5H22.5ZM23.25 17.5C23.25 16.9477 22.8023 16.5 22.25 16.5H21.25V18.25C21.25 18.6642 20.9142 19 20.5 19C20.0858 19 19.75 18.6642 19.75 18.25V16.5H19C18.4477 16.5 18 16.9477 18 17.5V20.5C18 21.0523 18.4477 21.5 19 21.5H22.25C22.8023 21.5 23.25 21.0523 23.25 20.5V17.5ZM24.75 20.5C24.75 21.0523 25.1977 21.5 25.75 21.5H29C29.5523 21.5 30 21.0523 30 20.5V17.5C30 16.9477 29.5523 16.5 29 16.5H28.25V18.25C28.25 18.6642 27.9142 19 27.5 19C27.0858 19 26.75 18.6642 26.75 18.25V16.5H25.75C25.1977 16.5 24.75 16.9477 24.75 17.5V20.5Z" fill="black"/>
</svg>
