<svg width="48" height="32" viewBox="0 0 48 32" fill="none" xmlns="http://www.w3.org/2000/svg">
<path fill-rule="evenodd" clip-rule="evenodd" d="M28 10.75C28 11.1642 28.3358 11.5 28.75 11.5C29.1642 11.5 29.5 11.1642 29.5 10.75C29.5 10.3358 29.1642 10 28.75 10C28.3358 10 28 10.3358 28 10.75ZM26.628 11.5C26.9369 12.3739 27.7703 13 28.75 13C29.9926 13 31 11.9926 31 10.75C31 9.50736 29.9926 8.5 28.75 8.5C27.7703 8.5 26.9369 9.12611 26.628 10H26.25C24.5931 10 23.25 11.3431 23.25 13V15.25H21.372C21.0631 14.3761 20.2297 13.75 19.25 13.75C18.0074 13.75 17 14.7574 17 16C17 17.2426 18.0074 18.25 19.25 18.25C20.2297 18.25 21.0631 17.6239 21.372 16.75H23.25V19C23.25 20.6569 24.5931 22 26.25 22H26.628C26.9369 22.8739 27.7703 23.5 28.75 23.5C29.9926 23.5 31 22.4926 31 21.25C31 20.0074 29.9926 19 28.75 19C27.7703 19 26.9369 19.6261 26.628 20.5H26.25C25.4216 20.5 24.75 19.8284 24.75 19V16.75H26.628C26.9369 17.6239 27.7703 18.25 28.75 18.25C29.9926 18.25 31 17.2426 31 16C31 14.7574 29.9926 13.75 28.75 13.75C27.7703 13.75 26.9369 14.3761 26.628 15.25H24.75V13C24.75 12.1716 25.4216 11.5 26.25 11.5H26.628ZM28 21.25C28 21.6642 28.3358 22 28.75 22C29.1642 22 29.5 21.6642 29.5 21.25C29.5 20.8358 29.1642 20.5 28.75 20.5C28.3358 20.5 28 20.8358 28 21.25ZM28.75 16.75C28.3358 16.75 28 16.4142 28 16C28 15.5858 28.3358 15.25 28.75 15.25C29.1642 15.25 29.5 15.5858 29.5 16C29.5 16.4142 29.1642 16.75 28.75 16.75ZM18.5 16C18.5 16.4142 18.8358 16.75 19.25 16.75C19.6642 16.75 20 16.4142 20 16C20 15.5858 19.6642 15.25 19.25 15.25C18.8358 15.25 18.5 15.5858 18.5 16Z" fill="black"/>
</svg>
