<svg width="48" height="32" viewBox="0 0 48 32" fill="none" xmlns="http://www.w3.org/2000/svg">
<path fill-rule="evenodd" clip-rule="evenodd" d="M29.25 20C28.8358 20 28.5 20.3358 28.5 20.75C28.5 21.1642 28.8358 21.5 29.25 21.5C29.6642 21.5 30 21.1642 30 20.75C30 20.3358 29.6642 20 29.25 20ZM28.5 18.628C27.6261 18.9369 27 19.7703 27 20.75C27 21.9926 28.0074 23 29.25 23C30.4926 23 31.5 21.9926 31.5 20.75C31.5 19.7703 30.8739 18.9369 30 18.628L30 18.25C30 16.5931 28.6569 15.25 27 15.25L24.75 15.25L24.75 13.372C25.6239 13.0631 26.25 12.2297 26.25 11.25C26.25 10.0074 25.2426 9 24 9C22.7574 9 21.75 10.0074 21.75 11.25C21.75 12.2297 22.3761 13.0631 23.25 13.372L23.25 15.25L21 15.25C19.3431 15.25 18 16.5931 18 18.25L18 18.628C17.1261 18.9369 16.5 19.7703 16.5 20.75C16.5 21.9926 17.5074 23 18.75 23C19.9926 23 21 21.9926 21 20.75C21 19.7703 20.3739 18.9369 19.5 18.628L19.5 18.25C19.5 17.4216 20.1716 16.75 21 16.75L23.25 16.75L23.25 18.628C22.3761 18.9369 21.75 19.7703 21.75 20.75C21.75 21.9926 22.7574 23 24 23C25.2426 23 26.25 21.9926 26.25 20.75C26.25 19.7703 25.6239 18.9369 24.75 18.628L24.75 16.75L27 16.75C27.8284 16.75 28.5 17.4216 28.5 18.25L28.5 18.628ZM18.75 20C18.3358 20 18 20.3358 18 20.75C18 21.1642 18.3358 21.5 18.75 21.5C19.1642 21.5 19.5 21.1642 19.5 20.75C19.5 20.3358 19.1642 20 18.75 20ZM23.25 20.75C23.25 20.3358 23.5858 20 24 20C24.4142 20 24.75 20.3358 24.75 20.75C24.75 21.1642 24.4142 21.5 24 21.5C23.5858 21.5 23.25 21.1642 23.25 20.75ZM24 10.5C23.5858 10.5 23.25 10.8358 23.25 11.25C23.25 11.6642 23.5858 12 24 12C24.4142 12 24.75 11.6642 24.75 11.25C24.75 10.8358 24.4142 10.5 24 10.5Z" fill="black"/>
</svg>
