<svg width="48" height="32" viewBox="0 0 48 32" fill="none" xmlns="http://www.w3.org/2000/svg">
<path fill-rule="evenodd" clip-rule="evenodd" d="M25 10.5H23C22.7239 10.5 22.5 10.7239 22.5 11V12H25.5V11C25.5 10.7239 25.2761 10.5 25 10.5ZM21 11V12H20C18.3431 12 17 13.3431 17 15V19C17 20.6569 18.3431 22 20 22H28C29.6569 22 31 20.6569 31 19V15C31 13.3431 29.6569 12 28 12H27V11C27 9.89543 26.1046 9 25 9H23C21.8954 9 21 9.89543 21 11ZM25.5 13.5H27H28C28.8284 13.5 29.5 14.1716 29.5 15V19C29.5 19.8284 28.8284 20.5 28 20.5H20C19.1716 20.5 18.5 19.8284 18.5 19V15C18.5 14.1716 19.1716 13.5 20 13.5H21H22.5H25.5ZM20.75 15C20.3358 15 20 15.3358 20 15.75C20 16.1642 20.3358 16.5 20.75 16.5H27.25C27.6642 16.5 28 16.1642 28 15.75C28 15.3358 27.6642 15 27.25 15H20.75Z" fill="black"/>
</svg>
