<svg width="48" height="32" viewBox="0 0 48 32" fill="none" xmlns="http://www.w3.org/2000/svg">
<path fill-rule="evenodd" clip-rule="evenodd" d="M28.4421 21.0334C28.1636 21.3399 28.1232 21.8104 28.3927 22.1248C28.6624 22.4394 29.1392 22.4781 29.4253 22.1784C30.7107 20.8322 31.5 19.0083 31.5 17C31.5 12.8579 28.1421 9.5 24 9.5C19.8579 9.5 16.5 12.8579 16.5 17C16.5 19.0083 17.2893 20.8322 18.5747 22.1784C18.8608 22.4781 19.3376 22.4394 19.6073 22.1248C19.8768 21.8104 19.8364 21.3399 19.5579 21.0334C18.5899 19.968 18 18.5529 18 17C18 13.6863 20.6863 11 24 11C27.3137 11 30 13.6863 30 17C30 18.5529 29.4101 19.968 28.4421 21.0334ZM27.4551 19.8833C27.1895 20.2013 26.7099 20.1616 26.4403 19.847C26.1708 19.5326 26.2169 19.063 26.4552 18.7244C26.7985 18.2365 27 17.6418 27 17C27 15.3431 25.6569 14 24 14C22.3431 14 21 15.3431 21 17C21 17.6418 21.2015 18.2365 21.5448 18.7244C21.7831 19.063 21.8292 19.5326 21.5597 19.847C21.2901 20.1616 20.8105 20.2013 20.5449 19.8833C19.8926 19.1024 19.5 18.097 19.5 17C19.5 14.5147 21.5147 12.5 24 12.5C26.4853 12.5 28.5 14.5147 28.5 17C28.5 18.097 28.1074 19.1024 27.4551 19.8833ZM24 18.5C24.8284 18.5 25.5 17.8284 25.5 17C25.5 16.1716 24.8284 15.5 24 15.5C23.1716 15.5 22.5 16.1716 22.5 17C22.5 17.8284 23.1716 18.5 24 18.5Z" fill="black"/>
</svg>
