<svg width="48" height="32" viewBox="0 0 48 32" fill="none" xmlns="http://www.w3.org/2000/svg">
<g clip-path="url(#clip0_74_3029)">
<path fill-rule="evenodd" clip-rule="evenodd" d="M27.9954 8.66724C27.9497 8.25556 27.5789 7.95891 27.1672 8.00465C26.7555 8.0504 26.4588 8.42121 26.5046 8.83289L27.1898 15.0001H26.3225C24.6834 15.0001 23.4274 16.4485 23.1263 18.0597C22.8658 19.4542 22.3719 20.64 21.9256 21.5001C21.4339 22.4478 21 23.0001 21 23.0001H22.8034H29.5C29.5 23.0001 31.5808 21.266 31.9877 17.5091C32.1408 16.0951 30.911 15.0001 29.4887 15.0001H28.6991L27.9954 8.66724ZM19.75 10.5001C19.3358 10.5001 19 10.8359 19 11.2501C19 11.6643 19.3358 12.0001 19.75 12.0001H24.25C24.6642 12.0001 25 11.6643 25 11.2501C25 10.8359 24.6642 10.5001 24.25 10.5001H19.75ZM16.75 14.0001C16.3358 14.0001 16 14.3359 16 14.7501C16 15.1643 16.3358 15.5001 16.75 15.5001H22.25C22.6642 15.5001 23 15.1643 23 14.7501C23 14.3359 22.6642 14.0001 22.25 14.0001H16.75ZM17 18.2501C17 17.8359 17.3358 17.5001 17.75 17.5001H20.25C20.6642 17.5001 21 17.8359 21 18.2501C21 18.6643 20.6642 19.0001 20.25 19.0001H17.75C17.3358 19.0001 17 18.6643 17 18.2501ZM23.5928 21.5001C23.9861 20.6339 24.3721 19.5594 24.6008 18.3352C24.819 17.1675 25.6463 16.5001 26.3225 16.5001H29.4887C29.8213 16.5001 30.1075 16.6299 30.2865 16.8029C30.4522 16.9631 30.5184 17.1444 30.4964 17.3476C30.3207 18.9702 29.7883 20.1267 29.3235 20.8618C29.1548 21.1285 28.9943 21.3408 28.8618 21.5001H27.8634C28.4017 20.7943 28.75 19.7722 28.75 18.7501H28C27.6489 19.9788 26.9282 20.8378 25.8376 21.5001H23.5928Z" fill="black"/>
</g>
<defs>
<clipPath id="clip0_74_3029">
<rect width="16" height="16" fill="white" transform="translate(16 8)"/>
</clipPath>
</defs>
</svg>
