<svg width="48" height="32" viewBox="0 0 48 32" fill="none" xmlns="http://www.w3.org/2000/svg">
<path fill-rule="evenodd" clip-rule="evenodd" d="M27.773 15.412C27.7087 15.4763 27.5026 15.6607 26.7559 15.3849C26.0062 15.108 25.0504 14.4572 24.0607 13.4674C23.0709 12.4777 22.4201 11.5218 22.1432 10.7722C21.8674 10.0255 22.0518 9.8194 22.1161 9.75511C22.1804 9.69082 22.3865 9.50636 23.1332 9.7822C23.2269 9.81682 23.3238 9.85727 23.4236 9.9035C24.1223 10.2271 24.9624 10.8336 25.8284 11.6997C26.8182 12.6894 27.469 13.6452 27.7459 14.3949C28.0217 15.1416 27.8373 15.3477 27.773 15.412ZM23 14.5281C23.8501 15.3782 24.738 16.063 25.581 16.4999H17.6943L17.6941 16.4726C17.6941 16.2693 17.7346 16.1192 17.7658 16.0332C17.7778 16.0004 17.7881 15.9777 17.7937 15.9662L20.5956 11.636C20.652 11.5488 20.7096 11.4624 20.7683 11.3768C21.1605 12.382 21.9555 13.4836 23 14.5281ZM26.8891 10.639C29.037 12.7869 30.13 15.1763 28.8336 16.4726C28.1873 17.119 27.4744 17.6953 26.7069 18.1919L22.3518 21.0099C22.3518 21.0099 20.4073 22.3063 17.8145 19.7135C15.2218 17.1208 16.5182 15.1763 16.5182 15.1763L19.3362 10.8211C19.8328 10.0537 20.4091 9.34083 21.0555 8.69445C22.3518 7.39809 24.7412 8.49111 26.8891 10.639ZM28.75 22.9999C29.7165 22.9999 30.5 22.2341 30.5 21.2895C30.5 20.0554 29.3294 18.5292 28.9881 18.1105C28.9298 18.039 28.8428 17.9999 28.7505 17.9999C28.6576 17.9999 28.5701 18.0395 28.5117 18.1117C28.1703 18.5344 27 20.0721 27 21.2895C27 22.2341 27.7835 22.9999 28.75 22.9999Z" fill="black"/>
</svg>
