<svg width="48" height="32" viewBox="0 0 48 32" fill="none" xmlns="http://www.w3.org/2000/svg">
<path fill-rule="evenodd" clip-rule="evenodd" d="M27.6152 12.8875C28.4288 12.5129 28.5 12.1743 28.5 12C28.5 11.8257 28.4288 11.4871 27.6152 11.1125C26.7988 10.7365 25.5378 10.5 24 10.5C22.4622 10.5 21.2012 10.7365 20.3848 11.1125C19.5712 11.4871 19.5 11.8257 19.5 12C19.5 12.1743 19.5712 12.5129 20.3848 12.8875C21.2012 13.2635 22.4622 13.5 24 13.5C25.5378 13.5 26.7988 13.2635 27.6152 12.8875ZM24 15C25.6881 15 27.2133 14.7405 28.3036 14.2215C28.2779 14.3655 28.2497 14.5092 28.219 14.6524L27.0385 20.1615C27.0337 20.1762 27.0219 20.2097 27.0001 20.2563C26.9523 20.3587 26.8591 20.5196 26.6893 20.6893C26.3835 20.9952 25.6591 21.5 24 21.5C22.3409 21.5 21.6165 20.9952 21.3107 20.6893C21.1409 20.5196 21.0477 20.3587 20.9999 20.2563C20.9782 20.2097 20.9663 20.1762 20.9615 20.1615L20.9401 20.0617C21.0487 20.0437 21.1585 20.0226 21.2694 19.9984C22.7879 19.6667 24.5544 18.7453 26.4912 17.0668C26.8042 16.7955 26.8381 16.3218 26.5668 16.0088C26.2955 15.6958 25.8218 15.662 25.5088 15.9332C23.6956 17.5047 22.1497 18.2708 20.9494 18.5329C20.8381 18.5572 20.7301 18.5772 20.6254 18.593L19.781 14.6524C19.7503 14.5092 19.7221 14.3655 19.6964 14.2215C20.7867 14.7405 22.3119 15 24 15ZM19.0706 18.496L18.3733 15.2418C18.094 15.6678 17.9388 16.0879 17.8826 16.4688C17.7762 17.1898 18.0131 17.7917 18.4749 18.1695C18.6333 18.2991 18.8313 18.4127 19.0706 18.496ZM18.0612 13.3145C18.0204 12.8778 18 12.4392 18 12C18 10 20.6863 9 24 9C27.3137 9 30 10 30 12C30 12.9972 29.8947 13.9916 29.6857 14.9667L28.5 20.5C28.5 20.5 28 23 24 23C20 23 19.5 20.5 19.5 20.5L19.4155 20.1057C18.6799 20.0146 18.0379 19.75 17.5251 19.3305C16.6119 18.5833 16.2238 17.4352 16.3987 16.2499C16.5491 15.2306 17.1073 14.2012 18.0612 13.3145Z" fill="black"/>
</svg>
