<svg width="48" height="32" viewBox="0 0 48 32" fill="none" xmlns="http://www.w3.org/2000/svg">
<g clip-path="url(#clip0_74_784)">
<path fill-rule="evenodd" clip-rule="evenodd" d="M21.8648 8.03108C22.2649 7.92387 22.6762 8.16131 22.7834 8.56141L23.3142 10.5423C23.5389 10.5144 23.7678 10.5 24 10.5C24.5926 10.5 25.1632 10.5937 25.698 10.7671C26.1528 10.2942 26.792 10 27.5 10C28.8807 10 30 11.1193 30 12.5C30 13.2079 29.7057 13.8471 29.2329 14.3019C29.4063 14.8367 29.5 15.4074 29.5 16C29.5 16.2323 29.4856 16.4612 29.4577 16.686L31.4385 17.2167C31.8386 17.3239 32.076 17.7352 31.9688 18.1353C31.8616 18.5354 31.4504 18.7728 31.0503 18.6656L29.0702 18.1351C28.8907 18.5609 28.6591 18.9594 28.3834 19.3226L29.8337 20.7729C30.1266 21.0658 30.1266 21.5407 29.8337 21.8336C29.5408 22.1265 29.0659 22.1265 28.773 21.8336L27.3227 20.3833C26.9595 20.659 26.561 20.8907 26.1351 21.0702L26.6657 23.0503C26.7729 23.4504 26.5354 23.8616 26.1353 23.9689C25.7352 24.0761 25.324 23.8386 25.2168 23.4385L24.686 21.4576C24.4613 21.4856 24.2323 21.5 24 21.5C20.9625 21.5 18.5 19.0376 18.5 16C18.5 15.7677 18.5144 15.5388 18.5424 15.3141L16.5614 14.7833C16.1613 14.6761 15.9238 14.2649 16.0311 13.8648C16.1383 13.4647 16.5495 13.2272 16.9496 13.3344L18.9298 13.865C19.1093 13.4391 19.341 13.0405 19.6168 12.6773L18.1664 11.227C17.8736 10.9341 17.8736 10.4592 18.1664 10.1663C18.4593 9.87344 18.9342 9.87344 19.2271 10.1663L20.6774 11.6167C21.0406 11.3409 21.4392 11.1093 21.8651 10.9297L21.3345 8.94964C21.2273 8.54954 21.4647 8.13829 21.8648 8.03108ZM24 20C26.2092 20 28 18.2091 28 16C28 13.7909 26.2092 12 24 12C21.7909 12 20 13.7909 20 16C20 16.8335 20.255 17.6075 20.6911 18.2482L24.4194 14.5199C24.7123 14.227 25.1872 14.227 25.4801 14.5199C25.773 14.8128 25.773 15.2877 25.4801 15.5806L21.7518 19.3089C22.3925 19.745 23.1665 20 24 20Z" fill="black"/>
</g>
<defs>
<clipPath id="clip0_74_784">
<rect width="16" height="16" fill="white" transform="translate(16 8)"/>
</clipPath>
</defs>
</svg>
