<svg width="48" height="32" viewBox="0 0 48 32" fill="none" xmlns="http://www.w3.org/2000/svg">
<path fill-rule="evenodd" clip-rule="evenodd" d="M22.2593 23.1087C23.3589 23.6401 24.6411 23.6401 25.7407 23.1087L25.8703 23.046C26.5611 22.7121 27 22.0125 27 21.2453V20.7776C27 19.4257 27.7758 18.2206 28.54 17.1055C29.1457 16.2218 29.5 15.1523 29.5 14C29.5 10.9624 27.0376 8.5 24 8.5C20.9624 8.5 18.5 10.9624 18.5 14C18.5 15.1523 18.8543 16.2218 19.46 17.1055C20.2243 18.2206 21 19.4257 21 20.7776V21.2453C21 22.0125 21.4389 22.7121 22.1297 23.046L22.2593 23.1087ZM25.0879 21.7581L25.2176 21.6955C25.3903 21.612 25.5 21.4371 25.5 21.2453V20.7776C25.5 20.6082 25.5087 20.4414 25.525 20.2771C24.533 20.5743 23.467 20.5743 22.475 20.2771C22.4913 20.4414 22.5 20.6082 22.5 20.7776V21.2453C22.5 21.4371 22.6097 21.612 22.7824 21.6955L22.9121 21.7582C23.5993 22.0903 24.4007 22.0903 25.0879 21.7581ZM20.6973 16.2575C21.0921 16.8336 21.589 17.5604 21.9611 18.4055C23.189 19.1982 24.811 19.1982 26.0389 18.4055C26.411 17.5604 26.9079 16.8336 27.3027 16.2575C27.7427 15.6155 28 14.8401 28 14C28 11.7909 26.2091 10 24 10C21.7909 10 20 11.7909 20 14C20 14.8401 20.2573 15.6155 20.6973 16.2575Z" fill="black"/>
<path d="M24 11.5C23.5858 11.5 23.25 11.8358 23.25 12.25C23.25 12.6642 23.5858 13 24 13C24.5523 13 25 13.4477 25 14C25 14.4142 25.3358 14.75 25.75 14.75C26.1642 14.75 26.5 14.4142 26.5 14C26.5 12.6193 25.3807 11.5 24 11.5Z" fill="black"/>
</svg>
