<svg width="48" height="32" viewBox="0 0 48 32" fill="none" xmlns="http://www.w3.org/2000/svg">
<path fill-rule="evenodd" clip-rule="evenodd" d="M19.5 20L19.5 12C19.5 11.1716 20.1716 10.5 21 10.5L27 10.5C27.8284 10.5 28.5 11.1716 28.5 12L28.5 20C28.5 20.8284 27.8284 21.5 27 21.5L21 21.5C20.1716 21.5 19.5 20.8284 19.5 20ZM21 23C19.3431 23 18 21.6569 18 20L18 12C18 10.3431 19.3431 9 21 9L27 9C28.6569 9 30 10.3431 30 12L30 20C30 21.6569 28.6569 23 27 23L21 23ZM21.5 12C20.9477 12 20.5 12.4477 20.5 13C20.5 13.5523 20.9477 14 21.5 14L26.5 14C27.0523 14 27.5 13.5523 27.5 13C27.5 12.4477 27.0523 12 26.5 12L21.5 12ZM22.5 19C22.5 19.5523 22.0523 20 21.5 20C20.9477 20 20.5 19.5523 20.5 19C20.5 18.4477 20.9477 18 21.5 18C22.0523 18 22.5 18.4477 22.5 19ZM24 20C24.5523 20 25 19.5523 25 19C25 18.4477 24.5523 18 24 18C23.4477 18 23 18.4477 23 19C23 19.5523 23.4477 20 24 20ZM27.5 19C27.5 19.5523 27.0523 20 26.5 20C25.9477 20 25.5 19.5523 25.5 19C25.5 18.4477 25.9477 18 26.5 18C27.0523 18 27.5 18.4477 27.5 19ZM21.5 17C22.0523 17 22.5 16.5523 22.5 16C22.5 15.4477 22.0523 15 21.5 15C20.9477 15 20.5 15.4477 20.5 16C20.5 16.5523 20.9477 17 21.5 17ZM25 16C25 16.5523 24.5523 17 24 17C23.4477 17 23 16.5523 23 16C23 15.4477 23.4477 15 24 15C24.5523 15 25 15.4477 25 16ZM26.5 17C27.0523 17 27.5 16.5523 27.5 16C27.5 15.4477 27.0523 15 26.5 15C25.9477 15 25.5 15.4477 25.5 16C25.5 16.5523 25.9477 17 26.5 17Z" fill="black"/>
</svg>
