<svg width="48" height="32" viewBox="0 0 48 32" fill="none" xmlns="http://www.w3.org/2000/svg">
<path fill-rule="evenodd" clip-rule="evenodd" d="M21.25 13.4967C20.8358 13.4967 20.5 13.161 20.5 12.7467V12C19.6716 12 19 12.6716 19 13.5V14.5H29V13.5C29 12.6716 28.3284 12 27.5 12V12.75C27.5 13.1642 27.1642 13.5 26.75 13.5C26.3358 13.5 26 13.1642 26 12.75V12H22V12.7467C22 13.161 21.6642 13.4967 21.25 13.4967ZM26 10.5H22V9.74756C22 9.33334 21.6642 8.99756 21.25 8.99756C20.8358 8.99756 20.5 9.33334 20.5 9.74756V10.5C18.8431 10.5 17.5 11.8432 17.5 13.5V19.5C17.5 21.1569 18.8431 22.5 20.5 22.5H27.5C29.1569 22.5 30.5 21.1569 30.5 19.5V13.5C30.5 11.8432 29.1569 10.5 27.5 10.5V9.75001C27.5 9.3358 27.1642 9.00001 26.75 9.00001C26.3358 9.00001 26 9.3358 26 9.75001V10.5ZM19 16V19.5C19 20.3284 19.6716 21 20.5 21H27.5C28.3284 21 29 20.3284 29 19.5V16H19Z" fill="black"/>
</svg>
