<svg width="48" height="32" viewBox="0 0 48 32" fill="none" xmlns="http://www.w3.org/2000/svg">
<path fill-rule="evenodd" clip-rule="evenodd" d="M20.2727 13H21.3234L21.6824 12.0126L21.931 11.3291C22.0028 11.1315 22.1906 11 22.4009 11H25.5991C25.8094 11 25.9972 11.1315 26.069 11.3291L26.3176 12.0126L26.6766 13H27.7273H28C28.8284 13 29.5 13.6716 29.5 14.5V19C29.5 19.8284 28.8284 20.5 28 20.5H20C19.1716 20.5 18.5 19.8284 18.5 19V14.5C18.5 13.6716 19.1716 13 20 13H20.2727ZM22.4009 9.5C21.5598 9.5 20.8087 10.0261 20.5213 10.8165L20.2727 11.5H20C18.3431 11.5 17 12.8431 17 14.5V19C17 20.6569 18.3431 22 20 22H28C29.6569 22 31 20.6569 31 19V14.5C31 12.8431 29.6569 11.5 28 11.5H27.7273L27.4787 10.8165C27.1913 10.0261 26.4402 9.5 25.5991 9.5H22.4009ZM25.5 16.5C25.5 17.3284 24.8284 18 24 18C23.1716 18 22.5 17.3284 22.5 16.5C22.5 15.6716 23.1716 15 24 15C24.8284 15 25.5 15.6716 25.5 16.5ZM27 16.5C27 18.1569 25.6569 19.5 24 19.5C22.3431 19.5 21 18.1569 21 16.5C21 14.8431 22.3431 13.5 24 13.5C25.6569 13.5 27 14.8431 27 16.5Z" fill="black"/>
</svg>
