<svg width="48" height="32" viewBox="0 0 48 32" fill="none" xmlns="http://www.w3.org/2000/svg">
<path fill-rule="evenodd" clip-rule="evenodd" d="M21.5 19H20.4189L20.077 20.0257L19.9189 20.5H18V17.5203C18.4956 17.6488 19.2132 17.75 20.25 17.75C20.6642 17.75 21 17.4142 21 17C21 16.5858 20.6642 16.25 20.25 16.25C19.1771 16.25 18.5678 16.1304 18.2518 16.0331C18.1591 16.0046 18.0929 15.9784 18.0483 15.9583C18.1252 15.6316 18.2917 15.3296 18.5329 15.0884C18.6067 15.0146 18.678 14.9385 18.7467 14.8603C20.2724 15.2927 22.1513 15.5 24 15.5C25.8487 15.5 27.7276 15.2927 29.2533 14.8603C29.322 14.9385 29.3933 15.0146 29.4671 15.0884C29.7083 15.3296 29.8748 15.6316 29.9517 15.9583C29.9071 15.9784 29.8409 16.0046 29.7482 16.0331C29.4322 16.1304 28.8229 16.25 27.75 16.25C27.3358 16.25 27 16.5858 27 17C27 17.4142 27.3358 17.75 27.75 17.75C28.7868 17.75 29.5044 17.6488 30 17.5203V20.5H28.0811L27.923 20.0257L27.5811 19H26.5H21.5ZM28.4235 13.5276C27.1441 13.8382 25.5843 14 24 14C22.4157 14 20.8559 13.8382 19.5765 13.5276C19.6074 13.4531 19.6365 13.3777 19.6637 13.3016L20.1123 12.0453C20.2928 11.5399 20.6813 11.2393 21.0727 11.1825C22.9789 10.9059 25.0212 10.9059 26.9273 11.1825C27.3187 11.2393 27.7072 11.5399 27.8877 12.0453L28.3363 13.3016C28.3635 13.3777 28.3926 13.4531 28.4235 13.5276ZM26.7721 21.3162L26.5 20.5H21.5L21.2279 21.3162C21.0918 21.7246 20.7097 22 20.2792 22H17.5C16.9477 22 16.5 21.5523 16.5 21V16.3749C16.5 15.4946 16.8497 14.6503 17.4722 14.0278C17.6335 13.8665 17.7772 13.6896 17.9014 13.5H17.25C16.8358 13.5 16.5 13.1642 16.5 12.75C16.5 12.3358 16.8358 12 17.25 12H18.5357L18.6997 11.5408C19.0427 10.5803 19.8481 9.84446 20.8573 9.69801C22.9063 9.40068 25.0937 9.40067 27.1427 9.698C28.1519 9.84446 28.9573 10.5803 29.3003 11.5407L29.4643 12H30.75C31.1642 12 31.5 12.3358 31.5 12.75C31.5 13.1642 31.1642 13.5 30.75 13.5H30.0986C30.2228 13.6896 30.3665 13.8665 30.5278 14.0278C31.1503 14.6503 31.5 15.4946 31.5 16.3749V21C31.5 21.5523 31.0523 22 30.5 22H27.7208C27.2903 22 26.9082 21.7246 26.7721 21.3162Z" fill="black"/>
</svg>
