<svg width="48" height="32" viewBox="0 0 48 32" fill="none" xmlns="http://www.w3.org/2000/svg">
<path fill-rule="evenodd" clip-rule="evenodd" d="M28.5 12L28.5 20C28.5 20.8284 27.8284 21.5 27 21.5L21 21.5C20.1716 21.5 19.5 20.8284 19.5 20L19.5 12C19.5 11.1716 20.1716 10.5 21 10.5L27 10.5C27.8284 10.5 28.5 11.1716 28.5 12ZM27 9C28.6569 9 30 10.3431 30 12L30 20C30 21.6569 28.6569 23 27 23L21 23C19.3431 23 18 21.6569 18 20L18 12C18 10.3431 19.3431 9 21 9L27 9ZM25.5 14C25.5 14.1762 25.4696 14.3454 25.4138 14.5024C25.4423 14.5008 25.4711 14.5 25.5 14.5C26.3284 14.5 27 15.1716 27 16C27 16.8284 26.3284 17.5 25.5 17.5C24.992 17.5 24.543 17.2475 24.2717 16.8612C24.3521 17.5285 24.6537 18.1537 25.1339 18.6339L25.5 19L25.5 19.5L22.5 19.5L22.5 19L22.8661 18.6339C23.3463 18.1537 23.6479 17.5285 23.7283 16.8612C23.457 17.2475 23.008 17.5 22.5 17.5C21.6716 17.5 21 16.8284 21 16C21 15.1716 21.6716 14.5 22.5 14.5C22.5289 14.5 22.5577 14.5008 22.5862 14.5024C22.5304 14.3454 22.5 14.1762 22.5 14C22.5 13.1716 23.1716 12.5 24 12.5C24.8284 12.5 25.5 13.1716 25.5 14Z" fill="black"/>
</svg>
