<svg width="48" height="32" viewBox="0 0 48 32" fill="none" xmlns="http://www.w3.org/2000/svg">
<path fill-rule="evenodd" clip-rule="evenodd" d="M28.5 12L28.5 20C28.5 20.8284 27.8284 21.5 27 21.5L21 21.5C20.1716 21.5 19.5 20.8284 19.5 20L19.5 12C19.5 11.1716 20.1716 10.5 21 10.5L27 10.5C27.8284 10.5 28.5 11.1716 28.5 12ZM27 9C28.6569 9 30 10.3431 30 12L30 20C30 21.6569 28.6569 23 27 23L21 23C19.3431 23 18 21.6569 18 20L18 12C18 10.3431 19.3431 9 21 9L27 9ZM20.75 15.3326C20.75 14.1853 21.4841 13.2495 22.596 13.2495C23.209 13.2495 23.8494 13.8444 24 14.75C24.1493 13.8348 24.791 13.2495 25.404 13.2495C26.5158 13.2495 27.25 14.1853 27.25 15.3326C27.25 17.2281 25.5591 18.4339 24.1493 19.2107C24.0552 19.2626 23.9433 19.2623 23.8494 19.21C22.4384 18.4242 20.75 17.2368 20.75 15.3326Z" fill="black"/>
</svg>
