<svg width="48" height="32" viewBox="0 0 48 32" fill="none" xmlns="http://www.w3.org/2000/svg">
<path fill-rule="evenodd" clip-rule="evenodd" d="M28.5 12L28.5 20C28.5 20.8284 27.8284 21.5 27 21.5L21 21.5C20.1716 21.5 19.5 20.8284 19.5 20L19.5 12C19.5 11.1716 20.1716 10.5 21 10.5L27 10.5C27.8284 10.5 28.5 11.1716 28.5 12ZM27 9C28.6569 9 30 10.3431 30 12L30 20C30 21.6569 28.6569 23 27 23L21 23C19.3431 23 18 21.6569 18 20L18 12C18 10.3431 19.3431 9 21 9L27 9ZM21 16.25L21 15.75C22.4139 14.9645 23.4328 13.586 23.75 12L24.25 12C24.5672 13.586 25.5861 14.9645 27 15.75L27 16.25C25.5861 17.0355 24.5672 18.414 24.25 20L23.75 20C23.4328 18.414 22.4139 17.0355 21 16.25Z" fill="black"/>
</svg>
