<svg width="48" height="32" viewBox="0 0 48 32" fill="none" xmlns="http://www.w3.org/2000/svg">
<path fill-rule="evenodd" clip-rule="evenodd" d="M28.5 12L28.5 20C28.5 20.8284 27.8284 21.5 27 21.5L21 21.5C20.1716 21.5 19.5 20.8284 19.5 20L19.5 12C19.5 11.1716 20.1716 10.5 21 10.5L27 10.5C27.8284 10.5 28.5 11.1716 28.5 12ZM27 9C28.6569 9 30 10.3431 30 12L30 20C30 21.6569 28.6569 23 27 23L21 23C19.3431 23 18 21.6569 18 20L18 12C18 10.3431 19.3431 9 21 9L27 9ZM25.296 17.5C26.2788 17.5 27 16.8026 27 15.8552C27 14.5469 25.6203 13.6088 24.5365 12.8719C24.3454 12.742 24.1635 12.6183 24 12.5C23.8382 12.6171 23.6584 12.7396 23.4694 12.8683L23.4694 12.8683C22.3847 13.6072 21 14.5504 21 15.8552C21 16.8026 21.7212 17.5 22.704 17.5C23.0915 17.5 23.4204 17.3762 23.6781 17.1551C23.5545 17.7108 23.275 18.225 22.8661 18.6339L22.5 19L22.5 19.5L25.5 19.5L25.5 19L25.1339 18.6339C24.725 18.225 24.4455 17.7108 24.3219 17.1551C24.5796 17.3762 24.9085 17.5 25.296 17.5Z" fill="black"/>
</svg>
