<svg width="48" height="32" viewBox="0 0 48 32" fill="none" xmlns="http://www.w3.org/2000/svg">
<path fill-rule="evenodd" clip-rule="evenodd" d="M28 14.2731C28 14.097 27.9361 13.927 27.8202 13.7945L24.7988 10.3415C24.6089 10.1245 24.3346 10 24.0462 10H23.9538C23.6654 10 23.3911 10.1245 23.2012 10.3415L20.1798 13.7945C20.0639 13.927 20 14.097 20 14.2731C20 14.6746 20.3254 15 20.7269 15L27.2731 15C27.6746 15 28 14.6746 28 14.2731ZM20 17.7269C20 17.903 20.0639 18.073 20.1798 18.2055L23.2012 21.6585C23.3911 21.8755 23.6654 22 23.9538 22H24.0462C24.3346 22 24.6089 21.8755 24.7988 21.6585L27.8202 18.2055C27.9361 18.073 28 17.903 28 17.7269C28 17.3254 27.6746 17 27.2731 17H20.7269C20.3254 17 20 17.3254 20 17.7269Z" fill="black"/>
</svg>
