<svg width="48" height="32" viewBox="0 0 48 32" fill="none" xmlns="http://www.w3.org/2000/svg">
<g clip-path="url(#clip0_74_4143)">
<path fill-rule="evenodd" clip-rule="evenodd" d="M29.5 20.5H18.5001C18.2239 20.5 18.0001 20.2761 18.0001 20V18.3886L20.8115 16.404C21.2337 16.106 21.7958 16.0985 22.2257 16.3852L23.9788 17.5539C25.2104 18.375 26.871 18.0739 27.7359 16.8726L30 13.728V20C30 20.2761 29.7761 20.5 29.5 20.5ZM29.7194 11.5506L26.5186 15.9961C26.1255 16.5422 25.3707 16.679 24.8108 16.3058L23.0578 15.1371C22.1118 14.5065 20.8753 14.523 19.9465 15.1786L18.0001 16.5526V12C18.0001 11.7239 18.2239 11.5 18.5001 11.5H29.5C29.5787 11.5 29.6532 11.5182 29.7194 11.5506ZM16.5001 17.991V12C16.5001 10.8954 17.3955 10 18.5001 10H29.5C30.6046 10 31.5 10.8954 31.5 12V20C31.5 21.1046 30.6046 22 29.5 22H18.5001C17.3955 22 16.5001 21.1046 16.5001 20V18.0103C16.5 18.0039 16.5 17.9974 16.5001 17.991Z" fill="black"/>
</g>
<defs>
<clipPath id="clip0_74_4143">
<rect width="16" height="16" fill="white" transform="translate(16 8)"/>
</clipPath>
</defs>
</svg>
