<svg width="48" height="32" viewBox="0 0 48 32" fill="none" xmlns="http://www.w3.org/2000/svg">
<g clip-path="url(#clip0_74_2280)">
<path fill-rule="evenodd" clip-rule="evenodd" d="M26.2567 12.2005C26.0938 12.3906 25.8559 12.5 25.6056 12.5C25.5355 12.5 25.4656 12.4914 25.3976 12.4744L22.2938 11.6985C21.7754 11.5688 21.2307 11.5898 20.7237 11.7588C20.2498 11.9167 19.8266 12.1982 19.4976 12.5741L17.2423 15.1517C16.7638 15.6986 16.5 16.4005 16.5 17.1272V19.9982V20C16.5 21.07 17.3403 21.9438 18.3971 21.9974C18.4312 21.9991 18.4655 22 18.5 22H29.5C30.6046 22 31.5 21.1046 31.5 20V16.337V11.3087C31.5 10.5183 31.0188 9.80751 30.2849 9.51396C29.7906 9.31622 29.2505 9.33506 28.7848 9.541C28.5267 9.65512 28.2914 9.8267 28.0994 10.0507L26.7895 11.5789L26.2567 12.2005ZM30 14.4786V11.3087C30 11.1316 29.8922 10.9724 29.7278 10.9067C29.5557 10.8378 29.3589 10.8862 29.2383 11.0269L27.3956 13.1767C26.9477 13.6993 26.2938 14 25.6056 14C25.4128 14 25.2208 13.9764 25.0338 13.9296L21.93 13.1537C21.6883 13.0932 21.4344 13.103 21.1981 13.1818C20.9772 13.2554 20.7799 13.3866 20.6265 13.5619L18.3711 16.1394C18.1319 16.4129 18 16.7639 18 17.1272V17.8125L20.3039 16.3726C20.4344 16.291 20.5719 16.2213 20.7147 16.1641C21.3756 15.8998 22.1161 15.919 22.7624 16.2173L24.6854 17.1048C24.8927 17.2005 25.1182 17.25 25.3465 17.25C25.7649 17.25 26.1662 17.0838 26.4621 16.7879L26.6826 16.5674L28.2565 14.9935C28.7593 14.4907 29.412 14.3487 30 14.4786ZM18 19.9982C18 20.2761 18.2256 20.5 18.5 20.5H29.5C29.7761 20.5 30 20.2761 30 20V16.337C30 15.9806 29.5691 15.8022 29.3172 16.0542L27.5227 17.8486C26.9456 18.4257 26.1628 18.75 25.3465 18.75C24.9012 18.75 24.4611 18.6533 24.0568 18.4667L22.1338 17.5792C21.8617 17.4536 21.55 17.4455 21.2718 17.5568C21.2117 17.5809 21.1538 17.6102 21.0989 17.6446L18.3525 19.3611C18.1339 19.4977 18 19.7388 18 19.9982Z" fill="black"/>
</g>
<defs>
<clipPath id="clip0_74_2280">
<rect width="16" height="16" fill="white" transform="translate(16 8)"/>
</clipPath>
</defs>
</svg>
