<svg width="48" height="32" viewBox="0 0 48 32" fill="none" xmlns="http://www.w3.org/2000/svg">
<path fill-rule="evenodd" clip-rule="evenodd" d="M29.4493 16.75C29.0835 19.4328 26.7832 21.5 24 21.5C20.9624 21.5 18.5 19.0376 18.5 16C18.5 13.2168 20.5672 10.9165 23.25 10.5507V16C23.25 16.4142 23.5858 16.75 24 16.75H29.4493ZM29.4493 15.25H24.75V10.5507C27.1875 10.8831 29.1169 12.8125 29.4493 15.25ZM31 16C31 19.866 27.866 23 24 23C20.134 23 17 19.866 17 16C17 12.134 20.134 9 24 9C27.866 9 31 12.134 31 16Z" fill="black"/>
</svg>
