<svg width="48" height="32" viewBox="0 0 48 32" fill="none" xmlns="http://www.w3.org/2000/svg">
<g clip-path="url(#clip0_74_3556)">
<path fill-rule="evenodd" clip-rule="evenodd" d="M30 20C30 20.2761 29.7761 20.5 29.5 20.5H18.5C18.2239 20.5 18 20.2761 18 20L18 19C18 18.9999 18 19.0001 18 19C18.0002 18.724 18.224 18.5 18.5 18.5H25.5H28H29.5C29.7761 18.5 30 18.7239 30 19V20ZM30 16.5C30 16.7761 29.7761 17 29.5 17H28C27.7242 17 27.5005 16.7766 27.5 16.5009V15.5C27.5 15.2241 27.7235 15.0004 27.9993 15H29.5C29.7761 15 30 15.2239 30 15.5V16.5ZM30 13V12C30 11.7239 29.7761 11.5 29.5 11.5H24C23.7239 11.5 23.5 11.7239 23.5 12V13C23.5 13.276 23.7237 13.4998 23.9997 13.5H25.5L27.9987 13.5L28 13.5L29.5 13.5C29.7761 13.5 30 13.2761 30 13ZM18.5 11.5C18.2411 11.5 18.0282 11.6967 18.0026 11.9489C18.0009 11.9657 18 11.9827 18 12L18 13C18 12.9999 18 13.0001 18 13C18.0002 13.276 18.224 13.5 18.5 13.5H21.5C21.7761 13.4999 22 13.2761 22 13V12C22 11.7239 21.7761 11.5 21.5 11.5L18.5 11.5ZM18 15.4997C18 15.4995 18 15.4998 18 15.4997L18 16.5C18 16.4999 18 16.5001 18 16.5C18.0002 16.776 18.224 17 18.5 17L25.5 17C25.7759 16.9998 26 16.776 26 16.5V15.5C25.9995 15.2244 25.776 15.0002 25.5004 15H24L21.5011 15L21.5 15L18.5 15C18.224 15 18.0002 15.2237 18 15.4997ZM16.5 20C16.5 21.1046 17.3954 22 18.5 22H29.5C30.6046 22 31.5 21.1046 31.5 20V19V16.5V15.5V13V12C31.5 10.8954 30.6046 10 29.5 10H24H21.5H18.5C17.4645 10 16.6127 10.787 16.5103 11.7955C16.5035 11.8627 16.5 11.931 16.5 12V13V15.5V16.5V19V20Z" fill="black"/>
</g>
<defs>
<clipPath id="clip0_74_3556">
<rect width="16" height="16" fill="white" transform="translate(16 8)"/>
</clipPath>
</defs>
</svg>
