<svg width="48" height="32" viewBox="0 0 48 32" fill="none" xmlns="http://www.w3.org/2000/svg">
<path fill-rule="evenodd" clip-rule="evenodd" d="M24 11H20.5C19.6716 11 19 11.6716 19 12.5V16.5H24V11ZM25.5 11V16.5H29V12.5C29 11.6716 28.3284 11 27.5 11H25.5ZM19 19.5V18H22V21H20.5C19.6716 21 19 20.3284 19 19.5ZM27.25 21H23.5V18H27.25V21ZM20.5 9.5C18.8431 9.5 17.5 10.8431 17.5 12.5V19.5C17.5 21.1569 18.8431 22.5 20.5 22.5H27.5C29.1569 22.5 30.5 21.1569 30.5 19.5V12.5C30.5 10.8431 29.1569 9.5 27.5 9.5H20.5Z" fill="black"/>
</svg>
