<svg width="48" height="32" viewBox="0 0 48 32" fill="none" xmlns="http://www.w3.org/2000/svg">
<g clip-path="url(#clip0_74_4125)">
<path fill-rule="evenodd" clip-rule="evenodd" d="M30.9801 9.82618C31.2983 9.56101 31.3413 9.08809 31.0762 8.76988C30.811 8.45167 30.3381 8.40868 30.0199 8.67385L26.3757 11.7106C26.0432 11.9877 25.5909 12.0731 25.1802 11.9362L23.025 11.2178C21.956 10.8614 20.7777 11.1933 20.0519 12.0553L16.9263 15.7669C16.6595 16.0838 16.7001 16.5569 17.0169 16.8237C17.3337 17.0905 17.8069 17.05 18.0737 16.7331L21.1993 13.0215C21.5292 12.6297 22.0648 12.4788 22.5507 12.6408L24.7059 13.3592C25.6094 13.6604 26.6044 13.4726 27.336 12.8629L30.9801 9.82618ZM29.5 16H27.5C27.2239 16 27 16.2239 27 16.5V18.5V21C27 21.2762 27.2239 21.5 27.5 21.5H29H29.5C29.7761 21.5 30 21.2762 30 21V16.5C30 16.2239 29.7761 16 29.5 16ZM25.5 21C25.5 21.2762 25.2761 21.5 25 21.5H23C22.7239 21.5 22.5 21.2762 22.5 21V20.5V18.5C22.5 18.2239 22.7239 18 23 18H25C25.2761 18 25.5 18.2239 25.5 18.5V21ZM21 21C21 21.2762 20.7761 21.5 20.5 21.5H19.5H18.5C18.2239 21.5 18 21.2762 18 21V20.5C18 20.2239 18.2239 20 18.5 20H20.5C20.7761 20 21 20.2239 21 20.5V21ZM18.5 23H19.5H20.5H23H25H27.5H29H29.5C30.6046 23 31.5 22.1046 31.5 21V16.5C31.5 15.3954 30.6046 14.5 29.5 14.5H27.5C26.3954 14.5 25.5 15.3954 25.5 16.5V16.563C25.3402 16.5219 25.1726 16.5 25 16.5H23C21.8954 16.5 21 17.3954 21 18.5V18.563C20.8402 18.5219 20.6726 18.5 20.5 18.5H18.5C17.3954 18.5 16.5 19.3954 16.5 20.5V21C16.5 22.1046 17.3954 23 18.5 23Z" fill="black"/>
</g>
<defs>
<clipPath id="clip0_74_4125">
<rect width="16" height="16" fill="white" transform="translate(16 8)"/>
</clipPath>
</defs>
</svg>
