<svg width="48" height="32" viewBox="0 0 48 32" fill="none" xmlns="http://www.w3.org/2000/svg">
<g clip-path="url(#clip0_74_2286)">
<path fill-rule="evenodd" clip-rule="evenodd" d="M31.3262 9.26988C31.5914 9.58809 31.5484 10.061 31.2302 10.3262L27.5559 13.3882C26.8469 13.9789 25.889 14.1747 25.0051 13.9096L22.1373 13.0492C21.7106 12.9212 21.2481 13.0299 20.9232 13.3346L17.763 16.2972C17.4609 16.5805 16.9862 16.5652 16.7029 16.263C16.4196 15.9608 16.4349 15.4862 16.7371 15.2029L19.8972 12.2403C20.6121 11.57 21.6297 11.3309 22.5683 11.6125L25.4362 12.4728C25.8379 12.5934 26.2733 12.5043 26.5956 12.2358L30.2699 9.17385C30.5881 8.90868 31.0611 8.95167 31.3262 9.26988ZM31.4394 15.4546C31.6026 15.8353 31.4262 16.2762 31.0455 16.4394L26.6481 18.324C25.9046 18.6426 25.0585 18.6178 24.335 18.256L22.1865 17.1817C21.7907 16.9839 21.3199 17.01 20.9484 17.2503L17.6575 19.3797C17.3098 19.6047 16.8454 19.5052 16.6204 19.1575C16.3954 18.8097 16.4949 18.3454 16.8427 18.1203L20.1335 15.991C20.9508 15.4622 21.9867 15.4048 22.8573 15.8401L25.0058 16.9144C25.3347 17.0788 25.7193 17.0901 26.0572 16.9453L30.4546 15.0607C30.8353 14.8975 31.2763 15.0739 31.4394 15.4546ZM17.2501 20.5C16.8359 20.5 16.5001 20.8358 16.5001 21.25C16.5001 21.6642 16.8359 22 17.2501 22H30.7501C31.1643 22 31.5001 21.6642 31.5001 21.25C31.5001 20.8358 31.1643 20.5 30.7501 20.5H17.2501Z" fill="black"/>
</g>
<defs>
<clipPath id="clip0_74_2286">
<rect width="16" height="16" fill="white" transform="translate(16 8)"/>
</clipPath>
</defs>
</svg>
