<svg width="48" height="32" viewBox="0 0 48 32" fill="none" xmlns="http://www.w3.org/2000/svg">
<g clip-path="url(#clip0_74_2254)">
<path fill-rule="evenodd" clip-rule="evenodd" d="M27.5 11.5H29.5C29.7761 11.5 30 11.7239 30 12V20C30 20.2761 29.7761 20.5 29.5 20.5H29H27.5C27.2239 20.5 27 20.2761 27 20V15V12C27 11.7239 27.2239 11.5 27.5 11.5ZM25 20.5C25.2761 20.5 25.5 20.2761 25.5 20V15C25.5 14.7239 25.2761 14.5 25 14.5H23C22.7239 14.5 22.5 14.7239 22.5 15V18V20C22.5 20.2761 22.7239 20.5 23 20.5H25ZM20.5 20.5C20.7761 20.5 21 20.2761 21 20V18C21 17.7239 20.7761 17.5 20.5 17.5H18.5C18.2239 17.5 18 17.7239 18 18V20C18 20.2761 18.2239 20.5 18.5 20.5H19.5H20.5ZM19.5 22H18.5C17.3954 22 16.5 21.1046 16.5 20V18C16.5 16.8954 17.3954 16 18.5 16H20.5C20.6726 16 20.8402 16.0219 21 16.063V15C21 13.8954 21.8954 13 23 13H25C25.1726 13 25.3402 13.0219 25.5 13.063V12C25.5 10.8954 26.3954 10 27.5 10H29.5C30.6046 10 31.5 10.8954 31.5 12V20C31.5 21.1046 30.6046 22 29.5 22H29H27.5H25H23H20.5H19.5Z" fill="black"/>
</g>
<defs>
<clipPath id="clip0_74_2254">
<rect width="16" height="16" fill="white" transform="translate(16 8)"/>
</clipPath>
</defs>
</svg>
