<svg width="48" height="32" viewBox="0 0 48 32" fill="none" xmlns="http://www.w3.org/2000/svg">
<g clip-path="url(#clip0_74_5031)">
<path fill-rule="evenodd" clip-rule="evenodd" d="M32 11.9999C32 11.6605 31.7721 11.3634 31.4442 11.2755C31.1163 11.1876 30.7703 11.3309 30.6006 11.6249L29.4243 13.6615L28.1358 11.6021C27.9584 11.3186 27.6146 11.1868 27.2931 11.2791C26.9716 11.3714 26.75 11.6654 26.75 11.9999V16.2499C26.75 16.6642 27.0858 16.9999 27.5 16.9999C27.9142 16.9999 28.25 16.6642 28.25 16.2499V14.6127L28.8142 15.5144C28.9538 15.7375 29.2001 15.8711 29.4633 15.8665C29.7264 15.8618 29.9679 15.7196 30.0995 15.4917L30.5 14.7982V16.2475C30.5 16.6618 30.8358 16.9975 31.25 16.9975C31.6642 16.9975 32 16.6618 32 16.2475V11.9999ZM18.8282 11.9999C18.8282 11.7116 18.6629 11.4489 18.4031 11.324C18.1432 11.1991 17.8348 11.2342 17.6097 11.4143L16.2815 12.4768C15.9581 12.7355 15.9056 13.2075 16.1644 13.531C16.4231 13.8544 16.8951 13.9069 17.2185 13.6481L17.3282 13.5604V16.2499C17.3282 16.6642 17.664 16.9999 18.0782 16.9999C18.4924 16.9999 18.8282 16.6642 18.8282 16.2499V11.9999ZM23.411 12.7499C23.116 12.7499 22.8531 12.9361 22.7552 13.2144L22.67 13.4564C22.5324 13.8471 22.1042 14.0523 21.7135 13.9148C21.3228 13.7773 21.1175 13.349 21.2551 12.9583L21.3402 12.7164C21.6495 11.8377 22.4796 11.2499 23.411 11.2499H23.6681C24.5045 11.2499 25.2378 11.8088 25.4596 12.6153C25.6629 13.3545 25.3912 14.1427 24.7757 14.5997L23.5631 15.4999H24.9375C25.3517 15.4999 25.6875 15.8357 25.6875 16.2499C25.6875 16.6642 25.3517 16.9999 24.9375 16.9999H21.9749C21.4365 16.9999 21 16.5635 21 16.025C21 15.7165 21.1461 15.4262 21.3938 15.2422L23.8815 13.3953C24.0001 13.3073 24.0524 13.1554 24.0133 13.013C23.9705 12.8576 23.8293 12.7499 23.6681 12.7499H23.411ZM30.8506 17.9764C31.2471 17.8111 31.7025 17.9984 31.8678 18.3949C32.0332 18.7913 31.8459 19.2468 31.4494 19.4121L26.7315 21.3799C25.9662 21.6991 25.0999 21.6694 24.3583 21.2986L22.0947 20.1668C21.6926 19.9657 21.215 19.9874 20.8327 20.224L17.2093 22.4667C16.8441 22.6928 16.3647 22.58 16.1386 22.2147C15.9125 21.8495 16.0254 21.3701 16.3906 21.1441L20.014 18.9013C20.855 18.3807 21.9057 18.3331 22.7904 18.7754L25.054 19.9072C25.3911 20.0758 25.7848 20.0893 26.1327 19.9442L30.8506 17.9764ZM20.75 16.2499C20.75 16.6642 20.4142 16.9999 20 16.9999C19.5858 16.9999 19.25 16.6642 19.25 16.2499C19.25 15.8357 19.5858 15.4999 20 15.4999C20.4142 15.4999 20.75 15.8357 20.75 16.2499Z" fill="black"/>
</g>
<defs>
<clipPath id="clip0_74_5031">
<rect width="16" height="16" fill="white" transform="translate(16 8)"/>
</clipPath>
</defs>
</svg>
