<svg width="48" height="32" viewBox="0 0 48 32" fill="none" xmlns="http://www.w3.org/2000/svg">
<g clip-path="url(#clip0_74_3548)">
<path fill-rule="evenodd" clip-rule="evenodd" d="M22 12V13C22 13.276 21.7764 13.4997 21.5005 13.5L21.5 13.5L18.5 13.5C18.2239 13.5 18 13.2761 18 13V12C18 11.7239 18.2239 11.5 18.5 11.5L21.5 11.5C21.7761 11.5 22 11.7239 22 12ZM18 15.4995C18 15.4997 18 15.4998 18 15.5V16.5C18 16.5002 18 16.5003 18 16.5005C18.0003 16.7764 18.224 17 18.5 17L25.5 17H25.5004C25.7764 16.9998 26 16.776 26 16.5V15.5C26 15.2239 25.7761 15 25.5 15H21.5H18.5C18.224 15 18.0003 15.2236 18 15.4995ZM18 18.9994C18 18.9996 18 18.9998 18 19L18 19.5034C18 19.5037 18 19.5039 18 19.5042V20C18 20.2761 18.2239 20.5 18.5 20.5L29.5 20.5C29.7761 20.5 30 20.2761 30 20V19C30 18.7239 29.7761 18.5 29.5 18.5H25.5H18.5C18.2241 18.5 18.0003 18.7235 18 18.9994ZM16.5 19.5034V19V16.5V15.5V13V12.5034V12C16.5 10.8954 17.3954 10 18.5 10H21.5C22.6046 10 23.5 10.8954 23.5 12V13C23.5 13.1726 23.4781 13.3402 23.437 13.5L25.5 13.5C26.6046 13.5 27.5 14.3954 27.5 15.5V16.5C27.5 16.6726 27.4781 16.8402 27.437 17H29.5C30.6046 17 31.5 17.8954 31.5 19V20C31.5 21.1046 30.6046 22 29.5 22L18.5 22C17.3954 22 16.5 21.1046 16.5 20V19.5034Z" fill="black"/>
</g>
<defs>
<clipPath id="clip0_74_3548">
<rect width="16" height="16" fill="white" transform="translate(16 8)"/>
</clipPath>
</defs>
</svg>
