<svg width="48" height="32" viewBox="0 0 48 32" fill="none" xmlns="http://www.w3.org/2000/svg">
<g clip-path="url(#clip0_74_3537)">
<path fill-rule="evenodd" clip-rule="evenodd" d="M27 12C27 11.7239 27.2239 11.5 27.5 11.5H29.5C29.7761 11.5 30 11.7239 30 12V20C30 20.2761 29.7761 20.5 29.5 20.5H27.5C27.2239 20.5 27 20.2761 27 20V15V12.5V12ZM25 20.5C25.2761 20.5 25.5 20.2761 25.5 20V15C25.5 14.7239 25.2761 14.5 25 14.5H23C22.7239 14.5 22.5 14.7239 22.5 15V15.5V18V20C22.5 20.2761 22.7239 20.5 23 20.5H25ZM20.5 20.5C20.7761 20.5 21 20.2761 21 20V18C21 17.7239 20.7761 17.5 20.5 17.5H18.5C18.2239 17.5 18 17.7239 18 18V20C18 20.2761 18.2239 20.5 18.5 20.5H20.5ZM18 15.5V12C18 11.7239 18.2239 11.5 18.5 11.5H20.5C20.7761 11.5 21 11.7239 21 12V12.5V15V15.5C21 15.7761 20.7761 16 20.5 16H18.5C18.2239 16 18 15.7761 18 15.5ZM23 11.5H25C25.2761 11.5 25.5 11.7239 25.5 12V12.5C25.5 12.7761 25.2761 13 25 13H23C22.7239 13 22.5 12.7761 22.5 12.5V12C22.5 11.7239 22.7239 11.5 23 11.5ZM23 10H20.5H18.5C17.3954 10 16.5 10.8954 16.5 12V15.5V18V20C16.5 21.1046 17.3954 22 18.5 22H20.5H23H25H27.5H29.5C30.6046 22 31.5 21.1046 31.5 20V12C31.5 10.8954 30.6046 10 29.5 10H27.5H25H23Z" fill="black"/>
</g>
<defs>
<clipPath id="clip0_74_3537">
<rect width="16" height="16" fill="white" transform="translate(16 8)"/>
</clipPath>
</defs>
</svg>
