<svg width="48" height="32" viewBox="0 0 48 32" fill="none" xmlns="http://www.w3.org/2000/svg">
<path fill-rule="evenodd" clip-rule="evenodd" d="M20.111 10.1797C21.2622 9.41054 22.6155 9 24 9C24.9193 9 25.8295 9.18106 26.6788 9.53284C27.5281 9.88463 28.2997 10.4002 28.9497 11.0503C29.5998 11.7003 30.1154 12.4719 30.4672 13.3212C30.8189 14.1705 31 15.0807 31 16C31 17.3845 30.5895 18.7378 29.8203 19.889C29.0511 21.0401 27.9579 21.9373 26.6788 22.4672C25.3997 22.997 23.9922 23.1356 22.6344 22.8655C21.2765 22.5954 20.0292 21.9287 19.0503 20.9497C18.0713 19.9708 17.4046 18.7235 17.1345 17.3656C16.8644 16.0078 17.003 14.6003 17.5328 13.3212C18.0627 12.0421 18.9599 10.9489 20.111 10.1797ZM24 14.0201C23.6084 14.0201 23.2256 14.1362 22.9 14.3538C22.5745 14.5713 22.3207 14.8806 22.1708 15.2423C22.021 15.6041 21.9818 16.0022 22.0582 16.3863C22.1346 16.7703 22.3231 17.1231 22.6 17.4C22.8769 17.6769 23.2297 17.8654 23.6137 17.9418C23.9978 18.0182 24.3959 17.979 24.7577 17.8292C25.1194 17.6793 25.4287 17.4256 25.6462 17.1C25.8638 16.7744 25.9799 16.3916 25.9799 16C25.9799 15.74 25.9287 15.4825 25.8292 15.2423C25.7297 15.0021 25.5838 14.7839 25.4 14.6C25.2161 14.4162 24.9979 14.2703 24.7577 14.1708C24.5175 14.0713 24.26 14.0201 24 14.0201ZM23.25 10.5514C22.4283 10.6645 21.6394 10.9625 20.9444 11.4269C20.0399 12.0313 19.3349 12.8902 18.9187 13.8952C18.5024 14.9002 18.3935 16.0061 18.6057 17.073C18.8179 18.1399 19.3417 19.1199 20.1109 19.8891C20.8801 20.6583 21.8601 21.1821 22.927 21.3943C23.9939 21.6065 25.0998 21.4976 26.1048 21.0813C27.1098 20.6651 27.9687 19.9601 28.5731 19.0556C29.0375 18.3606 29.3355 17.5717 29.4486 16.75H27.3981C27.3053 17.1703 27.1349 17.5718 26.8934 17.9333C26.511 18.5056 25.9676 18.9516 25.3317 19.215C24.6958 19.4784 23.9961 19.5473 23.3211 19.413C22.6461 19.2787 22.026 18.9473 21.5394 18.4606C21.0527 17.974 20.7213 17.3539 20.587 16.6789C20.4527 16.0039 20.5216 15.3042 20.785 14.6683C21.0484 14.0324 21.4944 13.489 22.0667 13.1066C22.4282 12.8651 22.8297 12.6947 23.25 12.6019V10.5514ZM24.75 10.5514L24.75 12.6019C24.9484 12.6457 25.1431 12.7069 25.3317 12.785C25.7539 12.9599 26.1375 13.2162 26.4606 13.5394C26.7838 13.8625 27.0401 14.2461 27.215 14.6683C27.2931 14.8569 27.3543 15.0516 27.3981 15.25H29.4486C29.3847 14.7856 29.2615 14.3302 29.0813 13.8952C28.8049 13.228 28.3998 12.6216 27.8891 12.1109C27.3784 11.6002 26.7721 11.1951 26.1048 10.9187C25.6698 10.7385 25.2144 10.6153 24.75 10.5514Z" fill="black"/>
</svg>
