<svg width="48" height="32" viewBox="0 0 48 32" fill="none" xmlns="http://www.w3.org/2000/svg">
<g clip-path="url(#clip0_74_2653)">
<path fill-rule="evenodd" clip-rule="evenodd" d="M23.7106 8.05807C22.0889 8.73401 20.9511 9.78194 20.2945 11.0981C20.2836 11.12 20.2729 11.1419 20.2623 11.1638C19.8852 11.9438 19.6857 12.7932 19.6384 13.6802C19.6121 14.1734 19.6329 14.6783 19.6964 15.1893C19.6968 15.193 19.6973 15.1967 19.6978 15.2005C19.6984 15.2057 19.6991 15.2109 19.6997 15.2161C18.1289 15.7558 17 17.246 17 19C17 21.2091 18.7909 23 21 23C22.0039 23 22.9214 22.6302 23.6237 22.0194C23.8873 21.7901 24.1207 21.5268 24.3169 21.2364C24.3552 21.1797 24.3921 21.1219 24.4276 21.0631C24.7453 21.3301 25.1051 21.5486 25.4956 21.7073C25.913 21.8768 26.3654 21.9779 26.839 21.9966C26.8924 21.9987 26.9461 21.9998 27 21.9998C29.2091 21.9998 31 20.2089 31 17.9998C31 16.7124 30.3918 15.5671 29.4471 14.8354C28.7707 14.3116 27.9218 13.9998 27 13.9998C26.9436 13.9998 26.8874 14.001 26.8316 14.0033C26.4032 14.021 25.9923 14.1061 25.609 14.2483C25.609 14.2483 25.6091 14.2483 25.609 14.2483C25.3783 14.173 25.1662 14.0835 24.9725 13.9818C24.9432 13.9664 24.9144 13.9507 24.8859 13.9348C24.8781 13.9304 24.8702 13.926 24.8624 13.9215C24.7091 13.8341 24.5681 13.7386 24.4392 13.636C24.0674 13.3403 23.7964 12.9859 23.6209 12.5975C23.3181 11.927 23.2659 11.0783 23.573 10.1205C23.5729 10.1208 23.5731 10.1202 23.573 10.1205C23.7038 10.482 23.8646 10.8132 24.0529 11.1155C24.2732 11.4691 24.5315 11.782 24.8246 12.0538C25.0775 12.2882 25.3564 12.4919 25.6591 12.6648C25.6716 12.6719 25.6841 12.6789 25.6966 12.686C25.8149 12.752 25.9358 12.8129 26.0592 12.8688C26.3594 13.0049 26.6741 13.1112 27 13.1904C27.3429 13.2737 27.6982 13.3268 28.0622 13.3528C28.4218 13.3784 28.7898 13.3774 29.1628 13.3527C29.1707 13.3522 29.1786 13.3517 29.1865 13.3511C29.4004 13.3364 29.6158 13.3139 29.8322 13.2841C29.9291 13.2708 30.0261 13.256 30.1233 13.2398C30.5319 13.1717 30.8079 12.7853 30.7398 12.3767C30.68 12.0177 30.594 11.6841 30.484 11.3747C30.4805 11.3649 30.477 11.3551 30.4735 11.3453C30.2567 10.7471 29.9491 10.2405 29.5653 9.81745C29.5463 9.79656 29.5272 9.77588 29.5079 9.75543C29.1517 9.37794 28.7389 9.07565 28.2884 8.83716C27.0684 8.19127 25.553 8.0014 24.0171 8.00001C23.9154 7.99763 23.8106 8.01641 23.7106 8.05807ZM25.3151 10.3048C25.5553 10.6948 25.8513 10.9966 26.1862 11.2264C26.2649 11.2803 26.3456 11.3303 26.4284 11.3765C26.4351 11.3803 26.4419 11.384 26.4486 11.3878C26.6753 11.5123 26.924 11.6131 27.1927 11.6899C27.7386 11.8458 28.3674 11.9024 29.0634 11.8562C29.0522 11.8253 29.0407 11.7948 29.0289 11.7647C28.7664 11.0971 28.3506 10.6329 27.825 10.3008C27.7479 10.252 27.6683 10.2061 27.5866 10.1628C27.3695 10.0479 27.1334 9.94988 26.8796 9.86727C26.3311 9.68871 25.7 9.58219 25 9.53298C24.9852 9.53193 24.9703 9.53092 24.9554 9.52993C24.9608 9.54599 24.9664 9.56195 24.972 9.57781C24.9757 9.58842 24.9795 9.59897 24.9833 9.60948C25.0766 9.86753 25.188 10.0985 25.3151 10.3048ZM21.8666 11.3629C21.8664 11.5636 21.8785 11.7619 21.9028 11.957C21.9536 12.3642 22.0581 12.7576 22.217 13.1307C22.229 13.1589 22.2413 13.187 22.2539 13.2149C22.2587 13.2255 22.2635 13.236 22.2683 13.2465C22.3428 13.408 22.4271 13.5637 22.5205 13.7133C22.5563 13.7705 22.5934 13.8268 22.6319 13.8822C22.7285 14.0215 22.8336 14.1549 22.9467 14.2822C23.1621 14.5246 23.4068 14.7449 23.6783 14.9408C23.8184 15.0419 23.9656 15.1365 24.1196 15.2243C24.1196 15.2243 24.1196 15.2243 24.1196 15.2243C23.9118 15.4399 23.7279 15.6789 23.5724 15.9367C23.2547 15.6697 22.8949 15.4512 22.5044 15.2925C22.2278 15.1802 21.9358 15.0979 21.6324 15.0497C21.4925 15.0275 21.3502 15.0125 21.2058 15.0052C21.1989 15.0048 21.1918 15.0045 21.1849 15.0042C21.1555 14.7679 21.1373 14.5366 21.1304 14.3105C21.1242 14.1089 21.1269 13.9116 21.1385 13.7187C21.1801 13.028 21.3358 12.3953 21.6051 11.8326C21.6076 11.8273 21.6102 11.822 21.6127 11.8167C21.6867 11.6637 21.7699 11.5143 21.8628 11.369C21.864 11.3669 21.8653 11.3649 21.8666 11.3629ZM24.608 17.2708C24.6352 17.3275 24.6611 17.3849 24.6857 17.443C24.8881 17.9216 25 18.4477 25 19C25 19.1569 24.991 19.3117 24.9734 19.4639C25.4276 20.0915 26.1661 20.4998 27 20.4998C28.3807 20.4998 29.5 19.3805 29.5 17.9998C29.5 16.6191 28.3807 15.4998 27 15.4998C26.2941 15.4998 25.6565 15.7924 25.2019 16.2628C25.2012 16.2636 25.2004 16.2644 25.1996 16.2652C25.1842 16.2813 25.1689 16.2975 25.1539 16.314C24.9063 16.585 24.7176 16.9107 24.608 17.2708ZM23.4997 19.0371C23.4999 19.0248 23.5 19.0124 23.5 19C23.5 17.6193 22.3807 16.5 21 16.5C20.0164 16.5 19.1655 17.068 18.7574 17.8939C18.5926 18.2274 18.5 18.6029 18.5 19C18.5 20.3807 19.6193 21.5 21 21.5C21.0475 21.5 21.0948 21.4987 21.1417 21.4961C22.4442 21.4233 23.4806 20.3533 23.4997 19.0371Z" fill="black"/>
</g>
<defs>
<clipPath id="clip0_74_2653">
<rect width="16" height="16" fill="white" transform="translate(16 8)"/>
</clipPath>
</defs>
</svg>
