<svg width="48" height="32" viewBox="0 0 48 32" fill="none" xmlns="http://www.w3.org/2000/svg">
<path fill-rule="evenodd" clip-rule="evenodd" d="M21.0303 11.4697C20.7374 11.1768 20.2626 11.1768 19.9697 11.4697C19.6768 11.7626 19.6768 12.2374 19.9697 12.5303L23.4697 16.0303C23.7626 16.3232 24.2374 16.3232 24.5303 16.0303L28.0303 12.5303C28.3232 12.2374 28.3232 11.7626 28.0303 11.4697C27.7374 11.1768 27.2626 11.1768 26.9697 11.4697L24 14.4393L21.0303 11.4697ZM21.0303 16.4697C20.7374 16.1768 20.2626 16.1768 19.9697 16.4697C19.6768 16.7626 19.6768 17.2374 19.9697 17.5303L23.4697 21.0303C23.7626 21.3232 24.2374 21.3232 24.5303 21.0303L28.0303 17.5303C28.3232 17.2374 28.3232 16.7626 28.0303 16.4697C27.7374 16.1768 27.2626 16.1768 26.9697 16.4697L24 19.4393L21.0303 16.4697Z" fill="black"/>
</svg>
