<svg width="48" height="32" viewBox="0 0 48 32" fill="none" xmlns="http://www.w3.org/2000/svg">
<path fill-rule="evenodd" clip-rule="evenodd" d="M18.9025 11.6173C18.5531 11.395 18.0895 11.498 17.8671 11.8474C17.6447 12.1969 17.7477 12.6605 18.0972 12.8828L23.5972 16.3828C23.8429 16.5392 24.1568 16.5392 24.4025 16.3828L29.9025 12.8828C30.252 12.6605 30.355 12.1969 30.1326 11.8474C29.9102 11.498 29.4467 11.395 29.0972 11.6173L23.9999 14.8611L18.9025 11.6173ZM18.9025 16.1173C18.5531 15.895 18.0895 15.998 17.8671 16.3474C17.6447 16.6969 17.7477 17.1605 18.0972 17.3828L23.5972 20.8828C23.8429 21.0392 24.1568 21.0392 24.4025 20.8828L29.9025 17.3828C30.252 17.1605 30.355 16.6969 30.1326 16.3474C29.9102 15.998 29.4466 15.895 29.0972 16.1173L23.9998 19.3611L18.9025 16.1173Z" fill="black"/>
</svg>
