<svg width="48" height="32" viewBox="0 0 48 32" fill="none" xmlns="http://www.w3.org/2000/svg">
<path fill-rule="evenodd" clip-rule="evenodd" d="M17.5 10.75C17.5 10.3358 17.1642 10 16.75 10C16.3358 10 16 10.3358 16 10.75V21.25C16 21.6642 16.3358 22 16.75 22C17.1642 22 17.5 21.6642 17.5 21.25V10.75ZM32 10.75C32 10.3358 31.6642 10 31.25 10C30.8358 10 30.5 10.3358 30.5 10.75V21.25C30.5 21.6642 30.8358 22 31.25 22C31.6642 22 32 21.6642 32 21.25V10.75ZM22.5303 12.9697C22.8232 13.2626 22.8232 13.7374 22.5303 14.0303L20.5607 16L22.5303 17.9697C22.8232 18.2626 22.8232 18.7374 22.5303 19.0303C22.2374 19.3232 21.7626 19.3232 21.4697 19.0303L18.9697 16.5303C18.6768 16.2374 18.6768 15.7626 18.9697 15.4697L21.4697 12.9697C21.7626 12.6768 22.2374 12.6768 22.5303 12.9697ZM25.4697 14.0303C25.1768 13.7374 25.1768 13.2626 25.4697 12.9697C25.7626 12.6768 26.2374 12.6768 26.5303 12.9697L29.0303 15.4697C29.3232 15.7626 29.3232 16.2374 29.0303 16.5303L26.5303 19.0303C26.2374 19.3232 25.7626 19.3232 25.4697 19.0303C25.1768 18.7374 25.1768 18.2626 25.4697 17.9697L27.4393 16L25.4697 14.0303Z" fill="black"/>
</svg>
