<svg width="48" height="32" viewBox="0 0 48 32" fill="none" xmlns="http://www.w3.org/2000/svg">
<path fill-rule="evenodd" clip-rule="evenodd" d="M28.4194 10.1413C28.7123 9.8484 28.7123 9.37353 28.4194 9.08063C28.1265 8.78774 27.6516 8.78774 27.3587 9.08063L23.9999 12.4394L20.6464 9.08585C20.3535 8.79295 19.8786 8.79295 19.5857 9.08585C19.2928 9.37874 19.2928 9.85362 19.5857 10.1465L23.4696 14.0304C23.6103 14.171 23.801 14.2501 23.9999 14.2501C24.1989 14.2501 24.3896 14.171 24.5303 14.0304L28.4194 10.1413ZM19.5805 21.8587C19.2876 22.1516 19.2876 22.6265 19.5805 22.9194C19.8734 23.2123 20.3483 23.2123 20.6412 22.9194L23.9999 19.5606L27.3535 22.9142C27.6464 23.207 28.1213 23.2071 28.4142 22.9142C28.7071 22.6213 28.7071 22.1464 28.4142 21.8535L24.5303 17.9696C24.3896 17.829 24.1989 17.7499 23.9999 17.7499C23.801 17.7499 23.6103 17.829 23.4696 17.9696L19.5805 21.8587Z" fill="black"/>
</svg>
