<svg width="48" height="32" viewBox="0 0 48 32" fill="none" xmlns="http://www.w3.org/2000/svg">
<path fill-rule="evenodd" clip-rule="evenodd" d="M24 10C24.4142 10 24.75 10.3358 24.75 10.75V21.25C24.75 21.6642 24.4142 22 24 22C23.5858 22 23.25 21.6642 23.25 21.25V10.75C23.25 10.3358 23.5858 10 24 10ZM18.2197 12.9697C17.9268 13.2626 17.9268 13.7374 18.2197 14.0303L20.1893 16L18.2197 17.9697C17.9268 18.2626 17.9268 18.7374 18.2197 19.0303C18.5126 19.3232 18.9874 19.3232 19.2803 19.0303L21.7803 16.5303C22.0732 16.2374 22.0732 15.7626 21.7803 15.4697L19.2803 12.9697C18.9874 12.6768 18.5126 12.6768 18.2197 12.9697ZM29.7803 14.0303C30.0732 13.7374 30.0732 13.2626 29.7803 12.9697C29.4874 12.6768 29.0126 12.6768 28.7197 12.9697L26.2197 15.4697C25.9268 15.7626 25.9268 16.2374 26.2197 16.5303L28.7197 19.0303C29.0126 19.3232 29.4874 19.3232 29.7803 19.0303C30.0732 18.7374 30.0732 18.2626 29.7803 17.9697L27.8107 16L29.7803 14.0303Z" fill="black"/>
</svg>
