<svg width="48" height="32" viewBox="0 0 48 32" fill="none" xmlns="http://www.w3.org/2000/svg">
<path fill-rule="evenodd" clip-rule="evenodd" d="M29.0972 20.3828C29.4467 20.6052 29.9103 20.5021 30.1327 20.1527C30.355 19.8032 30.252 19.3397 29.9026 19.1173L24.4026 15.6173C24.1569 15.4609 23.8429 15.4609 23.5972 15.6173L18.0973 19.1173C17.7478 19.3397 17.6448 19.8032 17.8672 20.1527C18.0895 20.5021 18.5531 20.6052 18.9026 20.3828L23.9999 17.139L29.0972 20.3828ZM29.0972 15.8828C29.4467 16.1052 29.9103 16.0021 30.1327 15.6527C30.355 15.3032 30.252 14.8397 29.9026 14.6173L24.4026 11.1173C24.1569 10.9609 23.8429 10.9609 23.5972 11.1173L18.0972 14.6173C17.7478 14.8397 17.6448 15.3032 17.8672 15.6527C18.0895 16.0021 18.5531 16.1052 18.9026 15.8828L23.9999 12.639L29.0972 15.8828Z" fill="black"/>
</svg>
