<svg width="48" height="32" viewBox="0 0 48 32" fill="none" xmlns="http://www.w3.org/2000/svg">
<g clip-path="url(#clip0_74_2170)">
<path fill-rule="evenodd" clip-rule="evenodd" d="M19.5805 12.1088C19.2876 12.4017 19.2876 12.8765 19.5805 13.1694C19.8734 13.4623 20.3483 13.4623 20.6412 13.1694L23.9999 9.81066L27.3535 13.1642C27.6464 13.4571 28.1213 13.4571 28.4142 13.1642C28.7071 12.8713 28.7071 12.3965 28.4142 12.1036L24.5303 8.21967C24.2374 7.92678 23.7625 7.92678 23.4696 8.21967L19.5805 12.1088ZM28.4194 19.8912C28.7123 19.5983 28.7123 19.1235 28.4194 18.8306C28.1265 18.5377 27.6516 18.5377 27.3587 18.8306L23.9999 22.1894L20.6464 18.8358C20.3535 18.5429 19.8786 18.5429 19.5858 18.8358C19.2929 19.1287 19.2929 19.6036 19.5858 19.8965L23.4696 23.7804C23.6103 23.921 23.801 24 23.9999 24C24.1989 24 24.3896 23.921 24.5303 23.7804L28.4194 19.8912Z" fill="black"/>
</g>
<defs>
<clipPath id="clip0_74_2170">
<rect width="16" height="16" fill="white" transform="translate(16 8)"/>
</clipPath>
</defs>
</svg>
