<svg width="48" height="32" viewBox="0 0 48 32" fill="none" xmlns="http://www.w3.org/2000/svg">
<path fill-rule="evenodd" clip-rule="evenodd" d="M24 10C24.4142 10 24.75 10.3358 24.75 10.75V21.25C24.75 21.6642 24.4142 22 24 22C23.5858 22 23.25 21.6642 23.25 21.25V10.75C23.25 10.3358 23.5858 10 24 10ZM20.7803 12.9697C21.0732 13.2626 21.0732 13.7374 20.7803 14.0303L18.8107 16L20.7803 17.9697C21.0732 18.2626 21.0732 18.7374 20.7803 19.0303C20.4874 19.3232 20.0126 19.3232 19.7197 19.0303L17.2197 16.5303C16.9268 16.2374 16.9268 15.7626 17.2197 15.4697L19.7197 12.9697C20.0126 12.6768 20.4874 12.6768 20.7803 12.9697ZM27.2197 14.0303C26.9268 13.7374 26.9268 13.2626 27.2197 12.9697C27.5126 12.6768 27.9874 12.6768 28.2803 12.9697L30.7803 15.4697C31.0732 15.7626 31.0732 16.2374 30.7803 16.5303L28.2803 19.0303C27.9874 19.3232 27.5126 19.3232 27.2197 19.0303C26.9268 18.7374 26.9268 18.2626 27.2197 17.9697L29.1893 16L27.2197 14.0303Z" fill="black"/>
</svg>
