<svg width="48" height="32" viewBox="0 0 48 32" fill="none" xmlns="http://www.w3.org/2000/svg">
<path fill-rule="evenodd" clip-rule="evenodd" d="M23.7536 10.0037C23.3394 10.0037 23.0036 10.3394 23.0036 10.7537C23.0036 11.1679 23.3394 11.5037 23.7536 11.5037L28.5037 11.5037L28.5037 16.2463C28.5037 16.6605 28.8395 16.9963 29.2537 16.9963C29.6679 16.9963 30.0037 16.6605 30.0037 16.2463L30.0037 10.7537C30.0037 10.3394 29.6679 10.0037 29.2537 10.0037H23.7536ZM24.2463 21.9963C24.6605 21.9963 24.9963 21.6605 24.9963 21.2463C24.9963 20.8321 24.6605 20.4963 24.2463 20.4963L19.4962 20.4963V15.7537C19.4962 15.3395 19.1604 15.0037 18.7462 15.0037C18.332 15.0037 17.9962 15.3395 17.9962 15.7537V21.2463C17.9962 21.4452 18.0752 21.636 18.2159 21.7766C18.3565 21.9173 18.5473 21.9963 18.7462 21.9963L24.2463 21.9963Z" fill="black"/>
</svg>
