<svg width="48" height="32" viewBox="0 0 48 32" fill="none" xmlns="http://www.w3.org/2000/svg">
<path fill-rule="evenodd" clip-rule="evenodd" d="M31.25 14.9926C31.6642 14.9926 32 14.6569 32 14.2426C32 13.8284 31.6642 13.4926 31.25 13.4926L26.4999 13.4926L26.4999 8.75C26.4999 8.33579 26.1642 8 25.7499 8C25.3357 8 24.9999 8.33578 24.9999 8.75L24.9999 14.2426C24.9999 14.6568 25.3357 14.9926 25.7499 14.9926L31.25 14.9926ZM16.75 17.0074C16.3358 17.0074 16 17.3432 16 17.7574C16 18.1716 16.3358 18.5074 16.75 18.5074L21.5 18.5074L21.5 23.25C21.5 23.6642 21.8358 24 22.25 24C22.6642 24 23 23.6642 23 23.25V17.7574C23 17.5585 22.921 17.3677 22.7803 17.227C22.6397 17.0864 22.4489 17.0074 22.25 17.0074L16.75 17.0074Z" fill="black"/>
</svg>
