<svg width="48" height="32" viewBox="0 0 48 32" fill="none" xmlns="http://www.w3.org/2000/svg">
<g clip-path="url(#clip0_74_2176)">
<path fill-rule="evenodd" clip-rule="evenodd" d="M27.8911 11.5806C27.5982 11.2877 27.1233 11.2877 26.8304 11.5806C26.5376 11.8735 26.5376 12.3483 26.8304 12.6412L30.1892 16L26.8357 19.3536C26.5428 19.6465 26.5428 20.1214 26.8357 20.4142C27.1285 20.7071 27.6034 20.7071 27.8963 20.4142L31.7802 16.5303C32.0731 16.2374 32.0731 15.7626 31.7802 15.4697L27.8911 11.5806ZM20.1086 20.4194C20.4015 20.7123 20.8764 20.7123 21.1693 20.4194C21.4622 20.1265 21.4622 19.6517 21.1693 19.3588L17.8105 16L21.164 12.6465C21.4569 12.3536 21.4569 11.8787 21.164 11.5858C20.8712 11.2929 20.3963 11.2929 20.1034 11.5858L16.2195 15.4697C16.0789 15.6103 15.9999 15.8011 15.9999 16C15.9999 16.1989 16.0789 16.3897 16.2195 16.5303L20.1086 20.4194Z" fill="black"/>
</g>
<defs>
<clipPath id="clip0_74_2176">
<rect width="16" height="16" fill="white" transform="translate(16 8)"/>
</clipPath>
</defs>
</svg>
