<svg width="48" height="32" viewBox="0 0 48 32" fill="none" xmlns="http://www.w3.org/2000/svg">
<path fill-rule="evenodd" clip-rule="evenodd" d="M19.4697 18.9697C19.1768 19.2626 19.1768 19.7374 19.4697 20.0303C19.7626 20.3232 20.2374 20.3232 20.5303 20.0303L24.0303 16.5303C24.3232 16.2374 24.3232 15.7626 24.0303 15.4697L20.5303 11.9697C20.2374 11.6768 19.7626 11.6768 19.4697 11.9697C19.1768 12.2626 19.1768 12.7374 19.4697 13.0303L22.4393 16L19.4697 18.9697ZM24.4697 18.9697C24.1768 19.2626 24.1768 19.7374 24.4697 20.0303C24.7626 20.3232 25.2374 20.3232 25.5303 20.0303L29.0303 16.5303C29.3232 16.2374 29.3232 15.7626 29.0303 15.4697L25.5303 11.9697C25.2374 11.6768 24.7626 11.6768 24.4697 11.9697C24.1768 12.2626 24.1768 12.7374 24.4697 13.0303L27.4393 16L24.4697 18.9697Z" fill="black"/>
</svg>
