<svg width="48" height="32" viewBox="0 0 48 32" fill="none" xmlns="http://www.w3.org/2000/svg">
<path fill-rule="evenodd" clip-rule="evenodd" d="M26.9697 20.5303C27.2626 20.8232 27.7374 20.8232 28.0303 20.5303C28.3232 20.2374 28.3232 19.7626 28.0303 19.4697L24.5303 15.9697C24.2374 15.6768 23.7626 15.6768 23.4697 15.9697L19.9697 19.4697C19.6768 19.7626 19.6768 20.2374 19.9697 20.5303C20.2626 20.8232 20.7374 20.8232 21.0303 20.5303L24 17.5607L26.9697 20.5303ZM26.9697 15.5303C27.2626 15.8232 27.7374 15.8232 28.0303 15.5303C28.3232 15.2374 28.3232 14.7626 28.0303 14.4697L24.5303 10.9697C24.2374 10.6768 23.7626 10.6768 23.4697 10.9697L19.9697 14.4697C19.6768 14.7626 19.6768 15.2374 19.9697 15.5303C20.2626 15.8232 20.7374 15.8232 21.0303 15.5303L24 12.5607L26.9697 15.5303Z" fill="black"/>
</svg>
