<svg width="48" height="32" viewBox="0 0 48 32" fill="none" xmlns="http://www.w3.org/2000/svg">
<path fill-rule="evenodd" clip-rule="evenodd" d="M28.5303 13.0303C28.8232 12.7374 28.8232 12.2626 28.5303 11.9697C28.2374 11.6768 27.7626 11.6768 27.4697 11.9697L23.9697 15.4697C23.6768 15.7626 23.6768 16.2374 23.9697 16.5303L27.4697 20.0303C27.7626 20.3232 28.2374 20.3232 28.5303 20.0303C28.8232 19.7374 28.8232 19.2626 28.5303 18.9697L25.5607 16L28.5303 13.0303ZM23.5303 13.0303C23.8232 12.7374 23.8232 12.2626 23.5303 11.9697C23.2374 11.6768 22.7626 11.6768 22.4697 11.9697L18.9697 15.4697C18.6768 15.7626 18.6768 16.2374 18.9697 16.5303L22.4697 20.0303C22.7626 20.3232 23.2374 20.3232 23.5303 20.0303C23.8232 19.7374 23.8232 19.2626 23.5303 18.9697L20.5607 16L23.5303 13.0303Z" fill="black"/>
</svg>
