<svg width="48" height="32" viewBox="0 0 48 32" fill="none" xmlns="http://www.w3.org/2000/svg">
<path fill-rule="evenodd" clip-rule="evenodd" d="M18.1412 11.5806C17.8483 11.2877 17.3734 11.2877 17.0805 11.5806C16.7876 11.8735 16.7876 12.3483 17.0805 12.6412L20.4393 16L17.0857 19.3536C16.7928 19.6464 16.7928 20.1213 17.0857 20.4142C17.3786 20.7071 17.8535 20.7071 18.1464 20.4142L22.0303 16.5303C22.171 16.3897 22.25 16.1989 22.25 16C22.25 15.8011 22.1709 15.6103 22.0303 15.4697L18.1412 11.5806ZM29.8587 20.4194C30.1516 20.7123 30.6265 20.7123 30.9194 20.4194C31.2123 20.1265 31.2123 19.6517 30.9194 19.3588L27.5606 16L30.9141 12.6465C31.207 12.3536 31.207 11.8787 30.9141 11.5858C30.6213 11.2929 30.1464 11.2929 29.8535 11.5858L25.9696 15.4697C25.8289 15.6103 25.7499 15.8011 25.7499 16C25.7499 16.1989 25.8289 16.3897 25.9696 16.5303L29.8587 20.4194Z" fill="black"/>
</svg>
