<svg width="48" height="32" viewBox="0 0 48 32" fill="none" xmlns="http://www.w3.org/2000/svg">
<path fill-rule="evenodd" clip-rule="evenodd" d="M18.5 16C18.5 19.0376 20.9624 21.5 24 21.5C27.0376 21.5 29.5 19.0376 29.5 16C29.5 12.9624 27.0376 10.5 24 10.5C20.9624 10.5 18.5 12.9624 18.5 16ZM17 16C17 19.866 20.134 23 24 23C27.866 23 31 19.866 31 16C31 12.134 27.866 9 24 9C20.134 9 17 12.134 17 16ZM20.9696 18.2803C20.6767 17.9874 20.6767 17.5126 20.9696 17.2197L22.1893 16L20.9696 14.7803C20.6767 14.4874 20.6767 14.0126 20.9696 13.7197C21.2625 13.4268 21.7374 13.4268 22.0303 13.7197L23.7803 15.4697C23.9209 15.6103 23.9999 15.8011 23.9999 16C23.9999 16.1989 23.9209 16.3897 23.7803 16.5303L22.0303 18.2803C21.7374 18.5732 21.2625 18.5732 20.9696 18.2803ZM24.7196 17.2197C24.4267 17.5126 24.4267 17.9874 24.7196 18.2803C25.0125 18.5732 25.4874 18.5732 25.7803 18.2803L27.5303 16.5303C27.6709 16.3897 27.7499 16.1989 27.7499 16C27.7499 15.8011 27.6709 15.6103 27.5303 15.4697L25.7803 13.7197C25.4874 13.4268 25.0125 13.4268 24.7196 13.7197C24.4267 14.0126 24.4267 14.4874 24.7196 14.7803L25.9393 16L24.7196 17.2197Z" fill="black"/>
</svg>
