<svg width="48" height="56" viewBox="0 0 48 56" fill="none" xmlns="http://www.w3.org/2000/svg">
<path fill-rule="evenodd" clip-rule="evenodd" d="M24 21.5C20.9624 21.5 18.5 19.0376 18.5 16C18.5 12.9625 20.9624 10.5 24 10.5C27.0376 10.5 29.5 12.9625 29.5 16C29.5 19.0376 27.0376 21.5 24 21.5ZM24 23C20.134 23 17 19.866 17 16C17 12.134 20.134 9.00003 24 9.00003C27.866 9.00003 31 12.134 31 16C31 19.866 27.866 23 24 23ZM22.7197 17.9697C22.4268 18.2626 22.4268 18.7375 22.7197 19.0304C23.0126 19.3233 23.4875 19.3233 23.7804 19.0304L26.2804 16.5304C26.421 16.3897 26.5 16.1989 26.5 16C26.5 15.8011 26.421 15.6104 26.2804 15.4697L23.7804 12.9697C23.4875 12.6768 23.0126 12.6768 22.7197 12.9697C22.4268 13.2626 22.4268 13.7375 22.7197 14.0304L24.6894 16L22.7197 17.9697Z" fill="black"/>
<path fill-rule="evenodd" clip-rule="evenodd" d="M17 40C17 43.866 20.134 47 24 47C27.866 47 31 43.866 31 40C31 36.134 27.866 33 24 33C20.134 33 17 36.134 17 40ZM22.7197 41.9697C22.4268 42.2626 22.4268 42.7374 22.7197 43.0303C23.0126 43.3232 23.4875 43.3232 23.7804 43.0303L26.2804 40.5303C26.421 40.3897 26.5 40.1989 26.5 40C26.5 39.8011 26.421 39.6103 26.2804 39.4697L23.7804 36.9697C23.4875 36.6768 23.0126 36.6768 22.7197 36.9697C22.4268 37.2626 22.4268 37.7374 22.7197 38.0303L24.6894 40L22.7197 41.9697Z" fill="black"/>
</svg>
