<svg width="48" height="56" viewBox="0 0 48 56" fill="none" xmlns="http://www.w3.org/2000/svg">
<path fill-rule="evenodd" clip-rule="evenodd" d="M18.5 16C18.5 12.9625 20.9624 10.5 24 10.5C27.0376 10.5 29.5 12.9625 29.5 16C29.5 19.0376 27.0376 21.5 24 21.5C20.9624 21.5 18.5 19.0376 18.5 16ZM17 16C17 12.134 20.134 9.00003 24 9.00003C27.866 9.00003 31 12.134 31 16C31 19.866 27.866 23 24 23C20.134 23 17 19.866 17 16ZM22.0303 14.7197C21.7374 14.4268 21.2626 14.4268 20.9697 14.7197C20.6768 15.0126 20.6768 15.4875 20.9697 15.7804L23.4697 18.2804C23.6103 18.421 23.8011 18.5001 24 18.5001C24.1989 18.5001 24.3897 18.421 24.5303 18.2804L27.0303 15.7804C27.3232 15.4875 27.3232 15.0126 27.0303 14.7197C26.7374 14.4268 26.2626 14.4268 25.9697 14.7197L24 16.6894L22.0303 14.7197Z" fill="black"/>
<path fill-rule="evenodd" clip-rule="evenodd" d="M24 33C20.134 33 17 36.134 17 40C17 43.866 20.134 47 24 47C27.866 47 31 43.866 31 40C31 36.134 27.866 33 24 33ZM22.0303 38.7197C21.7374 38.4268 21.2626 38.4268 20.9697 38.7197C20.6768 39.0126 20.6768 39.4875 20.9697 39.7804L23.4697 42.2804C23.6103 42.421 23.8011 42.5 24 42.5C24.1989 42.5 24.3897 42.421 24.5303 42.2804L27.0303 39.7804C27.3232 39.4875 27.3232 39.0126 27.0303 38.7197C26.7374 38.4268 26.2626 38.4268 25.9697 38.7197L24 40.6894L22.0303 38.7197Z" fill="black"/>
</svg>
