<svg width="48" height="32" viewBox="0 0 48 32" fill="none" xmlns="http://www.w3.org/2000/svg">
<path fill-rule="evenodd" clip-rule="evenodd" d="M22.5758 19.8537C22.2335 19.949 21.8727 20 21.5 20C19.2909 20 17.5 18.2091 17.5 16C17.5 13.7909 19.2909 12 21.5 12C21.8727 12 22.2335 12.051 22.5758 12.1463C21.6012 13.1387 21 14.4992 21 16C21 17.5008 21.6012 18.8613 22.5758 19.8537ZM24 20.9003C23.2499 21.2837 22.4002 21.5 21.5 21.5C18.4624 21.5 16 19.0376 16 16C16 12.9624 18.4624 10.5 21.5 10.5C22.4002 10.5 23.2499 10.7163 24 11.0997C24.7501 10.7163 25.5998 10.5 26.5 10.5C29.5376 10.5 32 12.9624 32 16C32 19.0376 29.5376 21.5 26.5 21.5C25.5998 21.5 24.7501 21.2837 24 20.9003ZM25.4242 12.1463C25.7665 12.051 26.1273 12 26.5 12C28.7091 12 30.5 13.7909 30.5 16C30.5 18.2091 28.7091 20 26.5 20C26.1273 20 25.7665 19.949 25.4242 19.8537C26.3988 18.8613 27 17.5008 27 16C27 14.4992 26.3988 13.1387 25.4242 12.1463ZM24 12.8773C24.9145 13.6104 25.5 14.7368 25.5 16C25.5 17.2632 24.9145 18.3896 24 19.1227C23.0855 18.3896 22.5 17.2632 22.5 16C22.5 14.7368 23.0855 13.6104 24 12.8773Z" fill="black"/>
</svg>
