<svg width="48" height="56" viewBox="0 0 48 56" fill="none" xmlns="http://www.w3.org/2000/svg">
<path fill-rule="evenodd" clip-rule="evenodd" d="M29.5 16C29.5 19.0376 27.0376 21.5 24 21.5C20.9624 21.5 18.5 19.0376 18.5 16C18.5 12.9624 20.9624 10.5 24 10.5C27.0376 10.5 29.5 12.9624 29.5 16ZM31 16C31 19.866 27.866 23 24 23C20.134 23 17 19.866 17 16C17 12.134 20.134 9 24 9C27.866 9 31 12.134 31 16ZM27.0001 16.7501C27.4143 16.7501 27.7501 16.4143 27.7501 16.0001C27.7501 15.5858 27.4143 15.2501 27.0001 15.2501L22.8108 15.2501L23.5305 14.5304C23.8233 14.2375 23.8233 13.7626 23.5305 13.4697C23.2376 13.1768 22.7627 13.1768 22.4698 13.4697L20.4698 15.4697C20.1769 15.7626 20.1769 16.2375 20.4698 16.5304L22.4698 18.5304C22.7627 18.8233 23.2376 18.8233 23.5305 18.5304C23.8233 18.2375 23.8233 17.7626 23.5305 17.4697L22.8108 16.7501L27.0001 16.7501Z" fill="black"/>
<path fill-rule="evenodd" clip-rule="evenodd" d="M24 47C27.866 47 31 43.866 31 40C31 36.134 27.866 33 24 33C20.134 33 17 36.134 17 40C17 43.866 20.134 47 24 47ZM27.0001 40.7501C27.4143 40.7501 27.7501 40.4143 27.7501 40.0001C27.7501 39.5858 27.4143 39.2501 27.0001 39.2501L22.8108 39.2501L23.5305 38.5304C23.8233 38.2375 23.8233 37.7626 23.5305 37.4697C23.2376 37.1768 22.7627 37.1768 22.4698 37.4697L20.4698 39.4697C20.1769 39.7626 20.1769 40.2375 20.4698 40.5304L22.4698 42.5304C22.7627 42.8233 23.2376 42.8233 23.5305 42.5304C23.8233 42.2375 23.8233 41.7626 23.5305 41.4697L22.8108 40.7501L27.0001 40.7501Z" fill="black"/>
</svg>
