<svg width="48" height="32" viewBox="0 0 48 32" fill="none" xmlns="http://www.w3.org/2000/svg">
<path fill-rule="evenodd" clip-rule="evenodd" d="M29.5 16C29.5 19.0376 27.0376 21.5 24 21.5C20.9624 21.5 18.5 19.0376 18.5 16C18.5 12.9624 20.9624 10.5 24 10.5C27.0376 10.5 29.5 12.9624 29.5 16ZM31 16C31 19.866 27.866 23 24 23C20.134 23 17 19.866 17 16C17 12.134 20.134 9 24 9C27.866 9 31 12.134 31 16ZM25.5 16.0001C25.5 16.9234 25.2635 17.3956 25.0601 17.6216C24.8748 17.8275 24.565 18.0001 24 18.0001C23.435 18.0001 23.1252 17.8275 22.9399 17.6216C22.7365 17.3956 22.5 16.9234 22.5 16.0001C22.5 15.0768 22.7365 14.6046 22.9399 14.3785C23.1252 14.1726 23.435 14.0001 24 14.0001C24.565 14.0001 24.8748 14.1726 25.0601 14.3785C25.2635 14.6046 25.5 15.0768 25.5 16.0001ZM27 16.0001C27 18.3334 25.8 19.5001 24 19.5001C22.2 19.5001 21 18.3334 21 16.0001C21 13.6668 22.2 12.5001 24 12.5001C25.8 12.5001 27 13.6668 27 16.0001Z" fill="black"/>
</svg>
