<svg width="48" height="32" viewBox="0 0 48 32" fill="none" xmlns="http://www.w3.org/2000/svg">
<path fill-rule="evenodd" clip-rule="evenodd" d="M29.5 16C29.5 19.0376 27.0376 21.5 24 21.5C20.9624 21.5 18.5 19.0376 18.5 16C18.5 12.9624 20.9624 10.5 24 10.5C27.0376 10.5 29.5 12.9624 29.5 16ZM31 16C31 19.866 27.866 23 24 23C20.134 23 17 19.866 17 16C17 12.134 20.134 9 24 9C27.866 9 31 12.134 31 16ZM21.25 14.25C21.25 13.6977 21.6977 13.25 22.25 13.25H25.75C26.3023 13.25 26.75 13.6977 26.75 14.25V17.75C26.75 18.3023 26.3023 18.75 25.75 18.75H22.25C21.6977 18.75 21.25 18.3023 21.25 17.75V14.25Z" fill="black"/>
</svg>
