<svg width="48" height="32" viewBox="0 0 48 32" fill="none" xmlns="http://www.w3.org/2000/svg">
<path fill-rule="evenodd" clip-rule="evenodd" d="M24 21.5C27.0376 21.5 29.5 19.0376 29.5 16C29.5 12.9624 27.0376 10.5 24 10.5C20.9624 10.5 18.5 12.9624 18.5 16C18.5 19.0376 20.9624 21.5 24 21.5ZM24 23C27.866 23 31 19.866 31 16C31 12.134 27.866 9 24 9C20.134 9 17 12.134 17 16C17 19.866 20.134 23 24 23ZM25.4427 17.5636C25.4668 17.5154 25.5 17.4216 25.5 17.25C25.5 17.0784 25.4668 16.9846 25.4427 16.9364C25.4196 16.8901 25.3817 16.8392 25.3031 16.7831C25.1242 16.6553 24.7229 16.5 24 16.5C23.2771 16.5 22.8758 16.6553 22.6969 16.7831C22.6183 16.8392 22.5804 16.8901 22.5573 16.9364C22.5332 16.9846 22.5 17.0784 22.5 17.25C22.5 17.4216 22.5332 17.5154 22.5573 17.5636C22.5804 17.6099 22.6183 17.6608 22.6969 17.7169C22.8758 17.8447 23.2771 18 24 18C24.7229 18 25.1242 17.8447 25.3031 17.7169C25.3817 17.6608 25.4196 17.6099 25.4427 17.5636ZM21.7962 15.5834C21.289 15.9583 21 16.5138 21 17.25C21 18.75 22.2 19.5 24 19.5C25.8 19.5 27 18.75 27 17.25C27 16.5138 26.711 15.9583 26.2038 15.5834C26.3956 15.2919 26.5 14.9307 26.5 14.5C26.5 13.1667 25.5 12.5 24 12.5C22.5 12.5 21.5 13.1667 21.5 14.5C21.5 14.9307 21.6043 15.2919 21.7962 15.5834ZM24 15C24.5558 15 24.8169 14.8728 24.9034 14.8069C24.9384 14.7802 24.9521 14.7598 24.9621 14.7383C24.9737 14.7136 25 14.6439 25 14.5C25 14.3561 24.9737 14.2864 24.9621 14.2617C24.9521 14.2402 24.9384 14.2198 24.9034 14.1931C24.8169 14.1272 24.5558 14 24 14C23.4442 14 23.1831 14.1272 23.0966 14.1931C23.0616 14.2198 23.0479 14.2402 23.0379 14.2617C23.0263 14.2864 23 14.3561 23 14.5C23 14.6439 23.0263 14.7136 23.0379 14.7383C23.0479 14.7598 23.0616 14.7802 23.0966 14.8069C23.1831 14.8728 23.4442 15 24 15Z" fill="black"/>
</svg>
