<svg width="48" height="32" viewBox="0 0 48 32" fill="none" xmlns="http://www.w3.org/2000/svg">
<path fill-rule="evenodd" clip-rule="evenodd" d="M29.5 16C29.5 19.0376 27.0376 21.5 24 21.5C20.9624 21.5 18.5 19.0376 18.5 16C18.5 12.9624 20.9624 10.5 24 10.5C27.0376 10.5 29.5 12.9624 29.5 16ZM31 16C31 19.866 27.866 23 24 23C20.134 23 17 19.866 17 16C17 12.134 20.134 9 24 9C27.866 9 31 12.134 31 16ZM22.75 13C22.3358 13 22 13.3358 22 13.75V16.75V18.75C22 19.1642 22.3358 19.5 22.75 19.5C23.1642 19.5 23.5 19.1642 23.5 18.75V17.5H24.5C25.7426 17.5 26.75 16.4926 26.75 15.25C26.75 14.0074 25.7426 13 24.5 13H22.75ZM25.25 15.25C25.25 15.6642 24.9142 16 24.5 16H23.5V14.5H24.5C24.9142 14.5 25.25 14.8358 25.25 15.25Z" fill="black"/>
</svg>
