<svg width="48" height="56" viewBox="0 0 48 56" fill="none" xmlns="http://www.w3.org/2000/svg">
<path fill-rule="evenodd" clip-rule="evenodd" d="M29.5 16C29.5 19.0376 27.0376 21.5 24 21.5C20.9624 21.5 18.5 19.0376 18.5 16C18.5 12.9625 20.9624 10.5 24 10.5C27.0376 10.5 29.5 12.9625 29.5 16ZM31 16C31 19.866 27.866 23 24 23C20.134 23 17 19.866 17 16C17 12.134 20.134 9.00003 24 9.00003C27.866 9.00003 31 12.134 31 16ZM25.9697 17.2803C26.2626 17.5732 26.7374 17.5732 27.0303 17.2803C27.3232 16.9874 27.3232 16.5126 27.0303 16.2197L24.5303 13.7197C24.3897 13.579 24.1989 13.5 24 13.5C23.8011 13.5 23.6103 13.579 23.4697 13.7197L20.9697 16.2197C20.6768 16.5126 20.6768 16.9874 20.9697 17.2803C21.2626 17.5732 21.7374 17.5732 22.0303 17.2803L24 15.3107L25.9697 17.2803Z" fill="black"/>
<path fill-rule="evenodd" clip-rule="evenodd" d="M24 47.0001C27.866 47.0001 31 43.8661 31 40.0001C31 36.1341 27.866 33.0001 24 33.0001C20.134 33.0001 17 36.1341 17 40.0001C17 43.8661 20.134 47.0001 24 47.0001ZM25.9697 41.2804C26.2626 41.5733 26.7374 41.5733 27.0303 41.2804C27.3232 40.9875 27.3232 40.5126 27.0303 40.2197L24.5303 37.7197C24.3897 37.579 24.1989 37.5 24 37.5C23.8011 37.5 23.6103 37.579 23.4697 37.7197L20.9697 40.2197C20.6768 40.5126 20.6768 40.9875 20.9697 41.2804C21.2626 41.5733 21.7374 41.5733 22.0303 41.2804L24 39.3107L25.9697 41.2804Z" fill="black"/>
</svg>
