<svg width="48" height="56" viewBox="0 0 48 56" fill="none" xmlns="http://www.w3.org/2000/svg">
<path fill-rule="evenodd" clip-rule="evenodd" d="M29.5 16C29.5 19.0376 27.0376 21.5 24 21.5C20.9624 21.5 18.5 19.0376 18.5 16C18.5 12.9625 20.9624 10.5 24 10.5C27.0376 10.5 29.5 12.9625 29.5 16ZM31 16C31 19.866 27.866 23 24 23C20.134 23 17 19.866 17 16C17 12.134 20.134 9.00003 24 9.00003C27.866 9.00003 31 12.134 31 16ZM23.25 19C23.25 19.4142 23.5858 19.75 24 19.75C24.4142 19.75 24.75 19.4142 24.75 19L24.75 14.8107L25.4697 15.5304C25.7626 15.8233 26.2374 15.8233 26.5303 15.5304C26.8232 15.2375 26.8232 14.7626 26.5303 14.4697L24.5303 12.4697C24.2374 12.1768 23.7626 12.1768 23.4697 12.4697L21.4697 14.4697C21.1768 14.7626 21.1768 15.2375 21.4697 15.5304C21.7626 15.8233 22.2374 15.8233 22.5303 15.5304L23.25 14.8107L23.25 19Z" fill="black"/>
<path fill-rule="evenodd" clip-rule="evenodd" d="M24 47C27.866 47 31 43.866 31 40C31 36.134 27.866 33 24 33C20.134 33 17 36.134 17 40C17 43.866 20.134 47 24 47ZM23.25 43C23.25 43.4142 23.5858 43.75 24 43.75C24.4142 43.75 24.75 43.4142 24.75 43L24.75 38.8107L25.4697 39.5304C25.7626 39.8233 26.2374 39.8233 26.5303 39.5304C26.8232 39.2375 26.8232 38.7626 26.5303 38.4697L24.5303 36.4697C24.2374 36.1768 23.7626 36.1768 23.4697 36.4697L21.4697 38.4697C21.1768 38.7626 21.1768 39.2375 21.4697 39.5304C21.7626 39.8233 22.2374 39.8233 22.5303 39.5304L23.25 38.8107L23.25 43Z" fill="black"/>
</svg>
