<svg width="48" height="56" viewBox="0 0 48 56" fill="none" xmlns="http://www.w3.org/2000/svg">
<path fill-rule="evenodd" clip-rule="evenodd" d="M29.5 16C29.5 19.0376 27.0376 21.5 24 21.5C20.9624 21.5 18.5 19.0376 18.5 16C18.5 12.9624 20.9624 10.5 24 10.5C27.0376 10.5 29.5 12.9624 29.5 16ZM31 16C31 19.866 27.866 23 24 23C20.134 23 17 19.866 17 16C17 12.134 20.134 9 24 9C27.866 9 31 12.134 31 16ZM24.75 13C24.75 12.5858 24.4142 12.25 24 12.25C23.5858 12.25 23.25 12.5858 23.25 13V17.1894L22.5303 16.4697C22.2374 16.1768 21.7626 16.1768 21.4697 16.4697C21.1768 16.7626 21.1768 17.2375 21.4697 17.5304L23.4697 19.5304C23.7626 19.8233 24.2374 19.8233 24.5303 19.5304L26.5303 17.5304C26.8232 17.2375 26.8232 16.7626 26.5303 16.4697C26.2374 16.1768 25.7626 16.1768 25.4697 16.4697L24.75 17.1894V13Z" fill="black"/>
<path fill-rule="evenodd" clip-rule="evenodd" d="M24 47C27.866 47 31 43.866 31 40C31 36.134 27.866 33 24 33C20.134 33 17 36.134 17 40C17 43.866 20.134 47 24 47ZM24.75 37C24.75 36.5858 24.4142 36.25 24 36.25C23.5858 36.25 23.25 36.5858 23.25 37V41.1894L22.5303 40.4697C22.2374 40.1768 21.7626 40.1768 21.4697 40.4697C21.1768 40.7626 21.1768 41.2375 21.4697 41.5304L23.4697 43.5304C23.7626 43.8233 24.2374 43.8233 24.5303 43.5304L26.5303 41.5304C26.8232 41.2375 26.8232 40.7626 26.5303 40.4697C26.2374 40.1768 25.7626 40.1768 25.4697 40.4697L24.75 41.1894V37Z" fill="black"/>
</svg>
