<svg width="48" height="32" viewBox="0 0 48 32" fill="none" xmlns="http://www.w3.org/2000/svg">
<path fill-rule="evenodd" clip-rule="evenodd" d="M17.0687 13.55C17.4741 13.8336 17.9676 14 18.5 14C19.3483 14 20.098 13.5774 20.55 12.9313C20.8336 12.5259 21 12.0324 21 11.5C21 10.1193 19.8807 9 18.5 9C17.1193 9 16 10.1193 16 11.5C16 12.3483 16.4226 13.098 17.0687 13.55ZM18.5 12.5C19.0523 12.5 19.5 12.0523 19.5 11.5C19.5 10.9477 19.0523 10.5 18.5 10.5C17.9477 10.5 17.5 10.9477 17.5 11.5C17.5 12.0523 17.9477 12.5 18.5 12.5ZM29.5 14C28.9676 14 28.4741 13.8336 28.0687 13.55C27.4226 13.098 27 12.3483 27 11.5C27 10.1193 28.1193 9 29.5 9C30.8807 9 32 10.1193 32 11.5C32 12.0324 31.8336 12.5259 31.55 12.9313C31.098 13.5774 30.3483 14 29.5 14ZM30.5 11.5C30.5 12.0523 30.0523 12.5 29.5 12.5C28.9477 12.5 28.5 12.0523 28.5 11.5C28.5 10.9477 28.9477 10.5 29.5 10.5C30.0523 10.5 30.5 10.9477 30.5 11.5ZM22.0687 16.55C22.4741 16.8336 22.9676 17 23.5 17C24.3483 17 25.098 16.5774 25.55 15.9313C25.8336 15.5259 26 15.0324 26 14.5C26 13.1193 24.8807 12 23.5 12C22.1193 12 21 13.1193 21 14.5C21 15.3483 21.4226 16.098 22.0687 16.55ZM23.5 15.5C24.0523 15.5 24.5 15.0523 24.5 14.5C24.5 13.9477 24.0523 13.5 23.5 13.5C22.9477 13.5 22.5 13.9477 22.5 14.5C22.5 15.0523 22.9477 15.5 23.5 15.5ZM28 22C27.4676 22 26.9741 21.8336 26.5687 21.55C25.9226 21.098 25.5 20.3483 25.5 19.5C25.5 18.1193 26.6193 17 28 17C29.3807 17 30.5 18.1193 30.5 19.5C30.5 20.0324 30.3336 20.5259 30.05 20.9313C29.598 21.5774 28.8483 22 28 22ZM29 19.5C29 20.0523 28.5523 20.5 28 20.5C27.4477 20.5 27 20.0523 27 19.5C27 18.9477 27.4477 18.5 28 18.5C28.5523 18.5 29 18.9477 29 19.5ZM20.5 24C19.9676 24 19.4741 23.8336 19.0687 23.55C18.4226 23.098 18 22.3483 18 21.5C18 20.1193 19.1193 19 20.5 19C21.8807 19 23 20.1193 23 21.5C23 22.0324 22.8336 22.5259 22.55 22.9313C22.098 23.5774 21.3483 24 20.5 24ZM21.5 21.5C21.5 22.0523 21.0523 22.5 20.5 22.5C19.9477 22.5 19.5 22.0523 19.5 21.5C19.5 20.9477 19.9477 20.5 20.5 20.5C21.0523 20.5 21.5 20.9477 21.5 21.5Z" fill="black"/>
</svg>
