<svg width="48" height="56" viewBox="0 0 48 56" fill="none" xmlns="http://www.w3.org/2000/svg">
<path fill-rule="evenodd" clip-rule="evenodd" d="M24.0001 21.4999C27.0377 21.4999 29.5001 19.0375 29.5001 15.9999C29.5001 12.9624 27.0377 10.4999 24.0001 10.4999C20.9626 10.4999 18.5001 12.9624 18.5001 15.9999C18.5001 19.0375 20.9626 21.4999 24.0001 21.4999ZM24.0001 22.9999C27.8661 22.9999 31.0001 19.8659 31.0001 15.9999C31.0001 12.1339 27.8661 8.99994 24.0001 8.99994C20.1341 8.99994 17.0001 12.1339 17.0001 15.9999C17.0001 19.8659 20.1341 22.9999 24.0001 22.9999ZM22.4403 12.5394C22.8703 12.1862 23.4345 11.9748 24.0001 11.9748C25.2173 11.9748 26.3396 12.7951 26.3396 14.1156C26.3396 14.4918 26.2616 14.8601 26.0422 15.2158C25.8338 15.5538 25.5291 15.8288 25.1672 16.0823C24.9497 16.2346 24.8415 16.339 24.7884 16.4103C24.7501 16.4616 24.7501 16.4807 24.7501 16.4989L24.7501 16.4997C24.7501 16.9139 24.4143 17.2497 24.0001 17.2497C23.5859 17.2497 23.2501 16.9139 23.2501 16.4997C23.2501 15.705 23.7938 15.213 24.3066 14.8537C24.5863 14.6578 24.7079 14.5218 24.7654 14.4285C24.812 14.353 24.8396 14.2698 24.8396 14.1156C24.8396 13.8164 24.5959 13.4748 24.0001 13.4748C23.795 13.4748 23.5645 13.5571 23.3924 13.6985C23.225 13.836 23.1607 13.9852 23.1607 14.1156C23.1607 14.5298 22.8249 14.8656 22.4107 14.8656C21.9965 14.8656 21.6607 14.5298 21.6607 14.1156C21.6607 13.4425 22.0057 12.8964 22.4403 12.5394ZM24.0001 19.9999C24.5524 19.9999 25.0001 19.5522 25.0001 18.9999C25.0001 18.4477 24.5524 17.9999 24.0001 17.9999C23.4478 17.9999 23.0001 18.4477 23.0001 18.9999C23.0001 19.5522 23.4478 19.9999 24.0001 19.9999Z" fill="black"/>
<path fill-rule="evenodd" clip-rule="evenodd" d="M24 47C27.866 47 31 43.866 31 40C31 36.134 27.866 33 24 33C20.134 33 17 36.134 17 40C17 43.866 20.134 47 24 47ZM22.4402 36.5394C22.8701 36.1863 23.4343 35.9749 24 35.9749C25.2172 35.9749 26.3394 36.7952 26.3394 38.1156C26.3394 38.4918 26.2615 38.8601 26.0421 39.2159C25.8336 39.5538 25.5289 39.8288 25.1671 40.0823C24.9496 40.2347 24.8414 40.3391 24.7883 40.4103C24.75 40.4617 24.75 40.4808 24.75 40.4989L24.75 40.4998C24.75 40.914 24.4142 41.2498 24 41.2498C23.5858 41.2498 23.25 40.914 23.25 40.4998C23.25 39.7051 23.7937 39.213 24.3064 38.8538C24.5862 38.6578 24.7078 38.5218 24.7653 38.4285C24.8119 38.3531 24.8394 38.2699 24.8394 38.1156C24.8394 37.8164 24.5958 37.4749 24 37.4749C23.7949 37.4749 23.5644 37.5572 23.3923 37.6985C23.2249 37.8361 23.1606 37.9853 23.1606 38.1156C23.1606 38.5299 22.8248 38.8656 22.4106 38.8656C21.9964 38.8656 21.6606 38.5299 21.6606 38.1156C21.6606 37.4426 22.0056 36.8964 22.4402 36.5394ZM25 43C25 43.5523 24.5523 44 24 44C23.4477 44 23 43.5523 23 43C23 42.4477 23.4477 42 24 42C24.5523 42 25 42.4477 25 43Z" fill="black"/>
</svg>
