<svg width="48" height="32" viewBox="0 0 48 32" fill="none" xmlns="http://www.w3.org/2000/svg">
<path fill-rule="evenodd" clip-rule="evenodd" d="M29.5 16C29.5 19.0376 27.0376 21.5 24 21.5C20.9624 21.5 18.5 19.0376 18.5 16C18.5 12.9624 20.9624 10.5 24 10.5C27.0376 10.5 29.5 12.9624 29.5 16ZM31 16C31 19.866 27.866 23 24 23C20.134 23 17 19.866 17 16C17 12.134 20.134 9 24 9C27.866 9 31 12.134 31 16ZM23.25 19.0311L27 16.866C27.6667 16.4811 27.6667 15.5189 27 15.134L23.25 12.9689C22.5833 12.584 21.75 13.0651 21.75 13.8349L21.75 18.1651C21.75 18.9349 22.5833 19.416 23.25 19.0311Z" fill="black"/>
</svg>
