<svg width="48" height="32" viewBox="0 0 48 32" fill="none" xmlns="http://www.w3.org/2000/svg">
<path fill-rule="evenodd" clip-rule="evenodd" d="M29.5 16C29.5 19.0376 27.0376 21.5 24 21.5C20.9624 21.5 18.5 19.0376 18.5 16C18.5 12.9624 20.9624 10.5 24 10.5C27.0376 10.5 29.5 12.9624 29.5 16ZM31 16C31 19.866 27.866 23 24 23C20.134 23 17 19.866 17 16C17 12.134 20.134 9 24 9C27.866 9 31 12.134 31 16ZM22.5001 13C22.0859 13 21.7501 13.3358 21.7501 13.75C21.7501 14.1642 22.0859 14.5 22.5001 14.5H24.6744L23.2962 18.2407C23.153 18.6294 23.352 19.0606 23.7407 19.2038C24.1294 19.347 24.5606 19.148 24.7038 18.7593L26.4538 14.0093C26.5385 13.7792 26.5055 13.5222 26.3652 13.321C26.2249 13.1199 25.9952 13 25.75 13H22.5001Z" fill="black"/>
</svg>
