<svg width="48" height="56" viewBox="0 0 48 56" fill="none" xmlns="http://www.w3.org/2000/svg">
<path fill-rule="evenodd" clip-rule="evenodd" d="M24 10.5C27.0376 10.5 29.5 12.9625 29.5 16C29.5 19.0376 27.0376 21.5 24 21.5C20.9624 21.5 18.5 19.0376 18.5 16C18.5 12.9625 20.9624 10.5 24 10.5ZM24 9.00003C27.866 9.00003 31 12.134 31 16C31 19.866 27.866 23 24 23C20.134 23 17 19.866 17 16C17 12.134 20.134 9.00003 24 9.00003ZM25.2803 14.0304C25.5732 13.7375 25.5732 13.2626 25.2803 12.9697C24.9874 12.6768 24.5125 12.6768 24.2196 12.9697L21.7196 15.4697C21.579 15.6104 21.5 15.8011 21.5 16C21.5 16.1989 21.579 16.3897 21.7196 16.5304L24.2196 19.0304C24.5125 19.3233 24.9874 19.3233 25.2803 19.0304C25.5732 18.7375 25.5732 18.2626 25.2803 17.9697L23.3106 16L25.2803 14.0304Z" fill="black"/>
<path fill-rule="evenodd" clip-rule="evenodd" d="M31 40C31 36.134 27.866 33 24 33C20.134 33 17 36.134 17 40C17 43.866 20.134 47 24 47C27.866 47 31 43.866 31 40ZM25.2803 38.0303C25.5732 37.7374 25.5732 37.2626 25.2803 36.9697C24.9874 36.6768 24.5125 36.6768 24.2196 36.9697L21.7196 39.4697C21.579 39.6103 21.5 39.8011 21.5 40C21.5 40.1989 21.579 40.3897 21.7196 40.5303L24.2196 43.0303C24.5125 43.3232 24.9874 43.3232 25.2803 43.0303C25.5732 42.7374 25.5732 42.2626 25.2803 41.9697L23.3106 40L25.2803 38.0303Z" fill="black"/>
</svg>
