<svg width="48" height="32" viewBox="0 0 48 32" fill="none" xmlns="http://www.w3.org/2000/svg">
<path fill-rule="evenodd" clip-rule="evenodd" d="M19.0472 15.1254C19.4776 15.3641 19.9729 15.5 20.5 15.5C21.6298 15.5 22.6137 14.8755 23.1254 13.9528C23.3641 13.5224 23.5 13.0271 23.5 12.5C23.5 10.8431 22.1569 9.5 20.5 9.5C18.8431 9.5 17.5 10.8431 17.5 12.5C17.5 13.6298 18.1245 14.6137 19.0472 15.1254ZM20.5 14C21.3284 14 22 13.3284 22 12.5C22 11.6716 21.3284 11 20.5 11C19.6716 11 19 11.6716 19 12.5C19 13.3284 19.6716 14 20.5 14ZM19.0472 22.1254C19.4776 22.3641 19.9729 22.5 20.5 22.5C21.6298 22.5 22.6137 21.8755 23.1254 20.9528C23.3641 20.5224 23.5 20.0271 23.5 19.5C23.5 17.8431 22.1569 16.5 20.5 16.5C18.8431 16.5 17.5 17.8431 17.5 19.5C17.5 20.6298 18.1245 21.6137 19.0472 22.1254ZM20.5 21C21.3284 21 22 20.3284 22 19.5C22 18.6716 21.3284 18 20.5 18C19.6716 18 19 18.6716 19 19.5C19 20.3284 19.6716 21 20.5 21ZM27.5 22.5C26.9729 22.5 26.4776 22.3641 26.0472 22.1254C25.1245 21.6137 24.5 20.6298 24.5 19.5C24.5 17.8431 25.8431 16.5 27.5 16.5C29.1569 16.5 30.5 17.8431 30.5 19.5C30.5 20.0271 30.3641 20.5224 30.1254 20.9528C29.6137 21.8755 28.6298 22.5 27.5 22.5ZM29 19.5C29 20.3284 28.3284 21 27.5 21C26.6716 21 26 20.3284 26 19.5C26 18.6716 26.6716 18 27.5 18C28.3284 18 29 18.6716 29 19.5ZM28.2501 10.25C28.2501 9.83579 27.9143 9.5 27.5001 9.5C27.0859 9.5 26.7501 9.83579 26.7501 10.25V11.7513H25.2488C24.8346 11.7513 24.4988 12.0871 24.4988 12.5013C24.4988 12.9155 24.8346 13.2513 25.2488 13.2513H26.7501V14.7526C26.7501 15.1668 27.0859 15.5026 27.5001 15.5026C27.9143 15.5026 28.2501 15.1668 28.2501 14.7526V13.2513H29.7514C30.1656 13.2513 30.5014 12.9155 30.5014 12.5013C30.5014 12.0871 30.1656 11.7513 29.7514 11.7513H28.2501V10.25Z" fill="black"/>
</svg>
