<svg width="48" height="32" viewBox="0 0 48 32" fill="none" xmlns="http://www.w3.org/2000/svg">
<path fill-rule="evenodd" clip-rule="evenodd" d="M29.5 16C29.5 19.0376 27.0376 21.5 24 21.5C20.9624 21.5 18.5 19.0376 18.5 16C18.5 12.9624 20.9624 10.5 24 10.5C27.0376 10.5 29.5 12.9624 29.5 16ZM31 16C31 19.866 27.866 23 24 23C20.134 23 17 19.866 17 16C17 12.134 20.134 9 24 9C27.866 9 31 12.134 31 16ZM24.75 12.25C24.75 11.8358 24.4142 11.5 24 11.5C23.5858 11.5 23.25 11.8358 23.25 12.25V12.5887C22.8683 12.6765 22.5265 12.832 22.2429 13.0598C21.7586 13.4487 21.5034 14.0037 21.5034 14.6046C21.5034 15.3689 21.977 15.87 22.4434 16.1637C22.8994 16.4509 23.4495 16.6124 23.8912 16.7105C24.353 16.8131 24.7344 16.9022 25.0094 17.0524C25.237 17.1768 25.284 17.2759 25.284 17.4277C25.2839 17.5301 25.2432 17.6447 25.0356 17.7694C24.8117 17.9039 24.4594 17.9976 24.0538 17.9976C23.7098 17.9976 23.3715 17.8838 23.1014 17.7076C22.8199 17.524 22.6817 17.3201 22.6444 17.2022C22.5198 16.8072 22.0985 16.588 21.7035 16.7127C21.3085 16.8373 21.0893 17.2586 21.214 17.6536C21.3855 18.1971 21.8054 18.6531 22.2819 18.9639C22.5658 19.1491 22.8942 19.2994 23.25 19.3928V19.75C23.25 20.1642 23.5858 20.5 24 20.5C24.4142 20.5 24.75 20.1642 24.75 19.75V19.437C25.125 19.3702 25.4902 19.2462 25.8082 19.0551C26.3386 18.7364 26.7838 18.1911 26.784 17.428C26.7841 16.5637 26.2744 16.0343 25.7286 15.7361C25.2513 15.4753 24.6727 15.3472 24.2687 15.2578L24.2687 15.2578L24.2164 15.2462C23.83 15.1604 23.4799 15.0438 23.2428 14.8944C23.016 14.7516 23.0034 14.6578 23.0034 14.6046C23.0034 14.4482 23.0603 14.3272 23.1821 14.2293C23.3172 14.1209 23.5856 14.0024 24.0538 14.0024C24.5221 14.0024 24.7948 14.1114 24.9535 14.2196C25.112 14.3276 25.2101 14.4711 25.2692 14.6308C25.4129 15.0193 25.8443 15.2178 26.2328 15.0741C26.6213 14.9304 26.8197 14.499 26.676 14.1105C26.5264 13.7058 26.2531 13.2902 25.7984 12.9802C25.5029 12.7787 25.1532 12.6372 24.75 12.5629V12.25Z" fill="black"/>
</svg>
