<svg width="48" height="32" viewBox="0 0 48 32" fill="none" xmlns="http://www.w3.org/2000/svg">
<path fill-rule="evenodd" clip-rule="evenodd" d="M24 10.5C20.9624 10.5 18.5 12.9624 18.5 16C18.5 19.0376 20.9624 21.5 24 21.5C27.0376 21.5 29.5 19.0376 29.5 16C29.5 12.9624 27.0376 10.5 24 10.5ZM24 9C20.134 9 17 12.134 17 16C17 19.866 20.134 23 24 23C27.866 23 31 19.866 31 16C31 12.134 27.866 9 24 9ZM21.7197 12.9696C22.0126 12.6767 22.4874 12.6767 22.7803 12.9696L24 14.1893L25.2197 12.9696C25.5126 12.6767 25.9874 12.6767 26.2803 12.9696C26.5732 13.2625 26.5732 13.7374 26.2803 14.0303L24.5303 15.7803C24.3897 15.9209 24.1989 15.9999 24 15.9999C23.8011 15.9999 23.6103 15.9209 23.4697 15.7803L21.7197 14.0303C21.4268 13.7374 21.4268 13.2625 21.7197 12.9696ZM22.7803 16.7196C22.4874 16.4267 22.0126 16.4267 21.7197 16.7196C21.4268 17.0125 21.4268 17.4874 21.7197 17.7803L23.4697 19.5303C23.6103 19.6709 23.8011 19.7499 24 19.7499C24.1989 19.7499 24.3897 19.6709 24.5303 19.5303L26.2803 17.7803C26.5732 17.4874 26.5732 17.0125 26.2803 16.7196C25.9874 16.4267 25.5126 16.4267 25.2197 16.7196L24 17.9393L22.7803 16.7196Z" fill="black"/>
</svg>
