<svg width="48" height="32" viewBox="0 0 48 32" fill="none" xmlns="http://www.w3.org/2000/svg">
<path fill-rule="evenodd" clip-rule="evenodd" d="M24 21.5C27.0376 21.5 29.5 19.0376 29.5 16C29.5 12.9624 27.0376 10.5 24 10.5C20.9624 10.5 18.5 12.9624 18.5 16C18.5 19.0376 20.9624 21.5 24 21.5ZM24 23C27.866 23 31 19.866 31 16C31 12.134 27.866 9 24 9C20.134 9 17 12.134 17 16C17 19.866 20.134 23 24 23Z" fill="black"/>
<path fill-rule="evenodd" clip-rule="evenodd" d="M25.4913 16.8098C25.0283 16.9733 24.4928 17.0769 23.9635 17.0987C23.3408 17.1244 22.645 17.0401 22.0642 16.7281C21.4436 16.3947 20.9793 15.8078 20.9203 14.962C20.8224 13.5602 22.151 12.6206 23.7563 12.5085C24.6395 12.4469 25.4598 12.6792 26.0709 13.2984C26.6652 13.9004 26.9633 14.7697 27.0344 15.7882C27.1064 16.8191 26.9104 17.7208 26.3987 18.3952C25.8765 19.0834 25.1036 19.4315 24.2438 19.4915C23.0768 19.5729 22.4339 19.3093 21.8738 19.0764C21.4913 18.9175 21.3101 18.4785 21.4691 18.096C21.6281 17.7135 22.067 17.5324 22.4495 17.6913L22.4612 17.6962C22.9282 17.8904 23.3181 18.0524 24.1394 17.9952C24.6513 17.9594 24.9897 17.7705 25.2038 17.4884C25.3257 17.3277 25.4302 17.1063 25.4913 16.8098ZM25.1575 15.3309C25.2767 15.2796 25.3665 15.2295 25.4298 15.1865C25.3279 14.7894 25.1723 14.5232 25.0034 14.3521C24.766 14.1116 24.4114 13.9665 23.8608 14.0049C22.5988 14.093 22.4052 14.6938 22.4166 14.8576C22.4359 15.1341 22.556 15.2895 22.774 15.4067C23.0319 15.5452 23.429 15.6195 23.9017 15.6C24.366 15.5808 24.8242 15.4741 25.1575 15.3309Z" fill="black"/>
</svg>
