<svg width="48" height="32" viewBox="0 0 48 32" fill="none" xmlns="http://www.w3.org/2000/svg">
<path fill-rule="evenodd" clip-rule="evenodd" d="M22.5687 15.0884C23.042 14.9575 23.5834 14.8915 24.113 14.9066C24.7359 14.9243 25.4242 15.0569 25.9818 15.4086C26.5777 15.7844 27 16.4022 27 17.25C27 18.6553 25.6092 19.5 23.9999 19.5C23.1146 19.5 22.3125 19.2111 21.746 18.5509C21.1951 17.9089 20.9583 17.021 20.9583 16C20.9583 14.9666 21.2166 14.0807 21.774 13.4436C22.3429 12.7935 23.1381 12.5 24 12.5C25.1699 12.5001 25.7929 12.8079 26.3354 13.0792C26.7059 13.2644 26.8561 13.7149 26.6708 14.0854C26.4856 14.4559 26.0351 14.6061 25.6646 14.4208L25.6533 14.4152C25.2009 14.1889 24.8233 14.0001 23.9999 14C23.4869 14 23.1361 14.1649 22.9029 14.4314C22.77 14.5832 22.6504 14.7968 22.5687 15.0884ZM24.0702 16.4059C23.6057 16.3927 23.1413 16.4673 22.7988 16.5869C22.6763 16.6297 22.5832 16.6735 22.5171 16.712C22.5911 17.1153 22.7277 17.3916 22.8843 17.5741C23.1044 17.8305 23.448 18 23.9999 18C25.265 18 25.5 17.4141 25.5 17.25C25.5 16.9728 25.3911 16.8094 25.1817 16.6774C24.9341 16.5212 24.5432 16.4194 24.0702 16.4059Z" fill="black"/>
<path fill-rule="evenodd" clip-rule="evenodd" d="M24 21.5C27.0376 21.5 29.5 19.0376 29.5 16C29.5 12.9624 27.0376 10.5 24 10.5C20.9624 10.5 18.5 12.9624 18.5 16C18.5 19.0376 20.9624 21.5 24 21.5ZM24 23C27.866 23 31 19.866 31 16C31 12.134 27.866 9 24 9C20.134 9 17 12.134 17 16C17 19.866 20.134 23 24 23Z" fill="black"/>
</svg>
