<svg width="48" height="56" viewBox="0 0 48 56" fill="none" xmlns="http://www.w3.org/2000/svg">
<path fill-rule="evenodd" clip-rule="evenodd" d="M24 21.5C27.0376 21.5 29.5 19.0376 29.5 16C29.5 12.9624 27.0376 10.5 24 10.5C20.9624 10.5 18.5 12.9624 18.5 16C18.5 19.0376 20.9624 21.5 24 21.5ZM24 23C27.866 23 31 19.866 31 16C31 12.134 27.866 9 24 9C20.134 9 17 12.134 17 16C17 19.866 20.134 23 24 23ZM25 18.5C25 19.0523 24.5523 19.5 24 19.5C23.4477 19.5 23 19.0523 23 18.5C23 17.9477 23.4477 17.5 24 17.5C24.5523 17.5 25 17.9477 25 18.5ZM24.75 13C24.75 12.5858 24.4142 12.25 24 12.25C23.5858 12.25 23.25 12.5858 23.25 13V15.5C23.25 15.9142 23.5858 16.25 24 16.25C24.4142 16.25 24.75 15.9142 24.75 15.5V13Z" fill="black"/>
<path fill-rule="evenodd" clip-rule="evenodd" d="M31 40C31 43.866 27.866 47 24 47C20.134 47 17 43.866 17 40C17 36.134 20.134 33 24 33C27.866 33 31 36.134 31 40ZM25 42.5C25 43.0523 24.5523 43.5 24 43.5C23.4477 43.5 23 43.0523 23 42.5C23 41.9477 23.4477 41.5 24 41.5C24.5523 41.5 25 41.9477 25 42.5ZM24.75 37C24.75 36.5858 24.4142 36.25 24 36.25C23.5858 36.25 23.25 36.5858 23.25 37V39.5C23.25 39.9142 23.5858 40.25 24 40.25C24.4142 40.25 24.75 39.9142 24.75 39.5V37Z" fill="black"/>
</svg>
