<svg width="48" height="32" viewBox="0 0 48 32" fill="none" xmlns="http://www.w3.org/2000/svg">
<path fill-rule="evenodd" clip-rule="evenodd" d="M29.5 16C29.5 19.0376 27.0376 21.5 24 21.5C20.9624 21.5 18.5 19.0376 18.5 16C18.5 12.9624 20.9624 10.5 24 10.5C27.0376 10.5 29.5 12.9624 29.5 16ZM31 16C31 19.866 27.866 23 24 23C20.134 23 17 19.866 17 16C17 12.134 20.134 9 24 9C27.866 9 31 12.134 31 16ZM22 13C21.5858 13 21.25 13.3358 21.25 13.75C21.25 14.1642 21.5858 14.5 22 14.5H23.25V18.75C23.25 19.1642 23.5858 19.5 24 19.5C24.4142 19.5 24.75 19.1642 24.75 18.75V14.5H26C26.4142 14.5 26.75 14.1642 26.75 13.75C26.75 13.3358 26.4142 13 26 13H24H22Z" fill="black"/>
</svg>
