<svg width="48" height="56" viewBox="0 0 48 56" fill="none" xmlns="http://www.w3.org/2000/svg">
<path fill-rule="evenodd" clip-rule="evenodd" d="M29.5 16C29.5 19.0376 27.0376 21.5 24 21.5C20.9624 21.5 18.5 19.0376 18.5 16C18.5 12.9624 20.9624 10.5 24 10.5C27.0376 10.5 29.5 12.9624 29.5 16ZM31 16C31 19.866 27.866 23 24 23C20.134 23 17 19.866 17 16C17 12.134 20.134 9 24 9C27.866 9 31 12.134 31 16ZM27.1 14.45C27.3485 14.1186 27.2814 13.6485 26.95 13.4C26.6186 13.1515 26.1485 13.2186 25.9 13.55L23.4189 16.8582L22.0303 15.4697C21.7374 15.1768 21.2626 15.1768 20.9697 15.4697C20.6768 15.7626 20.6768 16.2374 20.9697 16.5303L22.9697 18.5303C23.1234 18.6841 23.3363 18.7635 23.5532 18.7481C23.77 18.7327 23.9695 18.6239 24.1 18.45L27.1 14.45Z" fill="black"/>
<path fill-rule="evenodd" clip-rule="evenodd" d="M24 47C27.866 47 31 43.866 31 40C31 36.134 27.866 33 24 33C20.134 33 17 36.134 17 40C17 43.866 20.134 47 24 47ZM27.1 38.45C27.3485 38.1186 27.2814 37.6485 26.95 37.4C26.6186 37.1515 26.1485 37.2186 25.9 37.55L23.4189 40.8582L22.0303 39.4697C21.7374 39.1768 21.2626 39.1768 20.9697 39.4697C20.6768 39.7626 20.6768 40.2374 20.9697 40.5303L22.9697 42.5303C23.1234 42.6841 23.3363 42.7635 23.5532 42.7481C23.77 42.7327 23.9695 42.6239 24.1 42.45L27.1 38.45Z" fill="black"/>
</svg>
