<svg width="48" height="32" viewBox="0 0 48 32" fill="none" xmlns="http://www.w3.org/2000/svg">
<path fill-rule="evenodd" clip-rule="evenodd" d="M29.5 16C29.5 19.0376 27.0376 21.5 24 21.5C20.9624 21.5 18.5 19.0376 18.5 16C18.5 12.9624 20.9624 10.5 24 10.5C27.0376 10.5 29.5 12.9624 29.5 16ZM31 16C31 19.866 27.866 23 24 23C20.134 23 17 19.866 17 16C17 12.134 20.134 9 24 9C27.866 9 31 12.134 31 16ZM22.75 12C22.3358 12 22 12.3358 22 12.75V15.25H21.875C21.4608 15.25 21.125 15.5858 21.125 16C21.125 16.4142 21.4608 16.75 21.875 16.75H22V17.25H21.875C21.4608 17.25 21.125 17.5858 21.125 18C21.125 18.4142 21.4608 18.75 21.875 18.75H22V19.25C22 19.6642 22.3358 20 22.75 20C23.1642 20 23.5 19.6642 23.5 19.25V18.75H25C25.4142 18.75 25.75 18.4142 25.75 18C25.75 17.5858 25.4142 17.25 25 17.25H23.5V16.75H24.625C25.9367 16.75 27 15.6867 27 14.375C27 13.0633 25.9367 12 24.625 12H22.75ZM24.625 15.25H23.5V13.5H24.625C25.1082 13.5 25.5 13.8918 25.5 14.375C25.5 14.8582 25.1082 15.25 24.625 15.25Z" fill="black"/>
</svg>
