<svg width="48" height="56" viewBox="0 0 48 56" fill="none" xmlns="http://www.w3.org/2000/svg">
<path fill-rule="evenodd" clip-rule="evenodd" d="M24 21.5C27.0376 21.5 29.5 19.0376 29.5 16C29.5 12.9624 27.0376 10.5 24 10.5C20.9624 10.5 18.5 12.9624 18.5 16C18.5 19.0376 20.9624 21.5 24 21.5ZM24 23C27.866 23 31 19.866 31 16C31 12.134 27.866 9 24 9C20.134 9 17 12.134 17 16C17 19.866 20.134 23 24 23ZM25 13.5C25 14.0523 24.5523 14.5 24 14.5C23.4477 14.5 23 14.0523 23 13.5C23 12.9477 23.4477 12.5 24 12.5C24.5523 12.5 25 12.9477 25 13.5ZM24.75 16.5C24.75 16.0858 24.4142 15.75 24 15.75C23.5858 15.75 23.25 16.0858 23.25 16.5V19C23.25 19.4142 23.5858 19.75 24 19.75C24.4142 19.75 24.75 19.4142 24.75 19V16.5Z" fill="black"/>
<path fill-rule="evenodd" clip-rule="evenodd" d="M24 47C27.866 47 31 43.866 31 40C31 36.134 27.866 33 24 33C20.134 33 17 36.134 17 40C17 43.866 20.134 47 24 47ZM25 37.5C25 38.0523 24.5523 38.5 24 38.5C23.4477 38.5 23 38.0523 23 37.5C23 36.9477 23.4477 36.5 24 36.5C24.5523 36.5 25 36.9477 25 37.5ZM24 39.75C24.4142 39.75 24.75 40.0858 24.75 40.5V43C24.75 43.4142 24.4142 43.75 24 43.75C23.5858 43.75 23.25 43.4142 23.25 43V40.5C23.25 40.0858 23.5858 39.75 24 39.75Z" fill="black"/>
</svg>
