<svg width="48" height="32" viewBox="0 0 48 32" fill="none" xmlns="http://www.w3.org/2000/svg">
<path fill-rule="evenodd" clip-rule="evenodd" d="M24 21.5001C27.0376 21.5001 29.5 19.0376 29.5 16.0001C29.5 12.9625 27.0376 10.5001 24 10.5001C20.9624 10.5001 18.5 12.9625 18.5 16.0001C18.5 19.0376 20.9624 21.5001 24 21.5001ZM24 23.0001C27.866 23.0001 31 19.8661 31 16.0001C31 12.1341 27.866 9.00006 24 9.00006C20.134 9.00006 17 12.1341 17 16.0001C17 19.8661 20.134 23.0001 24 23.0001ZM26.2803 19.0304C25.9874 19.3233 25.5126 19.3233 25.2197 19.0304L24 17.8107L22.7803 19.0304C22.4874 19.3233 22.0126 19.3233 21.7197 19.0304C21.4268 18.7375 21.4268 18.2626 21.7197 17.9697L23.4697 16.2197C23.6103 16.0791 23.8011 16.0001 24 16.0001C24.1989 16.0001 24.3897 16.0791 24.5303 16.2197L26.2803 17.9697C26.5732 18.2626 26.5732 18.7375 26.2803 19.0304ZM25.2197 15.2804C25.5126 15.5733 25.9874 15.5733 26.2803 15.2804C26.5732 14.9875 26.5732 14.5126 26.2803 14.2197L24.5303 12.4697C24.3897 12.3291 24.1989 12.2501 24 12.2501C23.8011 12.2501 23.6103 12.3291 23.4697 12.4697L21.7197 14.2197C21.4268 14.5126 21.4268 14.9875 21.7197 15.2804C22.0126 15.5733 22.4874 15.5733 22.7803 15.2804L24 14.0607L25.2197 15.2804Z" fill="black"/>
</svg>
