<svg width="48" height="32" viewBox="0 0 48 32" fill="none" xmlns="http://www.w3.org/2000/svg">
<path fill-rule="evenodd" clip-rule="evenodd" d="M24 21.5C27.0376 21.5 29.5 19.0376 29.5 16C29.5 12.9624 27.0376 10.5 24 10.5C20.9624 10.5 18.5 12.9624 18.5 16C18.5 19.0376 20.9624 21.5 24 21.5ZM24 23C27.866 23 31 19.866 31 16C31 12.134 27.866 9 24 9C20.134 9 17 12.134 17 16C17 19.866 20.134 23 24 23ZM25.75 13.25C26.3023 13.25 26.75 13.6977 26.75 14.25V17.75C26.75 18.3023 26.3023 18.75 25.75 18.75C25.1977 18.75 24.75 18.3023 24.75 17.75V14.25C24.75 13.6977 25.1977 13.25 25.75 13.25ZM23.25 14.25C23.25 13.6977 22.8023 13.25 22.25 13.25C21.6977 13.25 21.25 13.6977 21.25 14.25V17.75C21.25 18.3023 21.6977 18.75 22.25 18.75C22.8023 18.75 23.25 18.3023 23.25 17.75V14.25Z" fill="black"/>
</svg>
