<svg width="48" height="32" viewBox="0 0 48 32" fill="none" xmlns="http://www.w3.org/2000/svg">
<path fill-rule="evenodd" clip-rule="evenodd" d="M29.5 16C29.5 19.0376 27.0376 21.5 24 21.5C20.9624 21.5 18.5 19.0376 18.5 16C18.5 12.9624 20.9624 10.5 24 10.5C27.0376 10.5 29.5 12.9624 29.5 16ZM31 16C31 19.866 27.866 23 24 23C20.134 23 17 19.866 17 16C17 12.134 20.134 9 24 9C27.866 9 31 12.134 31 16ZM25 13.5C25 13.209 24.8317 12.9443 24.5681 12.8208C24.3046 12.6974 23.9934 12.7375 23.7699 12.9238L22.2699 14.1738C21.9517 14.439 21.9087 14.9119 22.1738 15.2301C22.439 15.5484 22.9119 15.5913 23.2301 15.3262L23.5 15.1013V18.5C23.5 18.9142 23.8358 19.25 24.25 19.25C24.6642 19.25 25 18.9142 25 18.5V13.5Z" fill="black"/>
</svg>
