<svg width="48" height="32" viewBox="0 0 48 32" fill="none" xmlns="http://www.w3.org/2000/svg">
<path fill-rule="evenodd" clip-rule="evenodd" d="M29.5 16C29.5 19.0376 27.0376 21.5 24 21.5C20.9624 21.5 18.5 19.0376 18.5 16C18.5 12.9624 20.9624 10.5 24 10.5C27.0376 10.5 29.5 12.9624 29.5 16ZM31 16C31 19.866 27.866 23 24 23C20.134 23 17 19.866 17 16C17 12.134 20.134 9 24 9C27.866 9 31 12.134 31 16ZM23 13.5C23 13.0858 22.6642 12.75 22.25 12.75C21.8358 12.75 21.5 13.0858 21.5 13.5V18.5C21.5 18.9142 21.8358 19.25 22.25 19.25C22.6642 19.25 23 18.9142 23 18.5V16.75H25V18.5C25 18.9142 25.3358 19.25 25.75 19.25C26.1642 19.25 26.5 18.9142 26.5 18.5V13.5C26.5 13.0858 26.1642 12.75 25.75 12.75C25.3358 12.75 25 13.0858 25 13.5V15.25H23V13.5Z" fill="black"/>
</svg>
