<svg width="48" height="32" viewBox="0 0 48 32" fill="none" xmlns="http://www.w3.org/2000/svg">
<path fill-rule="evenodd" clip-rule="evenodd" d="M29.5 16C29.5 19.0376 27.0376 21.5 24 21.5C20.9624 21.5 18.5 19.0376 18.5 16C18.5 12.9624 20.9624 10.5 24 10.5C27.0376 10.5 29.5 12.9624 29.5 16ZM31 16C31 19.866 27.866 23 24 23C20.134 23 17 19.866 17 16C17 12.134 20.134 9 24 9C27.866 9 31 12.134 31 16ZM21.75 13.5C21.75 13.0858 22.0858 12.75 22.5 12.75H24.25C25.4926 12.75 26.5 13.7574 26.5 15C26.5 15.7228 26.1592 16.3659 25.6296 16.7776L26.4012 18.1279C26.6067 18.4875 26.4817 18.9457 26.1221 19.1512C25.7625 19.3567 25.3043 19.2317 25.0988 18.8721L24.1719 17.25H23.25V18.5C23.25 18.9142 22.9142 19.25 22.5 19.25C22.0858 19.25 21.75 18.9142 21.75 18.5V16.5V13.5ZM23.25 15.75H24.25C24.6642 15.75 25 15.4142 25 15C25 14.5858 24.6642 14.25 24.25 14.25H23.25V15.75Z" fill="black"/>
</svg>
