<svg width="48" height="56" viewBox="0 0 48 56" fill="none" xmlns="http://www.w3.org/2000/svg">
<path fill-rule="evenodd" clip-rule="evenodd" d="M29.5 16C29.5 19.0376 27.0376 21.5 24 21.5C20.9624 21.5 18.5 19.0376 18.5 16C18.5 12.9624 20.9624 10.5 24 10.5C27.0376 10.5 29.5 12.9624 29.5 16ZM31 16C31 19.866 27.866 23 24 23C20.134 23 17 19.866 17 16C17 12.134 20.134 9 24 9C27.866 9 31 12.134 31 16ZM21.0001 15.25C20.5859 15.25 20.2501 15.5858 20.2501 16C20.2501 16.4143 20.5859 16.75 21.0001 16.75L25.1894 16.75L24.4697 17.4697C24.1769 17.7626 24.1768 18.2375 24.4697 18.5304C24.7626 18.8233 25.2375 18.8233 25.5304 18.5304L27.5304 16.5304C27.8233 16.2375 27.8233 15.7626 27.5304 15.4697L25.5304 13.4697C25.2375 13.1768 24.7626 13.1768 24.4697 13.4697C24.1768 13.7626 24.1768 14.2375 24.4697 14.5304L25.1894 15.25L21.0001 15.25Z" fill="black"/>
<path fill-rule="evenodd" clip-rule="evenodd" d="M24 47C27.866 47 31 43.866 31 40C31 36.134 27.866 33 24 33C20.134 33 17 36.134 17 40C17 43.866 20.134 47 24 47ZM21.0001 39.25C20.5859 39.25 20.2501 39.5858 20.2501 40C20.2501 40.4143 20.5859 40.75 21.0001 40.75L25.1894 40.75L24.4697 41.4697C24.1769 41.7626 24.1768 42.2375 24.4697 42.5304C24.7626 42.8233 25.2375 42.8233 25.5304 42.5304L27.5304 40.5304C27.8233 40.2375 27.8233 39.7626 27.5304 39.4697L25.5304 37.4697C25.2375 37.1768 24.7626 37.1768 24.4697 37.4697C24.1768 37.7626 24.1768 38.2375 24.4697 38.5304L25.1894 39.25L21.0001 39.25Z" fill="black"/>
</svg>
