<svg width="48" height="32" viewBox="0 0 48 32" fill="none" xmlns="http://www.w3.org/2000/svg">
<g clip-path="url(#clip0_74_2924)">
<path fill-rule="evenodd" clip-rule="evenodd" d="M26.5022 12.3924C26.6613 12.0445 26.75 11.6576 26.75 11.25C26.75 9.73122 25.5188 8.5 24 8.5C22.4812 8.5 21.25 9.73122 21.25 11.25C21.25 11.6576 21.3387 12.0445 21.4978 12.3924C21.7724 12.993 22.257 13.4776 22.8576 13.7522C23.2055 13.9113 23.5924 14 24 14C24.4076 14 24.7945 13.9113 25.1424 13.7522C25.743 13.4776 26.2276 12.993 26.5022 12.3924ZM21.7522 14.8576C21.4776 14.257 20.993 13.7724 20.3924 13.4978C20.0445 13.3387 19.6576 13.25 19.25 13.25C17.7312 13.25 16.5 14.4812 16.5 16C16.5 17.5188 17.7312 18.75 19.25 18.75C19.6576 18.75 20.0445 18.6613 20.3924 18.5022C20.993 18.2276 21.4776 17.743 21.7522 17.1424C21.9113 16.7945 22 16.4076 22 16C22 15.5924 21.9113 15.2055 21.7522 14.8576ZM22.8576 18.2478C22.257 18.5224 21.7724 19.007 21.4978 19.6076C21.3387 19.9555 21.25 20.3424 21.25 20.75C21.25 22.2688 22.4812 23.5 24 23.5C25.5188 23.5 26.75 22.2688 26.75 20.75C26.75 20.3424 26.6613 19.9555 26.5022 19.6076C26.2276 19.007 25.743 18.5224 25.1424 18.2478C24.7945 18.0887 24.4076 18 24 18C23.5924 18 23.2055 18.0887 22.8576 18.2478ZM26.2478 17.1424C26.5224 17.743 27.007 18.2276 27.6076 18.5022C27.9555 18.6613 28.3424 18.75 28.75 18.75C30.2688 18.75 31.5 17.5188 31.5 16C31.5 14.4812 30.2688 13.25 28.75 13.25C28.3424 13.25 27.9555 13.3387 27.6076 13.4978C27.007 13.7724 26.5224 14.257 26.2478 14.8576C26.0887 15.2055 26 15.5924 26 16C26 16.4076 26.0887 16.7945 26.2478 17.1424ZM24 10C23.3096 10 22.75 10.5596 22.75 11.25C22.75 11.9404 23.3096 12.5 24 12.5C24.6904 12.5 25.25 11.9404 25.25 11.25C25.25 10.5596 24.6904 10 24 10ZM30 16C30 15.3096 29.4404 14.75 28.75 14.75C28.0596 14.75 27.5 15.3096 27.5 16C27.5 16.6904 28.0596 17.25 28.75 17.25C29.4404 17.25 30 16.6904 30 16ZM24 19.5C23.3096 19.5 22.75 20.0596 22.75 20.75C22.75 21.4404 23.3096 22 24 22C24.6904 22 25.25 21.4404 25.25 20.75C25.25 20.0596 24.6904 19.5 24 19.5ZM20.5 16C20.5 15.3096 19.9404 14.75 19.25 14.75C18.5596 14.75 18 15.3096 18 16C18 16.6904 18.5596 17.25 19.25 17.25C19.9404 17.25 20.5 16.6904 20.5 16Z" fill="black"/>
</g>
<defs>
<clipPath id="clip0_74_2924">
<rect width="16" height="16" fill="white" transform="translate(16 8)"/>
</clipPath>
</defs>
</svg>
