<svg width="48" height="56" viewBox="0 0 48 56" fill="none" xmlns="http://www.w3.org/2000/svg">
<path fill-rule="evenodd" clip-rule="evenodd" d="M29.5 16C29.5 19.0376 27.0376 21.5 24 21.5C20.9624 21.5 18.5 19.0376 18.5 16C18.5 12.9624 20.9624 10.5 24 10.5C27.0376 10.5 29.5 12.9624 29.5 16ZM31 16C31 19.866 27.866 23 24 23C20.134 23 17 19.866 17 16C17 12.134 20.134 9 24 9C27.866 9 31 12.134 31 16ZM24.75 13.5C24.75 13.0858 24.4142 12.75 24 12.75C23.5858 12.75 23.25 13.0858 23.25 13.5V15.25H21.5C21.0858 15.25 20.75 15.5858 20.75 16C20.75 16.4142 21.0858 16.75 21.5 16.75H23.25V18.5C23.25 18.9142 23.5858 19.25 24 19.25C24.4142 19.25 24.75 18.9142 24.75 18.5V16.75H26.5C26.9142 16.75 27.25 16.4142 27.25 16C27.25 15.5858 26.9142 15.25 26.5 15.25H24.75V13.5Z" fill="black"/>
<path fill-rule="evenodd" clip-rule="evenodd" d="M24 47C27.866 47 31 43.866 31 40C31 36.134 27.866 33 24 33C20.134 33 17 36.134 17 40C17 43.866 20.134 47 24 47ZM24.75 37.5C24.75 37.0858 24.4142 36.75 24 36.75C23.5858 36.75 23.25 37.0858 23.25 37.5V39.25H21.5C21.0858 39.25 20.75 39.5858 20.75 40C20.75 40.4142 21.0858 40.75 21.5 40.75H23.25V42.5C23.25 42.9142 23.5858 43.25 24 43.25C24.4142 43.25 24.75 42.9142 24.75 42.5V40.75H26.5C26.9142 40.75 27.25 40.4142 27.25 40C27.25 39.5858 26.9142 39.25 26.5 39.25H24.75V37.5Z" fill="black"/>
</svg>
