<svg width="48" height="56" viewBox="0 0 48 56" fill="none" xmlns="http://www.w3.org/2000/svg">
<path fill-rule="evenodd" clip-rule="evenodd" d="M29.5 16C29.5 19.0376 27.0376 21.5 24 21.5C20.9624 21.5 18.5 19.0376 18.5 16C18.5 12.9624 20.9624 10.5 24 10.5C27.0376 10.5 29.5 12.9624 29.5 16ZM31 16C31 19.866 27.866 23 24 23C20.134 23 17 19.866 17 16C17 12.134 20.134 9 24 9C27.866 9 31 12.134 31 16ZM22.5303 13.4697C22.2374 13.1768 21.7626 13.1768 21.4697 13.4697C21.1768 13.7626 21.1768 14.2374 21.4697 14.5303L22.9393 16L21.4697 17.4697C21.1768 17.7626 21.1768 18.2374 21.4697 18.5303C21.7626 18.8232 22.2374 18.8232 22.5303 18.5303L24 17.0607L25.4697 18.5303C25.7626 18.8232 26.2374 18.8232 26.5303 18.5303C26.8232 18.2374 26.8232 17.7626 26.5303 17.4697L25.0607 16L26.5303 14.5303C26.8232 14.2374 26.8232 13.7626 26.5303 13.4697C26.2374 13.1768 25.7626 13.1768 25.4697 13.4697L24 14.9393L22.5303 13.4697Z" fill="black"/>
<path fill-rule="evenodd" clip-rule="evenodd" d="M24 47C27.866 47 31 43.866 31 40C31 36.134 27.866 33 24 33C20.134 33 17 36.134 17 40C17 43.866 20.134 47 24 47ZM22.5303 37.4697C22.2374 37.1768 21.7626 37.1768 21.4697 37.4697C21.1768 37.7626 21.1768 38.2374 21.4697 38.5303L22.9393 40L21.4697 41.4697C21.1768 41.7626 21.1768 42.2374 21.4697 42.5303C21.7626 42.8232 22.2374 42.8232 22.5303 42.5303L24 41.0607L25.4697 42.5303C25.7626 42.8232 26.2374 42.8232 26.5303 42.5303C26.8232 42.2374 26.8232 41.7626 26.5303 41.4697L25.0607 40L26.5303 38.5303C26.8232 38.2374 26.8232 37.7626 26.5303 37.4697C26.2374 37.1768 25.7626 37.1768 25.4697 37.4697L24 38.9393L22.5303 37.4697Z" fill="black"/>
</svg>
