<svg width="48" height="32" viewBox="0 0 48 32" fill="none" xmlns="http://www.w3.org/2000/svg">
<path fill-rule="evenodd" clip-rule="evenodd" d="M29.5 16C29.5 19.0376 27.0376 21.5 24 21.5C20.9624 21.5 18.5 19.0376 18.5 16C18.5 12.9624 20.9624 10.5 24 10.5C27.0376 10.5 29.5 12.9624 29.5 16ZM31 16C31 19.866 27.866 23 24 23C20.134 23 17 19.866 17 16C17 12.134 20.134 9 24 9C27.866 9 31 12.134 31 16ZM21.7115 13.7628C21.5805 13.3699 21.1558 13.1575 20.7628 13.2885C20.3699 13.4195 20.1575 13.8442 20.2885 14.2372L21.7885 18.7372C21.8906 19.0434 22.1772 19.25 22.5 19.25C22.8228 19.25 23.1094 19.0434 23.2115 18.7372L24 16.3717L24.7885 18.7372C24.8906 19.0434 25.1772 19.25 25.5 19.25C25.8228 19.25 26.1094 19.0434 26.2115 18.7372L27.7115 14.2372C27.8425 13.8442 27.6301 13.4195 27.2372 13.2885C26.8442 13.1575 26.4195 13.3699 26.2885 13.7628L25.5 16.1283L24.7115 13.7628C24.6094 13.4566 24.3228 13.25 24 13.25C23.6772 13.25 23.3906 13.4566 23.2885 13.7628L22.5 16.1283L21.7115 13.7628Z" fill="black"/>
</svg>
