<svg width="48" height="32" viewBox="0 0 48 32" fill="none" xmlns="http://www.w3.org/2000/svg">
<path fill-rule="evenodd" clip-rule="evenodd" d="M29.5 16C29.5 19.0376 27.0376 21.5 24 21.5C20.9624 21.5 18.5 19.0376 18.5 16C18.5 12.9624 20.9624 10.5 24 10.5C27.0376 10.5 29.5 12.9624 29.5 16ZM31 16C31 19.866 27.866 23 24 23C20.134 23 17 19.866 17 16C17 12.134 20.134 9 24 9C27.866 9 31 12.134 31 16ZM24.0539 12.5024C23.3458 12.5024 22.7141 12.6814 22.243 13.0598C21.7588 13.4487 21.5035 14.0037 21.5035 14.6046C21.5035 15.3689 21.9771 15.87 22.4435 16.1637C22.8995 16.4509 23.4496 16.6124 23.8913 16.7105C24.3531 16.8131 24.7345 16.9022 25.0095 17.0524C25.2372 17.1768 25.2841 17.2759 25.2841 17.4277C25.2841 17.5301 25.2433 17.6447 25.0357 17.7694C24.8118 17.9039 24.4595 17.9976 24.0539 17.9976C23.7099 17.9976 23.3716 17.8838 23.1016 17.7076C22.82 17.524 22.6818 17.3201 22.6445 17.2022C22.5199 16.8072 22.0986 16.588 21.7036 16.7127C21.3086 16.8373 21.0894 17.2586 21.2141 17.6536C21.3856 18.1971 21.8055 18.6531 22.282 18.9639C22.77 19.2823 23.3896 19.4976 24.0539 19.4976C24.6565 19.4976 25.2942 19.3641 25.8083 19.0551C26.3387 18.7364 26.7839 18.1911 26.7841 17.428C26.7842 16.5637 26.2746 16.0343 25.7288 15.7361C25.2514 15.4753 24.6728 15.3472 24.2688 15.2578L24.2165 15.2462C23.8301 15.1604 23.48 15.0438 23.2429 14.8944C23.0161 14.7516 23.0035 14.6578 23.0035 14.6046C23.0035 14.4482 23.0604 14.3272 23.1823 14.2293C23.3173 14.1209 23.5857 14.0024 24.0539 14.0024C24.5222 14.0024 24.7949 14.1114 24.9536 14.2196C25.1121 14.3276 25.2102 14.4711 25.2693 14.6308C25.413 15.0193 25.8444 15.2178 26.2329 15.0741C26.6214 14.9304 26.8198 14.499 26.6761 14.1105C26.5265 13.7058 26.2533 13.2902 25.7986 12.9802C25.3441 12.6704 24.7617 12.5024 24.0539 12.5024Z" fill="black"/>
</svg>
