<svg width="48" height="32" viewBox="0 0 48 32" fill="none" xmlns="http://www.w3.org/2000/svg">
<path fill-rule="evenodd" clip-rule="evenodd" d="M29.5 16C29.5 19.0376 27.0376 21.5 24 21.5C20.9624 21.5 18.5 19.0376 18.5 16C18.5 12.9624 20.9624 10.5 24 10.5C27.0376 10.5 29.5 12.9624 29.5 16ZM31 16C31 19.866 27.866 23 24 23C20.134 23 17 19.866 17 16C17 12.134 20.134 9 24 9C27.866 9 31 12.134 31 16ZM22.4583 16C22.4583 15.2001 22.6583 14.711 22.903 14.4314C23.1362 14.1649 23.4869 14 24 14C24.3677 14 24.648 14.0859 24.8565 14.2219C25.0617 14.3558 25.2415 14.5665 25.3671 14.8938C25.5155 15.2805 25.9494 15.4736 26.3361 15.3252C26.7228 15.1767 26.9159 14.7429 26.7675 14.3562C26.5412 13.7668 26.1735 13.2901 25.6761 12.9656C25.182 12.6433 24.6045 12.5 24 12.5C23.1381 12.5 22.343 12.7935 21.7741 13.4436C21.2167 14.0807 20.9583 14.9666 20.9583 16C20.9583 17.0334 21.2167 17.9193 21.7741 18.5564C22.343 19.2065 23.1381 19.5 24 19.5C24.6045 19.5 25.182 19.3567 25.6761 19.0344C26.1735 18.7099 26.5412 18.2332 26.7675 17.6438C26.9159 17.2571 26.7228 16.8233 26.3361 16.6748C25.9494 16.5264 25.5155 16.7195 25.3671 17.1062C25.2415 17.4335 25.0617 17.6442 24.8565 17.7781C24.648 17.9141 24.3677 18 24 18C23.4869 18 23.1362 17.8351 22.903 17.5686C22.6583 17.289 22.4583 16.7999 22.4583 16Z" fill="black"/>
</svg>
