<svg width="48" height="56" viewBox="0 0 48 56" fill="none" xmlns="http://www.w3.org/2000/svg">
<path fill-rule="evenodd" clip-rule="evenodd" d="M24 21.5C27.0376 21.5 29.5 19.0376 29.5 16C29.5 12.9624 27.0376 10.5 24 10.5C20.9624 10.5 18.5 12.9624 18.5 16C18.5 19.0376 20.9624 21.5 24 21.5ZM24 23C27.866 23 31 19.866 31 16C31 12.134 27.866 9 24 9C20.134 9 17 12.134 17 16C17 19.866 20.134 23 24 23Z" fill="black"/>
<path fill-rule="evenodd" clip-rule="evenodd" d="M24 47C27.866 47 31 43.866 31 40C31 36.134 27.866 33 24 33C20.134 33 17 36.134 17 40C17 43.866 20.134 47 24 47Z" fill="black"/>
</svg>
