<svg width="48" height="32" viewBox="0 0 48 32" fill="none" xmlns="http://www.w3.org/2000/svg">
<path fill-rule="evenodd" clip-rule="evenodd" d="M19.0472 15.1254C19.4776 15.3641 19.9729 15.5 20.5 15.5C21.6298 15.5 22.6137 14.8755 23.1254 13.9528C23.3641 13.5224 23.5 13.0271 23.5 12.5C23.5 10.8431 22.1569 9.5 20.5 9.5C18.8431 9.5 17.5 10.8431 17.5 12.5C17.5 13.6298 18.1245 14.6137 19.0472 15.1254ZM20.5 14C21.3284 14 22 13.3284 22 12.5C22 11.6716 21.3284 11 20.5 11C19.6716 11 19 11.6716 19 12.5C19 13.3284 19.6716 14 20.5 14ZM26.0472 15.1254C26.4776 15.3641 26.9729 15.5 27.5 15.5C28.6298 15.5 29.6137 14.8755 30.1254 13.9528C30.3641 13.5224 30.5 13.0271 30.5 12.5C30.5 10.8431 29.1569 9.5 27.5 9.5C25.8431 9.5 24.5 10.8431 24.5 12.5C24.5 13.6298 25.1245 14.6137 26.0472 15.1254ZM27.5 14C28.3284 14 29 13.3284 29 12.5C29 11.6716 28.3284 11 27.5 11C26.6716 11 26 11.6716 26 12.5C26 13.3284 26.6716 14 27.5 14ZM20.5 22.5C19.9729 22.5 19.4776 22.3641 19.0472 22.1254C18.1245 21.6137 17.5 20.6298 17.5 19.5C17.5 17.8431 18.8431 16.5 20.5 16.5C22.1569 16.5 23.5 17.8431 23.5 19.5C23.5 20.0271 23.3641 20.5224 23.1254 20.9528C22.6137 21.8755 21.6298 22.5 20.5 22.5ZM22 19.5C22 20.3284 21.3284 21 20.5 21C19.6716 21 19 20.3284 19 19.5C19 18.6716 19.6716 18 20.5 18C21.3284 18 22 18.6716 22 19.5ZM26.0472 22.1254C26.4776 22.3641 26.9729 22.5 27.5 22.5C28.6298 22.5 29.6137 21.8755 30.1254 20.9528C30.3641 20.5224 30.5 20.0271 30.5 19.5C30.5 17.8431 29.1569 16.5 27.5 16.5C25.8431 16.5 24.5 17.8431 24.5 19.5C24.5 20.6298 25.1245 21.6137 26.0472 22.1254ZM27.5 21C28.3284 21 29 20.3284 29 19.5C29 18.6716 28.3284 18 27.5 18C26.6716 18 26 18.6716 26 19.5C26 20.3284 26.6716 21 27.5 21Z" fill="black"/>
</svg>
