<svg width="48" height="32" viewBox="0 0 48 32" fill="none" xmlns="http://www.w3.org/2000/svg">
<path fill-rule="evenodd" clip-rule="evenodd" d="M29.5 16C29.5 12.9624 27.0376 10.5 24 10.5C20.9624 10.5 18.5 12.9624 18.5 16C18.5 19.0376 20.9624 21.5 24 21.5C27.0376 21.5 29.5 19.0376 29.5 16ZM31 16C31 12.134 27.866 9 24 9C20.134 9 17 12.134 17 16C17 19.866 20.134 23 24 23C27.866 23 31 19.866 31 16ZM27.0304 13.7197C27.3233 14.0126 27.3233 14.4874 27.0304 14.7803L25.8107 16L27.0304 17.2197C27.3233 17.5126 27.3233 17.9874 27.0304 18.2803C26.7375 18.5732 26.2626 18.5732 25.9697 18.2803L24.2197 16.5303C24.0791 16.3897 24.0001 16.1989 24.0001 16C24.0001 15.8011 24.0791 15.6103 24.2197 15.4697L25.9697 13.7197C26.2626 13.4268 26.7375 13.4268 27.0304 13.7197ZM23.2804 14.7803C23.5733 14.4874 23.5733 14.0126 23.2804 13.7197C22.9875 13.4268 22.5126 13.4268 22.2197 13.7197L20.4697 15.4697C20.3291 15.6103 20.2501 15.8011 20.2501 16C20.2501 16.1989 20.3291 16.3897 20.4697 16.5303L22.2197 18.2803C22.5126 18.5732 22.9875 18.5732 23.2804 18.2803C23.5733 17.9874 23.5733 17.5126 23.2804 17.2197L22.0607 16L23.2804 14.7803Z" fill="black"/>
</svg>
