<svg width="48" height="32" viewBox="0 0 48 32" fill="none" xmlns="http://www.w3.org/2000/svg">
<path fill-rule="evenodd" clip-rule="evenodd" d="M22.9055 9.08517C23.2626 9.02906 23.6281 9 24 9C24.3719 9 24.7374 9.02906 25.0945 9.08517C25.5037 9.14948 25.7833 9.53332 25.7189 9.94252C25.6546 10.3517 25.2708 10.6313 24.8616 10.567C24.5813 10.5229 24.2936 10.5 24 10.5C23.7064 10.5 23.4187 10.5229 23.1384 10.567C22.7292 10.6313 22.3454 10.3517 22.2811 9.94251C22.2167 9.53332 22.4963 9.14948 22.9055 9.08517ZM20.9325 10.5019C21.1763 10.8368 21.1024 11.3059 20.7675 11.5497C20.3007 11.8893 19.8893 12.3007 19.5497 12.7675C19.3059 13.1024 18.8368 13.1763 18.5019 12.9325C18.167 12.6888 18.0931 12.2197 18.3368 11.8848C18.7687 11.2914 19.2914 10.7687 19.8848 10.3368C20.2197 10.0931 20.6888 10.167 20.9325 10.5019ZM27.0675 10.5019C27.3112 10.167 27.7803 10.0931 28.1152 10.3368C28.7086 10.7687 29.2313 11.2914 29.6632 11.8848C29.9069 12.2197 29.833 12.6888 29.4981 12.9325C29.1632 13.1763 28.6941 13.1024 28.4503 12.7675C28.1107 12.3007 27.6993 11.8893 27.2325 11.5497C26.8976 11.3059 26.8237 10.8368 27.0675 10.5019ZM17.9425 14.2811C18.3517 14.3454 18.6313 14.7292 18.567 15.1384C18.5229 15.4187 18.5 15.7064 18.5 16C18.5 16.2936 18.5229 16.5813 18.567 16.8616C18.6313 17.2708 18.3517 17.6546 17.9425 17.7189C17.5333 17.7833 17.1495 17.5037 17.0852 17.0945C17.0291 16.7374 17 16.3719 17 16C17 15.6281 17.0291 15.2626 17.0852 14.9055C17.1495 14.4963 17.5333 14.2167 17.9425 14.2811ZM30.0575 14.2811C30.4667 14.2167 30.8505 14.4963 30.9148 14.9055C30.9709 15.2626 31 15.6281 31 16C31 16.3719 30.9709 16.7374 30.9148 17.0945C30.8505 17.5037 30.4667 17.7833 30.0575 17.7189C29.6483 17.6546 29.3687 17.2708 29.433 16.8616C29.4771 16.5813 29.5 16.2936 29.5 16C29.5 15.7064 29.4771 15.4187 29.433 15.1384C29.3687 14.7292 29.6483 14.3454 30.0575 14.2811ZM18.5019 19.0675C18.8368 18.8237 19.3059 18.8976 19.5497 19.2325C19.8893 19.6993 20.3007 20.1107 20.7675 20.4503C21.1024 20.6941 21.1763 21.1632 20.9325 21.4981C20.6888 21.833 20.2197 21.9069 19.8848 21.6632C19.2914 21.2313 18.7687 20.7086 18.3368 20.1152C18.0931 19.7803 18.167 19.3112 18.5019 19.0675ZM29.4981 19.0675C29.833 19.3112 29.9069 19.7803 29.6632 20.1152C29.2313 20.7086 28.7086 21.2313 28.1152 21.6632C27.7803 21.9069 27.3112 21.833 27.0675 21.4981C26.8237 21.1632 26.8976 20.6941 27.2325 20.4503C27.6993 20.1107 28.1107 19.6993 28.4503 19.2325C28.6941 18.8976 29.1632 18.8237 29.4981 19.0675ZM22.2811 22.0575C22.3454 21.6483 22.7292 21.3687 23.1384 21.433C23.4187 21.4771 23.7064 21.5 24 21.5C24.2936 21.5 24.5813 21.4771 24.8616 21.433C25.2708 21.3687 25.6546 21.6483 25.7189 22.0575C25.7833 22.4667 25.5037 22.8505 25.0945 22.9148C24.7374 22.9709 24.3719 23 24 23C23.6281 23 23.2626 22.9709 22.9055 22.9148C22.4963 22.8505 22.2167 22.4667 22.2811 22.0575Z" fill="black"/>
</svg>
