<svg width="48" height="32" viewBox="0 0 48 32" fill="none" xmlns="http://www.w3.org/2000/svg">
<path fill-rule="evenodd" clip-rule="evenodd" d="M18.5 16C18.5 12.9624 20.9624 10.5 24 10.5C24.958 10.5 25.8567 10.7443 26.6395 11.1734C27.0027 11.3725 27.4586 11.2395 27.6577 10.8763C27.8568 10.513 27.7237 10.0572 27.3605 9.85807C26.3623 9.31087 25.2163 9 24 9C20.134 9 17 12.134 17 16C17 17.2163 17.3109 18.3623 17.8581 19.3605C18.0572 19.7237 18.513 19.8568 18.8763 19.6577C19.2395 19.4586 19.3725 19.0027 19.1734 18.6395C18.7443 17.8567 18.5 16.958 18.5 16ZM30.1419 12.6395C29.9428 12.2763 29.487 12.1432 29.1237 12.3423C28.7605 12.5414 28.6275 12.9973 28.8266 13.3605C29.2557 14.1433 29.5 15.042 29.5 16C29.5 19.0376 27.0376 21.5 24 21.5C23.042 21.5 22.1433 21.2557 21.3605 20.8266C20.9973 20.6275 20.5414 20.7605 20.3423 21.1237C20.1432 21.487 20.2763 21.9428 20.6395 22.1419C21.6377 22.6891 22.7837 23 24 23C27.866 23 31 19.866 31 16C31 14.7837 30.6891 13.6377 30.1419 12.6395ZM25.5 16C25.5 16.8284 24.8284 17.5 24 17.5C23.1716 17.5 22.5 16.8284 22.5 16C22.5 15.1716 23.1716 14.5 24 14.5C24.8284 14.5 25.5 15.1716 25.5 16ZM27 16C27 17.6569 25.6569 19 24 19C22.3431 19 21 17.6569 21 16C21 14.3431 22.3431 13 24 13C25.6569 13 27 14.3431 27 16Z" fill="black"/>
</svg>
