<svg width="48" height="32" viewBox="0 0 48 32" fill="none" xmlns="http://www.w3.org/2000/svg">
<path fill-rule="evenodd" clip-rule="evenodd" d="M17.5 16C17.5 12.4101 20.4101 9.5 24 9.5C27.5899 9.5 30.5 12.4101 30.5 16C30.5 19.3026 28.0377 22.0288 24.8484 22.445C24.4377 22.4986 24.0613 22.2091 24.0077 21.7984C23.9541 21.3877 24.2436 21.0113 24.6543 20.9577C27.1063 20.6377 29 18.5394 29 16C29 13.2386 26.7614 11 24 11C21.2386 11 19 13.2386 19 16C19 17.3984 19.5734 18.6626 20.5 19.5708V18.25C20.5 17.8358 20.8358 17.5 21.25 17.5C21.6642 17.5 22 17.8358 22 18.25V21.25C22 21.6642 21.6642 22 21.25 22H18.25C17.8358 22 17.5 21.6642 17.5 21.25C17.5 20.8358 17.8358 20.5 18.25 20.5H19.3096C18.1896 19.3327 17.5 17.7468 17.5 16ZM24 12.25C24.4142 12.25 24.75 12.5858 24.75 13V15.625L25.7833 16.4C26.1147 16.6485 26.1819 17.1186 25.9333 17.45C25.6848 17.7814 25.2147 17.8485 24.8833 17.6L23.55 16.6C23.3611 16.4584 23.25 16.2361 23.25 16V13C23.25 12.5858 23.5858 12.25 24 12.25Z" fill="black"/>
</svg>
