<svg width="48" height="56" viewBox="0 0 48 56" fill="none" xmlns="http://www.w3.org/2000/svg">
<path fill-rule="evenodd" clip-rule="evenodd" d="M29.5 16C29.5 19.0376 27.0376 21.5 24 21.5C20.9624 21.5 18.5 19.0376 18.5 16C18.5 12.9624 20.9624 10.5 24 10.5C27.0376 10.5 29.5 12.9624 29.5 16ZM31 16C31 19.866 27.866 23 24 23C20.134 23 17 19.866 17 16C17 12.134 20.134 9 24 9C27.866 9 31 12.134 31 16ZM24.75 12.5C24.75 12.0858 24.4142 11.75 24 11.75C23.5858 11.75 23.25 12.0858 23.25 12.5V16C23.25 16.2361 23.3611 16.4584 23.55 16.6L25.55 18.1C25.8814 18.3485 26.3515 18.2814 26.6 17.95C26.8485 17.6186 26.7814 17.1485 26.45 16.9L24.75 15.625V12.5Z" fill="black"/>
<path fill-rule="evenodd" clip-rule="evenodd" d="M24 47C27.866 47 31 43.866 31 40C31 36.134 27.866 33 24 33C20.134 33 17 36.134 17 40C17 43.866 20.134 47 24 47ZM24.75 36.5C24.75 36.0858 24.4142 35.75 24 35.75C23.5858 35.75 23.25 36.0858 23.25 36.5V40C23.25 40.2361 23.3611 40.4584 23.55 40.6L25.55 42.1C25.8814 42.3485 26.3515 42.2814 26.6 41.95C26.8485 41.6186 26.7814 41.1485 26.45 40.9L24.75 39.625V36.5Z" fill="black"/>
</svg>
