<svg width="48" height="32" viewBox="0 0 48 32" fill="none" xmlns="http://www.w3.org/2000/svg">
<path fill-rule="evenodd" clip-rule="evenodd" d="M20.5 14.25C20.5 12.4551 21.9551 11 23.75 11C25.2639 11 26.5378 12.0359 26.8981 13.4386C26.981 13.7614 27.267 13.9908 27.6001 14.0016C29.2103 14.0542 30.5 15.3766 30.5 17C30.5 18.6568 29.1569 20 27.5 20H27.5H27.5H19.7524L19.7508 20H19.75C18.5074 20 17.5 18.9926 17.5 17.75C17.5 16.5079 18.5064 15.501 19.7482 15.5L19.7772 15.5001C19.9929 15.5012 20.1987 15.4094 20.3419 15.248C20.4851 15.0866 20.5519 14.8714 20.5252 14.6573C20.5086 14.5242 20.5 14.3883 20.5 14.25ZM23.75 9.5C21.1854 9.5 19.0956 11.5324 19.0032 14.0744C17.2899 14.4206 16 15.9347 16 17.75C16 19.8211 17.6789 21.5 19.75 21.5L19.7517 21.5H19.7524H27.5H27.5H27.5H27.5C29.9853 21.5 32 19.4853 32 17C32 14.7484 30.3466 12.8833 28.1874 12.5522C27.5041 10.7677 25.7759 9.5 23.75 9.5ZM26.6 15.25C26.8485 14.9186 26.7814 14.4485 26.45 14.2C26.1186 13.9514 25.6485 14.0186 25.4 14.35L23.3689 17.0582L22.2803 15.9696C21.9874 15.6767 21.5126 15.6767 21.2197 15.9696C20.9268 16.2625 20.9268 16.7374 21.2197 17.0303L22.9197 18.7303C23.0734 18.884 23.2863 18.9635 23.5032 18.9481C23.72 18.9327 23.9195 18.8239 24.05 18.65L26.6 15.25Z" fill="black"/>
</svg>
