<svg width="48" height="32" viewBox="0 0 48 32" fill="none" xmlns="http://www.w3.org/2000/svg">
<path fill-rule="evenodd" clip-rule="evenodd" d="M20.5 14.25C20.5 12.4551 21.9551 11 23.75 11C24.9422 11 25.9855 11.6423 26.5511 12.6004C25.6315 12.7979 24.816 13.2765 24.2001 13.9406C23.9184 14.2443 23.9363 14.7188 24.24 15.0005C24.5437 15.2822 25.0182 15.2643 25.2999 14.9606C25.8488 14.3688 26.6308 14 27.5001 14C27.5169 14 27.5336 13.9994 27.5502 13.9984C27.5667 14 27.5833 14.0011 27.6001 14.0016C29.2103 14.0542 30.5 15.3766 30.5 17C30.5 18.6568 29.1569 20 27.5 20H27.5H27.5H19.7524L19.7508 20H19.75C18.5074 20 17.5 18.9926 17.5 17.75C17.5 16.5079 18.5064 15.501 19.7482 15.5L19.7772 15.5001C19.9929 15.5012 20.1987 15.4094 20.3419 15.248C20.4851 15.0866 20.5519 14.8714 20.5252 14.6573C20.5086 14.5242 20.5 14.3883 20.5 14.25ZM23.75 9.5C21.1854 9.5 19.0956 11.5324 19.0032 14.0744C17.2899 14.4206 16 15.9347 16 17.75C16 19.8211 17.6789 21.5 19.75 21.5L19.7517 21.5H19.7524H27.5H27.5H27.5H27.5C29.9853 21.5 32 19.4853 32 17C32 14.7484 30.3466 12.8833 28.1874 12.5522C27.5041 10.7677 25.7759 9.5 23.75 9.5Z" fill="black"/>
</svg>
