<svg width="48" height="32" viewBox="0 0 48 32" fill="none" xmlns="http://www.w3.org/2000/svg">
<path fill-rule="evenodd" clip-rule="evenodd" d="M20.5 13.25C20.5 11.4551 21.9551 10 23.75 10C25.2639 10 26.5378 11.0359 26.8981 12.4386C26.981 12.7614 27.267 12.9908 27.6001 13.0016C28.3481 13.026 29.0262 13.3238 29.5395 13.7999C30.1313 14.3488 30.5 15.1308 30.5 16C30.5 16.4142 30.8358 16.75 31.25 16.75C31.6642 16.75 32 16.4142 32 16C32 14.6962 31.4445 13.521 30.5596 12.7001C29.9161 12.1033 29.0964 11.6917 28.1874 11.5523C27.5041 9.7677 25.7759 8.5 23.75 8.5C21.1854 8.5 19.0956 10.5324 19.0032 13.0744C17.2899 13.4206 16 14.9347 16 16.75C16 18.8211 17.6789 20.5 19.75 20.5H19.7503L19.7524 20.5H19.7527H20.25C20.6642 20.5 21 20.1642 21 19.75C21 19.3358 20.6642 19 20.25 19H19.7524H19.7521L19.75 19H19.7497H19.7497C18.5072 18.9998 17.5 17.9925 17.5 16.75C17.5 15.5079 18.5064 14.501 19.7482 14.5L19.7772 14.5001C19.9929 14.5012 20.1987 14.4094 20.3419 14.248C20.4851 14.0866 20.5519 13.8714 20.5252 13.6573C20.5086 13.5242 20.5 13.3883 20.5 13.25ZM27.6227 21.5L29.029 19L27.6227 16.5L24.8773 16.5L23.471 19L24.8773 21.5L27.6227 21.5ZM30.3363 19.7354C30.5932 19.2788 30.5932 18.7212 30.3363 18.2646L28.9301 15.7646C28.6644 15.2923 28.1646 15 27.6227 15L24.8773 15C24.3354 15 23.8356 15.2923 23.5699 15.7646L22.1637 18.2646C21.9068 18.7212 21.9068 19.2788 22.1637 19.7354L23.5699 22.2354C23.8356 22.7077 24.3354 23 24.8773 23H27.6227C28.1646 23 28.6644 22.7077 28.9301 22.2354L30.3363 19.7354ZM27.25 19C27.25 19.5523 26.8023 20 26.25 20C25.6977 20 25.25 19.5523 25.25 19C25.25 18.4477 25.6977 18 26.25 18C26.8023 18 27.25 18.4477 27.25 19Z" fill="black"/>
</svg>
