<svg width="48" height="32" viewBox="0 0 48 32" fill="none" xmlns="http://www.w3.org/2000/svg">
<g clip-path="url(#clip0_74_2504)">
<path fill-rule="evenodd" clip-rule="evenodd" d="M20.5 13.25C20.5 11.4551 21.9551 10 23.75 10C25.2639 10 26.5378 11.0359 26.8981 12.4386C26.981 12.7614 27.267 12.9908 27.6001 13.0016C29.2103 13.0542 30.5 14.3766 30.5 16C30.5 17.6568 29.1569 19 27.5 19H27.25H27H26.75C26.3358 19 26 19.3358 26 19.75C26 20.1642 26.3358 20.5 26.75 20.5H27H27.25H27.5C29.9853 20.5 32 18.4853 32 16C32 13.7484 30.3466 11.8833 28.1874 11.5522C27.5041 9.76768 25.7759 8.5 23.75 8.5C21.1854 8.5 19.0956 10.5324 19.0032 13.0744C17.2899 13.4206 16 14.9347 16 16.75C16 18.8211 17.6789 20.5 19.75 20.5L19.7517 20.5H20H21H21.25C21.6642 20.5 22 20.1642 22 19.75C22 19.3358 21.6642 19 21.25 19H21H20H19.7524L19.7508 19C18.5081 19 17.5 17.9926 17.5 16.75C17.5 15.5079 18.5064 14.501 19.7482 14.5L19.7772 14.5001C19.9929 14.5012 20.1987 14.4094 20.3419 14.248C20.4851 14.0866 20.5519 13.8714 20.5252 13.6573C20.5086 13.5242 20.5 13.3883 20.5 13.25ZM24.75 16.5607L25.4697 17.2803C25.7626 17.5732 26.2374 17.5732 26.5303 17.2803C26.8232 16.9874 26.8232 16.5126 26.5303 16.2197L24.5303 14.2197C24.3897 14.079 24.1989 14 24 14C23.8011 14 23.6103 14.079 23.4697 14.2197L21.4697 16.2197C21.1768 16.5126 21.1768 16.9874 21.4697 17.2803C21.7626 17.5732 22.2374 17.5732 22.5303 17.2803L23.25 16.5607V23.25C23.25 23.6642 23.5858 24 24 24C24.4142 24 24.75 23.6642 24.75 23.25V16.5607Z" fill="black"/>
</g>
<defs>
<clipPath id="clip0_74_2504">
<rect width="16" height="16" fill="white" transform="translate(16 8)"/>
</clipPath>
</defs>
</svg>
