<svg width="48" height="32" viewBox="0 0 48 32" fill="none" xmlns="http://www.w3.org/2000/svg">
<g clip-path="url(#clip0_74_4482)">
<path fill-rule="evenodd" clip-rule="evenodd" d="M20.9773 12.5629C20.9111 12.5788 20.8458 12.5966 20.7812 12.6165L20.8428 12.6221C19.5213 13.2323 18.5834 14.532 18.4904 16.0598C17.0628 16.3953 16 17.677 16 19.2069C16 20.9923 17.4474 22.4397 19.2328 22.4397H19.2343L19.235 22.4397L25.6454 22.4397L25.6466 22.4397C27.7381 22.4396 29.4404 20.7734 29.4985 18.6959C30.9599 18.1483 32.0001 16.7388 32.0001 15.0862C32.0001 13.1838 30.6217 11.6036 28.8089 11.2895C28.207 9.80083 26.7486 8.75 25.0432 8.75C22.8857 8.75 21.1212 10.4327 20.9906 12.5574C20.9862 12.5592 20.9817 12.5611 20.9773 12.5629ZM29.2332 17.1744C29.9861 16.7818 30.5001 15.994 30.5001 15.0862C30.5001 13.8127 29.4884 12.7752 28.2252 12.734C27.8921 12.7232 27.6062 12.4938 27.5233 12.171C27.2395 11.0659 26.2357 10.25 25.0432 10.25C23.8217 10.25 22.7999 11.1055 22.5444 12.25C24.2492 12.2505 25.7071 13.3012 26.3088 14.7895C27.6467 15.0213 28.748 15.9427 29.2332 17.1744ZM19.9828 16.3103C19.9828 14.8963 21.1291 13.75 22.5431 13.75C23.7356 13.75 24.7394 14.5659 25.0232 15.671C25.1061 15.9938 25.392 16.2232 25.7251 16.234C26.9883 16.2752 28 17.3127 28 18.5862C28 19.886 26.9463 20.9396 25.6466 20.9397C25.6466 20.9397 25.6466 20.9397 25.6466 20.9397H19.235L19.2334 20.9397L19.2328 20.9397C18.2758 20.9397 17.5 20.1639 17.5 19.2069C17.5 18.2505 18.2748 17.4751 19.231 17.4741L19.2546 17.4743C19.4703 17.4753 19.6761 17.3835 19.8193 17.2221C19.9625 17.0607 20.0293 16.8455 20.0026 16.6314C19.9895 16.5266 19.9828 16.4194 19.9828 16.3103ZM25.7031 20.9418L25.7003 20.9416C25.7021 20.9417 25.7037 20.9418 25.7041 20.9419L25.704 20.9419L25.7038 20.9418L25.7031 20.9418ZM25.5929 22.4377C25.5917 22.4376 25.5906 22.4376 25.5899 22.4375L25.59 22.4375L25.5929 22.4377Z" fill="black"/>
</g>
<defs>
<clipPath id="clip0_74_4482">
<rect width="16" height="16" fill="white" transform="translate(16 8)"/>
</clipPath>
</defs>
</svg>
