<svg width="48" height="32" viewBox="0 0 48 32" fill="none" xmlns="http://www.w3.org/2000/svg">
<path fill-rule="evenodd" clip-rule="evenodd" d="M20.5 13.25C20.5 11.4551 21.9551 10 23.75 10C25.2639 10 26.5378 11.0359 26.8981 12.4386C26.981 12.7614 27.267 12.9908 27.6001 13.0016C28.3481 13.026 29.0262 13.3238 29.5395 13.7999C30.1313 14.3488 30.5 15.1308 30.5 16C30.5 16.4142 30.8358 16.75 31.25 16.75C31.6642 16.75 32 16.4142 32 16C32 14.6962 31.4445 13.521 30.5596 12.7001C29.9161 12.1033 29.0964 11.6917 28.1874 11.5523C27.5041 9.7677 25.7759 8.5 23.75 8.5C21.1854 8.5 19.0956 10.5324 19.0032 13.0744C17.2899 13.4206 16 14.9347 16 16.75C16 18.8211 17.6789 20.5 19.75 20.5H19.7503L19.7524 20.5H19.7527H20.25C20.6642 20.5 21 20.1642 21 19.75C21 19.3358 20.6642 19 20.25 19H19.7524H19.7521L19.75 19H19.7497H19.7497C18.5072 18.9998 17.5 17.9925 17.5 16.75C17.5 15.5079 18.5064 14.501 19.7482 14.5L19.7772 14.5001C19.9929 14.5012 20.1987 14.4094 20.3419 14.248C20.4851 14.0866 20.5519 13.8714 20.5252 13.6573C20.5086 13.5242 20.5 13.3883 20.5 13.25ZM29.0086 19.189C28.0307 18.9381 27.3506 18.0425 27.3486 17.0506L26.6681 16.7954C26.0428 17.6557 24.9041 17.9793 23.9214 17.6114L23.5153 18.18C24.0844 18.9676 24.0844 20.0495 23.5153 20.8371L23.9214 21.4058C24.9041 21.0379 26.0428 21.3615 26.6681 22.2218L27.3486 21.9666C27.3506 20.9747 28.0307 20.0791 29.0086 19.8282V19.189ZM28.8961 16.7925C29.0348 16.4228 28.8474 16.0106 28.4777 15.872L26.68 15.1979C26.2327 15.0301 25.734 15.2568 25.5663 15.7041C25.3666 16.2366 24.7087 16.4294 24.2459 16.0989C23.8515 15.8171 23.2974 15.9043 23.0157 16.2988L21.9398 17.805C21.6922 18.1516 21.7725 18.6333 22.1191 18.8809C22.5498 19.1885 22.5498 19.8286 22.1191 20.1362C21.7725 20.3838 21.6922 20.8656 21.9398 21.2122L23.0157 22.7184C23.2974 23.1128 23.8515 23.2 24.2459 22.9183C24.7087 22.5877 25.3666 22.7806 25.5663 23.3131C25.734 23.7604 26.2327 23.9871 26.68 23.8193L28.4777 23.1452C28.8474 23.0065 29.0348 22.5944 28.8961 22.2246C28.7208 21.7572 29.0664 21.2586 29.5656 21.2586H29.7003C30.1467 21.2586 30.5086 20.8967 30.5086 20.4502V18.5669C30.5086 18.1205 30.1467 17.7586 29.7003 17.7586H29.5656C29.0664 17.7586 28.7208 17.26 28.8961 16.7925ZM27.063 19.5016C27.063 20.0824 26.5922 20.5533 26.0114 20.5533C25.4306 20.5533 24.9597 20.0824 24.9597 19.5016C24.9597 18.9208 25.4306 18.45 26.0114 18.45C26.5922 18.45 27.063 18.9208 27.063 19.5016Z" fill="black"/>
</svg>
