<svg width="48" height="32" viewBox="0 0 48 32" fill="none" xmlns="http://www.w3.org/2000/svg">
<path fill-rule="evenodd" clip-rule="evenodd" d="M19.5036 13.8975C18.3475 13.5722 17.5 12.5101 17.5 11.25C17.5 11.1551 17.5048 11.0613 17.5142 10.9688C17.655 9.58212 18.8261 8.5 20.25 8.5C21.7688 8.5 23 9.73122 23 11.25C23 12.5063 22.1576 13.5658 21.0069 13.8945C21.0796 14.6551 21.7203 15.25 22.5 15.25H24H25.5C26.2797 15.25 26.9204 14.6551 26.9931 13.8945C25.8424 13.5658 25 12.5063 25 11.25C25 9.73122 26.2312 8.5 27.75 8.5C29.2688 8.5 30.5 9.73122 30.5 11.25C30.5 11.3449 30.4952 11.4387 30.4858 11.5312C30.3706 12.6659 29.5654 13.5967 28.4964 13.8975C28.4195 15.4858 27.1074 16.75 25.5 16.75H24.75V18.1035C25.9043 18.43 26.75 19.4912 26.75 20.75C26.75 22.2688 25.5188 23.5 24 23.5C22.4812 23.5 21.25 22.2688 21.25 20.75C21.25 20.6551 21.2548 20.5613 21.2642 20.4688C21.3793 19.3353 22.1828 18.4054 23.25 18.1035V16.75H22.5C20.8926 16.75 19.5805 15.4858 19.5036 13.8975ZM19 11.25C19 10.5596 19.5596 10 20.25 10C20.9404 10 21.5 10.5596 21.5 11.25C21.5 11.9404 20.9404 12.5 20.25 12.5C19.6028 12.5 19.0705 12.0081 19.0065 11.3778C19.0022 11.3358 19 11.2931 19 11.25ZM22.75 20.75C22.75 20.0596 23.3096 19.5 24 19.5C24.6904 19.5 25.25 20.0596 25.25 20.75C25.25 21.4404 24.6904 22 24 22C23.3528 22 22.8205 21.5081 22.7565 20.8778C22.7522 20.8358 22.75 20.7931 22.75 20.75ZM26.5 11.25C26.5 10.5596 27.0596 10 27.75 10C28.4404 10 29 10.5596 29 11.25C29 11.9404 28.4404 12.5 27.75 12.5C27.0596 12.5 26.5 11.9404 26.5 11.25Z" fill="black"/>
</svg>
