<svg width="48" height="32" viewBox="0 0 48 32" fill="none" xmlns="http://www.w3.org/2000/svg">
<path fill-rule="evenodd" clip-rule="evenodd" d="M21.3124 12.909C21.0918 13.2638 20.6985 13.5 20.25 13.5C19.8015 13.5 19.4082 13.2638 19.1876 12.909C19.0711 12.7216 19.0028 12.501 19.0001 12.2648C19 12.2598 19 12.2549 19 12.25C19 11.6028 19.4919 11.0705 20.1222 11.0065C20.1642 11.0022 20.2069 11 20.25 11C20.9404 11 21.5 11.5596 21.5 12.25C21.5 12.4918 21.4313 12.7177 21.3124 12.909ZM19.1876 19.091C19.0687 19.2823 19 19.5081 19 19.75C19 20.4404 19.5596 21 20.25 21C20.2598 21 20.2697 20.9999 20.2795 20.9997C20.5097 20.9943 20.7251 20.9265 20.909 20.8124C21.2638 20.5918 21.5 20.1985 21.5 19.75C21.5 19.0596 20.9404 18.5 20.25 18.5C19.8015 18.5 19.4082 18.7362 19.1876 19.091ZM21 17.1035V14.8965C22.1543 14.57 23 13.5088 23 12.25C23 10.7312 21.7688 9.5 20.25 9.5C18.7312 9.5 17.5 10.7312 17.5 12.25C17.5 13.484 18.3128 14.5282 19.4322 14.8764C19.4547 14.8834 19.4773 14.8901 19.5 14.8965V17.1035C18.3457 17.43 17.5 18.4912 17.5 19.75C17.5 21.1739 18.5821 22.345 19.9688 22.4858C20.0613 22.4952 20.1551 22.5 20.25 22.5C21.484 22.5 22.5282 21.6872 22.8764 20.5678C22.8834 20.5453 22.8901 20.5227 22.8965 20.5H25.5C27.1504 20.5 28.4895 19.1673 28.4999 17.5194C28.5 17.5129 28.5 17.5065 28.5 17.5V14.8965C29.6543 14.57 30.5 13.5088 30.5 12.25C30.5 10.7312 29.2688 9.5 27.75 9.5C26.2312 9.5 25 10.7312 25 12.25C25 13.484 25.8128 14.5282 26.9322 14.8764C26.9547 14.8834 26.9773 14.8901 27 14.8965V17.5C27 18.3284 26.3284 19 25.5 19H22.8965C22.6439 18.1069 21.9513 17.3985 21.0678 17.1236C21.0453 17.1166 21.0227 17.1099 21 17.1035ZM28.8124 12.909C28.9313 12.7177 29 12.4918 29 12.25C29 11.5596 28.4404 11 27.75 11C27.0596 11 26.5 11.5596 26.5 12.25C26.5 12.4918 26.5687 12.7177 26.6876 12.909C26.9082 13.2638 27.3015 13.5 27.75 13.5C28.1985 13.5 28.5918 13.2638 28.8124 12.909Z" fill="black"/>
</svg>
