<svg width="48" height="32" viewBox="0 0 48 32" fill="none" xmlns="http://www.w3.org/2000/svg">
<path fill-rule="evenodd" clip-rule="evenodd" d="M25.2192 22.0298C25.2193 22.03 25.219 22.0297 25.2192 22.0298C25.5121 22.3227 25.9874 22.3232 26.2803 22.0303C26.2938 22.0169 26.3066 22.0031 26.3188 21.9889C26.5726 21.6942 26.5598 21.2491 26.2803 20.9697L25.8107 20.5H26C26.1036 20.5 26.2059 20.4948 26.3067 20.4845C26.5047 20.4644 26.697 20.4251 26.8816 20.3684C27.1021 20.3007 27.3117 20.2083 27.5072 20.0945C28.3999 19.5747 29 18.6074 29 17.5L29 14.8965C29.0009 14.8962 29.0019 14.8959 29.0028 14.8957C29.2489 14.8258 29.4809 14.7225 29.6936 14.5911C29.7253 14.5715 29.7567 14.5512 29.7876 14.5303C30.5191 14.0361 31 13.1992 31 12.25C31 10.7312 29.7688 9.5 28.25 9.5C27.205 9.5 26.2961 10.0829 25.8307 10.9414C25.6198 11.3305 25.5 11.7763 25.5 12.25C25.5 12.7237 25.6198 13.1695 25.8307 13.5586C25.8555 13.6044 25.8816 13.6494 25.9089 13.6936C25.9285 13.7253 25.9488 13.7567 25.9697 13.7876C26.3285 14.3187 26.868 14.7177 27.5 14.8965L27.5 17.5C27.5 18.1083 27.1379 18.6321 26.6174 18.8674C26.4291 18.9526 26.2201 19 26 19H25.8107L26.2798 18.5308C26.28 18.5307 26.2797 18.531 26.2798 18.5308C26.5628 18.2479 26.5729 17.7945 26.309 17.5C26.2998 17.4897 26.2902 17.4796 26.2803 17.4697C26.1985 17.3878 26.1024 17.3288 26 17.2927C25.7362 17.1997 25.4307 17.2587 25.2197 17.4697L24.75 17.9393C24.7501 17.9392 24.7499 17.9395 24.75 17.9393L23.4697 19.2197C23.329 19.3603 23.25 19.5511 23.25 19.75C23.25 19.9489 23.329 20.1397 23.4697 20.2803L25.2192 22.0298ZM21.7197 9.96967C22.0126 9.67678 22.4874 9.67678 22.7803 9.96967L23.25 10.4393C23.2502 10.4395 23.2498 10.4392 23.25 10.4393L24.5303 11.7197C24.6768 11.8661 24.75 12.0581 24.75 12.25C24.75 12.4419 24.6768 12.6339 24.5303 12.7803L22.7808 14.5298C22.781 14.5297 22.7807 14.53 22.7808 14.5298C22.5698 14.7408 22.2638 14.8003 22 14.7073C21.8976 14.6712 21.8015 14.6122 21.7197 14.5303C21.7098 14.5204 21.7002 14.5103 21.691 14.5C21.4271 14.2055 21.4367 13.7527 21.7197 13.4697L22.1893 13H22C21.7799 13 21.5709 13.0474 21.3826 13.1326C20.8621 13.3679 20.5 13.8917 20.5 14.5V17.1035C21.22 17.3071 21.8199 17.7967 22.1695 18.4417C22.3803 18.8308 22.5 19.2764 22.5 19.75C22.5 20.2236 22.3803 20.6692 22.1695 21.0583C21.9577 21.449 21.6541 21.7827 21.2876 22.0303C21.2567 22.0512 21.2253 22.0715 21.1936 22.0911C20.774 22.3504 20.2795 22.5 19.75 22.5C18.8008 22.5 17.9639 22.0191 17.4697 21.2876C17.4488 21.2567 17.4285 21.2253 17.4089 21.1936C17.1496 20.774 17 20.2795 17 19.75C17 18.516 17.8128 17.4718 18.9322 17.1236C18.9547 17.1166 18.9773 17.1099 19 17.1035V14.5C19 13.3926 19.6 12.4253 20.4928 11.9055C20.6883 11.7917 20.8979 11.6993 21.1184 11.6316C21.3971 11.5461 21.6932 11.5 22 11.5H22.1893L21.7197 11.0303C21.4402 10.7509 21.4274 10.3058 21.6812 10.0111C21.6934 9.99694 21.7062 9.98311 21.7197 9.96967ZM20.8124 19.091C20.9265 19.2749 20.9943 19.4903 20.9997 19.7205C20.9999 19.7303 21 19.7402 21 19.75C21 20.4404 20.4404 21 19.75 21C19.0596 21 18.5 20.4404 18.5 19.75C18.5 19.5082 18.5687 19.2823 18.6876 19.091C18.9082 18.7362 19.3015 18.5 19.75 18.5C20.1985 18.5 20.5918 18.7362 20.8124 19.091ZM27 12.25C27 11.5596 27.5596 11 28.25 11C28.9404 11 29.5 11.5596 29.5 12.25C29.5 12.9404 28.9404 13.5 28.25 13.5C27.5596 13.5 27 12.9404 27 12.25Z" fill="black"/>
</svg>
