<svg width="48" height="32" viewBox="0 0 48 32" fill="none" xmlns="http://www.w3.org/2000/svg">
<path fill-rule="evenodd" clip-rule="evenodd" d="M22.5303 13.7876C22.3742 14.0187 22.1839 14.2248 21.9666 14.3986C21.6845 14.6242 21.357 14.7955 21 14.8965V17.25C21 17.6642 20.6642 18 20.25 18C19.8358 18 19.5 17.6642 19.5 17.25V14.8965L19.4972 14.8957C19.2511 14.8258 19.0191 14.7225 18.8064 14.5911C18.7747 14.5715 18.7433 14.5512 18.7124 14.5303C17.9809 14.0361 17.5 13.1992 17.5 12.25C17.5 10.7312 18.7312 9.5 20.25 9.5C20.8993 9.5 21.4961 9.72506 21.9666 10.1014C22.3661 10.4211 22.6746 10.8498 22.8468 11.3426L24.2197 9.96967C24.5126 9.67678 24.9874 9.67678 25.2803 9.96967C25.2902 9.97958 25.2998 9.98969 25.309 10C25.5729 10.2945 25.5633 10.7473 25.2803 11.0303L24.8107 11.5H25.5C25.588 11.5 25.6751 11.5038 25.7612 11.5112C26.0694 11.5378 26.3643 11.611 26.6387 11.7237C27.7309 12.1721 28.5 13.2462 28.5 14.5V15.25C28.5 15.6642 28.1642 16 27.75 16C27.3358 16 27 15.6642 27 15.25V14.5C27 14.4235 26.9943 14.3483 26.9832 14.2749C26.8861 13.629 26.377 13.118 25.7321 13.0179C25.6565 13.0061 25.579 13 25.5 13L24.8107 13L25.2803 13.4697C25.5633 13.7527 25.5729 14.2055 25.309 14.5C25.2998 14.5103 25.2902 14.5204 25.2803 14.5303C24.9874 14.8232 24.5126 14.8232 24.2197 14.5303L22.8468 13.1574L22.8464 13.1584C22.7804 13.347 22.6945 13.5263 22.5911 13.6936C22.5715 13.7253 22.5512 13.7567 22.5303 13.7876ZM21.5 12.25C21.5 11.7522 21.209 11.3223 20.7878 11.1213C20.6249 11.0435 20.4425 11 20.25 11C19.5596 11 19 11.5596 19 12.25C19 12.9404 19.5596 13.5 20.25 13.5C20.9404 13.5 21.5 12.9404 21.5 12.25ZM26.4697 18.7803C26.1768 18.4874 26.1768 18.0126 26.4697 17.7197C26.7626 17.4268 27.2374 17.4268 27.5303 17.7197L29.2803 19.4697C29.5732 19.7626 29.5732 20.2374 29.2803 20.5303L27.5303 22.2803C27.2374 22.5732 26.7626 22.5732 26.4697 22.2803C26.1768 21.9874 26.1768 21.5126 26.4697 21.2197L26.9393 20.75H19.25C18.8358 20.75 18.5 20.4142 18.5 20C18.5 19.5858 18.8358 19.25 19.25 19.25H26.9393L26.4697 18.7803Z" fill="black"/>
</svg>
