<svg width="48" height="32" viewBox="0 0 48 32" fill="none" xmlns="http://www.w3.org/2000/svg">
<path fill-rule="evenodd" clip-rule="evenodd" d="M20.7878 11.1213C21.209 11.3223 21.5 11.7522 21.5 12.25C21.5 12.9404 20.9404 13.5 20.25 13.5C19.8015 13.5 19.4082 13.2638 19.1876 12.909C19.0687 12.7177 19 12.4918 19 12.25C19 11.5596 19.5596 11 20.25 11C20.4425 11 20.6249 11.0435 20.7878 11.1213ZM19.5 14.8965C19.4773 14.8901 19.4547 14.8834 19.4322 14.8764C18.3128 14.5282 17.5 13.484 17.5 12.25C17.5 10.7312 18.7312 9.5 20.25 9.5C20.8993 9.5 21.4961 9.72506 21.9666 10.1014C22.3661 10.4211 22.6746 10.8498 22.8468 11.3426L24.2194 9.96989C24.5123 9.677 24.9874 9.67678 25.2803 9.96967C25.2902 9.97958 25.2998 9.98969 25.309 10C25.5729 10.2945 25.5633 10.7473 25.2803 11.0303L24.8107 11.5H25.5C25.588 11.5 25.6751 11.5038 25.7612 11.5112C26.0694 11.5378 26.3643 11.611 26.6387 11.7237C27.7309 12.1721 28.5 13.2462 28.5 14.5V17.1035C28.5227 17.1099 28.5453 17.1166 28.5678 17.1236C29.6872 17.4718 30.5 18.516 30.5 19.75C30.5 21.2688 29.2688 22.5 27.75 22.5C26.2312 22.5 25 21.2688 25 19.75C25 19.7441 25 19.7381 25.0001 19.7322C25.008 18.4812 25.8512 17.4284 27 17.1035V14.5C27 14.4235 26.9943 14.3483 26.9832 14.2749C26.8861 13.629 26.377 13.118 25.7321 13.0179C25.6565 13.0061 25.579 13 25.5 13L24.8107 13L25.2803 13.4697C25.5633 13.7527 25.5729 14.2055 25.309 14.5C25.2998 14.5103 25.2902 14.5204 25.2803 14.5303C24.9874 14.8232 24.5126 14.8232 24.2197 14.5303L22.8468 13.1574C22.8275 13.2126 22.8065 13.2669 22.7839 13.3204C22.6044 13.7448 22.3214 14.1147 21.9666 14.3986C21.6845 14.6242 21.357 14.7955 21 14.8965V17.1035C21.0227 17.1099 21.0453 17.1166 21.0678 17.1236C22.1872 17.4718 23 18.516 23 19.75C23 21.2688 21.7688 22.5 20.25 22.5C18.7312 22.5 17.5 21.2688 17.5 19.75C17.5 18.4912 18.3457 17.43 19.5 17.1035V14.8965ZM19.1876 19.091C19.0735 19.2749 19.0057 19.4903 19.0003 19.7205C19.0001 19.7303 19 19.7402 19 19.75C19 19.7931 19.0022 19.8358 19.0065 19.8778C19.0705 20.5081 19.6028 21 20.25 21C20.9404 21 21.5 20.4404 21.5 19.75C21.5 19.5082 21.4313 19.2823 21.3124 19.091C21.0918 18.7362 20.6985 18.5 20.25 18.5C19.8015 18.5 19.4082 18.7362 19.1876 19.091ZM26.6876 19.091C26.5735 19.2749 26.5057 19.4903 26.5003 19.7205C26.5001 19.7303 26.5 19.7402 26.5 19.75C26.5 19.7931 26.5022 19.8358 26.5065 19.8778C26.5705 20.5081 27.1028 21 27.75 21C28.4404 21 29 20.4404 29 19.75C29 19.5082 28.9313 19.2823 28.8124 19.091C28.5918 18.7362 28.1985 18.5 27.75 18.5C27.3015 18.5 26.9082 18.7362 26.6876 19.091Z" fill="black"/>
</svg>
