<svg width="48" height="32" viewBox="0 0 48 32" fill="none" xmlns="http://www.w3.org/2000/svg">
<path fill-rule="evenodd" clip-rule="evenodd" d="M23.25 9.75006V12.0703C21.3994 12.4213 20 14.0473 20 16.0001C20 17.9529 21.3994 19.5788 23.25 19.9299V22.25C23.25 22.6642 23.5858 23 24 23C24.4142 23 24.75 22.6642 24.75 22.25V19.9299C26.6006 19.5788 28 17.9529 28 16.0001C28 14.0473 26.6006 12.4213 24.75 12.0703V9.75006C24.75 9.33585 24.4142 9.00006 24 9.00006C23.5858 9.00006 23.25 9.33585 23.25 9.75006ZM24 18.5001C25.3807 18.5001 26.5 17.3808 26.5 16.0001C26.5 14.6193 25.3807 13.5001 24 13.5001C22.6193 13.5001 21.5 14.6193 21.5 16.0001C21.5 17.3808 22.6193 18.5001 24 18.5001Z" fill="black"/>
</svg>
