<svg width="48" height="32" viewBox="0 0 48 32" fill="none" xmlns="http://www.w3.org/2000/svg">
<path fill-rule="evenodd" clip-rule="evenodd" d="M24 11.2501L23.9922 11.25C23.3054 11.2542 22.75 11.8123 22.75 12.5C22.75 13.1904 23.3096 13.75 24 13.75C24.6904 13.75 25.25 13.1904 25.25 12.5C25.25 11.8123 24.6946 11.2542 24.0078 11.25L24 11.2501ZM24.75 8.75V9.85353C25.9043 10.18 26.75 11.2412 26.75 12.5C26.75 13.7588 25.9043 14.82 24.75 15.1465V16.8535C25.9043 17.18 26.75 18.2412 26.75 19.5C26.75 20.7588 25.9043 21.82 24.75 22.1465V23.25C24.75 23.6642 24.4142 24 24 24C23.5858 24 23.25 23.6642 23.25 23.25V22.1465C22.0957 21.82 21.25 20.7588 21.25 19.5C21.25 18.2412 22.0957 17.18 23.25 16.8535V15.1465C22.0957 14.82 21.25 13.7588 21.25 12.5C21.25 11.2412 22.0957 10.18 23.25 9.85353V8.75C23.25 8.33579 23.5858 8 24 8C24.4142 8 24.75 8.33579 24.75 8.75ZM24.0047 20.75C24.0031 20.75 24.0016 20.75 24 20.75C23.9984 20.75 23.9969 20.75 23.9953 20.75C23.3071 20.7475 22.75 20.1888 22.75 19.5C22.75 18.8097 23.3096 18.25 24 18.25C24.6904 18.25 25.25 18.8097 25.25 19.5C25.25 20.1888 24.6929 20.7475 24.0047 20.75Z" fill="black"/>
</svg>
