<svg width="48" height="32" viewBox="0 0 48 32" fill="none" xmlns="http://www.w3.org/2000/svg">
<path fill-rule="evenodd" clip-rule="evenodd" d="M26.2184 11.2156C26.3374 10.8189 26.1123 10.4008 25.7155 10.2817C25.3188 10.1627 24.9007 10.3879 24.7816 10.7846L21.7816 20.7846C21.6626 21.1813 21.8877 21.5995 22.2845 21.7185C22.6812 21.8375 23.0993 21.6124 23.2184 21.2156L26.2184 11.2156ZM20.5303 12.9695C20.8232 13.2624 20.8232 13.7373 20.5303 14.0302L18.5607 15.9999L20.5303 17.9695C20.8232 18.2624 20.8232 18.7373 20.5303 19.0302C20.2374 19.3231 19.7626 19.3231 19.4697 19.0302L16.9697 16.5302C16.829 16.3895 16.75 16.1988 16.75 15.9999C16.75 15.8009 16.829 15.6102 16.9697 15.4695L19.4697 12.9695C19.7626 12.6766 20.2374 12.6766 20.5303 12.9695ZM27.4697 19.0302C27.1768 18.7373 27.1768 18.2624 27.4697 17.9695L29.4393 15.9999L27.4697 14.0302C27.1768 13.7373 27.1768 13.2624 27.4697 12.9695C27.7626 12.6766 28.2374 12.6766 28.5303 12.9695L31.0303 15.4695C31.171 15.6102 31.25 15.8009 31.25 15.9999C31.25 16.1988 31.171 16.3895 31.0303 16.5302L28.5303 19.0302C28.2374 19.3231 27.7626 19.3231 27.4697 19.0302Z" fill="black"/>
</svg>
