<svg width="48" height="32" viewBox="0 0 48 32" fill="none" xmlns="http://www.w3.org/2000/svg">
<path fill-rule="evenodd" clip-rule="evenodd" d="M21.9666 14.3986C22.1839 14.2248 22.3742 14.0187 22.5303 13.7876C22.5512 13.7567 22.5715 13.7253 22.5911 13.6936C22.6945 13.5263 22.7804 13.347 22.8464 13.1584C22.8465 13.1581 22.8467 13.1577 22.8468 13.1574L24.2197 14.5303C24.5126 14.8232 24.9874 14.8232 25.2803 14.5303C25.2902 14.5204 25.2998 14.5103 25.309 14.5C25.5729 14.2055 25.5633 13.7527 25.2803 13.4697L24.8107 13L25.5 13C25.579 13 25.6565 13.0061 25.7321 13.0179C26.377 13.118 26.8861 13.629 26.9832 14.2749C26.9943 14.3483 27 14.4235 27 14.5V16.25C27 16.3258 27.0112 16.3989 27.0321 16.4679C27.0909 16.6619 27.2263 16.8226 27.403 16.915C27.5067 16.9693 27.6248 17 27.75 17C27.8752 17 27.9933 16.9693 28.097 16.9151C28.2738 16.8227 28.4091 16.6619 28.4679 16.4679C28.4888 16.3989 28.5 16.3258 28.5 16.25V14.5C28.5 13.2462 27.7309 12.1721 26.6387 11.7237C26.3643 11.611 26.0694 11.5378 25.7612 11.5112C25.6751 11.5038 25.588 11.5 25.5 11.5H24.8107L25.2803 11.0303C25.5633 10.7473 25.5729 10.2945 25.309 10C25.2998 9.98969 25.2902 9.97958 25.2803 9.96967C24.9874 9.67678 24.5126 9.67678 24.2197 9.96967L22.8468 11.3426C22.6746 10.8498 22.3661 10.4211 21.9666 10.1014C21.4961 9.72506 20.8993 9.5 20.25 9.5C18.7312 9.5 17.5 10.7312 17.5 12.25C17.5 13.1992 17.9809 14.0361 18.7124 14.5303C18.7433 14.5512 18.7747 14.5715 18.8064 14.5911C19.0191 14.7225 19.2511 14.8258 19.4972 14.8957C19.4981 14.8959 19.4991 14.8962 19.5 14.8965V17.1035C18.3457 17.43 17.5 18.4912 17.5 19.75C17.5 20.6992 17.9809 21.5361 18.7124 22.0303C18.7433 22.0512 18.7747 22.0715 18.8064 22.0911C19.226 22.3504 19.7205 22.5 20.25 22.5C21.1992 22.5 22.0361 22.0191 22.5303 21.2876C22.5512 21.2567 22.5715 21.2253 22.5911 21.1936C22.8504 20.774 23 20.2795 23 19.75C23 18.516 22.1872 17.4718 21.0678 17.1236C21.0453 17.1166 21.0227 17.1099 21 17.1035V14.8965C21.357 14.7955 21.6845 14.6242 21.9666 14.3986ZM25.2197 21.2197C24.9268 21.5126 24.9268 21.9874 25.2197 22.2803C25.5126 22.5732 25.9874 22.5732 26.2803 22.2803L27.75 20.8107L29.2197 22.2803C29.5126 22.5732 29.9874 22.5732 30.2803 22.2803C30.5732 21.9874 30.5732 21.5126 30.2803 21.2197L28.8107 19.75L30.2803 18.2803C30.5732 17.9874 30.5732 17.5126 30.2803 17.2197C30.1642 17.1035 30.0194 17.0334 29.8686 17.0094C29.6394 16.9729 29.3964 17.0429 29.2197 17.2197L27.75 18.6893L26.2803 17.2197C26.1036 17.043 25.8607 16.9729 25.6314 17.0094C25.4807 17.0334 25.3358 17.1035 25.2197 17.2197C24.9268 17.5126 24.9268 17.9874 25.2197 18.2803L26.6893 19.75L25.2197 21.2197ZM19.1876 19.091C19.0735 19.2749 19.0057 19.4903 19.0003 19.7205C19.0001 19.7303 19 19.7402 19 19.75C19 20.4404 19.5596 21 20.25 21C20.9404 21 21.5 20.4404 21.5 19.75C21.5 19.5081 21.4313 19.2823 21.3124 19.091C21.0918 18.7362 20.6985 18.5 20.25 18.5C19.8015 18.5 19.4082 18.7362 19.1876 19.091ZM20.7878 11.1213C21.209 11.3223 21.5 11.7522 21.5 12.25C21.5 12.9404 20.9404 13.5 20.25 13.5C19.5596 13.5 19 12.9404 19 12.25C19 11.5596 19.5596 11 20.25 11C20.4425 11 20.6249 11.0435 20.7878 11.1213Z" fill="black"/>
</svg>
