<svg width="48" height="32" viewBox="0 0 48 32" fill="none" xmlns="http://www.w3.org/2000/svg">
<path fill-rule="evenodd" clip-rule="evenodd" d="M30.25 15.25L27.9298 15.25C27.5787 13.3994 25.9528 12 24 12C22.0472 12 20.4213 13.3994 20.0702 15.25L17.75 15.25C17.3358 15.25 17 15.5858 17 16C17 16.4142 17.3358 16.75 17.75 16.75L20.0702 16.75C20.4213 18.6007 22.0472 20 24 20C25.9528 20 27.5787 18.6007 27.9298 16.75L30.25 16.75C30.6642 16.75 31 16.4142 31 16C31 15.5858 30.6642 15.25 30.25 15.25ZM21.5 16C21.5 17.3807 22.6193 18.5 24 18.5C25.3807 18.5 26.5 17.3807 26.5 16C26.5 14.6193 25.3807 13.5 24 13.5C22.6193 13.5 21.5 14.6193 21.5 16Z" fill="black"/>
</svg>
