<svg width="48" height="32" viewBox="0 0 48 32" fill="none" xmlns="http://www.w3.org/2000/svg">
<path fill-rule="evenodd" clip-rule="evenodd" d="M21.9666 14.3986C22.1839 14.2248 22.3742 14.0187 22.5303 13.7876C22.5512 13.7567 22.5715 13.7254 22.5911 13.6936C22.6877 13.5373 22.769 13.3706 22.8331 13.1956C22.8378 13.1829 22.8423 13.1702 22.8468 13.1575L24.2197 14.5304C24.5126 14.8233 24.9874 14.8233 25.2803 14.5304C25.2902 14.5205 25.2998 14.5104 25.309 14.5001C25.5729 14.2056 25.5633 13.7527 25.2803 13.4697L24.8107 13H25.5C25.579 13 25.6565 13.0061 25.7321 13.0179C26.377 13.1181 26.8861 13.6291 26.9832 14.275C26.9943 14.3484 27 14.4236 27 14.5001V17.2501C27 17.4422 27.0722 17.6174 27.191 17.7501C27.3283 17.9036 27.5279 18.0001 27.75 18.0001C27.9721 18.0001 28.1717 17.9036 28.309 17.7501C28.4278 17.6174 28.5 17.4422 28.5 17.2501V14.5001C28.5 13.2463 27.7309 12.1721 26.6387 11.7237C26.3643 11.611 26.0694 11.5378 25.7612 11.5112C25.6751 11.5038 25.588 11.5 25.5 11.5H24.8107L25.2803 11.0304C25.5633 10.7474 25.5729 10.2945 25.309 10C25.2998 9.9897 25.2902 9.97958 25.2803 9.96968C24.9874 9.67678 24.5126 9.67678 24.2197 9.96968L22.8468 11.3426C22.6746 10.8499 22.3661 10.4211 21.9666 10.1014C21.4961 9.72506 20.8993 9.5 20.25 9.5C18.7312 9.5 17.5 10.7312 17.5 12.25C17.5 13.1993 17.9809 14.0362 18.7124 14.5304C18.7433 14.5513 18.7747 14.5715 18.8064 14.5912C19.0191 14.7226 19.2511 14.8259 19.4972 14.8958L19.5 14.8966V15.5001C19.5 15.8387 19.7243 16.1248 20.0325 16.2181C20.1013 16.2389 20.1744 16.2501 20.25 16.2501C20.4679 16.2501 20.664 16.1572 20.8011 16.0088C20.9246 15.8752 21 15.6964 21 15.5001V14.8966C21.357 14.7956 21.6845 14.6243 21.9666 14.3986ZM21.2173 17.5321C20.9613 17.4549 20.672 17.5174 20.4697 17.7198L20.469 17.7205L18.7197 19.4698C18.4268 19.7627 18.4268 20.2376 18.7197 20.5305L20.4693 22.2801C20.7622 22.573 21.2374 22.5734 21.5303 22.2805C21.5402 22.2706 21.5498 22.2605 21.559 22.2502C21.8229 21.9557 21.8133 21.5028 21.5303 21.2198L21.0607 20.7502H28.75C29.1642 20.7502 29.5 20.4144 29.5 20.0001C29.5 19.5962 29.1806 19.2668 28.7806 19.2508C28.7705 19.2503 28.7603 19.2501 28.75 19.2501H21.0607L21.5296 18.7812L21.5303 18.7805C21.8133 18.4975 21.8229 18.0446 21.559 17.7501C21.5498 17.7398 21.5402 17.7297 21.5303 17.7198C21.4398 17.6293 21.3319 17.5667 21.2173 17.5321ZM20.7878 11.1213C21.209 11.3223 21.5 11.7522 21.5 12.25C21.5 12.9404 20.9404 13.5001 20.25 13.5001C19.5596 13.5001 19 12.9404 19 12.25C19 11.5597 19.5596 11 20.25 11C20.4425 11 20.6249 11.0435 20.7878 11.1213Z" fill="black"/>
</svg>
