<svg width="48" height="32" viewBox="0 0 48 32" fill="none" xmlns="http://www.w3.org/2000/svg">
<path fill-rule="evenodd" clip-rule="evenodd" d="M21.3124 19.091C21.0918 18.7362 20.6985 18.5 20.25 18.5C19.8015 18.5 19.4082 18.7362 19.1876 19.091C19.0711 19.2784 19.0028 19.499 19.0001 19.7352C19 19.7402 19 19.7451 19 19.75C19 20.3972 19.4919 20.9295 20.1222 20.9935C20.1642 20.9978 20.2069 21 20.25 21C20.9404 21 21.5 20.4404 21.5 19.75C21.5 19.5082 21.4313 19.2823 21.3124 19.091ZM19.1876 12.909C19.0687 12.7177 19 12.4919 19 12.25C19 11.5596 19.5596 11 20.25 11C20.2598 11 20.2697 11.0001 20.2795 11.0003C20.5097 11.0057 20.7251 11.0735 20.909 11.1876C21.2638 11.4082 21.5 11.8015 21.5 12.25C21.5 12.9404 20.9404 13.5 20.25 13.5C19.8015 13.5 19.4082 13.2638 19.1876 12.909ZM21 14.8965V17.1035C22.1543 17.43 23 18.4912 23 19.75C23 21.2688 21.7688 22.5 20.25 22.5C18.7312 22.5 17.5 21.2688 17.5 19.75C17.5 18.516 18.3128 17.4718 19.4322 17.1236C19.4547 17.1166 19.4773 17.1099 19.5 17.1035V14.8965C18.3457 14.57 17.5 13.5088 17.5 12.25C17.5 10.8261 18.5821 9.65503 19.9688 9.5142C20.0613 9.50481 20.1551 9.5 20.25 9.5C21.484 9.5 22.5282 10.3128 22.8764 11.4322C22.8834 11.4547 22.8901 11.4773 22.8965 11.5H25.5C27.1504 11.5 28.4895 12.8327 28.4999 14.4806C28.5 14.4871 28.5 14.4935 28.5 14.5V17.1035C29.6543 17.43 30.5 18.4912 30.5 19.75C30.5 21.2688 29.2688 22.5 27.75 22.5C26.2312 22.5 25 21.2688 25 19.75C25 18.516 25.8128 17.4718 26.9322 17.1236C26.9547 17.1166 26.9773 17.1099 27 17.1035V14.5C27 13.6716 26.3284 13 25.5 13H22.8965C22.6439 13.8931 21.9513 14.6015 21.0678 14.8764C21.0453 14.8834 21.0227 14.8901 21 14.8965ZM28.8124 19.091C28.9313 19.2823 29 19.5082 29 19.75C29 20.4404 28.4404 21 27.75 21C27.0596 21 26.5 20.4404 26.5 19.75C26.5 19.5082 26.5687 19.2823 26.6876 19.091C26.9082 18.7362 27.3015 18.5 27.75 18.5C28.1985 18.5 28.5918 18.7362 28.8124 19.091Z" fill="black"/>
</svg>
