<svg width="48" height="32" viewBox="0 0 48 32" fill="none" xmlns="http://www.w3.org/2000/svg">
<path fill-rule="evenodd" clip-rule="evenodd" d="M19.9797 11.6774C20.9133 10.9403 22.3054 10.5 24 10.5C24.3181 10.5 24.6265 10.5156 24.9238 10.5459C25.3359 10.588 25.704 10.2881 25.7461 9.87599C25.7882 9.46392 25.4883 9.09576 25.0762 9.05369C24.7262 9.01796 24.3669 9 24 9C22.0668 9 20.3169 9.50009 19.0503 10.5C17.7836 11.4999 17 12.9999 17 15C17 17.1171 17.8779 18.6739 19.2775 19.6704L19.1538 21.1543C19.071 22.1479 19.8551 23 20.8521 23C21.2695 23 21.6723 22.8468 21.9843 22.5695L23.7531 20.9973C23.835 20.9991 23.9174 21 24 21C25.9332 21 27.6831 20.4999 28.9497 19.5C30.2164 18.5001 31 17.0001 31 15C31 14.5858 30.6642 14.25 30.25 14.25C29.8358 14.25 29.5 14.5858 29.5 15C29.5 16.5633 28.9095 17.6207 28.0203 18.3226C27.0867 19.0597 25.6946 19.5 24 19.5C23.9284 19.5 23.8572 19.4992 23.7865 19.4976L23.4918 19.4911L23.1972 19.4845L22.9768 19.6803L20.9877 21.4484C20.9503 21.4817 20.9021 21.5 20.8521 21.5C20.7326 21.5 20.6387 21.3979 20.6486 21.2789L20.8078 19.3694L20.8432 18.9438L20.4954 18.6962L20.1475 18.4485C19.1558 17.7424 18.5 16.6476 18.5 15C18.5 13.4367 19.0905 12.3793 19.9797 11.6774ZM28.5 13.5C29.6046 13.5 30.5 12.6046 30.5 11.5C30.5 10.3954 29.6046 9.5 28.5 9.5C27.3954 9.5 26.5 10.3954 26.5 11.5C26.5 12.6046 27.3954 13.5 28.5 13.5Z" fill="black"/>
</svg>
