<svg width="48" height="32" viewBox="0 0 48 32" fill="none" xmlns="http://www.w3.org/2000/svg">
<path fill-rule="evenodd" clip-rule="evenodd" d="M26 17.5H26.6213L27.0607 17.9393L28.5706 19.4493C28.6031 19.4817 28.6471 19.5 28.6931 19.5C28.794 19.5 28.8736 19.4141 28.8658 19.3135L28.754 17.8597L28.6918 17.0512L29.3342 16.5564C30.0367 16.0152 30.5 15.2113 30.5 14C30.5 12.7864 30.0349 11.9814 29.3294 11.4399C28.5757 10.8615 27.4275 10.5 26 10.5C24.5725 10.5 23.4243 10.8615 22.6706 11.4399C21.9651 11.9814 21.5 12.7864 21.5 14C21.5 15.2136 21.9651 16.0186 22.6706 16.5601C23.4243 17.1385 24.5725 17.5 26 17.5ZM26.5199 19.5199L27.5099 20.5099C27.8237 20.8237 28.2493 21 28.6931 21C29.6678 21 30.4362 20.1702 30.3614 19.1984L30.2496 17.7447C31.3313 16.9113 32 15.6631 32 14C32 10.6667 29.3137 9 26 9C23.8732 9 22.0049 9.68655 20.9393 11.0597C18.1315 11.384 16 13.0308 16 16C16 17.6631 16.6687 18.9113 17.7504 19.7447L17.6386 21.1984C17.5638 22.1702 18.3322 23 19.3069 23C19.7507 23 20.1763 22.8237 20.4901 22.5099L22 21C23.8029 21 25.4201 20.5066 26.5199 19.5199ZM20.1431 12.7359C20.0494 13.1266 20 13.548 20 14C20 16.9053 22.0407 18.5445 24.7588 18.9176C24.0421 19.2835 23.1047 19.5 22 19.5H21.3787L20.9394 19.9393L19.4294 21.4493C19.3969 21.4817 19.3529 21.5 19.3069 21.5C19.206 21.5 19.1264 21.4141 19.1342 21.3135L19.246 19.8597L19.3082 19.0512L18.6659 18.5564C17.9633 18.0152 17.5 17.2113 17.5 16C17.5 14.7864 17.9651 13.9814 18.6706 13.4399C19.061 13.1404 19.5571 12.899 20.1431 12.7359Z" fill="black"/>
</svg>
