<svg width="48" height="32" viewBox="0 0 48 32" fill="none" xmlns="http://www.w3.org/2000/svg">
<path fill-rule="evenodd" clip-rule="evenodd" d="M20.7723 19.7949L20.8432 18.9438L20.1475 18.4485C19.1559 17.7424 18.5 16.6477 18.5 15C18.5 13.4366 19.0906 12.3792 19.9797 11.6774C20.9132 10.9404 22.3052 10.5 24 10.5C25.6948 10.5 27.0868 10.9404 28.0203 11.6774C28.9094 12.3792 29.5 13.4366 29.5 15C29.5 16.5634 28.9094 17.6208 28.0203 18.3226C27.0868 19.0596 25.6948 19.5 24 19.5C23.9284 19.5 23.8572 19.4992 23.7865 19.4976L23.1972 19.4845L22.7565 19.8761L20.9877 21.4484C20.9503 21.4817 20.9021 21.5 20.8521 21.5C20.7326 21.5 20.6387 21.3979 20.6486 21.2789L20.7723 19.7949ZM23.7531 20.9973L21.9843 22.5695C21.6723 22.8468 21.2695 23 20.8521 23C19.8551 23 19.071 22.1479 19.1538 21.1543L19.2775 19.6704C17.8779 18.6738 17 17.117 17 15C17 11 20.134 9 24 9C27.866 9 31 11 31 15C31 19 27.866 21 24 21C23.9174 21 23.835 20.9991 23.7531 20.9973ZM24.75 13C24.75 12.5858 24.4142 12.25 24 12.25C23.5858 12.25 23.25 12.5858 23.25 13V14.25H22C21.5858 14.25 21.25 14.5858 21.25 15C21.25 15.4142 21.5858 15.75 22 15.75H23.25V17C23.25 17.4142 23.5858 17.75 24 17.75C24.4142 17.75 24.75 17.4142 24.75 17V15.75H26C26.4142 15.75 26.75 15.4142 26.75 15C26.75 14.5858 26.4142 14.25 26 14.25H24.75V13Z" fill="black"/>
</svg>
