<svg width="48" height="56" viewBox="0 0 48 56" fill="none" xmlns="http://www.w3.org/2000/svg">
<path fill-rule="evenodd" clip-rule="evenodd" d="M20.8432 18.9438L20.6486 21.2789C20.6387 21.3979 20.7326 21.5 20.8521 21.5C20.9021 21.5 20.9503 21.4817 20.9877 21.4484L23.1972 19.4845L23.7865 19.4976C23.8572 19.4992 23.9284 19.5 24 19.5C25.6948 19.5 27.0868 19.0596 28.0203 18.3226C28.9094 17.6208 29.5 16.5634 29.5 15C29.5 13.4366 28.9094 12.3792 28.0203 11.6774C27.0868 10.9404 25.6948 10.5 24 10.5C22.3052 10.5 20.9132 10.9404 19.9797 11.6774C19.0906 12.3792 18.5 13.4366 18.5 15C18.5 16.6477 19.1559 17.7424 20.1475 18.4485L20.8432 18.9438ZM21.9843 22.5695L23.7531 20.9973C23.835 20.9991 23.9174 21 24 21C27.866 21 31 19 31 15C31 11 27.866 9 24 9C20.134 9 17 11 17 15C17 17.117 17.8779 18.6738 19.2775 19.6704L19.1538 21.1543C19.071 22.1479 19.8551 23 20.8521 23C21.2695 23 21.6723 22.8468 21.9843 22.5695Z" fill="black"/>
<path fill-rule="evenodd" clip-rule="evenodd" d="M24 45C27.866 45 31 43 31 39C31 35 27.866 33 24 33C20.134 33 17 35 17 39C17 41.1602 17.914 42.7371 19.3638 43.7307L19.4538 45.8914C19.4796 46.511 19.9894 47 20.6095 47C20.8628 47 21.1091 46.9169 21.3106 46.7634L23.633 44.9939C23.7545 44.998 23.8769 45 24 45Z" fill="black"/>
</svg>
