<svg width="48" height="32" viewBox="0 0 48 32" fill="none" xmlns="http://www.w3.org/2000/svg">
<path fill-rule="evenodd" clip-rule="evenodd" d="M29.5 16C29.5 19.0376 27.0376 21.5 24 21.5C20.9624 21.5 18.5 19.0376 18.5 16C18.5 12.9624 20.9624 10.5 24 10.5C27.0376 10.5 29.5 12.9624 29.5 16ZM31 16C31 19.866 27.866 23 24 23C20.134 23 17 19.866 17 16C17 12.134 20.134 9 24 9C27.866 9 31 12.134 31 16ZM24.9108 18.3026L22.011 19.1081C21.6952 19.1958 21.3567 19.1067 21.125 18.875C20.8933 18.6433 20.8042 18.3048 20.8919 17.989L21.6974 15.0892C21.8852 14.4133 22.4133 13.8852 23.0892 13.6974L25.989 12.8919C26.3048 12.8042 26.6433 12.8933 26.875 13.125C27.1067 13.3567 27.1958 13.6952 27.1081 14.011L26.3026 16.9108C26.1148 17.5867 25.5867 18.1148 24.9108 18.3026ZM25 15.9998C25 16.5521 24.5523 16.9998 24 16.9998C23.4477 16.9998 23 16.5521 23 15.9998C23 15.4475 23.4477 14.9998 24 14.9998C24.5523 14.9998 25 15.4475 25 15.9998Z" fill="black"/>
</svg>
