<svg width="48" height="32" viewBox="0 0 48 32" fill="none" xmlns="http://www.w3.org/2000/svg">
<path fill-rule="evenodd" clip-rule="evenodd" d="M28 10.5H24C23.1716 10.5 22.5 11.1716 22.5 12V13H24C25.6569 13 27 14.3431 27 16V17.5H28C28.8284 17.5 29.5 16.8284 29.5 16V12C29.5 11.1716 28.8284 10.5 28 10.5ZM27 19H28C29.6569 19 31 17.6569 31 16V12C31 10.3431 29.6569 9 28 9H24C22.3431 9 21 10.3431 21 12V13H20C18.3431 13 17 14.3431 17 16V20C17 21.6569 18.3431 23 20 23H24C25.6569 23 27 21.6569 27 20V19ZM20 14.5H24C24.8284 14.5 25.5 15.1716 25.5 16V18.0412L24.9318 17.5216C24.3652 17.0034 23.5009 16.9895 22.9178 17.4892L21.1995 18.9621L20.5968 18.5101C20.0632 18.1099 19.3311 18.1046 18.7917 18.4969L18.5 18.709V16C18.5 15.1716 19.1716 14.5 20 14.5ZM18.5858 20.5014C18.7921 21.0832 19.3474 21.5 20 21.5H24C24.8042 21.5 25.4606 20.8672 25.4983 20.0723L23.9195 18.6285C23.9123 18.6219 23.9014 18.6218 23.894 18.6281L21.7189 20.4925L21.2621 20.8841L20.7808 20.5231L19.6968 19.7101C19.6901 19.7051 19.6808 19.705 19.674 19.71L18.5858 20.5014ZM21.6154 16.4615C21.6154 17.0988 21.0988 17.6154 20.4615 17.6154C19.8243 17.6154 19.3077 17.0988 19.3077 16.4615C19.3077 15.8243 19.8243 15.3077 20.4615 15.3077C21.0988 15.3077 21.6154 15.8243 21.6154 16.4615Z" fill="black"/>
</svg>
