<svg width="48" height="32" viewBox="0 0 48 32" fill="none" xmlns="http://www.w3.org/2000/svg">
<path d="M24 17.0756L24.0851 16.9693C24.3174 16.6789 24.2994 16.268 24.0592 16C24.0407 15.9794 24.021 15.9597 24 15.941C23.9898 15.9319 23.9793 15.923 23.9685 15.9143C23.6559 15.6642 23.2044 15.7049 22.941 16C22.9319 16.0102 22.9224 16.0214 22.9138 16.0322L21.4378 17.8772L21.0303 17.4697C20.9305 17.3698 20.8094 17.304 20.6816 17.2722C20.4474 17.214 20.1905 17.2702 20 17.441C19.9897 17.4502 19.9796 17.4598 19.9697 17.4697C19.6768 17.7626 19.6773 18.2379 19.9702 18.5308L20.3772 18.9378L20.9697 19.5303C21.1205 19.6812 21.3285 19.7606 21.5415 19.7489C21.7545 19.7371 21.9524 19.6351 22.0857 19.4685L22.6082 18.8153L22.6091 18.8142L24 17.0756Z" fill="black"/>
<path fill-rule="evenodd" clip-rule="evenodd" d="M28 19C29.6569 19 31 17.6569 31 16V12C31 10.3431 29.6569 9 28 9H24C22.3431 9 21 10.3431 21 12V13H20C18.3431 13 17 14.3431 17 16V20C17 21.6569 18.3431 23 20 23H24C25.6569 23 27 21.6569 27 20V19H28ZM20 14.5C19.1716 14.5 18.5 15.1716 18.5 16V20C18.5 20.8284 19.1716 21.5 20 21.5H24C24.8284 21.5 25.5 20.8284 25.5 20V16C25.5 15.4981 25.2535 15.0537 24.8749 14.7814C24.6286 14.6043 24.3265 14.5 24 14.5H20ZM29.5 12C29.5 11.1716 28.8284 10.5 28 10.5H24C23.3469 10.5 22.7913 10.9174 22.5854 11.5C22.5301 11.6564 22.5 11.8247 22.5 12V13H24C25.6569 13 27 14.3431 27 16V17.5H28C28.1753 17.5 28.3436 17.4699 28.5 17.4146C29.0826 17.2087 29.5 16.6531 29.5 16V12Z" fill="black"/>
</svg>
