<svg width="48" height="32" viewBox="0 0 48 32" fill="none" xmlns="http://www.w3.org/2000/svg">
<path fill-rule="evenodd" clip-rule="evenodd" d="M24 10.5H28C28.8284 10.5 29.5 11.1716 29.5 12V16C29.5 16.8284 28.8284 17.5 28 17.5H27V16C27 14.3431 25.6569 13 24 13H22.5V12C22.5 11.1716 23.1716 10.5 24 10.5ZM21 13V12C21 10.3431 22.3431 9 24 9H28C29.6569 9 31 10.3431 31 12V16C31 17.6569 29.6569 19 28 19H27V20C27 21.6569 25.6569 23 24 23H20C18.3431 23 17 21.6569 17 20V16C17 14.3431 18.3431 13 20 13H21ZM25.5 19V20C25.5 20.8284 24.8284 21.5 24 21.5H20C19.1716 21.5 18.5 20.8284 18.5 20V16C18.5 15.1716 19.1716 14.5 20 14.5H21V16C21 17.6569 22.3431 19 24 19H25.5ZM25.5 17.5H24C23.1716 17.5 22.5 16.8284 22.5 16V14.5H24C24.8284 14.5 25.5 15.1716 25.5 16V17.5Z" fill="black"/>
</svg>
