<svg width="48" height="32" viewBox="0 0 48 32" fill="none" xmlns="http://www.w3.org/2000/svg">
<path fill-rule="evenodd" clip-rule="evenodd" d="M20 14.5C19.1716 14.5 18.5 15.1716 18.5 16V20C18.5 20.8284 19.1716 21.5 20 21.5H24C24.8284 21.5 25.5 20.8284 25.5 20V16C25.5 15.4981 25.2535 15.0537 24.8749 14.7814C24.6286 14.6043 24.3265 14.5 24 14.5H20ZM26 12.9393L26.9697 11.9697C26.9695 11.9699 26.9699 11.9695 26.9697 11.9697C27.2527 11.6873 27.7057 11.6773 28 11.941C28.0103 11.9502 28.0204 11.9598 28.0303 11.9697C28.0402 11.9796 28.0498 11.9897 28.059 12C28.3227 12.2943 28.3133 12.7468 28.0308 13.0298C28.0307 13.03 28.031 13.0297 28.0308 13.0298C28.0307 13.03 28.03 13.0307 28.0298 13.0308L27.0607 14L28.0303 14.9697C28.0302 14.9695 28.0305 14.9698 28.0303 14.9697C28.3128 15.2527 28.3227 15.7057 28.059 16C28.0498 16.0103 28.0402 16.0204 28.0303 16.0303C28.0204 16.0402 28.0103 16.0498 28 16.059C27.8579 16.1863 27.679 16.25 27.5 16.25C27.321 16.25 27.1421 16.1863 27 16.059V17.5H28C28.1753 17.5 28.3436 17.4699 28.5 17.4146C28.7131 17.3393 28.9041 17.2172 29.0607 17.0607C29.3321 16.7892 29.5 16.4142 29.5 16V12C29.5 11.5858 29.3321 11.2108 29.0607 10.9393C28.7892 10.6679 28.4142 10.5 28 10.5H24C23.5858 10.5 23.2108 10.6679 22.9393 10.9393C22.7828 11.0959 22.6607 11.2869 22.5854 11.5C22.5301 11.6564 22.5 11.8247 22.5 12V13H23.941C23.8137 12.8579 23.75 12.679 23.75 12.5C23.75 12.321 23.8137 12.1421 23.941 12C23.9502 11.9897 23.9598 11.9796 23.9697 11.9697C23.9796 11.9598 23.9897 11.9502 24 11.941C24.2944 11.6772 24.747 11.6867 25.03 11.9694C25.0299 11.9692 25.0301 11.9695 25.03 11.9694L26 12.9393ZM24 17.0756L24.0851 16.9693L24 17.0756ZM24 17.0756L22.6091 18.8142C22.6088 18.8146 22.6085 18.8149 22.6082 18.8153L22.0857 19.4685C21.9524 19.6351 21.7545 19.7371 21.5415 19.7489C21.3285 19.7606 21.1205 19.6812 20.9697 19.5303L19.9702 18.5308C19.97 18.5307 19.9703 18.531 19.9702 18.5308C19.6773 18.2379 19.6768 17.7626 19.9697 17.4697C19.9796 17.4598 19.9897 17.4502 20 17.441C20.1905 17.2702 20.4474 17.214 20.6816 17.2722C20.8094 17.304 20.9305 17.3698 21.0303 17.4697L21.4378 17.8772L22.9138 16.0322C22.9136 16.0324 22.914 16.0319 22.9138 16.0322C22.9224 16.0214 22.9319 16.0102 22.941 16C23.2044 15.7049 23.6559 15.6642 23.9685 15.9143C23.9793 15.923 23.9898 15.9319 24 15.941C24.021 15.9597 24.0407 15.9794 24.0592 16C24.2994 16.268 24.3174 16.6789 24.0851 16.9693M20.9143 18.5315C20.9142 18.5317 20.9145 18.5313 20.9143 18.5315V18.5315ZM31 16C31 17.6569 29.6569 19 28 19H27V20C27 21.6569 25.6569 23 24 23H20C18.3431 23 17 21.6569 17 20V16C17 14.3431 18.3431 13 20 13H21V12C21 10.3431 22.3431 9 24 9H28C29.6569 9 31 10.3431 31 12V16Z" fill="black"/>
</svg>
