<svg width="48" height="32" viewBox="0 0 48 32" fill="none" xmlns="http://www.w3.org/2000/svg">
<path fill-rule="evenodd" clip-rule="evenodd" d="M25.5 20C25.5 20.4142 25.3321 20.7892 25.0607 21.0607C24.7892 21.3321 24.4142 21.5 24 21.5H20C19.5858 21.5 19.2108 21.3321 18.9393 21.0607C18.6679 20.7892 18.5 20.4142 18.5 20V16C18.5 15.5858 18.6679 15.2108 18.9393 14.9393C19.2108 14.6679 19.5858 14.5 20 14.5H24C24.4142 14.5 24.7892 14.6679 25.0607 14.9393C25.3321 15.2108 25.5 15.5858 25.5 16V20ZM24.0308 18.9702C24.0307 18.97 24.031 18.9704 24.0308 18.9702L23.0607 18L24.0303 17.0303C24.3133 16.7473 24.3229 16.2945 24.059 16C24.0498 15.9897 24.0402 15.9796 24.0303 15.9697C24.0204 15.9598 24.0103 15.9502 24 15.941C23.7055 15.6771 23.2527 15.6867 22.9697 15.9697L22 16.9393L21.0308 15.9702C20.7479 15.6872 20.2945 15.6771 20 15.941C19.9897 15.9502 19.9796 15.9598 19.9697 15.9697C19.9598 15.9796 19.9502 15.9897 19.941 16C19.6772 16.2944 19.6867 16.747 19.9694 17.03C19.9692 17.0299 19.9695 17.0301 19.9694 17.03L20.9393 18L19.9697 18.9697C19.9695 18.9699 19.9699 18.9695 19.9697 18.9697C19.6873 19.2527 19.6773 19.7057 19.941 20C19.9502 20.0103 19.9598 20.0204 19.9697 20.0303C19.9796 20.0402 19.9897 20.0498 20 20.059C20.2943 20.3227 20.7468 20.3133 21.0298 20.0308C21.0297 20.031 21.03 20.0307 21.0298 20.0308C21.03 20.0307 21.0307 20.03 21.0308 20.0298L22 19.0607L22.9697 20.0303C22.9695 20.0302 22.9698 20.0305 22.9697 20.0303C23.2527 20.3128 23.7057 20.3227 24 20.059C24.0103 20.0498 24.0204 20.0402 24.0303 20.0303C24.0402 20.0204 24.0498 20.0103 24.059 20C24.3227 19.7057 24.3133 19.2532 24.0308 18.9702ZM22.5 13H24C25.6569 13 27 14.3431 27 16V17.5H28C28.1753 17.5 28.3436 17.4699 28.5 17.4146C29.0826 17.2087 29.5 16.6531 29.5 16V12C29.5 11.1716 28.8284 10.5 28 10.5H24C23.3469 10.5 22.7913 10.9174 22.5854 11.5C22.5301 11.6564 22.5 11.8247 22.5 12V13ZM21 12C21 10.3431 22.3431 9 24 9H28C29.6569 9 31 10.3431 31 12V16C31 17.6569 29.6569 19 28 19H27V20C27 21.6569 25.6569 23 24 23H20C18.3431 23 17 21.6569 17 20V16C17 14.3431 18.3431 13 20 13H21V12Z" fill="black"/>
</svg>
