<svg width="48" height="32" viewBox="0 0 48 32" fill="none" xmlns="http://www.w3.org/2000/svg">
<path fill-rule="evenodd" clip-rule="evenodd" d="M24 10.5H28C28.8284 10.5 29.5 11.1716 29.5 12V16C29.5 16.8284 28.8284 17.5 28 17.5H27V16C27 14.3431 25.6569 13 24 13H22.5V12C22.5 11.1716 23.1716 10.5 24 10.5ZM28 19H27V20C27 21.6569 25.6569 23 24 23H20C18.3431 23 17 21.6569 17 20V16C17 14.3431 18.3431 13 20 13H21V12C21 10.3431 22.3431 9 24 9H28C29.6569 9 31 10.3431 31 12V16C31 17.6569 29.6569 19 28 19ZM24 14.5H20C19.1716 14.5 18.5 15.1716 18.5 16V20C18.5 20.8284 19.1716 21.5 20 21.5H24C24.8284 21.5 25.5 20.8284 25.5 20V16C25.5 15.1716 24.8284 14.5 24 14.5ZM22.0303 20.2803C21.7374 20.5732 21.2626 20.5732 20.9697 20.2803C20.6768 19.9874 20.6768 19.5126 20.9697 19.2197L22.1893 18L20.9697 16.7803C20.6768 16.4874 20.6768 16.0126 20.9697 15.7197C21.2626 15.4268 21.7374 15.4268 22.0303 15.7197L23.7803 17.4697C24.0732 17.7626 24.0732 18.2374 23.7803 18.5303L22.0303 20.2803Z" fill="black"/>
</svg>
