<svg width="48" height="32" viewBox="0 0 48 32" fill="none" xmlns="http://www.w3.org/2000/svg">
<path fill-rule="evenodd" clip-rule="evenodd" d="M28 10.5H24C23.1716 10.5 22.5 11.1716 22.5 12V13H24C25.6569 13 27 14.3431 27 16V17.5H28C28.8284 17.5 29.5 16.8284 29.5 16V12C29.5 11.1716 28.8284 10.5 28 10.5ZM27 19H28C29.6569 19 31 17.6569 31 16V12C31 10.3431 29.6569 9 28 9H24C22.3431 9 21 10.3431 21 12V13H20C18.3431 13 17 14.3431 17 16V20C17 21.6569 18.3431 23 20 23H24C25.6569 23 27 21.6569 27 20V19ZM20 14.5H24C24.8284 14.5 25.5 15.1716 25.5 16V20C25.5 20.8284 24.8284 21.5 24 21.5H20C19.1716 21.5 18.5 20.8284 18.5 20V16C18.5 15.1716 19.1716 14.5 20 14.5Z" fill="black"/>
</svg>
