<svg width="48" height="32" viewBox="0 0 48 32" fill="none" xmlns="http://www.w3.org/2000/svg">
<path fill-rule="evenodd" clip-rule="evenodd" d="M23 9.25C23 8.83579 22.6642 8.5 22.25 8.5C21.8358 8.5 21.5 8.83579 21.5 9.25L21.5 10.5C19.8432 10.5 18.5 11.8431 18.5 13.5H17.2499C16.8357 13.5 16.4999 13.8358 16.4999 14.25C16.4999 14.6642 16.8357 15 17.2499 15H18.5V17H17.2499C16.8357 17 16.4999 17.3358 16.4999 17.75C16.4999 18.1642 16.8357 18.5 17.2499 18.5H18.5C18.5 20.1569 19.8432 21.5 21.5 21.5V22.75C21.5 23.1642 21.8358 23.5 22.25 23.5C22.6642 23.5 23 23.1642 23 22.75V21.5H25V22.75C25 23.1642 25.3358 23.5 25.75 23.5C26.1642 23.5 26.5 23.1642 26.5 22.75V21.5C28.1569 21.5 29.5 20.1569 29.5 18.5H30.7499C31.1642 18.5 31.4999 18.1642 31.4999 17.75C31.4999 17.3358 31.1642 17 30.7499 17H29.5V15H30.7499C31.1642 15 31.4999 14.6642 31.4999 14.25C31.4999 13.8358 31.1642 13.5 30.7499 13.5H29.5C29.5 11.8431 28.1569 10.5 26.5 10.5V9.25C26.5 8.83579 26.1642 8.5 25.75 8.5C25.3358 8.5 25 8.83579 25 9.25V10.5H23V9.25ZM26.5 12H21.5C20.6716 12 20 12.6716 20 13.5V18.5C20 19.3284 20.6716 20 21.5 20H26.5C27.3284 20 28 19.3284 28 18.5V13.5C28 12.6716 27.3284 12 26.5 12ZM26.4998 14.2498C26.4998 13.8356 26.1641 13.4998 25.7498 13.4998H22.2499C21.8357 13.4998 21.4999 13.8356 21.4999 14.2498V17.75C21.4999 17.9489 21.579 18.1397 21.7196 18.2803C21.8603 18.421 22.051 18.5 22.2499 18.5H25.7498C26.1641 18.5 26.4998 18.1642 26.4998 17.75V14.2498ZM22.9999 14.9998H24.9998V17H22.9999L22.9999 14.9998Z" fill="black"/>
</svg>
