<svg width="48" height="32" viewBox="0 0 48 32" fill="none" xmlns="http://www.w3.org/2000/svg">
<path fill-rule="evenodd" clip-rule="evenodd" d="M23.75 8C24.1642 8 24.5 8.33579 24.5 8.75V10H26.5V8.75C26.5 8.33579 26.8358 8 27.25 8C27.6642 8 28 8.33579 28 8.75V10C29.1046 10 30 10.8954 30 12H31.25C31.6642 12 32 12.3358 32 12.75C32 13.1642 31.6642 13.5 31.25 13.5H30V15.5H31.25C31.6642 15.5 32 15.8358 32 16.25C32 16.6642 31.6642 17 31.25 17H30C30 18.1046 29.1046 19 28 19H27V20C27 21.1046 26.1046 22 25 22V23.25C25 23.6642 24.6642 24 24.25 24C23.8358 24 23.5 23.6642 23.5 23.25V22H21.5V23.25C21.5 23.6642 21.1642 24 20.75 24C20.3358 24 20 23.6642 20 23.25V22C18.8954 22 18 21.1046 18 20H16.75C16.3358 20 16 19.6642 16 19.25C16 18.8358 16.3358 18.5 16.75 18.5H18V16.5H16.75C16.3358 16.5 16 16.1642 16 15.75C16 15.3358 16.3358 15 16.75 15H18C18 13.8954 18.8954 13 20 13H21V12C21 10.8954 21.8954 10 23 10V8.75C23 8.33579 23.3358 8 23.75 8ZM22.5 13H25C26.1046 13 27 13.8954 27 15V17.5H28C28.2761 17.5 28.5 17.2761 28.5 17V12C28.5 11.7239 28.2761 11.5 28 11.5H23C22.7239 11.5 22.5 11.7239 22.5 12V13ZM25.5 15C25.5 14.7239 25.2761 14.5 25 14.5H20C19.7239 14.5 19.5 14.7239 19.5 15V20C19.5 20.2761 19.7239 20.5 20 20.5H25C25.2761 20.5 25.5 20.2761 25.5 20V15Z" fill="black"/>
</svg>
