<svg width="48" height="32" viewBox="0 0 48 32" fill="none" xmlns="http://www.w3.org/2000/svg">
<path fill-rule="evenodd" clip-rule="evenodd" d="M28.5 12H19.5C18.6716 12 18 12.6716 18 13.5L30 13.5C30 12.6716 29.3284 12 28.5 12ZM18 18.5V15H30V18.5C30 19.3284 29.3284 20 28.5 20H19.5C18.6716 20 18 19.3284 18 18.5ZM19.5 10.5C17.8431 10.5 16.5 11.8431 16.5 13.5V18.5C16.5 20.1569 17.8431 21.5 19.5 21.5H28.5C30.1569 21.5 31.5 20.1569 31.5 18.5V13.5C31.5 11.8431 30.1569 10.5 28.5 10.5H19.5ZM20.25 17C19.8358 17 19.5 17.3358 19.5 17.75C19.5 18.1642 19.8358 18.5 20.25 18.5H22.75C23.1642 18.5 23.5 18.1642 23.5 17.75C23.5 17.3358 23.1642 17 22.75 17H20.25Z" fill="black"/>
</svg>
