<svg width="166" height="64" viewBox="0 0 166 64" fill="none" xmlns="http://www.w3.org/2000/svg">
<rect x="0.5" y="0.5" width="165" height="63" rx="4.5" stroke="#9747FF" stroke-dasharray="10 5"/>
<path fill-rule="evenodd" clip-rule="evenodd" d="M144.435 23H123.565C122.701 23 122 23.7007 122 24.5652V39.1739C122 40.0384 122.701 40.7391 123.565 40.7391H144.435C145.299 40.7391 146 40.0384 146 39.1739V24.5652C146 23.7007 145.299 23 144.435 23Z" fill="#002E64"/>
<path fill-rule="evenodd" clip-rule="evenodd" d="M136.261 33.6873C135.17 34.4929 133.588 34.9212 132.226 34.9212C130.316 34.9212 128.597 34.2153 127.296 33.0403C127.193 32.948 127.285 32.8223 127.407 32.8937C128.811 33.7108 130.547 34.2028 132.34 34.2028C133.55 34.2028 134.88 33.9518 136.103 33.4327C136.287 33.3544 136.442 33.5543 136.261 33.6873Z" fill="#FE9B00"/>
<path fill-rule="evenodd" clip-rule="evenodd" d="M136.715 33.1692C136.575 32.9903 135.792 33.0847 135.441 33.1264C135.334 33.139 135.317 33.0461 135.413 32.9788C136.038 32.54 137.062 32.6668 137.181 32.8134C137.301 32.9616 137.149 33.9878 136.564 34.4777C136.474 34.5529 136.388 34.5127 136.428 34.4136C136.56 34.0844 136.855 33.3477 136.715 33.1692Z" fill="#FE9B00"/>
<path fill-rule="evenodd" clip-rule="evenodd" d="M135.466 29.8791V29.4529C135.466 29.3882 135.515 29.3449 135.574 29.3449H137.484C137.545 29.3449 137.594 29.3892 137.594 29.4524V29.8181C137.594 29.8797 137.542 29.9595 137.45 30.0863L136.461 31.4997C136.828 31.4908 137.217 31.5461 137.55 31.7339C137.626 31.7757 137.646 31.8383 137.652 31.8998V32.3548C137.652 32.4174 137.584 32.4899 137.511 32.4524C136.923 32.1445 136.143 32.1106 135.492 32.456C135.426 32.4915 135.356 32.42 135.356 32.3574V31.9249C135.356 31.8555 135.357 31.7376 135.427 31.6317L136.574 29.9866H135.575C135.515 29.9866 135.466 29.9428 135.466 29.8791Z" fill="white"/>
<path fill-rule="evenodd" clip-rule="evenodd" d="M128.496 32.5421H127.914C127.859 32.5384 127.815 32.4967 127.811 32.444L127.811 29.4602C127.811 29.4007 127.861 29.3527 127.923 29.3527H128.465C128.522 29.3558 128.567 29.3986 128.571 29.4529V29.8426H128.582C128.723 29.4659 128.989 29.2901 129.347 29.2901C129.71 29.2901 129.938 29.4659 130.101 29.8426C130.242 29.4659 130.562 29.2901 130.904 29.2901C131.148 29.2901 131.414 29.3908 131.577 29.6167C131.762 29.8677 131.724 30.2318 131.724 30.5522L131.723 32.4351C131.723 32.4946 131.673 32.5426 131.611 32.5426H131.03C130.972 32.539 130.926 32.4925 130.926 32.4357V30.8538C130.926 30.728 130.937 30.4144 130.91 30.295C130.866 30.0941 130.736 30.0378 130.568 30.0378C130.427 30.0378 130.281 30.1322 130.221 30.2824C130.161 30.4332 130.166 30.6842 130.166 30.8538V32.4351C130.166 32.4946 130.116 32.5426 130.054 32.5426H129.473C129.415 32.539 129.369 32.4925 129.369 32.4357L129.369 30.8538C129.369 30.5209 129.423 30.0315 129.011 30.0315C128.593 30.0315 128.609 30.5089 128.609 30.8538V32.4351C128.608 32.4941 128.557 32.5421 128.496 32.5421Z" fill="white"/>
<path d="M139.24 29.2896C138.399 29.2896 137.932 30.0116 137.932 30.9409C137.932 31.8638 138.393 32.6047 139.24 32.6047C140.054 32.6047 140.569 31.8826 140.569 30.9722C140.569 30.0304 140.102 29.2896 139.24 29.2896ZM139.24 31.9896C138.784 31.9896 138.79 31.2111 138.79 30.8469C138.79 30.4828 138.817 29.8989 139.246 29.8989C139.43 29.8989 139.56 29.9803 139.625 30.188C139.702 30.4264 139.712 30.728 139.712 30.9789C139.712 31.3614 139.69 31.9896 139.24 31.9896Z" fill="white"/>
<path fill-rule="evenodd" clip-rule="evenodd" d="M141.688 32.5421H141.109C141.05 32.5384 141.004 32.492 141.004 32.4351L141.003 29.4503C141.008 29.3955 141.057 29.3527 141.115 29.3527H141.654C141.705 29.3553 141.747 29.3898 141.758 29.4362V29.8927H141.769C141.931 29.4847 142.159 29.2901 142.561 29.2901C142.821 29.2901 143.076 29.3845 143.239 29.6418C143.391 29.8797 143.391 30.2819 143.391 30.5704V32.4477C143.385 32.5004 143.338 32.5416 143.28 32.5416H142.697C142.643 32.5379 142.6 32.4988 142.594 32.4477V30.8277C142.594 30.5011 142.632 30.0242 142.23 30.0242C142.089 30.0242 141.959 30.1186 141.893 30.2626C141.812 30.4447 141.801 30.6268 141.801 30.8277V32.4341C141.8 32.4941 141.75 32.5421 141.688 32.5421Z" fill="white"/>
<path d="M134.978 31.9953C134.871 31.8487 134.758 31.7292 134.758 31.4563V30.5506C134.758 30.1666 134.785 29.8144 134.502 29.5499C134.28 29.3365 133.91 29.2609 133.627 29.2609C133.074 29.2609 132.457 29.4675 132.327 30.151C132.313 30.2235 132.366 30.2616 132.413 30.2725L132.977 30.3336C133.03 30.331 133.068 30.2793 133.078 30.2266C133.127 29.9913 133.324 29.8776 133.546 29.8776C133.665 29.8776 133.801 29.9214 133.872 30.0283C133.953 30.1478 133.942 30.3116 133.942 30.4499V30.5256C133.605 30.5631 133.164 30.5887 132.849 30.727C132.485 30.8845 132.229 31.2054 132.229 31.677C132.229 32.2812 132.61 32.5833 133.099 32.5833C133.513 32.5833 133.739 32.4857 134.058 32.1607C134.163 32.3136 134.198 32.3876 134.391 32.5478C134.435 32.5713 134.49 32.5687 134.529 32.5343L134.53 32.5358C134.646 32.4325 134.857 32.2494 134.976 32.1497C135.023 32.1111 135.015 32.048 134.978 31.9953ZM133.943 31.1172C133.943 31.3436 133.948 31.5325 133.834 31.7339C133.742 31.8977 133.595 31.9984 133.432 31.9984C133.209 31.9984 133.079 31.8283 133.079 31.5769C133.079 31.0817 133.523 30.9915 133.943 30.9915V31.1172H133.943Z" fill="white"/>
<path d="M127.357 31.9953C127.25 31.8487 127.137 31.7292 127.137 31.4563V30.5506C127.137 30.1666 127.164 29.8144 126.881 29.5499C126.659 29.3365 126.289 29.2609 126.006 29.2609C125.453 29.2609 124.836 29.4675 124.706 30.151C124.693 30.2235 124.745 30.2616 124.793 30.2725L125.356 30.3336C125.409 30.331 125.447 30.2793 125.458 30.2266C125.506 29.9913 125.703 29.8776 125.925 29.8776C126.045 29.8776 126.181 29.9214 126.251 30.0283C126.333 30.1478 126.322 30.3116 126.322 30.4499V30.5256C125.985 30.5631 125.544 30.5887 125.229 30.727C124.864 30.8845 124.609 31.2054 124.609 31.677C124.609 32.2812 124.99 32.5833 125.479 32.5833C125.892 32.5833 126.118 32.4857 126.437 32.1607C126.543 32.3136 126.578 32.3876 126.771 32.5478C126.814 32.5713 126.869 32.5687 126.908 32.5343L126.91 32.5358C127.025 32.4325 127.237 32.2494 127.355 32.1497C127.402 32.1111 127.394 32.048 127.357 31.9953ZM126.322 31.1172C126.322 31.3436 126.327 31.5325 126.213 31.7339C126.121 31.8977 125.974 31.9984 125.811 31.9984C125.588 31.9984 125.458 31.8283 125.458 31.5769C125.458 31.0817 125.902 30.9915 126.322 30.9915V31.1172H126.322Z" fill="white"/>
<path d="M89 23H109C110.105 23 111 23.8954 111 25V38.7391C111 39.8437 110.105 40.7391 109 40.7391H89C87.8954 40.7391 87 39.8437 87 38.7391V25C87 23.8954 87.8954 23 89 23Z" fill="#243747"/>
<path d="M96.3913 36.0435C98.6965 36.0435 100.565 34.1747 100.565 31.8696C100.565 29.5644 98.6965 27.6956 96.3913 27.6956C94.0861 27.6956 92.2174 29.5644 92.2174 31.8696C92.2174 34.1747 94.0861 36.0435 96.3913 36.0435Z" fill="#E61C24"/>
<path d="M101.574 36.0435C103.879 36.0435 105.748 34.1747 105.748 31.8696C105.748 29.5644 103.879 27.6956 101.574 27.6956C99.2691 27.6956 97.4003 29.5644 97.4003 31.8696C97.4003 34.1747 99.2691 36.0435 101.574 36.0435Z" fill="#F99F1B"/>
<path fill-rule="evenodd" clip-rule="evenodd" d="M98.9828 28.6014C97.9833 29.3915 97.4004 30.5955 97.4004 31.8696C97.4004 33.1436 97.9833 34.3476 98.9828 35.1377C99.9822 34.3476 100.565 33.1436 100.565 31.8696C100.565 30.5955 99.9822 29.3915 98.9828 28.6014Z" fill="#F26622"/>
<path d="M76 26.6522H52V36.5652H76V26.6522Z" fill="#E6E6E6"/>
<path fill-rule="evenodd" clip-rule="evenodd" d="M53.5652 40.7391H74.4348C75.2993 40.7391 76 40.0384 76 39.1739V36.5652H52V39.1739C52 40.0384 52.7007 40.7391 53.5652 40.7391Z" fill="#E79800"/>
<path fill-rule="evenodd" clip-rule="evenodd" d="M74.4348 23H53.5652C52.7007 23 52 23.7007 52 24.5652V27.1739H76V24.5652C76 23.7007 75.2993 23 74.4348 23Z" fill="#1A1876"/>
<path fill-rule="evenodd" clip-rule="evenodd" d="M61.5155 34.3739H62.8767L63.7287 29.3777H62.367L61.5155 34.3739Z" fill="#1A1876"/>
<path fill-rule="evenodd" clip-rule="evenodd" d="M66.4746 31.3838C65.9988 31.1527 65.7071 30.9983 65.7103 30.7645C65.7103 30.5569 65.957 30.3346 66.4903 30.3346C66.9264 30.3278 67.2781 30.4165 67.6318 30.5835L67.8165 29.5004C67.5468 29.3991 67.1242 29.2906 66.5962 29.2906C65.2506 29.2906 64.3026 29.9684 64.2948 30.9393C64.287 31.6572 64.9715 32.0579 65.488 32.2969C66.0181 32.5416 66.1965 32.6981 66.1939 32.9167C66.1908 33.2517 65.7708 33.4045 65.379 33.4045C64.7748 33.4045 64.4701 33.3111 63.9217 33.0628L63.7308 34.1814C64.049 34.3207 64.637 34.4417 65.248 34.448C66.6797 34.448 67.6089 33.7781 67.6193 32.7409C67.623 32.1727 67.2603 31.7402 66.4746 31.3838Z" fill="#1A1876"/>
<path d="M71.308 29.3824H70.2556C69.9296 29.3824 69.6859 29.4717 69.5424 29.7967L67.5202 34.3755H68.9503C68.9503 34.3755 69.184 33.7598 69.2372 33.6247C69.3937 33.6247 70.7826 33.6268 70.9814 33.6268C71.0221 33.8016 71.1473 34.3755 71.1473 34.3755H72.411L71.308 29.3824ZM69.629 32.6031C69.6854 32.4591 70.241 31.0322 70.3522 30.7296C70.5363 31.591 70.3569 30.7551 70.7597 32.6031H69.629Z" fill="#1A1876"/>
<path fill-rule="evenodd" clip-rule="evenodd" d="M60.3734 29.3814L59.0398 32.7884L58.8979 32.096L58.4205 29.7998C58.3381 29.4837 58.0991 29.3892 57.8033 29.3783H55.6068L55.5896 29.4821C56.1238 29.6115 56.6012 29.7983 57.0202 30.0299L58.2311 34.3692L59.6722 34.3677L61.816 29.3809H60.3734V29.3814Z" fill="#1A1876"/>
<path fill-rule="evenodd" clip-rule="evenodd" d="M42.4348 23H21.5652C20.7007 23 20 23.7007 20 24.5652V39.1739C20 40.0384 20.7007 40.7391 21.5652 40.7391H42.4348C43.2993 40.7391 44 40.0384 44 39.1739V24.5652C44 23.7007 43.2993 23 42.4348 23Z" fill="#E6E6E6"/>
<path d="M32 38.1304C35.4578 38.1304 38.2609 35.3274 38.2609 31.8696C38.2609 28.4118 35.4578 25.6087 32 25.6087C28.5422 25.6087 25.7391 28.4118 25.7391 31.8696C25.7391 35.3274 28.5422 38.1304 32 38.1304Z" fill="#F99400"/>
<path d="M34.7595 30.9774C34.8842 30.1442 34.2497 29.6965 33.3821 29.3976L33.6633 28.2691L32.9762 28.0979L32.7023 29.1967C32.5217 29.1518 32.336 29.1091 32.1518 29.0673L32.4278 27.9612L31.7412 27.7901L31.4595 28.9181C31.3103 28.8842 31.1631 28.8503 31.0207 28.8148L31.0212 28.8111L30.0737 28.5748L29.8911 29.3084C29.8911 29.3084 30.4009 29.4252 30.3899 29.4325C30.668 29.5019 30.7186 29.6861 30.7103 29.8322L29.9391 32.924C29.9052 33.0085 29.8186 33.1353 29.6245 33.0873C29.6313 33.0972 29.1252 32.9626 29.1252 32.9626L28.784 33.7489L29.6783 33.9717C29.8447 34.0134 30.0075 34.0572 30.1682 34.0979L29.8838 35.2395L30.5699 35.4106L30.8517 34.2811C31.039 34.3317 31.221 34.3791 31.399 34.423L31.1183 35.5473L31.8054 35.7184L32.0897 34.579C33.261 34.8007 34.1423 34.7115 34.5132 33.6518C34.8122 32.7988 34.4981 32.3068 33.8819 31.9859C34.3317 31.8826 34.6697 31.5873 34.7595 30.9774ZM33.1901 33.1786C32.9777 34.0317 31.5414 33.5704 31.0755 33.4551L31.4527 31.9426C31.9186 32.059 33.4118 32.2891 33.1901 33.1786ZM33.4024 30.9654C33.2089 31.7412 32.013 31.3473 31.6254 31.2503L31.9677 29.8786C32.3553 29.9751 33.6043 30.1557 33.4024 30.9654Z" fill="white"/>
</svg>
