<svg width="48" height="32" viewBox="0 0 48 32" fill="none" xmlns="http://www.w3.org/2000/svg">
<path fill-rule="evenodd" clip-rule="evenodd" d="M19.5 8C19.9142 8 20.25 8.33579 20.25 8.75V10.5H28.5C28.9142 10.5 29.25 10.8358 29.25 11.25V19.75H31.25C31.6642 19.75 32 20.0858 32 20.5C32 20.9142 31.6642 21.25 31.25 21.25H29.25V23.25C29.25 23.6642 28.9142 24 28.5 24C28.0858 24 27.75 23.6642 27.75 23.25V21.25H19.5C19.0858 21.25 18.75 20.9142 18.75 20.5V12H16.75C16.3358 12 16 11.6642 16 11.25C16 10.8358 16.3358 10.5 16.75 10.5H18.75V8.75C18.75 8.33579 19.0858 8 19.5 8ZM20.25 12V19.75H27.75V12H20.25Z" fill="black"/>
</svg>
