<svg width="48" height="32" viewBox="0 0 48 32" fill="none" xmlns="http://www.w3.org/2000/svg">
<path fill-rule="evenodd" clip-rule="evenodd" d="M24.4266 19.0731L25.6321 17.8678C25.7076 17.7924 25.75 17.69 25.75 17.5833C25.75 17.3699 25.6652 17.1652 25.5143 17.0143L24.4266 15.9268C24.3135 15.8136 24.16 15.7501 24 15.7501C23.84 15.7501 23.6865 15.8136 23.5733 15.9268L22.4857 17.0143C22.3348 17.1652 22.25 17.3699 22.25 17.5833C22.25 17.6901 22.2924 17.7924 22.3678 17.8678L23.5731 19.0731C23.6863 19.1863 23.8398 19.2499 23.9999 19.2499C24.1599 19.2499 24.3134 19.1863 24.4266 19.0731Z" fill="black"/>
<path fill-rule="evenodd" clip-rule="evenodd" d="M32 13.7955V13.7678C32 12.7915 31.2085 12 30.2322 12C29.7634 12 29.3138 12.1862 28.9822 12.5178L28.2216 13.2784L28.198 13.302L27.8236 13.6764L27.4086 14.0914C27.2266 14.2734 26.9157 14.1909 26.8479 13.9425L26.6935 13.3763L26.5542 12.8654L26.5454 12.8332L25.8947 10.4471C25.6617 9.59274 24.8856 9 24 9C23.1144 9 22.3383 9.59274 22.1053 10.4471L21.4546 12.8332L21.4458 12.8654L21.3065 13.3763L21.1521 13.9425C21.0843 14.1909 20.7734 14.2734 20.5914 14.0914L20.1764 13.6764L19.802 13.302L19.7784 13.2784L19.0178 12.5178C18.6862 12.1862 18.2366 12 17.7678 12C16.7915 12 16 12.7915 16 13.7678V13.7955C16 13.9314 16.0154 14.0668 16.046 14.1993L17.3454 19.8302C17.4429 20.2527 17.7304 20.6063 18.1241 20.788C21.8524 22.5088 26.1476 22.5088 29.8759 20.788C30.2696 20.6063 30.5571 20.2527 30.6546 19.8302L31.954 14.1993C31.9846 14.0668 32 13.9314 32 13.7955ZM19.5307 15.152C20.5272 16.1485 22.2284 15.6967 22.5992 14.3371L23.5525 10.8418C23.6075 10.64 23.7908 10.5 24 10.5C24.2092 10.5 24.3925 10.64 24.4475 10.8418L25.4008 14.3371C25.7716 15.6967 27.4728 16.1485 28.4693 15.152L30.0429 13.5784C30.0931 13.5282 30.1612 13.5 30.2322 13.5C30.3801 13.5 30.5 13.6199 30.5 13.7678V13.7955C30.5 13.8179 30.4975 13.8402 30.4924 13.862L29.2038 19.4461C25.899 20.9561 22.101 20.9561 18.7962 19.4461L17.5076 13.862C17.5025 13.8402 17.5 13.8179 17.5 13.7955V13.7678C17.5 13.6199 17.6199 13.5 17.7678 13.5C17.8388 13.5 17.9069 13.5282 17.9571 13.5784L19.5307 15.152Z" fill="black"/>
</svg>
