<svg width="48" height="32" viewBox="0 0 48 32" fill="none" xmlns="http://www.w3.org/2000/svg">
<path fill-rule="evenodd" clip-rule="evenodd" d="M22.5 10H25.5C26.0523 10 26.5 10.4477 26.5 11V14C26.5 14.5523 26.0523 15 25.5 15H22.5C21.9477 15 21.5 14.5523 21.5 14V11C21.5 10.4477 21.9477 10 22.5 10ZM20 11C20 9.61929 21.1193 8.5 22.5 8.5H25.5C26.8807 8.5 28 9.61929 28 11V14C28 14.3556 27.9258 14.6938 27.792 15H29C30.3807 15 31.5 16.1193 31.5 17.5V20.5C31.5 21.8807 30.3807 23 29 23H26H25.75H22.25H22H19C17.6193 23 16.5 21.8807 16.5 20.5V17.5C16.5 16.1193 17.6193 15 19 15H20.208C20.0742 14.6938 20 14.3556 20 14V11ZM22.25 16.5C22.8023 16.5 23.25 16.9477 23.25 17.5V20.5C23.25 21.0523 22.8023 21.5 22.25 21.5H19C18.4477 21.5 18 21.0523 18 20.5V17.5C18 16.9477 18.4477 16.5 19 16.5H22.25ZM25.75 21.5C25.1977 21.5 24.75 21.0523 24.75 20.5V17.5C24.75 16.9477 25.1977 16.5 25.75 16.5H29C29.5523 16.5 30 16.9477 30 17.5V20.5C30 21.0523 29.5523 21.5 29 21.5H25.75Z" fill="black"/>
</svg>
