<svg width="48" height="32" viewBox="0 0 48 32" fill="none" xmlns="http://www.w3.org/2000/svg">
<path fill-rule="evenodd" clip-rule="evenodd" d="M29.5 13.475V18.421C29.5 19.0462 29.1121 19.6059 28.5267 19.8255L23.75 21.6167V15.5285L29.5 13.475ZM28.8463 12.1156C28.7907 12.0776 28.7321 12.0431 28.6708 12.0124L25.4993 10.4267C25.1262 10.2401 24.6923 10.2174 24.3018 10.3638L19.4733 12.1745C19.393 12.2046 19.3163 12.2412 19.2439 12.2834L23.0491 14.186L28.8463 12.1156ZM18.5 13.5885L22.25 15.4635V21.4479L19.3292 19.9875C18.821 19.7334 18.5 19.214 18.5 18.6459V13.5885ZM17.2665 12.3427C17.0942 12.7233 17 13.1432 17 13.579V18.6459C17 19.7822 17.642 20.821 18.6584 21.3292L21.8299 22.9149C22.576 23.288 23.4438 23.3336 24.2249 23.0406L29.0534 21.23C30.2243 20.7909 31 19.6715 31 18.421V13.3541C31 12.2178 30.358 11.179 29.3416 10.6708L26.1701 9.08503C25.424 8.71196 24.5562 8.66642 23.7751 8.95932L18.9466 10.77C18.3209 11.0047 17.808 11.4336 17.4661 11.973C17.412 12.0278 17.3655 12.092 17.3292 12.1646C17.3003 12.2224 17.2795 12.2822 17.2665 12.3427Z" fill="black"/>
</svg>
