<svg width="48" height="32" viewBox="0 0 48 32" fill="none" xmlns="http://www.w3.org/2000/svg">
<path fill-rule="evenodd" clip-rule="evenodd" d="M25.5 10.5H22.5C21.6716 10.5 21 11.1716 21 12V13H22C23.6569 13 25 14.3431 25 16V16.5H25.5C26.3284 16.5 27 15.8284 27 15V12C27 11.1716 26.3284 10.5 25.5 10.5ZM25 18V19C25 19.5464 24.8539 20.0587 24.5987 20.5H29C29.8284 20.5 30.5 19.8284 30.5 19V16C30.5 15.1716 29.8284 14.5 29 14.5H28.5V15C28.5 16.6569 27.1569 18 25.5 18H25ZM28.5 13V12C28.5 10.3431 27.1569 9 25.5 9H22.5C20.8431 9 19.5 10.3431 19.5 12V13H19C17.3431 13 16 14.3431 16 16V19C16 20.6569 17.3431 22 19 22H22H29C30.6569 22 32 20.6569 32 19V16C32 14.3431 30.6569 13 29 13H28.5ZM22 14.5H19C18.1716 14.5 17.5 15.1716 17.5 16V19C17.5 19.8284 18.1716 20.5 19 20.5H22C22.8284 20.5 23.5 19.8284 23.5 19V16C23.5 15.1716 22.8284 14.5 22 14.5Z" fill="black"/>
</svg>
