<svg width="48" height="32" viewBox="0 0 48 32" fill="none" xmlns="http://www.w3.org/2000/svg">
<path fill-rule="evenodd" clip-rule="evenodd" d="M19.4125 11.421C19.3655 10.9271 19.7539 10.5 20.25 10.5C20.6642 10.5 21 10.1642 21 9.75C21 9.33579 20.6642 9 20.25 9C18.8693 9 17.7884 10.1887 17.9193 11.5632L18.1189 13.6595C18.1611 14.1018 17.8735 14.5085 17.4424 14.6163L17.3032 14.6511C16.6842 14.8059 16.25 15.362 16.25 16C16.25 16.638 16.6842 17.1941 17.3032 17.3489L17.4424 17.3837C17.8735 17.4915 18.1611 17.8982 18.1189 18.3405L17.9193 20.4368C17.7884 21.8113 18.8693 23 20.25 23C20.6642 23 21 22.6642 21 22.25C21 21.8358 20.6642 21.5 20.25 21.5C19.7539 21.5 19.3655 21.0729 19.4125 20.579L19.6122 18.4827C19.7168 17.3842 19.0597 16.3679 18.041 16C19.0597 15.6321 19.7168 14.6158 19.6122 13.5173L19.4125 11.421ZM28.5875 20.579C28.6345 21.0729 28.2461 21.5 27.75 21.5C27.3358 21.5 27 21.8358 27 22.25C27 22.6642 27.3358 23 27.75 23C29.1307 23 30.2116 21.8113 30.0807 20.4368L29.8811 18.3405C29.8389 17.8982 30.1265 17.4915 30.5576 17.3837L30.6968 17.3489C31.3158 17.1941 31.75 16.638 31.75 16C31.75 15.362 31.3158 14.8059 30.6968 14.6511L30.5576 14.6163C30.1265 14.5085 29.8389 14.1018 29.8811 13.6595L30.0807 11.5632C30.2116 10.1887 29.1307 9 27.75 9C27.3358 9 27 9.33579 27 9.75C27 10.1642 27.3358 10.5 27.75 10.5C28.2461 10.5 28.6345 10.9271 28.5875 11.421L28.3878 13.5173C28.2832 14.6158 28.9403 15.6321 29.959 16C28.9403 16.3679 28.2832 17.3842 28.3878 18.4827L28.5875 20.579ZM22 16V17.5H26V16H22ZM21.9 14.5C21.1268 14.5 20.5 15.1268 20.5 15.9V17.6C20.5 18.3732 21.1268 19 21.9 19H26.1C26.8732 19 27.5 18.3732 27.5 17.6V15.9C27.5 15.1268 26.8732 14.5 26.1 14.5H26V14C26 12.8954 25.1046 12 24 12C22.8954 12 22 12.8954 22 14V14.5H21.9ZM23.5 14.5H24.5V14C24.5 13.7239 24.2761 13.5 24 13.5C23.7239 13.5 23.5 13.7239 23.5 14V14.5Z" fill="black"/>
</svg>
