<svg width="48" height="32" viewBox="0 0 48 32" fill="none" xmlns="http://www.w3.org/2000/svg">
<path fill-rule="evenodd" clip-rule="evenodd" d="M20.25 10.5C19.7539 10.5 19.3655 10.9271 19.4125 11.421L19.6122 13.5173C19.7168 14.6158 19.0597 15.6321 18.041 16C19.0597 16.3679 19.7168 17.3842 19.6122 18.4827L19.4125 20.579C19.3655 21.0729 19.7539 21.5 20.25 21.5C20.6642 21.5 21 21.8358 21 22.25C21 22.6642 20.6642 23 20.25 23C18.8693 23 17.7884 21.8113 17.9193 20.4368L18.1189 18.3405C18.1611 17.8982 17.8735 17.4915 17.4424 17.3837L17.3032 17.3489C16.6842 17.1941 16.25 16.638 16.25 16C16.25 15.362 16.6842 14.8059 17.3032 14.6511L17.4424 14.6163C17.8735 14.5085 18.1611 14.1018 18.1189 13.6595L17.9193 11.5632C17.7884 10.1887 18.8693 9 20.25 9C20.6642 9 21 9.33579 21 9.75C21 10.1642 20.6642 10.5 20.25 10.5ZM25.0554 13.1385C25.106 12.6573 25.5786 12.3382 26.044 12.4711C26.4422 12.5849 26.8573 12.3543 26.9711 11.956C27.0849 11.5578 26.8543 11.1427 26.456 11.0289C25.0946 10.6399 23.7118 11.5734 23.5636 12.9815L23.4564 14H22.5C22.0858 14 21.75 14.3358 21.75 14.75C21.75 15.1642 22.0858 15.5 22.5 15.5H23.2985L22.9447 18.8615C22.894 19.3427 22.4214 19.6618 21.956 19.5289C21.5578 19.4151 21.1427 19.6457 21.0289 20.044C20.9151 20.4422 21.1457 20.8573 21.544 20.9711C22.9054 21.3601 24.2882 20.4266 24.4364 19.0185L24.8068 15.5H25.75C26.1642 15.5 26.5 15.1642 26.5 14.75C26.5 14.3358 26.1642 14 25.75 14H24.9647L25.0554 13.1385ZM28.5875 20.579C28.6345 21.0729 28.2461 21.5 27.75 21.5C27.3358 21.5 27 21.8358 27 22.25C27 22.6642 27.3358 23 27.75 23C29.1307 23 30.2116 21.8113 30.0807 20.4368L29.8811 18.3405C29.8389 17.8982 30.1265 17.4915 30.5576 17.3837L30.6968 17.3489C31.3158 17.1941 31.75 16.638 31.75 16C31.75 15.362 31.3158 14.8059 30.6968 14.6511L30.5576 14.6163C30.1265 14.5085 29.8389 14.1018 29.8811 13.6595L30.0807 11.5632C30.2116 10.1887 29.1307 9 27.75 9C27.3358 9 27 9.33579 27 9.75C27 10.1642 27.3358 10.5 27.75 10.5C28.2461 10.5 28.6345 10.9271 28.5875 11.421L28.3878 13.5173C28.2832 14.6158 28.9403 15.6321 29.959 16C28.9403 16.3679 28.2832 17.3842 28.3878 18.4827L28.5875 20.579Z" fill="black"/>
</svg>
