<svg width="48" height="32" viewBox="0 0 48 32" fill="none" xmlns="http://www.w3.org/2000/svg">
<path fill-rule="evenodd" clip-rule="evenodd" d="M29.4987 18.0396C29.9913 17.7876 30 17.5935 30 17.5V13.4624C29.2039 13.8208 28.1525 14 27 14C26.434 14 25.8925 13.9568 25.3936 13.8704C25.4633 14.065 25.5 14.2749 25.5 14.5V18.3645C25.9275 18.4498 26.4318 18.5 27 18.5C28.1071 18.5 28.9711 18.3096 29.4987 18.0396ZM24 16.4624V20.5C24 20.5935 23.9913 20.7876 23.4987 21.0396C22.9711 21.3096 22.1071 21.5 21 21.5C19.8929 21.5 19.0289 21.3096 18.5013 21.0396C18.0087 20.7876 18 20.5935 18 20.5V16.4624C18.7961 16.8208 19.8475 17 21 17C22.1525 17 23.2039 16.8208 24 16.4624ZM24 14.5C24 14.4065 23.9913 14.2124 23.4987 13.9604C22.9711 13.6904 22.1071 13.5 21 13.5C19.8929 13.5 19.0289 13.6904 18.5013 13.9604C18.0087 14.2124 18 14.4065 18 14.5C18 14.5935 18.0087 14.7876 18.5013 15.0396C19.0289 15.3096 19.8929 15.5 21 15.5C22.1071 15.5 22.9711 15.3096 23.4987 15.0396C23.9913 14.7876 24 14.5935 24 14.5ZM16.5 14.5C16.5 12.8333 18.5147 12 21 12C21.526 12 22.0308 12.0373 22.5 12.112V11.5C22.5 9.83333 24.5147 9 27 9C29.4853 9 31.5 9.83333 31.5 11.5V17.5C31.5 19.1667 29.4853 20 27 20C26.474 20 25.9692 19.9627 25.5 19.888V20.5C25.5 22.1667 23.4853 23 21 23C18.5147 23 16.5 22.1667 16.5 20.5V14.5ZM24 11.5C24 11.5935 24.0087 11.7876 24.5013 12.0396C25.0289 12.3096 25.8929 12.5 27 12.5C28.1071 12.5 28.9711 12.3096 29.4987 12.0396C29.9913 11.7876 30 11.5935 30 11.5C30 11.4065 29.9913 11.2124 29.4987 10.9604C28.9711 10.6904 28.1071 10.5 27 10.5C25.8929 10.5 25.0289 10.6904 24.5013 10.9604C24.0087 11.2124 24 11.4065 24 11.5Z" fill="black"/>
</svg>
