<svg width="48" height="32" viewBox="0 0 48 32" fill="none" xmlns="http://www.w3.org/2000/svg">
<path fill-rule="evenodd" clip-rule="evenodd" d="M27.6152 12.8875C28.4288 12.5129 28.5 12.1743 28.5 12C28.5 11.8257 28.4288 11.4871 27.6152 11.1125C26.7988 10.7365 25.5378 10.5 24 10.5C22.4622 10.5 21.2012 10.7365 20.3848 11.1125C19.5712 11.4871 19.5 11.8257 19.5 12C19.5 12.1743 19.5712 12.5129 20.3848 12.8875C21.2012 13.2635 22.4622 13.5 24 13.5C25.5378 13.5 26.7988 13.2635 27.6152 12.8875ZM28.5 14.1226C27.4006 14.7075 25.792 15 24 15C22.208 15 20.5994 14.7075 19.5 14.1226V16C19.5 16.1743 19.5712 16.5129 20.3848 16.8875C21.2012 17.2635 22.4622 17.5 24 17.5L24.0408 17.4999C23.8535 17.9626 23.7503 18.4683 23.75 18.9981C22.0587 18.972 20.548 18.6802 19.5 18.1226V20C19.5 20.1743 19.5712 20.5129 20.3848 20.8875C21.2012 21.2635 22.4622 21.5 24 21.5C24.211 21.5 24.4167 21.4955 24.6169 21.4869C25.0901 22.0823 25.7295 22.5398 26.465 22.7891C25.713 22.9297 24.8786 23 24 23C20.6863 23 18 22 18 20V16V12C18 10 20.6863 9 24 9C27.3137 9 30 10 30 12V15.6923C29.5559 15.3897 29.0477 15.1741 28.5 15.0702V14.1226ZM27.75 20.5C28.5784 20.5 29.25 19.8284 29.25 19C29.25 18.1716 28.5784 17.5 27.75 17.5C26.9216 17.5 26.25 18.1716 26.25 19C26.25 19.8284 26.9216 20.5 27.75 20.5ZM27.75 22C28.3064 22 28.8273 21.8486 29.274 21.5846L30.7197 23.0303C31.0126 23.3232 31.4874 23.3232 31.7803 23.0303C32.0732 22.7374 32.0732 22.2626 31.7803 21.9697L30.3346 20.524C30.5986 20.0773 30.75 19.5564 30.75 19C30.75 17.3431 29.4069 16 27.75 16C26.0931 16 24.75 17.3431 24.75 19C24.75 20.6569 26.0931 22 27.75 22Z" fill="black"/>
</svg>
