<svg width="48" height="32" viewBox="0 0 48 32" fill="none" xmlns="http://www.w3.org/2000/svg">
<path fill-rule="evenodd" clip-rule="evenodd" d="M27.5 12C27.5 12.1743 27.4288 12.5129 26.6152 12.8875C25.7988 13.2635 24.5378 13.5 23 13.5C21.4622 13.5 20.2012 13.2635 19.3848 12.8875C18.5712 12.5129 18.5 12.1743 18.5 12C18.5 11.8257 18.5712 11.4871 19.3848 11.1125C20.2012 10.7365 21.4622 10.5 23 10.5C24.5378 10.5 25.7988 10.7365 26.6152 11.1125C27.4288 11.4871 27.5 11.8257 27.5 12ZM19.3848 16.8875C18.5778 16.5159 18.5 16.1794 18.5 16V14.1226C19.5994 14.7075 21.208 15 23 15C24.792 15 26.4006 14.7075 27.5 14.1226V15.25C27.5 15.6642 27.8358 16 28.25 16C28.6642 16 29 15.6642 29 15.25V12C29 10 26.3137 9 23 9C19.6863 9 17 10 17 12V16V20C17 20.9948 17.665 21.747 18.7574 22.25L19.0711 21.5688L18.7574 22.25C19.8432 22.75 21.3432 23 23 23C23.0881 23 23.1756 22.9993 23.2626 22.9979C23.6767 22.9912 24.007 22.65 24.0003 22.2358C23.9936 21.8217 23.6524 21.4914 23.2383 21.4981C23.1595 21.4994 23.0801 21.5 23 21.5C21.4622 21.5 20.2011 21.2635 19.3848 20.8875C18.5778 20.5159 18.5 20.1794 18.5 20V18.1226C18.5829 18.1667 18.6687 18.2092 18.7574 18.25C19.8432 18.75 21.3432 19 23 19C23.0893 19 23.1781 18.9993 23.2662 18.9978C23.6804 18.991 24.0106 18.6498 24.0038 18.2356C23.997 17.8215 23.6558 17.4912 23.2416 17.498C23.1618 17.4993 23.0812 17.5 23 17.5C21.4622 17.5 20.2011 17.2635 19.3848 16.8875ZM29.7803 22.5303C29.4874 22.8232 29.0126 22.8232 28.7197 22.5303C28.4268 22.2374 28.4268 21.7626 28.7197 21.4697L29.4393 20.75H26C25.5858 20.75 25.25 20.4142 25.25 20C25.25 19.5858 25.5858 19.25 26 19.25H29.4393L28.7197 18.5303C28.4268 18.2374 28.4268 17.7626 28.7197 17.4697C29.0126 17.1768 29.4874 17.1768 29.7803 17.4697L31.7803 19.4697C32.0732 19.7626 32.0732 20.2374 31.7803 20.5303L29.7803 22.5303Z" fill="black"/>
</svg>
