<svg width="48" height="32" viewBox="0 0 48 32" fill="none" xmlns="http://www.w3.org/2000/svg">
<path fill-rule="evenodd" clip-rule="evenodd" d="M27.6152 12.8875C28.4288 12.5129 28.5 12.1743 28.5 12C28.5 11.8257 28.4288 11.4871 27.6152 11.1125C26.7988 10.7365 25.5378 10.5 24 10.5C22.4622 10.5 21.2012 10.7365 20.3848 11.1125C19.5712 11.4871 19.5 11.8257 19.5 12C19.5 12.1743 19.5712 12.5129 20.3848 12.8875C21.2012 13.2635 22.4622 13.5 24 13.5C25.5378 13.5 26.7988 13.2635 27.6152 12.8875ZM28.5 14.1226C27.4006 14.7075 25.792 15 24 15C22.208 15 20.5994 14.7075 19.5 14.1226V16C19.5 16.1743 19.5712 16.5129 20.3848 16.8875C21.2012 17.2635 22.4622 17.5 24 17.5C25.5378 17.5 26.7988 17.2635 27.6152 16.8875C28.4288 16.5129 28.5 16.1743 28.5 16V14.1226ZM28.5 18.1226C27.4006 18.7075 25.792 19 24 19C22.208 19 20.5994 18.7075 19.5 18.1226V20C19.5 20.1743 19.5712 20.5129 20.3848 20.8875C21.2012 21.2635 22.4622 21.5 24 21.5C25.5378 21.5 26.7988 21.2635 27.6152 20.8875C28.4288 20.5129 28.5 20.1743 28.5 20V18.1226ZM30 12C30 10 27.3137 9 24 9C20.6863 9 18 10 18 12V16V20C18 22 20.6863 23 24 23C27.3137 23 30 22 30 20V16V12Z" fill="black"/>
</svg>
