<svg width="48" height="32" viewBox="0 0 48 32" fill="none" xmlns="http://www.w3.org/2000/svg">
<path fill-rule="evenodd" clip-rule="evenodd" d="M30.0104 14.9394L25.0607 9.98963C24.4749 9.40385 23.5252 9.40385 22.9394 9.98963L17.9896 14.9394C17.4038 15.5252 17.4038 16.4749 17.9896 17.0607L22.9394 22.0104C23.5252 22.5962 24.4749 22.5962 25.0607 22.0104L30.0104 17.0607C30.5962 16.4749 30.5962 15.5252 30.0104 14.9394ZM26.1214 8.92897C24.9498 7.7574 23.0503 7.7574 21.8787 8.92897L16.929 13.8787C15.7574 15.0503 15.7574 16.9498 16.929 18.1214L21.8787 23.0711C23.0503 24.2427 24.9498 24.2427 26.1214 23.0711L31.0711 18.1214C32.2427 16.9498 32.2427 15.0503 31.0711 13.8787L26.1214 8.92897ZM25 18.5C25 19.0523 24.5523 19.5 24 19.5C23.4477 19.5 23 19.0523 23 18.5C23 17.9477 23.4477 17.5 24 17.5C24.5523 17.5 25 17.9477 25 18.5ZM24.75 13C24.75 12.5858 24.4142 12.25 24 12.25C23.5858 12.25 23.25 12.5858 23.25 13V15.5C23.25 15.9142 23.5858 16.25 24 16.25C24.4142 16.25 24.75 15.9142 24.75 15.5V13Z" fill="black"/>
</svg>
