<svg width="48" height="56" viewBox="0 0 48 56" fill="none" xmlns="http://www.w3.org/2000/svg">
<g clip-path="url(#clip0_74_3414)">
<path fill-rule="evenodd" clip-rule="evenodd" d="M30.0104 14.9393L25.0607 9.9896C24.4749 9.40381 23.5251 9.40381 22.9393 9.9896L17.9896 14.9393C17.4038 15.5251 17.4038 16.4749 17.9896 17.0607L22.9393 22.0104C23.5251 22.5962 24.4749 22.5962 25.0607 22.0104L30.0104 17.0607C30.5962 16.4749 30.5962 15.5251 30.0104 14.9393ZM26.1213 8.92894C24.9497 7.75736 23.0503 7.75736 21.8787 8.92894L16.9289 13.8787C15.7574 15.0503 15.7574 16.9498 16.9289 18.1213L21.8787 23.0711C23.0503 24.2426 24.9497 24.2426 26.1213 23.0711L31.0711 18.1213C32.2426 16.9498 32.2426 15.0503 31.0711 13.8787L26.1213 8.92894Z" fill="black"/>
</g>
<g clip-path="url(#clip1_74_3414)">
<path d="M21.8787 32.9289C23.0503 31.7574 24.9497 31.7574 26.1213 32.9289L31.0711 37.8787C32.2426 39.0503 32.2426 40.9498 31.0711 42.1213L26.1213 47.0711C24.9497 48.2426 23.0503 48.2426 21.8787 47.0711L16.9289 42.1213C15.7574 40.9498 15.7574 39.0503 16.9289 37.8787L21.8787 32.9289Z" fill="black"/>
</g>
<defs>
<clipPath id="clip0_74_3414">
<rect width="16" height="16" fill="white" transform="translate(16 8)"/>
</clipPath>
<clipPath id="clip1_74_3414">
<rect width="16" height="16" fill="white" transform="translate(16 32)"/>
</clipPath>
</defs>
</svg>
