<svg width="48" height="32" viewBox="0 0 48 32" fill="none" xmlns="http://www.w3.org/2000/svg">
<path fill-rule="evenodd" clip-rule="evenodd" d="M27.5 11H20.5C19.6716 11 19 11.6716 19 12.5V19.5C19 20.3284 19.6716 21 20.5 21H27.5C28.3284 21 29 20.3284 29 19.5V12.5C29 11.6716 28.3284 11 27.5 11ZM20.5 9.5C18.8431 9.5 17.5 10.8431 17.5 12.5V19.5C17.5 21.1569 18.8431 22.5 20.5 22.5H27.5C29.1569 22.5 30.5 21.1569 30.5 19.5V12.5C30.5 10.8431 29.1569 9.5 27.5 9.5H20.5ZM27.65 13C27.65 13.6351 27.1351 14.15 26.5 14.15C25.8649 14.15 25.35 13.6351 25.35 13C25.35 12.3649 25.8649 11.85 26.5 11.85C27.1351 11.85 27.65 12.3649 27.65 13ZM21.5 20.15C22.1351 20.15 22.65 19.6351 22.65 19C22.65 18.3649 22.1351 17.85 21.5 17.85C20.8649 17.85 20.35 18.3649 20.35 19C20.35 19.6351 20.8649 20.15 21.5 20.15ZM27.65 19C27.65 19.6351 27.1351 20.15 26.5 20.15C25.8649 20.15 25.35 19.6351 25.35 19C25.35 18.3649 25.8649 17.85 26.5 17.85C27.1351 17.85 27.65 18.3649 27.65 19ZM21.5 14.15C22.1351 14.15 22.65 13.6351 22.65 13C22.65 12.3649 22.1351 11.85 21.5 11.85C20.8649 11.85 20.35 12.3649 20.35 13C20.35 13.6351 20.8649 14.15 21.5 14.15ZM27.65 16C27.65 16.6351 27.1351 17.15 26.5 17.15C25.8649 17.15 25.35 16.6351 25.35 16C25.35 15.3649 25.8649 14.85 26.5 14.85C27.1351 14.85 27.65 15.3649 27.65 16ZM21.5 17.15C22.1351 17.15 22.65 16.6351 22.65 16C22.65 15.3649 22.1351 14.85 21.5 14.85C20.8649 14.85 20.35 15.3649 20.35 16C20.35 16.6351 20.8649 17.15 21.5 17.15Z" fill="black"/>
</svg>
