<svg width="48" height="32" viewBox="0 0 48 32" fill="none" xmlns="http://www.w3.org/2000/svg">
<path fill-rule="evenodd" clip-rule="evenodd" d="M20.5 11H27.5C28.3284 11 29 11.6716 29 12.5V19.5C29 20.3284 28.3284 21 27.5 21H20.5C19.6716 21 19 20.3284 19 19.5V12.5C19 11.6716 19.6716 11 20.5 11ZM17.5 12.5C17.5 10.8431 18.8431 9.5 20.5 9.5H27.5C29.1569 9.5 30.5 10.8431 30.5 12.5V19.5C30.5 21.1569 29.1569 22.5 27.5 22.5H20.5C18.8431 22.5 17.5 21.1569 17.5 19.5V12.5ZM26.5001 14.65C27.1352 14.65 27.6501 14.1351 27.6501 13.5C27.6501 12.8649 27.1352 12.35 26.5001 12.35C25.865 12.35 25.3501 12.8649 25.3501 13.5C25.3501 14.1351 25.865 14.65 26.5001 14.65ZM25.1501 16C25.1501 16.6351 24.6352 17.15 24.0001 17.15C23.365 17.15 22.8501 16.6351 22.8501 16C22.8501 15.3649 23.365 14.85 24.0001 14.85C24.6352 14.85 25.1501 15.3649 25.1501 16ZM21.5001 19.65C22.1352 19.65 22.6501 19.1351 22.6501 18.5C22.6501 17.8649 22.1352 17.35 21.5001 17.35C20.865 17.35 20.3501 17.8649 20.3501 18.5C20.3501 19.1351 20.865 19.65 21.5001 19.65Z" fill="black"/>
</svg>
