<svg width="48" height="32" viewBox="0 0 48 32" fill="none" xmlns="http://www.w3.org/2000/svg">
<path fill-rule="evenodd" clip-rule="evenodd" d="M27.5 11H20.5C19.6716 11 19 11.6716 19 12.5V19.5C19 20.3284 19.6716 21 20.5 21H27.5C28.3284 21 29 20.3284 29 19.5V12.5C29 11.6716 28.3284 11 27.5 11ZM20.5 9.5C18.8431 9.5 17.5 10.8431 17.5 12.5V19.5C17.5 21.1569 18.8431 22.5 20.5 22.5H27.5C29.1569 22.5 30.5 21.1569 30.5 19.5V12.5C30.5 10.8431 29.1569 9.5 27.5 9.5H20.5ZM27.1501 14C27.1501 14.6351 26.6352 15.15 26.0001 15.15C25.365 15.15 24.8501 14.6351 24.8501 14C24.8501 13.3649 25.365 12.85 26.0001 12.85C26.6352 12.85 27.1501 13.3649 27.1501 14ZM22.0001 19.15C22.6352 19.15 23.1501 18.6351 23.1501 18C23.1501 17.3649 22.6352 16.85 22.0001 16.85C21.365 16.85 20.8501 17.3649 20.8501 18C20.8501 18.6351 21.365 19.15 22.0001 19.15Z" fill="black"/>
</svg>
