<svg width="48" height="32" viewBox="0 0 48 32" fill="none" xmlns="http://www.w3.org/2000/svg">
<path fill-rule="evenodd" clip-rule="evenodd" d="M20.5 11H27.5C28.3284 11 29 11.6716 29 12.5V19.5C29 20.3284 28.3284 21 27.5 21H20.5C19.6716 21 19 20.3284 19 19.5V12.5C19 11.6716 19.6716 11 20.5 11ZM17.5 12.5C17.5 10.8431 18.8431 9.5 20.5 9.5H27.5C29.1569 9.5 30.5 10.8431 30.5 12.5V19.5C30.5 21.1569 29.1569 22.5 27.5 22.5H20.5C18.8431 22.5 17.5 21.1569 17.5 19.5V12.5ZM26.5 14.65C27.1351 14.65 27.65 14.1351 27.65 13.5C27.65 12.8649 27.1351 12.35 26.5 12.35C25.8648 12.35 25.35 12.8649 25.35 13.5C25.35 14.1351 25.8648 14.65 26.5 14.65ZM25.15 16C25.15 16.6351 24.6351 17.15 24 17.15C23.3648 17.15 22.85 16.6351 22.85 16C22.85 15.3649 23.3648 14.85 24 14.85C24.6351 14.85 25.15 15.3649 25.15 16ZM21.5 19.65C22.1351 19.65 22.65 19.1351 22.65 18.5C22.65 17.8649 22.1351 17.35 21.5 17.35C20.8648 17.35 20.35 17.8649 20.35 18.5C20.35 19.1351 20.8648 19.65 21.5 19.65ZM27.65 18.5C27.65 19.1351 27.1351 19.65 26.5 19.65C25.8648 19.65 25.35 19.1351 25.35 18.5C25.35 17.8649 25.8648 17.35 26.5 17.35C27.1351 17.35 27.65 17.8649 27.65 18.5ZM21.5 14.65C22.1351 14.65 22.65 14.1351 22.65 13.5C22.65 12.8649 22.1351 12.35 21.5 12.35C20.8648 12.35 20.35 12.8649 20.35 13.5C20.35 14.1351 20.8648 14.65 21.5 14.65Z" fill="black"/>
</svg>
