<svg width="48" height="32" viewBox="0 0 48 32" fill="none" xmlns="http://www.w3.org/2000/svg">
<path fill-rule="evenodd" clip-rule="evenodd" d="M28 11H20C19.1716 11 18.5 11.6716 18.5 12.5V16.5C18.5 17.3284 19.1716 18 20 18H28C28.8284 18 29.5 17.3284 29.5 16.5V12.5C29.5 11.6716 28.8284 11 28 11ZM20 9.5C18.3431 9.5 17 10.8431 17 12.5V16.5C17 18.1569 18.3431 19.5 20 19.5H23.25V21H20.75C20.3358 21 20 21.3358 20 21.75C20 22.1642 20.3358 22.5 20.75 22.5H27.25C27.6642 22.5 28 22.1642 28 21.75C28 21.3358 27.6642 21 27.25 21H24.75V19.5H28C29.6569 19.5 31 18.1569 31 16.5V12.5C31 10.8431 29.6569 9.5 28 9.5H20Z" fill="black"/>
</svg>
