<svg width="48" height="32" viewBox="0 0 48 32" fill="none" xmlns="http://www.w3.org/2000/svg">
<path fill-rule="evenodd" clip-rule="evenodd" d="M20 11H28C28.8284 11 29.5 11.6716 29.5 12.5V16.5C29.5 17.3284 28.8284 18 28 18H20C19.1716 18 18.5 17.3284 18.5 16.5V15.5H20.75C20.9663 15.5 21.172 15.4066 21.3144 15.2439L22.3712 14.0362L23.8488 16.6221C23.9741 16.8414 24.2013 16.9829 24.4534 16.9986C24.7054 17.0142 24.9485 16.902 25.1 16.7L26.375 15H27.75C28.1642 15 28.5 14.6642 28.5 14.25C28.5 13.8358 28.1642 13.5 27.75 13.5H26C25.7639 13.5 25.5416 13.6111 25.4 13.8L24.5849 14.8868L23.1512 12.3779C23.0308 12.1673 22.8161 12.0279 22.5748 12.0037C22.3334 11.9796 22.0953 12.0736 21.9356 12.2561L20.4097 14H18.5V12.5C18.5 11.6716 19.1716 11 20 11ZM17 14.75V16.5C17 18.1569 18.3431 19.5 20 19.5H23.25V21H20.75C20.3358 21 20 21.3358 20 21.75C20 22.1642 20.3358 22.5 20.75 22.5H27.25C27.6642 22.5 28 22.1642 28 21.75C28 21.3358 27.6642 21 27.25 21H24.75V19.5H28C29.6569 19.5 31 18.1569 31 16.5V12.5C31 10.8431 29.6569 9.5 28 9.5H20C18.3431 9.5 17 10.8431 17 12.5V14.75Z" fill="black"/>
</svg>
