<svg width="48" height="32" viewBox="0 0 48 32" fill="none" xmlns="http://www.w3.org/2000/svg">
<path fill-rule="evenodd" clip-rule="evenodd" d="M25.5 11C25.5 11.8284 24.8284 12.5 24 12.5C23.1716 12.5 22.5 11.8284 22.5 11C22.5 10.1716 23.1716 9.5 24 9.5C24.8284 9.5 25.5 10.1716 25.5 11ZM19 17.5C19.8284 17.5 20.5 16.8284 20.5 16C20.5 15.1716 19.8284 14.5 19 14.5C18.1716 14.5 17.5 15.1716 17.5 16C17.5 16.8284 18.1716 17.5 19 17.5ZM25.5 16C25.5 16.8284 24.8284 17.5 24 17.5C23.1716 17.5 22.5 16.8284 22.5 16C22.5 15.1716 23.1716 14.5 24 14.5C24.8284 14.5 25.5 15.1716 25.5 16ZM30.5 16C30.5 16.8284 29.8284 17.5 29 17.5C28.1716 17.5 27.5 16.8284 27.5 16C27.5 15.1716 28.1716 14.5 29 14.5C29.8284 14.5 30.5 15.1716 30.5 16ZM29 12.5C29.8284 12.5 30.5 11.8284 30.5 11C30.5 10.1716 29.8284 9.5 29 9.5C28.1716 9.5 27.5 10.1716 27.5 11C27.5 11.8284 28.1716 12.5 29 12.5ZM20.5 11C20.5 11.8284 19.8284 12.5 19 12.5C18.1716 12.5 17.5 11.8284 17.5 11C17.5 10.1716 18.1716 9.5 19 9.5C19.8284 9.5 20.5 10.1716 20.5 11ZM24 22.5C24.8284 22.5 25.5 21.8284 25.5 21C25.5 20.1716 24.8284 19.5 24 19.5C23.1716 19.5 22.5 20.1716 22.5 21C22.5 21.8284 23.1716 22.5 24 22.5ZM30.5 21C30.5 21.8284 29.8284 22.5 29 22.5C28.1716 22.5 27.5 21.8284 27.5 21C27.5 20.1716 28.1716 19.5 29 19.5C29.8284 19.5 30.5 20.1716 30.5 21ZM19 22.5C19.8284 22.5 20.5 21.8284 20.5 21C20.5 20.1716 19.8284 19.5 19 19.5C18.1716 19.5 17.5 20.1716 17.5 21C17.5 21.8284 18.1716 22.5 19 22.5Z" fill="black"/>
</svg>
