<svg width="48" height="32" viewBox="0 0 48 32" fill="none" xmlns="http://www.w3.org/2000/svg">
<path fill-rule="evenodd" clip-rule="evenodd" d="M28.5 17C28.5 19.4853 26.4853 21.5 24 21.5C21.5147 21.5 19.5 19.4853 19.5 17C19.5 15.3622 20.2614 13.7579 21.2889 12.3607C22.2756 11.0189 23.4094 10.0021 24.0032 9.51265C24.5941 9.99323 25.725 10.9956 26.7098 12.3302C27.7345 13.719 28.5 15.3296 28.5 17ZM30 17C30 20.3137 27.3137 23 24 23C20.6863 23 18 20.3137 18 17C18 12.8189 21.846 9.33703 23.1058 8.30869C23.3592 8.10178 23.6763 8 24.0035 8C24.3264 8 24.6396 8.09921 24.8912 8.30167C26.1477 9.3129 30 12.7589 30 17ZM24 20.25C23.5858 20.25 23.25 19.9142 23.25 19.5C23.25 19.0858 23.5858 18.75 24 18.75C24.9665 18.75 25.75 17.9665 25.75 17C25.75 16.5858 26.0858 16.25 26.5 16.25C26.9142 16.25 27.25 16.5858 27.25 17C27.25 18.7949 25.7949 20.25 24 20.25Z" fill="black"/>
</svg>
