<svg width="48" height="32" viewBox="0 0 48 32" fill="none" xmlns="http://www.w3.org/2000/svg">
<path fill-rule="evenodd" clip-rule="evenodd" d="M20 20.3719V13.75C20 11.4188 21.9343 9.5 24.2976 9.5C26.6088 9.5 28.5 11.3766 28.5 13.6556V14.1146C28.5 15.5081 27.8911 16.832 26.833 17.7389C25.8338 18.5954 24.9925 19.6205 24.3473 20.7675L23.9829 21.4152C23.606 22.0853 22.8969 22.5 22.1281 22.5C20.9528 22.5 20 21.5472 20 20.3719ZM18.5 13.75V20.3719C18.5 22.3756 20.1244 24 22.1281 24C23.4388 24 24.6477 23.293 25.2903 22.1506L25.6546 21.5029C26.2139 20.5087 26.9431 19.6202 27.8092 18.8778C29.1997 17.6859 30 15.946 30 14.1146V13.6556C30 10.5321 27.4211 8 24.2976 8C21.122 8 18.5 10.5744 18.5 13.75ZM23.0261 13.5877C23.1038 12.9663 23.632 12.5 24.2583 12.5C24.9441 12.5 25.5 13.0559 25.5 13.7417V14.25C25.5 14.6642 25.8358 15 26.25 15C26.6642 15 27 14.6642 27 14.25V13.7417C27 12.2275 25.7725 11 24.2583 11C22.8755 11 21.7092 12.0296 21.5377 13.4017L21.2558 15.657C21.2273 15.8848 21.3048 16.1132 21.4661 16.2767C21.6273 16.4402 21.8546 16.5208 22.0828 16.4954L22.9322 16.401C23.2351 16.3674 23.5 16.6045 23.5 16.9092C23.5 17.061 23.4326 17.2049 23.316 17.302L22.2699 18.1738C21.9517 18.439 21.9087 18.9119 22.1738 19.2301C22.439 19.5483 22.9119 19.5913 23.2301 19.3262L24.2763 18.4544C24.7349 18.0722 25 17.5061 25 16.9092C25 15.7425 24.013 14.8279 22.8619 14.9019L23.0261 13.5877Z" fill="black"/>
</svg>
