<svg width="48" height="32" viewBox="0 0 48 32" fill="none" xmlns="http://www.w3.org/2000/svg">
<path fill-rule="evenodd" clip-rule="evenodd" d="M19 17.5C19.8284 17.5 20.5 16.8284 20.5 16C20.5 15.1716 19.8284 14.5 19 14.5C18.1716 14.5 17.5 15.1716 17.5 16C17.5 16.8284 18.1716 17.5 19 17.5ZM25.5 16C25.5 16.8284 24.8284 17.5 24 17.5C23.1716 17.5 22.5 16.8284 22.5 16C22.5 15.1716 23.1716 14.5 24 14.5C24.8284 14.5 25.5 15.1716 25.5 16ZM30.5 16C30.5 16.8284 29.8284 17.5 29 17.5C28.1716 17.5 27.5 16.8284 27.5 16C27.5 15.1716 28.1716 14.5 29 14.5C29.8284 14.5 30.5 15.1716 30.5 16Z" fill="black"/>
</svg>
