<svg width="48" height="32" viewBox="0 0 48 32" fill="none" xmlns="http://www.w3.org/2000/svg">
<path fill-rule="evenodd" clip-rule="evenodd" d="M24 12.5C24.8284 12.5 25.5 11.8284 25.5 11C25.5 10.1716 24.8284 9.5 24 9.5C23.1716 9.5 22.5 10.1716 22.5 11C22.5 11.8284 23.1716 12.5 24 12.5ZM25.5 16C25.5 16.8284 24.8284 17.5 24 17.5C23.1716 17.5 22.5 16.8284 22.5 16C22.5 15.1716 23.1716 14.5 24 14.5C24.8284 14.5 25.5 15.1716 25.5 16ZM25.5 21C25.5 21.8284 24.8284 22.5 24 22.5C23.1716 22.5 22.5 21.8284 22.5 21C22.5 20.1716 23.1716 19.5 24 19.5C24.8284 19.5 25.5 20.1716 25.5 21Z" fill="black"/>
</svg>
