<svg width="48" height="32" viewBox="0 0 48 32" fill="none" xmlns="http://www.w3.org/2000/svg">
<path fill-rule="evenodd" clip-rule="evenodd" d="M30 14.4982V19.5C30 20.3284 29.3284 21 28.5 21H19.5C18.6716 21 18 20.3284 18 19.5V14.4982C18 14.4782 18.0004 14.4583 18.0012 14.4384L22.35 17.7C23.3278 18.4333 24.6722 18.4333 25.65 17.7L29.9988 14.4384C29.9996 14.4583 30 14.4782 30 14.4982ZM29.1937 13.1672L24.7395 10.6431C24.2808 10.3832 23.7192 10.3832 23.2605 10.6431L18.8063 13.1672L23.25 16.5C23.6944 16.8333 24.3056 16.8333 24.75 16.5L29.1937 13.1672ZM16.5 14.4982C16.5 13.4178 17.081 12.4208 18.021 11.8881L22.521 9.33811C23.4385 8.8182 24.5615 8.8182 25.479 9.33811L29.979 11.8881C30.919 12.4208 31.5 13.4178 31.5 14.4982V19.5C31.5 21.1568 30.1569 22.5 28.5 22.5H19.5C17.8431 22.5 16.5 21.1568 16.5 19.5V14.4982Z" fill="black"/>
</svg>
