<svg width="48" height="32" viewBox="0 0 48 32" fill="none" xmlns="http://www.w3.org/2000/svg">
<path fill-rule="evenodd" clip-rule="evenodd" d="M30 14.4982V19.5C30 20.3284 29.3284 21 28.5 21H19.5C18.6716 21 18 20.3284 18 19.5V14.4982C18 13.958 18.2905 13.4595 18.7605 13.1931L23.2605 10.6431C23.7192 10.3832 24.2808 10.3832 24.7395 10.6431L29.2395 13.1931C29.7095 13.4595 30 13.958 30 14.4982ZM16.5 14.4982C16.5 13.4178 17.081 12.4208 18.021 11.8881L22.521 9.33811C23.4385 8.8182 24.5615 8.8182 25.479 9.33811L29.979 11.8881C30.919 12.4208 31.5 13.4178 31.5 14.4982V19.5C31.5 21.1568 30.1569 22.5 28.5 22.5H19.5C17.8431 22.5 16.5 21.1568 16.5 19.5V14.4982ZM22.5303 13.9697C22.2374 13.6768 21.7626 13.6768 21.4697 13.9697C21.1768 14.2626 21.1768 14.7374 21.4697 15.0303L22.9393 16.5L21.4697 17.9697C21.1768 18.2626 21.1768 18.7374 21.4697 19.0303C21.7626 19.3232 22.2374 19.3232 22.5303 19.0303L24 17.5607L25.4697 19.0303C25.7626 19.3232 26.2374 19.3232 26.5303 19.0303C26.8232 18.7374 26.8232 18.2626 26.5303 17.9697L25.0607 16.5L26.5303 15.0303C26.8232 14.7374 26.8232 14.2626 26.5303 13.9697C26.2374 13.6768 25.7626 13.6768 25.4697 13.9697L24 15.4393L22.5303 13.9697Z" fill="black"/>
</svg>
