<svg width="48" height="32" viewBox="0 0 48 32" fill="none" xmlns="http://www.w3.org/2000/svg">
<path fill-rule="evenodd" clip-rule="evenodd" d="M19.5 12H28.5C28.7495 12 28.9848 12.0609 29.1918 12.1687L24.75 15.5C24.3056 15.8333 23.6944 15.8333 23.25 15.5L18.8082 12.1687C19.0152 12.0609 19.2505 12 19.5 12ZM18.0012 13.4384C18.0004 13.4589 18 13.4794 18 13.5V18.5C18 19.3284 18.6716 20 19.5 20H28.5C29.3284 20 30 19.3284 30 18.5V13.5C30 13.4794 29.9996 13.4589 29.9988 13.4384L25.65 16.7C24.6722 17.4333 23.3278 17.4333 22.35 16.7L18.0012 13.4384ZM16.5 13.5C16.5 11.8431 17.8431 10.5 19.5 10.5H28.5C30.1569 10.5 31.5 11.8431 31.5 13.5V18.5C31.5 20.1569 30.1569 21.5 28.5 21.5H19.5C17.8431 21.5 16.5 20.1569 16.5 18.5V13.5Z" fill="black"/>
</svg>
