<svg width="48" height="32" viewBox="0 0 48 32" fill="none" xmlns="http://www.w3.org/2000/svg">
<path fill-rule="evenodd" clip-rule="evenodd" d="M29.4999 19C29.9141 19 30.2499 18.6642 30.2499 18.25C30.2499 17.8358 29.9141 17.5 29.4999 17.5L18.4999 17.5C18.0857 17.5 17.7499 17.8358 17.7499 18.25C17.7499 18.6642 18.0857 19 18.4999 19L29.4999 19ZM29.4999 14.5C29.9141 14.5 30.2499 14.1642 30.2499 13.75C30.2499 13.3358 29.9141 13 29.4999 13L18.4999 13C18.0857 13 17.7499 13.3358 17.7499 13.75C17.7499 14.1642 18.0857 14.5 18.4999 14.5L29.4999 14.5Z" fill="black"/>
</svg>
