<svg width="48" height="32" viewBox="0 0 48 32" fill="none" xmlns="http://www.w3.org/2000/svg">
<path fill-rule="evenodd" clip-rule="evenodd" d="M25.6464 11.2678L28.2322 13.8536C28.4037 14.025 28.5 14.2575 28.5 14.5C28.5 14.7425 28.4037 14.975 28.2322 15.1464L24.7197 18.659L20.841 14.7803L24.3536 11.2678C24.525 11.0963 24.7575 11 25 11C25.2425 11 25.475 11.0963 25.6464 11.2678ZM19.7803 15.841L17.7678 17.8536C17.5963 18.025 17.5 18.2575 17.5 18.5C17.5 18.7425 17.5963 18.975 17.7678 19.1464L19.1213 20.5H22.8787L23.659 19.7197L19.7803 15.841ZM29.2929 16.2071L25 20.5H31.25C31.6642 20.5 32 20.8358 32 21.25C32 21.6642 31.6642 22 31.25 22H23.5H21H19H18.5L16.7071 20.2071C16.2544 19.7544 16 19.1403 16 18.5C16 17.8597 16.2544 17.2456 16.7071 16.7929L23.2929 10.2071C23.7456 9.75435 24.3597 9.5 25 9.5C25.6403 9.5 26.2544 9.75435 26.7071 10.2071L29.2929 12.7929C29.7456 13.2456 30 13.8597 30 14.5C30 15.1403 29.7456 15.7544 29.2929 16.2071Z" fill="black"/>
</svg>
