<svg width="48" height="32" viewBox="0 0 48 32" fill="none" xmlns="http://www.w3.org/2000/svg">
<g clip-path="url(#clip0_74_4280)">
<path fill-rule="evenodd" clip-rule="evenodd" d="M24.91 9.76248L24.585 16.2625C24.5783 16.3955 24.4685 16.5 24.3353 16.5H23.6646C23.5314 16.5 23.4216 16.3955 23.415 16.2625L23.09 9.76249C23.0828 9.61969 23.1967 9.5 23.3396 9.5L24.6603 9.5C24.8032 9.5 24.9171 9.61969 24.91 9.76248ZM26.0831 16.3374L26.4081 9.83739C26.4581 8.83782 25.6611 8 24.6603 8H23.3396C22.3388 8 21.5418 8.83782 21.5918 9.83739L21.9168 16.3374C21.9634 17.2688 22.7321 18 23.6646 18H24.3353C25.2678 18 26.0365 17.2688 26.0831 16.3374ZM24 20.5C24.5523 20.5 25 20.9477 25 21.5C25 22.0523 24.5523 22.5 24 22.5C23.4477 22.5 23 22.0523 23 21.5C23 20.9477 23.4477 20.5 24 20.5ZM26.5 21.5C26.5 20.1193 25.3807 19 24 19C22.6193 19 21.5 20.1193 21.5 21.5C21.5 22.8807 22.6193 24 24 24C25.3807 24 26.5 22.8807 26.5 21.5Z" fill="black"/>
</g>
<defs>
<clipPath id="clip0_74_4280">
<rect width="16" height="16" fill="white" transform="translate(16 8)"/>
</clipPath>
</defs>
</svg>
