<svg width="48" height="32" viewBox="0 0 48 32" fill="none" xmlns="http://www.w3.org/2000/svg">
<path fill-rule="evenodd" clip-rule="evenodd" d="M19.0303 9.96967C18.7374 9.67678 18.2626 9.67678 17.9697 9.96967C17.6768 10.2626 17.6768 10.7374 17.9697 11.0303L18.7992 11.8599C17.8184 12.6633 17.0259 13.6919 16.4995 14.8763L16.2397 15.4608C16.0871 15.8042 16.0871 16.1962 16.2397 16.5397L16.4997 17.1245C17.4538 19.2713 19.2821 20.9063 21.5217 21.6157C23.1344 22.1265 24.8656 22.1265 26.4783 21.6157C26.9865 21.4547 27.4735 21.2461 27.934 20.9946L28.9697 22.0303C29.2626 22.3232 29.7374 22.3232 30.0303 22.0303C30.3232 21.7374 30.3232 21.2626 30.0303 20.9697L19.0303 9.96967ZM26.8177 19.8783L25.5241 18.5847C25.0774 18.8487 24.5564 19.0001 24 19.0001C22.3431 19.0001 21 17.657 21 16.0001C21 15.4437 21.1514 14.9227 21.4154 14.4761L19.8663 12.927C19.0108 13.5964 18.3211 14.471 17.8702 15.4855L17.6415 16.0002L17.8704 16.5153C18.6501 18.2698 20.1443 19.606 21.9746 20.1857C23.2926 20.6031 24.7074 20.6031 26.0254 20.1857C26.2973 20.0996 26.5618 19.9967 26.8177 19.8783ZM22.5508 15.6115C22.5177 15.7354 22.5 15.8657 22.5 16.0001C22.5 16.8286 23.1715 17.5001 24 17.5001C24.1344 17.5001 24.2647 17.4825 24.3887 17.4493L22.5508 15.6115ZM24.2094 13.0073L26.9928 15.7907C26.89 14.3008 25.6994 13.1101 24.2094 13.0073ZM30.1296 16.5153C29.8887 17.0573 29.5797 17.5593 29.2136 18.0115L30.279 19.077C30.7711 18.4925 31.1838 17.8367 31.5003 17.1245L31.7602 16.5397C31.9129 16.1962 31.9129 15.8042 31.7602 15.4608L31.5004 14.8763C30.5462 12.7293 28.7177 11.0942 26.4779 10.3849C24.8819 9.87951 23.1699 9.87435 21.5715 10.3694L22.8104 11.6083C23.8786 11.4158 24.9821 11.4847 26.025 11.8149C27.8555 12.3946 29.3499 13.7309 30.1297 15.4855L30.3585 16.0002L30.1296 16.5153Z" fill="black"/>
</svg>
