<svg width="48" height="32" viewBox="0 0 48 32" fill="none" xmlns="http://www.w3.org/2000/svg">
<path fill-rule="evenodd" clip-rule="evenodd" d="M17.8701 16.5152L17.6412 16.0001L17.87 15.4854C18.6498 13.7308 20.1442 12.3945 21.9747 11.8148C23.2925 11.3975 24.707 11.3975 26.0248 11.8148C27.8553 12.3945 29.3497 13.7308 30.1295 15.4854L30.3583 16.0001L30.1293 16.5152C29.3496 18.2696 27.8554 19.6059 26.0251 20.1856C24.7071 20.603 23.2923 20.603 21.9743 20.1856C20.144 19.6059 18.6499 18.2696 17.8701 16.5152ZM16.4993 14.8762L16.2395 15.4607C16.0868 15.8041 16.0868 16.1961 16.2395 16.5395L16.4994 17.1244C17.4535 19.2712 19.2818 20.9062 21.5214 21.6156C23.1341 22.1264 24.8653 22.1264 26.478 21.6156C28.7176 20.9062 30.5459 19.2712 31.5001 17.1244L31.76 16.5395C31.9126 16.1961 31.9126 15.8041 31.76 15.4607L31.5002 14.8762C30.546 12.7292 28.7175 11.0941 26.4776 10.3848C24.8652 9.87418 23.1343 9.87418 21.5218 10.3848C19.282 11.0941 17.4535 12.7292 16.4993 14.8762ZM25.4997 16C25.4997 16.8285 24.8282 17.5 23.9997 17.5C23.1713 17.5 22.4997 16.8285 22.4997 16C22.4997 15.1716 23.1713 14.5 23.9997 14.5C24.8282 14.5 25.4997 15.1716 25.4997 16ZM26.9997 16C26.9997 17.6569 25.6566 19 23.9997 19C22.3429 19 20.9997 17.6569 20.9997 16C20.9997 14.3432 22.3429 13 23.9997 13C25.6566 13 26.9997 14.3432 26.9997 16Z" fill="black"/>
</svg>
