<svg width="48" height="32" viewBox="0 0 48 32" fill="none" xmlns="http://www.w3.org/2000/svg">
<path fill-rule="evenodd" clip-rule="evenodd" d="M29.5 16C29.5 19.0376 27.0376 21.5 24 21.5C20.9624 21.5 18.5 19.0376 18.5 16C18.5 12.9624 20.9624 10.5 24 10.5C27.0376 10.5 29.5 12.9624 29.5 16ZM31 16C31 19.866 27.866 23 24 23C20.134 23 17 19.866 17 16C17 12.134 20.134 9 24 9C27.866 9 31 12.134 31 16ZM25.3292 18.8354C25.5144 19.2059 25.9649 19.3561 26.3354 19.1708C26.7059 18.9856 26.8561 18.5351 26.6708 18.1646C26.2665 17.356 25.2176 16.75 24 16.75C22.7824 16.75 21.7335 17.356 21.3292 18.1646C21.1439 18.5351 21.2941 18.9856 21.6646 19.1708C22.0351 19.3561 22.4856 19.2059 22.6708 18.8354C22.7665 18.644 23.2176 18.25 24 18.25C24.7824 18.25 25.2335 18.644 25.3292 18.8354ZM26 16C25.5858 16 25.25 15.6642 25.25 15.25V14.25C25.25 13.8358 25.5858 13.5 26 13.5C26.4142 13.5 26.75 13.8358 26.75 14.25V15.25C26.75 15.6642 26.4142 16 26 16ZM21.25 15.25C21.25 15.6642 21.5858 16 22 16C22.4142 16 22.75 15.6642 22.75 15.25V14.25C22.75 13.8358 22.4142 13.5 22 13.5C21.5858 13.5 21.25 13.8358 21.25 14.25V15.25Z" fill="black"/>
</svg>
