<svg width="48" height="32" viewBox="0 0 48 32" fill="none" xmlns="http://www.w3.org/2000/svg">
<path fill-rule="evenodd" clip-rule="evenodd" d="M29.5 16C29.5 19.0376 27.0376 21.5 24 21.5C20.9624 21.5 18.5 19.0376 18.5 16C18.5 12.9624 20.9624 10.5 24 10.5C27.0376 10.5 29.5 12.9624 29.5 16ZM31 16C31 19.866 27.866 23 24 23C20.134 23 17 19.866 17 16C17 12.134 20.134 9 24 9C27.866 9 31 12.134 31 16ZM26 19C26.4142 19 26.75 18.6642 26.75 18.25C26.75 17.8358 26.4142 17.5 26 17.5H22C21.5858 17.5 21.25 17.8358 21.25 18.25C21.25 18.6642 21.5858 19 22 19H26ZM26 16C25.5858 16 25.25 15.6642 25.25 15.25V14.25C25.25 13.8358 25.5858 13.5 26 13.5C26.4142 13.5 26.75 13.8358 26.75 14.25V15.25C26.75 15.6642 26.4142 16 26 16ZM21.25 15.25C21.25 15.6642 21.5858 16 22 16C22.4142 16 22.75 15.6642 22.75 15.25V14.25C22.75 13.8358 22.4142 13.5 22 13.5C21.5858 13.5 21.25 13.8358 21.25 14.25V15.25Z" fill="black"/>
</svg>
