<svg width="48" height="32" viewBox="0 0 48 32" fill="none" xmlns="http://www.w3.org/2000/svg">
<path fill-rule="evenodd" clip-rule="evenodd" d="M24 21.5C27.0376 21.5 29.5 19.0376 29.5 16C29.5 12.9624 27.0376 10.5 24 10.5C20.9624 10.5 18.5 12.9624 18.5 16C18.5 19.0376 20.9624 21.5 24 21.5ZM24 23C27.866 23 31 19.866 31 16C31 12.134 27.866 9 24 9C20.134 9 17 12.134 17 16C17 19.866 20.134 23 24 23ZM20.75 17.25C20.75 16.8358 21.0858 16.5 21.5 16.5H26.5C26.9142 16.5 27.25 16.8358 27.25 17.25C27.25 17.936 26.8194 18.5689 26.2759 18.996C25.7064 19.4434 24.9183 19.75 24 19.75C23.0817 19.75 22.2936 19.4434 21.7241 18.996C21.1806 18.5689 20.75 17.936 20.75 17.25ZM26 15.5C25.5858 15.5 25.25 15.1642 25.25 14.75V13.75C25.25 13.3358 25.5858 13 26 13C26.4142 13 26.75 13.3358 26.75 13.75V14.75C26.75 15.1642 26.4142 15.5 26 15.5ZM21.25 14.75C21.25 15.1642 21.5858 15.5 22 15.5C22.4142 15.5 22.75 15.1642 22.75 14.75V13.75C22.75 13.3358 22.4142 13 22 13C21.5858 13 21.25 13.3358 21.25 13.75V14.75Z" fill="black" stroke="black" stroke-linecap="round" stroke-linejoin="round"/>
</svg>
