<svg width="48" height="32" viewBox="0 0 48 32" fill="none" xmlns="http://www.w3.org/2000/svg">
<path fill-rule="evenodd" clip-rule="evenodd" d="M27.0716 19.7489C28.4469 18.5386 29.5 16.9155 29.5 15C29.5 13.6242 29.0196 12.5501 28.1873 11.8054C27.3399 11.0471 25.9786 10.5 24 10.5C22.0214 10.5 20.6601 11.0471 19.8127 11.8054C18.9804 12.5501 18.5 13.6242 18.5 15C18.5 16.9155 19.5531 18.5386 20.9284 19.7489C21.6073 20.3464 22.3251 20.8052 22.9385 21.1086C23.2447 21.2601 23.5094 21.3651 23.7157 21.4295C23.8867 21.4829 23.9776 21.4959 23.9997 21.499L24 21.499L24.0004 21.499C24.0224 21.4959 24.1133 21.4829 24.2843 21.4295C24.4906 21.3651 24.7553 21.2601 25.0615 21.1086C25.6749 20.8052 26.3927 20.3464 27.0716 19.7489ZM24 23C25.5 23 31 20 31 15C31 11.5 28.5 9 24 9C19.5 9 17 11.5 17 15C17 20 22.5 23 24 23ZM25.25 18C24.8358 18 24.5 17.6642 24.5 17.25C24.5 16.4076 24.8447 15.697 25.4218 15.2087C25.9864 14.731 26.7301 14.5 27.5 14.5C27.9142 14.5 28.25 14.8358 28.25 15.25C28.25 16.0924 27.9053 16.803 27.3282 17.2913C26.7636 17.769 26.0199 18 25.25 18ZM23.5 17.25C23.5 17.6642 23.1642 18 22.75 18C21.9801 18 21.2364 17.769 20.6718 17.2913C20.0947 16.803 19.75 16.0924 19.75 15.25C19.75 14.8358 20.0858 14.5 20.5 14.5C21.2699 14.5 22.0136 14.731 22.5782 15.2087C23.1553 15.697 23.5 16.4076 23.5 17.25Z" fill="black"/>
</svg>
