<svg width="48" height="32" viewBox="0 0 48 32" fill="none" xmlns="http://www.w3.org/2000/svg">
<path fill-rule="evenodd" clip-rule="evenodd" d="M31.5 18.0713C31.5 15.4892 30.0744 13.2181 27.867 11.9837L28.9056 10.1141C29.1068 9.75204 28.9763 9.29543 28.6142 9.09427C28.2521 8.89311 27.7955 9.02357 27.5944 9.38566L26.4847 11.383C25.7131 11.1348 24.8785 10.9999 24 10.9999C23.1215 10.9999 22.2869 11.1348 21.5153 11.383L20.4056 9.38567C20.2045 9.02358 19.7479 8.89313 19.3858 9.09429C19.0237 9.29545 18.8932 9.75205 19.0944 10.1141L20.133 11.9837C17.9256 13.2181 16.5 15.4892 16.5 18.0713C16.5 18.8838 16.6685 19.6737 17.1137 20.3653C17.5621 21.0619 18.2033 21.5225 18.9091 21.825C20.2273 22.39 22.0201 22.4999 24 22.4999C25.9799 22.4999 27.7727 22.39 29.0909 21.825C29.7967 21.5225 30.4379 21.0619 30.8863 20.3653C31.3315 19.6737 31.5 18.8838 31.5 18.0713ZM18 18.0713C18 20.4999 20 20.9999 24 20.9999C28 20.9999 30 20.4999 30 18.0713C30 15.0713 27.5 12.4999 24 12.4999C20.5 12.4999 18 15.0713 18 18.0713ZM26.5 19.2499C26.0858 19.2499 25.75 18.9141 25.75 18.4999V16.9999C25.75 16.5857 26.0858 16.2499 26.5 16.2499C26.9142 16.2499 27.25 16.5857 27.25 16.9999V18.4999C27.25 18.9141 26.9142 19.2499 26.5 19.2499ZM20.75 18.4999C20.75 18.9141 21.0858 19.2499 21.5 19.2499C21.9142 19.2499 22.25 18.9141 22.25 18.4999V16.9999C22.25 16.5857 21.9142 16.2499 21.5 16.2499C21.0858 16.2499 20.75 16.5857 20.75 16.9999V18.4999Z" fill="black"/>
</svg>
