<svg width="48" height="32" viewBox="0 0 48 32" fill="none" xmlns="http://www.w3.org/2000/svg">
<path fill-rule="evenodd" clip-rule="evenodd" d="M29.5 16C29.5 19.0376 27.0376 21.5 24 21.5C20.9624 21.5 18.5 19.0376 18.5 16C18.5 12.9624 20.9624 10.5 24 10.5C27.0376 10.5 29.5 12.9624 29.5 16ZM31 16C31 19.866 27.866 23 24 23C20.134 23 17 19.866 17 16C17 12.134 20.134 9 24 9C27.866 9 31 12.134 31 16ZM25.25 15.25C25.25 15.6642 25.5858 16 26 16C26.4142 16 26.75 15.6642 26.75 15.25V14.25C26.75 13.8358 26.4142 13.5 26 13.5C25.5858 13.5 25.25 13.8358 25.25 14.25V15.25ZM22 16C21.5858 16 21.25 15.6642 21.25 15.25V14.25C21.25 13.8358 21.5858 13.5 22 13.5C22.4142 13.5 22.75 13.8358 22.75 14.25V15.25C22.75 15.6642 22.4142 16 22 16ZM24 20C25.3693 20 26.5 19.5 26.5 18.5C26.5 17.5 25.5 17 24 17C22.5 17 21.5 17.5 21.5 18.5C21.5 19.5 22.5 20 24 20Z" fill="black"/>
</svg>
