<svg width="48" height="32" viewBox="0 0 48 32" fill="none" xmlns="http://www.w3.org/2000/svg">
<path fill-rule="evenodd" clip-rule="evenodd" d="M25.5 13.5V16.3028L27.8321 14.7481L29.5 13.6361V20.5C29.5 20.7761 29.2761 21 29 21H19C18.7239 21 18.5 20.7761 18.5 20.5V11C18.5 10.7239 18.7239 10.5 19 10.5H20.5C20.7761 10.5 21 10.7239 21 11V13.5V16.4457L23.3823 14.7131L25.5 13.1729V13.5ZM22.5 11V11.6453V13.5L24 12.4091L24.9027 11.7526C25.1284 11.5884 25.4003 11.5 25.6794 11.5C26.0649 11.5 26.4117 11.6651 26.6531 11.9285C26.8685 12.1635 27 12.4767 27 12.8206V13.5L28.0191 12.8206L28.4832 12.5112L28.9116 12.2256C29.1323 12.0785 29.3915 12 29.6567 12C30.3986 12 31 12.6014 31 13.3433V20.5C31 21.6046 30.1046 22.5 29 22.5H19C17.8954 22.5 17 21.6046 17 20.5V11C17 9.89543 17.8954 9 19 9H20.5C21.6046 9 22.5 9.89543 22.5 11ZM20.75 18C20.3358 18 20 18.3358 20 18.75C20 19.1642 20.3358 19.5 20.75 19.5H27.25C27.6642 19.5 28 19.1642 28 18.75C28 18.3358 27.6642 18 27.25 18H20.75Z" fill="black"/>
</svg>
