<svg width="48" height="32" viewBox="0 0 48 32" fill="none" xmlns="http://www.w3.org/2000/svg">
<path fill-rule="evenodd" clip-rule="evenodd" d="M27 21.5H21C20.1716 21.5 19.5 20.8284 19.5 20L19.5 12C19.5 11.1716 20.1716 10.5 21 10.5L23 10.5V13C23 14.6569 24.3431 16 26 16H28.5V20C28.5 20.8284 27.8284 21.5 27 21.5ZM28.3033 14.5C28.2375 14.3846 28.1562 14.2775 28.0607 14.182L24.818 10.9393C24.7225 10.8438 24.6154 10.7625 24.5 10.6967V13C24.5 13.8284 25.1716 14.5 26 14.5H28.3033ZM29.1213 13.1213C29.6839 13.6839 30 14.447 30 15.2426L30 20C30 21.6569 28.6569 23 27 23H21C19.3431 23 18 21.6569 18 20V12C18 10.3431 19.3431 9 21 9H23.7574C24.553 9 25.3161 9.31607 25.8787 9.87868L29.1213 13.1213Z" fill="black"/>
</svg>
