<svg width="48" height="32" viewBox="0 0 48 32" fill="none" xmlns="http://www.w3.org/2000/svg">
<path fill-rule="evenodd" clip-rule="evenodd" d="M27 21.5H21C20.1716 21.5 19.5 20.8284 19.5 20L19.5 12C19.5 11.1716 20.1716 10.5 21 10.5L23.7574 10.5C24.1552 10.5 24.5367 10.658 24.818 10.9393L28.0607 14.182C28.342 14.4633 28.5 14.8448 28.5 15.2426V20C28.5 20.8284 27.8284 21.5 27 21.5ZM29.1213 13.1213C29.6839 13.6839 30 14.447 30 15.2426L30 20C30 21.6569 28.6569 23 27 23H21C19.3431 23 18 21.6569 18 20V12C18 10.3431 19.3431 9 21 9H23.7574C24.553 9 25.3161 9.31607 25.8787 9.87868L29.1213 13.1213ZM22.588 13.5086C22.9774 13.1903 23.4876 13 24.0002 13C25.0916 13 26.1252 13.7364 26.1252 14.9474C26.1252 15.2873 26.0541 15.6247 25.8521 15.9507C25.6612 16.2587 25.385 16.5049 25.0666 16.727C24.8816 16.8559 24.7984 16.9385 24.7623 16.9867C24.7562 16.9948 24.7525 17.0006 24.7502 17.0044C24.7479 17.4166 24.413 17.75 24.0002 17.75C23.586 17.75 23.2502 17.4142 23.2502 17C23.2502 16.2589 23.762 15.8079 24.2087 15.4965C24.4452 15.3316 24.5378 15.224 24.577 15.1607C24.6051 15.1154 24.6252 15.0641 24.6252 14.9474C24.6252 14.8248 24.5786 14.73 24.4916 14.6549C24.3983 14.5742 24.2349 14.5 24.0002 14.5C23.8462 14.5 23.6688 14.5625 23.5374 14.67C23.4105 14.7737 23.3752 14.8743 23.3752 14.9474C23.3752 15.3616 23.0395 15.6974 22.6252 15.6974C22.211 15.6974 21.8752 15.3616 21.8752 14.9474C21.8752 14.3287 22.1941 13.8307 22.588 13.5086ZM25.0001 19.25C25.0001 19.8023 24.5524 20.25 24.0001 20.25C23.4478 20.25 23.0001 19.8023 23.0001 19.25C23.0001 18.6977 23.4478 18.25 24.0001 18.25C24.5524 18.25 25.0001 18.6977 25.0001 19.25Z" fill="black"/>
</svg>
