<svg width="48" height="32" viewBox="0 0 48 32" fill="none" xmlns="http://www.w3.org/2000/svg">
<path fill-rule="evenodd" clip-rule="evenodd" d="M27 21.5H21C20.1716 21.5 19.5 20.8284 19.5 20L19.5 12C19.5 11.1716 20.1716 10.5 21 10.5L23.7574 10.5C24.1552 10.5 24.5367 10.658 24.818 10.9393L28.0607 14.182C28.342 14.4633 28.5 14.8448 28.5 15.2426V20C28.5 20.8284 27.8284 21.5 27 21.5ZM29.1213 13.1213C29.6839 13.6839 30 14.447 30 15.2426L30 20C30 21.6569 28.6569 23 27 23H21C19.3431 23 18 21.6569 18 20V12C18 10.3431 19.3431 9 21 9H23.7574C24.553 9 25.3161 9.31607 25.8787 9.87868L29.1213 13.1213ZM24.5303 19.7803C24.2374 20.0732 23.7626 20.0732 23.4697 19.7803C23.1768 19.4874 23.1768 19.0126 23.4697 18.7197L24.1893 18H22C21.5858 18 21.25 17.6642 21.25 17.25C21.25 16.8358 21.5858 16.5 22 16.5H24.1893L23.4697 15.7803C23.1768 15.4874 23.1768 15.0126 23.4697 14.7197C23.7626 14.4268 24.2374 14.4268 24.5303 14.7197L26.5303 16.7197C26.8232 17.0126 26.8232 17.4874 26.5303 17.7803L24.5303 19.7803Z" fill="black"/>
</svg>
