<svg width="48" height="32" viewBox="0 0 48 32" fill="none" xmlns="http://www.w3.org/2000/svg">
<path fill-rule="evenodd" clip-rule="evenodd" d="M27 21.5H21C20.1716 21.5 19.5 20.8284 19.5 20L19.5 12C19.5 11.1716 20.1716 10.5 21 10.5L23.7574 10.5C24.1552 10.5 24.5367 10.658 24.818 10.9393L28.0607 14.182C28.342 14.4633 28.5 14.8448 28.5 15.2426V20C28.5 20.8284 27.8284 21.5 27 21.5ZM29.1213 13.1213C29.6839 13.6839 30 14.447 30 15.2426L30 20C30 21.6569 28.6569 23 27 23H21C19.3431 23 18 21.6569 18 20V12C18 10.3431 19.3431 9 21 9H23.7574C24.553 9 25.3161 9.31607 25.8787 9.87868L29.1213 13.1213ZM23.5 19.25C22.9676 19.25 22.4741 19.0836 22.0687 18.8C21.4226 18.348 21 17.5983 21 16.75C21 15.3693 22.1193 14.25 23.5 14.25C24.8807 14.25 26 15.3693 26 16.75C26 17.1672 25.8978 17.5606 25.7171 17.9064L26.5303 18.7197C26.8232 19.0126 26.8232 19.4874 26.5303 19.7803C26.2374 20.0732 25.7626 20.0732 25.4697 19.7803L24.6564 18.9671C24.3106 19.1478 23.9172 19.25 23.5 19.25ZM24.5 16.75C24.5 17.3023 24.0523 17.75 23.5 17.75C22.9477 17.75 22.5 17.3023 22.5 16.75C22.5 16.1977 22.9477 15.75 23.5 15.75C24.0523 15.75 24.5 16.1977 24.5 16.75Z" fill="black"/>
</svg>
