<svg width="48" height="32" viewBox="0 0 48 32" fill="none" xmlns="http://www.w3.org/2000/svg">
<path fill-rule="evenodd" clip-rule="evenodd" d="M21 21.5H27C27.8284 21.5 28.5 20.8284 28.5 20V15.2426C28.5 14.8448 28.342 14.4633 28.0607 14.182L24.818 10.9393C24.5367 10.658 24.1552 10.5 23.7574 10.5L21 10.5C20.1716 10.5 19.5 11.1716 19.5 12L19.5 20C19.5 20.8284 20.1716 21.5 21 21.5ZM30 15.2426C30 14.447 29.6839 13.6839 29.1213 13.1213L25.8787 9.87868C25.3161 9.31607 24.553 9 23.7574 9H21C19.3431 9 18 10.3431 18 12V20C18 21.6569 19.3431 23 21 23H27C28.6569 23 30 21.6569 30 20L30 15.2426ZM21 16.25C21 15.8358 21.3358 15.5 21.75 15.5H26.25C26.6642 15.5 27 15.8358 27 16.25C27 16.6642 26.6642 17 26.25 17H21.75C21.3358 17 21 16.6642 21 16.25ZM21.75 18.5C21.3358 18.5 21 18.8358 21 19.25C21 19.6642 21.3358 20 21.75 20H24.25C24.6642 20 25 19.6642 25 19.25C25 18.8358 24.6642 18.5 24.25 18.5H21.75Z" fill="black"/>
</svg>
