<svg width="48" height="32" viewBox="0 0 48 32" fill="none" xmlns="http://www.w3.org/2000/svg">
<path fill-rule="evenodd" clip-rule="evenodd" d="M28.5 20C28.5 20.8284 27.8284 21.5 27 21.5H21C20.1716 21.5 19.5 20.8284 19.5 20L19.5 12C19.5 11.1716 20.1716 10.5 21 10.5L23.7574 10.5C24.1552 10.5 24.5367 10.658 24.818 10.9393L28.0607 14.182C28.342 14.4633 28.5 14.8448 28.5 15.2426V20ZM29.1213 13.1213C29.6839 13.6839 30 14.447 30 15.2426L30 20C30 21.6569 28.6569 23 27 23H21C19.3431 23 18 21.6569 18 20V12C18 10.3431 19.3431 9 21 9H23.7574C24.553 9 25.3161 9.31607 25.8787 9.87868L29.1213 13.1213ZM24 13C24.4142 13 24.75 13.3358 24.75 13.75V16.5C24.75 16.9142 24.4142 17.25 24 17.25C23.5858 17.25 23.25 16.9142 23.25 16.5V13.75C23.25 13.3358 23.5858 13 24 13ZM25 19.25C25 19.8023 24.5523 20.25 24 20.25C23.4477 20.25 23 19.8023 23 19.25C23 18.6977 23.4477 18.25 24 18.25C24.5523 18.25 25 18.6977 25 19.25Z" fill="black"/>
</svg>
