<svg width="48" height="32" viewBox="0 0 48 32" fill="none" xmlns="http://www.w3.org/2000/svg">
<path fill-rule="evenodd" clip-rule="evenodd" d="M24 18.5H28C28.8284 18.5 29.5 17.8284 29.5 17V15H28C26.3431 15 25 13.6569 25 12V10.5L24 10.5C23.1716 10.5 22.5 11.1716 22.5 12L22.5 17C22.5 17.8284 23.1716 18.5 24 18.5ZM29.0607 13.182C29.1562 13.2775 29.2375 13.3846 29.3033 13.5H28C27.1716 13.5 26.5 12.8284 26.5 12V10.6967C26.6154 10.7625 26.7225 10.8438 26.818 10.9393L29.0607 13.182ZM31 14.2426C31 13.447 30.6839 12.6839 30.1213 12.1213L27.8787 9.87868C27.3161 9.31607 26.553 9 25.7574 9H24C22.3431 9 21 10.3431 21 12H20C18.3431 12 17 13.3431 17 15V20C17 21.6569 18.3431 23 20 23H24C25.6569 23 27 21.6569 27 20H28C29.6569 20 31 18.6569 31 17V14.2426ZM25.5 20H24C22.3431 20 21 18.6569 21 17V13.5H20C19.1716 13.5 18.5 14.1716 18.5 15L18.5 20C18.5 20.8284 19.1716 21.5 20 21.5H24C24.8284 21.5 25.5 20.8284 25.5 20Z" fill="black"/>
</svg>
