<svg width="48" height="32" viewBox="0 0 48 32" fill="none" xmlns="http://www.w3.org/2000/svg">
<path fill-rule="evenodd" clip-rule="evenodd" d="M21 21.5H27C27.8284 21.5 28.5 20.8284 28.5 20V15.2426C28.5 14.8448 28.342 14.4633 28.0607 14.182L24.818 10.9393C24.5367 10.658 24.1552 10.5 23.7574 10.5L21 10.5C20.1716 10.5 19.5 11.1716 19.5 12L19.5 20C19.5 20.8284 20.1716 21.5 21 21.5ZM30 15.2426C30 14.447 29.6839 13.6839 29.1213 13.1213L25.8787 9.87868C25.3161 9.31607 24.553 9 23.7574 9H21C19.3431 9 18 10.3431 18 12V20C18 21.6569 19.3431 23 21 23H27C28.6569 23 30 21.6569 30 20L30 15.2426ZM24.7197 18.5303C24.4268 18.2374 24.4268 17.7626 24.7197 17.4697L25.6893 16.5L24.7197 15.5303C24.4268 15.2374 24.4268 14.7626 24.7197 14.4697C25.0126 14.1768 25.4874 14.1768 25.7803 14.4697L27.2803 15.9697C27.5732 16.2626 27.5732 16.7374 27.2803 17.0303L25.7803 18.5303C25.4874 18.8232 25.0126 18.8232 24.7197 18.5303ZM23.2803 15.5303C23.5732 15.2374 23.5732 14.7626 23.2803 14.4697C22.9874 14.1768 22.5126 14.1768 22.2197 14.4697L20.7197 15.9697C20.4268 16.2626 20.4268 16.7374 20.7197 17.0303L22.2197 18.5303C22.5126 18.8232 22.9874 18.8232 23.2803 18.5303C23.5732 18.2374 23.5732 17.7626 23.2803 17.4697L22.3107 16.5L23.2803 15.5303Z" fill="black"/>
</svg>
