<svg width="48" height="32" viewBox="0 0 48 32" fill="none" xmlns="http://www.w3.org/2000/svg">
<path fill-rule="evenodd" clip-rule="evenodd" d="M27 21.5H21C20.1716 21.5 19.5 20.8284 19.5 20L19.5 12C19.5 11.1716 20.1716 10.5 21 10.5L23.7574 10.5C24.1552 10.5 24.5367 10.658 24.818 10.9393L28.0607 14.182C28.342 14.4633 28.5 14.8448 28.5 15.2426V20C28.5 20.8284 27.8284 21.5 27 21.5ZM29.1213 13.1213C29.6839 13.6839 30 14.447 30 15.2426L30 20C30 21.6569 28.6569 23 27 23H21C19.3431 23 18 21.6569 18 20V12C18 10.3431 19.3431 9 21 9H23.7574C24.553 9 25.3161 9.31607 25.8787 9.87868L29.1213 13.1213ZM22.75 12.5C22.3358 12.5 22 12.8358 22 13.25V15.25H21.75C21.3358 15.25 21 15.5858 21 16C21 16.4142 21.3358 16.75 21.75 16.75H22V17.5H21.75C21.3358 17.5 21 17.8358 21 18.25C21 18.6642 21.3358 19 21.75 19H22V19.25C22 19.6642 22.3358 20 22.75 20C23.1642 20 23.5 19.6642 23.5 19.25V19H24.25C24.6642 19 25 18.6642 25 18.25C25 17.8358 24.6642 17.5 24.25 17.5H23.5V16.75H24.375C25.5486 16.75 26.5 15.7986 26.5 14.625C26.5 13.4514 25.5486 12.5 24.375 12.5H22.75ZM24.375 15.25H23.5V14H24.375C24.7202 14 25 14.2798 25 14.625C25 14.9702 24.7202 15.25 24.375 15.25Z" fill="black"/>
</svg>
