<svg width="48" height="32" viewBox="0 0 48 32" fill="none" xmlns="http://www.w3.org/2000/svg">
<path fill-rule="evenodd" clip-rule="evenodd" d="M28.5 20C28.5 20.8284 27.8284 21.5 27 21.5H21C20.1716 21.5 19.5 20.8284 19.5 20L19.5 12C19.5 11.1716 20.1716 10.5 21 10.5L23.7574 10.5C24.1552 10.5 24.5367 10.658 24.818 10.9393L28.0607 14.182C28.342 14.4633 28.5 14.8448 28.5 15.2426V20ZM29.1213 13.1213C29.6839 13.6839 30 14.447 30 15.2426L30 20C30 21.6569 28.6569 23 27 23H21C19.3431 23 18 21.6569 18 20V12C18 10.3431 19.3431 9 21 9H23.7574C24.553 9 25.3161 9.31607 25.8787 9.87868L29.1213 13.1213ZM24.75 14.75C24.75 14.3358 24.4142 14 24 14C23.5858 14 23.25 14.3358 23.25 14.75V16.25H21.75C21.3358 16.25 21 16.5858 21 17C21 17.4142 21.3358 17.75 21.75 17.75H23.25V19.25C23.25 19.6642 23.5858 20 24 20C24.4142 20 24.75 19.6642 24.75 19.25V17.75H26.25C26.6642 17.75 27 17.4142 27 17C27 16.5858 26.6642 16.25 26.25 16.25H24.75V14.75Z" fill="black"/>
</svg>
