<svg width="48" height="32" viewBox="0 0 48 32" fill="none" xmlns="http://www.w3.org/2000/svg">
<path fill-rule="evenodd" clip-rule="evenodd" d="M27 21.5H21C20.1716 21.5 19.5 20.8284 19.5 20L19.5 12C19.5 11.1716 20.1716 10.5 21 10.5L23.7574 10.5C24.1552 10.5 24.5367 10.658 24.818 10.9393L28.0607 14.182C28.342 14.4633 28.5 14.8448 28.5 15.2426V20C28.5 20.8284 27.8284 21.5 27 21.5ZM29.1213 13.1213C29.6839 13.6839 30 14.447 30 15.2426L30 20C30 21.6569 28.6569 23 27 23H21C19.3431 23 18 21.6569 18 20V12C18 10.3431 19.3431 9 21 9H23.7574C24.553 9 25.3161 9.31607 25.8787 9.87868L29.1213 13.1213ZM26.85 15.65C27.0985 15.3186 27.0314 14.8485 26.7 14.6C26.3686 14.3514 25.8985 14.4186 25.65 14.75L23.4689 17.6581L22.2803 16.4696C21.9874 16.1767 21.5126 16.1767 21.2197 16.4696C20.9268 16.7625 20.9268 17.2374 21.2197 17.5303L23.0197 19.3303C23.1734 19.484 23.3863 19.5635 23.6032 19.5481C23.82 19.5327 24.0195 19.4239 24.15 19.25L26.85 15.65Z" fill="black"/>
</svg>
