<svg width="48" height="32" viewBox="0 0 48 32" fill="none" xmlns="http://www.w3.org/2000/svg">
<path fill-rule="evenodd" clip-rule="evenodd" d="M27 21.5H21C20.1716 21.5 19.5 20.8284 19.5 20L19.5 12C19.5 11.1716 20.1716 10.5 21 10.5H21.5V11.25C21.5 11.6642 21.8358 12 22.25 12H23V14H22.25C21.8358 14 21.5 14.3358 21.5 14.75V15.25C21.5 15.6642 21.8358 16 22.25 16H23V18H22.25C21.8358 18 21.5 18.3358 21.5 18.75V19.25C21.5 19.6642 21.8358 20 22.25 20H23V18H23.75C24.1642 18 24.5 17.6642 24.5 17.25V16.75C24.5 16.3358 24.1642 16 23.75 16H23V14H23.75C24.1642 14 24.5 13.6642 24.5 13.25V12.75C24.5 12.3358 24.1642 12 23.75 12H23V10.5H23.7574C24.1552 10.5 24.5367 10.658 24.818 10.9393L28.0607 14.182C28.342 14.4633 28.5 14.8448 28.5 15.2426V20C28.5 20.8284 27.8284 21.5 27 21.5ZM29.1213 13.1213C29.6839 13.6839 30 14.447 30 15.2426L30 20C30 21.6569 28.6569 23 27 23H21C19.3431 23 18 21.6569 18 20V12C18 10.3431 19.3431 9 21 9H23.7574C24.553 9 25.3161 9.31607 25.8787 9.87868L29.1213 13.1213Z" fill="black"/>
</svg>
