<svg width="48" height="32" viewBox="0 0 48 32" fill="none" xmlns="http://www.w3.org/2000/svg">
<path fill-rule="evenodd" clip-rule="evenodd" d="M28.5 20C28.5 20.8284 27.8284 21.5 27 21.5H21C20.1716 21.5 19.5 20.8284 19.5 20L19.5 12C19.5 11.1716 20.1716 10.5 21 10.5L23.7574 10.5C24.1552 10.5 24.5367 10.658 24.818 10.9393L28.0607 14.182C28.342 14.4633 28.5 14.8448 28.5 15.2426V20ZM29.1213 13.1213C29.6839 13.6839 30 14.447 30 15.2426L30 20C30 21.6569 28.6569 23 27 23H21C19.3431 23 18 21.6569 18 20V12C18 10.3431 19.3431 9 21 9H23.7574C24.553 9 25.3161 9.31607 25.8787 9.87868L29.1213 13.1213ZM21.4697 16.7197C21.1768 17.0126 21.1768 17.4874 21.4697 17.7803C21.7626 18.0732 22.2374 18.0732 22.5303 17.7803L23.25 17.0607V19.25C23.25 19.6642 23.5858 20 24 20C24.4142 20 24.75 19.6642 24.75 19.25V17.0607L25.4697 17.7803C25.7626 18.0732 26.2374 18.0732 26.5303 17.7803C26.8232 17.4874 26.8232 17.0126 26.5303 16.7197L24.5303 14.7197C24.2374 14.4268 23.7626 14.4268 23.4697 14.7197L21.4697 16.7197Z" fill="black"/>
</svg>
