<svg width="48" height="32" viewBox="0 0 48 32" fill="none" xmlns="http://www.w3.org/2000/svg">
<path fill-rule="evenodd" clip-rule="evenodd" d="M28.5 20C28.5 20.8284 27.8284 21.5 27 21.5H21C20.1716 21.5 19.5 20.8284 19.5 20L19.5 12C19.5 11.1716 20.1716 10.5 21 10.5L23.7574 10.5C24.1552 10.5 24.5367 10.658 24.818 10.9393L28.0607 14.182C28.342 14.4633 28.5 14.8448 28.5 15.2426V20ZM29.1213 13.1213C29.6839 13.6839 30 14.447 30 15.2426L30 20C30 21.6569 28.6569 23 27 23H21C19.3431 23 18 21.6569 18 20V12C18 10.3431 19.3431 9 21 9H23.7574C24.553 9 25.3161 9.31607 25.8787 9.87868L29.1213 13.1213ZM22.7803 14.7197C22.4874 14.4268 22.0126 14.4268 21.7197 14.7197C21.4268 15.0126 21.4268 15.4874 21.7197 15.7803L22.9393 17L21.7197 18.2197C21.4268 18.5126 21.4268 18.9874 21.7197 19.2803C22.0126 19.5732 22.4874 19.5732 22.7803 19.2803L24 18.0607L25.2197 19.2803C25.5126 19.5732 25.9874 19.5732 26.2803 19.2803C26.5732 18.9874 26.5732 18.5126 26.2803 18.2197L25.0607 17L26.2803 15.7803C26.5732 15.4874 26.5732 15.0126 26.2803 14.7197C25.9874 14.4268 25.5126 14.4268 25.2197 14.7197L24 15.9393L22.7803 14.7197Z" fill="black"/>
</svg>
