<svg width="48" height="32" viewBox="0 0 48 32" fill="none" xmlns="http://www.w3.org/2000/svg">
<path fill-rule="evenodd" clip-rule="evenodd" d="M27 21.5H21C20.1716 21.5 19.5 20.8284 19.5 20L19.5 12C19.5 11.1716 20.1716 10.5 21 10.5L23.7574 10.5C24.1552 10.5 24.5367 10.658 24.818 10.9393L28.0607 14.182C28.342 14.4633 28.5 14.8448 28.5 15.2426V20C28.5 20.8284 27.8284 21.5 27 21.5ZM29.1213 13.1213C29.6839 13.6839 30 14.447 30 15.2426L30 20C30 21.6569 28.6569 23 27 23H21C19.3431 23 18 21.6569 18 20V12C18 10.3431 19.3431 9 21 9H23.7574C24.553 9 25.3161 9.31607 25.8787 9.87868L29.1213 13.1213ZM22.2433 13.5093C22.5149 13.3056 22.8385 13.1663 23.1979 13.086V12.75C23.1979 12.3358 23.5337 12 23.9479 12C24.3621 12 24.6979 12.3358 24.6979 12.75V13.0615C25.2346 13.1579 25.6712 13.3699 26.0066 13.6773C26.3121 13.9571 26.3328 14.4315 26.053 14.7369C25.7732 15.0423 25.2988 15.0631 24.9934 14.7833C24.8591 14.6602 24.5808 14.5025 24.0003 14.5025C23.5365 14.5025 23.2719 14.6128 23.1432 14.7093C23.0314 14.7932 22.9959 14.881 22.9959 14.9828C22.9959 14.9967 22.9966 15.0047 23.0124 15.0263C23.0353 15.0577 23.0893 15.112 23.2007 15.1775C23.4316 15.3133 23.7741 15.42 24.1525 15.4984L24.2036 15.509C24.597 15.5903 25.1587 15.7064 25.6228 15.9431C26.1455 16.2098 26.6801 16.7062 26.6799 17.5519C26.6798 18.3018 26.2118 18.8146 25.7005 19.1015C25.3978 19.2713 25.0523 19.3824 24.6979 19.4436V19.75C24.6979 20.1642 24.3621 20.5 23.9479 20.5C23.5337 20.5 23.1979 20.1642 23.1979 19.75V19.4014C22.8634 19.3166 22.5533 19.1831 22.2828 19.0183C21.8205 18.7367 21.3959 18.3141 21.2194 17.7919C21.0868 17.3994 21.2974 16.9738 21.6898 16.8412C22.0822 16.7086 22.5078 16.9192 22.6404 17.3116C22.6674 17.3912 22.7867 17.5689 23.0631 17.7373C23.3247 17.8966 23.6577 18.0025 24.0003 18.0025C24.4009 18.0025 24.7479 17.916 24.9665 17.7933C25.1744 17.6767 25.1799 17.5891 25.1799 17.5516C25.1799 17.4725 25.1721 17.3971 24.9412 17.2793C24.6721 17.142 24.2981 17.0605 23.848 16.9672C23.4195 16.8784 22.8849 16.7319 22.4403 16.4705C21.994 16.208 21.4959 15.7356 21.4959 14.9828C21.4959 14.3956 21.7644 13.8683 22.2433 13.5093Z" fill="black"/>
</svg>
