<svg width="48" height="32" viewBox="0 0 48 32" fill="none" xmlns="http://www.w3.org/2000/svg">
<path fill-rule="evenodd" clip-rule="evenodd" d="M28.5 20C28.5 20.8284 27.8284 21.5 27 21.5H21C20.1716 21.5 19.5 20.8284 19.5 20L19.5 12C19.5 11.1716 20.1716 10.5 21 10.5L23.7574 10.5C24.1552 10.5 24.5367 10.658 24.818 10.9393L28.0607 14.182C28.342 14.4633 28.5 14.8448 28.5 15.2426V20ZM29.1213 13.1213C29.6839 13.6839 30 14.447 30 15.2426L30 20C30 21.6569 28.6569 23 27 23H21C19.3431 23 18 21.6569 18 20V12C18 10.3431 19.3431 9 21 9H23.7574C24.553 9 25.3161 9.31607 25.8787 9.87868L29.1213 13.1213ZM21.4697 17.7803C21.1768 17.4874 21.1768 17.0126 21.4697 16.7197C21.7626 16.4268 22.2374 16.4268 22.5303 16.7197L23.25 17.4393V15.25C23.25 14.8358 23.5858 14.5 24 14.5C24.4142 14.5 24.75 14.8358 24.75 15.25V17.4393L25.4697 16.7197C25.7626 16.4268 26.2374 16.4268 26.5303 16.7197C26.8232 17.0126 26.8232 17.4874 26.5303 17.7803L24.5303 19.7803C24.2374 20.0732 23.7626 20.0732 23.4697 19.7803L21.4697 17.7803Z" fill="black"/>
</svg>
