<svg width="48" height="32" viewBox="0 0 48 32" fill="none" xmlns="http://www.w3.org/2000/svg">
<path fill-rule="evenodd" clip-rule="evenodd" d="M27.5 15.1406C27.5 14.4059 27.2304 13.6967 26.7422 13.1475L24.395 10.5069C23.8257 9.86644 23.0097 9.5 22.1528 9.5H20C18.3431 9.5 17 10.8431 17 12.5V19.5C17 21.1569 18.3431 22.5 20 22.5H26.25C26.6642 22.5 27 22.1642 27 21.75C27 21.3358 26.6642 21 26.25 21H20C19.1716 21 18.5 20.3284 18.5 19.5L18.5 12.5C18.5 11.6716 19.1716 11 20 11L21.5 11V13C21.5 14.6569 22.8431 16 24.5 16H26.75C27.1642 16 27.5 15.6642 27.5 15.25V15.1406ZM25.8563 14.5H24.5C23.6716 14.5 23 13.8284 23 13V11.2621C23.0999 11.3305 23.192 11.4113 23.2739 11.5035L25.6211 14.1441C25.7168 14.2517 25.7958 14.3717 25.8563 14.5ZM29.4393 19L28.7197 19.7197C28.4268 20.0126 28.4268 20.4874 28.7197 20.7803C29.0126 21.0732 29.4874 21.0732 29.7803 20.7803L31.7803 18.7803C31.921 18.6397 32 18.4489 32 18.25C32 18.0511 31.921 17.8603 31.7803 17.7197L29.7803 15.7197C29.4874 15.4268 29.0126 15.4268 28.7197 15.7197C28.4268 16.0126 28.4268 16.4874 28.7197 16.7803L29.4393 17.5L22.75 17.5C22.3358 17.5 22 17.8358 22 18.25C22 18.6642 22.3358 19 22.75 19H29.4393Z" fill="black"/>
</svg>
