<svg width="48" height="32" viewBox="0 0 48 32" fill="none" xmlns="http://www.w3.org/2000/svg">
<path fill-rule="evenodd" clip-rule="evenodd" d="M27.5 11.5H28C28.8284 11.5 29.5 12.1716 29.5 13V13.5H27.5V11.5ZM27.5 15V17H29.5V15H27.5ZM31 15V17V18.5V19C31 20.6569 29.6569 22 28 22H27.5H26H22H20.5H20C18.3431 22 17 20.6569 17 19V18.5V17V15V13.5V13C17 11.3431 18.3431 10 20 10H20.5H22H26H27.5H28C29.6569 10 31 11.3431 31 13V13.5V15ZM29.5 18.5H27.5V20.5H28C28.8284 20.5 29.5 19.8284 29.5 19V18.5ZM26 11.5H22V20.5H26V11.5ZM20.5 20.5V18.5H18.5V19C18.5 19.8284 19.1716 20.5 20 20.5H20.5ZM20.5 15V17H18.5V15H20.5ZM20.5 13.5H18.5V13C18.5 12.1716 19.1716 11.5 20 11.5H20.5V13.5Z" fill="black"/>
</svg>
