<svg width="48" height="32" viewBox="0 0 48 32" fill="none" xmlns="http://www.w3.org/2000/svg">
<path fill-rule="evenodd" clip-rule="evenodd" d="M22.9641 9.78969C23.0803 10.1873 22.8521 10.6038 22.4545 10.7199C20.6602 11.2441 19.2441 12.6602 18.7199 14.4545C18.6038 14.8521 18.1873 15.0803 17.7897 14.9641C17.3921 14.848 17.1639 14.4315 17.2801 14.0339C17.9479 11.7482 19.7482 9.94788 22.0339 9.28011C22.4315 9.16395 22.848 9.3921 22.9641 9.78969ZM25.0359 9.78969C25.1521 9.3921 25.5685 9.16395 25.9661 9.28011C28.8743 10.1297 31 12.8157 31 16C31 17.2163 30.6891 18.3623 30.1419 19.3605C29.9428 19.7238 29.487 19.8568 29.1238 19.6577C28.7605 19.4586 28.6275 19.0027 28.8266 18.6395C29.2557 17.8567 29.5 16.958 29.5 16C29.5 13.5 27.8314 11.3877 25.5455 10.7199C25.1479 10.6038 24.9198 10.1873 25.0359 9.78969ZM17.7897 17.0359C18.1873 16.9198 18.6038 17.1479 18.7199 17.5455C19.3877 19.8314 21.5 21.5 24 21.5C24.958 21.5 25.8567 21.2557 26.6395 20.8266C27.0027 20.6275 27.4586 20.7605 27.6577 21.1238C27.8568 21.487 27.7238 21.9428 27.3605 22.1419C26.3623 22.6891 25.2163 23 24 23C20.8157 23 18.1297 20.8743 17.2801 17.9661C17.1639 17.5685 17.3921 17.1521 17.7897 17.0359ZM24 13.5C22.6193 13.5 21.5 14.6193 21.5 16C21.5 16.9635 22.0448 17.8009 22.8467 18.2188C23.214 18.4103 23.3565 18.8632 23.1651 19.2305C22.9737 19.5979 22.5207 19.7404 22.1534 19.549C20.8753 18.8829 20 17.5443 20 16C20 13.7909 21.7909 12 24 12C26.2092 12 28 13.7909 28 16C28 16.4142 27.6642 16.75 27.25 16.75C26.8358 16.75 26.5 16.4142 26.5 16C26.5 14.6193 25.3807 13.5 24 13.5ZM24.7422 15.8918C24.6824 15.4819 24.3016 15.1981 23.8918 15.2579C23.4819 15.3176 23.1981 15.6984 23.2579 16.1083C23.5095 17.8338 24.7505 19.1093 26.4388 19.2475C26.8517 19.2813 27.2137 18.974 27.2475 18.5612C27.2813 18.1484 26.974 17.7863 26.5612 17.7525C25.6429 17.6774 24.9041 17.002 24.7422 15.8918Z" fill="black"/>
</svg>
