<svg width="48" height="32" viewBox="0 0 48 32" fill="none" xmlns="http://www.w3.org/2000/svg">
<path fill-rule="evenodd" clip-rule="evenodd" d="M23.4706 11.5884C22.2091 10.8315 20.6549 10.7475 19.3191 11.364C19.1246 11.4537 19 11.6484 19 11.8627V17.3957C20.8132 16.6664 22.8667 16.8267 24.5471 17.835L24.8915 18.0416C26.0695 18.7484 27.5269 18.8044 28.7557 18.19C28.9054 18.1151 29 17.9621 29 17.7947V12.1817C27.2292 12.8336 25.2475 12.6545 23.6141 11.6745L23.4706 11.5884ZM29.4265 19.5316C27.739 20.3754 25.7375 20.2985 24.1197 19.3278L23.7754 19.1212C22.4676 18.3366 20.8626 18.2277 19.4608 18.8284L19 19.0259V22.2814C19 22.6956 18.6642 23.0314 18.25 23.0314C17.8358 23.0314 17.5 22.6956 17.5 22.2814V11.8627C17.5 11.0634 17.9648 10.337 18.6905 10.002C20.4768 9.17756 22.5553 9.28992 24.2424 10.3022L24.3859 10.3882C25.7372 11.199 27.402 11.289 28.8328 10.6286L29.4357 10.3504C29.6679 10.2432 29.9388 10.2618 30.1542 10.3996C30.3697 10.5375 30.5 10.7756 30.5 11.0314V17.7947C30.5 18.5302 30.0844 19.2027 29.4265 19.5316Z" fill="black"/>
</svg>
