<svg width="48" height="32" viewBox="0 0 48 32" fill="none" xmlns="http://www.w3.org/2000/svg">
<path fill-rule="evenodd" clip-rule="evenodd" d="M22.4525 14.8641L23.5811 12.6915C24.0234 11.8401 24.7237 10.658 25.4535 9.59608C26.4177 10.6408 27.3599 11.8964 28.0659 13.2183C28.8144 14.6199 29.25 16.0069 29.25 17.25C29.25 18.6769 28.3456 20.0796 27.0966 20.8632C27.1545 20.5981 27.1875 20.3105 27.1875 20C27.1875 18.745 26.5133 17.6636 26.0437 17.0375C25.7867 16.6948 25.5328 16.4129 25.3434 16.2166C25.248 16.1176 25.1668 16.0381 25.107 15.9812C25.077 15.9527 25.0523 15.9296 25.0336 15.9125L25.0103 15.8912L25.0022 15.8839L24.999 15.8811L24.9977 15.8799L24.9971 15.8794C24.9968 15.8791 24.9965 15.8789 24 17C24 17 24.456 17.4053 24.8939 18.0052C24.9242 18.0467 24.9544 18.0892 24.9843 18.1325C25.3545 18.6673 25.6875 19.3337 25.6875 20C25.6875 20.7699 25.3747 21.2764 25.0701 21.587C24.911 21.7493 24.7912 21.9665 24.7557 22.1878C24.7416 22.276 24.7409 22.3649 24.7564 22.4512C24.7676 22.5136 24.7874 22.5747 24.8166 22.6333C24.929 22.858 25.1593 23.0037 25.4097 22.983C28.2457 22.748 30.75 20.1128 30.75 17.25C30.75 14.1011 28.5729 10.7119 26.3933 8.40474C26.145 8.14188 25.7968 8 25.4352 8C25.0041 8 24.5967 8.20258 24.3495 8.55583C23.8977 9.2016 23.4527 9.89854 23.0611 10.5548C22.7489 11.0779 22.4707 11.5751 22.25 12L21.2948 10.6627C21.2896 10.6555 21.2844 10.6483 21.279 10.6412C21.0931 10.3952 20.8022 10.25 20.4928 10.25C20.1826 10.25 19.8899 10.395 19.7061 10.645C18.6199 12.1225 17.25 14.2491 17.25 17.25C17.25 20.1128 19.7543 22.748 22.5903 22.983C22.8407 23.0037 23.071 22.858 23.1834 22.6333C23.2126 22.5747 23.2324 22.5136 23.2436 22.4512C23.2591 22.3649 23.2584 22.276 23.2443 22.1878C23.2088 21.9665 23.089 21.7493 22.9299 21.587C22.6253 21.2764 22.3125 20.7699 22.3125 20C22.3125 19.3337 22.6455 18.6673 23.0157 18.1325C23.0456 18.0892 23.0758 18.0467 23.1061 18.0052C23.544 17.4053 24 17 24 17C23.0035 15.8789 23.0032 15.8791 23.0029 15.8794L23.0023 15.8799L23.001 15.8811L22.9978 15.8839L22.9897 15.8912L22.9664 15.9125C22.9477 15.9296 22.923 15.9527 22.893 15.9812C22.8332 16.0381 22.752 16.1176 22.6566 16.2166C22.4672 16.4129 22.2133 16.6948 21.9563 17.0375C21.4867 17.6636 20.8125 18.745 20.8125 20C20.8125 20.3105 20.8455 20.5981 20.9034 20.8632C19.6544 20.0796 18.75 18.6769 18.75 17.25C18.75 15.0787 19.5969 13.4376 20.4949 12.1236L21.0294 12.8719L22.4525 14.8641ZM24 17L24.9965 15.8789L24 14.9931L23.0035 15.8789L24 17Z" fill="black"/>
</svg>
