<svg width="48" height="32" viewBox="0 0 48 32" fill="none" xmlns="http://www.w3.org/2000/svg">
<path fill-rule="evenodd" clip-rule="evenodd" d="M27.4943 21.2C28.3312 20.7182 28.5 20.2535 28.5 20C28.5 19.6499 28.3945 19.308 28.1973 19.0188L25.0721 14.4352C24.8623 14.1274 24.75 13.7634 24.75 13.3909V10.9091C24.5184 10.9677 24.2652 11 24 11C23.7348 11 23.4816 10.9677 23.25 10.9091V13.3909C23.25 13.7634 23.1377 14.1274 22.9279 14.4352L19.8027 19.0188C19.6055 19.308 19.5 19.6499 19.5 20C19.5 20.2535 19.6688 20.7182 20.5057 21.2C21.3192 21.6683 22.549 22 24 22C25.451 22 26.6808 21.6683 27.4943 21.2ZM24 8.5C26 8.5 26.25 9.5 26.25 10V13.3909C26.25 13.462 26.2714 13.5314 26.3115 13.5902L29.4367 18.1738C29.8037 18.7121 30 19.3485 30 20C30 22 27.3137 23.5 24 23.5C20.6863 23.5 18 22 18 20C18 19.3485 18.1963 18.7121 18.5633 18.1738L21.6885 13.5902C21.7286 13.5314 21.75 13.462 21.75 13.3909L21.75 10C21.75 9.5 22 8.5 24 8.5ZM24.084 16.126C24.4286 15.8962 24.8943 15.9893 25.124 16.334L26.624 18.584C26.8538 18.9286 26.7607 19.3943 26.416 19.624C26.0714 19.8538 25.6057 19.7607 25.376 19.416L23.876 17.166C23.6462 16.8214 23.7393 16.3557 24.084 16.126Z" fill="black"/>
</svg>
