<svg width="48" height="32" viewBox="0 0 48 32" fill="none" xmlns="http://www.w3.org/2000/svg">
<path fill-rule="evenodd" clip-rule="evenodd" d="M19 19.5C19 20.3284 19.6716 21 20.5 21L20.5 18.5C20.5 17.3954 21.3954 16.5 22.5 16.5H25.5C26.6046 16.5 27.5 17.3954 27.5 18.5V21C28.3284 21 29 20.3284 29 19.5V14.0355C29 13.7703 28.8946 13.516 28.7071 13.3284L26.6716 11.2929C26.484 11.1054 26.2297 11 25.9645 11H22V12C22 12.2761 22.2239 12.5 22.5 12.5H25.5C25.9142 12.5 26.25 12.8358 26.25 13.25C26.25 13.6642 25.9142 14 25.5 14H22.5C21.3954 14 20.5 13.1046 20.5 12V11C19.6716 11 19 11.6716 19 12.5V19.5ZM17.5 19.5C17.5 21.1569 18.8431 22.5 20.5 22.5H22H26H27.5C29.1569 22.5 30.5 21.1569 30.5 19.5V14.0355C30.5 13.3725 30.2366 12.7366 29.7678 12.2678L27.7322 10.2322C27.2634 9.76339 26.6275 9.5 25.9645 9.5H20.5C18.8431 9.5 17.5 10.8431 17.5 12.5V19.5ZM26 18.5V21H22V18.5C22 18.2239 22.2239 18 22.5 18H25.5C25.7761 18 26 18.2239 26 18.5Z" fill="black"/>
</svg>
