<svg width="48" height="32" viewBox="0 0 48 32" fill="none" xmlns="http://www.w3.org/2000/svg">
<path fill-rule="evenodd" clip-rule="evenodd" d="M24.8787 12L24.4393 11.5607L23.6716 10.7929C23.484 10.6054 23.2297 10.5 22.9645 10.5H22C21.1716 10.5 20.5 11.1716 20.5 12V17C20.5 17.8284 21.1716 18.5 22 18.5H29C29.8284 18.5 30.5 17.8284 30.5 17V13.5C30.5 12.6716 29.8284 12 29 12H25.5H24.8787ZM22 9C20.3431 9 19 10.3431 19 12C17.3431 12 16 13.3431 16 15V20C16 21.6569 17.3431 23 19 23H26C27.6569 23 29 21.6569 29 20C30.6569 20 32 18.6569 32 17V13.5C32 11.8431 30.6569 10.5 29 10.5H25.5L24.7322 9.73223C24.2634 9.26339 23.6275 9 22.9645 9H22ZM17.5 15C17.5 14.1716 18.1716 13.5 19 13.5V17C19 18.6569 20.3431 20 22 20H27.5C27.5 20.8284 26.8284 21.5 26 21.5H19C18.1716 21.5 17.5 20.8284 17.5 20V15ZM28.25 15C28.6642 15 29 14.6642 29 14.25C29 13.8358 28.6642 13.5 28.25 13.5H22.75C22.3358 13.5 22 13.8358 22 14.25C22 14.6642 22.3358 15 22.75 15H28.25Z" fill="black"/>
</svg>
