<svg width="48" height="32" viewBox="0 0 48 32" fill="none" xmlns="http://www.w3.org/2000/svg">
<path fill-rule="evenodd" clip-rule="evenodd" d="M22.3787 12.5L21.9393 12.0607L21.318 11.4393C21.0367 11.158 20.6552 11 20.2574 11H19C18.1716 11 17.5 11.6716 17.5 12.5V17.75L18.8761 15.4565C19.4183 14.5529 20.3948 14 21.4486 14H28.5C28.5 13.1716 27.8284 12.5 27 12.5H23H22.3787ZM30 14.0258V14C30 12.3431 28.6569 11 27 11H23L22.3787 10.3787C21.8161 9.81607 21.053 9.5 20.2574 9.5H19C17.3431 9.5 16 10.8431 16 12.5V19C16 20.6569 17.3431 22 19 22H19.0993H26H27.3014C28.3552 22 29.3317 21.4471 29.8739 20.5435L31.6652 17.558C31.8843 17.1929 32 16.7751 32 16.3493C32 15.1705 31.1318 14.1945 30 14.0258ZM26 20.5H27.3014C27.8283 20.5 28.3166 20.2236 28.5877 19.7717L30.379 16.7862L31.6652 17.558L30.379 16.7862C30.4582 16.6542 30.5 16.5032 30.5 16.3493C30.5 15.8802 30.1198 15.5 29.6507 15.5H21.4486C20.9217 15.5 20.4334 15.7764 20.1623 16.2283L18.371 19.2138C18.2918 19.3458 18.25 19.4968 18.25 19.6507C18.25 20.1198 18.6302 20.5 19.0993 20.5H26Z" fill="black"/>
</svg>
