<svg width="48" height="32" viewBox="0 0 48 32" fill="none" xmlns="http://www.w3.org/2000/svg">
<path fill-rule="evenodd" clip-rule="evenodd" d="M22.4393 12.0607L22.8787 12.5H23.5H28.5C29.3284 12.5 30 13.1716 30 14V19C30 19.8284 29.3284 20.5 28.5 20.5H19.5C18.6716 20.5 18 19.8284 18 19V12.5C18 11.6716 18.6716 11 19.5 11H20.7574C21.1552 11 21.5367 11.158 21.818 11.4393L22.4393 12.0607ZM16.5 12.5C16.5 10.8431 17.8431 9.5 19.5 9.5H20.7574C21.553 9.5 22.3161 9.81607 22.8787 10.3787L23.5 11H28.5C30.1569 11 31.5 12.3431 31.5 14V19C31.5 20.6569 30.1569 22 28.5 22H19.5C17.8431 22 16.5 20.6569 16.5 19V12.5ZM24.5 15.25V15.5H23.5V15.25C23.5 14.9739 23.7239 14.75 24 14.75C24.2761 14.75 24.5 14.9739 24.5 15.25ZM26.1 15.5H26V15.25C26 14.1454 25.1046 13.25 24 13.25C22.8954 13.25 22 14.1454 22 15.25V15.5H21.9C21.1268 15.5 20.5 16.1268 20.5 16.9V18.1C20.5 18.8732 21.1268 19.5 21.9 19.5H26.1C26.8732 19.5 27.5 18.8732 27.5 18.1V16.9C27.5 16.1268 26.8732 15.5 26.1 15.5ZM22 17V18H26V17H22Z" fill="black"/>
</svg>
