<svg width="48" height="32" viewBox="0 0 48 32" fill="none" xmlns="http://www.w3.org/2000/svg">
<path fill-rule="evenodd" clip-rule="evenodd" d="M22.4393 12.0607L22.8787 12.5H23.5H28.5C29.3284 12.5 30 13.1716 30 14V19C30 19.8284 29.3284 20.5 28.5 20.5H19.5C18.6716 20.5 18 19.8284 18 19V12.5C18 11.6716 18.6716 11 19.5 11H20.7574C21.1552 11 21.5367 11.158 21.818 11.4393L22.4393 12.0607ZM16.5 12.5C16.5 10.8431 17.8431 9.5 19.5 9.5H20.7574C21.553 9.5 22.3161 9.81607 22.8787 10.3787L23.5 11H28.5C30.1569 11 31.5 12.3431 31.5 14V19C31.5 20.6569 30.1569 22 28.5 22H19.5C17.8431 22 16.5 20.6569 16.5 19V12.5ZM24 15.4526L25.5 16.7026V17.5H22.5V16.7026L24 15.4526ZM21 16.4684C21 16.1716 21.1318 15.8901 21.3598 15.7002L23.3598 14.0335C23.7307 13.7244 24.2693 13.7244 24.6402 14.0335L26.6402 15.7002C26.8682 15.8901 27 16.1716 27 16.4684V18C27 18.5523 26.5523 19 26 19H22C21.4477 19 21 18.5523 21 18V16.4684Z" fill="black"/>
</svg>
