<svg width="48" height="32" viewBox="0 0 48 32" fill="none" xmlns="http://www.w3.org/2000/svg">
<path fill-rule="evenodd" clip-rule="evenodd" d="M22.4393 12.0607L22.8787 12.5H23.5H28.5C29.3284 12.5 30 13.1716 30 14V19C30 19.8284 29.3284 20.5 28.5 20.5H19.5C18.6716 20.5 18 19.8284 18 19V12.5C18 11.6716 18.6716 11 19.5 11H20.7574C21.1552 11 21.5367 11.158 21.818 11.4393L22.4393 12.0607ZM16.5 12.5C16.5 10.8431 17.8431 9.5 19.5 9.5H20.7574C21.553 9.5 22.3161 9.81607 22.8787 10.3787L23.5 11H28.5C30.1569 11 31.5 12.3431 31.5 14V19C31.5 20.6569 30.1569 22 28.5 22H19.5C17.8431 22 16.5 20.6569 16.5 19V12.5ZM24.682 13.7726C25.0839 13.8731 25.3282 14.2803 25.2277 14.6821L24.2277 18.6821C24.1273 19.0839 23.7201 19.3283 23.3182 19.2278C22.9164 19.1273 22.672 18.7201 22.7725 18.3183L23.7725 14.3183C23.873 13.9164 24.2802 13.6721 24.682 13.7726ZM20.9697 18.0303C21.2626 18.3232 21.7375 18.3231 22.0304 18.0302C22.3232 17.7373 22.3232 17.2625 22.0303 16.9696L21.5607 16.5L22.0304 16.0302C22.3232 15.7373 22.3232 15.2625 22.0303 14.9696C21.7374 14.6767 21.2625 14.6767 20.9697 14.9696L19.9697 15.9697C19.829 16.1103 19.75 16.3011 19.75 16.5C19.75 16.6989 19.829 16.8897 19.9697 17.0304L20.9697 18.0303ZM25.9697 16.9697C25.6768 17.2626 25.6768 17.7374 25.9697 18.0303C26.2626 18.3232 26.7374 18.3232 27.0303 18.0303L28.0303 17.0303C28.3232 16.7374 28.3232 16.2626 28.0303 15.9697L27.0303 14.9697C26.7374 14.6768 26.2626 14.6768 25.9697 14.9697C25.6768 15.2626 25.6768 15.7374 25.9697 16.0303L26.4393 16.5L25.9697 16.9697Z" fill="black"/>
</svg>
