<svg width="48" height="32" viewBox="0 0 48 32" fill="none" xmlns="http://www.w3.org/2000/svg">
<path fill-rule="evenodd" clip-rule="evenodd" d="M22.4393 12.0607L22.8787 12.5H23.5H28.5C29.3284 12.5 30 13.1716 30 14V19C30 19.8284 29.3284 20.5 28.5 20.5H19.5C18.6716 20.5 18 19.8284 18 19V12.5C18 11.6716 18.6716 11 19.5 11H20.7574C21.1552 11 21.5367 11.158 21.818 11.4393L22.4393 12.0607ZM16.5 12.5C16.5 10.8431 17.8431 9.5 19.5 9.5H20.7574C21.553 9.5 22.3161 9.81607 22.8787 10.3787L23.5 11H28.5C30.1569 11 31.5 12.3431 31.5 14V19C31.5 20.6569 30.1569 22 28.5 22H19.5C17.8431 22 16.5 20.6569 16.5 19V12.5ZM24.75 15.25C24.75 15.1119 24.8619 15 25 15H26C26.4142 15 26.75 14.6642 26.75 14.25C26.75 13.8358 26.4142 13.5 26 13.5H25C24.0335 13.5 23.25 14.2835 23.25 15.25V15.75H22C21.5858 15.75 21.25 16.0858 21.25 16.5C21.25 16.9142 21.5858 17.25 22 17.25H23.25V17.75C23.25 18.7165 24.0335 19.5 25 19.5H26C26.4142 19.5 26.75 19.1642 26.75 18.75C26.75 18.3358 26.4142 18 26 18H25C24.8619 18 24.75 17.8881 24.75 17.75V17.25H26C26.4142 17.25 26.75 16.9142 26.75 16.5C26.75 16.0858 26.4142 15.75 26 15.75H24.75V15.25Z" fill="black"/>
</svg>
