<svg width="48" height="32" viewBox="0 0 48 32" fill="none" xmlns="http://www.w3.org/2000/svg">
<path fill-rule="evenodd" clip-rule="evenodd" d="M22.4393 12.0607L22.8787 12.5H23.5H28.5C29.3284 12.5 30 13.1716 30 14V19C30 19.8284 29.3284 20.5 28.5 20.5H19.5C18.6716 20.5 18 19.8284 18 19V12.5C18 11.6716 18.6716 11 19.5 11H20.7574C21.1552 11 21.5367 11.158 21.818 11.4393L22.4393 12.0607ZM16.5 12.5C16.5 10.8431 17.8431 9.5 19.5 9.5H20.7574C21.553 9.5 22.3161 9.81607 22.8787 10.3787L23.5 11H28.5C30.1569 11 31.5 12.3431 31.5 14V19C31.5 20.6569 30.1569 22 28.5 22H19.5C17.8431 22 16.5 20.6569 16.5 19V12.5ZM23.4697 19.0303C23.7626 19.3232 24.2374 19.3232 24.5303 19.0303C24.8232 18.7374 24.8232 18.2626 24.5303 17.9697L23.8107 17.25H26C26.4142 17.25 26.75 16.9142 26.75 16.5C26.75 16.0858 26.4142 15.75 26 15.75H23.8107L24.5303 15.0303C24.8232 14.7374 24.8232 14.2626 24.5303 13.9697C24.2374 13.6768 23.7626 13.6768 23.4697 13.9697L21.4697 15.9697C21.1768 16.2626 21.1768 16.7374 21.4697 17.0303L23.4697 19.0303Z" fill="black"/>
</svg>
