<svg width="48" height="32" viewBox="0 0 48 32" fill="none" xmlns="http://www.w3.org/2000/svg">
<path fill-rule="evenodd" clip-rule="evenodd" d="M22.4393 11.5607L22.8787 12H23.5H28.5C29.3284 12 30 12.6716 30 13.5V18.5C30 19.3284 29.3284 20 28.5 20H28H27H26.75C26.3358 20 26 20.3358 26 20.75C26 21.1642 26.3358 21.5 26.75 21.5H27H28H28.5C30.1569 21.5 31.5 20.1569 31.5 18.5V13.5C31.5 11.8431 30.1569 10.5 28.5 10.5H23.5L22.8787 9.87868C22.3161 9.31607 21.553 9 20.7574 9H19.5C17.8431 9 16.5 10.3431 16.5 12V18.5C16.5 20.1569 17.8431 21.5 19.5 21.5H20H21H21.25C21.6642 21.5 22 21.1642 22 20.75C22 20.3358 21.6642 20 21.25 20H21H20H19.5C18.6716 20 18 19.3284 18 18.5V12C18 11.1716 18.6716 10.5 19.5 10.5H20.7574C21.1552 10.5 21.5367 10.658 21.818 10.9393L22.4393 11.5607ZM24.75 16.5607L25.4697 17.2803C25.7626 17.5732 26.2374 17.5732 26.5303 17.2803C26.8232 16.9874 26.8232 16.5126 26.5303 16.2197L24.5303 14.2197C24.3897 14.079 24.1989 14 24 14C23.8011 14 23.6103 14.079 23.4697 14.2197L21.4697 16.2197C21.1768 16.5126 21.1768 16.9874 21.4697 17.2803C21.7626 17.5732 22.2374 17.5732 22.5303 17.2803L23.25 16.5607V23.25C23.25 23.6642 23.5858 24 24 24C24.4142 24 24.75 23.6642 24.75 23.25V16.5607Z" fill="black"/>
</svg>
