<svg width="48" height="32" viewBox="0 0 48 32" fill="none" xmlns="http://www.w3.org/2000/svg">
<path fill-rule="evenodd" clip-rule="evenodd" d="M22.4393 12.0607L22.8787 12.5H23.5H28.5C29.3284 12.5 30 13.1716 30 14V19C30 19.8284 29.3284 20.5 28.5 20.5H19.5C18.6716 20.5 18 19.8284 18 19V12.5C18 11.6716 18.6716 11 19.5 11H20.7574C21.1552 11 21.5367 11.158 21.818 11.4393L22.4393 12.0607ZM16.5 12.5C16.5 10.8431 17.8431 9.5 19.5 9.5H20.7574C21.553 9.5 22.3161 9.81607 22.8787 10.3787L23.5 11H28.5C30.1569 11 31.5 12.3431 31.5 14V19C31.5 20.6569 30.1569 22 28.5 22H19.5C17.8431 22 16.5 20.6569 16.5 19V12.5ZM26.5303 17.0303C26.8232 16.7374 26.8232 16.2626 26.5303 15.9697C26.2374 15.6768 25.7626 15.6768 25.4697 15.9697L24.75 16.6893V14.5C24.75 14.0858 24.4142 13.75 24 13.75C23.5858 13.75 23.25 14.0858 23.25 14.5V16.6893L22.5303 15.9697C22.2374 15.6768 21.7626 15.6768 21.4697 15.9697C21.1768 16.2626 21.1768 16.7374 21.4697 17.0303L23.4697 19.0303C23.7626 19.3232 24.2374 19.3232 24.5303 19.0303L26.5303 17.0303Z" fill="black"/>
</svg>
