<svg width="48" height="32" viewBox="0 0 48 32" fill="none" xmlns="http://www.w3.org/2000/svg">
<path fill-rule="evenodd" clip-rule="evenodd" d="M22.8787 12.5L22.4393 12.0607L21.818 11.4393C21.5367 11.158 21.1552 11 20.7574 11H19.5C18.6716 11 18 11.6716 18 12.5V19C18 19.8284 18.6716 20.5 19.5 20.5H28.5C29.3284 20.5 30 19.8284 30 19V14C30 13.1716 29.3284 12.5 28.5 12.5H23.5H22.8787ZM19.5 9.5C17.8431 9.5 16.5 10.8431 16.5 12.5V19C16.5 20.6569 17.8431 22 19.5 22H28.5C30.1569 22 31.5 20.6569 31.5 19V14C31.5 12.3431 30.1569 11 28.5 11H23.5L22.8787 10.3787C22.3161 9.81607 21.553 9.5 20.7574 9.5H19.5ZM25 18.5C25 19.0523 24.5523 19.5 24 19.5C23.4477 19.5 23 19.0523 23 18.5C23 17.9477 23.4477 17.5 24 17.5C24.5523 17.5 25 17.9477 25 18.5ZM24.75 14.25C24.75 13.8358 24.4142 13.5 24 13.5C23.5858 13.5 23.25 13.8358 23.25 14.25V15.75C23.25 16.1642 23.5858 16.5 24 16.5C24.4142 16.5 24.75 16.1642 24.75 15.75V14.25Z" fill="black"/>
</svg>
