<svg width="48" height="32" viewBox="0 0 48 32" fill="none" xmlns="http://www.w3.org/2000/svg">
<path fill-rule="evenodd" clip-rule="evenodd" d="M22.8787 12.5L22.4393 12.0607L21.818 11.4393C21.5367 11.158 21.1552 11 20.7574 11H19.5C18.6716 11 18 11.6716 18 12.5V19C18 19.8284 18.6716 20.5 19.5 20.5H28.5C29.3284 20.5 30 19.8284 30 19V14C30 13.1716 29.3284 12.5 28.5 12.5H23.5H22.8787ZM19.5 9.5C17.8431 9.5 16.5 10.8431 16.5 12.5V19C16.5 20.6569 17.8431 22 19.5 22H28.5C30.1569 22 31.5 20.6569 31.5 19V14C31.5 12.3431 30.1569 11 28.5 11H23.5L22.8787 10.3787C22.3161 9.81607 21.553 9.5 20.7574 9.5H19.5ZM25.7171 17.1564C25.8978 16.8106 26 16.4172 26 16C26 14.6193 24.8807 13.5 23.5 13.5C22.1193 13.5 21 14.6193 21 16C21 17.3807 22.1193 18.5 23.5 18.5C23.9172 18.5 24.3106 18.3978 24.6564 18.2171L25.4697 19.0303C25.7626 19.3232 26.2374 19.3232 26.5303 19.0303C26.8232 18.7374 26.8232 18.2626 26.5303 17.9697L25.7171 17.1564ZM23.5 17C22.9477 17 22.5 16.5523 22.5 16C22.5 15.4477 22.9477 15 23.5 15C24.0523 15 24.5 15.4477 24.5 16C24.5 16.5523 24.0523 17 23.5 17Z" fill="black"/>
</svg>
