<svg width="48" height="56" viewBox="0 0 48 56" fill="none" xmlns="http://www.w3.org/2000/svg">
<path fill-rule="evenodd" clip-rule="evenodd" d="M22.4393 12.0607L22.8787 12.5H23.5H28.5C29.3284 12.5 30 13.1716 30 14V19C30 19.8284 29.3284 20.5 28.5 20.5H19.5C18.6716 20.5 18 19.8284 18 19V12.5C18 11.6716 18.6716 11 19.5 11H20.7574C21.1552 11 21.5367 11.158 21.818 11.4393L22.4393 12.0607ZM16.5 12.5C16.5 10.8431 17.8431 9.5 19.5 9.5H20.7574C21.553 9.5 22.3161 9.81607 22.8787 10.3787L23.5 11H28.5C30.1569 11 31.5 12.3431 31.5 14V19C31.5 20.6569 30.1569 22 28.5 22H19.5C17.8431 22 16.5 20.6569 16.5 19V12.5ZM20.75 14.5C20.3358 14.5 20 14.8358 20 15.25C20 15.6642 20.3358 16 20.75 16H27.25C27.6642 16 28 15.6642 28 15.25C28 14.8358 27.6642 14.5 27.25 14.5H20.75Z" fill="black"/>
<path fill-rule="evenodd" clip-rule="evenodd" d="M19.5 33.5C17.8431 33.5 16.5 34.8431 16.5 36.5V43C16.5 44.6569 17.8431 46 19.5 46H28.5C30.1569 46 31.5 44.6569 31.5 43V38C31.5 36.3431 30.1569 35 28.5 35H23.5L22.8787 34.3787C22.3161 33.8161 21.553 33.5 20.7574 33.5H19.5ZM20.75 38.5C20.3358 38.5 20 38.8358 20 39.25C20 39.6642 20.3358 40 20.75 40H27.25C27.6642 40 28 39.6642 28 39.25C28 38.8358 27.6642 38.5 27.25 38.5H20.75Z" fill="black"/>
</svg>
