<svg width="48" height="32" viewBox="0 0 48 32" fill="none" xmlns="http://www.w3.org/2000/svg">
<path fill-rule="evenodd" clip-rule="evenodd" d="M23.5 21.5V20.25V18.5C23.5 18.2239 23.7239 18 24 18H24.6716C24.8042 18 24.9314 18.0527 25.0251 18.1464L25.4393 18.5607L25.8787 19H26.5H29C29.2761 19 29.5 19.2239 29.5 19.5V21.5C29.5 21.7761 29.2761 22 29 22H24C23.7239 22 23.5 21.7761 23.5 21.5ZM22 21H20.5C18.8431 21 17.5 19.6569 17.5 18V10V9.25C17.5 8.83579 17.8358 8.5 18.25 8.5C18.6642 8.5 19 8.83579 19 9.25V10C19 10.8284 19.6716 11.5 20.5 11.5H22V10.5C22 9.39543 22.8954 8.5 24 8.5H24.6716C25.202 8.5 25.7107 8.71071 26.0858 9.08579L26.5 9.5H29C30.1046 9.5 31 10.3954 31 11.5V13.5C31 14.6046 30.1046 15.5 29 15.5H24C22.8954 15.5 22 14.6046 22 13.5V13H20.5C19.9536 13 19.4413 12.8539 19 12.5987V18C19 18.8284 19.6716 19.5 20.5 19.5H22V18.5C22 17.3954 22.8954 16.5 24 16.5H24.6716C25.202 16.5 25.7107 16.7107 26.0858 17.0858L26.5 17.5H29C30.1046 17.5 31 18.3954 31 19.5V21.5C31 22.6046 30.1046 23.5 29 23.5H24C22.8954 23.5 22 22.6046 22 21.5V21ZM23.5 12.25V13.5C23.5 13.7761 23.7239 14 24 14H29C29.2761 14 29.5 13.7761 29.5 13.5V11.5C29.5 11.2239 29.2761 11 29 11H26.5H25.8787L25.4393 10.5607L25.0251 10.1464C24.9314 10.0527 24.8042 10 24.6716 10H24C23.7239 10 23.5 10.2239 23.5 10.5V12.25Z" fill="black"/>
</svg>
