<svg width="48" height="32" viewBox="0 0 48 32" fill="none" xmlns="http://www.w3.org/2000/svg">
<g clip-path="url(#clip0_74_3806)">
<path fill-rule="evenodd" clip-rule="evenodd" d="M20.75 10.25C20.1318 10.25 19.5811 10.6407 19.3769 11.2242L16.0421 20.7522C15.9052 21.1432 16.1112 21.5711 16.5022 21.7079C16.8932 21.8447 17.321 21.6387 17.4579 21.2478L18.5946 18L22.9053 18L24.0421 21.2478C24.1789 21.6387 24.6068 21.8447 24.9977 21.7079C25.3887 21.5711 25.5947 21.1432 25.4579 20.7522L22.123 11.2242C21.9188 10.6407 21.3681 10.25 20.75 10.25ZM22.3803 16.5L20.75 11.8417L19.1196 16.5L22.3803 16.5ZM27.5155 19.4961C27.5143 19.2734 27.7946 18.75 28.6666 18.75H30.3998C30.106 19.7741 29.2217 20.25 28.5 20.25C28.0506 20.25 27.8227 20.1159 27.7082 20.0012C27.5872 19.88 27.5166 19.7045 27.5155 19.4961ZM30.5 20.25V21C30.5 21.4142 30.8357 21.75 31.25 21.75C31.6642 21.75 32 21.4142 32 21L32 18C32 16.8832 31.7208 15.9348 31.1269 15.2561C30.5215 14.5643 29.6743 14.25 28.75 14.25C28.2193 14.25 27.8041 14.3208 27.4444 14.4453C27.1063 14.5623 26.8444 14.7191 26.6403 14.8412L26.6152 14.8562C26.2596 15.0687 26.1437 15.5292 26.3562 15.8848C26.5687 16.2403 27.0292 16.3563 27.3847 16.1438C27.6052 16.012 27.7496 15.927 27.935 15.8628C28.1127 15.8013 28.3585 15.75 28.75 15.75C29.3256 15.75 29.7284 15.9357 29.998 16.2439C30.1891 16.4622 30.3523 16.787 30.4373 17.25H28.6666C27.2053 17.25 26.0088 18.2266 26.0155 19.5039C26.0183 20.0455 26.2062 20.62 26.647 21.0613C27.0943 21.5091 27.7318 21.75 28.5 21.75C29.5 21.75 30.25 21 30.25 20.25H30.5Z" fill="black"/>
</g>
<defs>
<clipPath id="clip0_74_3806">
<rect width="16" height="16" fill="white" transform="translate(16 8)"/>
</clipPath>
</defs>
</svg>
