<svg width="424" height="64" viewBox="0 0 424 64" fill="none" xmlns="http://www.w3.org/2000/svg">
<rect x="0.5" y="0.5" width="423" height="63" rx="4.5" stroke="#9747FF" stroke-dasharray="10 5"/>
<path d="M382 37H384V37.5H383V38.5H384V39H382V40H385V36H382V37ZM383 28H384V24H382V25H383V28ZM382 31H383.8L382 33.1V34H385V33H383.2L385 30.9V30H382V31ZM387 25V27H401V25H387ZM387 39H401V37H387V39ZM387 33H401V31H387V33Z" fill="black" fill-opacity="0.6"/>
<path d="M344 30.5C343.17 30.5 342.5 31.17 342.5 32C342.5 32.83 343.17 33.5 344 33.5C344.83 33.5 345.5 32.83 345.5 32C345.5 31.17 344.83 30.5 344 30.5ZM344 24.5C343.17 24.5 342.5 25.17 342.5 26C342.5 26.83 343.17 27.5 344 27.5C344.83 27.5 345.5 26.83 345.5 26C345.5 25.17 344.83 24.5 344 24.5ZM344 36.5C343.17 36.5 342.5 37.18 342.5 38C342.5 38.82 343.18 39.5 344 39.5C344.82 39.5 345.5 38.82 345.5 38C345.5 37.18 344.83 36.5 344 36.5ZM347 39H361V37H347V39ZM347 33H361V31H347V33ZM347 25V27H361V25H347Z" fill="black" fill-opacity="0.6"/>
<path d="M303 41H321V39H303V41ZM309 37H321V35H309V37ZM303 33H321V31H303V33ZM309 29H321V27H309V29ZM303 23V25H321V23H303Z" fill="black" fill-opacity="0.6"/>
<path d="M275 35H263V37H275V35ZM275 27H263V29H275V27ZM263 33H281V31H263V33ZM263 41H281V39H263V41ZM263 23V25H281V23H263Z" fill="black" fill-opacity="0.6"/>
<path d="M226 35V37H236V35H226ZM222 41H240V39H222V41ZM222 33H240V31H222V33ZM226 27V29H236V27H226ZM222 23V25H240V23H222Z" fill="black" fill-opacity="0.6"/>
<path d="M183 41H201V39H183V41ZM183 37H201V35H183V37ZM183 33H201V31H183V33ZM183 29H201V27H183V29ZM183 23V25H201V23H183Z" fill="black" fill-opacity="0.6"/>
<path d="M140 40H164V44H140V40Z" fill="black" fill-opacity="0.6"/>
<path d="M151 23L145.5 37H147.75L148.87 34H155.12L156.24 37H158.49L153 23H151ZM149.62 32L152 25.67L154.38 32H149.62Z" fill="black" fill-opacity="0.6"/>
<path d="M107.24 29.75C106.98 29.27 106.85 28.72 106.85 28.08C106.85 27.47 106.98 26.92 107.25 26.41C107.51 25.91 107.88 25.48 108.36 25.12C108.84 24.77 109.41 24.49 110.06 24.29C110.72 24.1 111.45 24 112.24 24C113.05 24 113.78 24.11 114.45 24.34C115.11 24.56 115.68 24.88 116.14 25.28C116.61 25.68 116.97 26.16 117.22 26.71C117.47 27.26 117.6 27.86 117.6 28.52H114.59C114.59 28.21 114.54 27.93 114.44 27.67C114.35 27.4 114.2 27.18 114 26.99C113.8 26.8 113.55 26.66 113.25 26.55C112.95 26.45 112.59 26.39 112.19 26.39C111.8 26.39 111.45 26.43 111.16 26.52C110.87 26.61 110.63 26.73 110.44 26.88C110.25 27.04 110.1 27.22 110 27.43C109.9 27.64 109.85 27.86 109.85 28.09C109.85 28.57 110.1 28.97 110.59 29.3C110.97 29.55 111.36 29.78 112 30H107.39C107.34 29.92 107.28 29.83 107.24 29.75ZM121 33V31H103V33H112.62C112.8 33.07 113.02 33.14 113.17 33.2C113.54 33.37 113.83 33.54 114.04 33.71C114.25 33.88 114.39 34.07 114.47 34.28C114.54 34.48 114.58 34.71 114.58 34.97C114.58 35.2 114.53 35.42 114.44 35.63C114.35 35.83 114.21 36.01 114.02 36.16C113.83 36.31 113.6 36.42 113.31 36.51C113.02 36.59 112.68 36.64 112.3 36.64C111.87 36.64 111.47 36.6 111.12 36.51C110.77 36.42 110.46 36.28 110.21 36.09C109.96 35.9 109.76 35.65 109.62 35.34C109.48 35.03 109.37 34.58 109.37 34.13H106.4C106.4 34.68 106.48 35.26 106.64 35.71C106.8 36.16 107.01 36.56 107.29 36.92C107.57 37.27 107.89 37.58 108.27 37.84C108.64 38.1 109.05 38.32 109.49 38.49C109.93 38.66 110.39 38.79 110.87 38.88C111.35 38.96 111.83 39.01 112.31 39.01C113.11 39.01 113.84 38.92 114.49 38.73C115.14 38.54 115.7 38.28 116.16 37.94C116.62 37.6 116.98 37.17 117.23 36.67C117.48 36.17 117.61 35.6 117.61 34.96C117.61 34.36 117.51 33.82 117.3 33.35C117.25 33.24 117.19 33.12 117.13 33.02H121V33Z" fill="black" fill-opacity="0.6"/>
<path d="M70 24V27H72.21L68.79 35H66V38H74V35H71.79L75.21 27H78V24H70Z" fill="black" fill-opacity="0.6"/>
<path d="M35.6 30.79C36.57 30.12 37.25 29.02 37.25 28C37.25 25.74 35.5 24 33.25 24H27V38H34.04C36.13 38 37.75 36.3 37.75 34.21C37.75 32.69 36.89 31.39 35.6 30.79ZM30 26.5H33C33.83 26.5 34.5 27.17 34.5 28C34.5 28.83 33.83 29.5 33 29.5H30V26.5ZM33.5 35.5H30V32.5H33.5C34.33 32.5 35 33.17 35 34C35 34.83 34.33 35.5 33.5 35.5Z" fill="black" fill-opacity="0.6"/>
</svg>
