<svg width="48" height="32" viewBox="0 0 48 32" fill="none" xmlns="http://www.w3.org/2000/svg">
<g clip-path="url(#clip0_74_4234)">
<path fill-rule="evenodd" clip-rule="evenodd" d="M29.25 8.75C29.6642 8.75 30 9.08579 30 9.5V10H30.5C30.9142 10 31.25 10.3358 31.25 10.75C31.25 11.1642 30.9142 11.5 30.5 11.5H30V16.5H30.5C30.9142 16.5 31.25 16.8358 31.25 17.25C31.25 17.6642 30.9142 18 30.5 18H30V18.5C30 18.9142 29.6642 19.25 29.25 19.25C28.8358 19.25 28.5 18.9142 28.5 18.5V18H26V20.5H26.5C26.9142 20.5 27.25 20.8358 27.25 21.25C27.25 21.6642 26.9142 22 26.5 22H26V22.5C26 22.9142 25.6642 23.25 25.25 23.25C24.8358 23.25 24.5 22.9142 24.5 22.5V22H19.5V22.5C19.5 22.9142 19.1642 23.25 18.75 23.25C18.3358 23.25 18 22.9142 18 22.5V22H17.5C17.0858 22 16.75 21.6642 16.75 21.25C16.75 20.8358 17.0858 20.5 17.5 20.5H18L18 15.5H17.5C17.0858 15.5 16.75 15.1642 16.75 14.75C16.75 14.3358 17.0858 14 17.5 14H18V13.5C18 13.0858 18.3358 12.75 18.75 12.75C19.1642 12.75 19.5 13.0858 19.5 13.5V14H22V11.5H21.5C21.0858 11.5 20.75 11.1642 20.75 10.75C20.75 10.3358 21.0858 10 21.5 10H22V9.5C22 9.08579 22.3358 8.75 22.75 8.75C23.1642 8.75 23.5 9.08579 23.5 9.5V10H28.5V9.5C28.5 9.08579 28.8358 8.75 29.25 8.75ZM23.5 14H24.5V13.5C24.5 13.0858 24.8358 12.75 25.25 12.75C25.6642 12.75 26 13.0858 26 13.5V14H26.5C26.9142 14 27.25 14.3358 27.25 14.75C27.25 15.1642 26.9142 15.5 26.5 15.5H26V16.5H28.5V11.5H23.5V14ZM19.5 20.5L19.5 15.5H24.5L24.5 20.5H19.5Z" fill="black"/>
</g>
<defs>
<clipPath id="clip0_74_4234">
<rect width="16" height="16" fill="white" transform="translate(16 8)"/>
</clipPath>
</defs>
</svg>
