<svg width="48" height="32" viewBox="0 0 48 32" fill="none" xmlns="http://www.w3.org/2000/svg">
<path fill-rule="evenodd" clip-rule="evenodd" d="M28.25 9C28.6642 9 29 9.33579 29 9.75V11H30.25C30.6642 11 31 11.3358 31 11.75C31 12.1642 30.6642 12.5 30.25 12.5H29L29 19.5H30.25C30.6642 19.5 31 19.8358 31 20.25C31 20.6642 30.6642 21 30.25 21H29V22.25C29 22.6642 28.6642 23 28.25 23C27.8358 23 27.5 22.6642 27.5 22.25V21H20.5V22.25C20.5 22.6642 20.1642 23 19.75 23C19.3358 23 19 22.6642 19 22.25V21H17.75C17.3358 21 17 20.6642 17 20.25C17 19.8358 17.3358 19.5 17.75 19.5H19L19 12.5H17.75C17.3358 12.5 17 12.1642 17 11.75C17 11.3358 17.3358 11 17.75 11H19L19 9.75C19 9.33579 19.3358 9 19.75 9C20.1642 9 20.5 9.33579 20.5 9.75V11H27.5V9.75C27.5 9.33579 27.8358 9 28.25 9ZM20.5 12.5L20.5 19.5H27.5L27.5 12.5H20.5Z" fill="black"/>
</svg>
