<svg width="48" height="32" viewBox="0 0 48 32" fill="none" xmlns="http://www.w3.org/2000/svg">
<g clip-path="url(#clip0_74_4755)">
<path fill-rule="evenodd" clip-rule="evenodd" d="M20.3116 12.2906C20.3565 11.752 20.9311 11.4291 21.4145 11.6708C21.785 11.856 22.2355 11.7059 22.4207 11.3354C22.606 10.9649 22.4558 10.5144 22.0853 10.3291C20.6528 9.61288 18.9498 10.5699 18.8168 12.166L18.7057 13.5H17.7499C17.3357 13.5 16.9999 13.8358 16.9999 14.25C16.9999 14.6642 17.3357 15 17.7499 15H18.5807L18.1882 19.7093C18.1433 20.2479 17.5687 20.5708 17.0853 20.3291C16.7148 20.1439 16.2643 20.2941 16.0791 20.6646C15.8939 21.035 16.044 21.4855 16.4145 21.6708C17.847 22.3871 19.55 21.43 19.683 19.8339L20.0859 15H21.2499C21.6641 15 21.9999 14.6642 21.9999 14.25C21.9999 13.8358 21.6641 13.5 21.2499 13.5H20.2109L20.3116 12.2906ZM26.3261 14.5198C26.0609 14.2016 25.588 14.1586 25.2698 14.4238C24.9516 14.689 24.9086 15.1619 25.1737 15.4801L26.0236 16.5L25.1737 17.5199C24.9086 17.8381 24.9516 18.311 25.2698 18.5762C25.588 18.8414 26.0609 18.7984 26.3261 18.4802L26.9999 17.6715L27.6737 18.4801C27.9389 18.7983 28.4118 18.8413 28.73 18.5761C29.0483 18.311 29.0912 17.838 28.8261 17.5198L27.9762 16.5L28.8261 15.4802C29.0912 15.162 29.0483 14.689 28.73 14.4239C28.4118 14.1587 27.9389 14.2017 27.6737 14.5199L26.9999 15.3285L26.3261 14.5198ZM24.0196 12.5498C24.4062 12.6985 24.5991 13.1324 24.4504 13.519L24.3049 13.8972C23.6606 15.5724 23.6606 17.4271 24.3049 19.1024L24.4504 19.4805C24.5991 19.8671 24.4062 20.3011 24.0196 20.4498C23.633 20.5985 23.199 20.4056 23.0503 20.019L22.9049 19.6408C22.1273 17.619 22.1273 15.3806 22.9049 13.3587L23.0503 12.9805C23.199 12.5939 23.633 12.4011 24.0196 12.5498ZM29.9811 12.5498C30.3677 12.4011 30.8016 12.594 30.9503 12.9806L31.0958 13.3587C31.8734 15.3806 31.8734 17.619 31.0958 19.6409L30.9503 20.0191C30.8016 20.4057 30.3677 20.5985 29.9811 20.4498C29.5945 20.3011 29.4016 19.8672 29.5503 19.4806L29.6957 19.1024C30.3401 17.4272 30.3401 15.5725 29.6957 13.8972L29.5503 13.5191C29.4016 13.1324 29.5945 12.6985 29.9811 12.5498Z" fill="black"/>
</g>
<defs>
<clipPath id="clip0_74_4755">
<rect width="16" height="16" fill="white" transform="translate(16 8)"/>
</clipPath>
</defs>
</svg>
