<svg width="48" height="32" viewBox="0 0 48 32" fill="none" xmlns="http://www.w3.org/2000/svg">
<path fill-rule="evenodd" clip-rule="evenodd" d="M28.5 12C28.5 12.1743 28.4288 12.5129 27.6152 12.8875C26.7988 13.2635 25.5378 13.5 24 13.5C22.4622 13.5 21.2012 13.2635 20.3848 12.8875C19.5712 12.5129 19.5 12.1743 19.5 12C19.5 11.8257 19.5712 11.4871 20.3848 11.1125C21.2012 10.7365 22.4622 10.5 24 10.5C25.5378 10.5 26.7988 10.7365 27.6152 11.1125C28.4288 11.4871 28.5 11.8257 28.5 12ZM27.0523 14.6606C26.158 14.8869 25.1145 15 24 15C22.8855 15 21.842 14.8869 20.9477 14.6606L22.9279 17.5648C23.1377 17.8726 23.25 18.2366 23.25 18.6091V21.9791C23.3097 21.9909 23.3912 22 23.5 22C23.9224 22 24.249 21.8593 24.4497 21.6836C24.6349 21.5216 24.75 21.3034 24.75 21V18.6091C24.75 18.2366 24.8623 17.8726 25.0721 17.5648L27.0523 14.6606ZM24 9C27.3137 9 30 10 30 12C30 12.6515 29.8037 13.2879 29.4367 13.8262L26.3115 18.4098C26.2714 18.4686 26.25 18.538 26.25 18.6091V21C26.25 22.5 25 23.5 23.5 23.5C22 23.5 21.75 22.5 21.75 22.5V18.6091C21.75 18.538 21.7286 18.4686 21.6885 18.4098L18.5633 13.8262C18.1963 13.2879 18 12.6515 18 12C18 10 20.6863 9 24 9ZM23.1202 21.9364C23.1105 21.9308 23.1065 21.927 23.1069 21.9265C23.1073 21.926 23.1122 21.9289 23.1202 21.9364Z" fill="black"/>
</svg>
