<svg width="48" height="32" viewBox="0 0 48 32" fill="none" xmlns="http://www.w3.org/2000/svg">
<path fill-rule="evenodd" clip-rule="evenodd" d="M23.1988 10.0001H24.8013C24.911 10.0001 25 10.0891 25 10.1988C25 12.0073 26.9577 13.1377 28.524 12.2335C28.619 12.1786 28.7405 12.2111 28.7954 12.3062L29.5967 13.6941C29.6516 13.7891 29.619 13.9106 29.524 13.9655C27.9577 14.8698 27.9577 17.1305 29.524 18.0347C29.619 18.0896 29.6516 18.2112 29.5967 18.3062L28.7954 19.6941C28.7405 19.7891 28.619 19.8217 28.524 19.7668C26.9578 18.8626 25 19.9929 25 21.8014C25 21.9112 24.911 22.0001 24.8013 22.0001H23.1987C23.089 22.0001 23 21.9111 23 21.8014C23 19.9928 21.0421 18.8625 19.4759 19.7668C19.3808 19.8217 19.2593 19.7891 19.2044 19.694L18.4031 18.3062C18.3483 18.2112 18.3808 18.0896 18.4759 18.0347C20.0421 17.1305 20.0421 14.8698 18.4759 13.9655C18.3808 13.9106 18.3483 13.7891 18.4031 13.6941L19.2044 12.3063C19.2593 12.2112 19.3808 12.1786 19.4759 12.2335C21.0422 13.1378 23 12.0074 23 10.1989C23 10.0891 23.089 10.0001 23.1988 10.0001ZM21.5 10.1989C21.5 9.26067 22.2606 8.50011 23.1988 8.50011H24.8013C25.7394 8.50011 26.5 9.26067 26.5 10.1988C26.5 10.8527 27.2078 11.2613 27.774 10.9344C28.5865 10.4653 29.6254 10.7437 30.0944 11.5562L30.8957 12.9441C31.3648 13.7565 31.0865 14.7955 30.274 15.2646C29.7077 15.5915 29.7077 16.4088 30.274 16.7357C31.0865 17.2048 31.3648 18.2437 30.8957 19.0562L30.0944 20.4441C29.6254 21.2566 28.5865 21.5349 27.774 21.0659C27.2078 20.7389 26.5 21.1476 26.5 21.8014C26.5 22.7396 25.7395 23.5001 24.8013 23.5001H23.1987C22.2605 23.5001 21.5 22.7396 21.5 21.8014C21.5 21.1475 20.7922 20.7389 20.2259 21.0658C19.4134 21.5349 18.3744 21.2565 17.9053 20.444L17.1041 19.0562C16.635 18.2437 16.9134 17.2048 17.7259 16.7357C18.2921 16.4088 18.2921 15.5915 17.7259 15.2646C16.9134 14.7955 16.635 13.7565 17.1041 12.9441L17.9053 11.5563C18.3744 10.7437 19.4134 10.4654 20.2259 10.9345C20.7922 11.2614 21.5 10.8527 21.5 10.1989ZM25.5 16.0001C25.5 16.8285 24.8284 17.5001 24 17.5001C23.1715 17.5001 22.5 16.8285 22.5 16.0001C22.5 15.1717 23.1715 14.5001 24 14.5001C24.8284 14.5001 25.5 15.1717 25.5 16.0001ZM27 16.0001C27 17.657 25.6568 19.0001 24 19.0001C22.3431 19.0001 21 17.657 21 16.0001C21 14.3433 22.3431 13.0001 24 13.0001C25.6568 13.0001 27 14.3433 27 16.0001Z" fill="black"/>
</svg>
