<svg width="48" height="32" viewBox="0 0 48 32" fill="none" xmlns="http://www.w3.org/2000/svg">
<path fill-rule="evenodd" clip-rule="evenodd" d="M23.1988 10H24.8013C24.911 10 25 10.089 25 10.1987C25 12.0072 26.9577 13.1376 28.524 12.2333C28.619 12.1785 28.7405 12.211 28.7954 12.3061L29.5967 13.6939C29.6516 13.789 29.619 13.9105 29.524 13.9654C27.9577 14.8697 27.9577 17.1304 29.524 18.0346C29.619 18.0895 29.6516 18.2111 29.5967 18.3061L28.7954 19.694C28.7405 19.789 28.619 19.8216 28.524 19.7667C26.9578 18.8624 25 19.9928 25 21.8013C25 21.911 24.911 22 24.8013 22H23.1987C23.089 22 23 21.911 23 21.8013C23 19.9927 21.0421 18.8624 19.4759 19.7667C19.3808 19.8216 19.2593 19.789 19.2044 19.6939L18.4031 18.3061C18.3483 18.2111 18.3808 18.0895 18.4759 18.0346C20.0421 17.1304 20.0421 14.8697 18.4759 13.9654C18.3808 13.9105 18.3483 13.789 18.4031 13.6939L19.2044 12.3061C19.2593 12.2111 19.3808 12.1785 19.4759 12.2334C21.0422 13.1377 23 12.0073 23 10.1988C23 10.089 23.089 10 23.1988 10ZM21.5 10.1988C21.5 9.26056 22.2606 8.5 23.1988 8.5H24.8013C25.7394 8.5 26.5 9.26056 26.5 10.1987C26.5 10.8526 27.2078 11.2612 27.774 10.9343C28.5865 10.4652 29.6254 10.7436 30.0944 11.5561L30.8957 12.9439C31.3648 13.7564 31.0865 14.7954 30.274 15.2645C29.7077 15.5914 29.7077 16.4087 30.274 16.7356C31.0865 17.2047 31.3648 18.2436 30.8957 19.0561L30.0944 20.444C29.6254 21.2565 28.5865 21.5348 27.774 21.0657C27.2078 20.7388 26.5 21.1475 26.5 21.8013C26.5 22.7395 25.7395 23.5 24.8013 23.5H23.1987C22.2605 23.5 21.5 22.7394 21.5 21.8013C21.5 21.1474 20.7922 20.7388 20.2259 21.0657C19.4134 21.5348 18.3744 21.2564 17.9053 20.4439L17.1041 19.0561C16.635 18.2436 16.9134 17.2047 17.7259 16.7356C18.2921 16.4087 18.2921 15.5914 17.7259 15.2645C16.9134 14.7954 16.635 13.7564 17.1041 12.9439L17.9053 11.5561C18.3744 10.7436 19.4134 10.4652 20.2259 10.9344C20.7922 11.2613 21.5 10.8526 21.5 10.1988ZM26.5 16.866C27.1667 16.4811 27.1667 15.5189 26.5 15.134L23.5 13.4019C22.8333 13.017 22 13.4981 22 14.2679L22 17.7321C22 18.5019 22.8333 18.983 23.5 18.5981L26.5 16.866Z" fill="black"/>
</svg>
