<svg width="48" height="32" viewBox="0 0 48 32" fill="none" xmlns="http://www.w3.org/2000/svg">
<path fill-rule="evenodd" clip-rule="evenodd" d="M23.1988 10C23.089 10 23 10.089 23 10.1988C23 12.0073 21.0422 13.1377 19.4759 12.2334C19.3808 12.1785 19.2593 12.2111 19.2044 12.3061L18.4031 13.6939C18.3483 13.789 18.3808 13.9105 18.4759 13.9654C20.0421 14.8697 20.0421 17.1304 18.4759 18.0346C18.3808 18.0895 18.3483 18.2111 18.4031 18.3061L19.2044 19.6939C19.2593 19.789 19.3808 19.8216 19.4759 19.7667C21.0421 18.8624 23 19.9927 23 21.8013C23 21.911 23.089 22 23.1987 22H24.8013C24.911 22 25 21.911 25 21.8013C25 19.9928 26.9578 18.8624 28.524 19.7667C28.619 19.8216 28.7405 19.789 28.7954 19.694L29.5967 18.3061C29.6516 18.2111 29.619 18.0895 29.524 18.0346C28.221 17.2823 28.0076 15.6012 28.8589 14.5352C29.1174 14.2115 29.5893 14.1587 29.913 14.4172C30.2366 14.6757 30.2895 15.1476 30.031 15.4713C29.7204 15.8601 29.8097 16.4676 30.274 16.7356C31.0865 17.2047 31.3648 18.2436 30.8957 19.0561L30.0944 20.444C29.6254 21.2565 28.5865 21.5348 27.774 21.0657C27.2078 20.7388 26.5 21.1475 26.5 21.8013C26.5 22.7395 25.7395 23.5 24.8013 23.5H23.1987C22.2605 23.5 21.5 22.7394 21.5 21.8013C21.5 21.1474 20.7922 20.7388 20.2259 21.0657C19.4134 21.5348 18.3744 21.2564 17.9053 20.4439L17.1041 19.0561C16.635 18.2436 16.9134 17.2047 17.7259 16.7356C18.2921 16.4087 18.2921 15.5914 17.7259 15.2645C16.9134 14.7954 16.635 13.7564 17.1041 12.9439L17.9053 11.5561C18.3744 10.7436 19.4134 10.4652 20.2259 10.9344C20.7922 11.2613 21.5 10.8526 21.5 10.1988C21.5 9.26056 22.2606 8.5 23.1988 8.5H25.3013C25.7155 8.5 26.0513 8.83579 26.0513 9.25C26.0513 9.66421 25.7155 10 25.3013 10H23.1988ZM23.9999 17.5C24.8283 17.5 25.4999 16.8284 25.4999 16C25.4999 15.1716 24.8283 14.5 23.9999 14.5C23.1715 14.5 22.4999 15.1716 22.4999 16C22.4999 16.8284 23.1715 17.5 23.9999 17.5ZM23.9999 19C25.6567 19 26.9999 17.6569 26.9999 16C26.9999 14.3431 25.6567 13 23.9999 13C22.343 13 20.9999 14.3431 20.9999 16C20.9999 17.6569 22.343 19 23.9999 19Z" fill="black"/>
<path fill-rule="evenodd" clip-rule="evenodd" d="M28.5 13.5C29.6046 13.5 30.5 12.6046 30.5 11.5C30.5 10.3954 29.6046 9.5 28.5 9.5C27.3954 9.5 26.5 10.3954 26.5 11.5C26.5 12.6046 27.3954 13.5 28.5 13.5Z" fill="#FF3333"/>
</svg>
