<svg width="48" height="32" viewBox="0 0 48 32" fill="none" xmlns="http://www.w3.org/2000/svg">
<g clip-path="url(#clip0_74_5220)">
<path fill-rule="evenodd" clip-rule="evenodd" d="M23.2955 10C23.179 10 23.078 10.0804 23.0519 10.1938L22.9207 10.7622C22.5867 12.2095 21.0106 12.9878 19.6584 12.3732L19.536 12.3175C19.4167 12.2633 19.2758 12.3104 19.2131 12.4254L18.5167 13.7023C18.4635 13.7996 18.4809 13.9203 18.5594 13.9987L19.5303 14.9697C19.8232 15.2626 19.8232 15.7374 19.5303 16.0303C19.2374 16.3232 18.7625 16.3232 18.4696 16.0303L17.4987 15.0594C16.9498 14.5105 16.8281 13.6655 17.1998 12.984L17.8963 11.7071C18.3354 10.902 19.3218 10.5725 20.1567 10.952L20.2791 11.0076C20.7682 11.2299 21.3383 10.9484 21.4591 10.4249L21.5903 9.8565C21.7735 9.06247 22.4806 8.5 23.2955 8.5H24.7044C25.5193 8.5 26.2264 9.06247 26.4096 9.8565L26.5408 10.4249C26.6616 10.9484 27.2317 11.2299 27.7208 11.0076L27.8431 10.952C28.6781 10.5725 29.6644 10.902 30.1036 11.7071L30.8001 12.984C31.1718 13.6655 31.0501 14.5105 30.5012 15.0594L29.5303 16.0303C29.2374 16.3232 28.7625 16.3232 28.4696 16.0303C28.1767 15.7374 28.1767 15.2626 28.4696 14.9697L29.4405 13.9988C29.5189 13.9203 29.5363 13.7996 29.4832 13.7023L28.7868 12.4254C28.724 12.3104 28.5831 12.2633 28.4638 12.3175L28.3415 12.3732C26.9893 12.9878 25.4132 12.2095 25.0792 10.7622L24.948 10.1938C24.9219 10.0804 24.8208 10 24.7044 10H23.2955ZM19.2499 20C19.6642 20 19.9999 19.6642 19.9999 19.25C19.9999 18.8358 19.6642 18.5 19.2499 18.5C18.8357 18.5 18.4999 18.8358 18.4999 19.25C18.4999 19.6642 18.8357 20 19.2499 20ZM19.2499 21.5C20.4926 21.5 21.4999 20.4926 21.4999 19.25C21.4999 18.8617 21.4016 18.4964 21.2285 18.1777L21.7808 17.7358C22.0773 17.4986 22.2499 17.1394 22.2499 16.7597V15.75C22.2499 15.3358 21.9142 15 21.4999 15C21.0857 15 20.7499 15.3358 20.7499 15.75V16.6395L20.0945 17.1639C19.8337 17.0582 19.5486 17 19.2499 17C18.0073 17 16.9999 18.0074 16.9999 19.25C16.9999 20.4926 18.0073 21.5 19.2499 21.5ZM24.7499 21.25C24.7499 21.6642 24.4142 22 23.9999 22C23.5857 22 23.2499 21.6642 23.2499 21.25C23.2499 20.8358 23.5857 20.5 23.9999 20.5C24.4142 20.5 24.7499 20.8358 24.7499 21.25ZM26.2499 21.25C26.2499 22.4926 25.2426 23.5 23.9999 23.5C22.7573 23.5 21.7499 22.4926 21.7499 21.25C21.7499 20.2703 22.376 19.4369 23.2499 19.128V15.7543C23.2499 15.3401 23.5857 15.0043 23.9999 15.0043C24.4142 15.0043 24.7499 15.3401 24.7499 15.7543V19.128C25.6238 19.4369 26.2499 20.2703 26.2499 21.25ZM28.7499 20C29.1642 20 29.4999 19.6642 29.4999 19.25C29.4999 18.8358 29.1642 18.5 28.7499 18.5C28.3357 18.5 27.9999 18.8358 27.9999 19.25C27.9999 19.6642 28.3357 20 28.7499 20ZM28.7499 21.5C29.9926 21.5 30.9999 20.4926 30.9999 19.25C30.9999 18.0074 29.9926 17 28.7499 17C28.4701 17 28.2022 17.0511 27.955 17.1444L27.4999 16.6893V15.75C27.4999 15.3358 27.1642 15 26.7499 15C26.3357 15 25.9999 15.3358 25.9999 15.75V16.7929C25.9999 17.1244 26.1316 17.4424 26.3661 17.6768L26.8059 18.1166C26.6114 18.4494 26.4999 18.8367 26.4999 19.25C26.4999 20.4926 27.5073 21.5 28.7499 21.5Z" fill="black"/>
</g>
<defs>
<clipPath id="clip0_74_5220">
<rect width="16" height="16" fill="white" transform="translate(16 8)"/>
</clipPath>
</defs>
</svg>
