<svg width="48" height="32" viewBox="0 0 48 32" fill="none" xmlns="http://www.w3.org/2000/svg">
<path fill-rule="evenodd" clip-rule="evenodd" d="M20.5 11H26.2928L23.7699 14.9646L19.0902 11.9866C19.2998 11.411 19.8519 11 20.5 11ZM27.5 21H21.7072L24.6327 16.4027L28.0134 11.0902C28.589 11.2998 29 11.8519 29 12.5V19.5C29 20.3284 28.3284 21 27.5 21ZM20.5 9.5C18.8431 9.5 17.5 10.8431 17.5 12.5V19.5C17.5 21.1569 18.8431 22.5 20.5 22.5H27.5C29.1569 22.5 30.5 21.1569 30.5 19.5V12.5C30.5 10.8431 29.1569 9.5 27.5 9.5H20.5Z" fill="black"/>
</svg>
