<svg width="48" height="32" viewBox="0 0 48 32" fill="none" xmlns="http://www.w3.org/2000/svg">
<path fill-rule="evenodd" clip-rule="evenodd" d="M26.2928 11H20.5C19.8519 11 19.2998 11.411 19.0902 11.9866L23.0001 14.4747C23.0137 13.1057 24.1277 12 25.5 12C25.5516 12 25.6027 12.0016 25.6535 12.0046L26.2928 11ZM24.4111 16.751C24.7402 16.9105 25.1097 17 25.5 17C26.8807 17 28 15.8807 28 14.5C28 13.7175 27.6405 13.019 27.0777 12.5606L28.0134 11.0902C28.589 11.2998 29 11.8519 29 12.5V19.5C29 20.3284 28.3284 21 27.5 21H21.7072L24.4111 16.751ZM19 13.7072V19.5C19 20.1481 19.411 20.7002 19.9866 20.9098L20.95 19.3959C20.3937 19.1766 20 18.6343 20 18C20 17.1716 20.6716 16.5 21.5 16.5C21.8995 16.5 22.2626 16.6562 22.5314 16.9108L22.9646 16.2301L19 13.7072ZM17.5 12.5C17.5 10.8431 18.8431 9.5 20.5 9.5H27.5C29.1569 9.5 30.5 10.8431 30.5 12.5V19.5C30.5 21.1569 29.1569 22.5 27.5 22.5H20.5C18.8431 22.5 17.5 21.1569 17.5 19.5V12.5Z" fill="black"/>
</svg>
