<svg width="48" height="32" viewBox="0 0 48 32" fill="none" xmlns="http://www.w3.org/2000/svg">
<path fill-rule="evenodd" clip-rule="evenodd" d="M26.2929 11H20.5C19.8519 11 19.2998 11.411 19.0901 11.9867L23.0001 14.4748C23.0136 13.1057 24.1277 12 25.5 12C25.5516 12 25.6028 12.0016 25.6536 12.0046L26.2929 11ZM27.0777 12.5606C27.6405 13.019 28 13.7175 28 14.5C28 15.6225 27.2603 16.5721 26.2417 16.8881C26.2472 16.9246 26.25 16.962 26.25 17V19C26.25 19.4142 25.9142 19.75 25.5 19.75C25.0858 19.75 24.75 19.4142 24.75 19V17C24.75 16.962 24.7528 16.9246 24.7583 16.8881C24.6384 16.851 24.5225 16.805 24.4111 16.751L21.7072 21H27.5C28.3284 21 29 20.3284 29 19.5V12.5C29 11.8519 28.589 11.2998 28.0134 11.0902L27.0777 12.5606ZM19.9866 20.9098L22.9646 16.2302L19 13.7073V19.5C19 20.1481 19.411 20.7002 19.9866 20.9098ZM17.5 12.5C17.5 10.8431 18.8431 9.5 20.5 9.5H27.5C29.1569 9.5 30.5 10.8431 30.5 12.5V19.5C30.5 21.1569 29.1569 22.5 27.5 22.5H20.5C18.8431 22.5 17.5 21.1569 17.5 19.5V12.5ZM26.5 14.5C26.5 15.0523 26.0523 15.5 25.5 15.5C24.9477 15.5 24.5 15.0523 24.5 14.5C24.5 13.9477 24.9477 13.5 25.5 13.5C26.0523 13.5 26.5 13.9477 26.5 14.5Z" fill="black"/>
</svg>
