<svg width="48" height="56" viewBox="0 0 48 56" fill="none" xmlns="http://www.w3.org/2000/svg">
<path fill-rule="evenodd" clip-rule="evenodd" d="M26.2928 11H20.5C19.8519 11 19.2998 11.411 19.0902 11.9866L23.7699 14.9646L26.2928 11ZM19 13.7072V19.5C19 20.1481 19.411 20.7002 19.9866 20.9098L22.9646 16.2301L19 13.7072ZM21.7072 21H27.5C28.3284 21 29 20.3284 29 19.5V12.5C29 11.8519 28.589 11.2998 28.0134 11.0902L24.6327 16.4027L21.7072 21ZM17.5 12.5C17.5 10.8431 18.8431 9.5 20.5 9.5H27.5C29.1569 9.5 30.5 10.8431 30.5 12.5V19.5C30.5 21.1569 29.1569 22.5 27.5 22.5H20.5C18.8431 22.5 17.5 21.1569 17.5 19.5V12.5Z" fill="black"/>
<path fill-rule="evenodd" clip-rule="evenodd" d="M27.2474 33.5H20.5C19.3201 33.5 18.2994 34.1811 17.8094 35.1716L23.7699 38.9646L27.2474 33.5ZM17.5 36.7526V43.5C17.5 44.6799 18.1811 45.7006 19.1716 46.1906L22.9646 40.2301L17.5 36.7526ZM20.7526 46.5H27.5C29.1569 46.5 30.5 45.1569 30.5 43.5V36.5C30.5 35.3202 29.8189 34.2994 28.8285 33.8094L24.6328 40.4027L20.7526 46.5Z" fill="black"/>
</svg>
