<svg width="48" height="32" viewBox="0 0 48 32" fill="none" xmlns="http://www.w3.org/2000/svg">
<path fill-rule="evenodd" clip-rule="evenodd" d="M29.2765 19.702L29.5 20V16C29.5 12.9624 27.0376 10.5 24 10.5C20.9624 10.5 18.5 12.9624 18.5 16V20.5474L20.456 18.9174C20.7797 18.6477 21.1877 18.5 21.609 18.5C22.1435 18.5 22.6504 18.7374 22.9926 19.148L24.9284 21.471C24.9437 21.4894 24.9664 21.5 24.9903 21.5C25.0148 21.5 25.038 21.4889 25.0533 21.4697L26.5022 19.6586C26.8352 19.2423 27.3394 19 27.8725 19C28.4249 19 28.9451 19.2601 29.2765 19.702ZM26.2246 22.4068L26.9113 21.5484L26.9122 21.5473L27.0563 21.3671L27.6735 20.5957C27.7218 20.5352 27.7951 20.5 27.8725 20.5C27.9528 20.5 28.0283 20.5378 28.0765 20.602L28.6692 21.3923L28.8077 21.5769L28.8085 21.578L29.2 22.1C29.3889 22.3518 29.6852 22.5 30 22.5C30.5523 22.5 31 22.0523 31 21.5V16C31 12.134 27.866 9 24 9C20.134 9 17 12.134 17 16V21.3987C17 22.0069 17.4931 22.5 18.1013 22.5C18.3589 22.5 18.6084 22.4097 18.8063 22.2447L21.4163 20.0698C21.4704 20.0247 21.5386 20 21.609 20C21.6983 20 21.7831 20.0397 21.8403 20.1083L23.7761 22.4313C24.0764 22.7916 24.5212 23 24.9903 23C25.4705 23 25.9246 22.7817 26.2246 22.4068ZM23 16C23.4142 16 23.75 15.6642 23.75 15.25V14.25C23.75 13.8358 23.4142 13.5 23 13.5C22.5858 13.5 22.25 13.8358 22.25 14.25V15.25C22.25 15.6642 22.5858 16 23 16ZM27 16C27.4142 16 27.75 15.6642 27.75 15.25V14.25C27.75 13.8358 27.4142 13.5 27 13.5C26.5858 13.5 26.25 13.8358 26.25 14.25V15.25C26.25 15.6642 26.5858 16 27 16Z" fill="black"/>
</svg>
