<svg width="48" height="32" viewBox="0 0 48 32" fill="none" xmlns="http://www.w3.org/2000/svg">
<path fill-rule="evenodd" clip-rule="evenodd" d="M25.0348 11.8634L25.2171 10.5866C25.2766 10.1701 25.614 9.84609 26.0348 9.80401C26.6326 9.74423 27.1236 10.2662 27.0306 10.8554C26.9709 11.2332 26.6823 11.5338 26.3073 11.6089L25.0348 11.8634ZM23.25 13.5V13.75V15.5H19.5L19 15.5C18.7239 15.5 18.5 15.2762 18.5 15V14C18.5 13.7239 18.7239 13.5 19 13.5L23.25 13.5ZM24 9.56454C23.6262 8.87603 22.9291 8.39292 22.1145 8.31146C20.5408 8.15409 19.2411 9.52718 19.4878 11.0894C19.54 11.42 19.6586 11.7283 19.83 12H19C17.8954 12 17 12.8954 17 14V15C17 15.7403 17.4022 16.3866 18 16.7324V17V20C18 21.6569 19.3431 23 21 23H27C28.6569 23 30 21.6569 30 20V17V16.7324C30.5978 16.3866 31 15.7403 31 15V14C31 12.8954 30.1046 12 29 12H28.17C28.3414 11.7283 28.46 11.42 28.5122 11.0894C28.7589 9.52718 27.4592 8.15409 25.8855 8.31146C25.0709 8.39292 24.3738 8.87603 24 9.56454ZM24.75 13.75V15.5H28.5L29 15.5C29.2761 15.5 29.5 15.2762 29.5 15V14C29.5 13.7239 29.2761 13.5 29 13.5L24.75 13.5V13.75ZM23.25 17H19.5V20C19.5 20.8284 20.1716 21.5 21 21.5H23.25V17ZM24.75 21.5V17H28.5V20C28.5 20.8284 27.8284 21.5 27 21.5H24.75ZM22.7829 10.5866L22.9652 11.8634L21.6927 11.6089C21.3177 11.5338 21.0291 11.2332 20.9694 10.8554C20.8764 10.2662 21.3674 9.74423 21.9652 9.80401C22.386 9.84609 22.7234 10.1701 22.7829 10.5866Z" fill="black"/>
</svg>
