<svg width="48" height="32" viewBox="0 0 48 32" fill="none" xmlns="http://www.w3.org/2000/svg">
<path fill-rule="evenodd" clip-rule="evenodd" d="M25.2078 20.3458C24.723 21.3463 24.2549 21.5 24 21.5C23.7451 21.5 23.277 21.3463 22.7922 20.3458C22.4199 19.5776 22.1449 18.4877 22.0431 17.1586C22.6763 17.2186 23.331 17.25 24 17.25C24.669 17.25 25.3237 17.2186 25.9569 17.1586C25.8551 18.4877 25.5801 19.5776 25.2078 20.3458ZM25.9961 15.6473C25.358 15.7142 24.6897 15.75 24 15.75C23.3103 15.75 22.642 15.7142 22.0039 15.6473C22.0412 13.9505 22.3471 12.5725 22.7922 11.6542C23.277 10.6537 23.7451 10.5 24 10.5C24.2549 10.5 24.723 10.6537 25.2078 11.6542C25.6529 12.5725 25.9588 13.9505 25.9961 15.6473ZM27.4737 16.9535C27.3885 18.4685 27.0989 19.8012 26.6384 20.8271C28.216 19.9629 29.3237 18.3479 29.4808 16.4629C28.8595 16.6617 28.1863 16.8267 27.4737 16.9535ZM29.3919 14.9095C28.8199 15.1145 28.1813 15.2886 27.4905 15.4243C27.435 13.753 27.1368 12.2833 26.6384 11.1729C28.0378 11.9395 29.0675 13.2969 29.3919 14.9095ZM20.5095 15.4243C20.565 13.753 20.8632 12.2833 21.3616 11.1729C19.9622 11.9395 18.9325 13.2969 18.6081 14.9095C19.1801 15.1145 19.8187 15.2886 20.5095 15.4243ZM18.5192 16.4629C18.6763 18.3479 19.784 19.9629 21.3616 20.8271C20.9011 19.8012 20.6115 18.4685 20.5263 16.9535C19.8137 16.8267 19.1405 16.6617 18.5192 16.4629ZM31 16C31 12.134 27.866 9 24 9C20.134 9 17 12.134 17 16C17 19.866 20.134 23 24 23C27.866 23 31 19.866 31 16Z" fill="black"/>
</svg>
