<svg width="48" height="32" viewBox="0 0 48 32" fill="none" xmlns="http://www.w3.org/2000/svg">
<path fill-rule="evenodd" clip-rule="evenodd" d="M22.8362 11.2021L17.7398 13.3863C17.5943 13.4487 17.5 13.5917 17.5 13.75C17.5 13.9083 17.5943 14.0513 17.7398 14.1137L22.8362 16.2979C23.1474 16.4312 23.4825 16.5 23.821 16.5H24.179C24.5175 16.5 24.8526 16.4312 25.1638 16.2979L30.2602 14.1137C30.4057 14.0513 30.5 13.9083 30.5 13.75C30.5 13.5917 30.4057 13.4487 30.2602 13.3863L25.1638 11.2021C24.8526 11.0688 24.5175 11 24.179 11H23.821C23.4825 11 23.1474 11.0688 22.8362 11.2021ZM17.5 15.6429L18.9999 16.2857V19.5139C18.9999 20.2714 19.428 20.9639 20.1055 21.3027L20.9119 21.7059C22.8587 22.6793 25.1475 22.6917 27.1047 21.7394L28.0136 21.2973C28.7018 20.9624 29.1386 20.2642 29.1386 19.4988V16.2263L30.8511 15.4924C31.5481 15.1937 32 14.5083 32 13.75C32 12.9917 31.5481 12.3063 30.8511 12.0076L25.7546 9.82342C25.2567 9.61003 24.7207 9.5 24.179 9.5H23.821C23.2793 9.5 22.7433 9.61003 22.2454 9.82342L17.1489 12.0076C16.4519 12.3063 16 12.9917 16 13.75V18.25C16 18.6642 16.3358 19 16.75 19C17.1642 19 17.5 18.6642 17.5 18.25V15.6429ZM20.4999 19.5139V16.9285L22.2454 17.6766C22.7433 17.89 23.2793 18 23.821 18H24.179C24.7207 18 25.2567 17.89 25.7546 17.6766L27.6386 16.8692V19.4988C27.6386 19.6902 27.5294 19.8647 27.3573 19.9484L26.4485 20.3906C24.9107 21.1388 23.1123 21.129 21.5827 20.3642L20.7763 19.9611C20.6069 19.8764 20.4999 19.7032 20.4999 19.5139Z" fill="black"/>
</svg>
