<svg width="48" height="32" viewBox="0 0 48 32" fill="none" xmlns="http://www.w3.org/2000/svg">
<path fill-rule="evenodd" clip-rule="evenodd" d="M21.75 10.5H26.25C26.7842 10.5 27.2532 10.7793 27.519 11.1998C26.6259 11.5812 26 12.4675 26 13.5C26 14.6194 26.7357 15.567 27.75 15.8855V20C27.75 20.8284 27.0784 21.5 26.25 21.5H21.75C21.2158 21.5 20.7468 21.2207 20.481 20.8002C21.3741 20.4188 22 19.5325 22 18.5C22 17.3806 21.2643 16.433 20.25 16.1145V15.8855C21.2643 15.567 22 14.6194 22 13.5C22 12.4675 21.3741 11.5812 20.481 11.1998C20.7468 10.7793 21.2158 10.5 21.75 10.5ZM18.75 16.1145V15.8855C17.7357 15.567 17 14.6194 17 13.5C17 12.3276 17.807 11.3437 18.8958 11.0735C19.2862 9.87008 20.4165 9 21.75 9H26.25C27.5835 9 28.7138 9.87008 29.1042 11.0735C30.193 11.3437 31 12.3276 31 13.5C31 14.6194 30.2643 15.567 29.25 15.8855V20C29.25 21.6569 27.9069 23 26.25 23H21.75C20.4165 23 19.2862 22.1299 18.8958 20.9265C17.807 20.6563 17 19.6724 17 18.5C17 17.3806 17.7357 16.433 18.75 16.1145ZM19.5 19.5C20.0523 19.5 20.5 19.0523 20.5 18.5C20.5 17.9477 20.0523 17.5 19.5 17.5C18.9477 17.5 18.5 17.9477 18.5 18.5C18.5 19.0523 18.9477 19.5 19.5 19.5ZM18.5 13.5C18.5 12.9477 18.9477 12.5 19.5 12.5C20.0523 12.5 20.5 12.9477 20.5 13.5C20.5 14.0523 20.0523 14.5 19.5 14.5C18.9477 14.5 18.5 14.0523 18.5 13.5ZM28.5 12.5C27.9477 12.5 27.5 12.9477 27.5 13.5C27.5 14.0523 27.9477 14.5 28.5 14.5C29.0523 14.5 29.5 14.0523 29.5 13.5C29.5 12.9477 29.0523 12.5 28.5 12.5Z" fill="black"/>
</svg>
