<svg width="48" height="32" viewBox="0 0 48 32" fill="none" xmlns="http://www.w3.org/2000/svg">
<path fill-rule="evenodd" clip-rule="evenodd" d="M23 11C23 11.8284 22.3284 12.5 21.5 12.5C20.6716 12.5 20 11.8284 20 11C20 10.1716 20.6716 9.5 21.5 9.5C22.3284 9.5 23 10.1716 23 11ZM21.5 17.5C22.3284 17.5 23 16.8284 23 16C23 15.1716 22.3284 14.5 21.5 14.5C20.6716 14.5 20 15.1716 20 16C20 16.8284 20.6716 17.5 21.5 17.5ZM26.5 17.5C27.3284 17.5 28 16.8284 28 16C28 15.1716 27.3284 14.5 26.5 14.5C25.6716 14.5 25 15.1716 25 16C25 16.8284 25.6716 17.5 26.5 17.5ZM26.5 12.5C27.3284 12.5 28 11.8284 28 11C28 10.1716 27.3284 9.5 26.5 9.5C25.6716 9.5 25 10.1716 25 11C25 11.8284 25.6716 12.5 26.5 12.5ZM23 21C23 21.8284 22.3284 22.5 21.5 22.5C20.6716 22.5 20 21.8284 20 21C20 20.1716 20.6716 19.5 21.5 19.5C22.3284 19.5 23 20.1716 23 21ZM26.5 22.5C27.3284 22.5 28 21.8284 28 21C28 20.1716 27.3284 19.5 26.5 19.5C25.6716 19.5 25 20.1716 25 21C25 21.8284 25.6716 22.5 26.5 22.5Z" fill="black"/>
</svg>
