<svg width="48" height="32" viewBox="0 0 48 32" fill="none" xmlns="http://www.w3.org/2000/svg">
<path fill-rule="evenodd" clip-rule="evenodd" d="M19 17C19.8284 17 20.5 17.6716 20.5 18.5C20.5 19.3284 19.8284 20 19 20C18.1716 20 17.5 19.3284 17.5 18.5C17.5 17.6716 18.1716 17 19 17ZM25.5 18.5C25.5 17.6716 24.8284 17 24 17C23.1716 17 22.5 17.6716 22.5 18.5C22.5 19.3284 23.1716 20 24 20C24.8284 20 25.5 19.3284 25.5 18.5ZM25.5 13.5C25.5 12.6716 24.8284 12 24 12C23.1716 12 22.5 12.6716 22.5 13.5C22.5 14.3284 23.1716 15 24 15C24.8284 15 25.5 14.3284 25.5 13.5ZM20.5 13.5C20.5 12.6716 19.8284 12 19 12C18.1716 12 17.5 12.6716 17.5 13.5C17.5 14.3284 18.1716 15 19 15C19.8284 15 20.5 14.3284 20.5 13.5ZM29 17C29.8284 17 30.5 17.6716 30.5 18.5C30.5 19.3284 29.8284 20 29 20C28.1716 20 27.5 19.3284 27.5 18.5C27.5 17.6716 28.1716 17 29 17ZM30.5 13.5C30.5 12.6716 29.8284 12 29 12C28.1716 12 27.5 12.6716 27.5 13.5C27.5 14.3284 28.1716 15 29 15C29.8284 15 30.5 14.3284 30.5 13.5Z" fill="black"/>
</svg>
