<svg width="48" height="32" viewBox="0 0 48 32" fill="none" xmlns="http://www.w3.org/2000/svg">
<path fill-rule="evenodd" clip-rule="evenodd" d="M20.6182 16.4046L19.4705 16.1176C18.2156 15.8039 17 16.753 17 18.0465C17 18.6159 17.2441 19.1579 17.6704 19.5352L19.868 21.4807C21.5475 22.9675 23.7799 23.67 26.0082 23.4129C28.8547 23.0844 30.9343 20.5674 30.72 17.7101L30.2828 11.8808C30.2032 10.8201 29.3193 10 28.2556 10C28.089 10 27.9269 10.0201 27.7717 10.058L27.7675 9.9445C27.7273 8.85913 26.8358 8 25.7496 8C24.9261 8 24.2144 8.49394 23.9009 9.20608C23.6301 9.07387 23.3264 9 23.0067 9C21.9306 9 21.0395 9.83576 20.9706 10.9096L20.6182 16.4046ZM22.2906 13.7648L22.4168 11.7974L22.4622 11.0897L22.4676 11.0056C22.4858 10.7213 22.7217 10.5 23.0067 10.5C23.2861 10.5 23.5194 10.7131 23.5447 10.9913L23.5523 11.0752L23.6165 11.7814L23.6479 12.1266L23.795 13.7448L23.9965 15.9614L24 16H24.9897H25L25.0035 15.9088L25.1505 12.0873L25.1988 10.8308L25.2293 10.0385L25.2308 9.99928C25.2415 9.72048 25.4706 9.5 25.7496 9.5C26.0289 9.5 26.2582 9.72092 26.2685 10L26.27 10.0392L26.2993 10.8316L26.3207 11.408L26.3401 11.9321L26.4929 16.0574L26.4952 16.1202L26.498 16.1973L26.5 16.25H27.5L27.502 16.2129L27.5421 15.4505L27.681 12.8109L27.7198 12.0731L27.7234 12.0049C27.7293 11.8933 27.7692 11.7912 27.8328 11.7084C27.9305 11.5814 28.0839 11.5 28.2556 11.5C28.5344 11.5 28.7661 11.715 28.787 11.993L28.7921 12.0611L28.8473 12.7979L29.045 15.4338L29.2242 17.8223C29.3783 19.8768 27.883 21.6866 25.8363 21.9227C24.0312 22.131 22.2227 21.5619 20.8622 20.3575L19.6034 19.2432L19.3285 18.9998L18.8548 18.5804L18.6646 18.4121C18.5599 18.3194 18.5 18.1863 18.5 18.0465C18.5 17.7289 18.7985 17.4958 19.1067 17.5728L19.3531 17.6344L19.9664 17.7878L20.3231 17.8769L20.5206 17.9263L22 18.2962L22.0976 16.7744L22.2906 13.7648Z" fill="black"/>
</svg>
