<svg width="48" height="32" viewBox="0 0 48 32" fill="none" xmlns="http://www.w3.org/2000/svg">
<g clip-path="url(#clip0_74_3204)">
<path fill-rule="evenodd" clip-rule="evenodd" d="M22 10.5L18.2635 13.4062C17.7817 13.7809 17.5 14.357 17.5 14.9672C17.5 16.0953 18.4296 16.96 19.5 16.9456C19.6503 16.9435 19.8035 16.9242 19.9572 16.8857L21 16.625V18.1712V18.5L21 22.0579C21 23.1305 21.8695 24 22.9421 24C23.8524 24 24.6405 23.3678 24.838 22.4792L25.5 19.5L28.244 19.0427C29.9897 18.7517 31.1055 17.0206 30.6495 15.3105L29.5 11L22 10.5ZM29.2001 15.697L28.3276 12.4252L22.4701 12.0347L19.1844 14.5903C19.068 14.6807 19 14.8199 19 14.9672C19 15.2779 19.292 15.5059 19.5934 15.4305L20.6362 15.1698L22.5 14.7039V16.625L22.5 18.5V22.0579C22.5 22.3021 22.6979 22.5 22.9421 22.5C23.1493 22.5 23.3287 22.3561 23.3737 22.1538L24.0357 19.1746L24.2552 18.1868L25.2534 18.0204L27.9974 17.5631C28.8702 17.4176 29.4281 16.5521 29.2001 15.697ZM29.3034 8.50194C29.7166 8.53145 30.0276 8.8903 29.9981 9.30347C29.9686 9.71663 29.6097 10.0276 29.1966 9.99812L22.1966 9.49812C21.7834 9.46861 21.4724 9.10976 21.5019 8.6966C21.5314 8.28343 21.8903 7.97243 22.3034 8.00194L29.3034 8.50194Z" fill="black"/>
</g>
<defs>
<clipPath id="clip0_74_3204">
<rect width="16" height="16" fill="white" transform="translate(16 8)"/>
</clipPath>
</defs>
</svg>
