<svg width="48" height="32" viewBox="0 0 48 32" fill="none" xmlns="http://www.w3.org/2000/svg">
<path fill-rule="evenodd" clip-rule="evenodd" d="M30.1245 17.8329C29.716 17.2882 29.1655 16.8663 28.5333 16.6134L28.5011 16.6005C27.5688 16.2276 26.5096 16.3677 25.7064 16.9702L25.3468 17.2398C25.1477 17.3891 24.8692 17.3693 24.6932 17.1934L22.8065 15.3067C22.6306 15.1307 22.6108 14.8522 22.7601 14.6531L23.0297 14.2935C23.6322 13.4903 23.7723 12.431 23.3994 11.4988L23.3865 11.4666C23.1336 10.8344 22.7117 10.2839 22.167 9.87539L21.9765 9.73247C21.3648 9.27375 20.5671 9.14429 19.8418 9.38606L19.6524 9.44918C18.6121 9.79595 17.7958 10.6123 17.449 11.6526C17.1557 12.5326 17.1194 13.4781 17.3444 14.378C17.7733 16.0936 18.6604 17.6606 19.9108 18.911L21.0889 20.0891C22.3393 21.3395 23.9063 22.2266 25.6219 22.6555C26.5218 22.8805 27.4673 22.8442 28.3473 22.5509C29.3876 22.2041 30.204 21.3878 30.5507 20.3475L30.6138 20.1581C30.8556 19.4328 30.7261 18.6351 30.2674 18.0234L30.1245 17.8329ZM21.159 11.2194L20.9685 11.0765C20.7979 10.9485 20.5753 10.9124 20.373 10.9798L20.1837 11.043C19.645 11.2225 19.2224 11.6452 19.0428 12.1839C18.8505 12.7607 18.8267 13.3806 18.9742 13.9706C19.3293 15.3908 20.0637 16.6879 21.0988 17.723L22.2768 18.9011C23.312 19.9362 24.6091 20.6706 26.0293 21.0257C26.6193 21.1732 27.2392 21.1494 27.816 20.9571C28.3547 20.7775 28.7774 20.3549 28.9569 19.8162L29.0201 19.6269C29.0875 19.4246 29.0514 19.202 28.9234 19.0314L28.7805 18.8409C28.5568 18.5427 28.2554 18.3117 27.9093 18.1732L27.8772 18.1604C27.4893 18.0052 27.0486 18.0635 26.7144 18.3142L26.3548 18.5838C25.4869 19.2348 24.2724 19.1485 23.5053 18.3813L21.6186 16.4946C20.8514 15.7275 20.7651 14.513 21.4161 13.6451L21.6857 13.2855C21.9364 12.9513 21.9947 12.5106 21.8395 12.1227L21.8267 12.0906C21.6882 11.7444 21.4572 11.4431 21.159 11.2194Z" fill="black"/>
</svg>
