<svg width="48" height="32" viewBox="0 0 48 32" fill="none" xmlns="http://www.w3.org/2000/svg">
<g clip-path="url(#clip0_74_3004)">
<path fill-rule="evenodd" clip-rule="evenodd" d="M22.5 11.3251V12.6485V15.75V17.2962L21 16.9212L20.4705 16.7888L19.7981 16.6207L19.5934 16.5695C19.292 16.4942 19 16.7221 19 17.0328C19 17.1802 19.068 17.3193 19.1844 17.4098L19.3509 17.5393L19.8982 17.965L20.3281 18.2994L22.4701 19.9653L25.1981 19.7835L28.5 19.5L29.167 15.9425L29.2754 15.3644L29.7304 12.9378L29.8779 12.1512L29.8867 12.1045C29.9456 11.7904 29.7046 11.5 29.385 11.5C29.1571 11.5 28.9568 11.6511 28.8942 11.8702L28.8812 11.9159L28.6613 12.6854L28.5 13.25L28 15H27.8176H27.0062H27V14.7143V13.5V13.0399V10.8486V10.0702V10.0227C27 9.73401 26.766 9.5 26.4773 9.5C26.207 9.5 25.9813 9.70614 25.9568 9.97536L25.9525 10.0227L25.882 10.7978L25.6655 13.1791L25.5185 14.7963L25.5 15H24.5L24.4815 14.9074L24.152 13.26L24 12.5L23.7404 11.2022L23.6099 10.5495L23.5883 10.4417C23.537 10.1849 23.3115 10 23.0495 10C22.746 10 22.5 10.246 22.5 10.5495V10.6594V11.3251ZM19.9572 15.1143L21 15.375V10.5495C21 9.41759 21.9176 8.5 23.0495 8.5C23.6709 8.5 24.2373 8.77896 24.6166 9.22852C24.9269 8.50149 25.6479 8 26.4773 8C27.5944 8 28.5 8.90559 28.5 10.0227V10.2052C28.7692 10.0731 29.0704 10 29.385 10C30.6438 10 31.593 11.1437 31.361 12.3809L29.9743 19.7764C29.8501 20.4387 29.2996 20.9369 28.6283 20.9945L25.3264 21.278L25.2978 21.2801L22.5699 21.462C22.2028 21.4865 21.8396 21.3752 21.5492 21.1494L18.2635 18.5938C17.7817 18.2191 17.5 17.6431 17.5 17.0328C17.5 15.7463 18.7091 14.8023 19.9572 15.1143ZM29.3034 23.4981C29.7166 23.4686 30.0276 23.1097 29.9981 22.6966C29.9686 22.2834 29.6097 21.9724 29.1966 22.0019L22.1966 22.5019C21.7834 22.5314 21.4724 22.8903 21.5019 23.3034C21.5314 23.7166 21.8903 24.0276 22.3034 23.9981L29.3034 23.4981Z" fill="black"/>
</g>
<defs>
<clipPath id="clip0_74_3004">
<rect width="16" height="16" fill="white" transform="translate(16 8)"/>
</clipPath>
</defs>
</svg>
