<svg width="48" height="32" viewBox="0 0 48 32" fill="none" xmlns="http://www.w3.org/2000/svg">
<g clip-path="url(#clip0_74_3188)">
<path fill-rule="evenodd" clip-rule="evenodd" d="M18.5 14L21.4062 10.2635C21.7809 9.78175 22.3569 9.5 22.9672 9.5C24.0953 9.5 24.96 10.4296 24.9455 11.5C24.9435 11.6503 24.9241 11.8035 24.8857 11.9572L24.625 13L26.1712 13L26.5 13L30.0579 13C31.1305 13 32 13.8695 32 14.9421C32 15.8524 31.3678 16.6405 30.4792 16.838L27.5 17.5L27.0427 20.244C26.7517 21.9897 25.0206 23.1055 23.3105 22.6495L19 21.5L18.5 14ZM23.697 21.2001L20.4252 20.3276L20.0347 14.4701L22.5902 11.1844C22.6807 11.068 22.8198 11 22.9672 11C23.2779 11 23.5058 11.292 23.4305 11.5934L23.1698 12.6362L22.7038 14.5L24.625 14.5L26.5 14.5L30.0579 14.5C30.3021 14.5 30.5 14.6979 30.5 14.9421C30.5 15.1493 30.3561 15.3287 30.1538 15.3737L27.1746 16.0357L26.1868 16.2552L26.0204 17.2534L25.5631 19.9974C25.4176 20.8702 24.552 21.4281 23.697 21.2001ZM16.5019 21.3034C16.5314 21.7166 16.8903 22.0276 17.3034 21.9981C17.7166 21.9686 18.0276 21.6097 17.9981 21.1966L17.4981 14.1966C17.4686 13.7834 17.1097 13.4724 16.6966 13.5019C16.2834 13.5314 15.9724 13.8903 16.0019 14.3034L16.5019 21.3034Z" fill="black"/>
</g>
<defs>
<clipPath id="clip0_74_3188">
<rect width="16" height="16" fill="white" transform="translate(16 8)"/>
</clipPath>
</defs>
</svg>
