<svg width="48" height="32" viewBox="0 0 48 32" fill="none" xmlns="http://www.w3.org/2000/svg">
<g clip-path="url(#clip0_74_3010)">
<path fill-rule="evenodd" clip-rule="evenodd" d="M22.4999 14.9627C22.4999 14.2129 21.8446 13.7146 21.19 13.7832C21.1487 13.7875 21.1074 13.7941 21.0664 13.803C20.9928 13.8189 20.9198 13.8423 20.8482 13.8737C20.7545 13.9147 20.6634 13.9693 20.5769 14.0385L20.3696 14.2043L20.2888 14.269C20.2821 14.2743 20.2753 14.2795 20.2684 14.2845C20.0944 14.4116 19.8631 14.4316 19.6691 14.3346C19.5252 14.2626 19.4267 14.141 19.3801 14.0031C19.3173 13.8168 19.3494 13.6007 19.4926 13.437L19.5608 13.3591L19.8077 13.0769L19.9656 12.8964L19.9937 12.8644C20.1718 12.6608 20.3736 12.4976 20.5898 12.3732C21.7654 11.697 23.3672 12.1682 23.9135 13.5339L24.0875 13.9689L24.4622 14.9057L24.4999 15H25.4999L25.5377 14.5849L25.6139 13.7461L25.8819 10.7979L25.9524 10.0227L25.9567 9.97539C25.9812 9.70617 26.2069 9.50003 26.4772 9.50003C26.7659 9.50003 26.9999 9.73404 26.9999 10.0227V10.0702V10.8486V13.0399V13.5V14.7143V15H27.0061H27.8175H27.9999L28.4999 13.25L28.6612 12.6854L28.8811 11.916L28.8942 11.8702C28.9568 11.6511 29.157 11.5 29.3849 11.5C29.7045 11.5 29.9455 11.7904 29.8866 12.1045L29.8778 12.1513L29.7303 12.9379L29.2754 15.3644L29.167 15.9425L28.4999 19.5L25.198 19.7835L22.47 19.9654L21.7906 19.7764C20.7757 19.494 19.9183 18.8683 19.3401 18.0378C19.1835 17.8128 19.0474 17.5728 18.9341 17.3206C18.8695 17.1765 18.8123 17.0284 18.763 16.8769C18.6977 16.676 18.6463 16.469 18.6099 16.257C18.6028 16.2157 18.5963 16.1742 18.5903 16.1325C18.5583 15.9087 18.6642 15.7008 18.839 15.588C18.911 15.5415 18.9946 15.5112 19.0852 15.5026C19.1028 15.5009 19.1207 15.5 19.1389 15.5H19.2715C19.4125 15.5 19.5425 15.5764 19.6111 15.6996L19.7141 15.8847L19.7591 15.9655L20.0117 16.4193L20.1398 16.6493C20.2261 16.8044 20.3425 16.9366 20.4792 17.0403C20.6946 17.2036 20.9608 17.2962 21.2403 17.2962C21.936 17.2962 22.4999 16.7323 22.4999 16.0366L22.4999 14.9627ZM17.1054 16.3446C16.9929 15.5573 17.3407 14.8227 17.9306 14.3925C17.7447 13.7443 17.8723 13.0109 18.3638 12.4492L18.8648 11.8766C20.3389 10.1919 22.7984 10.1904 24.3081 11.5416L24.4629 9.83959C24.5576 8.79775 25.4311 8.00003 26.4772 8.00003C27.5943 8.00003 28.4999 8.90562 28.4999 10.0227V10.2052C28.7691 10.0731 29.0704 10 29.3849 10C30.6437 10 31.5929 11.1437 31.3609 12.3809L29.9742 19.7765C29.8501 20.4387 29.2996 20.9369 28.6282 20.9945L25.3263 21.278L25.2978 21.2802L22.5698 21.462C22.4008 21.4733 22.2312 21.4559 22.068 21.4105L21.3886 21.2215C19.1194 20.5902 17.4385 18.6764 17.1054 16.3446ZM29.3034 23.4981C29.7165 23.4686 30.0276 23.1098 29.998 22.6966C29.9685 22.2834 29.6097 21.9724 29.1965 22.0019L22.1965 22.5019C21.7834 22.5314 21.4723 22.8903 21.5019 23.3035C21.5314 23.7166 21.8902 24.0276 22.3034 23.9981L29.3034 23.4981Z" fill="black"/>
</g>
<defs>
<clipPath id="clip0_74_3010">
<rect width="16" height="16" fill="white" transform="translate(16 8)"/>
</clipPath>
</defs>
</svg>
