<svg width="48" height="32" viewBox="0 0 48 32" fill="none" xmlns="http://www.w3.org/2000/svg">
<g clip-path="url(#clip0_74_995)">
<path fill-rule="evenodd" clip-rule="evenodd" d="M22 21.5L18.2635 18.5938C17.7817 18.2191 17.5 17.6431 17.5 17.0328C17.5 15.9047 18.4296 15.04 19.5 15.0545C19.6503 15.0565 19.8035 15.0759 19.9572 15.1143L21 15.375V13.8288V13.5L21 9.9421C21 8.86951 21.8695 8 22.9421 8C23.8524 8 24.6405 8.63222 24.838 9.5208L25.5 12.5L28.244 12.9573C29.9897 13.2483 31.1055 14.9794 30.6495 16.6895L29.5 21L22 21.5ZM29.2001 16.303L28.3276 19.5748L22.4701 19.9653L19.1844 17.4098C19.068 17.3193 19 17.1802 19 17.0328C19 16.7221 19.292 16.4942 19.5934 16.5695L20.6362 16.8302L22.5 17.2962V15.375L22.5 13.5V9.9421C22.5 9.69793 22.6979 9.5 22.9421 9.5C23.1493 9.5 23.3287 9.64392 23.3737 9.8462L24.0357 12.8254L24.2552 13.8132L25.2534 13.9796L27.9974 14.4369C28.8702 14.5824 29.4281 15.448 29.2001 16.303ZM29.3034 23.4981C29.7166 23.4686 30.0276 23.1097 29.9981 22.6966C29.9686 22.2834 29.6097 21.9724 29.1966 22.0019L22.1966 22.5019C21.7834 22.5314 21.4724 22.8903 21.5019 23.3034C21.5314 23.7166 21.8903 24.0276 22.3034 23.9981L29.3034 23.4981Z" fill="black"/>
</g>
<defs>
<clipPath id="clip0_74_995">
<rect width="16" height="16" fill="white" transform="translate(16 8)"/>
</clipPath>
</defs>
</svg>
