<svg width="48" height="32" viewBox="0 0 48 32" fill="none" xmlns="http://www.w3.org/2000/svg">
<g clip-path="url(#clip0_74_3196)">
<path fill-rule="evenodd" clip-rule="evenodd" d="M29.5 14L26.5938 10.2635C26.2191 9.78175 25.6431 9.5 25.0328 9.5C23.9047 9.5 23.04 10.4296 23.0545 11.5C23.0565 11.6503 23.0759 11.8035 23.1143 11.9572L23.375 13L21.8288 13L21.5 13L17.9421 13C16.8695 13 16 13.8695 16 14.9421C16 15.8524 16.6322 16.6405 17.5208 16.838L20.5 17.5L20.9573 20.244C21.2483 21.9897 22.9794 23.1055 24.6895 22.6495L29 21.5L29.5 14ZM24.303 21.2001L27.5748 20.3276L27.9653 14.4701L25.4098 11.1844C25.3193 11.068 25.1802 11 25.0328 11C24.7221 11 24.4942 11.292 24.5695 11.5934L24.8302 12.6362L25.2962 14.5L23.375 14.5L21.5 14.5L17.9421 14.5C17.6979 14.5 17.5 14.6979 17.5 14.9421C17.5 15.1493 17.6439 15.3287 17.8462 15.3737L20.8254 16.0357L21.8132 16.2552L21.9796 17.2534L22.4369 19.9974C22.5824 20.8702 23.448 21.4281 24.303 21.2001ZM31.4981 21.3034C31.4686 21.7166 31.1097 22.0276 30.6966 21.9981C30.2834 21.9686 29.9724 21.6097 30.0019 21.1966L30.5019 14.1966C30.5314 13.7834 30.8903 13.4724 31.3034 13.5019C31.7166 13.5314 32.0276 13.8903 31.9981 14.3034L31.4981 21.3034Z" fill="black"/>
</g>
<defs>
<clipPath id="clip0_74_3196">
<rect width="16" height="16" fill="white" transform="translate(16 8)"/>
</clipPath>
</defs>
</svg>
