<svg width="48" height="32" viewBox="0 0 48 32" fill="none" xmlns="http://www.w3.org/2000/svg">
<path fill-rule="evenodd" clip-rule="evenodd" d="M28 16.5C28.8284 16.5 29.5 17.1716 29.5 18V19C29.5 19.8284 28.8284 20.5 28 20.5H20C19.1716 20.5 18.5 19.8284 18.5 19V18C18.5 17.1716 19.1716 16.5 20 16.5H28ZM28.8901 15.1342L27.4875 12.3292C27.2335 11.821 26.7141 11.5 26.1459 11.5H21.8541C21.2859 11.5 20.7665 11.821 20.5125 12.3292L19.1099 15.1342C19.3912 15.047 19.6901 15 20 15H28C28.3099 15 28.6088 15.047 28.8901 15.1342ZM31 17.1803V18V19C31 20.6569 29.6569 22 28 22H20C18.3431 22 17 20.6569 17 19V18V17.1803C17 16.4041 17.1807 15.6385 17.5279 14.9443L19.1708 11.6584C19.679 10.642 20.7178 10 21.8541 10H26.1459C27.2822 10 28.321 10.642 28.8292 11.6584L30.4721 14.9443C30.8193 15.6385 31 16.4041 31 17.1803ZM25 17.75C24.5858 17.75 24.25 18.0858 24.25 18.5C24.25 18.9142 24.5858 19.25 25 19.25H27.5C27.9142 19.25 28.25 18.9142 28.25 18.5C28.25 18.0858 27.9142 17.75 27.5 17.75H25Z" fill="black"/>
</svg>
