<svg width="48" height="32" viewBox="0 0 48 32" fill="none" xmlns="http://www.w3.org/2000/svg">
<path fill-rule="evenodd" clip-rule="evenodd" d="M23.2379 10.6342C23.312 10.2266 23.0417 9.8362 22.6342 9.76211C22.2266 9.68801 21.8362 9.95831 21.7621 10.3658L21.2832 13H19C18.5858 13 18.25 13.3358 18.25 13.75C18.25 14.1642 18.5858 14.5 19 14.5H21.0104L20.465 17.5H18C17.5858 17.5 17.25 17.8358 17.25 18.25C17.25 18.6642 17.5858 19 18 19H20.1922L19.7621 21.3658C19.688 21.7734 19.9583 22.1638 20.3658 22.2379C20.7734 22.312 21.1638 22.0417 21.2379 21.6342L21.7168 19H25.1922L24.7621 21.3658C24.688 21.7734 24.9583 22.1638 25.3658 22.2379C25.7734 22.312 26.1638 22.0417 26.2379 21.6342L26.7168 19H29C29.4142 19 29.75 18.6642 29.75 18.25C29.75 17.8358 29.4142 17.5 29 17.5H26.9896L27.535 14.5H30C30.4142 14.5 30.75 14.1642 30.75 13.75C30.75 13.3358 30.4142 13 30 13H27.8078L28.2379 10.6342C28.312 10.2266 28.0417 9.8362 27.6342 9.76211C27.2266 9.68801 26.8362 9.95831 26.7621 10.3658L26.2832 13H22.8078L23.2379 10.6342ZM25.465 17.5L26.0104 14.5H22.535L21.9896 17.5H25.465Z" fill="black"/>
</svg>
