<svg width="48" height="32" viewBox="0 0 48 32" fill="none" xmlns="http://www.w3.org/2000/svg">
<path fill-rule="evenodd" clip-rule="evenodd" d="M18.5 12.25C18.5 11.8358 18.1642 11.5 17.75 11.5C17.3358 11.5 17 11.8358 17 12.25V19.7458C17 20.16 17.3358 20.4958 17.75 20.4958C18.1642 20.4958 18.5 20.16 18.5 19.7458V16.75H22.5V19.7458C22.5 20.16 22.8358 20.4958 23.25 20.4958C23.6642 20.4958 24 20.16 24 19.7458V12.25C24 11.8358 23.6642 11.5 23.25 11.5C22.8358 11.5 22.5 11.8358 22.5 12.25V15.25H18.5V12.25ZM26.5 11.5C25.8113 11.5 25.25 12.0571 25.25 12.7492V12.7534V12.7577V12.762V12.7663V12.7707V12.775V12.7794V12.7837V12.7881V12.7925V12.7969V12.8013V12.8058V12.8102V12.8147V12.8192V12.8237V12.8282V12.8327V12.8372V12.8418V12.8463V12.8509V12.8555V12.8601V12.8647V12.8693V12.8739V12.8785V12.8832V12.8879V12.8926V12.8972V12.902V12.9067V12.9114V12.9161V12.9209V12.9257V12.9304V12.9352V12.94V12.9448V12.9497V12.9545V12.9593V12.9642V12.9691V12.9739V12.9788V12.9837V12.9886V12.9936V12.9985V13.0035V13.0084V13.0134V13.0184V13.0233V13.0283V13.0334V13.0384V13.0434V13.0485V13.0535V13.0586V13.0636V13.0687V13.0738V13.0789V13.084V13.0892V13.0943V13.0994V13.1046V13.1098V13.1149V13.1201V13.1253V13.1305V13.1357V13.1409V13.1462V13.1514V13.1567V13.1619V13.1672V13.1725V13.1777V13.183V13.1883V13.1937V13.199V13.2043V13.2096V13.215V13.2203V13.2257V13.2311V13.2365V13.2418V13.2472V13.2526V13.2581V13.2635V13.2689V13.2744V13.2798V13.2852V13.2907V13.2962V13.3017V13.3071V13.3126V13.3181V13.3236V13.3292V13.3347V13.3402V13.3457V13.3513V13.3568V13.3624V13.368V13.3735V13.3791V13.3847V13.3903V13.3959V13.4015V13.4071V13.4127V13.4184V13.424V13.4296V13.4353V13.4409V13.4466V13.4522V13.4579V13.4636V13.4693V13.475V13.4806V13.4863V13.4921V13.4978V13.5035V13.5092V13.5149V13.5207V13.5264V13.5321V13.5379V13.5436V13.5494V13.5552V13.5609V13.5667V13.5725V13.5783V13.5841V13.5899V13.5957V13.6015V13.6073V13.6131V13.6189V13.6247V13.6306V13.6364V13.6422V13.6481V13.6539V13.6598V13.6656V13.6715V13.6773V13.6832V13.6891V13.6949V13.7008V13.7067V13.7126V13.7185V13.7243V13.7302V13.7361V13.742V13.7479V13.7538V13.7598V13.7657V13.7716V13.7775V13.7834V13.7894V13.7953V13.8012V13.8071V13.8131V13.819V13.825V13.8309V13.8368V13.8428V13.8487V13.8547V13.8606V13.8666V13.8726V13.8785V13.8845V13.8905V13.8964V13.9024V13.9084V13.9143V13.9203V13.9263V13.9323V13.9382V13.9442V13.9502V13.9562V13.9622V13.9681V13.9741V13.9801V13.9861V13.9921V13.9981V14.0041V14.0101V14.0161V14.0221V14.028V14.034V14.04V14.046V14.052V14.058V14.064V14.07V14.076V14.082V14.088V14.094V14.1V14.106V14.112V14.118V14.124V14.13V14.136V14.142V14.1479V14.1539V14.1599V14.1659V14.1719V14.1779V14.1839V14.1899V14.1959V14.2019V14.2078V14.2138V14.2198V14.2258V14.2318V14.2377V14.2437V14.2497V14.2557V14.2616V14.2676V14.2736V14.2796V14.2855V14.2915V14.2974V14.3034V14.3094V14.3153V14.3213V14.3272V14.3332V14.3391V14.3451V14.351V14.3569V14.3629V14.3688V14.3747V14.3807V14.3866V14.3925V14.3984V14.4044V14.4103V14.4162V14.4221V14.428V14.4339V14.4398V14.4457V14.4516V14.4575V14.4633V14.4692V14.4751V14.481V14.4868V14.4927V14.4986V14.5044V14.5103V14.5161V14.522V14.5278V14.5337V14.5395V14.5453V14.5511V14.557V14.5628V14.5686V14.5744V14.5802V14.586V14.5918V14.5976V14.6034V14.6091V14.6149V14.6207V14.6264V14.6322V14.6379V14.6437V14.6494V14.6552V14.6609V14.6666V14.6723V14.678V14.6838V14.6895V14.6951V14.7008V14.7065V14.7122V14.7179V14.7235V14.7292V14.7348V14.7405V14.7461V14.7518V14.7574V14.763V14.7686V14.7742V14.7798V14.7854V14.791V14.7966V14.8022V14.8078V14.8133V14.8189V14.8244V14.8299V14.8355V14.841V14.8465V14.852V14.8575V14.863V14.8685V14.874V14.8795V14.8849V14.8904V14.8958V14.9013V14.9067V14.9121V14.9175V14.923V14.9284V14.9337V14.9391V14.9445V14.9499V14.9552V14.9606V14.9659V14.9713V14.9766V14.9819V14.9872V14.9925V14.9978V15.0031V15.0083V15.0136V15.0188V15.0241V15.0293V15.0345V15.0398V15.045V15.0502V15.0553V15.0605V15.0657V15.0708V15.076V15.0811V15.0863V15.0914V15.0965V15.1016V15.1067V15.1117V15.1168V15.1219V15.1269V15.1319V15.137V15.142V15.147V15.152V15.157V15.1619V15.1669V15.1719V15.1768V15.1817V15.1866V15.1915V15.1964V15.2013V15.2062V15.2111V15.2159V15.2207V15.2256V15.2304V15.2352V15.24V15.2448V15.2495V15.2543V15.259V15.2638V15.2685V15.2732V15.2779V15.2826V15.2872V15.2919V15.2966V15.3012V15.3058V15.3104V15.315V15.3196V15.3242V15.3287V15.3333V15.3378V15.3423V15.3468V15.3513V15.3558V15.3603V15.3647V15.3692V15.3736V15.378V15.3824V15.3868V15.3912V15.3956V15.3999V15.4042V15.4086V15.4129V15.4172V15.4214V15.4257V15.4299V15.4342V15.4384V15.4426V15.4468V15.451V15.4552V15.4593V15.4634V15.4676V15.4717V15.4758V15.4798V15.4839V15.4879V15.492V15.496V15.5C25.25 15.7927 25.4202 16.0586 25.686 16.1811C25.9455 16.3007 26.2497 16.2623 26.4711 16.0836C26.4753 16.0806 26.4861 16.0731 26.5036 16.0625C26.5441 16.0378 26.6216 15.9953 26.7401 15.9495C26.9751 15.8586 27.3833 15.75 28 15.75C28.8917 15.75 29.5342 16.5013 29.534 17.4999C29.534 17.8655 29.3952 18.2346 29.1215 18.5105C28.8562 18.7781 28.4217 19 27.75 19C27.1822 19 26.8451 18.8156 26.656 18.6643C26.5567 18.5849 26.4902 18.5078 26.4516 18.4563C26.4324 18.4306 26.4206 18.412 26.4155 18.4037L26.4138 18.4009C26.2244 18.0404 25.7805 17.8962 25.4146 18.0792C25.0441 18.2644 24.8939 18.7149 25.0792 19.0854L25.75 18.75C25.0792 19.0854 25.0794 19.0858 25.0796 19.0862L25.08 19.087L25.0809 19.0888L25.0828 19.0925L25.0872 19.1011L25.0988 19.1227C25.1078 19.139 25.1192 19.159 25.1333 19.1822C25.1615 19.2286 25.2005 19.2881 25.2516 19.3562C25.3535 19.4922 25.5058 19.6651 25.719 19.8357C26.1549 20.1844 26.8178 20.5 27.75 20.5C28.7773 20.5 29.6098 20.1484 30.1866 19.5667C30.7552 18.9934 31.0339 18.2374 31.034 17.5001C31.0343 15.9085 29.9376 14.25 28 14.25C27.5065 14.25 27.0919 14.3041 26.75 14.383V14.3807V14.3747V14.3688V14.3629V14.3569V14.351V14.3451V14.3391V14.3332V14.3272V14.3213V14.3153V14.3094V14.3034V14.2974V14.2915V14.2855V14.2796V14.2736V14.2676V14.2616V14.2557V14.2497V14.2437V14.2377V14.2318V14.2258V14.2198V14.2138V14.2078V14.2019V14.1959V14.1899V14.1839V14.1779V14.1719V14.1659V14.1599V14.1539V14.1479V14.142V14.136V14.13V14.124V14.118V14.112V14.106V14.1V14.094V14.088V14.082V14.076V14.07V14.064V14.058V14.052V14.046V14.04V14.034V14.028V14.0221V14.0161V14.0101V14.0041V13.9981V13.9921V13.9861V13.9801V13.9741V13.9681V13.9622V13.9562V13.9502V13.9442V13.9382V13.9323V13.9263V13.9203V13.9143V13.9084V13.9024V13.8964V13.8905V13.8845V13.8785V13.8726V13.8666V13.8606V13.8547V13.8487V13.8428V13.8368V13.8309V13.825V13.819V13.8131V13.8071V13.8012V13.7953V13.7894V13.7834V13.7775V13.7716V13.7657V13.7598V13.7538V13.7479V13.742V13.7361V13.7302V13.7243V13.7185V13.7126V13.7067V13.7008V13.6949V13.6891V13.6832V13.6773V13.6715V13.6656V13.6598V13.6539V13.6481V13.6422V13.6364V13.6306V13.6247V13.6189V13.6131V13.6073V13.6015V13.5957V13.5899V13.5841V13.5783V13.5725V13.5667V13.5609V13.5552V13.5494V13.5436V13.5379V13.5321V13.5264V13.5207V13.5149V13.5092V13.5035V13.4978V13.4921V13.4863V13.4806V13.475V13.4693V13.4636V13.4579V13.4522V13.4466V13.4409V13.4353V13.4296V13.424V13.4184V13.4127V13.4071V13.4015V13.3959V13.3903V13.3847V13.3791V13.3735V13.368V13.3624V13.3568V13.3513V13.3457V13.3402V13.3347V13.3292V13.3236V13.3181V13.3126V13.3071V13.3017V13.2962V13.2907V13.2852V13.2798V13.2744V13.2689V13.2635V13.2581V13.2526V13.2472V13.2418V13.2365V13.2311V13.2257V13.2203V13.215V13.2096V13.2043V13.199V13.1937V13.1883V13.183V13.1777V13.1725V13.1672V13.1619V13.1567V13.1514V13.1462V13.1409V13.1357V13.1305V13.1253V13.1201V13.1149V13.1098V13.1046V13.0994V13.0943V13.0892V13.084V13.0789V13.0738V13.0687V13.0636V13.0586V13.0535V13.0485V13.0434V13.0384V13.0334V13.0283V13.0233V13.0184V13.0134V13.0084V13.0035V13H30C30.4142 13 30.75 12.6642 30.75 12.25C30.75 11.8358 30.4142 11.5 30 11.5H26.5Z" fill="black"/>
</svg>
