<svg width="48" height="32" viewBox="0 0 48 32" fill="none" xmlns="http://www.w3.org/2000/svg">
<path fill-rule="evenodd" clip-rule="evenodd" d="M31 16C31 12.134 27.866 9 24 9C20.134 9 17 12.134 17 16V19.75V20H17.0095C17.1371 21.6781 18.5392 23 20.25 23H20.3333C21.2538 23 22 22.2538 22 21.3333V18.1667C22 17.2462 21.2538 16.5 20.3333 16.5H20.25C19.6057 16.5 19.0052 16.6875 18.5 17.0109V16C18.5 12.9624 20.9624 10.5 24 10.5C27.0376 10.5 29.5 12.9624 29.5 16V17.0109C28.9949 16.6875 28.3943 16.5 27.75 16.5H27.6667C26.7462 16.5 26 17.2462 26 18.1667V21.3333C26 22.2538 26.7462 23 27.6667 23H27.75C29.4608 23 30.8629 21.6781 30.9905 20H31V19.75V16ZM29.5 19.75C29.5 18.7835 28.7165 18 27.75 18H27.6667C27.5746 18 27.5 18.0746 27.5 18.1667V21.3333C27.5 21.4254 27.5746 21.5 27.6667 21.5H27.75C28.7165 21.5 29.5 20.7165 29.5 19.75ZM20.25 21.5C19.2835 21.5 18.5 20.7165 18.5 19.75C18.5 18.7835 19.2835 18 20.25 18H20.3333C20.4254 18 20.5 18.0746 20.5 18.1667V21.3333C20.5 21.4254 20.4254 21.5 20.3333 21.5H20.25Z" fill="black"/>
</svg>
