<svg width="48" height="32" viewBox="0 0 48 32" fill="none" xmlns="http://www.w3.org/2000/svg">
<path fill-rule="evenodd" clip-rule="evenodd" d="M30.25 12.25C30.25 11.9283 30.0447 11.6423 29.7399 11.5394C29.435 11.4365 29.0984 11.5396 28.9034 11.7955L24.9035 17.0455C24.7307 17.2723 24.7014 17.5774 24.8279 17.8329C24.9545 18.0884 25.2149 18.25 25.5 18.25H28.75V19.7458C28.75 20.16 29.0858 20.4958 29.5 20.4958C29.9142 20.4958 30.25 20.16 30.25 19.7458V18.25H30.5C30.9142 18.25 31.25 17.9143 31.25 17.5C31.25 17.0858 30.9142 16.75 30.5 16.75H30.25V12.25ZM28.75 14.472V16.75H27.0143L28.75 14.472ZM18.5 12.25C18.5 11.8358 18.1642 11.5 17.75 11.5C17.3358 11.5 17 11.8358 17 12.25V19.7458C17 20.16 17.3358 20.4958 17.75 20.4958C18.1642 20.4958 18.5 20.16 18.5 19.7458V16.75H22.5V19.7458C22.5 20.16 22.8358 20.4958 23.25 20.4958C23.6642 20.4958 24 20.16 24 19.7458V12.25C24 11.8358 23.6642 11.5 23.25 11.5C22.8358 11.5 22.5 11.8358 22.5 12.25V15.25H18.5V12.25Z" fill="black"/>
</svg>
