<svg width="48" height="32" viewBox="0 0 48 32" fill="none" xmlns="http://www.w3.org/2000/svg">
<path fill-rule="evenodd" clip-rule="evenodd" d="M18.5 12.25C18.5 11.8358 18.1642 11.5 17.75 11.5C17.3358 11.5 17 11.8358 17 12.25V19.7458C17 20.16 17.3358 20.4958 17.75 20.4958C18.1642 20.4958 18.5 20.16 18.5 19.7458V16.75H22.5V19.7458C22.5 20.16 22.8358 20.4958 23.25 20.4958C23.6642 20.4958 24 20.16 24 19.7458V12.25C24 11.8358 23.6642 11.5 23.25 11.5C22.8358 11.5 22.5 11.8358 22.5 12.25V15.25H18.5V12.25ZM26.9028 14.0332C27.0547 13.426 27.6002 13 28.2261 13H28.4519C28.9388 13 29.3645 13.3284 29.4881 13.7993C29.5953 14.2077 29.4526 14.6409 29.1238 14.9057L25.5139 17.8124C25.1577 18.0992 24.9506 18.5319 24.9506 18.9892C24.9506 19.8236 25.627 20.5 26.4614 20.5H30.25C30.6642 20.5 31 20.1642 31 19.75C31 19.3358 30.6642 19 30.25 19H26.4614C26.4586 19 26.4577 18.9996 26.4574 18.9995L26.4574 18.9995C26.4566 18.9991 26.4553 18.9984 26.4537 18.9968C26.4522 18.9953 26.4514 18.9939 26.4511 18.9932L26.4511 18.9931C26.451 18.9928 26.4506 18.9919 26.4506 18.9892C26.4506 18.9859 26.452 18.9828 26.4546 18.9808L30.0645 16.0741C30.8538 15.4385 31.1962 14.3986 30.9389 13.4185C30.6422 12.2881 29.6205 11.5 28.4519 11.5H28.2261C26.9119 11.5 25.7664 12.3944 25.4476 13.6694L25.4105 13.8181C25.31 14.2199 25.5543 14.6271 25.9562 14.7276C26.358 14.8281 26.7652 14.5837 26.8657 14.1819L26.9028 14.0332Z" fill="black"/>
</svg>
