<svg width="48" height="32" viewBox="0 0 48 32" fill="none" xmlns="http://www.w3.org/2000/svg">
<path fill-rule="evenodd" clip-rule="evenodd" d="M20.25 10.25C20.6642 10.25 21 10.5858 21 11L21 15.25L27 15.25V11C27 10.5858 27.3358 10.25 27.75 10.25C28.1642 10.25 28.5 10.5858 28.5 11V21C28.5 21.4142 28.1642 21.75 27.75 21.75C27.3358 21.75 27 21.4142 27 21L27 16.75L21 16.75L21 21C21 21.4142 20.6642 21.75 20.25 21.75C19.8358 21.75 19.5 21.4142 19.5 21V11C19.5 10.5858 19.8358 10.25 20.25 10.25Z" fill="black"/>
</svg>
