<svg width="48" height="32" viewBox="0 0 48 32" fill="none" xmlns="http://www.w3.org/2000/svg">
<path fill-rule="evenodd" clip-rule="evenodd" d="M30 12.25C30 11.9547 29.8267 11.6868 29.5572 11.5658C29.2878 11.4448 28.9725 11.4932 28.7517 11.6895L26.5017 13.6895C26.1921 13.9646 26.1643 14.4387 26.4394 14.7483C26.7146 15.0579 27.1887 15.0858 27.4983 14.8106L28.5 13.9201V19.75C28.5 20.1642 28.8358 20.5 29.25 20.5C29.6642 20.5 30 20.1642 30 19.75V12.25ZM18.5 12.25C18.5 11.8358 18.1642 11.5 17.75 11.5C17.3358 11.5 17 11.8358 17 12.25V19.7458C17 20.16 17.3358 20.4958 17.75 20.4958C18.1642 20.4958 18.5 20.16 18.5 19.7458V16.75H22.5V19.7458C22.5 20.16 22.8358 20.4958 23.25 20.4958C23.6642 20.4958 24 20.16 24 19.7458V12.25C24 11.8358 23.6642 11.5 23.25 11.5C22.8358 11.5 22.5 11.8358 22.5 12.25V15.25H18.5V12.25Z" fill="black"/>
</svg>
