<svg width="48" height="32" viewBox="0 0 48 32" fill="none" xmlns="http://www.w3.org/2000/svg">
<path fill-rule="evenodd" clip-rule="evenodd" d="M18.5 12.25C18.5 11.8358 18.1642 11.5 17.75 11.5C17.3358 11.5 17 11.8358 17 12.25V19.7458C17 20.16 17.3358 20.4958 17.75 20.4958C18.1642 20.4958 18.5 20.16 18.5 19.7458V16.75H22.5V19.7458C22.5 20.16 22.8358 20.4958 23.25 20.4958C23.6642 20.4958 24 20.16 24 19.7458V12.25C24 11.8358 23.6642 11.5 23.25 11.5C22.8358 11.5 22.5 11.8358 22.5 12.25V15.25H18.5V12.25ZM28.4003 14.7817C27.7619 14.7592 27.1105 14.867 26.5575 15.075L28.2729 13C29.1607 13.0001 29.5662 13.2513 30.074 13.5658L30.0799 13.5694C30.432 13.7875 30.8943 13.6789 31.1124 13.3267C31.3305 12.9746 31.2218 12.5123 30.8697 12.2942C30.2794 11.9286 29.5837 11.5002 28.273 11.5H28.2729C27.2812 11.5 26.4183 11.9238 25.8312 12.7548C25.2672 13.5531 25 14.6644 25 16C25 17.3255 25.2463 18.438 25.8016 19.2396C26.3851 20.0819 27.2547 20.5 28.2729 20.5C30.1896 20.5 31.5 19.2642 31.5 17.7045C31.5 16.7212 31.1124 15.9646 30.476 15.4675C29.8692 14.9935 29.1041 14.8066 28.4003 14.7817ZM27.0564 13.6202C26.8311 13.9391 26.6466 14.4137 26.5575 15.075L28.2728 13C27.7508 13 27.3523 13.2013 27.0564 13.6202ZM27.0346 18.3854C26.8017 18.0491 26.6174 17.536 26.5398 16.8048C26.5877 16.7493 26.7052 16.6404 26.9761 16.5232C27.3481 16.3622 27.849 16.2632 28.3474 16.2808C28.8501 16.2985 29.273 16.4312 29.5526 16.6496C29.8027 16.845 30 17.1538 30 17.7045C30 18.2849 29.5206 19 28.2729 19C27.7089 19 27.3171 18.7931 27.0346 18.3854Z" fill="black"/>
</svg>
