<svg width="48" height="32" viewBox="0 0 48 32" fill="none" xmlns="http://www.w3.org/2000/svg">
<path fill-rule="evenodd" clip-rule="evenodd" d="M18.5 12.25C18.5 11.8358 18.1642 11.5 17.75 11.5C17.3358 11.5 17 11.8358 17 12.25V19.7458C17 20.16 17.3358 20.4958 17.75 20.4958C18.1642 20.4958 18.5 20.16 18.5 19.7458V16.75H22.5V19.7458C22.5 20.16 22.8358 20.4958 23.25 20.4958C23.6642 20.4958 24 20.16 24 19.7458V12.25C24 11.8358 23.6642 11.5 23.25 11.5C22.8358 11.5 22.5 11.8358 22.5 12.25V15.25H18.5V12.25ZM26.6144 13.7458C26.8159 13.2421 27.3038 12.9118 27.8463 12.9118H28.1262C28.5899 12.9118 28.9843 13.2501 29.0548 13.7084L29.0824 13.8876C29.176 14.496 28.7743 15.0703 28.1707 15.191L27.3702 15.3511C27.0366 15.4178 26.8079 15.7266 26.8415 16.0652C26.875 16.4038 27.1598 16.6618 27.5 16.6618H28.7105C29.2523 16.6618 29.6684 17.1416 29.5918 17.6779C29.4871 18.4111 28.9111 18.9871 28.1779 19.0918L28.0746 19.1066C27.3385 19.2117 26.6131 18.8547 26.2474 18.2073L26.2289 18.1745C26.0492 17.8563 25.6455 17.7441 25.3272 17.9238C25.009 18.1036 24.8968 18.5072 25.0765 18.8255L25.095 18.8582C25.7289 19.9804 26.986 20.5991 28.2618 20.4168L28.3651 20.402C29.6806 20.2141 30.7141 19.1806 30.902 17.8651C31.0337 16.9438 30.5805 16.0895 29.8436 15.6493C30.284 15.1219 30.5027 14.4155 30.3905 13.6863L30.363 13.5072C30.1931 12.4032 29.2432 11.5882 28.1262 11.5882H27.8463C26.7626 11.5882 25.788 12.248 25.3856 13.2542C25.2498 13.5936 25.4149 13.9787 25.7542 14.1144C26.0936 14.2502 26.4787 14.0851 26.6144 13.7458Z" fill="black"/>
</svg>
