<svg width="48" height="32" viewBox="0 0 48 32" fill="none" xmlns="http://www.w3.org/2000/svg">
<path fill-rule="evenodd" clip-rule="evenodd" d="M20.76 9.49945C19.4822 9.49945 18.395 9.959 17.6329 10.7956C16.878 11.6242 16.5 12.7578 16.5 14.0129C16.5 16.1925 17.6094 17.9304 19.0191 19.2806C20.4238 20.626 22.1892 21.649 23.6525 22.4141C23.8692 22.5274 24.1275 22.5279 24.3446 22.4156C25.8079 21.6586 27.5728 20.6279 28.9784 19.276C30.3872 17.921 31.5 16.1783 31.5 14.0129C31.5 12.7535 31.1199 11.6195 30.3637 10.7919C29.6005 9.95665 28.5137 9.49945 27.24 9.49945C26.0662 9.49945 24.8282 10.0501 23.9991 11.1249C23.1667 10.0496 21.9239 9.49945 20.76 9.49945ZM18 14.0129C18 13.0533 18.2867 12.3052 18.7417 11.8057C19.1895 11.3143 19.8573 10.9995 20.76 10.9995C21.6595 10.9995 22.7008 11.5456 23.1895 12.6882L22.0657 15.193C21.9102 15.5396 22.0384 15.9477 22.3641 16.1431L24.3746 17.3494L23.4687 20.6103C22.282 19.9463 21.0529 19.1516 20.0567 18.1973C18.8161 17.009 18 15.6365 18 14.0129ZM25.1185 20.2754C26.1119 19.6856 27.1062 18.9955 27.9386 18.1949C29.1825 16.9985 30 15.6204 30 14.0129C30 13.0499 29.7118 12.3022 29.2563 11.8037C28.8078 11.3128 28.1397 10.9995 27.24 10.9995C26.2663 10.9995 25.1516 11.6241 24.7153 12.9396C24.7102 12.9557 24.7046 12.9717 24.6983 12.9876C24.6931 13.001 24.6875 13.0142 24.6815 13.0272L23.7069 15.1995L25.6359 16.3569C25.9251 16.5304 26.0629 16.8757 25.9726 17.2007L25.1185 20.2754Z" fill="black"/>
</svg>
