<svg width="48" height="56" viewBox="0 0 48 56" fill="none" xmlns="http://www.w3.org/2000/svg">
<path fill-rule="evenodd" clip-rule="evenodd" d="M17.6329 10.7956C18.395 9.959 19.4822 9.49945 20.76 9.49945C21.9239 9.49945 23.1667 10.0496 23.9991 11.1249C24.8282 10.0501 26.0662 9.49945 27.24 9.49945C28.5137 9.49945 29.6005 9.95665 30.3637 10.7919C31.1199 11.6195 31.5 12.7535 31.5 14.0129C31.5 16.1783 30.3872 17.921 28.9784 19.276C27.5728 20.6279 25.8079 21.6586 24.3446 22.4156C24.1275 22.5279 23.8692 22.5274 23.6525 22.4141C22.1892 21.649 20.4237 20.626 19.0191 19.2806C17.6094 17.9304 16.5 16.1925 16.5 14.0129C16.5 12.7578 16.878 11.6242 17.6329 10.7956ZM18.7417 11.8057C18.2867 12.3052 18 13.0533 18 14.0129C18 15.6365 18.8161 17.009 20.0567 18.1973C21.2031 19.2954 22.6578 20.1822 24.0015 20.9018C25.3373 20.1914 26.7916 19.2981 27.9386 18.1949C29.1825 16.9985 30 15.6204 30 14.0129C30 13.0499 29.7118 12.3022 29.2563 11.8037C28.8078 11.3128 28.1397 10.9995 27.24 10.9995C26.2641 10.9995 25.1468 11.6268 24.7125 12.9482C24.6113 13.256 24.324 13.464 24 13.464C23.676 13.464 23.3887 13.256 23.2875 12.9482C22.8537 11.6282 21.7252 10.9995 20.76 10.9995C19.8573 10.9995 19.1895 11.3143 18.7417 11.8057Z" fill="black"/>
<path fill-rule="evenodd" clip-rule="evenodd" d="M20.76 33.4995C19.4822 33.4995 18.395 33.959 17.6329 34.7956C16.878 35.6242 16.5 36.7578 16.5 38.0129C16.5 40.1925 17.6094 41.9304 19.0191 43.2806C20.4237 44.626 22.1892 45.649 23.6525 46.4141C23.8692 46.5274 24.1275 46.5279 24.3446 46.4156C25.8079 45.6586 27.5728 44.6279 28.9784 43.276C30.3872 41.921 31.5 40.1783 31.5 38.0129C31.5 36.7535 31.1199 35.6195 30.3637 34.7919C29.6006 33.9567 28.5137 33.4995 27.24 33.4995C26.1638 33.4995 25.2739 33.8976 24.5973 34.65C24.3707 34.902 24.1728 35.1882 24 35.5036C23.8272 35.1882 23.6293 34.902 23.4027 34.65C22.7261 33.8976 21.8362 33.4995 20.76 33.4995Z" fill="black"/>
</svg>
