<svg width="48" height="32" viewBox="0 0 48 32" fill="none" xmlns="http://www.w3.org/2000/svg">
<path fill-rule="evenodd" clip-rule="evenodd" d="M20.76 9.49945C19.6373 9.49945 18.6582 9.85381 17.9162 10.5153C17.1773 11.1739 16.7232 12.0924 16.5644 13.138C16.5022 13.5475 16.7838 13.9299 17.1933 13.9921C17.6028 14.0543 17.9852 13.7727 18.0474 13.3632C18.1619 12.609 18.4746 12.027 18.9143 11.635C19.3509 11.2458 19.9622 10.9995 20.76 10.9995C21.7252 10.9995 22.8537 11.6282 23.2875 12.9482C23.3887 13.256 23.676 13.464 24 13.464C24.324 13.464 24.6113 13.256 24.7125 12.9482C25.1468 11.6268 26.2641 10.9995 27.24 10.9995C28.1397 10.9995 28.8078 11.3128 29.2563 11.8037C29.7118 12.3022 30 13.0499 30 14.0129C30 15.6204 29.1825 16.9985 27.9386 18.1949C26.7916 19.2981 25.3373 20.1914 24.0015 20.9018C22.663 20.185 21.2143 19.3022 20.0698 18.2099C19.7702 17.9239 19.2954 17.9349 19.0094 18.2346C18.7234 18.5342 18.7345 19.0089 19.0341 19.2949C20.4362 20.6332 22.1943 21.6516 23.6525 22.4141C23.8692 22.5274 24.1275 22.5279 24.3446 22.4156C25.8079 21.6586 27.5728 20.6279 28.9784 19.276C30.3872 17.921 31.5 16.1783 31.5 14.0129C31.5 12.7535 31.1199 11.6195 30.3637 10.7919C29.6005 9.95665 28.5137 9.49945 27.24 9.49945C26.0662 9.49945 24.8282 10.0501 23.9991 11.1249C23.1667 10.0496 21.9239 9.49945 20.76 9.49945ZM21.6103 13.8141C21.4866 13.641 21.2952 13.5285 21.0838 13.5047C20.8723 13.481 20.6608 13.5481 20.5017 13.6895L18.4649 15.5H16.75C16.3358 15.5 16 15.8358 16 16.25C16 16.6642 16.3358 17 16.75 17H18.75C18.9337 17 19.111 16.9326 19.2483 16.8106L20.8747 15.3649L22.8897 18.186C23.0287 18.3806 23.2522 18.4972 23.4913 18.5C23.7304 18.5028 23.9565 18.3913 24.1 18.2L25.375 16.5H27C27.4142 16.5 27.75 16.1642 27.75 15.75C27.75 15.3358 27.4142 15 27 15H25C24.7639 15 24.5416 15.1112 24.4 15.3L23.5148 16.4803L21.6103 13.8141Z" fill="black"/>
</svg>
