<svg width="48" height="32" viewBox="0 0 48 32" fill="none" xmlns="http://www.w3.org/2000/svg">
<path fill-rule="evenodd" clip-rule="evenodd" d="M28.25 10.5H19.75C19.3358 10.5 19 10.8358 19 11.25V12.75C19 13.1642 19.3358 13.5 19.75 13.5H20.25H28.25C28.6642 13.5 29 13.1642 29 12.75V11.25C29 10.8358 28.6642 10.5 28.25 10.5ZM28.25 15H21V18.13C21 18.8204 21.5596 19.38 22.25 19.38H23V19.25C23 18.0074 24.0074 17 25.25 17H28.25C29.4926 17 30.5 18.0074 30.5 19.25V20.75C30.5 21.9926 29.4926 23 28.25 23H25.25C24.051 23 23.071 22.0621 23.0037 20.88H22.25C20.7312 20.88 19.5 19.6488 19.5 18.13V14.9863C18.375 14.8619 17.5 13.9081 17.5 12.75V11.25C17.5 10.0074 18.5074 9 19.75 9H28.25C29.4926 9 30.5 10.0074 30.5 11.25V12.75C30.5 13.9926 29.4926 15 28.25 15ZM25.25 18.5H28.25C28.6642 18.5 29 18.8358 29 19.25V20.75C29 21.1642 28.6642 21.5 28.25 21.5H25.25C24.8358 21.5 24.5 21.1642 24.5 20.75V19.25C24.5 18.8358 24.8358 18.5 25.25 18.5Z" fill="black"/>
</svg>
