<svg width="48" height="32" viewBox="0 0 48 32" fill="none" xmlns="http://www.w3.org/2000/svg">
<path fill-rule="evenodd" clip-rule="evenodd" d="M28.5 20.6181C28.8069 20.3434 29 19.9443 29 19.5V14.9772C29 14.5115 28.7837 14.0722 28.4146 13.7883L24.9146 11.096C24.3754 10.6812 23.6246 10.6812 23.0854 11.096L19.5854 13.7883C19.5393 13.8238 19.4955 13.8617 19.4543 13.9018C19.1656 14.1824 19 14.5697 19 14.9772V19.5C19 19.9443 19.1931 20.3434 19.5 20.6181C19.7638 20.8542 20.1117 20.9983 20.4932 21C20.4954 21 20.4977 21 20.5 21L21 21V17.5C21 16.3954 21.8954 15.5 23 15.5H25C26.1046 15.5 27 16.3954 27 17.5V21H27.5C27.5023 21 27.5046 21 27.5068 21C27.8883 20.9983 28.2362 20.8542 28.5 20.6181ZM30.5 19.5C30.5 21.1569 29.1569 22.5 27.5 22.5H20.5C18.8431 22.5 17.5 21.1569 17.5 19.5V14.9772C17.5 14.0458 17.9326 13.1672 18.6709 12.5993L22.1709 9.90702C23.2492 9.07752 24.7508 9.07752 25.8291 9.90702L29.3291 12.5993C29.4214 12.6703 29.5089 12.7462 29.5914 12.8263C30.1688 13.3877 30.5 14.1622 30.5 14.9772V19.5ZM25.5 17.5C25.5 17.2238 25.2761 17 25 17H23C22.7239 17 22.5 17.2238 22.5 17.5V21H25.5V17.5Z" fill="black"/>
</svg>
