<svg width="48" height="32" viewBox="0 0 48 32" fill="none" xmlns="http://www.w3.org/2000/svg">
<path fill-rule="evenodd" clip-rule="evenodd" d="M23.25 10C22.8358 10 22.5 10.3358 22.5 10.75C22.5 11.1642 22.8358 11.5 23.25 11.5H24.5669L21.8669 20.5H20.25C19.8358 20.5 19.5 20.8358 19.5 21.25C19.5 21.6642 19.8358 22 20.25 22H24.75C25.1642 22 25.5 21.6642 25.5 21.25C25.5 20.8358 25.1642 20.5 24.75 20.5H23.433L26.133 11.5H27.75C28.1642 11.5 28.5 11.1642 28.5 10.75C28.5 10.3358 28.1642 10 27.75 10H23.25Z" fill="black"/>
</svg>
