<svg width="48" height="32" viewBox="0 0 48 32" fill="none" xmlns="http://www.w3.org/2000/svg">
<path fill-rule="evenodd" clip-rule="evenodd" d="M26.3129 15.4882L25 15.6533V16.9765V21.0229C25 21.2424 24.8569 21.4362 24.6471 21.5008L23.0275 21.9992C23.0255 21.9998 23.0234 22.0001 23.0213 22.0001C23.0178 22.0001 23.016 21.9998 23.0154 21.9997L23.0135 21.9991C23.012 21.9985 23.0093 21.9969 23.0062 21.9939C23.0032 21.9909 23.0017 21.9882 23.0011 21.9867L23.0005 21.9848L23.0003 21.9836C23.0002 21.9826 23 21.9811 23 21.9789V16.9765V15.6533L21.6872 15.4882C21.0732 15.411 20.5607 14.9588 20.4159 14.3436L19.8277 11.8436C19.6062 10.902 20.3206 10 21.2878 10H26.7122C27.6795 10 28.3939 10.902 28.1723 11.8436L27.5841 14.3436C27.4394 14.9588 26.9269 15.411 26.3129 15.4882ZM29.0442 14.6871C28.7545 15.9186 27.7294 16.8219 26.5 16.9765V21.0229C26.5 21.9009 25.9274 22.6762 25.0883 22.9344L23.4687 23.4329C23.3237 23.4775 23.1729 23.5001 23.0213 23.5001C22.1811 23.5001 21.5 22.8191 21.5 21.9789V16.9765C20.2706 16.8219 19.2456 15.9186 18.9558 14.6871L18.3676 12.1871C17.9245 10.304 19.3533 8.5 21.2878 8.5H26.7122C28.6468 8.5 30.0756 10.304 29.6325 12.1871L29.0442 14.6871ZM22.75 11.5C22.3358 11.5 22 11.8358 22 12.25C22 12.6642 22.3358 13 22.75 13H25.25C25.6642 13 26 12.6642 26 12.25C26 11.8358 25.6642 11.5 25.25 11.5H22.75Z" fill="black"/>
</svg>
