<svg width="48" height="32" viewBox="0 0 48 32" fill="none" xmlns="http://www.w3.org/2000/svg">
<path fill-rule="evenodd" clip-rule="evenodd" d="M19 12H29C29.8284 12 30.5 12.6716 30.5 13.5V18.5C30.5 19.3284 29.8284 20 29 20H19C18.1716 20 17.5 19.3284 17.5 18.5V13.5C17.5 12.6716 18.1716 12 19 12ZM16 13.5C16 11.8431 17.3431 10.5 19 10.5H29C30.6569 10.5 32 11.8431 32 13.5V18.5C32 20.1569 30.6569 21.5 29 21.5H19C17.3431 21.5 16 20.1569 16 18.5V13.5ZM22.25 16.75C21.8358 16.75 21.5 17.0858 21.5 17.5C21.5 17.9142 21.8358 18.25 22.25 18.25H25.75C26.1642 18.25 26.5 17.9142 26.5 17.5C26.5 17.0858 26.1642 16.75 25.75 16.75H22.25ZM20.5 14.5C20.5 15.0523 20.0523 15.5 19.5 15.5C18.9477 15.5 18.5 15.0523 18.5 14.5C18.5 13.9477 18.9477 13.5 19.5 13.5C20.0523 13.5 20.5 13.9477 20.5 14.5ZM22.5 15.5C23.0523 15.5 23.5 15.0523 23.5 14.5C23.5 13.9477 23.0523 13.5 22.5 13.5C21.9477 13.5 21.5 13.9477 21.5 14.5C21.5 15.0523 21.9477 15.5 22.5 15.5ZM26.5 14.5C26.5 15.0523 26.0523 15.5 25.5 15.5C24.9477 15.5 24.5 15.0523 24.5 14.5C24.5 13.9477 24.9477 13.5 25.5 13.5C26.0523 13.5 26.5 13.9477 26.5 14.5ZM28.5 15.5C29.0523 15.5 29.5 15.0523 29.5 14.5C29.5 13.9477 29.0523 13.5 28.5 13.5C27.9477 13.5 27.5 13.9477 27.5 14.5C27.5 15.0523 27.9477 15.5 28.5 15.5ZM20.5 17.5C20.5 18.0523 20.0523 18.5 19.5 18.5C18.9477 18.5 18.5 18.0523 18.5 17.5C18.5 16.9477 18.9477 16.5 19.5 16.5C20.0523 16.5 20.5 16.9477 20.5 17.5ZM28.5 18.5C29.0523 18.5 29.5 18.0523 29.5 17.5C29.5 16.9477 29.0523 16.5 28.5 16.5C27.9477 16.5 27.5 16.9477 27.5 17.5C27.5 18.0523 27.9477 18.5 28.5 18.5Z" fill="black"/>
</svg>
