<svg width="48" height="32" viewBox="0 0 48 32" fill="none" xmlns="http://www.w3.org/2000/svg">
<path fill-rule="evenodd" clip-rule="evenodd" d="M18.7889 13.2826L22.8262 11.2639C23.1734 11.0904 23.5562 11 23.9443 11H24.0557C24.4438 11 24.8266 11.0904 25.1738 11.2639L29.2111 13.2826C29.3882 13.3711 29.5 13.5521 29.5 13.75C29.5 13.9479 29.3882 14.1289 29.2111 14.2174L25.1738 16.2361C24.8266 16.4096 24.4438 16.5 24.0557 16.5H23.9443C23.5562 16.5 23.1734 16.4096 22.8262 16.2361L18.7889 14.2174C18.6118 14.1289 18.5 13.9479 18.5 13.75C18.5 13.5521 18.6118 13.3711 18.7889 13.2826ZM17 13.75C17 12.9839 17.4328 12.2836 18.118 11.941L22.1554 9.92229C22.7108 9.64458 23.3233 9.5 23.9443 9.5H24.0557C24.6767 9.5 25.2892 9.64458 25.8446 9.92229L29.882 11.941C30.5672 12.2836 31 12.9839 31 13.75C31 14.5161 30.5672 15.2164 29.882 15.559L29.0001 16L29.882 16.4409C30.5672 16.7835 31 17.4838 31 18.2499C31 19.016 30.5672 19.7163 29.882 20.0589L25.8446 22.0776C25.2892 22.3553 24.6767 22.4999 24.0557 22.4999H23.9443C23.3233 22.4999 22.7108 22.3553 22.1554 22.0776L18.118 20.0589C17.4328 19.7163 17 19.016 17 18.2499C17 17.4838 17.4328 16.7835 18.118 16.4409L18.9999 16L18.118 15.559C17.4328 15.2164 17 14.5161 17 13.75ZM20.677 16.8385L18.7889 17.7825C18.6118 17.871 18.5 18.052 18.5 18.2499C18.5 18.4478 18.6118 18.6288 18.7889 18.7173L22.8262 20.736C23.1734 20.9095 23.5562 20.9999 23.9443 20.9999H24.0557C24.4438 20.9999 24.8266 20.9095 25.1738 20.736L29.2111 18.7173C29.3882 18.6288 29.5 18.4478 29.5 18.2499C29.5 18.052 29.3882 17.871 29.2111 17.7825L27.323 16.8385L25.8446 17.5777C25.2892 17.8554 24.6767 18 24.0557 18H23.9443C23.3233 18 22.7108 17.8554 22.1554 17.5777L20.677 16.8385Z" fill="black"/>
</svg>
