<svg width="48" height="32" viewBox="0 0 48 32" fill="none" xmlns="http://www.w3.org/2000/svg">
<path fill-rule="evenodd" clip-rule="evenodd" d="M21.2827 21.2111L19.264 17.1738C19.0904 16.8266 19.0001 16.4438 19.0001 16.0557L19.0001 15.9443C19.0001 15.5562 19.0904 15.1734 19.264 14.8262L21.2827 10.7889C21.3712 10.6118 21.5521 10.5 21.7501 10.5C21.948 10.5 22.1289 10.6118 22.2174 10.7889L24.2361 14.8262C24.4097 15.1734 24.5001 15.5562 24.5001 15.9443L24.5001 16.0557C24.5001 16.4438 24.4097 16.8266 24.2361 17.1738L22.2174 21.2111C22.1289 21.3882 21.948 21.5 21.7501 21.5C21.5521 21.5 21.3712 21.3882 21.2827 21.2111ZM21.7501 23C20.984 23 20.2836 22.5672 19.941 21.882L17.9224 17.8446C17.6446 17.2892 17.5001 16.6767 17.5001 16.0557L17.5001 15.9443C17.5001 15.3233 17.6446 14.7108 17.9224 14.1554L19.941 10.118C20.2836 9.43283 20.984 9 21.7501 9C22.5161 9 23.2165 9.43283 23.5591 10.118L24 10.9999L24.441 10.118C24.7836 9.43283 25.4839 9 26.25 9C27.0161 9 27.7164 9.43283 28.059 10.118L30.0777 14.1554C30.3554 14.7108 30.5 15.3233 30.5 15.9443L30.5 16.0557C30.5 16.6767 30.3554 17.2892 30.0777 17.8446L28.059 21.882C27.7164 22.5672 27.0161 23 26.25 23C25.4839 23 24.7836 22.5672 24.441 21.882L24 21.0001L23.5591 21.882C23.2165 22.5672 22.5161 23 21.7501 23ZM24.8385 19.323L25.7826 21.2111C25.8711 21.3882 26.052 21.5 26.25 21.5C26.4479 21.5 26.6288 21.3882 26.7173 21.2111L28.736 17.1738C28.9096 16.8266 29 16.4438 29 16.0557L29 15.9443C29 15.5562 28.9096 15.1734 28.736 14.8262L26.7173 10.7889C26.6288 10.6118 26.4479 10.5 26.25 10.5C26.052 10.5 25.8711 10.6118 25.7826 10.7889L24.8385 12.677L25.5778 14.1554C25.8555 14.7108 26.0001 15.3233 26.0001 15.9443L26.0001 16.0557C26.0001 16.6767 25.8555 17.2892 25.5778 17.8446L24.8385 19.323Z" fill="black"/>
</svg>
