<svg width="48" height="32" viewBox="0 0 48 32" fill="none" xmlns="http://www.w3.org/2000/svg">
<g clip-path="url(#clip0_74_2956)">
<path fill-rule="evenodd" clip-rule="evenodd" d="M22.7022 11.0133L24 11.5V10.386C24 8.98955 25.3947 8.02299 26.7022 8.51331L30.0534 9.76998C31.2243 10.2091 32 11.3284 32 12.579V16.614C32 18.0104 30.6053 18.9769 29.2978 18.4866L28 18V19.114C28 20.5104 26.6053 21.4769 25.2978 20.9866L24 20.5V21.614C24 23.0104 22.6053 23.977 21.2978 23.4867L17.9466 22.23C16.7757 21.7909 16 20.6715 16 19.421V15.386C16 13.9896 17.3947 13.023 18.7022 13.5133L20 14V12.886C20 11.4896 21.3947 10.523 22.7022 11.0133ZM21.5 14.5625L22.0534 14.77C23.2243 15.2091 24 16.3285 24 17.579V18.898L25.8244 19.5821C26.1513 19.7047 26.5 19.4631 26.5 19.114V15.079C26.5 14.4537 26.1121 13.894 25.5267 13.6745L22.1756 12.4178C21.8487 12.2952 21.5 12.5369 21.5 12.886V14.5625ZM26.0534 12.27L25.5 12.0625V10.386C25.5 10.0369 25.8487 9.79522 26.1756 9.9178L29.5267 11.1745C30.1121 11.394 30.5 11.9537 30.5 12.579V16.614C30.5 16.9631 30.1513 17.2047 29.8244 17.0821L28 16.398V15.079C28 13.8284 27.2243 12.7091 26.0534 12.27ZM17.5 19.421V15.386C17.5 15.0369 17.8487 14.7953 18.1756 14.9178L21.5267 16.1745C22.1121 16.3941 22.5 16.9537 22.5 17.579V21.614C22.5 21.9631 22.1513 22.2047 21.8244 22.0822L18.4733 20.8255C17.8879 20.6059 17.5 20.0463 17.5 19.421Z" fill="black"/>
</g>
<defs>
<clipPath id="clip0_74_2956">
<rect width="16" height="16" fill="white" transform="translate(16 8)"/>
</clipPath>
</defs>
</svg>
