<svg width="48" height="32" viewBox="0 0 48 32" fill="none" xmlns="http://www.w3.org/2000/svg">
<g clip-path="url(#clip0_74_5445)">
<path fill-rule="evenodd" clip-rule="evenodd" d="M21 20.5H19C18.4477 20.5 18 20.0523 18 19.5V12.5C18 11.9477 18.4477 11.5 19 11.5H21C21.5523 11.5 22 11.9477 22 12.5V19.5C22 20.0523 21.5523 20.5 21 20.5ZM19 22H21C22.3807 22 23.5 20.8807 23.5 19.5V12.5C23.5 11.1193 22.3807 10 21 10H19C17.6193 10 16.5 11.1193 16.5 12.5V19.5C16.5 20.8807 17.6193 22 19 22ZM29 20.5H27C26.4477 20.5 26 20.0523 26 19.5V12.5C26 11.9477 26.4477 11.5 27 11.5H29C29.5523 11.5 30 11.9477 30 12.5V19.5C30 20.0523 29.5523 20.5 29 20.5ZM27 22H29C30.3807 22 31.5 20.8807 31.5 19.5V12.5C31.5 11.1193 30.3807 10 29 10H27C25.6193 10 24.5 11.1193 24.5 12.5V19.5C24.5 20.8807 25.6193 22 27 22Z" fill="black"/>
</g>
<defs>
<clipPath id="clip0_74_5445">
<rect width="16" height="16" fill="white" transform="translate(16 8)"/>
</clipPath>
</defs>
</svg>
