<svg width="48" height="32" viewBox="0 0 48 32" fill="none" xmlns="http://www.w3.org/2000/svg">
<g clip-path="url(#clip0_74_5457)">
<path fill-rule="evenodd" clip-rule="evenodd" d="M19 20.5H18.5C18.2239 20.5 18 20.2761 18 20V12C18 11.7239 18.2239 11.5 18.5 11.5H19C19.2761 11.5 19.5 11.7239 19.5 12V20C19.5 20.2761 19.2761 20.5 19 20.5ZM18.5 22H19C20.1046 22 21 21.1046 21 20V12C21 10.8954 20.1046 10 19 10H18.5C17.3954 10 16.5 10.8954 16.5 12V20C16.5 21.1046 17.3954 22 18.5 22ZM29 20.5H24.5C23.9477 20.5 23.5 20.0523 23.5 19.5V12.5C23.5 11.9477 23.9477 11.5 24.5 11.5H29C29.5523 11.5 30 11.9477 30 12.5V19.5C30 20.0523 29.5523 20.5 29 20.5ZM24.5 22H29C30.3807 22 31.5 20.8807 31.5 19.5V12.5C31.5 11.1193 30.3807 10 29 10H24.5C23.1193 10 22 11.1193 22 12.5V19.5C22 20.8807 23.1193 22 24.5 22Z" fill="black"/>
</g>
<defs>
<clipPath id="clip0_74_5457">
<rect width="16" height="16" fill="white" transform="translate(16 8)"/>
</clipPath>
</defs>
</svg>
