<svg width="48" height="32" viewBox="0 0 48 32" fill="none" xmlns="http://www.w3.org/2000/svg">
<path fill-rule="evenodd" clip-rule="evenodd" d="M20 11.5H28C28.8284 11.5 29.5 12.1716 29.5 13V13.5L18.5 13.5V13C18.5 12.1716 19.1716 11.5 20 11.5ZM18.5 18.5V19C18.5 19.8284 19.1716 20.5 20 20.5H23.25V18.5H18.5ZM18.5 17H23.25V15H18.5V17ZM24.75 18.5V20.5H28C28.8284 20.5 29.5 19.8284 29.5 19V18.5H24.75ZM29.5 17H24.75V15H29.5V17ZM17 13C17 11.3431 18.3431 10 20 10H28C29.6569 10 31 11.3431 31 13V19C31 20.6569 29.6569 22 28 22H20C18.3431 22 17 20.6569 17 19V13Z" fill="black"/>
</svg>
