<svg width="48" height="32" viewBox="0 0 48 32" fill="none" xmlns="http://www.w3.org/2000/svg">
<path fill-rule="evenodd" clip-rule="evenodd" d="M20 11.5H28C28.8284 11.5 29.5 12.1716 29.5 13V13.5L18.5 13.5V13C18.5 12.1716 19.1716 11.5 20 11.5ZM18.5 18.5V19C18.5 19.8284 19.1716 20.5 20 20.5H23.25V18.5H18.5ZM18.5 17H23.25V15H18.5V17ZM24.75 18.5V20.5L24.75 22H20C18.3431 22 17 20.6569 17 19V13C17 11.3431 18.3431 10 20 10H28C29.6569 10 31 11.3431 31 13V15L29.5 15H24.75V17L24.75 18.5ZM28.4207 16.505C30.2156 16.505 31.6707 17.9601 31.6707 19.755C31.6707 21.5499 30.2156 23.005 28.4207 23.005H27.25C26.8358 23.005 26.5 22.6692 26.5 22.255V17.255C26.5 16.8408 26.8358 16.505 27.25 16.505H28.4207ZM28.4207 21.505C29.3872 21.505 30.1707 20.7215 30.1707 19.755C30.1707 18.7885 29.3872 18.005 28.4207 18.005H28V21.505H28.4207Z" fill="black"/>
</svg>
