<svg width="48" height="32" viewBox="0 0 48 32" fill="none" xmlns="http://www.w3.org/2000/svg">
<path fill-rule="evenodd" clip-rule="evenodd" d="M29.5 12V13C29.5 13.5523 29.0523 14 28.5 14L19.5 14C18.9477 14 18.5 13.5523 18.5 13L18.5 12C18.5 11.4477 18.9477 11 19.5 11L28.5 11C29.0523 11 29.5 11.4477 29.5 12ZM31 13V12C31 10.6193 29.8807 9.5 28.5 9.5H19.5C18.1193 9.5 17 10.6193 17 12V13C17 14.3807 18.1193 15.5 19.5 15.5L28.5 15.5C29.8807 15.5 31 14.3807 31 13ZM29.5 19V20C29.5 20.5523 29.0523 21 28.5 21L19.5 21C18.9477 21 18.5 20.5523 18.5 20L18.5 19C18.5 18.4477 18.9477 18 19.5 18L28.5 18C29.0523 18 29.5 18.4477 29.5 19ZM31 20V19C31 17.6193 29.8807 16.5 28.5 16.5L19.5 16.5C18.1193 16.5 17 17.6193 17 19V20C17 21.3807 18.1193 22.5 19.5 22.5L28.5 22.5C29.8807 22.5 31 21.3807 31 20Z" fill="black"/>
</svg>
