<svg width="48" height="32" viewBox="0 0 48 32" fill="none" xmlns="http://www.w3.org/2000/svg">
<path fill-rule="evenodd" clip-rule="evenodd" d="M19.9989 11.5L20.2414 11.5C20.7995 11.5 21.29 11.87 21.4433 12.4066L21.6144 13.0055C21.9517 14.1861 23.0308 15 24.2586 15L26.75 15L28.2574 15L28.2586 15L29.5 15L29.5 19C29.5 19.8284 28.8284 20.5 28 20.5L20 20.5C19.1716 20.5 18.5 19.8284 18.5 19L18.5 13C18.5 12.1719 19.171 11.5006 19.9989 11.5ZM29.5 13.5L28.2586 13.5L28.258 13.5C27.7002 13.4997 27.21 13.1298 27.0567 12.5934L26.8856 11.9945C26.8361 11.8213 26.7706 11.656 26.6911 11.5L28 11.5C28.8284 11.5 29.5 12.1716 29.5 13L29.5 13.5ZM24.2414 10L23 10L20.2414 10L20 10C19.9662 10 19.9325 10.0006 19.8989 10.0017C19.7784 10.0057 19.6597 10.0168 19.5431 10.0346C18.9553 10.1244 18.4236 10.3848 18.0001 10.7638C17.3863 11.3131 17 12.1114 17 13L17 19C17 20.6569 18.3431 22 20 22L28 22C29.6569 22 31 20.6569 31 19L31 13C31 11.3431 29.6569 10 28 10L24.2414 10ZM22.9991 11.5C22.9994 11.5 22.9997 11.5 23 11.5L24.2414 11.5C24.7995 11.5 25.29 11.87 25.4433 12.4066L25.6144 13.0055C25.6639 13.1787 25.7293 13.344 25.8089 13.5L24.2586 13.5C23.7005 13.5 23.21 13.13 23.0567 12.5934L22.8856 11.9945C22.8361 11.8213 22.7706 11.656 22.6911 11.5L22.9991 11.5Z" fill="black"/>
</svg>
