<svg width="48" height="32" viewBox="0 0 48 32" fill="none" xmlns="http://www.w3.org/2000/svg">
<path fill-rule="evenodd" clip-rule="evenodd" d="M28 11.5H26.75L26.75 20.5H28C28.8284 20.5 29.5 19.8284 29.5 19V13C29.5 12.1716 28.8284 11.5 28 11.5ZM22.75 11.5H25.25L25.25 20.5H22.75L22.75 11.5ZM21.25 11.5H20C19.1716 11.5 18.5 12.1716 18.5 13V19C18.5 19.8284 19.1716 20.5 20 20.5H21.25L21.25 11.5ZM20 10C18.3431 10 17 11.3431 17 13V19C17 20.6569 18.3431 22 20 22H28C29.6569 22 31 20.6569 31 19V13C31 11.3431 29.6569 10 28 10H20Z" fill="black"/>
</svg>
