<svg width="48" height="32" viewBox="0 0 48 32" fill="none" xmlns="http://www.w3.org/2000/svg">
<path fill-rule="evenodd" clip-rule="evenodd" d="M20 11.5H28C28.8284 11.5 29.5 12.1716 29.5 13V13.5L18.5 13.5V13C18.5 12.1716 19.1716 11.5 20 11.5ZM18.5 18.5V19C18.5 19.8284 19.1716 20.5 20 20.5H23.25V18.5H18.5ZM18.5 17H23.25V15H18.5V17ZM24.75 18.5V20.5L24.75 22H20C18.3431 22 17 20.6569 17 19V13C17 11.3431 18.3431 10 20 10H28C29.6569 10 31 11.3431 31 13V15L29.5 15H24.75V17L24.75 18.5ZM29.3415 17.5904C29.5267 17.2199 29.3765 16.7694 29.0061 16.5842C28.6356 16.3989 28.1851 16.5491 27.9998 16.9196L26.7498 19.4196C26.6336 19.6521 26.646 19.9282 26.7827 20.1493C26.9193 20.3704 27.1607 20.505 27.4207 20.505H28.7071L27.9998 21.9196C27.8146 22.2901 27.9648 22.7406 28.3352 22.9258C28.7057 23.1111 29.1562 22.9609 29.3415 22.5904L30.5915 20.0904C30.7077 19.8579 30.6953 19.5818 30.5586 19.3607C30.422 19.1396 30.1806 19.005 29.9207 19.005H28.6342L29.3415 17.5904Z" fill="black"/>
</svg>
