<svg width="48" height="32" viewBox="0 0 48 32" fill="none" xmlns="http://www.w3.org/2000/svg">
<g clip-path="url(#clip0_74_5463)">
<path fill-rule="evenodd" clip-rule="evenodd" d="M19 20.5H23.5C24.0523 20.5 24.5 20.0523 24.5 19.5V12.5C24.5 11.9477 24.0523 11.5 23.5 11.5H19C18.4477 11.5 18 11.9477 18 12.5V19.5C18 20.0523 18.4477 20.5 19 20.5ZM23.5 22H19C17.6193 22 16.5 20.8807 16.5 19.5V12.5C16.5 11.1193 17.6193 10 19 10H23.5C24.8807 10 26 11.1193 26 12.5V19.5C26 20.8807 24.8807 22 23.5 22ZM29 20.5H29.5C29.7761 20.5 30 20.2761 30 20V12C30 11.7239 29.7761 11.5 29.5 11.5H29C28.7239 11.5 28.5 11.7239 28.5 12V20C28.5 20.2761 28.7239 20.5 29 20.5ZM29.5 22H29C27.8954 22 27 21.1046 27 20V12C27 10.8954 27.8954 10 29 10H29.5C30.6046 10 31.5 10.8954 31.5 12V20C31.5 21.1046 30.6046 22 29.5 22Z" fill="black"/>
</g>
<defs>
<clipPath id="clip0_74_5463">
<rect width="16" height="16" fill="white" transform="translate(16 8)"/>
</clipPath>
</defs>
</svg>
