<svg width="48" height="32" viewBox="0 0 48 32" fill="none" xmlns="http://www.w3.org/2000/svg">
<g clip-path="url(#clip0_74_5469)">
<path fill-rule="evenodd" clip-rule="evenodd" d="M18.5 20.5H19C19.2761 20.5 19.5 20.2761 19.5 20V12C19.5 11.7239 19.2761 11.5 19 11.5H18.5C18.2239 11.5 18 11.7239 18 12V20C18 20.2761 18.2239 20.5 18.5 20.5ZM19 22H18.5C17.3954 22 16.5 21.1046 16.5 20V12C16.5 10.8954 17.3954 10 18.5 10H19C20.1046 10 21 10.8954 21 12V20C21 21.1046 20.1046 22 19 22ZM23.75 20.5H24.25C24.5261 20.5 24.75 20.2761 24.75 20V12C24.75 11.7239 24.5261 11.5 24.25 11.5H23.75C23.4739 11.5 23.25 11.7239 23.25 12V20C23.25 20.2761 23.4739 20.5 23.75 20.5ZM24.25 22H23.75C22.6454 22 21.75 21.1046 21.75 20V12C21.75 10.8954 22.6454 10 23.75 10H24.25C25.3546 10 26.25 10.8954 26.25 12V20C26.25 21.1046 25.3546 22 24.25 22ZM29.5 20.5H29C28.7239 20.5 28.5 20.2761 28.5 20V12C28.5 11.7239 28.7239 11.5 29 11.5H29.5C29.7761 11.5 30 11.7239 30 12V20C30 20.2761 29.7761 20.5 29.5 20.5ZM29 22H29.5C30.6046 22 31.5 21.1046 31.5 20V12C31.5 10.8954 30.6046 10 29.5 10H29C27.8954 10 27 10.8954 27 12V20C27 21.1046 27.8954 22 29 22Z" fill="black"/>
</g>
<defs>
<clipPath id="clip0_74_5469">
<rect width="16" height="16" fill="white" transform="translate(16 8)"/>
</clipPath>
</defs>
</svg>
