<svg width="48" height="32" viewBox="0 0 48 32" fill="none" xmlns="http://www.w3.org/2000/svg">
<path fill-rule="evenodd" clip-rule="evenodd" d="M20.0624 10C20.5161 10 20.9376 10.2343 21.177 10.6197L24 15.1624L26.823 10.6197C27.0624 10.2343 27.4839 10 27.9376 10C28.6624 10 29.25 10.5876 29.25 11.3124V21.25C29.25 21.6642 28.9142 22 28.5 22C28.0858 22 27.75 21.6642 27.75 21.25V11.9698L24.637 16.9792C24.5002 17.1994 24.2593 17.3333 24 17.3333C23.7407 17.3333 23.4998 17.1994 23.363 16.9792L20.25 11.9698V21.25C20.25 21.6642 19.9142 22 19.5 22C19.0858 22 18.75 21.6642 18.75 21.25V11.3124C18.75 10.5876 19.3376 10 20.0624 10Z" fill="black"/>
</svg>
