<svg width="48" height="32" viewBox="0 0 48 32" fill="none" xmlns="http://www.w3.org/2000/svg">
<path fill-rule="evenodd" clip-rule="evenodd" d="M26 10.75C26 10.3358 25.6642 10 25.25 10C24.8358 10 24.5 10.3358 24.5 10.75V15.75V18.2561C24.5 18.6703 24.8358 19.0061 25.25 19.0061C25.5193 19.0061 25.7554 18.8642 25.8877 18.6511C26.2672 18.8743 26.7223 19 27.25 19C29.0449 19 30 17.5449 30 15.75C30 13.9551 29.0449 12.5 27.25 12.5C26.7734 12.5 26.356 12.6026 26 12.7869V10.75ZM26 15.75C26 16.4 26.1747 16.8589 26.3804 17.1201C26.5542 17.3408 26.8043 17.5 27.25 17.5C27.6957 17.5 27.9458 17.3408 28.1196 17.1201C28.3253 16.8589 28.5 16.4 28.5 15.75C28.5 15.1 28.3253 14.6411 28.1196 14.3799C27.9458 14.1592 27.6957 14 27.25 14C26.8043 14 26.5542 14.1592 26.3804 14.3799C26.1747 14.6411 26 15.1 26 15.75ZM19.5792 14.3389C19.7632 14.229 19.8723 14.1653 20.0118 14.117C20.1436 14.0714 20.333 14.0305 20.6457 14.0305C21.0932 14.0305 21.3894 14.1735 21.5843 14.3963C21.7044 14.5336 21.8148 14.7342 21.8863 15.0183H20.5766C19.3144 15.0183 18.244 15.8669 18.25 17.0162C18.2525 17.4937 18.4183 18.0041 18.8111 18.3974C19.2105 18.7973 19.7741 19.0061 20.4384 19.0061C20.9685 19.0061 21.5293 18.8468 22.0224 18.535C22.1331 18.8111 22.4032 19.0061 22.7189 19.0061C23.1331 19.0061 23.4689 18.6703 23.4689 18.2561V15.7683C23.4689 14.8223 23.2324 14.0019 22.7132 13.4086C22.1825 12.8021 21.442 12.5305 20.6457 12.5305C20.1937 12.5305 19.835 12.5909 19.5211 12.6995C19.228 12.801 19.0009 12.9369 18.832 13.038L18.8097 13.0514C18.4541 13.2639 18.3382 13.7244 18.5507 14.0799C18.7632 14.4355 19.2237 14.5514 19.5792 14.3389ZM19.75 17.0083C19.7495 16.9136 19.9038 16.5183 20.5766 16.5183H21.835C21.5666 17.196 20.945 17.5061 20.4384 17.5061C20.0929 17.5061 19.939 17.404 19.8724 17.3374C19.7993 17.2642 19.7508 17.1526 19.75 17.0083ZM16 19.75C16 20.9926 17.0074 22 18.25 22H29.75C30.9926 22 32 20.9926 32 19.75V18.75C32 18.3358 31.6642 18 31.25 18C30.8358 18 30.5 18.3358 30.5 18.75V19.75C30.5 20.1642 30.1642 20.5 29.75 20.5H18.25C17.8358 20.5 17.5 20.1642 17.5 19.75V18.75C17.5 18.3358 17.1642 18 16.75 18C16.3358 18 16 18.3358 16 18.75V19.75Z" fill="black"/>
</svg>
