<svg width="48" height="32" viewBox="0 0 48 32" fill="none" xmlns="http://www.w3.org/2000/svg">
<path fill-rule="evenodd" clip-rule="evenodd" d="M24 21.5C25.2484 21.5 26.3996 21.0841 27.3226 20.3833L25.8874 18.948C25.3428 19.2974 24.6951 19.5 24 19.5C23.3049 19.5 22.6572 19.2974 22.1126 18.948L20.6774 20.3833C21.6004 21.0841 22.7516 21.5 24 21.5ZM21.052 17.8874C20.7026 17.3428 20.5 16.6951 20.5 16C20.5 15.3049 20.7026 14.6572 21.052 14.1126L19.6167 12.6774C18.9159 13.6004 18.5 14.7516 18.5 16C18.5 17.2484 18.9159 18.3996 19.6167 19.3226L21.052 17.8874ZM22.1126 13.052L20.6774 11.6167C21.6004 10.9159 22.7516 10.5 24 10.5C25.2484 10.5 26.3996 10.9159 27.3226 11.6167L25.8874 13.052C25.3428 12.7026 24.6951 12.5 24 12.5C23.3049 12.5 22.6572 12.7026 22.1126 13.052ZM26.948 14.1126C27.2974 14.6572 27.5 15.3049 27.5 16C27.5 16.6951 27.2974 17.3428 26.948 17.8874L28.3833 19.3226C29.0841 18.3996 29.5 17.2484 29.5 16C29.5 14.7516 29.0841 13.6004 28.3833 12.6774L26.948 14.1126ZM24 23C27.866 23 31 19.866 31 16C31 12.134 27.866 9 24 9C20.134 9 17 12.134 17 16C17 19.866 20.134 23 24 23ZM26 16C26 17.1046 25.1046 18 24 18C22.8954 18 22 17.1046 22 16C22 14.8954 22.8954 14 24 14C25.1046 14 26 14.8954 26 16Z" fill="black"/>
</svg>
