<svg width="48" height="32" viewBox="0 0 48 32" fill="none" xmlns="http://www.w3.org/2000/svg">
<path fill-rule="evenodd" clip-rule="evenodd" d="M24 17.0607L28.9697 22.0303C29.2626 22.3232 29.7374 22.3232 30.0303 22.0303C30.3232 21.7374 30.3232 21.2626 30.0303 20.9697L19.0303 9.96967C18.7374 9.67678 18.2626 9.67678 17.9697 9.96967C17.6768 10.2626 17.6768 10.7374 17.9697 11.0303L22.9393 16L21.4697 17.4697C21.1768 17.7626 21.1768 18.2374 21.4697 18.5303C21.7626 18.8232 22.2374 18.8232 22.5303 18.5303L24 17.0607ZM27.5404 16.3383L28.601 17.399L29.2574 16.7426C30.053 15.947 30.5 14.8679 30.5 13.7426C30.5 11.3995 28.6005 9.5 26.2574 9.5C25.1321 9.5 24.053 9.94699 23.2574 10.7426L22.601 11.399L23.6617 12.4596L24.318 11.8033C24.8324 11.289 25.53 11 26.2574 11C27.7721 11 29 12.2279 29 13.7426C29 14.47 28.711 15.1676 28.1967 15.682L27.5404 16.3383ZM25.4697 13.4697L25.0707 13.8686L26.1314 14.9293L26.5303 14.5303C26.8232 14.2374 26.8232 13.7626 26.5303 13.4697C26.2374 13.1768 25.7626 13.1768 25.4697 13.4697ZM19.2197 14.7803C19.5126 14.4874 19.9874 14.4874 20.2803 14.7803C20.5732 15.0732 20.5732 15.5481 20.2803 15.841L19.8033 16.318C19.289 16.8324 19 17.53 19 18.2574C19 19.7721 20.2279 21 21.7426 21C22.47 21 23.1676 20.711 23.682 20.1967L24.159 19.7197C24.4519 19.4268 24.9268 19.4268 25.2197 19.7197C25.5126 20.0126 25.5126 20.4874 25.2197 20.7803L24.7426 21.2574C23.947 22.053 22.8679 22.5 21.7426 22.5C19.3995 22.5 17.5 20.6005 17.5 18.2574C17.5 17.1321 17.947 16.053 18.7426 15.2574L19.2197 14.7803Z" fill="black"/>
</svg>
