<svg width="24" height="20" viewBox="0 0 24 20" fill="none" xmlns="http://www.w3.org/2000/svg">
<g clip-path="url(#clip0_6322_25515)">
<path fill-rule="evenodd" clip-rule="evenodd" d="M4.22222 20H19.7778C21.0051 20 22 19.0051 22 17.7778V2.22222C22 0.994923 21.0051 0 19.7778 0H4.22222C2.99492 0 2 0.994923 2 2.22222V17.7778C2 19.0051 2.99492 20 4.22222 20Z" fill="#007EBB"/>
<path fill-rule="evenodd" clip-rule="evenodd" d="M19.2222 17.2222H16.2543V12.1672C16.2543 10.7813 15.7277 10.0068 14.6308 10.0068C13.4374 10.0068 12.8139 10.8128 12.8139 12.1672V17.2222H9.9537V7.59259H12.8139V8.8897C12.8139 8.8897 13.6739 7.29839 15.7174 7.29839C17.7599 7.29839 19.2222 8.54568 19.2222 11.1253V17.2222ZM6.54149 6.33166C5.56724 6.33166 4.77778 5.53601 4.77778 4.55472C4.77778 3.57343 5.56724 2.77777 6.54149 2.77777C7.51573 2.77777 8.30472 3.57343 8.30472 4.55472C8.30472 5.53601 7.51573 6.33166 6.54149 6.33166ZM5.0646 17.2222H8.04706V7.59259H5.0646V17.2222Z" fill="white"/>
</g>
<defs>
<clipPath id="clip0_6322_25515">
<rect width="20" height="20" fill="white" transform="translate(2)"/>
</clipPath>
</defs>
</svg>
