<svg width="48" height="32" viewBox="0 0 48 32" fill="none" xmlns="http://www.w3.org/2000/svg">
<path fill-rule="evenodd" clip-rule="evenodd" d="M19.4697 14.5303C19.7626 14.2374 20.2374 14.2374 20.5303 14.5303C20.8232 14.8232 20.8232 15.2981 20.5303 15.591L19.8033 16.318C19.289 16.8324 19 17.53 19 18.2574C19 19.7721 20.2279 21 21.7426 21C22.47 21 23.1676 20.711 23.682 20.1967L24.409 19.4697C24.7019 19.1768 25.1768 19.1768 25.4697 19.4697C25.7626 19.7626 25.7626 20.2374 25.4697 20.5303L24.7426 21.2574C23.947 22.053 22.8679 22.5 21.7426 22.5C19.3995 22.5 17.5 20.6005 17.5 18.2574C17.5 17.1321 17.947 16.053 18.7426 15.2574L19.4697 14.5303ZM27.4697 16.409C27.1768 16.7019 27.1768 17.1768 27.4697 17.4697C27.7626 17.7626 28.2374 17.7626 28.5303 17.4697L29.2574 16.7426C30.053 15.947 30.5 14.8679 30.5 13.7426C30.5 11.3995 28.6005 9.5 26.2574 9.5C25.1321 9.5 24.053 9.94699 23.2574 10.7426L22.5303 11.4697C22.2374 11.7626 22.2374 12.2374 22.5303 12.5303C22.8232 12.8232 23.2981 12.8232 23.591 12.5303L24.318 11.8033C24.8324 11.289 25.53 11 26.2574 11C27.7721 11 29 12.2279 29 13.7426C29 14.47 28.711 15.1676 28.1967 15.682L27.4697 16.409ZM26.5303 14.5303C26.8232 14.2374 26.8232 13.7626 26.5303 13.4697C26.2374 13.1768 25.7626 13.1768 25.4697 13.4697L21.4697 17.4697C21.1768 17.7626 21.1768 18.2374 21.4697 18.5303C21.7626 18.8232 22.2374 18.8232 22.5303 18.5303L26.5303 14.5303Z" fill="black"/>
</svg>
