<svg width="48" height="32" viewBox="0 0 48 32" fill="none" xmlns="http://www.w3.org/2000/svg">
<path fill-rule="evenodd" clip-rule="evenodd" d="M21.75 8.5C21.3358 8.5 21 8.83579 21 9.25L21 22.75C21 23.1642 21.3358 23.5 21.75 23.5C22.1642 23.5 22.5 23.1642 22.5 22.75L22.5 9.25C22.5 8.83579 22.1642 8.5 21.75 8.5ZM19.75 12C19.75 12.6904 19.1904 13.25 18.5 13.25C17.8096 13.25 17.25 12.6904 17.25 12C17.25 11.3096 17.8096 10.75 18.5 10.75C19.1904 10.75 19.75 11.3096 19.75 12ZM23.75 12C23.75 11.5858 24.0858 11.25 24.5 11.25H30.25C30.6642 11.25 31 11.5858 31 12C31 12.4142 30.6642 12.75 30.25 12.75H24.5C24.0858 12.75 23.75 12.4142 23.75 12ZM23.75 20C23.75 19.5858 24.0858 19.25 24.5 19.25H30.25C30.6642 19.25 31 19.5858 31 20C31 20.4142 30.6642 20.75 30.25 20.75H24.5C24.0858 20.75 23.75 20.4142 23.75 20ZM24.5 15.25C24.0858 15.25 23.75 15.5858 23.75 16C23.75 16.4142 24.0858 16.75 24.5 16.75H30.25C30.6642 16.75 31 16.4142 31 16C31 15.5858 30.6642 15.25 30.25 15.25H24.5ZM18.5 17.25C19.1904 17.25 19.75 16.6904 19.75 16C19.75 15.3096 19.1904 14.75 18.5 14.75C17.8096 14.75 17.25 15.3096 17.25 16C17.25 16.6904 17.8096 17.25 18.5 17.25ZM19.75 20C19.75 20.6904 19.1904 21.25 18.5 21.25C17.8096 21.25 17.25 20.6904 17.25 20C17.25 19.3096 17.8096 18.75 18.5 18.75C19.1904 18.75 19.75 19.3096 19.75 20Z" fill="black"/>
</svg>
