<svg width="48" height="32" viewBox="0 0 48 32" fill="none" xmlns="http://www.w3.org/2000/svg">
<path fill-rule="evenodd" clip-rule="evenodd" d="M21.2803 10.2197C21.5732 10.5126 21.5732 10.9874 21.2803 11.2803L19.2803 13.2803C18.9874 13.5732 18.5126 13.5732 18.2197 13.2803L17.2197 12.2803C16.9268 11.9874 16.9268 11.5126 17.2197 11.2197C17.5126 10.9268 17.9874 10.9268 18.2803 11.2197L18.75 11.6893L20.2197 10.2197C20.5126 9.92678 20.9874 9.92678 21.2803 10.2197ZM22.5 11.75C22.5 12.1642 22.8358 12.5 23.25 12.5H30.25C30.6642 12.5 31 12.1642 31 11.75C31 11.3358 30.6642 11 30.25 11H23.25C22.8358 11 22.5 11.3358 22.5 11.75ZM23.25 15.25C22.8358 15.25 22.5 15.5858 22.5 16C22.5 16.4142 22.8358 16.75 23.25 16.75H30.25C30.6642 16.75 31 16.4142 31 16C31 15.5858 30.6642 15.25 30.25 15.25H23.25ZM21.2803 15.2803C21.5732 14.9874 21.5732 14.5126 21.2803 14.2197C20.9874 13.9268 20.5126 13.9268 20.2197 14.2197L18.75 15.6893L18.2803 15.2197C17.9874 14.9268 17.5126 14.9268 17.2197 15.2197C16.9268 15.5126 16.9268 15.9874 17.2197 16.2803L18.2197 17.2803C18.5126 17.5732 18.9874 17.5732 19.2803 17.2803L21.2803 15.2803ZM21.2803 18.4697C21.5732 18.7626 21.5732 19.2374 21.2803 19.5303L19.2803 21.5303C18.9874 21.8232 18.5126 21.8232 18.2197 21.5303L17.2197 20.5303C16.9268 20.2374 16.9268 19.7626 17.2197 19.4697C17.5126 19.1768 17.9874 19.1768 18.2803 19.4697L18.75 19.9393L20.2197 18.4697C20.5126 18.1768 20.9874 18.1768 21.2803 18.4697ZM23.25 19.5C22.8358 19.5 22.5 19.8358 22.5 20.25C22.5 20.6642 22.8358 21 23.25 21H30.25C30.6642 21 31 20.6642 31 20.25C31 19.8358 30.6642 19.5 30.25 19.5H23.25Z" fill="black"/>
</svg>
