<svg width="48" height="32" viewBox="0 0 48 32" fill="none" xmlns="http://www.w3.org/2000/svg">
<path fill-rule="evenodd" clip-rule="evenodd" d="M21.2803 10.2197C21.5732 10.5126 21.5732 10.9874 21.2803 11.2803L19.2803 13.2803C18.9874 13.5732 18.5126 13.5732 18.2197 13.2803L17.2197 12.2803C16.9268 11.9874 16.9268 11.5126 17.2197 11.2197C17.5126 10.9268 17.9874 10.9268 18.2803 11.2197L18.75 11.6893L20.2197 10.2197C20.5126 9.92678 20.9874 9.92678 21.2803 10.2197ZM23.25 11H30.25C30.6642 11 31 11.3358 31 11.75C31 12.1642 30.6642 12.5 30.25 12.5H23.25C22.8358 12.5 22.5 12.1642 22.5 11.75C22.5 11.3358 22.8358 11 23.25 11ZM21.2803 15.2803C21.5732 14.9874 21.5732 14.5126 21.2803 14.2197C20.9874 13.9268 20.5126 13.9268 20.2197 14.2197L18.75 15.6893L18.2803 15.2197C17.9874 14.9268 17.5126 14.9268 17.2197 15.2197C16.9268 15.5126 16.9268 15.9874 17.2197 16.2803L18.2197 17.2803C18.5126 17.5732 18.9874 17.5732 19.2803 17.2803L21.2803 15.2803ZM21.2803 18.4697C21.5732 18.7626 21.5732 19.2374 21.2803 19.5303L19.2803 21.5303C18.9874 21.8232 18.5126 21.8232 18.2197 21.5303L17.2197 20.5303C16.9268 20.2374 16.9268 19.7626 17.2197 19.4697C17.5126 19.1768 17.9874 19.1768 18.2803 19.4697L18.75 19.9393L20.2197 18.4697C20.5126 18.1768 20.9874 18.1768 21.2803 18.4697ZM24.4 17H24.5C24.5 15.6193 25.6193 14.5 27 14.5C28.3807 14.5 29.5 15.6193 29.5 17H29.6C30.3732 17 31 17.6268 31 18.4V20.6C31 21.3732 30.3732 22 29.6 22H24.4C23.6268 22 23 21.3732 23 20.6V18.4C23 17.6268 23.6268 17 24.4 17ZM27 16C27.5523 16 28 16.4477 28 17H26C26 16.4477 26.4477 16 27 16ZM24.5 18.5V20.5H29.5V18.5H24.5Z" fill="black"/>
</svg>
