<svg width="48" height="32" viewBox="0 0 48 32" fill="none" xmlns="http://www.w3.org/2000/svg">
<path fill-rule="evenodd" clip-rule="evenodd" d="M18.5 13C19.1904 13 19.75 12.4404 19.75 11.75C19.75 11.0596 19.1904 10.5 18.5 10.5C17.8096 10.5 17.25 11.0596 17.25 11.75C17.25 12.4404 17.8096 13 18.5 13ZM21.75 11C21.3358 11 21 11.3358 21 11.75C21 12.1642 21.3358 12.5 21.75 12.5H30.25C30.6642 12.5 31 12.1642 31 11.75C31 11.3358 30.6642 11 30.25 11H21.75ZM21.75 19.5C21.3358 19.5 21 19.8358 21 20.25C21 20.6642 21.3358 21 21.75 21H30.25C30.6642 21 31 20.6642 31 20.25C31 19.8358 30.6642 19.5 30.25 19.5H21.75ZM21 16C21 15.5858 21.3358 15.25 21.75 15.25H30.25C30.6642 15.25 31 15.5858 31 16C31 16.4142 30.6642 16.75 30.25 16.75H21.75C21.3358 16.75 21 16.4142 21 16ZM19.75 16C19.75 16.6904 19.1904 17.25 18.5 17.25C17.8096 17.25 17.25 16.6904 17.25 16C17.25 15.3096 17.8096 14.75 18.5 14.75C19.1904 14.75 19.75 15.3096 19.75 16ZM18.5 21.5C19.1904 21.5 19.75 20.9404 19.75 20.25C19.75 19.5596 19.1904 19 18.5 19C17.8096 19 17.25 19.5596 17.25 20.25C17.25 20.9404 17.8096 21.5 18.5 21.5Z" fill="black"/>
</svg>
