<svg width="48" height="32" viewBox="0 0 48 32" fill="none" xmlns="http://www.w3.org/2000/svg">
<path d="M19.4218 18.5048C19.5867 18.5287 19.7307 18.6342 19.8027 18.788C19.8849 18.9639 19.8579 19.1723 19.7333 19.3212L19.3915 19.7284C19.4851 19.7866 19.5704 19.8546 19.6455 19.9335C19.9038 20.2054 19.9999 20.5474 19.9999 20.8407C19.9998 21.2551 19.7635 21.5613 19.4882 21.7421C19.2196 21.9184 18.8867 21.9999 18.5683 21.9999C18.0518 21.9999 17.5366 21.759 17.3242 21.2948C17.2093 21.0437 17.3201 20.7467 17.5712 20.6317C17.8223 20.5169 18.1194 20.6278 18.2343 20.8788C18.2368 20.8836 18.2535 20.9119 18.3095 20.9423C18.366 20.973 18.4533 20.9999 18.5683 20.9999C18.7281 20.9998 18.8618 20.9571 18.9394 20.9062C18.976 20.8821 18.9909 20.8617 18.996 20.8534C18.9992 20.8482 18.9999 20.8462 18.9999 20.8407C18.9999 20.7549 18.9716 20.6754 18.9208 20.622C18.878 20.5769 18.772 20.5 18.5136 20.4999C18.3196 20.4999 18.1427 20.3876 18.0605 20.2118C17.9783 20.0359 18.0052 19.8276 18.1298 19.6786L18.2792 19.4999H17.9003C17.6242 19.4999 17.4003 19.276 17.4003 18.9999C17.4003 18.7238 17.6242 18.4999 17.9003 18.4999H19.3496L19.4218 18.5048ZM30.3271 19.5038C30.7051 19.5424 30.9999 19.8617 30.9999 20.2499C30.9999 20.6381 30.7051 20.9574 30.3271 20.996L30.2499 20.9999H21.7499C21.3357 20.9999 20.9999 20.6641 20.9999 20.2499C20.9999 19.8357 21.3357 19.4999 21.7499 19.4999H30.2499L30.3271 19.5038ZM18.6503 14.2499C18.9957 14.25 19.3174 14.3582 19.5537 14.5927C19.7889 14.8262 19.8906 15.1366 19.8906 15.4442C19.8904 15.9523 19.5688 16.2986 19.1298 16.7206C19.1233 16.7269 19.1162 16.7332 19.1093 16.7392L19.0966 16.7499H19.5898C19.8659 16.7499 20.0898 16.9738 20.0898 17.2499C20.0898 17.5261 19.8659 17.7499 19.5898 17.7499H17.7499C17.5409 17.7499 17.3539 17.6197 17.2812 17.4237C17.2086 17.2279 17.2655 17.0074 17.4238 16.871L18.4423 15.9931C18.6677 15.7761 18.7837 15.6474 18.8447 15.5566C18.8915 15.4867 18.8906 15.4637 18.8906 15.4442C18.8906 15.3547 18.8628 15.3168 18.8486 15.3026C18.835 15.2893 18.7861 15.25 18.6503 15.2499C18.5679 15.2499 18.4749 15.2793 18.4042 15.33C18.334 15.3804 18.3172 15.4273 18.3144 15.4462C18.2731 15.7189 18.0188 15.9069 17.746 15.8661C17.473 15.8251 17.2841 15.5698 17.3251 15.2968C17.377 14.9522 17.5854 14.6878 17.8212 14.5185C18.0568 14.3494 18.3524 14.2499 18.6503 14.2499ZM30.3271 15.2538C30.7051 15.2924 30.9999 15.6118 30.9999 15.9999C30.9999 16.3881 30.7051 16.7074 30.3271 16.746L30.2499 16.7499H21.7499C21.3357 16.7499 20.9999 16.4141 20.9999 15.9999C20.9999 15.5857 21.3357 15.2499 21.7499 15.2499H30.2499L30.3271 15.2538ZM18.414 10.0976C18.5658 9.98577 18.7682 9.96857 18.9365 10.0536C19.1047 10.1387 19.2109 10.3114 19.2109 10.4999V12.9999C19.2109 13.276 18.9869 13.4998 18.7109 13.4999C18.4347 13.4999 18.2109 13.2761 18.2109 12.9999V11.4755C17.9994 11.5745 17.7414 11.5153 17.5976 11.3202C17.4338 11.0979 17.4809 10.7848 17.7031 10.621L18.414 10.0976ZM30.3271 11.0038C30.7051 11.0424 30.9999 11.3617 30.9999 11.7499C30.9999 12.1381 30.7051 12.4574 30.3271 12.496L30.2499 12.4999H21.7499C21.3357 12.4999 20.9999 12.1641 20.9999 11.7499C20.9999 11.3357 21.3357 10.9999 21.7499 10.9999H30.2499L30.3271 11.0038Z" fill="black"/>
</svg>
