<svg width="48" height="32" viewBox="0 0 48 32" fill="none" xmlns="http://www.w3.org/2000/svg">
<path fill-rule="evenodd" clip-rule="evenodd" d="M26.5 14V13C26.5 11.6193 25.3807 10.5 24 10.5C22.6193 10.5 21.5 11.6193 21.5 13V14H26.5ZM20 13V14C18.3431 14 17 15.3431 17 17V20C17 21.6569 18.3431 23 20 23H28C29.6569 23 31 21.6569 31 20V17C31 15.3431 29.6569 14 28 14V13C28 10.7909 26.2091 9 24 9C21.7909 9 20 10.7909 20 13ZM26.5 15.5H28C28.8284 15.5 29.5 16.1716 29.5 17V20C29.5 20.8284 28.8284 21.5 28 21.5H20C19.1716 21.5 18.5 20.8284 18.5 20V17C18.5 16.1716 19.1716 15.5 20 15.5H21.5H26.5ZM24.75 17.5C24.75 17.0858 24.4142 16.75 24 16.75C23.5858 16.75 23.25 17.0858 23.25 17.5V19.5C23.25 19.9142 23.5858 20.25 24 20.25C24.4142 20.25 24.75 19.9142 24.75 19.5V17.5Z" fill="black"/>
</svg>
