<svg width="48" height="32" viewBox="0 0 48 32" fill="none" xmlns="http://www.w3.org/2000/svg">
<path fill-rule="evenodd" clip-rule="evenodd" d="M26.5 13C26.5 11.6193 25.3807 10.5 24 10.5C23.1627 10.5 22.4215 10.9116 21.9678 11.5436C21.7261 11.8802 21.3089 12.103 20.9158 11.9719C20.5228 11.8409 20.3046 11.4111 20.5069 11.0496C21.1912 9.82668 22.499 9 24 9C26.2091 9 28 10.7909 28 13V14H28C29.6569 14 31 15.3431 31 17V20C31 21.6569 29.6569 23 28 23H20C18.3431 23 17 21.6569 17 20V17C17 15.3431 18.3431 14 20 14H26.5V13ZM27.25 15.5H20C19.1716 15.5 18.5 16.1716 18.5 17V20C18.5 20.8284 19.1716 21.5 20 21.5H28C28.8284 21.5 29.5 20.8284 29.5 20V17C29.5 16.1716 28.8284 15.5 28 15.5H27.25ZM24 16.75C24.4142 16.75 24.75 17.0858 24.75 17.5V19.5C24.75 19.9142 24.4142 20.25 24 20.25C23.5858 20.25 23.25 19.9142 23.25 19.5V17.5C23.25 17.0858 23.5858 16.75 24 16.75Z" fill="black"/>
</svg>
