<svg width="48" height="32" viewBox="0 0 48 32" fill="none" xmlns="http://www.w3.org/2000/svg">
<path fill-rule="evenodd" clip-rule="evenodd" d="M25.0628 11.5H28C28.8284 11.5 29.5 12.1716 29.5 13V19C29.5 19.8284 28.8284 20.5 28 20.5H26.559C26.5498 20.4897 26.5402 20.4796 26.5303 20.4697C25.7803 19.7197 25.75 19.0451 25.75 17.25C25.75 16.8358 25.4142 16.5 25 16.5H23.7525C23.7706 14.6048 23.9151 13.0587 25.0628 11.5ZM23.2858 11.5H20C19.1716 11.5 18.5 12.1716 18.5 13V19C18.5 19.8284 19.1716 20.5 20 20.5H24.7137C24.3333 19.7392 24.2646 18.9256 24.2525 18H23C22.5858 18 22.25 17.6642 22.25 17.25L22.25 17.1803C22.2498 15.2892 22.2497 13.3888 23.2858 11.5ZM17 13C17 11.3431 18.3431 10 20 10H28C29.6569 10 31 11.3431 31 13V19C31 20.6569 29.6569 22 28 22H20C18.3431 22 17 20.6569 17 19V13ZM26.25 15.25C26.25 15.6642 26.5858 16 27 16C27.4142 16 27.75 15.6642 27.75 15.25V14.25C27.75 13.8358 27.4142 13.5 27 13.5C26.5858 13.5 26.25 13.8358 26.25 14.25V15.25ZM20.75 16C20.3358 16 20 15.6642 20 15.25L20 14.25C20 13.8358 20.3358 13.5 20.75 13.5C21.1642 13.5 21.5 13.8358 21.5 14.25V15.25C21.5 15.6642 21.1642 16 20.75 16Z" fill="black"/>
</svg>
