<svg width="48" height="32" viewBox="0 0 48 32" fill="none" xmlns="http://www.w3.org/2000/svg">
<path fill-rule="evenodd" clip-rule="evenodd" d="M25.3571 15H22.6428L23.7233 21.2669C23.7465 21.4016 23.8633 21.5 24 21.5C24.1366 21.5 24.2534 21.4016 24.2766 21.2669L25.3571 15ZM20.5111 11.4646L20.3576 10.7738C20.322 10.6138 20.1802 10.5 20.0163 10.5C19.8497 10.5 19.7062 10.6176 19.6735 10.781L18.5222 16.5375C18.5074 16.6113 18.5 16.6865 18.5 16.7618C18.5 17.1012 18.6508 17.4231 18.9115 17.6404L22.0229 20.2332L20.5111 11.4646ZM25.977 20.2333L29.0885 17.6404C29.3492 17.4231 29.5 17.1012 29.5 16.7618C29.5 16.6865 29.4926 16.6113 29.4778 16.5375L28.3265 10.781C28.2938 10.6176 28.1503 10.5 27.9837 10.5C27.8198 10.5 27.678 10.6138 27.6424 10.7738L27.4885 11.4663L25.977 20.2333ZM17.9512 18.7927L22.4437 22.5364C22.8032 22.836 23.2562 23 23.7241 23H24.2759C24.7438 23 25.1968 22.836 25.5563 22.5364L30.0488 18.7927C30.6515 18.2904 31 17.5464 31 16.7618C31 16.5877 30.9828 16.414 30.9487 16.2433L29.7974 10.4869C29.6245 9.62231 28.8654 9 27.9837 9C27.1168 9 26.3662 9.6021 26.1781 10.4484L25.5 13.5H22.5L21.8219 10.4484C21.6338 9.6021 20.8832 9 20.0163 9C19.1346 9 18.3755 9.62231 18.2026 10.4869L17.0513 16.2433C17.0172 16.414 17 16.5877 17 16.7618C17 17.5464 17.3485 18.2904 17.9512 18.7927Z" fill="black"/>
</svg>
