<svg width="48" height="32" viewBox="0 0 48 32" fill="none" xmlns="http://www.w3.org/2000/svg">
<path fill-rule="evenodd" clip-rule="evenodd" d="M22.8544 11.4695C23.4828 11.2668 24.1714 11.2984 24.7877 11.5723L25.4055 11.8469C25.4782 11.8792 25.5469 11.9158 25.6115 11.9561C25.6143 11.831 25.6219 11.7057 25.6345 11.5804L25.6841 11.0846C25.7689 10.2362 25.1027 9.5 24.25 9.5C23.3973 9.5 22.7311 10.2362 22.8159 11.0846L22.8544 11.4695ZM26.0974 14.1955C25.9901 14.3581 25.8493 14.5055 25.6741 14.6281L23.9495 15.8353C23.4493 16.1855 22.7547 16.0095 22.4817 15.4633L22.2514 15.0027L21.2618 17.2293C21.0892 17.6177 21 18.0379 21 18.4628C21 18.6416 21.0154 18.8168 21.0451 18.9871C21.5059 19.3199 21.8557 19.8042 22.0127 20.38L22.1358 20.8314C22.6563 21.2497 23.3175 21.5 24.0372 21.5H24.5775C24.6125 21.5 24.6475 21.4995 24.6822 21.4984L24.9873 20.38C25.29 19.27 26.3088 18.5 27.4593 18.5C27.6332 18.5 27.8031 18.5176 27.9675 18.551C27.9889 18.3962 28 18.2382 28 18.0775C28 17.3642 27.7771 16.6687 27.3625 16.0882L26.5214 14.9107C26.3591 14.6834 26.2175 14.444 26.0974 14.1955ZM29.3392 19.33C29.4441 18.9301 29.5 18.5103 29.5 18.0775C29.5 17.0515 29.1794 16.0512 28.5831 15.2163L27.742 14.0389C27.2637 13.3692 27.0451 12.5485 27.127 11.7297L27.1766 11.2339C27.3498 9.50242 25.9901 8 24.25 8C22.5099 8 21.1502 9.50242 21.3234 11.2339L21.4033 12.0332C21.4667 12.6668 21.364 13.306 21.1054 13.8879L19.8911 16.6201C19.6332 17.2003 19.5 17.828 19.5 18.4628C19.5 18.4754 19.5001 18.4878 19.5002 18.5003C18.123 18.522 17 19.6449 17 21.027C17 22.1865 17.7892 23.1973 18.9141 23.4785L20.8332 23.9583C20.944 23.986 21.0577 24 21.1719 24C21.9107 24 22.4873 23.4362 22.561 22.7545C23.0238 22.9136 23.5204 23 24.0372 23H24.4884C24.6571 23.5665 25.1802 24 25.8281 24C25.9423 24 26.056 23.986 26.1668 23.9583L28.0859 23.4785C29.2108 23.1973 30 22.1865 30 21.027C30 20.3738 29.7492 19.7785 29.3392 19.33ZM24.1785 12.943L24.7963 13.2176C24.8261 13.2309 24.8354 13.2429 24.8401 13.2497C24.8475 13.2604 24.8557 13.2787 24.8581 13.3033C24.8605 13.328 24.856 13.3476 24.8507 13.3595C24.8474 13.367 24.8406 13.3806 24.8139 13.3993L23.5641 14.2741L23.0153 13.1765C22.9857 13.1173 23.0067 13.0453 23.0634 13.0112C23.4018 12.8082 23.8179 12.7827 24.1785 12.943ZM19.2779 22.0233L21.0253 22.4601L20.5656 20.7747C20.4428 20.3244 20.0222 20 19.5407 20C18.9629 20 18.5 20.4704 18.5 21.027C18.5 21.4982 18.8207 21.909 19.2779 22.0233ZM25.9747 22.4601L27.7221 22.0233C28.1793 21.909 28.5 21.4982 28.5 21.027C28.5 20.4704 28.0371 20 27.4593 20C26.9778 20 26.5572 20.3244 26.4344 20.7747L25.9747 22.4601Z" fill="black"/>
</svg>
