<svg width="48" height="32" viewBox="0 0 48 32" fill="none" xmlns="http://www.w3.org/2000/svg">
<path fill-rule="evenodd" clip-rule="evenodd" d="M20 10.5H24.9792C25.5915 10.5 26.1825 10.7247 26.6401 11.1315L27.6172 12H23.5H23H21.6866C21.545 12 21.4041 11.9801 21.268 11.9409C21.0224 11.8701 20.7988 11.7381 20.618 11.5574L20.5265 11.4658C20.5262 11.4656 20.526 11.4653 20.5257 11.4651L19.6115 10.5508C19.7354 10.5177 19.8656 10.5 20 10.5ZM18.5508 11.6115C18.5177 11.7354 18.5 11.8656 18.5 12V16.9792C18.5 17.5915 18.7247 18.1825 19.1315 18.6401L20 19.6172V15.5V15V13.8172C20 13.6678 19.9817 13.5191 19.9455 13.3742C19.8652 13.0531 19.6991 12.7598 19.4651 12.5257L18.5508 11.6115ZM23 13.5C22.1716 13.5 21.5 14.1716 21.5 15V15.5V20C21.5 20.8284 22.1716 21.5 23 21.5H28C28.8284 21.5 29.5 20.8284 29.5 20V15C29.5 14.1716 28.8284 13.5 28 13.5H23.5H23ZM23 23H22.3472C21.4903 23 20.6743 22.6336 20.105 21.9931L18.0104 19.6367C17.3595 18.9045 17 17.9589 17 16.9792V12C17 10.3431 18.3431 9 20 9H24.9792C25.9589 9 26.9045 9.35951 27.6367 10.0104L29.9931 12.105C30.6336 12.6743 31 13.4903 31 14.3472V15V15.3902V20C31 21.6569 29.6569 23 28 23H23.3902H23ZM23.75 20C23.3358 20 23 19.6642 23 19.25V16.08C23 15.4835 23.4835 15 24.08 15C24.4291 15 24.7566 15.1687 24.9593 15.4528L26.5 17.6127V15.75C26.5 15.3358 26.8358 15 27.25 15C27.6642 15 28 15.3358 28 15.75V18.9178C28 19.5155 27.5155 20 26.9178 20C26.5681 20 26.2399 19.831 26.0368 19.5463L24.5 17.3919V19.25C24.5 19.6642 24.1642 20 23.75 20Z" fill="black"/>
</svg>
