<svg width="48" height="32" viewBox="0 0 48 32" fill="none" xmlns="http://www.w3.org/2000/svg">
<path fill-rule="evenodd" clip-rule="evenodd" d="M24 10.5C20.9624 10.5 18.5 12.9624 18.5 16C18.5 17.9396 19.5041 19.6459 21.0228 20.6255L21.8139 18.0545C21.3099 17.5182 21 16.7953 21 16C21 14.3431 22.3431 13 24 13C25.6569 13 27 14.3431 27 16C27 16.7953 26.6901 17.5182 26.1861 18.0545L26.9772 20.6255C28.4959 19.6459 29.5 17.9396 29.5 16C29.5 12.9624 27.0376 10.5 24 10.5ZM17 16C17 12.134 20.134 9 24 9C27.866 9 31 12.134 31 16C31 18.8593 29.2858 21.3165 26.8322 22.4032C26.6362 22.49 26.4124 22.4888 26.2174 22.3999C26.0223 22.311 25.8746 22.1429 25.8116 21.938L24.6113 18.037C24.5173 17.7316 24.6272 17.4001 24.885 17.2113C25.2593 16.9371 25.5 16.4967 25.5 16C25.5 15.1716 24.8284 14.5 24 14.5C23.1716 14.5 22.5 15.1716 22.5 16C22.5 16.4967 22.7407 16.9371 23.115 17.2113C23.3728 17.4001 23.4827 17.7316 23.3887 18.037L22.1884 21.938C22.1254 22.1429 21.9777 22.311 21.7826 22.3999C21.5876 22.4888 21.3638 22.49 21.1678 22.4032C18.7142 21.3165 17 18.8593 17 16Z" fill="black"/>
</svg>
