<svg width="48" height="32" viewBox="0 0 48 32" fill="none" xmlns="http://www.w3.org/2000/svg">
<path fill-rule="evenodd" clip-rule="evenodd" d="M27.7879 10.9741L24.75 11.4081V15.25H29.5V12.4591C29.5 11.5462 28.6915 10.845 27.7879 10.9741ZM29.5 16.75H24.75V20.5919L27.7879 21.0259C28.6915 21.155 29.5 20.4538 29.5 19.541V16.75ZM23.25 15.25V11.6224L19.7879 12.117C19.0489 12.2226 18.5 12.8554 18.5 13.6019V15.25H23.25ZM18.5 16.75H23.25V20.3777L19.7879 19.8831C19.0489 19.7775 18.5 19.1446 18.5 18.3981V16.75ZM19.5757 10.6321C18.0978 10.8432 17 12.109 17 13.6019V18.3981C17 19.8911 18.0978 21.1569 19.5757 21.368L27.5757 22.5109C29.383 22.769 31 21.3666 31 19.541V12.4591C31 10.6334 29.383 9.23103 27.5757 9.48921L19.5757 10.6321Z" fill="black"/>
</svg>
