<svg width="48" height="32" viewBox="0 0 48 32" fill="none" xmlns="http://www.w3.org/2000/svg">
<path fill-rule="evenodd" clip-rule="evenodd" d="M24.5 21.4776C27.3033 21.225 29.5 18.869 29.5 16C29.5 12.9624 27.0376 10.5 24 10.5C20.9624 10.5 18.5 12.9624 18.5 16C18.5 18.6961 20.4399 20.9391 23 21.4093V17.7499H21.75C21.3358 17.7499 21 17.4141 21 16.9999C21 16.5857 21.3358 16.2499 21.75 16.2499H23V15.2401C23 14.3565 23.2619 13.6719 23.7224 13.2081C24.1829 12.7444 24.8434 12.5 25.644 12.5C25.9172 12.5 26.2556 12.5399 26.5923 12.7128C26.9608 12.902 27.1061 13.3541 26.917 13.7226C26.7278 14.091 26.2757 14.2364 25.9072 14.0472C25.8544 14.0201 25.7756 14 25.644 14C25.1513 14 24.907 14.144 24.7868 14.2651C24.667 14.3857 24.5 14.6553 24.5 15.2401V16.2499H25.75C26.1642 16.2499 26.5 16.5857 26.5 16.9999C26.5 17.4141 26.1642 17.7499 25.75 17.7499H24.5V21.4776ZM24 23C27.866 23 31 19.866 31 16C31 12.134 27.866 9 24 9C20.134 9 17 12.134 17 16C17 19.866 20.134 23 24 23Z" fill="black"/>
</svg>
