<svg width="48" height="32" viewBox="0 0 48 32" fill="none" xmlns="http://www.w3.org/2000/svg">
<path fill-rule="evenodd" clip-rule="evenodd" d="M20 13.5L20.5 13.5L21.5 13.5L23.7523 13.5C24.1665 13.5 24.5023 13.1642 24.5023 12.75C24.5023 12.3358 24.1665 12 23.7523 12L21.5 12C21.5 11.1716 22.1716 10.5 23 10.5H25C25.8284 10.5 26.5 11.1716 26.5 12V12.4988L26.5 12.5L26.5 13.5L26.5 14C26.5 14.6904 25.9404 15.25 25.25 15.25H22.75C21.2312 15.25 20 16.4812 20 18L20 18.5C19.1716 18.5 18.5 17.8284 18.5 17V15C18.5 14.1716 19.1716 13.5 20 13.5ZM21.5 18.5V20C21.5 20.8284 22.1716 21.5 23 21.5H25C25.8284 21.5 26.5 20.8284 26.5 20H24.25C23.8358 20 23.5 19.6642 23.5 19.25C23.5 18.8358 23.8358 18.5 24.25 18.5H26.5H27.5023H28C28.8284 18.5 29.5 17.8284 29.5 17V15C29.5 14.1716 28.8284 13.5 28 13.5L28 14C28 15.5188 26.7688 16.75 25.25 16.75H22.75C22.0596 16.75 21.5 17.3096 21.5 18L21.5 18.5ZM23 9C21.3431 9 20 10.3431 20 12C18.3431 12 17 13.3431 17 15V17C17 18.6569 18.3431 20 20 20C20 21.6569 21.3431 23 23 23H25C26.6569 23 28 21.6569 28 20C29.6569 20 31 18.6569 31 17V15C31 13.3431 29.6569 12 28 12C28 10.3431 26.6569 9 25 9H23Z" fill="black"/>
</svg>
