<svg width="48" height="32" viewBox="0 0 48 32" fill="none" xmlns="http://www.w3.org/2000/svg">
<g clip-path="url(#clip0_74_4456)">
<path fill-rule="evenodd" clip-rule="evenodd" d="M23.3632 9.50042C23.2693 9.50657 22.9865 9.62166 22.9865 10.1221C22.9865 10.7155 23.1061 11.37 23.3226 12.0487C23.5318 11.2502 23.6419 10.586 23.6419 10.1221C23.6419 9.76336 23.5449 9.60894 23.4983 9.55731C23.4567 9.51123 23.414 9.49709 23.3632 9.50042ZM24.2484 14.1366C24.309 13.9623 24.3671 13.7897 24.4224 13.6194C24.8535 12.2927 25.1419 11.0319 25.1419 10.1221C25.1419 9.49697 24.9695 8.9487 24.6119 8.55244C24.2494 8.15063 23.7532 7.97168 23.2652 8.00362C22.2814 8.06802 21.4865 8.93688 21.4865 10.1221C21.4865 11.4364 21.9254 12.8803 22.6119 14.2523C22.252 15.2139 21.8186 16.2155 21.3447 17.1676C21.2793 17.2988 21.2134 17.4287 21.1469 17.5573C20.2475 17.8594 19.4019 18.2053 18.6719 18.5818C17.9578 18.95 17.32 19.365 16.8499 19.8224C16.3913 20.2689 16 20.848 16 21.536C16 22.0007 16.1574 22.4466 16.488 22.7786C16.8188 23.1108 17.2644 23.27 17.7297 23.27C18.2711 23.27 18.7684 23.0284 19.1884 22.723C19.6162 22.412 20.0324 21.9851 20.4276 21.4984C21.0321 20.7538 21.6306 19.8154 22.1855 18.7991C22.8244 18.6031 23.4902 18.4292 24.1592 18.2839C24.553 18.1984 24.9444 18.1236 25.3289 18.0602C25.8431 18.583 26.3845 19.0482 26.9354 19.4288C27.8604 20.0678 28.8798 20.5149 29.8784 20.5149C30.3853 20.5149 30.9119 20.3886 31.3279 20.0544C31.7659 19.7024 32 19.1837 32 18.5842C32 17.8267 31.5877 17.2717 31.017 16.9242C30.4815 16.5982 29.786 16.4343 29.0587 16.3619C28.1339 16.2699 27.0386 16.3153 25.8921 16.4619C25.7488 16.2979 25.6079 16.1284 25.4699 15.954C25.0133 15.3772 24.6005 14.7622 24.2484 14.1366ZM23.5732 15.8972C23.4203 16.263 23.2593 16.6294 23.0919 16.9923C23.3412 16.9305 23.5912 16.8723 23.8408 16.8181C23.9554 16.7932 24.0701 16.7691 24.1849 16.7458C23.9737 16.4726 23.7691 16.189 23.5732 15.8972ZM27.3072 17.8351C27.4676 17.9641 27.6281 18.0842 27.788 18.1947C28.5898 18.7486 29.3093 19.0149 29.8784 19.0149C30.1552 19.0149 30.3144 18.9445 30.3884 18.8851C30.4401 18.8435 30.5 18.7718 30.5 18.5842C30.5 18.4561 30.4592 18.3408 30.2369 18.2055C29.9795 18.0487 29.5421 17.9174 28.9101 17.8545C28.4364 17.8074 27.8944 17.8023 27.3072 17.8351ZM19.9327 19.6381C19.7331 19.7285 19.5416 19.8209 19.3594 19.9149C18.7141 20.2477 18.2191 20.583 17.8962 20.8974C17.5619 21.2227 17.5 21.4369 17.5 21.536C17.5 21.6617 17.5385 21.7078 17.5509 21.7202C17.563 21.7323 17.6072 21.77 17.7297 21.77C17.8252 21.77 18.0137 21.7226 18.3063 21.5098C18.5911 21.3027 18.9143 20.9824 19.2631 20.5529C19.4844 20.2803 19.7086 19.973 19.9327 19.6381Z" fill="black"/>
</g>
<defs>
<clipPath id="clip0_74_4456">
<rect width="16" height="16" fill="white" transform="translate(16 8)"/>
</clipPath>
</defs>
</svg>
