<svg width="48" height="32" viewBox="0 0 48 32" fill="none" xmlns="http://www.w3.org/2000/svg">
<g clip-path="url(#clip0_74_4449)">
<path fill-rule="evenodd" clip-rule="evenodd" d="M21.5 8C20.8097 8 20.25 8.55964 20.25 9.25V11.25H18.25C17.5597 11.25 17 11.8096 17 12.5V14.8821C16.9794 14.9005 16.9593 14.9196 16.9396 14.9392L17 14.9996V15.001C16.9387 14.9402 16.9384 14.9405 16.938 14.9408L16.9365 14.9424L16.9333 14.9456L16.9268 14.9521L16.9134 14.966C16.9043 14.9756 16.8947 14.9859 16.8847 14.9968C16.8648 15.0187 16.8434 15.0433 16.8209 15.0707C16.7757 15.1256 16.726 15.1915 16.674 15.2694C16.5698 15.4257 16.4587 15.6272 16.3574 15.8803C16.1538 16.3891 16 17.0809 16 18H16L16.0001 18.0088C16.0074 19.2547 16.4893 20.5174 17.4546 21.4696C18.4338 22.4356 19.8249 23 21.5001 23C23.571 23 25.2853 22.4105 26.6068 21.363C27.6042 20.5724 28.3203 19.5669 28.8018 18.4769C29.13 18.4544 29.4702 18.4104 29.7928 18.3244C30.6105 18.1063 31.3708 17.6126 31.8418 16.671C32.0198 16.3151 32.0491 15.9029 31.9231 15.5253C31.602 14.5628 30.8029 13.8885 29.8517 13.6483C29.6115 12.6971 28.9373 11.898 27.9747 11.577C27.5973 11.4512 27.1853 11.4804 26.8295 11.6583C25.7371 12.2044 25.3267 13.2412 25.161 13.9867C25.1231 14.1571 25.0941 14.3296 25.072 14.5H25V12V9.25C25 8.55964 24.4404 8 23.75 8H21.5ZM23.5 14.5V12.75H21.75V14.5H23.5ZM20.25 14.5V12.75H18.5V14.5H20.25ZM18.0001 16C18.0001 16 17.5 16.5 17.5 18C17.5102 19.738 18.8444 21.5 21.5001 21.5C25.0501 21.5 27 19.5 27.7501 17C29 17 30 17 30.5002 16C30.3953 15.6855 30.1586 15.415 29.8453 15.2437C29.4114 15.0065 28.8307 14.9597 28.25 15.25C28.5404 14.6693 28.4935 14.0886 28.2563 13.6547C28.0851 13.3415 27.8146 13.1048 27.5002 13C26.5002 13.4999 26.5002 14.9994 26.5002 15.9994V16H25.0002H24.25H21H18.0001ZM21.75 11.25H23.5V9.5H21.75V11.25ZM20.25 17C20.6642 17 21 17.3358 21 17.75V18.75C21 19.1642 20.6642 19.5 20.25 19.5C19.8358 19.5 19.5 19.1642 19.5 18.75V17.75C19.5 17.3358 19.8358 17 20.25 17Z" fill="black"/>
</g>
<defs>
<clipPath id="clip0_74_4449">
<rect width="16" height="16" fill="white" transform="translate(16 8)"/>
</clipPath>
</defs>
</svg>
