<svg width="48" height="32" viewBox="0 0 48 32" fill="none" xmlns="http://www.w3.org/2000/svg">
<path fill-rule="evenodd" clip-rule="evenodd" d="M21.2543 16.5212L25.6089 13.86C25.9624 13.644 26.424 13.7555 26.64 14.1089C26.856 14.4624 26.7445 14.924 26.3911 15.14L22.5864 17.4651L25.7701 20.6488C25.995 20.8737 26.3 21 26.618 21C27.1203 21 27.5694 20.6868 27.7431 20.2155L30.4355 12.9075C30.4782 12.7917 30.5 12.6693 30.5 12.5459C30.5 11.9683 30.0317 11.5 29.4541 11.5H29.3504C29.2495 11.5 29.149 11.5133 29.0516 11.5395L18.0229 14.5088C17.7144 14.5918 17.5 14.8716 17.5 15.1911C17.5 15.5279 17.7377 15.8178 18.068 15.8839L21.2543 16.5212ZM17.7738 17.3548L21 18L24.7095 21.7095C25.2156 22.2156 25.9022 22.5 26.618 22.5C27.7488 22.5 28.7597 21.7951 29.1506 20.734L31.843 13.4261C31.9469 13.1442 32 12.8463 32 12.5459C32 11.1399 30.8601 10 29.4541 10H29.3504C29.1178 10 28.8862 10.0306 28.6616 10.0911L17.6329 13.0604C16.6695 13.3198 16 14.1933 16 15.1911C16 16.2429 16.7424 17.1485 17.7738 17.3548Z" fill="black"/>
</svg>
