<svg width="48" height="32" viewBox="0 0 48 32" fill="none" xmlns="http://www.w3.org/2000/svg">
<path fill-rule="evenodd" clip-rule="evenodd" d="M26.8489 8.32958C26.5717 8.02176 26.0975 7.99691 25.7897 8.27407C25.4818 8.55123 25.457 9.02545 25.7341 9.33328L29.4144 13.4206C29.6915 13.7284 30.1657 13.7532 30.4736 13.4761C30.7814 13.1989 30.8062 12.7247 30.5291 12.4169L26.8489 8.32958ZM23.6015 10.4428C23.845 10.1077 24.314 10.0334 24.6491 10.2769L29.0987 13.5097C29.4338 13.7532 29.5081 14.2222 29.2646 14.5573C29.0211 14.8924 28.5521 14.9667 28.217 14.7233L23.7674 11.4904C23.4323 11.247 23.358 10.7779 23.6015 10.4428ZM23.0123 12.8673C22.6339 12.6989 22.1906 12.869 22.0221 13.2474C21.8536 13.6258 22.0238 14.0692 22.4022 14.2377L27.4267 16.4747C27.8051 16.6432 28.2485 16.473 28.4169 16.0946C28.5854 15.7162 28.4152 15.2729 28.0368 15.1044L23.0123 12.8673ZM20.8189 16.1092C20.905 15.704 21.3033 15.4454 21.7084 15.5315L27.0882 16.675C27.4934 16.7612 27.752 17.1594 27.6659 17.5646C27.5798 17.9698 27.1815 18.2284 26.7764 18.1423L21.3966 16.9988C20.9914 16.9126 20.7328 16.5144 20.8189 16.1092ZM18 18.25C18 17.8358 18.3358 17.5 18.75 17.5C19.1642 17.5 19.5 17.8358 19.5 18.25V20C19.5 20.8284 20.1716 21.5 21 21.5H27C27.8284 21.5 28.5 20.8284 28.5 20V18.25C28.5 17.8358 28.8358 17.5 29.25 17.5C29.6642 17.5 30 17.8358 30 18.25V20C30 21.6569 28.6569 23 27 23H21C19.3431 23 18 21.6569 18 20V18.25ZM21.25 18.5C20.8358 18.5 20.5 18.8358 20.5 19.25C20.5 19.6642 20.8358 20 21.25 20H26.75C27.1642 20 27.5 19.6642 27.5 19.25C27.5 18.8358 27.1642 18.5 26.75 18.5H21.25Z" fill="black"/>
</svg>
