<svg width="48" height="32" viewBox="0 0 48 32" fill="none" xmlns="http://www.w3.org/2000/svg">
<path fill-rule="evenodd" clip-rule="evenodd" d="M29.5 16C29.5 19.0376 27.0376 21.5 24 21.5C20.9624 21.5 18.5 19.0376 18.5 16C18.5 12.9624 20.9624 10.5 24 10.5C27.0376 10.5 29.5 12.9624 29.5 16ZM31 16C31 19.866 27.866 23 24 23C20.134 23 17 19.866 17 16C17 12.134 20.134 9 24 9C27.866 9 31 12.134 31 16ZM22.136 13.1025C21.9165 12.7512 21.4538 12.6445 21.1025 12.864C20.7512 13.0835 20.6445 13.5462 20.864 13.8975L22.908 17.1679C23.1315 17.5255 23.25 17.9387 23.25 18.3604V19.5C23.25 19.9142 23.5858 20.25 24 20.25C24.4142 20.25 24.75 19.9142 24.75 19.5V18.3604C24.75 17.6576 24.5525 16.9689 24.18 16.3729L22.136 13.1025ZM27.136 13.8975C27.3555 13.5462 27.2488 13.0835 26.8975 12.864C26.5462 12.6445 26.0835 12.7512 25.864 13.1025L24.7703 14.8525C24.5507 15.2038 24.6575 15.6665 25.0088 15.886C25.36 16.1055 25.8227 15.9988 26.0422 15.6475L27.136 13.8975Z" fill="black"/>
</svg>
