<svg width="48" height="32" viewBox="0 0 48 32" fill="none" xmlns="http://www.w3.org/2000/svg">
<path fill-rule="evenodd" clip-rule="evenodd" d="M29.0337 11.9023C29.5986 11.6871 30 11.1404 30 10.5C30 9.67157 29.3284 9 28.5 9C27.6716 9 27 9.67157 27 10.5C27 10.5366 27.0013 10.5729 27.0039 10.6088C26.3799 10.3768 25.7048 10.25 25 10.25C24.4152 10.25 23.8507 10.3373 23.319 10.4996C22.8918 10.63 22.7384 11.1307 22.9635 11.5165C23.1581 11.8502 23.5705 11.9777 23.9447 11.882C24.2822 11.7958 24.6357 11.75 25 11.75C26.9436 11.75 28.5825 13.0547 29.0886 14.836C29.1942 15.2076 29.5121 15.5 29.8985 15.5C30.3449 15.5 30.7 15.1155 30.598 14.6809C30.346 13.6076 29.7934 12.6501 29.0337 11.9023ZM23.9447 20.118C23.5705 20.0223 23.1581 20.1498 22.9635 20.4835C22.7384 20.8693 22.8918 21.37 23.319 21.5004C23.8507 21.6627 24.4152 21.75 25 21.75C25.7048 21.75 26.3799 21.6232 27.0039 21.3912C27.0013 21.4271 27 21.4634 27 21.5C27 22.3284 27.6716 23 28.5 23C29.3284 23 30 22.3284 30 21.5C30 20.8596 29.5986 20.3129 29.0337 20.0977C29.7934 19.3499 30.346 18.3924 30.598 17.3191C30.7 16.8845 30.3449 16.5 29.8985 16.5C29.5121 16.5 29.1942 16.7924 29.0886 17.164C28.5825 18.9453 26.9436 20.25 25 20.25C24.6357 20.25 24.2822 20.2042 23.9447 20.118ZM21.9362 13.0546C22.2035 12.7765 22.2951 12.3553 22.1007 12.022C21.8754 11.6359 21.3636 11.5234 21.0396 11.8313C20.2175 12.6126 19.6262 13.6345 19.3788 14.7842C19.1318 14.6054 18.8282 14.5 18.5 14.5C17.6716 14.5 17 15.1716 17 16C17 16.8284 17.6716 17.5 18.5 17.5C18.8282 17.5 19.1318 17.3946 19.3788 17.2158C19.6262 18.3655 20.2175 19.3874 21.0396 20.1687C21.3636 20.4766 21.8754 20.3641 22.1007 19.978C22.2951 19.6447 22.2035 19.2235 21.9362 18.9454C21.2016 18.1815 20.75 17.1435 20.75 16C20.75 14.8565 21.2016 13.8185 21.9362 13.0546Z" fill="black"/>
</svg>
