<svg width="48" height="32" viewBox="0 0 48 32" fill="none" xmlns="http://www.w3.org/2000/svg">
<path fill-rule="evenodd" clip-rule="evenodd" d="M18.5 16C18.5 12.9652 20.9579 10.5046 23.9916 10.5C25.3098 10.5322 25.8714 11.2965 26.0116 11.9809C26.0394 12.1173 26.0318 12.3689 25.9852 12.6931C25.9721 12.784 25.9576 12.8709 25.9427 12.9531L24.1843 13.2609L24.1829 13.2611C23.3452 13.4049 22.6464 13.693 22.1149 14.1935C21.5796 14.6976 21.2865 15.3486 21.1353 16.0807L20.691 18.2275C20.6878 18.2415 20.6849 18.2557 20.6824 18.27C20.6773 18.2961 20.6705 18.329 20.6625 18.3675C20.6276 18.5364 20.5705 18.8125 20.5301 19.0932C20.4834 19.418 20.4406 19.8562 20.5055 20.2473C19.2808 19.2386 18.5 17.7105 18.5 16ZM24.0014 23C27.8668 22.9992 31 19.8655 31 16C31 12.135 27.8676 9.00158 24.0029 9L24 9H23.9971C20.1324 9.00157 17 12.135 17 16C17 19.8653 20.1329 22.9989 23.998 23C23.9991 23 24.0003 23 24.0014 23ZM24.0085 21.5C22.6902 21.4678 22.1286 20.7035 21.9884 20.0191C21.9606 19.8827 21.9682 19.6311 22.0148 19.3069C22.0279 19.216 22.0424 19.1291 22.0573 19.0469L23.8157 18.7391L23.8171 18.7389C24.6548 18.5951 25.3536 18.307 25.8851 17.8065C26.4204 17.3024 26.7135 16.6514 26.8647 15.9193L27.309 13.7725C27.3122 13.7585 27.3151 13.7443 27.3176 13.73C27.3227 13.7039 27.3295 13.6711 27.3374 13.6328C27.3723 13.4638 27.4295 13.1875 27.4699 12.9068C27.5166 12.582 27.5594 12.1438 27.4945 11.7527C28.7192 12.7614 29.5 14.2895 29.5 16C29.5 19.0347 27.0421 21.4954 24.0085 21.5ZM25.6199 14.5324L24.4403 14.7388L24.4378 14.7393C23.7856 14.8511 23.3943 15.0491 23.1432 15.2856C22.8956 15.5188 22.7134 15.856 22.6043 16.384L22.3801 17.4676L23.5597 17.2612L23.5622 17.2607C24.2144 17.1489 24.6057 16.9509 24.8568 16.7144C25.1044 16.4812 25.2866 16.144 25.3957 15.616L25.6199 14.5324Z" fill="black"/>
</svg>
