<svg width="48" height="32" viewBox="0 0 48 32" fill="none" xmlns="http://www.w3.org/2000/svg">
<path fill-rule="evenodd" clip-rule="evenodd" d="M18.75 10.5C18.6119 10.5 18.5 10.6119 18.5 10.75V12.9167C18.5 13.0547 18.6119 13.1667 18.75 13.1667H21.1667V10.5H18.75ZM22.6667 10.5V13.1667H25.3333V10.5H22.6667ZM26.8333 10.5V13.1667H29.25C29.3881 13.1667 29.5 13.0547 29.5 12.9167V10.75C29.5 10.6119 29.3881 10.5 29.25 10.5H26.8333ZM26.8333 14.6667H29.25C30.2165 14.6667 31 13.8832 31 12.9167V10.75C31 9.7835 30.2165 9 29.25 9H26.0833H21.9167H18.75C17.7835 9 17 9.7835 17 10.75V12.9167C17 13.8832 17.7835 14.6667 18.75 14.6667H21.1667V18.0833V21.25C21.1667 22.2165 21.9502 23 22.9167 23H25.0833C26.0498 23 26.8333 22.2165 26.8333 21.25V18.0833V14.6667ZM25.3333 14.6667H22.6667V17.3333H25.3333V14.6667ZM25.3333 18.8333H22.6667V21.25C22.6667 21.3881 22.7786 21.5 22.9167 21.5H25.0833C25.2214 21.5 25.3333 21.3881 25.3333 21.25V18.8333Z" fill="black"/>
</svg>
