<svg width="48" height="32" viewBox="0 0 48 32" fill="none" xmlns="http://www.w3.org/2000/svg">
<path fill-rule="evenodd" clip-rule="evenodd" d="M19.4431 12.6987C19.2207 12.2695 18.7776 12 18.2941 12C17.5794 12 17 12.5794 17 13.2941V19.25C17 19.6642 17.3358 20 17.75 20C18.1642 20 18.5 19.6642 18.5 19.25V14.1389L20.3341 17.6784C20.463 17.9272 20.7198 18.0833 21 18.0833C21.2802 18.0833 21.537 17.9272 21.6659 17.6784L23.5 14.1389V19.25C23.5 19.6642 23.8358 20 24.25 20C24.6642 20 25 19.6642 25 19.25V13.2941C25 12.5794 24.4206 12 23.7059 12C23.2224 12 22.7793 12.2695 22.5569 12.6987L21 15.7032L19.4431 12.6987ZM29.25 12.75C29.25 12.3358 28.9142 12 28.5 12C28.0858 12 27.75 12.3358 27.75 12.75V17.4393L27.2803 16.9697C26.9874 16.6768 26.5126 16.6768 26.2197 16.9697C25.9268 17.2626 25.9268 17.7374 26.2197 18.0303L27.9697 19.7803C28.2626 20.0732 28.7374 20.0732 29.0303 19.7803L30.7803 18.0303C31.0732 17.7374 31.0732 17.2626 30.7803 16.9697C30.4874 16.6768 30.0126 16.6768 29.7197 16.9697L29.25 17.4393V12.75Z" fill="black"/>
</svg>
