<svg width="48" height="32" viewBox="0 0 48 32" fill="none" xmlns="http://www.w3.org/2000/svg">
<path fill-rule="evenodd" clip-rule="evenodd" d="M27.1002 13.8939L26.6885 14.7973L27.3592 15.5292L28.7147 17.0086L26.7211 16.7816L25.7347 16.6692L25.2458 17.5333L24.2577 19.2796L23.8576 17.3134L23.6596 16.3406L22.6868 16.1426L20.7206 15.7425L22.4669 14.7544L23.331 14.2655L23.2186 13.2791L22.9915 11.2854L24.471 12.641L25.2029 13.3117L26.1063 12.9L27.9322 12.068L27.1002 13.8939ZM23.019 9.27615L25.4843 11.535L28.527 10.1485C29.3687 9.765 30.2352 10.6315 29.8517 11.4732L28.4651 14.5159L30.724 16.9812C31.3489 17.6631 30.7926 18.755 29.8736 18.6503L26.5513 18.2719L24.9047 21.1821C24.4492 21.9871 23.2389 21.7954 23.0545 20.889L22.3877 17.6125L19.1111 16.9457C18.2048 16.7613 18.0131 15.551 18.8181 15.0955L21.7283 13.4489L21.3499 10.1266C21.2452 9.20763 22.337 8.6513 23.019 9.27615ZM21.5303 19.5303C21.8232 19.2374 21.8232 18.7626 21.5303 18.4697C21.2374 18.1768 20.7626 18.1768 20.4697 18.4697L16.9697 21.9697C16.6768 22.2626 16.6768 22.7374 16.9697 23.0303C17.2626 23.3232 17.7374 23.3232 18.0303 23.0303L21.5303 19.5303Z" fill="black"/>
</svg>
