<svg width="48" height="32" viewBox="0 0 48 32" fill="none" xmlns="http://www.w3.org/2000/svg">
<path fill-rule="evenodd" clip-rule="evenodd" d="M21.2803 11.841L19.9246 13.1967C19.0125 14.1089 18.5 15.346 18.5 16.636C18.5 19.3223 20.6777 21.5 23.364 21.5C24.654 21.5 25.8911 20.9876 26.8033 20.0754L28.159 18.7197L26.7803 17.341L25.4749 18.6465C24.9284 19.193 24.1871 19.5 23.4142 19.5C21.8047 19.5 20.5 18.1953 20.5 16.5858C20.5 15.8129 20.807 15.0717 21.3536 14.5251L22.659 13.2197L21.2803 11.841ZM22.341 10.7803L23.7197 12.159L24.8787 11L23.5 9.62133L22.341 10.7803ZM30.3787 16.5L29.2197 17.659L27.841 16.2803L29 15.1213L30.3787 16.5ZM18.864 12.136L22.5035 8.4965C23.0539 7.94615 23.9461 7.94615 24.4965 8.4965L26.2335 10.2335C26.6568 10.6568 26.6568 11.3432 26.2335 11.7665L22.4142 15.5858C22.149 15.851 22 16.2107 22 16.5858C22 17.3668 22.6332 18 23.4142 18C23.7893 18 24.149 17.851 24.4142 17.5858L28.2335 13.7665C28.6568 13.3432 29.3432 13.3432 29.7665 13.7665L31.5035 15.5035C32.0539 16.0539 32.0539 16.9462 31.5035 17.4965L27.864 21.136C26.6705 22.3295 25.0518 23 23.364 23C19.8492 23 17 20.1508 17 16.636C17 14.9482 17.6705 13.3295 18.864 12.136Z" fill="black"/>
</svg>
