<svg width="48" height="32" viewBox="0 0 48 32" fill="none" xmlns="http://www.w3.org/2000/svg">
<path fill-rule="evenodd" clip-rule="evenodd" d="M27.5 15C27.5 17.4853 25.4853 19.5 23 19.5C20.5147 19.5 18.5 17.4853 18.5 15C18.5 12.5147 20.5147 10.5 23 10.5C25.4853 10.5 27.5 12.5147 27.5 15ZM26.6792 19.7399C25.6632 20.5297 24.3865 21 23 21C19.6863 21 17 18.3137 17 15C17 11.6863 19.6863 9 23 9C26.3137 9 29 11.6863 29 15C29 16.3865 28.5297 17.6632 27.7399 18.6792L30.5303 21.4697C30.8232 21.7626 30.8232 22.2374 30.5303 22.5303C30.2374 22.8232 29.7626 22.8232 29.4697 22.5303L26.6792 19.7399Z" fill="black"/>
</svg>
