<svg width="48" height="32" viewBox="0 0 48 32" fill="none" xmlns="http://www.w3.org/2000/svg">
<path fill-rule="evenodd" clip-rule="evenodd" d="M22.75 19C25.0972 19 27 17.0972 27 14.75C27 12.4028 25.0972 10.5 22.75 10.5C20.4028 10.5 18.5 12.4028 18.5 14.75C18.5 17.0972 20.4028 19 22.75 19ZM22.75 20.5C24.0674 20.5 25.2814 20.0569 26.251 19.3117L28.9697 22.0303C29.2626 22.3232 29.7374 22.3232 30.0303 22.0303C30.3232 21.7374 30.3232 21.2626 30.0303 20.9697L27.3117 18.251C28.0569 17.2814 28.5 16.0674 28.5 14.75C28.5 11.5744 25.9256 9 22.75 9C19.5744 9 17 11.5744 17 14.75C17 17.9256 19.5744 20.5 22.75 20.5ZM23.5 12.75C23.5 12.3358 23.1642 12 22.75 12C22.3358 12 22 12.3358 22 12.75V14H20.75C20.3358 14 20 14.3358 20 14.75C20 15.1642 20.3358 15.5 20.75 15.5H22V16.75C22 17.1642 22.3358 17.5 22.75 17.5C23.1642 17.5 23.5 17.1642 23.5 16.75V15.5H24.75C25.1642 15.5 25.5 15.1642 25.5 14.75C25.5 14.3358 25.1642 14 24.75 14H23.5V12.75Z" fill="black"/>
</svg>
