<svg width="48" height="32" viewBox="0 0 48 32" fill="none" xmlns="http://www.w3.org/2000/svg">
<path fill-rule="evenodd" clip-rule="evenodd" d="M19.125 15C19.125 12.3076 21.3076 10.125 24 10.125C26.6924 10.125 28.875 12.3076 28.875 15C28.875 16.8644 28.1014 17.9618 27.1878 18.8149C26.8026 19.1746 26.4227 19.4647 26.0187 19.7731L26.0186 19.7732C25.8992 19.8644 25.7777 19.9571 25.6533 20.0538C25.4013 20.2496 25.1202 20.4759 24.872 20.7211C24.6293 20.9608 24.3371 21.2958 24.1419 21.7318C24.1081 21.8072 24.0673 21.8483 24.0468 21.8633C24.0382 21.8695 24.0338 21.8711 24.0324 21.8715L24.0323 21.8716C24.0313 21.8719 24.0224 21.875 24 21.875C23.9776 21.875 23.9687 21.8719 23.9677 21.8716L23.9676 21.8715C23.9662 21.8711 23.9618 21.8695 23.9532 21.8633C23.9327 21.8483 23.8919 21.8072 23.8581 21.7318C23.6629 21.2958 23.3707 20.9608 23.128 20.7211C22.8798 20.4759 22.5987 20.2496 22.3467 20.0538C22.2223 19.9571 22.1008 19.8644 21.9814 19.7732L21.9813 19.7731C21.5773 19.4647 21.1974 19.1746 20.8122 18.8149C19.8986 17.9618 19.125 16.8644 19.125 15ZM30.5 15C30.5 18.3991 28.4338 19.9751 26.9709 21.091C26.3357 21.5755 25.8142 21.9732 25.625 22.3958C25.3545 23 24.7883 23.5 24 23.5C23.2117 23.5 22.6455 23 22.375 22.3958C22.1858 21.9732 21.6643 21.5755 21.0291 21.091C19.5662 19.9751 17.5 18.3991 17.5 15C17.5 11.4101 20.4101 8.5 24 8.5C27.5899 8.5 30.5 11.4101 30.5 15ZM21.75 14.25C21.3358 14.25 21 14.5858 21 15C21 15.4142 21.3358 15.75 21.75 15.75H26.25C26.6642 15.75 27 15.4142 27 15C27 14.5858 26.6642 14.25 26.25 14.25H21.75Z" fill="black"/>
</svg>
