<svg width="48" height="32" viewBox="0 0 48 32" fill="none" xmlns="http://www.w3.org/2000/svg">
<path fill-rule="evenodd" clip-rule="evenodd" d="M29 21.25L29 15.5C29 12.7386 26.7614 10.5 24 10.5C21.2386 10.5 19 12.7386 19 15.5L19 21.25C19 21.3881 19.1119 21.5 19.25 21.5H20.75C20.8881 21.5 21 21.3881 21 21.25L21 15.5C21 13.8431 22.3431 12.5 24 12.5C25.6569 12.5 27 13.8431 27 15.5V21.25C27 21.3881 27.1119 21.5 27.25 21.5H28.75C28.8881 21.5 29 21.3881 29 21.25ZM30.5 15.5L30.5 21.25C30.5 22.2165 29.7165 23 28.75 23H27.25C26.2835 23 25.5 22.2165 25.5 21.25V15.5C25.5 14.6716 24.8284 14 24 14C23.1716 14 22.5 14.6716 22.5 15.5V21.25C22.5 22.2165 21.7165 23 20.75 23H19.25C18.2835 23 17.5 22.2165 17.5 21.25L17.5 15.5C17.5 11.9101 20.4102 9 24 9C27.5899 9 30.5 11.9101 30.5 15.5Z" fill="black"/>
</svg>
