<svg width="48" height="32" viewBox="0 0 48 32" fill="none" xmlns="http://www.w3.org/2000/svg">
<path fill-rule="evenodd" clip-rule="evenodd" d="M19 10.75L19 16.5C19 19.2614 21.2386 21.5 24 21.5C26.7614 21.5 29 19.2614 29 16.5V10.75C29 10.6119 28.8881 10.5 28.75 10.5H27.25C27.1119 10.5 27 10.6119 27 10.75L27 16.5C27 18.1569 25.6569 19.5 24 19.5C22.3431 19.5 21 18.1569 21 16.5L21 10.75C21 10.6119 20.8881 10.5 20.75 10.5H19.25C19.1119 10.5 19 10.6119 19 10.75ZM17.5 16.5L17.5 10.75C17.5 9.7835 18.2835 9 19.25 9H20.75C21.7165 9 22.5 9.7835 22.5 10.75L22.5 16.5C22.5 17.3284 23.1716 18 24 18C24.8284 18 25.5 17.3284 25.5 16.5L25.5 10.75C25.5 9.7835 26.2835 9 27.25 9H28.75C29.7165 9 30.5 9.7835 30.5 10.75V16.5C30.5 20.0899 27.5898 23 24 23C20.4101 23 17.5 20.0899 17.5 16.5Z" fill="black"/>
</svg>
