<svg width="48" height="32" viewBox="0 0 48 32" fill="none" xmlns="http://www.w3.org/2000/svg">
<path fill-rule="evenodd" clip-rule="evenodd" d="M29.8735 11.4398C30.1664 11.1469 30.1664 10.672 29.8735 10.3791C29.5806 10.0862 29.1057 10.0862 28.8128 10.3791L27.7512 11.4407L26.6896 10.3791C26.3967 10.0862 25.9219 10.0862 25.629 10.3791C25.3361 10.672 25.3361 11.1469 25.629 11.4398L26.6906 12.5013L25.629 13.5629C25.3361 13.8558 25.3361 14.3307 25.629 14.6236C25.9219 14.9165 26.3967 14.9165 26.6896 14.6236L27.7512 13.562L28.8128 14.6236C29.1057 14.9165 29.5806 14.9165 29.8735 14.6236C30.1664 14.3307 30.1664 13.8558 29.8735 13.5629L28.8119 12.5013L29.8735 11.4398ZM18.2488 11.7513C17.8346 11.7513 17.4988 12.0871 17.4988 12.5013C17.4988 12.9155 17.8346 13.2513 18.2488 13.2513H22.7514C23.1656 13.2513 23.5014 12.9155 23.5014 12.5013C23.5014 12.0871 23.1656 11.7513 22.7514 11.7513H18.2488ZM21.2501 17.25C21.2501 16.8358 20.9143 16.5 20.5001 16.5C20.0859 16.5 19.7501 16.8358 19.7501 17.25V18.7513H18.2488C17.8346 18.7513 17.4988 19.0871 17.4988 19.5013C17.4988 19.9155 17.8346 20.2513 18.2488 20.2513H19.7501V21.7526C19.7501 22.1668 20.0859 22.5026 20.5001 22.5026C20.9143 22.5026 21.2501 22.1668 21.2501 21.7526V20.2513H22.7514C23.1656 20.2513 23.5014 19.9155 23.5014 19.5013C23.5014 19.0871 23.1656 18.7513 22.7514 18.7513H21.2501V17.25ZM25.75 17.25C25.3358 17.25 25 17.5858 25 18C25 18.4142 25.3358 18.75 25.75 18.75H29.75C30.1642 18.75 30.5 18.4142 30.5 18C30.5 17.5858 30.1642 17.25 29.75 17.25H25.75ZM25.75 20.25C25.3358 20.25 25 20.5858 25 21C25 21.4142 25.3358 21.75 25.75 21.75H29.75C30.1642 21.75 30.5 21.4142 30.5 21C30.5 20.5858 30.1642 20.25 29.75 20.25H25.75Z" fill="black"/>
</svg>
