<svg width="48" height="32" viewBox="0 0 48 32" fill="none" xmlns="http://www.w3.org/2000/svg">
<path fill-rule="evenodd" clip-rule="evenodd" d="M27.8364 9.5C28.2029 9.5 28.5 9.79708 28.5 10.1636C28.5 10.3286 28.4385 10.4878 28.3274 10.6099L27.9728 11H20.0272L19.6726 10.6099C19.5615 10.4878 19.5 10.3286 19.5 10.1636C19.5 9.79708 19.7971 9.5 20.1636 9.5H27.8364ZM21.3908 12.5L23.5148 14.8363C23.6095 14.9406 23.7439 15 23.8847 15H24H24.1153C24.2561 15 24.3905 14.9406 24.4852 14.8363L26.6092 12.5H21.3908ZM22.0426 15.4469L19.5 12.65V14.502C19.5 14.6226 19.5436 14.7391 19.6227 14.8301L20.8711 16.2658C21.2137 15.9343 21.6087 15.6568 22.0426 15.4469ZM19.9637 17.5082L18.4908 15.8144C18.1743 15.4504 18 14.9844 18 14.502V10.1636V10C18 8.89543 18.8954 8 20 8H20.1636H27.8364H28C29.1046 8 30 8.89543 30 10V10.1636V14.502C30 14.9844 29.8257 15.4504 29.5092 15.8144L28.0363 17.5082C28.3332 18.1087 28.5 18.7848 28.5 19.5C28.5 21.9853 26.4853 24 24 24C21.5147 24 19.5 21.9853 19.5 19.5C19.5 18.7848 19.6668 18.1087 19.9637 17.5082ZM27.1289 16.2658C26.7863 15.9343 26.3913 15.6568 25.9574 15.4469L28.5 12.65V14.502C28.5 14.6226 28.4564 14.7391 28.3773 14.8301L27.1289 16.2658ZM27 19.5C27 21.1569 25.6569 22.5 24 22.5C22.3431 22.5 21 21.1569 21 19.5C21 17.8431 22.3431 16.5 24 16.5C25.6569 16.5 27 17.8431 27 19.5Z" fill="black"/>
</svg>
