<svg width="48" height="32" viewBox="0 0 48 32" fill="none" xmlns="http://www.w3.org/2000/svg">
<path fill-rule="evenodd" clip-rule="evenodd" d="M27.1125 19.6152C27.4871 20.4288 27.8257 20.5 28 20.5C28.1743 20.5 28.5129 20.4288 28.8875 19.6152C29.2635 18.7988 29.5 17.5378 29.5 16C29.5 14.4622 29.2635 13.2012 28.8875 12.3848C28.5129 11.5712 28.1743 11.5 28 11.5C27.8257 11.5 27.4871 11.5712 27.1125 12.3848C26.7365 13.2012 26.5 14.4622 26.5 16C26.5 17.5378 26.7365 18.7988 27.1125 19.6152ZM25 16C25 17.4689 25.1965 18.8145 25.5895 19.8575L18.903 17.3103C18.3593 17.1031 18 16.5818 18 16C18 15.4182 18.3593 14.8969 18.903 14.6897L25.5895 12.1425C25.1965 13.1855 25 14.5311 25 16ZM28 22C30 22 31 19.3137 31 16C31 12.6863 30 10 28 10C27.3389 10 26.6833 10.1206 26.0655 10.356L18.369 13.288C17.2437 13.7167 16.5 14.7958 16.5 16C16.5 17.2042 17.2437 18.2833 18.369 18.712L19.1963 19.0272C19.0699 19.3262 19 19.6549 19 19.9999C19 21.3806 20.1193 22.4999 21.5 22.4999C22.5985 22.4999 23.5315 21.7914 23.867 20.8065L26.0655 21.644C26.6833 21.8794 27.3389 22 28 22ZM22.4627 20.2715L20.6007 19.5622C20.5362 19.6944 20.5 19.8429 20.5 19.9999C20.5 20.5522 20.9477 20.9999 21.5 20.9999C21.9582 20.9999 22.3444 20.6918 22.4627 20.2715Z" fill="black"/>
</svg>
