<svg width="48" height="32" viewBox="0 0 48 32" fill="none" xmlns="http://www.w3.org/2000/svg">
<path fill-rule="evenodd" clip-rule="evenodd" d="M24.7725 17.8996C24.526 17.9651 24.2671 18 24 18C22.3431 18 21 16.6569 21 15V14.0607L17.9697 11.0303C17.6768 10.7374 17.6768 10.2626 17.9697 9.96967C18.2626 9.67678 18.7374 9.67678 19.0303 9.96967L30.0303 20.9697C30.3232 21.2626 30.3232 21.7374 30.0303 22.0303C29.7374 22.3232 29.2626 22.3232 28.9697 22.0303L27.086 20.1466C26.3872 20.5665 25.596 20.8481 24.75 20.9536V22.75C24.75 23.1642 24.4142 23.5 24 23.5C23.5858 23.5 23.25 23.1642 23.25 22.75V20.9536C20.2903 20.5845 18 18.0597 18 15V14.75C18 14.3358 18.3358 14 18.75 14C19.1642 14 19.5 14.3358 19.5 14.75V15C19.5 17.4853 21.5147 19.5 24 19.5C24.7109 19.5 25.3832 19.3352 25.981 19.0416L24.8246 17.8853C24.8073 17.8902 24.7899 17.895 24.7725 17.8996ZM25.5 11.5V14.2979L26.9148 15.7127C26.9705 15.4843 27 15.2456 27 15V11.5C27 9.84315 25.6569 8.5 24 8.5C22.8372 8.5 21.8289 9.16158 21.331 10.1289L22.5119 11.3099C22.6054 10.5712 23.236 10 24 10C24.8284 10 25.5 10.6716 25.5 11.5ZM28.0873 16.8852L29.1991 17.997C29.7085 17.1151 30 16.0916 30 15V14.75C30 14.3358 29.6642 14 29.25 14C28.8358 14 28.5 14.3358 28.5 14.75V15C28.5 15.6731 28.3522 16.3118 28.0873 16.8852Z" fill="black"/>
</svg>
