<svg width="48" height="32" viewBox="0 0 48 32" fill="none" xmlns="http://www.w3.org/2000/svg">
<path fill-rule="evenodd" clip-rule="evenodd" d="M25.5 15V11.5C25.5 10.6716 24.8284 10 24 10C23.1716 10 22.5 10.6716 22.5 11.5V15C22.5 15.8284 23.1716 16.5 24 16.5C24.8284 16.5 25.5 15.8284 25.5 15ZM24 8.5C22.3431 8.5 21 9.84315 21 11.5V15C21 16.6569 22.3431 18 24 18C25.6569 18 27 16.6569 27 15V11.5C27 9.84315 25.6569 8.5 24 8.5ZM24.75 20.9536C27.7097 20.5845 30 18.0597 30 15V14.75C30 14.3358 29.6642 14 29.25 14C28.8358 14 28.5 14.3358 28.5 14.75V15C28.5 17.4853 26.4853 19.5 24 19.5C21.5147 19.5 19.5 17.4853 19.5 15V14.75C19.5 14.3358 19.1642 14 18.75 14C18.3358 14 18 14.3358 18 14.75V15C18 18.0597 20.2903 20.5845 23.25 20.9536V22.75C23.25 23.1642 23.5858 23.5 24 23.5C24.4142 23.5 24.75 23.1642 24.75 22.75V20.9536Z" fill="black"/>
</svg>
