<svg width="48" height="32" viewBox="0 0 48 32" fill="none" xmlns="http://www.w3.org/2000/svg">
<g clip-path="url(#clip0_74_5207)">
<path fill-rule="evenodd" clip-rule="evenodd" d="M20.7063 11.3901C20.5695 11.4603 20.4144 11.5 20.25 11.5C19.6977 11.5 19.25 11.0523 19.25 10.5C19.25 9.94772 19.6977 9.5 20.25 9.5C20.8023 9.5 21.25 9.94772 21.25 10.5C21.25 10.8431 21.0772 11.1458 20.814 11.3259C20.7994 11.333 20.785 11.3407 20.7707 11.3488C20.7483 11.3616 20.7268 11.3754 20.7063 11.3901ZM20.8139 12.9361C20.6327 12.9779 20.4439 13 20.25 13C18.8693 13 17.75 11.8807 17.75 10.5C17.75 9.11929 18.8693 8 20.25 8C21.6307 8 22.75 9.11929 22.75 10.5C22.75 11.1441 22.5064 11.7313 22.1064 12.1745L22.9545 13.6588C23.2847 13.5556 23.6358 13.5 24 13.5C24.8088 13.5 25.5536 13.7744 26.1463 14.2351L28.3682 12.3835C28.2919 12.1871 28.25 11.9734 28.25 11.75C28.25 10.7835 29.0335 10 30 10C30.9665 10 31.75 10.7835 31.75 11.75C31.75 12.7165 30.9665 13.5 30 13.5C29.8151 13.5 29.6369 13.4713 29.4697 13.4182L27.107 15.3871C27.3581 15.8698 27.5 16.4183 27.5 17C27.5 17.5568 27.37 18.0831 27.1387 18.5505L28.0973 19.3173C28.4344 19.1158 28.8287 19 29.25 19C30.4926 19 31.5 20.0074 31.5 21.25C31.5 22.4926 30.4926 23.5 29.25 23.5C28.0074 23.5 27 22.4926 27 21.25C27 20.9762 27.0489 20.7139 27.1384 20.4712L26.2011 19.7214C25.5999 20.2083 24.834 20.5 24 20.5C22.3244 20.5 20.9239 19.3226 20.5805 17.75H19.3316C19.0507 18.3412 18.4481 18.75 17.75 18.75C16.7835 18.75 16 17.9665 16 17C16 16.0335 16.7835 15.25 17.75 15.25C18.4481 15.25 19.0507 15.6588 19.3316 16.25H20.5805C20.7388 15.5251 21.1217 14.8842 21.6526 14.4038L20.8139 12.9361ZM26 17C26 18.1046 25.1046 19 24 19C22.8954 19 22 18.1046 22 17C22 15.8954 22.8954 15 24 15C25.1046 15 26 15.8954 26 17ZM29.25 22C29.6642 22 30 21.6642 30 21.25C30 20.8358 29.6642 20.5 29.25 20.5C28.8358 20.5 28.5 20.8358 28.5 21.25C28.5 21.6642 28.8358 22 29.25 22Z" fill="black"/>
</g>
<defs>
<clipPath id="clip0_74_5207">
<rect width="16" height="16" fill="white" transform="translate(16 8)"/>
</clipPath>
</defs>
</svg>
