<svg width="48" height="32" viewBox="0 0 48 32" fill="none" xmlns="http://www.w3.org/2000/svg">
<path fill-rule="evenodd" clip-rule="evenodd" d="M24 21.5C27.0376 21.5 29.5 19.0376 29.5 16C29.5 13.7693 28.172 11.8487 26.2634 10.9859C26.5758 11.6763 26.75 12.443 26.75 13.25C26.75 16.2876 24.2876 18.75 21.25 18.75C20.443 18.75 19.6763 18.5758 18.9859 18.2635C19.8487 20.172 21.7693 21.5 24 21.5ZM17.0446 16.7948C17.4393 20.2866 20.4028 23 24 23C27.866 23 31 19.866 31 16C31 12.4028 28.2866 9.43927 24.7948 9.04463C24.7947 9.04461 24.7946 9.0446 24.7944 9.04458C24.7852 9.04355 24.7761 9.04253 24.7669 9.04152C24.515 9.01408 24.2591 9 24 9C23.4727 9 23.4101 9.84189 23.8146 10.1802C23.8781 10.2333 23.9399 10.2884 24 10.3452C24.0496 10.3922 24.0979 10.4404 24.1451 10.4898C24.149 10.4939 24.1529 10.4981 24.1568 10.5022C24.8345 11.2188 25.25 12.1859 25.25 13.25C25.25 15.4591 23.4591 17.25 21.25 17.25C20.1859 17.25 19.2188 16.8345 18.5022 16.1568C18.4981 16.1529 18.4939 16.149 18.4898 16.1451C18.4404 16.0979 18.3922 16.0496 18.3452 16C18.2884 15.9399 18.2333 15.8781 18.1802 15.8146C17.8419 15.4101 17 15.4727 17 16C17 16.2591 17.0141 16.515 17.0415 16.7669C17.0425 16.7761 17.0435 16.7852 17.0446 16.7944C17.0446 16.7946 17.0446 16.7947 17.0446 16.7948Z" fill="black"/>
</svg>
