<svg width="48" height="32" viewBox="0 0 48 32" fill="none" xmlns="http://www.w3.org/2000/svg">
<path fill-rule="evenodd" clip-rule="evenodd" d="M28.9999 13.4606V16.5407C28.702 16.4876 28.3726 16.4853 28.0241 16.5407C27.934 16.555 27.8425 16.5733 27.75 16.5955C26.2312 16.9601 25 18.2631 25 19.5057C25 20.7483 26.2312 21.4601 27.75 21.0955C29.2688 20.7308 30.5 19.4279 30.5 18.1853C30.5 18.147 30.4988 18.1092 30.4965 18.072C30.4988 18.0483 30.4999 18.0243 30.4999 18V12.5168C30.5002 12.506 30.5002 12.4952 30.4999 12.4843V9.25001C30.4999 9.01906 30.3935 8.80098 30.2115 8.65885C30.0295 8.51672 29.7921 8.46639 29.568 8.5224L22.1361 10.3804C22.1359 10.3804 22.1363 10.3803 22.1361 10.3804L21.568 10.5224C21.2342 10.6059 20.9999 10.9059 20.9999 11.25V14.4832C20.9997 14.494 20.9997 14.5048 20.9999 14.5157V18.5407C20.702 18.4876 20.3726 18.4853 20.0241 18.5407C19.934 18.555 19.8425 18.5733 19.75 18.5955C18.2312 18.9601 17 20.2631 17 21.5057C17 22.7483 18.2312 23.4601 19.75 23.0955C21.2688 22.7308 22.5 21.4279 22.5 20.1853C22.5 20.147 22.4988 20.1092 22.4965 20.072C22.4988 20.0483 22.4999 20.0243 22.4999 20V15.0856L28.9999 13.4606ZM28.9999 11.9144V10.2106L22.4999 11.8356V13.5394L28.6361 12.0054C28.6359 12.0054 28.6364 12.0053 28.6361 12.0054L28.9999 11.9144ZM20.9969 20.0407C20.996 20.0821 20.9968 20.1234 20.9994 20.1647C20.9998 20.1707 21 20.1775 21 20.1853C21 20.318 20.9215 20.6037 20.6043 20.9394C20.2986 21.2629 19.8651 21.5252 19.3998 21.6369C18.9294 21.7499 18.6523 21.6603 18.5562 21.6047C18.5332 21.5914 18.5205 21.5805 18.5146 21.5748C18.5116 21.5718 18.5098 21.5698 18.509 21.5687L18.5079 21.5672L18.5074 21.5662C18.5071 21.5655 18.5064 21.5636 18.5054 21.56C18.5037 21.5536 18.5 21.5365 18.5 21.5057C18.5 21.373 18.5785 21.0872 18.8957 20.7516C19.2014 20.428 19.6349 20.1657 20.1002 20.054C20.3719 19.9888 20.5871 19.9908 20.7369 20.0175C20.8234 20.0329 20.9103 20.0405 20.9969 20.0407ZM28.9969 18.0407C28.996 18.0821 28.9968 18.1234 28.9994 18.1647C28.9998 18.1707 29 18.1775 29 18.1853C29 18.318 28.9215 18.6037 28.6043 18.9394C28.2986 19.2629 27.8651 19.5252 27.3998 19.6369C26.9294 19.7499 26.6523 19.6603 26.5562 19.6047C26.5332 19.5914 26.5205 19.5805 26.5146 19.5748C26.5116 19.5718 26.5098 19.5698 26.509 19.5687L26.5079 19.5672L26.5074 19.5662C26.5071 19.5655 26.5064 19.5636 26.5054 19.56C26.5037 19.5536 26.5 19.5365 26.5 19.5057C26.5 19.373 26.5785 19.0872 26.8957 18.7516C27.2014 18.428 27.6349 18.1657 28.1002 18.054C28.3719 17.9888 28.5871 17.9908 28.7369 18.0175C28.8234 18.0329 28.9103 18.0405 28.9969 18.0407Z" fill="black"/>
</svg>
