<svg width="48" height="32" viewBox="0 0 48 32" fill="none" xmlns="http://www.w3.org/2000/svg">
<path fill-rule="evenodd" clip-rule="evenodd" d="M18.5 13C18.5 13.8284 19.1716 14.5 20 14.5C20.8284 14.5 21.5 13.8284 21.5 13C21.5 12.1716 20.8284 11.5 20 11.5C19.1716 11.5 18.5 12.1716 18.5 13ZM20 10C18.3431 10 17 11.3431 17 13C17 14.6569 18.3431 16 20 16C20.2735 16 20.5385 15.9634 20.7903 15.8948L21.9076 17.8501C21.3478 18.3951 21 19.1569 21 20C21 21.6569 22.3431 23 24 23C25.6569 23 27 21.6569 27 20C27 19.1569 26.6522 18.3951 26.0923 17.8501L27.2097 15.8948C27.4615 15.9634 27.7265 16 28 16C29.6569 16 31 14.6569 31 13C31 11.3431 29.6569 10 28 10C26.3431 10 25 11.3431 25 13C25 13.8431 25.3478 14.6049 25.9077 15.1499L24.7904 17.1052C24.5386 17.0366 24.2736 17 24 17C23.7264 17 23.4614 17.0366 23.2096 17.1052L22.0923 15.1499C22.6522 14.6049 23 13.8431 23 13C23 11.3431 21.6569 10 20 10ZM26.5 13C26.5 13.8284 27.1716 14.5 28 14.5C28.8284 14.5 29.5 13.8284 29.5 13C29.5 12.1716 28.8284 11.5 28 11.5C27.1716 11.5 26.5 12.1716 26.5 13ZM24 21.5C23.1716 21.5 22.5 20.8284 22.5 20C22.5 19.1716 23.1716 18.5 24 18.5C24.8284 18.5 25.5 19.1716 25.5 20C25.5 20.8284 24.8284 21.5 24 21.5Z" fill="black"/>
</svg>
