<svg width="48" height="32" viewBox="0 0 48 32" fill="none" xmlns="http://www.w3.org/2000/svg">
<path fill-rule="evenodd" clip-rule="evenodd" d="M27 10.5C26.1716 10.5 25.5 11.1716 25.5 12C25.5 12.8284 26.1716 13.5 27 13.5C27.8284 13.5 28.5 12.8284 28.5 12C28.5 11.1716 27.8284 10.5 27 10.5ZM30 12C30 10.3431 28.6569 9 27 9C25.3431 9 24 10.3431 24 12C24 12.2735 24.0366 12.5385 24.1052 12.7903L22.1499 13.9076C21.6049 13.3478 20.8431 13 20 13C18.3431 13 17 14.3431 17 16C17 17.6569 18.3431 19 20 19C20.8431 19 21.6049 18.6522 22.1499 18.0923L24.1052 19.2097C24.0366 19.4615 24 19.7265 24 20C24 21.6569 25.3431 23 27 23C28.6569 23 30 21.6569 30 20C30 18.3431 28.6569 17 27 17C26.1569 17 25.3951 17.3478 24.8501 17.9077L22.8948 16.7904C22.9634 16.5386 23 16.2736 23 16C23 15.7264 22.9634 15.4614 22.8948 15.2096L24.8501 14.0923C25.3951 14.6522 26.1569 15 27 15C28.6569 15 30 13.6569 30 12ZM27 18.5C26.1716 18.5 25.5 19.1716 25.5 20C25.5 20.8284 26.1716 21.5 27 21.5C27.8284 21.5 28.5 20.8284 28.5 20C28.5 19.1716 27.8284 18.5 27 18.5ZM18.5 16C18.5 15.1716 19.1716 14.5 20 14.5C20.8284 14.5 21.5 15.1716 21.5 16C21.5 16.8284 20.8284 17.5 20 17.5C19.1716 17.5 18.5 16.8284 18.5 16Z" fill="black"/>
</svg>
