<svg width="48" height="32" viewBox="0 0 48 32" fill="none" xmlns="http://www.w3.org/2000/svg">
<path fill-rule="evenodd" clip-rule="evenodd" d="M21 10.5C21.8284 10.5 22.5 11.1716 22.5 12C22.5 12.8284 21.8284 13.5 21 13.5C20.1716 13.5 19.5 12.8284 19.5 12C19.5 11.1716 20.1716 10.5 21 10.5ZM18 12C18 10.3431 19.3431 9 21 9C22.6569 9 24 10.3431 24 12C24 12.2735 23.9634 12.5385 23.8948 12.7903L25.8501 13.9076C26.3951 13.3478 27.1569 13 28 13C29.6569 13 31 14.3431 31 16C31 17.6569 29.6569 19 28 19C27.1569 19 26.3951 18.6522 25.8501 18.0923L23.8948 19.2097C23.9634 19.4615 24 19.7265 24 20C24 21.6569 22.6569 23 21 23C19.3431 23 18 21.6569 18 20C18 18.3431 19.3431 17 21 17C21.8431 17 22.6049 17.3478 23.1499 17.9077L25.1052 16.7904C25.0366 16.5386 25 16.2736 25 16C25 15.7264 25.0366 15.4614 25.1052 15.2096L23.1499 14.0923C22.6049 14.6522 21.8431 15 21 15C19.3431 15 18 13.6569 18 12ZM21 18.5C21.8284 18.5 22.5 19.1716 22.5 20C22.5 20.8284 21.8284 21.5 21 21.5C20.1716 21.5 19.5 20.8284 19.5 20C19.5 19.1716 20.1716 18.5 21 18.5ZM29.5 16C29.5 15.1716 28.8284 14.5 28 14.5C27.1716 14.5 26.5 15.1716 26.5 16C26.5 16.8284 27.1716 17.5 28 17.5C28.8284 17.5 29.5 16.8284 29.5 16Z" fill="black"/>
</svg>
