<svg width="48" height="32" viewBox="0 0 48 32" fill="none" xmlns="http://www.w3.org/2000/svg">
<path fill-rule="evenodd" clip-rule="evenodd" d="M29.5 19C29.5 18.1716 28.8284 17.5 28 17.5C27.1716 17.5 26.5 18.1716 26.5 19C26.5 19.8284 27.1716 20.5 28 20.5C28.8284 20.5 29.5 19.8284 29.5 19ZM28 22C29.6569 22 31 20.6569 31 19C31 17.3431 29.6569 16 28 16C27.7265 16 27.4615 16.0366 27.2097 16.1052L26.0924 14.1499C26.6522 13.6049 27 12.8431 27 12C27 10.3431 25.6569 9 24 9C22.3431 9 21 10.3431 21 12C21 12.8431 21.3478 13.6049 21.9077 14.1499L20.7903 16.1052C20.5385 16.0366 20.2735 16 20 16C18.3431 16 17 17.3431 17 19C17 20.6569 18.3431 22 20 22C21.6569 22 23 20.6569 23 19C23 18.1569 22.6522 17.3951 22.0923 16.8501L23.2096 14.8948C23.4614 14.9634 23.7264 15 24 15C24.2736 15 24.5386 14.9634 24.7904 14.8948L25.9077 16.8501C25.3478 17.3951 25 18.1569 25 19C25 20.6569 26.3431 22 28 22ZM21.5 19C21.5 18.1716 20.8284 17.5 20 17.5C19.1716 17.5 18.5 18.1716 18.5 19C18.5 19.8284 19.1716 20.5 20 20.5C20.8284 20.5 21.5 19.8284 21.5 19ZM24 10.5C24.8284 10.5 25.5 11.1716 25.5 12C25.5 12.8284 24.8284 13.5 24 13.5C23.1716 13.5 22.5 12.8284 22.5 12C22.5 11.1716 23.1716 10.5 24 10.5Z" fill="black"/>
</svg>
