<svg width="48" height="32" viewBox="0 0 48 32" fill="none" xmlns="http://www.w3.org/2000/svg">
<path fill-rule="evenodd" clip-rule="evenodd" d="M29.8735 16.25L27.1532 20.9617C27.0639 21.1164 26.8989 21.2117 26.7202 21.2117H21.2796C21.101 21.2117 20.9359 21.1164 20.8466 20.9617L18.1263 16.25C18.037 16.0953 18.037 15.9047 18.1263 15.75L20.8466 11.0383C20.9359 10.8836 21.101 10.7883 21.2796 10.7883L26.7202 10.7883C26.8989 10.7883 27.0639 10.8836 27.1532 11.0383L29.8735 15.75C29.9629 15.9047 29.9629 16.0953 29.8735 16.25ZM31.1726 15C31.5298 15.6188 31.5298 16.3812 31.1726 17L28.4523 21.7117C28.095 22.3305 27.4348 22.7117 26.7202 22.7117H21.2796C20.5651 22.7117 19.9048 22.3305 19.5476 21.7117L16.8273 17C16.47 16.3812 16.47 15.6188 16.8273 15L19.5476 10.2883C19.9048 9.6695 20.5651 9.2883 21.2796 9.2883H26.7202C27.4348 9.2883 28.095 9.6695 28.4523 10.2883L31.1726 15ZM25.4999 16C25.4999 16.8284 24.8284 17.5 23.9999 17.5C23.1715 17.5 22.4999 16.8284 22.4999 16C22.4999 15.1716 23.1715 14.5 23.9999 14.5C24.8284 14.5 25.4999 15.1716 25.4999 16ZM26.9999 16C26.9999 17.6568 25.6568 19 23.9999 19C22.3431 19 20.9999 17.6568 20.9999 16C20.9999 14.3431 22.3431 13 23.9999 13C25.6568 13 26.9999 14.3431 26.9999 16Z" fill="black"/>
</svg>
