<svg width="48" height="32" viewBox="0 0 48 32" fill="none" xmlns="http://www.w3.org/2000/svg">
<path fill-rule="evenodd" clip-rule="evenodd" d="M18 9.75C18 9.33579 18.3358 9 18.75 9C19.1642 9 19.5 9.33579 19.5 9.75L19.5 22.25C19.5 22.6642 19.1642 23 18.75 23C18.3358 23 18 22.6642 18 22.25L18 9.75ZM22.5 13.5L22.5 12C22.5 11.7239 22.7239 11.5 23 11.5L28.5 11.5C28.7761 11.5 29 11.7239 29 12L29 13.5C29 13.7761 28.7761 14 28.5 14L23 14C22.7239 14 22.5 13.7761 22.5 13.5ZM21 12C21 10.8954 21.8954 10 23 10L28.5 10C29.6046 10 30.5 10.8954 30.5 12L30.5 13.5C30.5 14.6046 29.6046 15.5 28.5 15.5L23 15.5C21.8954 15.5 21 14.6046 21 13.5L21 12ZM22.5 20L22.5 18.5C22.5 18.2239 22.7239 18 23 18L25 18C25.2761 18 25.5 18.2239 25.5 18.5L25.5 20C25.5 20.2761 25.2761 20.5 25 20.5L23 20.5C22.7239 20.5 22.5 20.2761 22.5 20ZM21 18.5C21 17.3954 21.8954 16.5 23 16.5L25 16.5C26.1046 16.5 27 17.3954 27 18.5L27 20C27 21.1046 26.1046 22 25 22L23 22C21.8954 22 21 21.1046 21 20L21 18.5Z" fill="black"/>
</svg>
