<svg width="48" height="32" viewBox="0 0 48 32" fill="none" xmlns="http://www.w3.org/2000/svg">
<path fill-rule="evenodd" clip-rule="evenodd" d="M17.75 22C17.3358 22 17 21.6642 17 21.25C17 20.8358 17.3358 20.5 17.75 20.5L30.25 20.5C30.6642 20.5 31 20.8358 31 21.25C31 21.6642 30.6642 22 30.25 22L17.75 22ZM21.5 17.5L20 17.5C19.7239 17.5 19.5 17.2761 19.5 17L19.5 11.5C19.5 11.2239 19.7239 11 20 11L21.5 11C21.7761 11 22 11.2239 22 11.5L22 17C22 17.2761 21.7761 17.5 21.5 17.5ZM20 19C18.8954 19 18 18.1046 18 17L18 11.5C18 10.3954 18.8954 9.5 20 9.5L21.5 9.5C22.6046 9.5 23.5 10.3954 23.5 11.5L23.5 17C23.5 18.1046 22.6046 19 21.5 19L20 19ZM28 17.5L26.5 17.5C26.2239 17.5 26 17.2761 26 17L26 15C26 14.7239 26.2239 14.5 26.5 14.5L28 14.5C28.2761 14.5 28.5 14.7239 28.5 15L28.5 17C28.5 17.2761 28.2761 17.5 28 17.5ZM26.5 19C25.3954 19 24.5 18.1046 24.5 17L24.5 15C24.5 13.8954 25.3954 13 26.5 13L28 13C29.1046 13 30 13.8954 30 15L30 17C30 18.1046 29.1046 19 28 19L26.5 19Z" fill="black"/>
</svg>
