<svg width="48" height="32" viewBox="0 0 48 32" fill="none" xmlns="http://www.w3.org/2000/svg">
<path fill-rule="evenodd" clip-rule="evenodd" d="M17.75 10C17.3358 10 17 10.3358 17 10.75C17 11.1642 17.3358 11.5 17.75 11.5H30.25C30.6642 11.5 31 11.1642 31 10.75C31 10.3358 30.6642 10 30.25 10H17.75ZM21.5 14.5H20C19.7239 14.5 19.5 14.7239 19.5 15V20.5C19.5 20.7761 19.7239 21 20 21H21.5C21.7761 21 22 20.7761 22 20.5V15C22 14.7239 21.7761 14.5 21.5 14.5ZM20 13C18.8954 13 18 13.8954 18 15V20.5C18 21.6046 18.8954 22.5 20 22.5H21.5C22.6046 22.5 23.5 21.6046 23.5 20.5V15C23.5 13.8954 22.6046 13 21.5 13H20ZM28 14.5H26.5C26.2239 14.5 26 14.7239 26 15V17C26 17.2761 26.2239 17.5 26.5 17.5H28C28.2761 17.5 28.5 17.2761 28.5 17V15C28.5 14.7239 28.2761 14.5 28 14.5ZM26.5 13C25.3954 13 24.5 13.8954 24.5 15V17C24.5 18.1046 25.3954 19 26.5 19H28C29.1046 19 30 18.1046 30 17V15C30 13.8954 29.1046 13 28 13H26.5Z" fill="black"/>
</svg>
