<svg width="48" height="32" viewBox="0 0 48 32" fill="none" xmlns="http://www.w3.org/2000/svg">
<path fill-rule="evenodd" clip-rule="evenodd" d="M21.5 11H20C19.7239 11 19.5 11.2239 19.5 11.5V20.5C19.5 20.7761 19.7239 21 20 21H21.5C21.7761 21 22 20.7761 22 20.5V16.0009C22 16.0006 22 16.0003 22 16C22 15.9997 22 15.9994 22 15.9991V11.5C22 11.2239 21.7761 11 21.5 11ZM23.5 15.25V11.5C23.5 10.3954 22.6046 9.5 21.5 9.5L20 9.5C18.8954 9.5 18 10.3954 18 11.5V15.25L17.75 15.25C17.3358 15.25 17 15.5858 17 16C17 16.4142 17.3358 16.75 17.75 16.75H18V20.5C18 21.6046 18.8954 22.5 20 22.5H21.5C22.6046 22.5 23.5 21.6046 23.5 20.5V16.75H24.5V18C24.5 19.1046 25.3954 20 26.5 20H28C29.1046 20 30 19.1046 30 18V16.75L30.25 16.75C30.6642 16.75 31 16.4142 31 16C31 15.5858 30.6642 15.25 30.25 15.25L30 15.25V14C30 12.8954 29.1046 12 28 12H26.5C25.3954 12 24.5 12.8954 24.5 14V15.25L23.5 15.25ZM26 16V18C26 18.2761 26.2239 18.5 26.5 18.5H28C28.2761 18.5 28.5 18.2761 28.5 18V14C28.5 13.7239 28.2761 13.5 28 13.5H26.5C26.2239 13.5 26 13.7239 26 14V16Z" fill="black"/>
</svg>
