<svg width="48" height="32" viewBox="0 0 48 32" fill="none" xmlns="http://www.w3.org/2000/svg">
<path fill-rule="evenodd" clip-rule="evenodd" d="M29 13.5L29 12C29 11.7239 28.7761 11.5 28.5 11.5L19.5 11.5C19.2239 11.5 19 11.7239 19 12L19 13.5C19 13.7761 19.2239 14 19.5 14L23.9991 14C23.9994 14 23.9997 14 24 14C24.0003 14 24.0006 14 24.0009 14L28.5 14C28.7761 14 29 13.7761 29 13.5ZM24.75 15.5L28.5 15.5C29.6046 15.5 30.5 14.6046 30.5 13.5L30.5 12C30.5 10.8954 29.6046 10 28.5 10L24.75 10L24.75 9.75C24.75 9.33579 24.4142 9 24 9C23.5858 9 23.25 9.33579 23.25 9.75L23.25 10L19.5 10C18.3954 10 17.5 10.8954 17.5 12L17.5 13.5C17.5 14.6046 18.3954 15.5 19.5 15.5L23.25 15.5L23.25 16.5L22 16.5C20.8954 16.5 20 17.3954 20 18.5L20 20C20 21.1046 20.8954 22 22 22L23.25 22L23.25 22.25C23.25 22.6642 23.5858 23 24 23C24.4142 23 24.75 22.6642 24.75 22.25L24.75 22L26 22C27.1046 22 28 21.1046 28 20L28 18.5C28 17.3954 27.1046 16.5 26 16.5L24.75 16.5L24.75 15.5ZM24 18L22 18C21.7239 18 21.5 18.2239 21.5 18.5L21.5 20C21.5 20.2761 21.7239 20.5 22 20.5L26 20.5C26.2761 20.5 26.5 20.2761 26.5 20L26.5 18.5C26.5 18.2239 26.2761 18 26 18L24 18Z" fill="black"/>
</svg>
