<svg width="48" height="32" viewBox="0 0 48 32" fill="none" xmlns="http://www.w3.org/2000/svg">
<path fill-rule="evenodd" clip-rule="evenodd" d="M30 9.75C30 9.33579 29.6642 9 29.25 9C28.8358 9 28.5 9.33579 28.5 9.75L28.5 22.25C28.5 22.6642 28.8358 23 29.25 23C29.6642 23 30 22.6642 30 22.25L30 9.75ZM25.5 13.5L25.5 12C25.5 11.7239 25.2761 11.5 25 11.5L19.5 11.5C19.2239 11.5 19 11.7239 19 12L19 13.5C19 13.7761 19.2239 14 19.5 14L25 14C25.2761 14 25.5 13.7761 25.5 13.5ZM27 12C27 10.8954 26.1046 10 25 10L19.5 10C18.3954 10 17.5 10.8954 17.5 12L17.5 13.5C17.5 14.6046 18.3954 15.5 19.5 15.5L25 15.5C26.1046 15.5 27 14.6046 27 13.5L27 12ZM25.5 20L25.5 18.5C25.5 18.2239 25.2761 18 25 18L23 18C22.7239 18 22.5 18.2239 22.5 18.5L22.5 20C22.5 20.2761 22.7239 20.5 23 20.5L25 20.5C25.2761 20.5 25.5 20.2761 25.5 20ZM27 18.5C27 17.3954 26.1046 16.5 25 16.5L23 16.5C21.8954 16.5 21 17.3954 21 18.5L21 20C21 21.1046 21.8954 22 23 22L25 22C26.1046 22 27 21.1046 27 20L27 18.5Z" fill="black"/>
</svg>
