<svg width="48" height="32" viewBox="0 0 48 32" fill="none" xmlns="http://www.w3.org/2000/svg">
<path fill-rule="evenodd" clip-rule="evenodd" d="M21.8286 10.4999L26.1714 10.4999C26.304 10.4999 26.4312 10.5526 26.525 10.6464L29.3535 13.4748C29.4473 13.5686 29.5 13.6957 29.5 13.8283L29.5001 18.1715C29.5001 18.3041 29.4474 18.4313 29.3536 18.525L26.5251 21.3536C26.4313 21.4473 26.3041 21.5 26.1715 21.5L21.8285 21.5C21.6959 21.4999 21.5688 21.4473 21.475 21.3535L18.6465 18.525C18.5527 18.4313 18.5 18.3041 18.5 18.1715L18.5001 13.8284C18.5001 13.6958 18.5528 13.5686 18.6466 13.4748L21.475 10.6464C21.5688 10.5526 21.6959 10.4999 21.8286 10.4999ZM20.4143 9.58572C20.7894 9.21065 21.2981 8.99994 21.8286 8.99994L26.1714 8.99995C26.7019 8.99995 27.2106 9.21065 27.5856 9.5857L30.4142 12.4141C30.7892 12.7892 31 13.2979 31 13.8283L31.0001 18.1714C31.0001 18.7019 30.7894 19.2106 30.4143 19.5857L27.5857 22.4142C27.2106 22.7893 26.7019 23 26.1715 23L21.8285 22.9999C21.2981 22.9999 20.7894 22.7892 20.4144 22.4142L17.5858 19.5857C17.2107 19.2106 17 18.7019 17 18.1714L17.0001 13.8283C17.0001 13.2979 17.2108 12.7892 17.5859 12.4142L20.4143 9.58572ZM22.5303 13.4697C22.2374 13.1768 21.7626 13.1768 21.4697 13.4697C21.1768 13.7626 21.1768 14.2375 21.4697 14.5303L22.9393 16L21.4697 17.4697C21.1768 17.7626 21.1768 18.2375 21.4697 18.5303C21.7626 18.8232 22.2374 18.8232 22.5303 18.5303L24 17.0607L25.4697 18.5303C25.7626 18.8232 26.2374 18.8232 26.5303 18.5303C26.8232 18.2375 26.8232 17.7626 26.5303 17.4697L25.0607 16L26.5303 14.5303C26.8232 14.2375 26.8232 13.7626 26.5303 13.4697C26.2374 13.1768 25.7626 13.1768 25.4697 13.4697L24 14.9394L22.5303 13.4697Z" fill="black"/>
</svg>
