<svg width="48" height="32" viewBox="0 0 48 32" fill="none" xmlns="http://www.w3.org/2000/svg">
<path fill-rule="evenodd" clip-rule="evenodd" d="M25.7691 18.7306C25.7729 18.727 25.7766 18.7234 25.7803 18.7197L28.8609 15.6391C29.5903 14.9097 30 13.9205 30 12.8891C30 10.7412 28.2588 9 26.1109 9C25.0795 9 24.0903 9.40974 23.3609 10.1391L20.7309 12.7691L20.7197 12.7801L19.0533 14.4465C18.0587 15.441 17.5 16.7899 17.5 18.1965C17.5 21.1254 19.8744 23.4998 22.8033 23.4998C24.2098 23.4998 25.5587 22.941 26.5533 21.9465L29.7197 18.7801C30.0126 18.4872 30.0126 18.0123 29.7197 17.7194C29.4268 17.4265 28.9519 17.4265 28.659 17.7194L25.4926 20.8858C24.7794 21.5991 23.812 21.9998 22.8033 21.9998C20.7028 21.9998 19 20.297 19 18.1965C19 17.1878 19.4007 16.2204 20.114 15.5071L21.3298 14.2913L21.341 14.2803L24.4216 11.1997C24.8696 10.7517 25.4773 10.5 26.1109 10.5C27.4304 10.5 28.5 11.5696 28.5 12.8891C28.5 13.5227 28.2483 14.1304 27.8003 14.5784L26.6701 15.7085C26.6664 15.7121 26.6626 15.7158 26.6589 15.7195L23.6642 18.7142C23.4814 18.8971 23.2334 18.9998 22.9749 18.9998C22.4365 18.9998 22 18.5633 22 18.0249C22 17.7663 22.1027 17.5184 22.2855 17.3356L25.2803 14.3408C25.5732 14.0479 25.5732 13.5731 25.2803 13.2802C24.9874 12.9873 24.5125 12.9873 24.2196 13.2802L21.2249 16.2749C20.7607 16.739 20.5 17.3685 20.5 18.0249C20.5 19.3917 21.608 20.4998 22.9749 20.4998C23.6313 20.4998 24.2607 20.239 24.7249 19.7749L25.7691 18.7306Z" fill="black"/>
</svg>
