<svg width="48" height="32" viewBox="0 0 48 32" fill="none" xmlns="http://www.w3.org/2000/svg">
<path fill-rule="evenodd" clip-rule="evenodd" d="M23.2906 21.9036L21.25 18.75L18.0964 16.7094C17.4128 16.2671 17 15.5084 17 14.6941C17 13.6785 17.6392 12.7727 18.5962 12.4325L27.8688 9.13553C28.1211 9.04584 28.3868 9 28.6546 9C29.9499 9 31 10.0501 31 11.3454C31 11.6132 30.9542 11.8789 30.8645 12.1312L29.4511 11.6287C29.4835 11.5377 29.5 11.4419 29.5 11.3454C29.5 10.8785 29.1215 10.5 28.6546 10.5C28.5581 10.5 28.4623 10.5165 28.3713 10.5489L19.0987 13.8458C18.7398 13.9734 18.5 14.3131 18.5 14.6941C18.5 14.9995 18.6548 15.2841 18.9112 15.4501L21.6908 17.2486L24.9697 13.9697C25.2626 13.6768 25.7374 13.6768 26.0303 13.9697C26.3232 14.2626 26.3232 14.7374 26.0303 15.0303L22.7514 18.3092L24.5499 21.0888C24.7159 21.3452 25.0005 21.5 25.3059 21.5C25.6869 21.5 26.0266 21.2602 26.1542 20.9013L29.4511 11.6287L30.8645 12.1312L27.5675 21.4038C27.2273 22.3608 26.3215 23 25.3059 23C24.4916 23 23.7329 22.5872 23.2906 21.9036Z" fill="black"/>
</svg>
