<svg width="48" height="32" viewBox="0 0 48 32" fill="none" xmlns="http://www.w3.org/2000/svg">
<path fill-rule="evenodd" clip-rule="evenodd" d="M19.5 11V21C19.5 21.2761 19.7239 21.5 20 21.5H27C27.8284 21.5 28.5 20.8284 28.5 20V12C28.5 11.1716 27.8284 10.5 27 10.5L20 10.5C19.7239 10.5 19.5 10.7239 19.5 11ZM18 21C18 22.1046 18.8954 23 20 23H27C28.6569 23 30 21.6569 30 20V12C30 10.3431 28.6569 9 27 9H20C18.8954 9 18 9.89543 18 11V21ZM21.5 18.75C21.5 18.3358 21.8358 18 22.25 18H25.75C26.1642 18 26.5 18.3358 26.5 18.75C26.5 19.1642 26.1642 19.5 25.75 19.5H22.25C21.8358 19.5 21.5 19.1642 21.5 18.75ZM25 14.5C25 15.0523 24.5523 15.5 24 15.5C23.4477 15.5 23 15.0523 23 14.5C23 13.9477 23.4477 13.5 24 13.5C24.5523 13.5 25 13.9477 25 14.5ZM26.5 14.5C26.5 15.8807 25.3807 17 24 17C22.6193 17 21.5 15.8807 21.5 14.5C21.5 13.1193 22.6193 12 24 12C25.3807 12 26.5 13.1193 26.5 14.5Z" fill="black"/>
</svg>
