<svg width="48" height="56" viewBox="0 0 48 56" fill="none" xmlns="http://www.w3.org/2000/svg">
<path fill-rule="evenodd" clip-rule="evenodd" d="M19.5 11H21.25C21.5261 11 21.75 11.2239 21.75 11.5V20.5C21.75 20.7761 21.5261 21 21.25 21H19.5C19.2239 21 19 20.7761 19 20.5V11.5C19 11.2239 19.2239 11 19.5 11ZM17.5 11.5C17.5 10.3954 18.3954 9.5 19.5 9.5H21.25C22.3546 9.5 23.25 10.3954 23.25 11.5V20.5C23.25 21.6046 22.3546 22.5 21.25 22.5H19.5C18.3954 22.5 17.5 21.6046 17.5 20.5V11.5ZM26.75 11H28.5C28.7761 11 29 11.2239 29 11.5V20.5C29 20.7761 28.7761 21 28.5 21H26.75C26.4739 21 26.25 20.7761 26.25 20.5V11.5C26.25 11.2239 26.4739 11 26.75 11ZM24.75 11.5C24.75 10.3954 25.6454 9.5 26.75 9.5H28.5C29.6046 9.5 30.5 10.3954 30.5 11.5V20.5C30.5 21.6046 29.6046 22.5 28.5 22.5H26.75C25.6454 22.5 24.75 21.6046 24.75 20.5V11.5Z" fill="black"/>
<path fill-rule="evenodd" clip-rule="evenodd" d="M17.5 35.5C17.5 34.3954 18.3954 33.5 19.5 33.5H21C22.1046 33.5 23 34.3954 23 35.5V44.5C23 45.6046 22.1046 46.5 21 46.5H19.5C18.3954 46.5 17.5 45.6046 17.5 44.5V35.5ZM25 35.5C25 34.3954 25.8954 33.5 27 33.5L28.5 33.5C29.6046 33.5 30.5 34.3954 30.5 35.5V44.5C30.5 45.6046 29.6046 46.5 28.5 46.5H27C25.8954 46.5 25 45.6046 25 44.5V35.5Z" fill="black"/>
</svg>
