<svg width="48" height="32" viewBox="0 0 48 32" fill="none" xmlns="http://www.w3.org/2000/svg">
<path fill-rule="evenodd" clip-rule="evenodd" d="M27.4233 9C29.3986 9 31 10.6013 31 12.5767C31 12.8477 30.8923 13.1077 30.7007 13.2993L30.1722 13.8278L28.201 15.799C28.2009 15.7991 28.2008 15.7992 28.2007 15.7993L23.1423 20.8577C22.7235 21.2765 22.1901 21.562 21.6093 21.6781L18.9708 22.2058C18.2711 22.3458 17.6542 21.7289 17.7941 21.0291L18.3218 18.3907C18.438 17.8099 18.7235 17.2765 19.1423 16.8577L24.2007 11.7993C24.2009 11.7991 24.2011 11.7989 24.2013 11.7987L26.7007 9.29931C26.8923 9.10767 27.1522 9 27.4233 9ZM25.1128 13.0085L20.2029 17.9184C19.9935 18.1278 19.8508 18.3945 19.7927 18.6849L19.4121 20.5879L21.3151 20.2073C21.5692 20.1564 21.8051 20.0408 22.0004 19.8724C22.0283 19.8484 22.0554 19.8232 22.0816 19.7971L26.9914 14.8872C26.9014 13.8915 26.1085 13.0986 25.1128 13.0085ZM28.2115 13.6671C27.8501 12.8252 27.1748 12.1499 26.3328 11.7885L27.6128 10.5085C28.6085 10.5986 29.4014 11.3915 29.4914 12.3872L28.2115 13.6671Z" fill="black"/>
</svg>
