<svg width="48" height="32" viewBox="0 0 48 32" fill="none" xmlns="http://www.w3.org/2000/svg">
<path fill-rule="evenodd" clip-rule="evenodd" d="M28.238 11.6407C28.1405 10.787 27.463 10.1095 26.6093 10.012L25.8099 10.8114C26.5263 11.1448 27.1052 11.7237 27.4386 12.4401L28.238 11.6407ZM20.7405 15.8809L24.6093 12.012C25.463 12.1095 26.1405 12.787 26.238 13.6407L22.3691 17.5095C22.3415 17.5372 22.3129 17.5636 22.2833 17.5889C22.0766 17.7657 21.8249 17.8835 21.5551 17.9285L20.0748 18.1752L20.3215 16.6949C20.3729 16.3865 20.5194 16.1019 20.7405 15.8809ZM25.7194 8.78061L23.7194 10.7806L19.6798 14.8202C19.2377 15.2623 18.9447 15.8316 18.8419 16.4483L18.4802 18.619C18.3674 19.2959 18.9541 19.8826 19.631 19.7698L21.8017 19.4081C22.4184 19.3053 22.9877 19.0123 23.4298 18.5702L27.4694 14.5306L29.4694 12.5306C29.6491 12.3509 29.75 12.1073 29.75 11.8532C29.75 10.0013 28.2487 8.5 26.3968 8.5C26.1427 8.5 25.8991 8.60094 25.7194 8.78061ZM18.75 21C18.3358 21 18 21.3358 18 21.75C18 22.1642 18.3358 22.5 18.75 22.5H29.25C29.6642 22.5 30 22.1642 30 21.75C30 21.3358 29.6642 21 29.25 21H18.75Z" fill="black"/>
</svg>
