<svg width="48" height="32" viewBox="0 0 48 32" fill="none" xmlns="http://www.w3.org/2000/svg">
<path fill-rule="evenodd" clip-rule="evenodd" d="M22.1687 14.3313C21.7335 14.7665 21.4426 15.3251 21.3357 15.9313L20.9983 17.8432C20.8776 18.5268 21.4732 19.1224 22.1568 19.0017L24.0687 18.6643C24.6749 18.5574 25.2335 18.2665 25.6687 17.8313L28.7381 14.7619L30.7381 12.7619C30.9058 12.5942 31 12.3668 31 12.1296C31 10.4012 29.5988 9 27.8704 9C27.6332 9 27.4058 9.09421 27.2381 9.2619L25.2381 11.2619L22.1687 14.3313ZM26.1046 12.5167L23.2293 15.392C23.0117 15.6096 22.8663 15.8889 22.8128 16.192L22.5996 17.4004L23.808 17.1872C23.827 17.1838 23.8458 17.1801 23.8646 17.1761C24.1458 17.1152 24.404 16.9747 24.608 16.7707L27.4833 13.8954C27.3807 13.1828 26.8172 12.6193 26.1046 12.5167ZM28.6631 12.7156C28.3621 12.1223 27.8777 11.6379 27.2844 11.3369L28.1046 10.5167C28.8172 10.6193 29.3807 11.1828 29.4833 11.8954L28.6631 12.7156ZM24 10.25C24 9.83579 23.6642 9.5 23.25 9.5H20.5C18.8431 9.5 17.5 10.8431 17.5 12.5V19.5C17.5 21.1569 18.8431 22.5 20.5 22.5H27.5C29.1569 22.5 30.5 21.1569 30.5 19.5V16.75C30.5 16.3358 30.1642 16 29.75 16C29.3358 16 29 16.3358 29 16.75V19.5C29 20.3284 28.3284 21 27.5 21H20.5C19.6716 21 19 20.3284 19 19.5V12.5C19 11.6716 19.6716 11 20.5 11H23.25C23.6642 11 24 10.6642 24 10.25Z" fill="black"/>
</svg>
