<svg width="48" height="32" viewBox="0 0 48 32" fill="none" xmlns="http://www.w3.org/2000/svg">
<path fill-rule="evenodd" clip-rule="evenodd" d="M20.5 15.5C19.9729 15.5 19.4776 15.3641 19.0472 15.1254C18.1245 14.6137 17.5 13.6298 17.5 12.5C17.5 10.8431 18.8431 9.5 20.5 9.5C22.1569 9.5 23.5 10.8431 23.5 12.5C23.5 13.0271 23.3641 13.5224 23.1254 13.9528C22.6137 14.8755 21.6298 15.5 20.5 15.5ZM22 12.5C22 13.3284 21.3284 14 20.5 14C19.6716 14 19 13.3284 19 12.5C19 11.6716 19.6716 11 20.5 11C21.3284 11 22 11.6716 22 12.5ZM27.5 22.5C26.9729 22.5 26.4776 22.3641 26.0472 22.1254C25.1245 21.6137 24.5 20.6298 24.5 19.5C24.5 17.8431 25.8431 16.5 27.5 16.5C29.1569 16.5 30.5 17.8431 30.5 19.5C30.5 20.0271 30.3641 20.5224 30.1254 20.9528C29.6137 21.8755 28.6298 22.5 27.5 22.5ZM29 19.5C29 20.3284 28.3284 21 27.5 21C26.6716 21 26 20.3284 26 19.5C26 18.6716 26.6716 18 27.5 18C28.3284 18 29 18.6716 29 19.5ZM29.7803 11.2803C30.0732 10.9874 30.0732 10.5126 29.7803 10.2197C29.4874 9.92678 29.0126 9.92678 28.7197 10.2197L18.2197 20.7197C17.9268 21.0126 17.9268 21.4874 18.2197 21.7803C18.5126 22.0732 18.9874 22.0732 19.2803 21.7803L29.7803 11.2803Z" fill="black"/>
</svg>
