<svg width="48" height="32" viewBox="0 0 48 32" fill="none" xmlns="http://www.w3.org/2000/svg">
<path fill-rule="evenodd" clip-rule="evenodd" d="M24 14.5C25.1046 14.5 26 13.6046 26 12.5C26 11.3954 25.1046 10.5 24 10.5C22.8954 10.5 22 11.3954 22 12.5C22 13.6046 22.8954 14.5 24 14.5ZM24 16C25.933 16 27.5 14.433 27.5 12.5C27.5 10.567 25.933 9 24 9C22.067 9 20.5 10.567 20.5 12.5C20.5 14.433 22.067 16 24 16ZM25 17.2252C25 16.8401 24.7063 16.5158 24.3214 16.5047C24.2148 16.5016 24.1077 16.5 24 16.5C20.15 16.5 17 18.5 17 20.5C17 21.8807 18.1193 23 19.5 23H28.25C28.6642 23 29 22.6642 29 22.25C29 21.8358 28.6642 21.5 28.25 21.5H19.5C18.9477 21.5 18.5 21.0523 18.5 20.5C18.5 20.2955 18.7203 19.6911 19.8196 19.0413C20.8375 18.4395 22.3198 18 24 18C24.0584 18 24.1167 18.0005 24.1746 18.0016C24.6166 18.0096 25 17.6673 25 17.2252ZM29 16.9393L28.0303 15.9697C27.7374 15.6768 27.2626 15.6768 26.9697 15.9697C26.6768 16.2626 26.6768 16.7374 26.9697 17.0303L27.9393 18L26.9697 18.9697C26.6768 19.2626 26.6768 19.7374 26.9697 20.0303C27.2626 20.3232 27.7374 20.3232 28.0303 20.0303L29 19.0607L29.9697 20.0303C30.2626 20.3232 30.7374 20.3232 31.0303 20.0303C31.3232 19.7374 31.3232 19.2626 31.0303 18.9697L30.0607 18L31.0303 17.0303C31.3232 16.7374 31.3232 16.2626 31.0303 15.9697C30.7374 15.6768 30.2626 15.6768 29.9697 15.9697L29 16.9393Z" fill="black"/>
</svg>
