<svg width="48" height="32" viewBox="0 0 48 32" fill="none" xmlns="http://www.w3.org/2000/svg">
<path fill-rule="evenodd" clip-rule="evenodd" d="M26 12.5C26 13.6046 25.1046 14.5 24 14.5C22.8954 14.5 22 13.6046 22 12.5C22 11.3954 22.8954 10.5 24 10.5C25.1046 10.5 26 11.3954 26 12.5ZM27.5 12.5C27.5 14.433 25.933 16 24 16C22.067 16 20.5 14.433 20.5 12.5C20.5 10.567 22.067 9 24 9C25.933 9 27.5 10.567 27.5 12.5ZM18.5 20.5C18.5 20.2955 18.7203 19.6911 19.8196 19.0413C20.8375 18.4395 22.3198 18 24 18C25.6802 18 27.1625 18.4395 28.1804 19.0413C29.2797 19.6911 29.5 20.2955 29.5 20.5C29.5 21.0523 29.0523 21.5 28.5 21.5H19.5C18.9477 21.5 18.5 21.0523 18.5 20.5ZM24 16.5C20.15 16.5 17 18.5 17 20.5C17 21.8807 18.1193 23 19.5 23H28.5C29.8807 23 31 21.8807 31 20.5C31 18.5 27.85 16.5 24 16.5Z" fill="black"/>
</svg>
