<svg width="48" height="32" viewBox="0 0 48 32" fill="none" xmlns="http://www.w3.org/2000/svg">
<path fill-rule="evenodd" clip-rule="evenodd" d="M20.5354 11C20.7426 9.55151 21.8367 8.38913 23.25 8.08058V9.75C23.25 10.1642 23.5858 10.5 24 10.5C24.4142 10.5 24.75 10.1642 24.75 9.75V8.08057C26.1632 8.38911 27.2573 9.5515 27.4646 11H27.75C28.1642 11 28.5 11.3358 28.5 11.75C28.5 12.1642 28.1642 12.5 27.75 12.5H27.5C27.5 14.433 25.933 16 24 16C22.067 16 20.5 14.433 20.5 12.5H20.25C19.8358 12.5 19.5 12.1642 19.5 11.75C19.5 11.3358 19.8358 11 20.25 11H20.5354ZM24 14.5C22.8954 14.5 22 13.6046 22 12.5H26C26 13.6046 25.1046 14.5 24 14.5ZM18.5 20.5C18.5 20.2955 18.7203 19.6911 19.8196 19.0413C19.8916 18.9987 19.9659 18.9569 20.0425 18.9161L21.0115 21.5H19.5C18.9477 21.5 18.5 21.0523 18.5 20.5ZM22.6135 21.5L21.4351 18.3575C22.1991 18.1349 23.0692 18 24 18C24.9308 18 25.8009 18.1349 26.5649 18.3575L25.3865 21.5H22.6135ZM26.9885 21.5H28.5C29.0523 21.5 29.5 21.0523 29.5 20.5C29.5 20.2955 29.2797 19.6911 28.1804 19.0413C28.1084 18.9987 28.0341 18.9569 27.9575 18.9161L26.9885 21.5ZM24 16.5C20.15 16.5 17 18.5 17 20.5C17 21.8807 18.1193 23 19.5 23H28.5C29.8807 23 31 21.8807 31 20.5C31 18.5 27.85 16.5 24 16.5Z" fill="black"/>
</svg>
