<svg width="48" height="32" viewBox="0 0 48 32" fill="none" xmlns="http://www.w3.org/2000/svg">
<path fill-rule="evenodd" clip-rule="evenodd" d="M21.5 14C22.3284 14 23 13.3284 23 12.5C23 11.6716 22.3284 11 21.5 11C20.6716 11 20 11.6716 20 12.5C20 13.3284 20.6716 14 21.5 14ZM21.5 15.5C23.1569 15.5 24.5 14.1569 24.5 12.5C24.5 10.8431 23.1569 9.5 21.5 9.5C19.8431 9.5 18.5 10.8431 18.5 12.5C18.5 14.1569 19.8431 15.5 21.5 15.5ZM18.4712 18.3859C17.6942 18.9255 17.5 19.4485 17.5 19.6923C17.5 20.1384 17.8616 20.5 18.3077 20.5H24.6923C25.1384 20.5 25.5 20.1384 25.5 19.6923C25.5 19.4485 25.3058 18.9255 24.5288 18.3859C23.7925 17.8746 22.7183 17.5 21.5 17.5C20.2817 17.5 19.2075 17.8746 18.4712 18.3859ZM16 19.6923C16 17.8462 18.475 16 21.5 16C22.6809 16 23.778 16.2813 24.6767 16.7342C25.4501 16.2858 26.4333 16 27.5 16C29.975 16 32 17.5385 32 19.0769C32 20.139 31.139 21 30.0769 21H26.594C26.1778 21.604 25.4813 22 24.6923 22H18.3077C17.0332 22 16 20.9668 16 19.6923ZM26.9911 19.5H30.0769C30.3106 19.5 30.5 19.3106 30.5 19.0769C30.5 18.9743 30.4039 18.6048 29.8119 18.1861C29.2575 17.794 28.437 17.5 27.5 17.5C26.9828 17.5 26.5012 17.5895 26.0802 17.7357C26.6064 18.2701 26.9342 18.8815 26.9911 19.5ZM28.5 13C28.5 13.5523 28.0523 14 27.5 14C26.9477 14 26.5 13.5523 26.5 13C26.5 12.4477 26.9477 12 27.5 12C28.0523 12 28.5 12.4477 28.5 13ZM30 13C30 14.3807 28.8807 15.5 27.5 15.5C26.1193 15.5 25 14.3807 25 13C25 11.6193 26.1193 10.5 27.5 10.5C28.8807 10.5 30 11.6193 30 13Z" fill="black"/>
</svg>
