<svg width="48" height="32" viewBox="0 0 48 32" fill="none" xmlns="http://www.w3.org/2000/svg">
<path fill-rule="evenodd" clip-rule="evenodd" d="M24 14.5C25.1046 14.5 26 13.6046 26 12.5C26 11.3954 25.1046 10.5 24 10.5C22.8954 10.5 22 11.3954 22 12.5C22 13.6046 22.8954 14.5 24 14.5ZM24 16C25.933 16 27.5 14.433 27.5 12.5C27.5 10.567 25.933 9 24 9C22.067 9 20.5 10.567 20.5 12.5C20.5 14.433 22.067 16 24 16ZM25 17.2252C25 16.8401 24.7063 16.5158 24.3214 16.5047C24.2148 16.5016 24.1077 16.5 24 16.5C20.15 16.5 17 18.5 17 20.5C17 21.8807 18.1193 23 19.5 23H28.25C28.6642 23 29 22.6642 29 22.25C29 21.8358 28.6642 21.5 28.25 21.5H19.5C18.9477 21.5 18.5 21.0523 18.5 20.5C18.5 20.2955 18.7203 19.6911 19.8196 19.0413C20.8375 18.4395 22.3198 18 24 18C24.0584 18 24.1167 18.0005 24.1746 18.0016C24.6166 18.0096 25 17.6673 25 17.2252ZM29.75 16C29.75 15.5858 29.4142 15.25 29 15.25C28.5858 15.25 28.25 15.5858 28.25 16V17.25H27C26.5858 17.25 26.25 17.5858 26.25 18C26.25 18.4142 26.5858 18.75 27 18.75H28.25V20C28.25 20.4142 28.5858 20.75 29 20.75C29.4142 20.75 29.75 20.4142 29.75 20V18.75H31C31.4142 18.75 31.75 18.4142 31.75 18C31.75 17.5858 31.4142 17.25 31 17.25H29.75V16Z" fill="black"/>
</svg>
