<svg width="48" height="32" viewBox="0 0 48 32" fill="none" xmlns="http://www.w3.org/2000/svg">
<path fill-rule="evenodd" clip-rule="evenodd" d="M23 14.5C24.1046 14.5 25 13.6046 25 12.5C25 11.3954 24.1046 10.5 23 10.5C21.8954 10.5 21 11.3954 21 12.5C21 13.6046 21.8954 14.5 23 14.5ZM23 16C24.933 16 26.5 14.433 26.5 12.5C26.5 10.567 24.933 9 23 9C21.067 9 19.5 10.567 19.5 12.5C19.5 14.433 21.067 16 23 16ZM22.5 17.2986C22.5 16.8696 22.1409 16.5249 21.7149 16.5749C18.4731 16.9557 16 18.7279 16 20.5C16 21.8807 17.1193 23 18.5 23H21.75C22.1642 23 22.5 22.6642 22.5 22.25C22.5 21.8358 22.1642 21.5 21.75 21.5H18.5C17.9477 21.5 17.5 21.0523 17.5 20.5C17.5 20.2954 17.7203 19.6911 18.8196 19.0412C19.5846 18.589 20.612 18.2283 21.7886 18.0771C22.1857 18.026 22.5 17.699 22.5 17.2986ZM28.8728 22.5L30.279 20L28.8728 17.5L26.1273 17.5L24.7211 20L26.1273 22.5H28.8728ZM31.5864 20.7354C31.8432 20.2788 31.8432 19.7212 31.5864 19.2646L30.1801 16.7646C29.9145 16.2923 29.4147 16 28.8728 16H26.1273C25.5854 16 25.0856 16.2923 24.82 16.7646L23.4137 19.2646C23.1569 19.7212 23.1569 20.2788 23.4137 20.7354L24.82 23.2354C25.0856 23.7077 25.5854 24 26.1273 24H28.8728C29.4147 24 29.9145 23.7077 30.1801 23.2354L31.5864 20.7354ZM28.5 20C28.5 20.5523 28.0523 21 27.5 21C26.9478 21 26.5 20.5523 26.5 20C26.5 19.4477 26.9478 19 27.5 19C28.0523 19 28.5 19.4477 28.5 20Z" fill="black"/>
</svg>
