<svg width="48" height="32" viewBox="0 0 48 32" fill="none" xmlns="http://www.w3.org/2000/svg">
<g clip-path="url(#clip0_74_5514)">
<path fill-rule="evenodd" clip-rule="evenodd" d="M23 14.5C24.1046 14.5 25 13.6046 25 12.5C25 11.3954 24.1046 10.5 23 10.5C21.8954 10.5 21 11.3954 21 12.5C21 13.6046 21.8954 14.5 23 14.5ZM23 16C24.933 16 26.5 14.433 26.5 12.5C26.5 10.567 24.933 9 23 9C21.067 9 19.5 10.567 19.5 12.5C19.5 14.433 21.067 16 23 16ZM22.5 17.2986C22.5 16.8696 22.1409 16.5249 21.7149 16.5749C18.4731 16.9557 16 18.7279 16 20.5C16 21.8807 17.1193 23 18.5 23H21.75C22.1642 23 22.5 22.6642 22.5 22.25C22.5 21.8358 22.1642 21.5 21.75 21.5H18.5C17.9477 21.5 17.5 21.0523 17.5 20.5C17.5 20.2954 17.7203 19.6911 18.8196 19.0412C19.5846 18.589 20.612 18.2283 21.7886 18.0771C22.1857 18.026 22.5 17.699 22.5 17.2986ZM30.5025 19.189C29.5246 18.9381 28.8445 18.0425 28.8425 17.0506L28.162 16.7954C27.5367 17.6557 26.398 17.9793 25.4153 17.6114L25.0092 18.18C25.5783 18.9676 25.5783 20.0496 25.0092 20.8372L25.4153 21.4058C26.398 21.0379 27.5367 21.3615 28.162 22.2218L28.8425 21.9666C28.8445 20.9747 29.5246 20.0791 30.5025 19.8282V19.189ZM30.39 16.7925C30.5287 16.4228 30.3413 16.0107 29.9716 15.872L28.1739 15.1979C27.7266 15.0301 27.2279 15.2568 27.0602 15.7041C26.8605 16.2366 26.2026 16.4295 25.7398 16.0989C25.3454 15.8172 24.7913 15.9043 24.5096 16.2988L23.4337 17.805C23.1861 18.1516 23.2664 18.6333 23.613 18.8809C24.0437 19.1886 24.0437 19.8286 23.613 20.1362C23.2664 20.3838 23.1861 20.8656 23.4337 21.2122L24.5096 22.7184C24.7913 23.1129 25.3454 23.2 25.7398 22.9183C26.2026 22.5877 26.8605 22.7806 27.0602 23.3131C27.2279 23.7604 27.7266 23.9871 28.1739 23.8193L29.9716 23.1452C30.3413 23.0065 30.5287 22.5944 30.39 22.2247C30.2147 21.7572 30.5603 21.2586 31.0595 21.2586H31.1942C31.6406 21.2586 32.0025 20.8967 32.0025 20.4503V18.5669C32.0025 18.1205 31.6406 17.7586 31.1942 17.7586H31.0595C30.5603 17.7586 30.2147 17.26 30.39 16.7925ZM28.557 19.4516C28.557 20.0325 28.0862 20.5033 27.5054 20.5033C26.9246 20.5033 26.4537 20.0325 26.4537 19.4516C26.4537 18.8708 26.9246 18.4 27.5054 18.4C28.0862 18.4 28.557 18.8708 28.557 19.4516Z" fill="black"/>
</g>
<defs>
<clipPath id="clip0_74_5514">
<rect width="16" height="16" fill="white" transform="translate(16 8)"/>
</clipPath>
</defs>
</svg>
