<svg width="48" height="32" viewBox="0 0 48 32" fill="none" xmlns="http://www.w3.org/2000/svg">
<path fill-rule="evenodd" clip-rule="evenodd" d="M24 14.5C25.1046 14.5 26 13.6046 26 12.5C26 11.3954 25.1046 10.5 24 10.5C22.8954 10.5 22 11.3954 22 12.5C22 13.6046 22.8954 14.5 24 14.5ZM24 16C25.933 16 27.5 14.433 27.5 12.5C27.5 10.567 25.933 9 24 9C22.067 9 20.5 10.567 20.5 12.5C20.5 14.433 22.067 16 24 16ZM25 17.2252C25 16.8401 24.7063 16.5158 24.3214 16.5047C24.2148 16.5016 24.1077 16.5 24 16.5C20.15 16.5 17 18.5 17 20.5C17 21.8807 18.1193 23 19.5 23H21.75C22.1642 23 22.5 22.6642 22.5 22.25C22.5 21.8358 22.1642 21.5 21.75 21.5H19.5C18.9477 21.5 18.5 21.0523 18.5 20.5C18.5 20.2955 18.7203 19.6911 19.8196 19.0413C20.8375 18.4395 22.3198 18 24 18C24.0584 18 24.1167 18.0005 24.1746 18.0016C24.6166 18.0096 25 17.6673 25 17.2252ZM28.5898 17.5315C29.0242 17.6339 29.3661 17.9758 29.4685 18.4102L26.6464 21.2322C26.417 21.4617 26.1192 21.6106 25.7979 21.6565L25.2678 21.7322L25.3435 21.2021C25.3894 20.8808 25.5383 20.583 25.7678 20.3536L28.5898 17.5315ZM27.7071 22.2929L30.7755 19.2245C30.9193 19.0807 31 18.8858 31 18.6825C31 17.201 29.799 16 28.3175 16C28.1142 16 27.9193 16.0807 27.7755 16.2245L24.7071 19.2929C24.2481 19.7519 23.9504 20.3474 23.8586 20.9899L23.6886 22.1801C23.5943 22.84 24.16 23.4057 24.8199 23.3114L26.0101 23.1414C26.6526 23.0496 27.2481 22.7519 27.7071 22.2929Z" fill="black"/>
</svg>
