<svg width="48" height="32" viewBox="0 0 48 32" fill="none" xmlns="http://www.w3.org/2000/svg">
<path fill-rule="evenodd" clip-rule="evenodd" d="M26 12.5C26 13.6046 25.1046 14.5 24 14.5C22.8954 14.5 22 13.6046 22 12.5C22 11.3954 22.8954 10.5 24 10.5C25.1046 10.5 26 11.3954 26 12.5ZM27.5 12.5C27.5 14.433 25.933 16 24 16C22.067 16 20.5 14.433 20.5 12.5C20.5 10.567 22.067 9 24 9C25.933 9 27.5 10.567 27.5 12.5ZM18.5 20.5C18.5 20.2955 18.7203 19.6911 19.8196 19.0413C20.8375 18.4395 22.3198 18 24 18C25.6802 18 27.1625 18.4395 28.1804 19.0413C29.2797 19.6911 29.5 20.2955 29.5 20.5C29.5 21.0523 29.0523 21.5 28.5 21.5H28.25C27.8358 21.5 27.5 21.8358 27.5 22.25C27.5 22.6642 27.8358 23 28.25 23H28.5C29.8807 23 31 21.8807 31 20.5C31 18.5 27.85 16.5 24 16.5C20.15 16.5 17 18.5 17 20.5C17 21.8807 18.1193 23 19.5 23H19.75C20.1642 23 20.5 22.6642 20.5 22.25C20.5 21.8358 20.1642 21.5 19.75 21.5H19.5C18.9477 21.5 18.5 21.0523 18.5 20.5ZM21.8354 19.5792C21.4649 19.3939 21.0144 19.5441 20.8292 19.9146C20.6454 20.2822 20.7918 20.7285 21.1559 20.9164C21.1584 20.9178 21.165 20.9215 21.1752 20.9277C21.1972 20.9411 21.2353 20.9656 21.2844 21.0023C21.3828 21.0762 21.5224 21.1973 21.6643 21.3748C21.8584 21.6174 22.0689 21.9793 22.1769 22.5H21.75C21.3358 22.5 21 22.8358 21 23.25C21 23.6642 21.3358 24 21.75 24H23H25H26.25C26.6642 24 27 23.6642 27 23.25C27 22.8358 26.6642 22.5 26.25 22.5H25.8231C25.9311 21.9793 26.1416 21.6174 26.3357 21.3748C26.4776 21.1973 26.6172 21.0762 26.7156 21.0023C26.7647 20.9656 26.8028 20.9411 26.8248 20.9277C26.835 20.9215 26.8416 20.9178 26.8441 20.9164C27.2082 20.7285 27.3546 20.2822 27.1708 19.9146C26.9856 19.5441 26.5351 19.3939 26.1646 19.5792L26.5 20.25C26.1646 19.5792 26.1642 19.5794 26.1638 19.5796L26.1629 19.58L26.1612 19.5809L26.1572 19.5829L26.1475 19.588C26.1403 19.5917 26.1317 19.5963 26.1217 19.6018C26.1018 19.6128 26.0764 19.6273 26.0463 19.6455C25.9863 19.682 25.9072 19.7337 25.8156 19.8023C25.6328 19.9394 25.3974 20.1464 25.1643 20.4377C24.7871 20.9093 24.4308 21.5844 24.3014 22.5H23.6986C23.5692 21.5844 23.2129 20.9093 22.8357 20.4377C22.6026 20.1464 22.3672 19.9394 22.1844 19.8023C22.0928 19.7337 22.0137 19.682 21.9537 19.6455C21.9236 19.6273 21.8982 19.6128 21.8783 19.6018C21.8683 19.5963 21.8597 19.5917 21.8525 19.588L21.8428 19.5829L21.8388 19.5809L21.8371 19.58L21.8362 19.5796C21.8358 19.5794 21.8354 19.5792 21.5 20.25L21.8354 19.5792Z" fill="black"/>
</svg>
