<svg width="48" height="32" viewBox="0 0 48 32" fill="none" xmlns="http://www.w3.org/2000/svg">
<path fill-rule="evenodd" clip-rule="evenodd" d="M27.5 12.5C28.0523 12.5 28.5 12.0523 28.5 11.5C28.5 10.9477 28.0523 10.5 27.5 10.5C26.9477 10.5 26.5 10.9477 26.5 11.5C26.5 12.0523 26.9477 12.5 27.5 12.5ZM27.5 14C28.8807 14 30 12.8807 30 11.5C30 10.1193 28.8807 9 27.5 9C26.1193 9 25 10.1193 25 11.5C25 12.8807 26.1193 14 27.5 14ZM26.75 15.25C26.75 14.8358 27.0858 14.5 27.5 14.5C28.7375 14.5 29.8625 14.8846 30.6781 15.4615C31.4964 16.0403 32 16.81 32 17.5769C32 18.639 31.139 19.5 30.0769 19.5H29.75C29.3358 19.5 29 19.1642 29 18.75C29 18.3358 29.3358 18 29.75 18H30.0769C30.3106 18 30.5 17.8106 30.5 17.5769C30.5 17.472 30.4012 17.103 29.8119 16.6861C29.2574 16.294 28.437 16 27.5 16C27.0858 16 26.75 15.6642 26.75 15.25ZM18.1881 16.6861C18.7426 16.294 19.563 16 20.5 16C20.9142 16 21.25 15.6642 21.25 15.25C21.25 14.8358 20.9142 14.5 20.5 14.5C19.2625 14.5 18.1375 14.8846 17.3219 15.4615C16.5036 16.0403 16 16.81 16 17.5769C16 18.639 16.861 19.5 17.9231 19.5H18.25C18.6642 19.5 19 19.1642 19 18.75C19 18.3358 18.6642 18 18.25 18H17.9231C17.6894 18 17.5 17.8106 17.5 17.5769C17.5 17.472 17.5988 17.103 18.1881 16.6861ZM20.5 12.5C21.0523 12.5 21.5 12.0523 21.5 11.5C21.5 10.9477 21.0523 10.5 20.5 10.5C19.9477 10.5 19.5 10.9477 19.5 11.5C19.5 12.0523 19.9477 12.5 20.5 12.5ZM20.5 14C21.8807 14 23 12.8807 23 11.5C23 10.1193 21.8807 9 20.5 9C19.1193 9 18 10.1193 18 11.5C18 12.8807 19.1193 14 20.5 14ZM26.75 17.5H26.4999V17C26.4999 15.6193 25.3807 14.5 23.9999 14.5C22.6192 14.5 21.4999 15.6193 21.4999 17V17.5H21.25C20.5596 17.5 20 18.0596 20 18.75V21.75C20 22.4404 20.5596 23 21.25 23H26.75C27.4404 23 28 22.4404 28 21.75V18.75C28 18.0596 27.4404 17.5 26.75 17.5ZM24.9999 17V17.5H22.9999V17C22.9999 16.4477 23.4477 16 23.9999 16C24.5522 16 24.9999 16.4477 24.9999 17ZM21.5 19V21.5H26.5V19H21.5Z" fill="black"/>
</svg>
