<svg width="48" height="32" viewBox="0 0 48 32" fill="none" xmlns="http://www.w3.org/2000/svg">
<path fill-rule="evenodd" clip-rule="evenodd" d="M27.5 11H20.5001C19.6716 11 19.0001 11.6716 19.0001 12.5V17.5272L19.9616 16.8279C20.5829 16.376 21.4263 16.3822 22.0409 16.8431L22.9687 17.539L25.3365 15.5095C26.0105 14.9318 27.0102 14.9502 27.6624 15.5523L29 16.787V12.5C29 11.6716 28.3285 11 27.5 11ZM30.5 18.4978V12.5C30.5 10.8431 29.1569 9.5 27.5 9.5H20.5001C18.8432 9.5 17.5001 10.8431 17.5001 12.5V18.9917C17.5 18.9976 17.5 19.0036 17.5001 19.0095V19.5C17.5001 21.1569 18.8432 22.5 20.5001 22.5H27.5C29.1569 22.5 30.5 21.1569 30.5 19.5V18.5026V18.4978ZM29 18.8284L26.645 16.6545C26.5518 16.5685 26.409 16.5658 26.3127 16.6484L23.4881 19.0694L23.0313 19.461L22.55 19.1L21.1409 18.0431C21.0531 17.9773 20.9326 17.9764 20.8439 18.041L19.0001 19.3819V19.5C19.0001 20.3284 19.6716 21 20.5001 21H27.5C28.3285 21 29 20.3284 29 19.5V18.8284ZM23.5 14C23.5 14.8284 22.8285 15.5 22 15.5C21.1716 15.5 20.5001 14.8284 20.5001 14C20.5001 13.1716 21.1716 12.5 22 12.5C22.8285 12.5 23.5 13.1716 23.5 14Z" fill="black"/>
</svg>
