<svg width="48" height="32" viewBox="0 0 48 32" fill="none" xmlns="http://www.w3.org/2000/svg">
<path fill-rule="evenodd" clip-rule="evenodd" d="M24.9216 11.6997L23.8107 12.8107L22.4435 14.1778C22.4067 16.0496 23.9504 17.5933 25.8222 17.5565L27.1893 16.1893L28.3003 15.0784C28.7483 14.6304 29 14.0227 29 13.3891C29 12.0696 27.9304 11 26.6109 11C25.9773 11 25.3696 11.2517 24.9216 11.6997ZM23 11.5L21 13.5L18.6391 15.8609C17.9097 16.5903 17.5 17.5795 17.5 18.6109C17.5 20.7588 19.2412 22.5 21.3891 22.5C22.4205 22.5 23.4097 22.0903 24.1391 21.3609L26.5 19L28.5 17L29.3609 16.1391C30.0903 15.4097 30.5 14.4205 30.5 13.3891C30.5 11.2412 28.7588 9.5 26.6109 9.5C25.5795 9.5 24.5903 9.90974 23.8609 10.6391L23 11.5ZM23.0784 20.3003L24.4905 18.8881C22.8562 18.4398 21.5602 17.1438 21.1119 15.5095L19.6997 16.9216C19.2517 17.3696 19 17.9773 19 18.6109C19 19.9304 20.0696 21 21.3891 21C22.0227 21 22.6304 20.7483 23.0784 20.3003ZM23.9695 13.9697C23.6767 14.2626 23.6767 14.7374 23.9695 15.0303C24.2624 15.3232 24.7373 15.3232 25.0302 15.0303L26.5302 13.5303C26.8231 13.2374 26.8231 12.7626 26.5302 12.4697C26.2373 12.1768 25.7624 12.1768 25.4695 12.4697L23.9695 13.9697Z" fill="black"/>
</svg>
