<svg width="48" height="56" viewBox="0 0 48 56" fill="none" xmlns="http://www.w3.org/2000/svg">
<path fill-rule="evenodd" clip-rule="evenodd" d="M26.5003 10.2546L26.5 10.25L26.5003 10.2454C26.5027 10.2146 26.5126 10.0882 26.1385 9.89438C25.7033 9.66892 24.9669 9.5 24 9.5C23.0331 9.5 22.2968 9.66892 21.8616 9.89438C21.4874 10.0882 21.4973 10.2146 21.4997 10.2454L21.5 10.25L21.4997 10.2546C21.4991 10.2633 21.4978 10.2794 21.5046 10.3025L20.3809 9.1788C21.0211 8.39293 22.401 8 24 8C26.2092 8 28 8.75 28 10.25C28 10.9877 27.5669 11.544 26.8639 11.9189L27.689 14.2292C29.2417 14.7091 30.25 15.5494 30.25 16.7499C30.25 17.3661 29.9844 17.8874 29.5158 18.3137L28.4547 17.2526C28.7259 17.0262 28.75 16.8427 28.75 16.7499C28.75 16.6223 28.7146 16.4913 28.5235 16.3114C28.3012 16.1021 27.8942 15.8627 27.2461 15.6624L26.6937 15.4916L26.4656 15.2635L26.2764 14.7338L25.4364 12.3818C24.9906 12.4606 24.5063 12.5 24 12.5C23.8982 12.5 23.7972 12.4984 23.6973 12.4952L21.7378 10.5357C21.7735 10.5579 21.8145 10.5812 21.8616 10.6056C22.2968 10.8311 23.0331 11 24 11C24.9669 11 25.7033 10.8311 26.1385 10.6056C26.5126 10.4118 26.5027 10.2854 26.5003 10.2546ZM26.4918 19.5524L28.9697 22.0303C29.2626 22.3232 29.7375 22.3232 30.0303 22.0303C30.3232 21.7374 30.3232 21.2626 30.0303 20.9697L19.0303 9.96967C18.7375 9.67678 18.2626 9.67678 17.9697 9.96967C17.6768 10.2626 17.6768 10.7374 17.9697 11.0303L20.5367 13.5973L20.311 14.2292C18.7583 14.7091 17.75 15.5493 17.75 16.7499C17.75 18.6028 20.1518 19.5974 23.25 19.7337V23C23.25 23.4142 23.5858 23.75 24 23.75C24.4142 23.75 24.75 23.4142 24.75 23V19.7337C25.3622 19.7068 25.9471 19.6463 26.4918 19.5524ZM25.1467 18.2073L21.7103 14.771L21.4711 15.4407L20.7539 15.6624C20.1059 15.8627 19.6988 16.1021 19.4765 16.3114C19.2854 16.4913 19.25 16.6223 19.25 16.7499C19.25 16.8902 19.3051 17.2381 20.1871 17.628C21.0556 18.012 22.3874 18.2499 24 18.2499C24.4005 18.2499 24.7836 18.2352 25.1467 18.2073Z" fill="black"/>
<path fill-rule="evenodd" clip-rule="evenodd" d="M26.5003 34.2546L26.5 34.25L26.5003 34.2454C26.5027 34.2146 26.5126 34.0882 26.1385 33.8944C25.7033 33.6689 24.9669 33.5 24 33.5C23.0331 33.5 22.2968 33.6689 21.8616 33.8944C21.4874 34.0882 21.4973 34.2146 21.4997 34.2454L21.5 34.25L21.4997 34.2546C21.4991 34.2633 21.4978 34.2794 21.5046 34.3025L20.3809 33.1788C21.0211 32.3929 22.401 32 24 32C26.2092 32 28 32.75 28 34.25C28 34.9877 27.5669 35.544 26.8639 35.9189L27.689 38.2292C29.2417 38.7091 30.25 39.5494 30.25 40.7499C30.25 41.3661 29.9844 41.8874 29.5158 42.3137L21.7378 34.5357C21.7735 34.5579 21.8145 34.5812 21.8616 34.6056C22.2968 34.8311 23.0331 35 24 35C24.9669 35 25.7033 34.8311 26.1385 34.6056C26.5126 34.4118 26.5027 34.2854 26.5003 34.2546ZM20.5367 37.5973L20.311 38.2292C18.7583 38.7091 17.75 39.5493 17.75 40.7499C17.75 42.6028 20.1518 43.5974 23.25 43.7337V47C23.25 47.4142 23.5858 47.75 24 47.75C24.4142 47.75 24.75 47.4142 24.75 47V43.7337C25.3622 43.7068 25.9471 43.6463 26.4918 43.5524L28.9697 46.0303C29.2626 46.3232 29.7375 46.3232 30.0303 46.0303C30.3232 45.7374 30.3232 45.2626 30.0303 44.9697L19.0303 33.9697C18.7375 33.6768 18.2626 33.6768 17.9697 33.9697C17.6768 34.2626 17.6768 34.7374 17.9697 35.0303L20.5367 37.5973Z" fill="black"/>
</svg>
