<svg width="48" height="56" viewBox="0 0 48 56" fill="none" xmlns="http://www.w3.org/2000/svg">
<path fill-rule="evenodd" clip-rule="evenodd" d="M26.5003 10.2546L26.5 10.25L26.5003 10.2454C26.5027 10.2146 26.5126 10.0882 26.1385 9.89438C25.7033 9.66892 24.9669 9.5 24 9.5C23.0331 9.5 22.2968 9.66892 21.8616 9.89438C21.4874 10.0882 21.4973 10.2146 21.4997 10.2454L21.5 10.25L21.4997 10.2546C21.4973 10.2854 21.4874 10.4118 21.8616 10.6056C22.2968 10.8311 23.0331 11 24 11C24.9669 11 25.7033 10.8311 26.1385 10.6056C26.5126 10.4118 26.5027 10.2854 26.5003 10.2546ZM24 12.5C24.5063 12.5 24.9906 12.4606 25.4364 12.3818L26.2764 14.7338L26.5289 15.4407L27.2461 15.6624C27.8942 15.8627 28.3012 16.1021 28.5235 16.3114C28.7146 16.4914 28.75 16.6223 28.75 16.7499C28.75 16.8902 28.6949 17.2381 27.8129 17.628C26.9444 18.012 25.6126 18.2499 24 18.2499C22.3874 18.2499 21.0556 18.012 20.1871 17.628C19.3051 17.2381 19.25 16.8902 19.25 16.7499C19.25 16.6223 19.2854 16.4914 19.4765 16.3114C19.6988 16.1021 20.1059 15.8627 20.7539 15.6624L21.4711 15.4407L21.7236 14.7338L22.5636 12.3818C23.0094 12.4606 23.4937 12.5 24 12.5ZM28 10.25C28 10.9877 27.5669 11.544 26.8639 11.9189L27.689 14.2293C29.2417 14.7092 30.25 15.5494 30.25 16.7499C30.25 18.6029 27.8482 19.5975 24.75 19.7337V23C24.75 23.4142 24.4142 23.75 24 23.75C23.5858 23.75 23.25 23.4142 23.25 23V19.7337C20.1518 19.5975 17.75 18.6029 17.75 16.7499C17.75 15.5494 18.7583 14.7092 20.311 14.2293L21.1362 11.9189C20.4331 11.544 20 10.9877 20 10.25C20 8.75 21.7909 8 24 8C26.2092 8 28 8.75 28 10.25Z" fill="black"/>
<path fill-rule="evenodd" clip-rule="evenodd" d="M26.5003 34.2546L26.5 34.25L26.5003 34.2454C26.5027 34.2146 26.5126 34.0882 26.1385 33.8944C25.7033 33.6689 24.9669 33.5 24 33.5C23.0331 33.5 22.2968 33.6689 21.8616 33.8944C21.4874 34.0882 21.4973 34.2146 21.4997 34.2454L21.5 34.25L21.4997 34.2546C21.4973 34.2854 21.4874 34.4118 21.8616 34.6056C22.2968 34.8311 23.0331 35 24 35C24.9669 35 25.7033 34.8311 26.1385 34.6056C26.5126 34.4118 26.5027 34.2854 26.5003 34.2546ZM28 34.25C28 34.9877 27.5669 35.544 26.8639 35.9189L27.689 38.2293C29.2417 38.7092 30.25 39.5494 30.25 40.7499C30.25 42.6029 27.8482 43.5975 24.75 43.7337V47C24.75 47.4142 24.4142 47.75 24 47.75C23.5858 47.75 23.25 47.4142 23.25 47V43.7337C20.1518 43.5975 17.75 42.6029 17.75 40.7499C17.75 39.5494 18.7583 38.7092 20.311 38.2293L21.1362 35.9189C20.4331 35.544 20 34.9877 20 34.25C20 32.75 21.7909 32 24 32C26.2092 32 28 32.75 28 34.25Z" fill="black"/>
</svg>
