<svg width="48" height="56" viewBox="0 0 48 56" fill="none" xmlns="http://www.w3.org/2000/svg">
<g clip-path="url(#clip0_74_3441)">
<path fill-rule="evenodd" clip-rule="evenodd" d="M30.0054 15.1341L21.5004 10.2171C20.8337 9.83168 19.9999 10.3128 19.9999 11.0828L19.9999 20.9168C19.9999 21.6868 20.8337 22.1679 21.5004 21.7825L30.0054 16.8655C30.6714 16.4805 30.6714 15.5191 30.0054 15.1341ZM30.7561 18.1641C32.4211 17.2016 32.4211 14.798 30.7561 13.8355L22.2511 8.9185C20.5845 7.95496 18.4999 9.15769 18.4999 11.0828L18.4999 20.9168C18.4999 22.8419 20.5845 24.0446 22.2511 23.0811L30.7561 18.1641Z" fill="black"/>
</g>
<g clip-path="url(#clip1_74_3441)">
<path fill-rule="evenodd" clip-rule="evenodd" d="M30.7561 42.1641C32.4211 41.2016 32.4211 38.798 30.7561 37.8355L22.2511 32.9185C20.5845 31.955 18.4999 33.1577 18.4999 35.0828L18.4999 44.9168C18.4999 46.8419 20.5845 48.0446 22.2511 47.0811L30.7561 42.1641Z" fill="black"/>
</g>
<defs>
<clipPath id="clip0_74_3441">
<rect width="16" height="16" fill="white" transform="translate(16 8)"/>
</clipPath>
<clipPath id="clip1_74_3441">
<rect width="16" height="16" fill="white" transform="translate(16 32)"/>
</clipPath>
</defs>
</svg>
