<svg width="48" height="32" viewBox="0 0 48 32" fill="none" xmlns="http://www.w3.org/2000/svg">
<g clip-path="url(#clip0_74_3742)">
<path fill-rule="evenodd" clip-rule="evenodd" d="M27.8891 12.111C25.7412 9.96311 22.2588 9.96311 20.1109 12.111C17.5111 14.7109 17.9894 17.7676 19.0503 18.8285C19.3431 19.1214 19.818 19.1214 20.1109 18.8285L21.0351 17.9043C20.5256 17.0548 20.4469 15.9945 20.8616 15.0613L21.4087 13.8303C21.6938 13.189 22.5334 13.0331 23.0297 13.5293L23.2198 13.7195L23.9697 12.9695C24.2626 12.6766 24.7375 12.6766 25.0304 12.9695C25.3233 13.2624 25.3233 13.7373 25.0304 14.0301L24.2804 14.7801L25.2198 15.7195L25.9697 14.9695C26.2626 14.6766 26.7375 14.6766 27.0304 14.9695C27.3233 15.2624 27.3233 15.7373 27.0304 16.0301L26.2804 16.7801L26.4705 16.9702C26.9668 17.4664 26.8109 18.3061 26.1696 18.5911L24.9386 19.1382C24.0055 19.553 22.9453 19.4743 22.0958 18.9649L21.1716 19.8892C20.2929 20.7678 18.8683 20.7678 17.9896 19.8892C16.2221 18.1216 15.9933 14.1073 19.0503 11.0503C21.7839 8.31666 26.2161 8.31666 28.9497 11.0503C31.6834 13.784 31.6834 18.2162 28.9497 20.9498C27.0764 22.8232 24.4059 23.4118 22.0332 22.7193C21.6356 22.6033 21.4073 22.1869 21.5234 21.7892C21.6394 21.3916 22.0558 21.1634 22.4535 21.2794C24.3215 21.8245 26.4184 21.3598 27.8891 19.8892C30.037 17.7413 30.037 14.2589 27.8891 12.111ZM22.2324 15.6705L22.4838 15.1048L24.8951 17.5161L24.3294 17.7675C23.7287 18.0345 23.0256 17.9039 22.5608 17.4391C22.0959 16.9743 21.9654 16.2712 22.2324 15.6705Z" fill="black"/>
</g>
<defs>
<clipPath id="clip0_74_3742">
<rect width="16" height="16" fill="white" transform="translate(16 8)"/>
</clipPath>
</defs>
</svg>
