<svg width="48" height="32" viewBox="0 0 48 32" fill="none" xmlns="http://www.w3.org/2000/svg">
<path fill-rule="evenodd" clip-rule="evenodd" d="M31.5303 9.53033C31.8232 9.23744 31.8232 8.76256 31.5303 8.46967C31.2374 8.17678 30.7626 8.17678 30.4697 8.46967L29.1801 9.75929C28.4932 9.28066 27.658 9 26.7574 9C25.6321 9 24.553 9.44699 23.7574 10.2426L23.1771 10.8229C22.8031 11.1969 22.8031 11.8031 23.1771 12.1771L27.8229 16.8229C28.1969 17.1969 28.8031 17.1969 29.1771 16.8229L29.7574 16.2426C30.553 15.447 31 14.3679 31 13.2426C31 12.342 30.7193 11.5068 30.2407 10.8199L31.5303 9.53033ZM23.0303 14.4697C23.3232 14.7626 23.3232 15.2374 23.0303 15.5303L21.7803 16.7803L23.2197 18.2197L24.4697 16.9697C24.7626 16.6768 25.2374 16.6768 25.5303 16.9697C25.8232 17.2626 25.8232 17.7374 25.5303 18.0303L24.2803 19.2803L24.8229 19.8229C25.1969 20.1969 25.1969 20.8031 24.8229 21.1771L24.2426 21.7574C23.447 22.553 22.3679 23 21.2426 23C20.342 23 19.5068 22.7193 18.8199 22.2407L17.5303 23.5303C17.2374 23.8232 16.7626 23.8232 16.4697 23.5303C16.1768 23.2374 16.1768 22.7626 16.4697 22.4697L17.7593 21.1801C17.2807 20.4932 17 19.658 17 18.7574C17 17.6321 17.447 16.553 18.2426 15.7574L18.8229 15.1771C19.1969 14.8031 19.8031 14.8031 20.1771 15.1771L20.7197 15.7197L21.9697 14.4697C22.2626 14.1768 22.7374 14.1768 23.0303 14.4697ZM19.5 16.6213L19.3033 16.818C18.789 17.3324 18.5 18.03 18.5 18.7574C18.5 20.2721 19.7279 21.5 21.2426 21.5C21.97 21.5 22.6676 21.211 23.182 20.6967L23.3787 20.5L19.5 16.6213ZM28.6967 15.182L28.5 15.3787L24.6213 11.5L24.818 11.3033C25.3324 10.789 26.03 10.5 26.7574 10.5C28.2721 10.5 29.5 11.7279 29.5 13.2426C29.5 13.97 29.211 14.6676 28.6967 15.182Z" fill="black"/>
</svg>
