<svg width="48" height="32" viewBox="0 0 48 32" fill="none" xmlns="http://www.w3.org/2000/svg">
<path fill-rule="evenodd" clip-rule="evenodd" d="M24 9.75C24.4142 9.75 24.75 10.0858 24.75 10.5V15.25H29.5C29.9142 15.25 30.25 15.5858 30.25 16C30.25 16.4142 29.9142 16.75 29.5 16.75H24.75V21.5C24.75 21.9142 24.4142 22.25 24 22.25C23.5858 22.25 23.25 21.9142 23.25 21.5V16.75H18.5C18.0858 16.75 17.75 16.4142 17.75 16C17.75 15.5858 18.0858 15.25 18.5 15.25H23.25V10.5C23.25 10.0858 23.5858 9.75 24 9.75Z" fill="black"/>
</svg>
