<svg width="48" height="32" viewBox="0 0 48 32" fill="none" xmlns="http://www.w3.org/2000/svg">
<path fill-rule="evenodd" clip-rule="evenodd" d="M24.75 9.75C24.75 9.33579 24.4142 9 24 9C23.5858 9 23.25 9.33579 23.25 9.75V15.25C23.25 15.6642 23.5858 16 24 16C24.4142 16 24.75 15.6642 24.75 15.25V9.75ZM20.9205 11.4422C21.2635 11.2099 21.3533 10.7436 21.121 10.4006C20.8888 10.0577 20.4225 9.9679 20.0795 10.2002C18.2228 11.4574 17 13.5858 17 16C17 19.866 20.134 23 24 23C27.866 23 31 19.866 31 16C31 13.5858 29.7772 11.4574 27.9205 10.2002C27.5775 9.9679 27.1112 10.0577 26.879 10.4006C26.6467 10.7436 26.7365 11.2099 27.0795 11.4422C28.5416 12.4323 29.5 14.1043 29.5 16C29.5 19.0376 27.0376 21.5 24 21.5C20.9624 21.5 18.5 19.0376 18.5 16C18.5 14.1043 19.4584 12.4323 20.9205 11.4422Z" fill="black"/>
</svg>
