<svg width="48" height="32" viewBox="0 0 48 32" fill="none" xmlns="http://www.w3.org/2000/svg">
<path fill-rule="evenodd" clip-rule="evenodd" d="M26.75 10.5H21.25C20.8358 10.5 20.5 10.8358 20.5 11.25V12H27.5V11.25C27.5 10.8358 27.1642 10.5 26.75 10.5ZM29 12V11.25C29 10.0074 27.9926 9 26.75 9H21.25C20.0074 9 19 10.0074 19 11.25V12C17.3431 12 16 13.3431 16 15V17C16 18.6569 17.3431 20 19 20H20V21C20 22.1046 20.8954 23 22 23H26C27.1046 23 28 22.1046 28 21V20H29C30.6569 20 32 18.6569 32 17V15C32 13.3431 30.6569 12 29 12ZM20 18V18.5H19C18.1716 18.5 17.5 17.8284 17.5 17V15C17.5 14.1716 18.1716 13.5 19 13.5H29C29.8284 13.5 30.5 14.1716 30.5 15V17C30.5 17.8284 29.8284 18.5 29 18.5H28V18C28 16.8954 27.1046 16 26 16H22C20.8954 16 20 16.8954 20 18ZM26 17.5H22C21.7239 17.5 21.5 17.7239 21.5 18V21C21.5 21.2761 21.7239 21.5 22 21.5H26C26.2761 21.5 26.5 21.2761 26.5 21V18C26.5 17.7239 26.2761 17.5 26 17.5ZM28.5 16.5C29.0523 16.5 29.5 16.0523 29.5 15.5C29.5 14.9477 29.0523 14.5 28.5 14.5C27.9477 14.5 27.5 14.9477 27.5 15.5C27.5 16.0523 27.9477 16.5 28.5 16.5Z" fill="black"/>
</svg>
