<svg width="48" height="32" viewBox="0 0 48 32" fill="none" xmlns="http://www.w3.org/2000/svg">
<g clip-path="url(#clip0_74_5118)">
<path fill-rule="evenodd" clip-rule="evenodd" d="M25.2347 9.00016C25.581 8.9931 25.8871 9.22414 25.9753 9.55913L28.0086 17.2857L29.0988 15.3779C29.2323 15.1442 29.4809 15 29.75 15H31.25C31.6642 15 32 15.3358 32 15.75C32 16.1642 31.6642 16.5 31.25 16.5H30.1852L28.4012 19.6221C28.2501 19.8865 27.9541 20.0333 27.6521 19.9936C27.3501 19.9538 27.1022 19.7354 27.0247 19.4409L25.3151 12.9445L23.2325 22.4111C23.1597 22.7419 22.8744 22.9828 22.5361 22.9991C22.1979 23.0154 21.8907 22.8031 21.7864 22.4809L19.5443 15.5506L18.8931 16.6359C18.7576 16.8618 18.5134 17 18.25 17H16.75C16.3358 17 16 16.6642 16 16.25C16 15.8358 16.3358 15.5 16.75 15.5H17.8254L19.1069 13.3641C19.2582 13.1119 19.5429 12.9715 19.8351 13.0048C20.1273 13.0382 20.3731 13.2393 20.4636 13.5191L22.362 19.3868L24.5175 9.58886C24.5919 9.25054 24.8884 9.00722 25.2347 9.00016Z" fill="black"/>
</g>
<defs>
<clipPath id="clip0_74_5118">
<rect width="16" height="16" fill="white" transform="translate(16 8)"/>
</clipPath>
</defs>
</svg>
