<svg width="48" height="32" viewBox="0 0 48 32" fill="none" xmlns="http://www.w3.org/2000/svg">
<path fill-rule="evenodd" clip-rule="evenodd" d="M21.7315 12H20.5C19.6716 12 19 12.6716 19 13.5V13.8771C20.1734 14.1984 21 15.2678 21 16.5C21 17.7322 20.1734 18.8016 19 19.1229V19.5C19 20.3284 19.6716 21 20.5 21H20.8771C21.1984 19.8266 22.2678 19 23.5 19C24.7322 19 25.8016 19.8266 26.1229 21H26.5C27.3284 21 28 20.3284 28 19.5V18.2685L29.0001 17.915C29.5848 17.7084 30 17.1508 30 16.5C30 15.8492 29.5848 15.2916 29.0001 15.085L28 14.7315V13.5C28 12.6716 27.3284 12 26.5 12H25.2685L24.915 10.9999C24.7084 10.4153 24.1508 10 23.5 10C22.8492 10 22.2916 10.4153 22.085 10.9999L21.7315 12ZM24.9 22.5L24.6961 21.4806C24.5821 20.9104 24.0815 20.5 23.5 20.5C22.9185 20.5 22.4179 20.9104 22.3039 21.4806L22.1 22.5H20.5C18.8431 22.5 17.5 21.1569 17.5 19.5V17.9L18.5194 17.6961C19.0896 17.5821 19.5 17.0815 19.5 16.5C19.5 15.9185 19.0896 15.4179 18.5194 15.3039L17.5 15.1V13.5C17.5 11.8431 18.8431 10.5 20.5 10.5H20.6707C21.0825 9.33481 22.1938 8.5 23.5 8.5C24.8062 8.5 25.9175 9.33481 26.3293 10.5H26.5C28.1569 10.5 29.5 11.8431 29.5 13.5V13.6707C30.6652 14.0825 31.5 15.1938 31.5 16.5C31.5 17.8062 30.6652 18.9175 29.5 19.3293V19.5C29.5 21.1569 28.1569 22.5 26.5 22.5H24.9Z" fill="black"/>
</svg>
