<svg width="48" height="32" viewBox="0 0 48 32" fill="none" xmlns="http://www.w3.org/2000/svg">
<path fill-rule="evenodd" clip-rule="evenodd" d="M24.75 10.25C24.75 9.83579 24.4142 9.5 24 9.5C23.5858 9.5 23.25 9.83579 23.25 10.25V15.25H18.25C17.8358 15.25 17.5 15.5858 17.5 16C17.5 16.4142 17.8358 16.75 18.25 16.75H23.75C24.3023 16.75 24.75 16.3023 24.75 15.75V10.25ZM23.25 19C23.25 18.4477 23.6977 18 24.25 18H27C27.4142 18 27.75 18.3358 27.75 18.75C27.75 19.1642 27.4142 19.5 27 19.5H24.75V21.75C24.75 22.1642 24.4142 22.5 24 22.5C23.5858 22.5 23.25 22.1642 23.25 21.75V19ZM29 21H26.75C26.3358 21 26 21.3358 26 21.75C26 22.1642 26.3358 22.5 26.75 22.5H29.5C30.0523 22.5 30.5 22.0523 30.5 21.5V16.25C30.5 15.6977 30.0523 15.25 29.5 15.25L26.75 15.25C26.3358 15.25 26 15.5858 26 16C26 16.4142 26.3358 16.75 26.75 16.75L29 16.75V21ZM19 12.5V11H20.5V12.5H19ZM17.5 10.5C17.5 9.94772 17.9477 9.5 18.5 9.5H21C21.5523 9.5 22 9.94772 22 10.5V13C22 13.5523 21.5523 14 21 14H18.5C17.9477 14 17.5 13.5523 17.5 13V10.5ZM19 19.5V21H20.5V19.5H19ZM18.5 18C17.9477 18 17.5 18.4477 17.5 19V21.5C17.5 22.0523 17.9477 22.5 18.5 22.5H21C21.5523 22.5 22 22.0523 22 21.5V19C22 18.4477 21.5523 18 21 18H18.5ZM27.5 12.5V11H29V12.5H27.5ZM26 10.5C26 9.94772 26.4477 9.5 27 9.5H29.5C30.0523 9.5 30.5 9.94772 30.5 10.5V13C30.5 13.5523 30.0523 14 29.5 14H27C26.4477 14 26 13.5523 26 13V10.5Z" fill="black"/>
</svg>
