<svg width="48" height="32" viewBox="0 0 48 32" fill="none" xmlns="http://www.w3.org/2000/svg">
<g clip-path="url(#clip0_74_4697)">
<path fill-rule="evenodd" clip-rule="evenodd" d="M28.4114 14.33C29.6107 14.6261 30.5 15.7092 30.5 17V17.25C30.5 18.7688 29.2688 20 27.75 20H27.5C26.5426 20 25.6995 19.5108 25.207 18.7687C24.9343 18.3577 24.7691 17.8691 24.7515 17.3432C24.7515 17.3421 24.7515 17.341 24.7514 17.34C24.7515 17.3402 24.7514 17.3397 24.7514 17.34H24.75L24.7502 17.2811L24.75 17.25V17C24.75 16.869 24.7592 16.7401 24.7769 16.614C24.7965 16.3531 24.8268 16.0962 24.8678 15.8438C24.9689 15.2211 25.1352 14.6259 25.3667 14.0649C25.386 14.0182 25.4057 13.9718 25.4259 13.9256C25.7515 13.1797 26.1947 12.4966 26.7556 11.893C27.009 11.6202 27.2865 11.3636 27.5881 11.1248C27.6204 11.0992 27.6529 11.0738 27.6858 11.0487C27.7272 11.0169 27.7782 11 27.8303 11C28.0164 11 28.136 11.2023 28.0495 11.367C28.0341 11.3965 28.0179 11.4275 28.0011 11.4601C27.9496 11.5598 27.8921 11.6738 27.8303 11.8002C27.7356 11.9944 27.6309 12.2179 27.5231 12.4639C27.4825 12.5566 27.4415 12.6524 27.4004 12.7512C27.203 13.2251 27.004 13.7644 26.8434 14.3289C26.8611 14.3245 26.8789 14.3204 26.8968 14.3164C27.0909 14.2729 27.2928 14.25 27.5 14.25H27.75C27.978 14.25 28.1995 14.2777 28.4114 14.33ZM28.9597 12.9246C30.7176 13.4457 32 15.0731 32 17V17.25C32 19.5972 30.0972 21.5 27.75 21.5H27.5C26.0482 21.5 24.7667 20.7723 24 19.6615C23.2333 20.7722 21.9517 21.5 20.5 21.5H20.25C17.9766 21.5 16.1205 19.7154 16.0056 17.47C16.0018 17.4255 15.9999 17.3807 16 17.3356L16.0002 17.2831L16 17.25L16 17C16 16.8166 16.0117 16.6352 16.0346 16.4567C16.2423 13.8365 17.393 11.4905 19.5234 9.85807C19.8319 9.6217 20.205 9.50003 20.5803 9.50003C21.9213 9.50003 22.7259 10.9246 22.1277 12.0643C22.0169 12.2753 21.8684 12.5717 21.7097 12.9247C22.4983 13.1584 23.1911 13.6147 23.7155 14.2208C24.2564 12.5146 25.2715 11.009 26.7734 9.85804C27.0819 9.62167 27.455 9.49998 27.8303 9.49998C29.1713 9.49998 29.9759 10.9246 29.3777 12.0642C29.2669 12.2753 29.1184 12.5717 28.9597 12.9246ZM21.1614 14.3301C20.9495 14.2777 20.728 14.25 20.5 14.25H20.25C20.0428 14.25 19.8409 14.2729 19.6468 14.3164C19.6289 14.3204 19.6111 14.3245 19.5934 14.3289C19.754 13.7644 19.9531 13.2251 20.1504 12.7512C20.1915 12.6525 20.2325 12.5566 20.2731 12.4639C20.3809 12.2179 20.4856 11.9944 20.5803 11.8003C20.6421 11.6738 20.6996 11.5598 20.7511 11.4602C20.7679 11.4276 20.7841 11.3965 20.7995 11.3671C20.886 11.2024 20.7664 11 20.5803 11C20.5282 11 20.4772 11.017 20.4358 11.0487C20.4029 11.0739 20.3704 11.0993 20.338 11.1249C20.0365 11.3637 19.759 11.6202 19.5056 11.893C18.9447 12.4966 18.5015 13.1797 18.1759 13.9256C18.1557 13.9718 18.136 14.0182 18.1168 14.0649C17.8853 14.6258 17.7189 15.2211 17.6178 15.8439C17.5768 16.0962 17.5465 16.353 17.5269 16.6139C17.5092 16.7401 17.5 16.869 17.5 17V17.25L17.5002 17.2811L17.5 17.3394L17.5014 17.3393C17.5014 17.3396 17.5014 17.3391 17.5014 17.3393C17.5015 17.3404 17.5015 17.3422 17.5016 17.3433C17.5191 17.8692 17.6843 18.3577 17.9571 18.7687C18.4495 19.5108 19.2926 20 20.25 20H20.5C22.0188 20 23.25 18.7688 23.25 17.25V17C23.25 15.7092 22.3607 14.6261 21.1614 14.3301Z" fill="black"/>
</g>
<defs>
<clipPath id="clip0_74_4697">
<rect width="16" height="16" fill="white" transform="translate(16 8)"/>
</clipPath>
</defs>
</svg>
