<svg width="48" height="32" viewBox="0 0 48 32" fill="none" xmlns="http://www.w3.org/2000/svg">
<g clip-path="url(#clip0_74_4689)">
<path fill-rule="evenodd" clip-rule="evenodd" d="M19.5886 17.67C18.3893 17.3739 17.5 16.2908 17.5 15V14.75C17.5 13.2312 18.7312 12 20.25 12H20.5C21.4574 12 22.3005 12.4892 22.793 13.2313C23.0657 13.6423 23.2309 14.1309 23.2485 14.6568C23.2485 14.6579 23.2485 14.659 23.2486 14.66C23.2485 14.6598 23.2486 14.6603 23.2486 14.66H23.25L23.2498 14.7189L23.25 14.75V15C23.25 15.131 23.2408 15.2599 23.2231 15.386C23.2035 15.6469 23.1732 15.9038 23.1322 16.1562C23.0311 16.7789 22.8648 17.3741 22.6333 17.9351C22.614 17.9818 22.5943 18.0282 22.5741 18.0744C22.2485 18.8203 21.8053 19.5034 21.2444 20.107C20.991 20.3798 20.7135 20.6364 20.4119 20.8752C20.3796 20.9008 20.3471 20.9262 20.3142 20.9513C20.2728 20.9831 20.2218 21 20.1697 21C19.9836 21 19.864 20.7977 19.9505 20.633C19.9659 20.6035 19.9821 20.5725 19.9989 20.5399C20.0504 20.4402 20.1079 20.3262 20.1697 20.1998C20.2644 20.0056 20.3691 19.7821 20.4769 19.5361C20.5175 19.4434 20.5585 19.3476 20.5996 19.2488C20.797 18.7749 20.996 18.2356 21.1566 17.6711C21.1389 17.6755 21.1211 17.6796 21.1032 17.6836C20.9091 17.7271 20.7072 17.75 20.5 17.75H20.25C20.022 17.75 19.8005 17.7223 19.5886 17.67ZM19.0403 19.0754C17.2824 18.5543 16 16.9269 16 15V14.75C16 12.4028 17.9028 10.5 20.25 10.5H20.5C21.9518 10.5 23.2333 11.2277 24 12.3385C24.7667 11.2278 26.0483 10.5 27.5 10.5H27.75C30.0234 10.5 31.8795 12.2846 31.9944 14.53C31.9982 14.5745 32.0001 14.6193 32 14.6644L31.9998 14.7169L32 14.75L32 15C32 15.1834 31.9883 15.3648 31.9654 15.5433C31.7577 18.1635 30.607 20.5095 28.4766 22.1419C28.1681 22.3783 27.795 22.5 27.4197 22.5C26.0787 22.5 25.2741 21.0754 25.8723 19.9357C25.9831 19.7247 26.1316 19.4283 26.2903 19.0753C25.5017 18.8416 24.8089 18.3853 24.2845 17.7792C23.7436 19.4854 22.7285 20.991 21.2266 22.142C20.9181 22.3783 20.545 22.5 20.1697 22.5C18.8287 22.5 18.0241 21.0754 18.6223 19.9358C18.7331 19.7247 18.8816 19.4283 19.0403 19.0754ZM26.8386 17.6699C27.0505 17.7223 27.272 17.75 27.5 17.75H27.75C27.9572 17.75 28.1591 17.7271 28.3532 17.6836C28.3711 17.6796 28.3889 17.6755 28.4066 17.6711C28.246 18.2356 28.0469 18.7749 27.8496 19.2488C27.8085 19.3475 27.7675 19.4434 27.7269 19.5361C27.6191 19.7821 27.5144 20.0056 27.4197 20.1997C27.3579 20.3262 27.3004 20.4402 27.2489 20.5398C27.2321 20.5724 27.2159 20.6035 27.2005 20.6329C27.114 20.7976 27.2336 21 27.4197 21C27.4718 21 27.5228 20.983 27.5642 20.9513C27.5971 20.9261 27.6296 20.9007 27.662 20.8751C27.9635 20.6363 28.241 20.3798 28.4944 20.107C29.0553 19.5034 29.4985 18.8203 29.8241 18.0744C29.8443 18.0282 29.864 17.9818 29.8832 17.9351C30.1147 17.3742 30.2811 16.7789 30.3822 16.1561C30.4232 15.9038 30.4535 15.647 30.4731 15.3861C30.4908 15.2599 30.5 15.131 30.5 15V14.75L30.4998 14.7189L30.5 14.6606L30.4986 14.6607C30.4986 14.6604 30.4986 14.6609 30.4986 14.6607C30.4985 14.6596 30.4985 14.6578 30.4984 14.6567C30.4809 14.1308 30.3157 13.6423 30.0429 13.2313C29.5505 12.4892 28.7074 12 27.75 12H27.5C25.9812 12 24.75 13.2312 24.75 14.75V15C24.75 16.2908 25.6393 17.3739 26.8386 17.6699Z" fill="black"/>
</g>
<defs>
<clipPath id="clip0_74_4689">
<rect width="16" height="16" fill="white" transform="translate(16 8)"/>
</clipPath>
</defs>
</svg>
