<svg width="48" height="32" viewBox="0 0 48 32" fill="none" xmlns="http://www.w3.org/2000/svg">
<path fill-rule="evenodd" clip-rule="evenodd" d="M22.3 10L19.9 8.5L18 10L18 21.8112L18 23.5L19.5 22.7241L20.9 22L23.3 23.5L25.7 22L28.1 23.5L30 22L30 10.1888L30 8.5L28.5 9.27586L27.1 10L24.7 8.5L22.3 10ZM24.7 10.2689L23.095 11.272L22.3 11.7689L21.505 11.272L20.0006 10.3317L19.5 10.7269L19.5 21.0354L20.2109 20.6677L20.9701 20.275L21.695 20.728L23.3 21.7311L24.905 20.728L25.7 20.2311L26.495 20.728L27.9994 21.6683L28.5 21.2731L28.5 10.9646L27.7891 11.3323L27.0299 11.725L26.305 11.272L24.7 10.2689ZM21 14.5C21 14.0858 21.3358 13.75 21.75 13.75L26.25 13.75C26.6642 13.75 27 14.0858 27 14.5C27 14.9142 26.6642 15.25 26.25 15.25L21.75 15.25C21.3358 15.25 21 14.9142 21 14.5ZM21.75 16.75C21.3358 16.75 21 17.0858 21 17.5C21 17.9142 21.3358 18.25 21.75 18.25L24.25 18.25C24.6642 18.25 25 17.9142 25 17.5C25 17.0858 24.6642 16.75 24.25 16.75L21.75 16.75Z" fill="black"/>
</svg>
