<svg width="48" height="32" viewBox="0 0 48 32" fill="none" xmlns="http://www.w3.org/2000/svg">
<path fill-rule="evenodd" clip-rule="evenodd" d="M19.5 11H21.5C21.7761 11 22 11.2239 22 11.5V13.5C22 13.7761 21.7761 14 21.5 14H19.5C19.2239 14 19 13.7761 19 13.5V11.5C19 11.2239 19.2239 11 19.5 11ZM17.5 11.5C17.5 10.3954 18.3954 9.5 19.5 9.5H21.5C22.6046 9.5 23.5 10.3954 23.5 11.5V13.5C23.5 14.6046 22.6046 15.5 21.5 15.5H19.5C18.3954 15.5 17.5 14.6046 17.5 13.5V11.5ZM26.5 11H28.5C28.7761 11 29 11.2239 29 11.5V13.5C29 13.7761 28.7761 14 28.5 14H26.5C26.2239 14 26 13.7761 26 13.5V11.5C26 11.2239 26.2239 11 26.5 11ZM24.5 11.5C24.5 10.3954 25.3954 9.5 26.5 9.5H28.5C29.6046 9.5 30.5 10.3954 30.5 11.5V13.5C30.5 14.6046 29.6046 15.5 28.5 15.5H26.5C25.3954 15.5 24.5 14.6046 24.5 13.5V11.5ZM21.5 18H19.5C19.2239 18 19 18.2239 19 18.5V20.5C19 20.7761 19.2239 21 19.5 21H21.5C21.7761 21 22 20.7761 22 20.5V18.5C22 18.2239 21.7761 18 21.5 18ZM19.5 16.5C18.3954 16.5 17.5 17.3954 17.5 18.5V20.5C17.5 21.6046 18.3954 22.5 19.5 22.5H21.5C22.6046 22.5 23.5 21.6046 23.5 20.5V18.5C23.5 17.3954 22.6046 16.5 21.5 16.5H19.5ZM26.5 18H28.5C28.7761 18 29 18.2239 29 18.5V20.5C29 20.7761 28.7761 21 28.5 21H26.5C26.2239 21 26 20.7761 26 20.5V18.5C26 18.2239 26.2239 18 26.5 18ZM24.5 18.5C24.5 17.3954 25.3954 16.5 26.5 16.5H28.5C29.6046 16.5 30.5 17.3954 30.5 18.5V20.5C30.5 21.6046 29.6046 22.5 28.5 22.5H26.5C25.3954 22.5 24.5 21.6046 24.5 20.5V18.5Z" fill="black"/>
</svg>
