<svg width="48" height="32" viewBox="0 0 48 32" fill="none" xmlns="http://www.w3.org/2000/svg">
<g clip-path="url(#clip0_74_4346)">
<path fill-rule="evenodd" clip-rule="evenodd" d="M28.5 20.5H19.5C18.6716 20.5 18 19.8284 18 19V17H21C21.2668 17 21.5134 16.8583 21.6478 16.6279L22.6672 14.8804L24.5672 19.0604C24.6832 19.3156 24.932 19.4848 25.212 19.499C25.492 19.5133 25.7566 19.3701 25.8978 19.1279L27.4308 16.5H30V19C30 19.8284 29.3284 20.5 28.5 20.5ZM30 15H27C26.7332 15 26.4866 15.1417 26.3522 15.3721L25.3328 17.1196L23.4328 12.9396C23.3168 12.6844 23.068 12.5152 22.788 12.501C22.508 12.4867 22.2434 12.6299 22.1022 12.8721L20.5692 15.5H18V13C18 12.1716 18.6716 11.5 19.5 11.5H28.5C29.3284 11.5 30 12.1716 30 13V15ZM19.5 22H28.5C30.1569 22 31.5 20.6569 31.5 19V13C31.5 11.3431 30.1569 10 28.5 10H19.5C17.8431 10 16.5 11.3431 16.5 13V19C16.5 20.6569 17.8431 22 19.5 22Z" fill="black"/>
</g>
<defs>
<clipPath id="clip0_74_4346">
<rect width="16" height="16" fill="white" transform="translate(16 8)"/>
</clipPath>
</defs>
</svg>
