<svg width="48" height="32" viewBox="0 0 48 32" fill="none" xmlns="http://www.w3.org/2000/svg">
<g clip-path="url(#clip0_74_4114)">
<path fill-rule="evenodd" clip-rule="evenodd" d="M31.3694 9.2682C31.3247 8.95278 31.0808 8.68883 30.7499 8.63368C27.8687 8.15349 24.9625 9.33497 23.2336 11.6893L23.0783 11.9007L20.4874 12.0133C20.33 12.0202 20.1788 12.0764 20.0552 12.1739L16.6965 14.8256C16.4834 14.9938 16.3779 15.2639 16.4205 15.532C16.4631 15.8001 16.6472 16.0242 16.9019 16.118L20.2509 17.3519C20.9237 17.625 21.3817 17.9127 21.7345 18.2655C22.0874 18.6184 22.3751 19.0765 22.6483 19.7494L23.8821 23.0982C23.9759 23.3528 24.2 23.537 24.4681 23.5796C24.7361 23.6222 25.0063 23.5166 25.1745 23.3036L27.8261 19.9449C27.9237 19.8212 27.9799 19.67 27.9868 19.5127L28.0994 16.9217L28.3108 16.7665C30.6602 15.0412 31.8416 12.1434 31.3694 9.2682ZM20.7945 13.5014L21.9394 13.4516L20.2495 15.7528L18.6767 15.1733L20.7945 13.5014ZM24.8267 21.3233L24.2473 19.7505L26.5485 18.0606L26.4987 19.2055L24.8267 21.3233ZM29.9536 10.0465C27.8163 9.88226 25.7267 10.8285 24.4426 12.5771L21.6625 16.3629C22.0883 16.5995 22.4633 16.873 22.7952 17.2049C23.1271 17.5368 23.4005 17.9117 23.6372 18.3375L27.423 15.5574C29.1716 14.2734 30.1178 12.1838 29.9536 10.0465ZM18.3777 21.9519C18.2497 21.9746 18.1231 21.9917 18.0008 22.0045C18.0131 21.886 18.0296 21.7634 18.0514 21.6393C18.155 21.0496 18.3451 20.6248 18.5776 20.3924C18.8224 20.1475 19.272 20.1178 19.5824 20.4281C19.8927 20.7385 19.863 21.1881 19.6181 21.4329C19.395 21.6561 18.9741 21.8462 18.3777 21.9519ZM16.4804 23.0685C16.4668 22.8345 16.4549 22.3989 16.505 21.8885C16.587 21.0514 16.8357 20.0129 17.517 19.3317C18.3703 18.4783 19.7699 18.4943 20.643 19.3675C21.5162 20.2406 21.5322 21.6402 20.6788 22.4936C19.5974 23.575 17.5668 23.5612 16.9441 23.5291C16.8231 23.5228 16.711 23.4693 16.6253 23.3836C16.5406 23.2989 16.4873 23.1882 16.4804 23.0685Z" fill="black"/>
</g>
<defs>
<clipPath id="clip0_74_4114">
<rect width="16" height="16" fill="white" transform="translate(16 8)"/>
</clipPath>
</defs>
</svg>
