<svg width="48" height="32" viewBox="0 0 48 32" fill="none" xmlns="http://www.w3.org/2000/svg">
<path fill-rule="evenodd" clip-rule="evenodd" d="M27.2197 10.2803C26.9268 9.98744 26.9268 9.51256 27.2197 9.21967C27.5126 8.92678 27.9874 8.92678 28.2803 9.21967C32.025 12.9643 32.025 19.0357 28.2803 22.7803C27.9874 23.0732 27.5126 23.0732 27.2197 22.7803C26.9268 22.4874 26.9268 22.0126 27.2197 21.7197C30.3786 18.5608 30.3786 13.4392 27.2197 10.2803ZM20.7803 10.2803C21.0732 9.98744 21.0732 9.51256 20.7803 9.21967C20.4874 8.92678 20.0125 8.92678 19.7196 9.21967C15.975 12.9643 15.975 19.0357 19.7196 22.7803C20.0125 23.0732 20.4874 23.0732 20.7803 22.7803C21.0732 22.4874 21.0732 22.0126 20.7803 21.7197C17.6214 18.5608 17.6214 13.4392 20.7803 10.2803Z" fill="black"/>
</svg>
