<svg width="48" height="32" viewBox="0 0 48 32" fill="none" xmlns="http://www.w3.org/2000/svg">
<path fill-rule="evenodd" clip-rule="evenodd" d="M28.25 13C28.9404 13 29.5 12.4404 29.5 11.75C29.5 11.0596 28.9404 10.5 28.25 10.5C27.5596 10.5 27 11.0596 27 11.75C27 12.4404 27.5596 13 28.25 13ZM28.25 14.5C26.9912 14.5 25.9299 13.6542 25.6035 12.4999L20.5768 12.5C20.1202 12.5 19.75 12.8702 19.75 13.3269C19.75 13.692 19.9895 14.0139 20.3392 14.1188L28.0918 16.4446C29.076 16.7398 29.75 17.6457 29.75 18.6732C29.75 19.9582 28.7083 20.9999 27.4233 20.9999L22.3965 20.9999C22.0701 22.1542 21.0088 23 19.75 23C18.2312 23 17 21.7688 17 20.25C17 18.7312 18.2312 17.5 19.75 17.5C21.0088 17.5 22.07 18.3457 22.3965 19.4999L27.4233 19.4999C27.8799 19.4999 28.25 19.1298 28.25 18.6732C28.25 18.3081 28.0105 17.9862 27.6608 17.8813L19.9082 15.5555C18.924 15.2603 18.25 14.3544 18.25 13.3269C18.25 12.0418 19.2917 11.0001 20.5768 11L25.6035 10.9999C25.93 9.84572 26.9912 9 28.25 9C29.7688 9 31 10.2312 31 11.75C31 13.2688 29.7688 14.5 28.25 14.5ZM21 20.25C21 20.9404 20.4404 21.5 19.75 21.5C19.0596 21.5 18.5 20.9404 18.5 20.25C18.5 19.5596 19.0596 19 19.75 19C20.4404 19 21 19.5596 21 20.25Z" fill="black"/>
</svg>
