<svg width="48" height="32" viewBox="0 0 48 32" fill="none" xmlns="http://www.w3.org/2000/svg">
<g clip-path="url(#clip0_74_4314)">
<path fill-rule="evenodd" clip-rule="evenodd" d="M21.0425 8.15573C21.2822 7.97115 21.6094 7.9487 21.8721 8.09882C22.7044 8.57444 23.3792 8.84937 24.028 8.98452C24.6725 9.11879 25.3319 9.12355 26.1439 9.00754C26.3939 8.97183 26.6451 9.06433 26.8123 9.25365C26.9794 9.44298 27.04 9.7037 26.9736 9.94734L26.4118 12.0071C28.9566 13.7595 30 18.1434 30 20.75C30 22.75 27 24 24 24C21 24 18 22.75 18 20.75C18 18.1422 19.0443 13.7554 21.5917 12.0047L20.7753 8.94325C20.6974 8.65089 20.8027 8.34032 21.0425 8.15573ZM23.9926 13.6009C24.528 13.6058 25.0362 13.4847 25.5965 13.269C26.1464 13.6543 26.6435 14.2519 27.0827 15.0544C26.277 15.6567 25.2029 15.9401 24.1233 15.7602C23.7147 15.6921 23.3283 15.9681 23.2602 16.3767C23.1921 16.7853 23.4681 17.1717 23.8767 17.2398C25.2424 17.4674 26.6128 17.1598 27.7064 16.4475C28.2497 17.9408 28.5 19.5687 28.5 20.75C28.5 20.8994 28.3859 21.3175 27.4542 21.7834C26.5789 22.221 25.3184 22.5 24 22.5C22.6816 22.5 21.4211 22.221 20.5458 21.7834C19.6141 21.3175 19.5 20.8994 19.5 20.75C19.5 20.3397 19.5302 19.8756 19.5924 19.3819C21.1643 20.32 22.9631 20.7292 24.843 20.4942C25.254 20.4428 25.5456 20.068 25.4942 19.657C25.4428 19.246 25.068 18.9544 24.657 19.0058C22.9382 19.2206 21.3007 18.7811 19.8887 17.7872C20.0876 16.9785 20.3657 16.1596 20.7293 15.4174C21.214 14.4282 21.7759 13.7074 22.4073 13.2663C22.9557 13.4666 23.4602 13.596 23.9926 13.6009ZM22.6454 10.1346L23.1236 11.9276C23.4875 12.0481 23.757 12.0986 24.0064 12.1009C24.2527 12.1032 24.5193 12.0586 24.8766 11.9353L25.244 10.5884C24.7265 10.5996 24.2268 10.5582 23.722 10.453C23.3615 10.3779 23.0056 10.2718 22.6454 10.1346Z" fill="black"/>
</g>
<defs>
<clipPath id="clip0_74_4314">
<rect width="16" height="16" fill="white" transform="translate(16 8)"/>
</clipPath>
</defs>
</svg>
