<svg width="48" height="32" viewBox="0 0 48 32" fill="none" xmlns="http://www.w3.org/2000/svg">
<path fill-rule="evenodd" clip-rule="evenodd" d="M29.9833 8.84286C30.0701 9.24787 29.8121 9.64656 29.4071 9.73335L24.75 10.7313V21H27.25C27.6642 21 28 21.3358 28 21.75C28 22.1642 27.6642 22.5 27.25 22.5H24.0012C24.0008 22.5 24.0004 22.5 24 22.5C23.9996 22.5 23.9992 22.5 23.9988 22.5H20.75C20.3358 22.5 20 22.1642 20 21.75C20 21.3358 20.3358 21 20.75 21H23.25V11.0527L18.9071 11.9834C18.5021 12.0701 18.1034 11.8122 18.0166 11.4071C17.9298 11.0021 18.1878 10.6034 18.5928 10.5167L29.0928 8.26665C29.4979 8.17986 29.8965 8.43784 29.9833 8.84286ZM27.6428 15.5683L27.6499 15.586C27.8707 16.138 28.4054 16.5 29 16.5C29.5945 16.5 30.1292 16.138 30.35 15.586L30.3571 15.5684L29 12.8541L27.6428 15.5683ZM29 11C28.5403 11 28.1201 11.2597 27.9145 11.6708L26.2008 15.0984C26.073 15.3538 26.0607 15.6518 26.1667 15.917L26.2572 16.1431C26.7058 17.2646 27.792 18 29 18C30.2079 18 31.2941 17.2646 31.7427 16.1431L31.8332 15.917C31.9393 15.6518 31.9269 15.3538 31.7991 15.0984L30.0854 11.6708C29.8798 11.2597 29.4596 11 29 11ZM17.6428 17.5683L17.6499 17.586C17.8707 18.138 18.4054 18.5 19 18.5C19.5945 18.5 20.1292 18.138 20.35 17.586L20.3571 17.5683L19 14.8541L17.6428 17.5683ZM19 13C18.5403 13 18.1201 13.2597 17.9145 13.6708L16.2008 17.0984C16.073 17.3538 16.0607 17.6518 16.1667 17.917L16.2572 18.1431C16.7058 19.2646 17.792 20 19 20C20.2079 20 21.2941 19.2646 21.7427 18.1431L21.8332 17.917C21.9393 17.6518 21.9269 17.3538 21.7991 17.0984L20.0854 13.6708C19.8798 13.2597 19.4596 13 19 13Z" fill="black"/>
</svg>
