<svg width="48" height="32" viewBox="0 0 48 32" fill="none" xmlns="http://www.w3.org/2000/svg">
<path fill-rule="evenodd" clip-rule="evenodd" d="M20.5 14C21.3284 14 22 13.3284 22 12.5C22 11.6716 21.3284 11 20.5 11C19.6716 11 19 11.6716 19 12.5C19 13.3284 19.6716 14 20.5 14ZM17.5 12.5C17.5 14.1569 18.8431 15.5 20.5 15.5C21.0564 15.5 21.5773 15.3486 22.024 15.0846L22.9393 16L22.024 16.9154C21.5773 16.6514 21.0564 16.5 20.5 16.5C18.8431 16.5 17.5 17.8431 17.5 19.5C17.5 21.1569 18.8431 22.5 20.5 22.5C22.1569 22.5 23.5 21.1569 23.5 19.5C23.5 18.9436 23.3486 18.4227 23.0846 17.976L24.1215 16.9392L29.6221 20.1478C29.9799 20.3565 30.4391 20.2357 30.6478 19.8779C30.8565 19.5201 30.7357 19.0609 30.3779 18.8522L25.4885 16L30.3779 13.1478C30.7357 12.9391 30.8565 12.4799 30.6478 12.1221C30.4391 11.7643 29.9799 11.6435 29.6221 11.8522L24.1215 15.0608L23.0846 14.024C23.3486 13.5773 23.5 13.0564 23.5 12.5C23.5 10.8431 22.1569 9.5 20.5 9.5C18.8431 9.5 17.5 10.8431 17.5 12.5ZM20.5 18C21.3284 18 22 18.6716 22 19.5C22 20.3284 21.3284 21 20.5 21C19.6716 21 19 20.3284 19 19.5C19 18.6716 19.6716 18 20.5 18Z" fill="black"/>
</svg>
