<svg width="48" height="32" viewBox="0 0 48 32" fill="none" xmlns="http://www.w3.org/2000/svg">
<g clip-path="url(#clip0_74_2563)">
<path fill-rule="evenodd" clip-rule="evenodd" d="M21.5148 11.5H22.1361L22.5755 11.0607L23.6466 9.98959C23.8418 9.79432 24.1584 9.79432 24.3537 9.98959L25.4247 11.0607L25.8641 11.5H26.4854H28.0001C28.2763 11.5 28.5001 11.7239 28.5001 12V13.5147V14.136L28.9395 14.5754L30.0105 15.6464C30.2058 15.8417 30.2058 16.1583 30.0105 16.3535L28.9395 17.4246L28.5001 17.864V18.4853V20C28.5001 20.2761 28.2763 20.5 28.0001 20.5H26.4854H25.8641L25.4247 20.9393L24.3537 22.0104C24.1584 22.2057 23.8418 22.2057 23.6466 22.0104L22.5755 20.9393L22.1362 20.5H21.5148H20.0001C19.724 20.5 19.5001 20.2761 19.5001 20V18.4853V17.864L19.0608 17.4246L17.9897 16.3535C17.7944 16.1583 17.7944 15.8417 17.9897 15.6464L19.0608 14.5754L19.5001 14.136V13.5147V12C19.5001 11.7239 19.724 11.5 20.0001 11.5H21.5148ZM25.4143 8.92893C24.6333 8.14788 23.367 8.14788 22.5859 8.92893L21.5148 10H20.0001C18.8955 10 18.0001 10.8954 18.0001 12V13.5147L16.929 14.5858C16.148 15.3668 16.148 16.6332 16.929 17.4142L18.0001 18.4853V20C18.0001 21.1046 18.8955 22 20.0001 22H21.5148L22.5859 23.0711C23.367 23.8521 24.6333 23.8521 25.4143 23.0711L26.4854 22H28.0001C29.1047 22 30.0001 21.1046 30.0001 20V18.4853L31.0712 17.4142C31.8522 16.6332 31.8522 15.3668 31.0712 14.5858L30.0001 13.5147V12C30.0001 10.8954 29.1047 10 28.0001 10H26.4854L25.4143 8.92893ZM27.1002 14.45C27.3487 14.1186 27.2815 13.6485 26.9502 13.4C26.6188 13.1515 26.1487 13.2186 25.9002 13.55L23.419 16.8582L22.0305 15.4697C21.7376 15.1768 21.2627 15.1768 20.9698 15.4697C20.6769 15.7626 20.6769 16.2374 20.9698 16.5303L22.9698 18.5303C23.1236 18.6841 23.3364 18.7635 23.5533 18.7481C23.7702 18.7327 23.9697 18.6239 24.1002 18.45L27.1002 14.45Z" fill="black"/>
</g>
<defs>
<clipPath id="clip0_74_2563">
<rect width="16" height="16" fill="white" transform="translate(16 8)"/>
</clipPath>
</defs>
</svg>
