<svg width="48" height="32" viewBox="0 0 48 32" fill="none" xmlns="http://www.w3.org/2000/svg">
<g clip-path="url(#clip0_74_4955)">
<path fill-rule="evenodd" clip-rule="evenodd" d="M21.5148 11.5H22.1361L22.5755 11.0607L23.6466 9.98959C23.8418 9.79432 24.1584 9.79432 24.3537 9.98959L25.4247 11.0607L25.8641 11.5H26.4854H28.0001C28.2763 11.5 28.5001 11.7239 28.5001 12V13.5147V14.136L28.9395 14.5754L30.0105 15.6464C30.2058 15.8417 30.2058 16.1583 30.0105 16.3535L28.9395 17.4246L28.5001 17.864V18.4853V20C28.5001 20.2761 28.2763 20.5 28.0001 20.5H26.4854H25.8641L25.4247 20.9393L24.3537 22.0104C24.1584 22.2057 23.8418 22.2057 23.6466 22.0104L22.5755 20.9393L22.1362 20.5H21.5148H20.0001C19.724 20.5 19.5001 20.2761 19.5001 20V18.4853V17.864L19.0608 17.4246L17.9897 16.3535C17.7944 16.1583 17.7944 15.8417 17.9897 15.6464L19.0608 14.5754L19.5001 14.136V13.5147V12C19.5001 11.7239 19.724 11.5 20.0001 11.5H21.5148ZM25.4143 8.92893C24.6333 8.14788 23.367 8.14788 22.5859 8.92893L21.5148 10H20.0001C18.8955 10 18.0001 10.8954 18.0001 12V13.5147L16.929 14.5858C16.148 15.3668 16.148 16.6332 16.929 17.4142L18.0001 18.4853V20C18.0001 21.1046 18.8955 22 20.0001 22H21.5148L22.5859 23.0711C23.367 23.8521 24.6333 23.8521 25.4143 23.0711L26.4854 22H28.0001C29.1047 22 30.0001 21.1046 30.0001 20V18.4853L31.0712 17.4142C31.8522 16.6332 31.8522 15.3668 31.0712 14.5858L30.0001 13.5147V12C30.0001 10.8954 29.1047 10 28.0001 10H26.4854L25.4143 8.92893ZM22.5305 18.5303L26.5305 14.5303C26.8233 14.2374 26.8233 13.7626 26.5305 13.4697C26.2376 13.1768 25.7627 13.1768 25.4698 13.4697L21.4698 17.4697C21.1769 17.7626 21.1769 18.2374 21.4698 18.5303C21.7627 18.8232 22.2376 18.8232 22.5305 18.5303ZM27.0001 18C27.0001 18.5523 26.5524 19 26.0001 19C25.4478 19 25.0001 18.5523 25.0001 18C25.0001 17.4477 25.4478 17 26.0001 17C26.5524 17 27.0001 17.4477 27.0001 18ZM22.0001 15C22.5524 15 23.0001 14.5523 23.0001 14C23.0001 13.4477 22.5524 13 22.0001 13C21.4478 13 21.0001 13.4477 21.0001 14C21.0001 14.5523 21.4478 15 22.0001 15Z" fill="black"/>
</g>
<defs>
<clipPath id="clip0_74_4955">
<rect width="16" height="16" fill="white" transform="translate(16 8)"/>
</clipPath>
</defs>
</svg>
