<svg width="48" height="32" viewBox="0 0 48 32" fill="none" xmlns="http://www.w3.org/2000/svg">
<path fill-rule="evenodd" clip-rule="evenodd" d="M20 11.5H28C28.8284 11.5 29.5 12.1716 29.5 13V15.25H18.5V13C18.5 12.1716 19.1716 11.5 20 11.5ZM18.5 16.75V19C18.5 19.8284 19.1716 20.5 20 20.5H28C28.8284 20.5 29.5 19.8284 29.5 19V16.75H18.5ZM17 13C17 11.3431 18.3431 10 20 10H28C29.6569 10 31 11.3431 31 13V19C31 20.6569 29.6569 22 28 22H20C18.3431 22 17 20.6569 17 19V13ZM19.75 13.5C19.75 13.0858 20.0858 12.75 20.5 12.75H23C23.4142 12.75 23.75 13.0858 23.75 13.5C23.75 13.9142 23.4142 14.25 23 14.25H20.5C20.0858 14.25 19.75 13.9142 19.75 13.5ZM20.5 17.75C20.0858 17.75 19.75 18.0858 19.75 18.5C19.75 18.9142 20.0858 19.25 20.5 19.25H23C23.4142 19.25 23.75 18.9142 23.75 18.5C23.75 18.0858 23.4142 17.75 23 17.75H20.5Z" fill="black"/>
</svg>
