<svg width="48" height="32" viewBox="0 0 48 32" fill="none" xmlns="http://www.w3.org/2000/svg">
<g clip-path="url(#clip0_74_5065)">
<path d="M20.1797 16.2546C22.0291 16.3481 23.5 17.877 23.5 19.7497L23.4951 19.9294C23.4016 21.7789 21.8727 23.2497 20 23.2497L19.8203 23.2448C18.0304 23.1543 16.5954 21.7193 16.5049 19.9294L16.5 19.7497C16.5 17.8167 18.067 16.2497 20 16.2497L20.1797 16.2546ZM30.3779 16.5065C31.0081 16.5706 31.5 17.1026 31.5 17.7497V21.7497L31.4932 21.8776C31.4334 22.4658 30.9661 22.933 30.3779 22.9929L30.25 22.9997H26.25C25.6028 22.9997 25.0709 22.5079 25.0068 21.8776L25 21.7497V17.7497C25 17.0594 25.5597 16.4997 26.25 16.4997H30.25L30.3779 16.5065ZM20 17.7497C18.8955 17.7497 18 18.6452 18 19.7497C18 20.8543 18.8954 21.7497 20 21.7497C21.1046 21.7497 22 20.8543 22 19.7497C22 18.6452 21.1045 17.7497 20 17.7497ZM26.5 21.4997H30V17.9997H26.5V21.4997ZM22.9092 8.95282C23.3861 8.09945 24.6136 8.09883 25.0908 8.95185L27.7109 13.6403C28.1471 14.4215 27.6449 15.3723 26.7939 15.488L26.6191 15.4997H21.3809C20.4265 15.4997 19.8239 14.4735 20.2891 13.6403L22.9092 8.95282ZM21.8066 13.9997H26.1934L24 10.0739L21.8066 13.9997Z" fill="black"/>
</g>
<defs>
<clipPath id="clip0_74_5065">
<rect width="16" height="16" fill="white" transform="translate(16 8)"/>
</clipPath>
</defs>
</svg>
