<svg width="48" height="32" viewBox="0 0 48 32" fill="none" xmlns="http://www.w3.org/2000/svg">
<g clip-path="url(#clip0_74_5077)">
<path fill-rule="evenodd" clip-rule="evenodd" d="M22.1934 14L20 10.0749L17.8066 14L22.1934 14ZM21.0912 8.95266C20.6142 8.09903 19.3859 8.09903 18.9088 8.95266L16.2893 13.6403C15.8237 14.4735 16.426 15.5 17.3805 15.5L22.6195 15.5C23.574 15.5 24.1763 14.4735 23.7107 13.6402L21.0912 8.95266ZM18.5344 22.9293C18.9802 23.1352 19.4767 23.25 20 23.25C21.4097 23.25 22.6247 22.4166 23.1793 21.2157C23.3852 20.7698 23.5 20.2733 23.5 19.75C23.5 17.817 21.933 16.25 20 16.25C18.067 16.25 16.5 17.817 16.5 19.75C16.5 21.1597 17.3334 22.3747 18.5344 22.9293ZM20 21.75C21.1046 21.75 22 20.8546 22 19.75C22 18.6455 21.1046 17.75 20 17.75C18.8954 17.75 18 18.6455 18 19.75C18 20.8546 18.8954 21.75 20 21.75ZM31.2803 9.2197C31.5732 9.51259 31.5732 9.98746 31.2803 10.2804L26.2803 15.2804C25.9874 15.5732 25.5126 15.5732 25.2197 15.2804C24.9268 14.9875 24.9268 14.5126 25.2197 14.2197L30.2197 9.2197C30.5126 8.9268 30.9874 8.9268 31.2803 9.2197ZM26.25 21.25V17.75H29.75V21.25H26.25ZM24.75 17.5C24.75 16.8097 25.3096 16.25 26 16.25H30C30.6904 16.25 31.25 16.8097 31.25 17.5V21.5C31.25 22.1904 30.6904 22.75 30 22.75H26C25.3096 22.75 24.75 22.1904 24.75 21.5V17.5Z" fill="black"/>
</g>
<defs>
<clipPath id="clip0_74_5077">
<rect width="16" height="16" fill="white" transform="translate(16 8)"/>
</clipPath>
</defs>
</svg>
