<svg width="48" height="32" viewBox="0 0 48 32" fill="none" xmlns="http://www.w3.org/2000/svg">
<path fill-rule="evenodd" clip-rule="evenodd" d="M19.0029 12.7025L23.223 10.6768C23.4655 10.5604 23.731 10.5 24 10.5C24.269 10.5 24.5345 10.5604 24.777 10.6768L28.9971 12.7025C29.3045 12.85 29.5 13.1607 29.5 13.5017V14C29.5 16.9154 28.0145 19.6298 25.5589 21.2014L24.5731 21.8323C24.402 21.9418 24.2031 22 24 22C23.7969 22 23.598 21.9418 23.4269 21.8323L22.4411 21.2014C19.9855 19.6298 18.5 16.9154 18.5 14V13.5017C18.5 13.1607 18.6955 12.85 19.0029 12.7025ZM22.5739 9.32455L18.3538 11.3502C17.5264 11.7473 17 12.5839 17 13.5017V14C17 17.4269 18.7461 20.6175 21.6325 22.4648L22.6183 23.0957C23.0308 23.3597 23.5103 23.5 24 23.5C24.4897 23.5 24.9692 23.3597 25.3817 23.0957L26.3675 22.4648C29.2539 20.6175 31 17.4269 31 14V13.5017C31 12.5839 30.4736 11.7473 29.6462 11.3502L25.4261 9.32455C24.9811 9.11091 24.4937 9 24 9C23.5063 9 23.0189 9.11091 22.5739 9.32455ZM24.4697 17.9697C24.1768 18.2626 24.1768 18.7374 24.4697 19.0303C24.7626 19.3232 25.2374 19.3232 25.5303 19.0303C26.1045 18.4561 26.6475 17.632 27.0458 16.8354C27.4322 16.0626 27.75 15.182 27.75 14.5C27.75 14.0858 27.4142 13.75 27 13.75C26.5858 13.75 26.25 14.0858 26.25 14.5C26.25 14.818 26.0678 15.4374 25.7042 16.1646C25.3525 16.868 24.8955 17.5439 24.4697 17.9697Z" fill="black"/>
</svg>
