<svg width="48" height="32" viewBox="0 0 48 32" fill="none" xmlns="http://www.w3.org/2000/svg">
<path fill-rule="evenodd" clip-rule="evenodd" d="M28 12.5H29.3071C30.5182 12.5 31.5 13.4818 31.5 14.6929C31.5 14.8966 31.4716 15.0994 31.4156 15.2953L30.1217 19.8242C29.7537 21.1121 28.5765 22 27.2371 22H22H20.7629C19.4235 22 18.2463 21.1121 17.8783 19.8242L16.5844 15.2953C16.5284 15.0994 16.5 14.8966 16.5 14.6929C16.5 13.4818 17.4818 12.5 18.6929 12.5H20L20 11C20 9.89543 20.8954 9 22 9H26C27.1046 9 28 9.89543 28 11V12.5ZM21.5 12.5V11C21.5 10.7239 21.7239 10.5 22 10.5L26 10.5C26.2761 10.5 26.5 10.7239 26.5 11V12.5H22H21.5ZM27.2371 20.5H22H20.7629C20.0932 20.5 19.5046 20.056 19.3206 19.4121L18.0267 14.8832C18.009 14.8213 18 14.7573 18 14.6929C18 14.3102 18.3102 14 18.6929 14H22H29.3071C29.6898 14 30 14.3102 30 14.6929C30 14.7573 29.991 14.8213 29.9733 14.8832L28.6794 19.4121C28.4954 20.056 27.9068 20.5 27.2371 20.5ZM22.6471 19.2354C22.2409 19.3167 21.8458 19.0533 21.7646 18.6471L21.2646 16.1471C21.1833 15.7409 21.4467 15.3458 21.8529 15.2646C22.2591 15.1833 22.6542 15.4467 22.7354 15.8529L23.2354 18.3529C23.3167 18.7591 23.0533 19.1542 22.6471 19.2354ZM26.7354 16.1471C26.8167 15.7409 26.5533 15.3458 26.1471 15.2646C25.7409 15.1833 25.3458 15.4467 25.2646 15.8529L24.7646 18.3529C24.6833 18.7591 24.9467 19.1542 25.3529 19.2354C25.7591 19.3167 26.1542 19.0533 26.2354 18.6471L26.7354 16.1471Z" fill="black"/>
</svg>
