<svg width="48" height="32" viewBox="0 0 48 32" fill="none" xmlns="http://www.w3.org/2000/svg">
<path fill-rule="evenodd" clip-rule="evenodd" d="M19.0177 11.0682L19.3945 12.5L20.5802 17.0054C21.0582 18.8215 23.0685 19.757 24.7657 18.953L29.284 16.8127C30.3318 16.3164 30.9998 15.2609 30.9998 14.1015V13C30.9998 11.8954 30.1043 11 28.9998 11H20.5556L20.4069 10.4647C20.1664 9.59907 19.3782 9 18.4798 9H16.75C16.3358 9 16 9.33579 16 9.75C16 10.1642 16.3358 10.5 16.75 10.5H18.4798C18.7044 10.5 18.9015 10.6498 18.9616 10.8662L19.0177 11.0682ZM24.1236 17.5974L28.6419 15.4571C29.1658 15.209 29.4998 14.6812 29.4998 14.1015V13C29.4998 12.7239 29.2759 12.5 28.9998 12.5H20.9456L22.0308 16.6236C22.2698 17.5317 23.275 17.9994 24.1236 17.5974ZM28 22.75C28.9665 22.75 29.75 21.9665 29.75 21C29.75 20.0335 28.9665 19.25 28 19.25C27.0335 19.25 26.25 20.0335 26.25 21C26.25 21.9665 27.0335 22.75 28 22.75ZM20.75 21C20.75 21.9665 19.9665 22.75 19 22.75C18.0335 22.75 17.25 21.9665 17.25 21C17.25 20.0335 18.0335 19.25 19 19.25C19.9665 19.25 20.75 20.0335 20.75 21Z" fill="black"/>
</svg>
