<svg width="48" height="32" viewBox="0 0 48 32" fill="none" xmlns="http://www.w3.org/2000/svg">
<path fill-rule="evenodd" clip-rule="evenodd" d="M21.1738 11H26.8263C27.5882 11 28.2291 11.5712 28.3164 12.3281L29.1241 19.3281C29.2269 20.2187 28.5305 21 27.634 21H20.3661C19.4696 21 18.7732 20.2187 18.876 19.3281L19.6837 12.3281C19.771 11.5712 20.4119 11 21.1738 11ZM18.1936 12.1561C18.3682 10.6424 19.65 9.5 21.1738 9.5H26.8263C28.3501 9.5 29.6319 10.6424 29.8065 12.1561L30.6142 19.1561C30.8197 20.9374 29.4271 22.5 27.634 22.5H20.3661C18.573 22.5 17.1803 20.9374 17.3859 19.1561L18.1936 12.1561ZM21 13.25C21 12.8358 21.3358 12.5 21.75 12.5C22.1642 12.5 22.5 12.8358 22.5 13.25V13.5C22.5 14.3284 23.1716 15 24 15C24.8284 15 25.5 14.3284 25.5 13.5V13.25C25.5 12.8358 25.8358 12.5 26.25 12.5C26.6642 12.5 27 12.8358 27 13.25V13.5C27 15.1569 25.6569 16.5 24 16.5C22.3431 16.5 21 15.1569 21 13.5V13.25Z" fill="black"/>
</svg>
