<svg width="48" height="32" viewBox="0 0 48 32" fill="none" xmlns="http://www.w3.org/2000/svg">
<path fill-rule="evenodd" clip-rule="evenodd" d="M17.75 20.5C17.3358 20.5 17 20.1642 17 19.75C17 19.3358 17.3358 19 17.75 19H19.794C20.6535 19 21.4379 18.5104 21.8154 17.7382L22.6652 16L21.8154 14.2618C21.4379 13.4896 20.6535 13 19.794 13H17.75C17.3358 13 17 12.6642 17 12.25C17 11.8358 17.3358 11.5 17.75 11.5H19.794C21.2265 11.5 22.5338 12.3161 23.163 13.603L23.5 14.2924L23.8371 13.603C24.4662 12.3161 25.7735 11.5 27.206 11.5L28.4393 11.5L27.4697 10.5303C27.1768 10.2374 27.1768 9.76256 27.4697 9.46967C27.7626 9.17678 28.2374 9.17678 28.5303 9.46967L30.7803 11.7197C30.921 11.8603 31 12.0511 31 12.25C31 12.4489 30.921 12.6397 30.7803 12.7803L28.5303 15.0303C28.2374 15.3232 27.7626 15.3232 27.4697 15.0303C27.1768 14.7374 27.1768 14.2626 27.4697 13.9697L28.4393 13L27.206 13C26.3465 13 25.5621 13.4896 25.1846 14.2618L23.163 18.397C22.5338 19.6839 21.2265 20.5 19.794 20.5H17.75ZM24.3888 18.9578L25.0848 17.5341L25.1846 17.7382C25.5621 18.5104 26.3465 19 27.206 19H28.4393L27.4697 18.0303C27.1768 17.7374 27.1768 17.2626 27.4697 16.9697C27.7626 16.6768 28.2374 16.6768 28.5303 16.9697L30.7803 19.2197C31.0732 19.5126 31.0732 19.9874 30.7803 20.2803L28.5303 22.5303C28.2374 22.8232 27.7626 22.8232 27.4697 22.5303C27.1768 22.2374 27.1768 21.7626 27.4697 21.4697L28.4393 20.5H27.206C26.0654 20.5 25.0042 19.9826 24.3015 19.1222C24.3323 19.0686 24.3614 19.0138 24.3888 18.9578Z" fill="black"/>
</svg>
