<svg width="48" height="32" viewBox="0 0 48 32" fill="none" xmlns="http://www.w3.org/2000/svg">
<path fill-rule="evenodd" clip-rule="evenodd" d="M19.2612 10.1864C19.598 9.91157 20.0897 10.032 20.3054 10.4095C20.5018 10.7531 20.3959 11.1864 20.0955 11.4441C18.8127 12.5445 18 14.1774 18 16C18 17.8226 18.8127 19.4554 20.0955 20.5558C20.3959 20.8135 20.5018 21.2469 20.3054 21.5905C20.0897 21.968 19.598 22.0884 19.2612 21.8135C17.576 20.4382 16.5 18.3448 16.5 16C16.5 13.6552 17.576 11.5617 19.2612 10.1864ZM27.6946 10.4095C27.4982 10.7531 27.6041 11.1864 27.9045 11.4441C29.1873 12.5445 30 14.1774 30 16C30 17.8226 29.1873 19.4554 27.9045 20.5558C27.6041 20.8135 27.4982 21.2469 27.6946 21.5905C27.9103 21.968 28.402 22.0884 28.7388 21.8135C30.424 20.4382 31.5 18.3448 31.5 16C31.5 13.6552 30.424 11.5617 28.7388 10.1864C28.402 9.91157 27.9103 10.032 27.6946 10.4095ZM20.7593 12.8778C21.0743 12.5509 21.5958 12.6676 21.821 13.0617C22.0101 13.3927 21.9185 13.8064 21.6771 14.1014C21.2539 14.6186 21 15.2796 21 16C21 16.7203 21.2539 17.3814 21.6771 17.8985C21.9185 18.1936 22.0101 18.6073 21.821 18.9383C21.5958 19.3324 21.0743 19.449 20.7593 19.1222C19.9796 18.313 19.5 17.2125 19.5 16C19.5 14.7875 19.9796 13.687 20.7593 12.8778ZM26.179 13.0617C25.9899 13.3927 26.0815 13.8064 26.3229 14.1014C26.7461 14.6186 27 15.2796 27 16C27 16.7203 26.7461 17.3814 26.3229 17.8985C26.0815 18.1936 25.9899 18.6073 26.179 18.9383C26.4042 19.3324 26.9257 19.449 27.2407 19.1222C28.0204 18.313 28.5 17.2125 28.5 16C28.5 14.7875 28.0204 13.687 27.2407 12.8778C26.9257 12.551 26.4042 12.6676 26.179 13.0617ZM24 17.5C24.8284 17.5 25.5 16.8284 25.5 16C25.5 15.1716 24.8284 14.5 24 14.5C23.1716 14.5 22.5 15.1716 22.5 16C22.5 16.8284 23.1716 17.5 24 17.5Z" fill="black"/>
</svg>
