<svg width="48" height="32" viewBox="0 0 48 32" fill="none" xmlns="http://www.w3.org/2000/svg">
<path fill-rule="evenodd" clip-rule="evenodd" d="M23.5 13C23.5 13.8284 22.8284 14.5 22 14.5C21.1716 14.5 20.5 13.8284 20.5 13C20.5 12.1716 21.1716 11.5 22 11.5C22.8284 11.5 23.5 12.1716 23.5 13ZM24.9055 13.75C24.5725 15.0439 23.3979 16 22 16C20.6021 16 19.4275 15.0439 19.0945 13.75H17.7473C17.3331 13.75 16.9973 13.4142 16.9973 13C16.9973 12.5858 17.3331 12.25 17.7473 12.25H19.0945C19.4275 10.9561 20.6021 10 22 10C23.3979 10 24.5725 10.9561 24.9055 12.25H30.2501C30.6643 12.25 31.0001 12.5858 31.0001 13C31.0001 13.4142 30.6643 13.75 30.2501 13.75H24.9055ZM17.7473 18.25L23.0921 18.25C23.4251 16.9561 24.5997 16 25.9976 16C27.3954 16 28.57 16.9561 28.903 18.25H30.2502C30.6645 18.25 31.0002 18.5858 31.0002 19C31.0002 19.4142 30.6645 19.75 30.2502 19.75H28.903C28.57 21.0439 27.3954 22 25.9976 22C24.5997 22 23.4251 21.0439 23.0921 19.75L17.7473 19.75C17.3331 19.75 16.9973 19.4142 16.9973 19C16.9973 18.5858 17.3331 18.25 17.7473 18.25ZM25.9976 17.5C25.1691 17.5 24.4976 18.1716 24.4976 19C24.4976 19.8284 25.1691 20.5 25.9976 20.5C26.826 20.5 27.4976 19.8284 27.4976 19C27.4976 18.1716 26.826 17.5 25.9976 17.5Z" fill="black"/>
</svg>
