<svg width="48" height="32" viewBox="0 0 48 32" fill="none" xmlns="http://www.w3.org/2000/svg">
<path fill-rule="evenodd" clip-rule="evenodd" d="M26.9985 16.4985C26.1701 16.4985 25.4985 17.1701 25.4985 17.9985C25.4985 18.827 26.1701 19.4985 26.9985 19.4985C27.827 19.4985 28.4985 18.827 28.4985 17.9985C28.4985 17.1701 27.827 16.4985 26.9985 16.4985ZM26.2485 15.093C24.9546 15.4261 23.9985 16.6007 23.9985 17.9985C23.9985 19.3964 24.9546 20.571 26.2485 20.904L26.2485 22.2512C26.2485 22.6654 26.5843 23.0012 26.9985 23.0012C27.4127 23.0012 27.7485 22.6654 27.7485 22.2512L27.7485 20.904C29.0425 20.571 29.9985 19.3964 29.9985 17.9985C29.9985 16.6007 29.0425 15.4261 27.7485 15.093L27.7485 9.7484C27.7485 9.33419 27.4127 8.9984 26.9985 8.9984C26.5843 8.9984 26.2485 9.33419 26.2485 9.7484L26.2485 15.093ZM21.7485 22.2512L21.7485 16.9065C23.0425 16.5734 23.9985 15.3989 23.9985 14.001C23.9985 12.6031 23.0425 11.4285 21.7485 11.0955L21.7485 9.74829C21.7485 9.33408 21.4127 8.99829 20.9985 8.99829C20.5843 8.99829 20.2485 9.33408 20.2485 9.74829L20.2485 11.0955C18.9546 11.4285 17.9985 12.6031 17.9985 14.001C17.9985 15.3989 18.9546 16.5734 20.2485 16.9065L20.2485 22.2512C20.2485 22.6654 20.5843 23.0012 20.9985 23.0012C21.4127 23.0012 21.7485 22.6654 21.7485 22.2512ZM22.4985 14.001C22.4985 14.8294 21.827 15.501 20.9985 15.501C20.1701 15.501 19.4985 14.8294 19.4985 14.001C19.4985 13.1725 20.1701 12.501 20.9985 12.501C21.827 12.501 22.4985 13.1725 22.4985 14.001Z" fill="black"/>
</svg>
