<svg width="48" height="32" viewBox="0 0 48 32" fill="none" xmlns="http://www.w3.org/2000/svg">
<path fill-rule="evenodd" clip-rule="evenodd" d="M28 11.5L28 20.5C28 21.3284 27.3284 22 26.5 22L21.5 22C20.6716 22 20 21.3284 20 20.5L20 11.5C20 10.6716 20.6716 10 21.5 10L26.5 10C27.3284 10 28 10.6716 28 11.5ZM26.5 8.5C28.1569 8.5 29.5 9.84315 29.5 11.5L29.5 20.5C29.5 22.1569 28.1569 23.5 26.5 23.5L21.5 23.5C19.8431 23.5 18.5 22.1569 18.5 20.5L18.5 11.5C18.5 9.84315 19.8431 8.5 21.5 8.5L26.5 8.5ZM22.25 19C21.8358 19 21.5 19.3358 21.5 19.75C21.5 20.1642 21.8358 20.5 22.25 20.5L25.75 20.5C26.1642 20.5 26.5 20.1642 26.5 19.75C26.5 19.3358 26.1642 19 25.75 19L22.25 19Z" fill="black"/>
</svg>
