<svg width="48" height="32" viewBox="0 0 48 32" fill="none" xmlns="http://www.w3.org/2000/svg">
<path fill-rule="evenodd" clip-rule="evenodd" d="M21.719 9.21906C22.0119 8.92617 22.4868 8.92617 22.7797 9.21906L24 10.4393L25.2202 9.21906C25.5131 8.92617 25.988 8.92617 26.2809 9.21906C26.5738 9.51195 26.5738 9.98683 26.2809 10.2797L24.75 11.8107L24.75 14.7L27.2522 13.2553L27.8126 11.164C27.9198 10.7639 28.331 10.5265 28.7311 10.6337C29.1312 10.7409 29.3687 11.1522 29.2615 11.5523L28.8148 13.2192L30.4817 13.6658C30.8818 13.7731 31.1193 14.1843 31.0121 14.5844C30.9049 14.9845 30.4936 15.2219 30.0935 15.1147L28.0022 14.5544L25.5 15.999L28.0022 17.4437L30.0935 16.8833C30.4936 16.7761 30.9049 17.0136 31.0121 17.4137C31.1193 17.8138 30.8819 18.225 30.4818 18.3322L28.8148 18.7789L29.2615 20.4458C29.3687 20.8459 29.1313 21.2572 28.7312 21.3644C28.3311 21.4716 27.9198 21.2341 27.8126 20.834L27.2522 18.7427L24.75 17.2981L24.75 20.1893L26.2791 21.7184C26.5719 22.0113 26.5719 22.4862 26.2791 22.7791C25.9862 23.072 25.5113 23.072 25.2184 22.7791L24 21.5607L22.7816 22.7791C22.4887 23.072 22.0138 23.072 21.7209 22.7791C21.428 22.4862 21.428 22.0113 21.7209 21.7184L23.25 20.1893L23.25 17.2981L20.7461 18.7437L20.1864 20.8325C20.0792 21.2326 19.6679 21.47 19.2678 21.3628C18.8677 21.2556 18.6303 20.8443 18.7375 20.4442L19.1835 18.7799L17.5191 18.3339C17.119 18.2267 16.8815 17.8154 16.9888 17.4153C17.096 17.0152 17.5072 16.7778 17.9073 16.885L19.9961 17.4447L22.5 15.999L19.9961 14.5534L17.9073 15.1131C17.5072 15.2203 17.096 14.9829 16.9888 14.5828C16.8816 14.1827 17.119 13.7714 17.5191 13.6642L19.1835 13.2182L18.7375 11.5538C18.6303 11.1537 18.8677 10.7425 19.2678 10.6353C19.6679 10.5281 20.0792 10.7655 20.1864 11.1656L20.7461 13.2544L23.25 14.7L23.25 11.8107L21.719 10.2797C21.4261 9.98683 21.4261 9.51195 21.719 9.21906Z" fill="black"/>
</svg>
