<svg width="48" height="32" viewBox="0 0 48 32" fill="none" xmlns="http://www.w3.org/2000/svg">
<path fill-rule="evenodd" clip-rule="evenodd" d="M29.5 16C29.5 19.0376 27.0376 21.5 24 21.5C20.9624 21.5 18.5 19.0376 18.5 16C18.5 12.9624 20.9624 10.5 24 10.5C27.0376 10.5 29.5 12.9624 29.5 16ZM31 16C31 19.866 27.866 23 24 23C20.134 23 17 19.866 17 16C17 12.134 20.134 9 24 9C27.866 9 31 12.134 31 16ZM24 12C23.5858 12 23.25 12.3358 23.25 12.75C23.25 13.1642 23.5858 13.5 24 13.5C25.3807 13.5 26.5 14.6193 26.5 16C26.5 16.4142 26.8357 16.75 27.25 16.75C27.6642 16.75 28 16.4142 28 16C28 13.7909 26.2091 12 24 12Z" fill="black"/>
</svg>
