<svg width="48" height="32" viewBox="0 0 48 32" fill="none" xmlns="http://www.w3.org/2000/svg">
<path fill-rule="evenodd" clip-rule="evenodd" d="M20.5 11H27.5C28.3284 11 29 11.6716 29 12.5V19.5C29 20.3284 28.3284 21 27.5 21H20.5C19.6716 21 19 20.3284 19 19.5V12.5C19 11.6716 19.6716 11 20.5 11ZM17.5 12.5C17.5 10.8431 18.8431 9.5 20.5 9.5H27.5C29.1569 9.5 30.5 10.8431 30.5 12.5V19.5C30.5 21.1569 29.1569 22.5 27.5 22.5H20.5C18.8431 22.5 17.5 21.1569 17.5 19.5V12.5ZM25.999 18.751C25.999 19.1652 26.3348 19.501 26.749 19.501C27.1632 19.501 27.499 19.1652 27.499 18.751V16.7491C27.499 16.3349 27.1632 15.9991 26.749 15.9991C26.3348 15.9991 25.999 16.3349 25.999 16.7491V18.751ZM24.001 19.501C23.5868 19.501 23.251 19.1652 23.251 18.751L23.251 13.2491C23.251 12.8349 23.5868 12.4991 24.001 12.4991C24.4152 12.4991 24.751 12.8349 24.751 13.2491L24.751 18.751C24.751 19.1652 24.4152 19.501 24.001 19.501ZM20.5029 18.751C20.5029 19.1652 20.8387 19.501 21.2529 19.501C21.6671 19.501 22.0029 19.1652 22.0029 18.751V15.2491C22.0029 14.8349 21.6671 14.4991 21.2529 14.4991C20.8387 14.4991 20.5029 14.8349 20.5029 15.2491L20.5029 18.751Z" fill="black"/>
</svg>
