<svg width="48" height="32" viewBox="0 0 48 32" fill="none" xmlns="http://www.w3.org/2000/svg">
<path fill-rule="evenodd" clip-rule="evenodd" d="M20.5 11H27.5C28.3284 11 29 11.6716 29 12.5V19.5C29 20.3284 28.3284 21 27.5 21H20.5C19.6716 21 19 20.3284 19 19.5V12.5C19 11.6716 19.6716 11 20.5 11ZM17.5 12.5C17.5 10.8431 18.8431 9.5 20.5 9.5H27.5C29.1569 9.5 30.5 10.8431 30.5 12.5V19.5C30.5 21.1569 29.1569 22.5 27.5 22.5H20.5C18.8431 22.5 17.5 21.1569 17.5 19.5V12.5ZM25.9992 18.751C25.9992 19.1652 26.3349 19.501 26.7492 19.501C27.1634 19.501 27.4992 19.1652 27.4992 18.751V13.2491C27.4992 12.8349 27.1634 12.4991 26.7492 12.4991C26.3349 12.4991 25.9992 12.8349 25.9992 13.2491V18.751ZM24.0009 19.501C23.5867 19.501 23.2509 19.1652 23.2509 18.751L23.2509 13.2491C23.2509 12.8349 23.5867 12.4991 24.0009 12.4991C24.4151 12.4991 24.7509 12.8349 24.7509 13.2491L24.7509 18.751C24.7509 19.1652 24.4151 19.501 24.0009 19.501ZM20.5028 18.751C20.5028 19.1652 20.8386 19.501 21.2528 19.501C21.667 19.501 22.0028 19.1652 22.0028 18.751V13.2491C22.0028 12.8349 21.667 12.4991 21.2528 12.4991C20.8386 12.4991 20.5028 12.8349 20.5028 13.2491L20.5028 18.751Z" fill="black"/>
</svg>
