<svg width="48" height="32" viewBox="0 0 48 32" fill="none" xmlns="http://www.w3.org/2000/svg">
<path fill-rule="evenodd" clip-rule="evenodd" d="M24.25 9.5C24.6642 9.5 25 9.83579 25 10.25C25 10.6642 24.6642 11 24.25 11H20.5C19.6716 11 19 11.6716 19 12.5V19.5C19 20.3284 19.6716 21 20.5 21H27.5C28.3284 21 29 20.3284 29 19.5V15.75C29 15.3358 29.3358 15 29.75 15C30.1642 15 30.5 15.3358 30.5 15.75V19.5C30.5 21.1569 29.1569 22.5 27.5 22.5H20.5C18.8431 22.5 17.5 21.1569 17.5 19.5V12.5C17.5 10.8431 18.8431 9.5 20.5 9.5H24.25ZM28.5 13.5C29.6046 13.5 30.5 12.6046 30.5 11.5C30.5 10.3954 29.6046 9.5 28.5 9.5C27.3954 9.5 26.5 10.3954 26.5 11.5C26.5 12.6046 27.3954 13.5 28.5 13.5Z" fill="black"/>
</svg>
