<svg width="48" height="32" viewBox="0 0 48 32" fill="none" xmlns="http://www.w3.org/2000/svg">
<path fill-rule="evenodd" clip-rule="evenodd" d="M19.75 9C18.5074 9 17.5 10.0074 17.5 11.25V20.75C17.5 21.9926 18.5074 23 19.75 23H20.25C20.6642 23 21 22.6642 21 22.25C21 21.8358 20.6642 21.5 20.25 21.5H19.75C19.3358 21.5 19 21.1642 19 20.75V11.25C19 10.8358 19.3358 10.5 19.75 10.5H20.25C20.6642 10.5 21 10.1642 21 9.75C21 9.33579 20.6642 9 20.25 9H19.75ZM28.25 23C29.4926 23 30.5 21.9926 30.5 20.75V11.25C30.5 10.0074 29.4926 9 28.25 9H27.75C27.3358 9 27 9.33579 27 9.75C27 10.1642 27.3358 10.5 27.75 10.5H28.25C28.6642 10.5 29 10.8358 29 11.25V20.75C29 21.1642 28.6642 21.5 28.25 21.5H27.75C27.3358 21.5 27 21.8358 27 22.25C27 22.6642 27.3358 23 27.75 23H28.25Z" fill="black"/>
</svg>
