<svg width="48" height="32" viewBox="0 0 48 32" fill="none" xmlns="http://www.w3.org/2000/svg">
<path fill-rule="evenodd" clip-rule="evenodd" d="M18.5 12.25C18.5 11.8358 18.8358 11.5 19.25 11.5H20.2609C20.6751 11.5 21.0109 11.1642 21.0109 10.75C21.0109 10.3358 20.6751 10 20.2609 10H19.25C18.0074 10 17 11.0074 17 12.25V19.75C17 20.9926 18.0074 22 19.25 22H20.2609C20.6751 22 21.0109 21.6642 21.0109 21.25C21.0109 20.8358 20.6751 20.5 20.2609 20.5H19.25C18.8358 20.5 18.5 20.1642 18.5 19.75V12.25ZM27.7391 10C27.3249 10 26.9891 10.3358 26.9891 10.75C26.9891 11.1642 27.3249 11.5 27.7391 11.5H28.75C29.1642 11.5 29.5 11.8358 29.5 12.25V19.75C29.5 20.1642 29.1642 20.5 28.75 20.5H27.7391C27.3249 20.5 26.9891 20.8358 26.9891 21.25C26.9891 21.6642 27.3249 22 27.7391 22H28.75C29.9926 22 31 20.9926 31 19.75V12.25C31 11.0074 29.9926 10 28.75 10H27.7391ZM24.75 13.75C24.75 13.3358 24.4142 13 24 13C23.5858 13 23.25 13.3358 23.25 13.75V18.25C23.25 18.6642 23.5858 19 24 19C24.4142 19 24.75 18.6642 24.75 18.25V13.75ZM26.75 13C27.1642 13 27.5 13.3358 27.5 13.75V18.25C27.5 18.6642 27.1642 19 26.75 19C26.3358 19 26 18.6642 26 18.25V13.75C26 13.3358 26.3358 13 26.75 13ZM22 13.75C22 13.3358 21.6642 13 21.25 13C20.8358 13 20.5 13.3358 20.5 13.75L20.5 18.25C20.5 18.6642 20.8358 19 21.25 19C21.6642 19 22 18.6642 22 18.25V13.75Z" fill="black"/>
</svg>
