<svg width="48" height="32" viewBox="0 0 48 32" fill="none" xmlns="http://www.w3.org/2000/svg">
<path fill-rule="evenodd" clip-rule="evenodd" d="M20.5 11H27.5C28.3284 11 29 11.6716 29 12.5V19.5C29 20.3284 28.3284 21 27.5 21H20.5C19.6716 21 19 20.3284 19 19.5V12.5C19 11.6716 19.6716 11 20.5 11ZM17.5 12.5C17.5 10.8431 18.8431 9.5 20.5 9.5H27.5C29.1569 9.5 30.5 10.8431 30.5 12.5V19.5C30.5 21.1569 29.1569 22.5 27.5 22.5H20.5C18.8431 22.5 17.5 21.1569 17.5 19.5V12.5ZM27.592 13.9605C27.8463 13.6335 27.7874 13.1623 27.4605 12.908C27.1335 12.6537 26.6623 12.7126 26.408 13.0395L23.4296 16.8689L22.0303 15.4697C21.7374 15.1768 21.2626 15.1768 20.9697 15.4697C20.6768 15.7626 20.6768 16.2374 20.9697 16.5303L22.9697 18.5303C23.1218 18.6824 23.3319 18.7619 23.5466 18.7486C23.7613 18.7352 23.9599 18.6303 24.092 18.4605L27.592 13.9605Z" fill="black"/>
</svg>
