<svg width="48" height="32" viewBox="0 0 48 32" fill="none" xmlns="http://www.w3.org/2000/svg">
<path fill-rule="evenodd" clip-rule="evenodd" d="M27.5 11H20.5C19.6716 11 19 11.6716 19 12.5V19.5C19 20.3284 19.6716 21 20.5 21H27.5C28.3284 21 29 20.3284 29 19.5V12.5C29 11.6716 28.3284 11 27.5 11ZM20.5 9.5C18.8431 9.5 17.5 10.8431 17.5 12.5V19.5C17.5 21.1569 18.8431 22.5 20.5 22.5H27.5C29.1569 22.5 30.5 21.1569 30.5 19.5V12.5C30.5 10.8431 29.1569 9.5 27.5 9.5H20.5ZM26.5 15.5H21.4301C20.8778 15.5 20.4301 15.9477 20.4301 16.5V18.5C20.4301 19.0523 20.8778 19.5 21.4301 19.5H26.5C27.0523 19.5 27.5 19.0523 27.5 18.5V16.5C27.5 15.9477 27.0523 15.5 26.5 15.5ZM21.1801 12.5H24.75C25.1642 12.5 25.5 12.8358 25.5 13.25C25.5 13.6642 25.1642 14 24.75 14H21.1801C20.7658 14 20.4301 13.6642 20.4301 13.25C20.4301 12.8358 20.7658 12.5 21.1801 12.5Z" fill="black"/>
</svg>
