<svg width="48" height="32" viewBox="0 0 48 32" fill="none" xmlns="http://www.w3.org/2000/svg">
<path fill-rule="evenodd" clip-rule="evenodd" d="M19 12.5C19 11.6716 19.6716 11 20.5 11H22.25C22.6642 11 23 10.6642 23 10.25C23 9.83579 22.6642 9.5 22.25 9.5H20.5C18.8431 9.5 17.5 10.8431 17.5 12.5V14.25C17.5 14.6642 17.8358 15 18.25 15C18.6642 15 19 14.6642 19 14.25V12.5ZM25.75 9.5C25.3358 9.5 25 9.83579 25 10.25C25 10.6642 25.3358 11 25.75 11H27.5C28.3284 11 29 11.6716 29 12.5V14.25C29 14.6642 29.3358 15 29.75 15C30.1642 15 30.5 14.6642 30.5 14.25V12.5C30.5 10.8431 29.1569 9.5 27.5 9.5H25.75ZM19 17.75C19 17.3358 18.6642 17 18.25 17C17.8358 17 17.5 17.3358 17.5 17.75V19.5C17.5 21.1569 18.8431 22.5 20.5 22.5H22.25C22.6642 22.5 23 22.1642 23 21.75C23 21.3358 22.6642 21 22.25 21H20.5C19.6716 21 19 20.3284 19 19.5V17.75ZM30.5 17.75C30.5 17.3358 30.1642 17 29.75 17C29.3358 17 29 17.3358 29 17.75V19.5C29 20.3284 28.3284 21 27.5 21H25.75C25.3358 21 25 21.3358 25 21.75C25 22.1642 25.3358 22.5 25.75 22.5H27.5C29.1569 22.5 30.5 21.1569 30.5 19.5V17.75ZM26 16C26 17.1046 25.1046 18 24 18C22.8954 18 22 17.1046 22 16C22 14.8954 22.8954 14 24 14C25.1046 14 26 14.8954 26 16ZM27.5 16C27.5 17.933 25.933 19.5 24 19.5C22.067 19.5 20.5 17.933 20.5 16C20.5 14.067 22.067 12.5 24 12.5C25.933 12.5 27.5 14.067 27.5 16Z" fill="black"/>
</svg>
