<svg width="48" height="32" viewBox="0 0 48 32" fill="none" xmlns="http://www.w3.org/2000/svg">
<path fill-rule="evenodd" clip-rule="evenodd" d="M27.5 11H20.5C19.6716 11 19 11.6716 19 12.5V19.5C19 20.3284 19.6716 21 20.5 21H27.5C28.3284 21 29 20.3284 29 19.5V12.5C29 11.6716 28.3284 11 27.5 11ZM20.5 9.5C18.8431 9.5 17.5 10.8431 17.5 12.5V19.5C17.5 21.1569 18.8431 22.5 20.5 22.5H27.5C29.1569 22.5 30.5 21.1569 30.5 19.5V12.5C30.5 10.8431 29.1569 9.5 27.5 9.5H20.5ZM26.1233 12.2602C26.5319 12.3283 26.8079 12.7147 26.7398 13.1233L26.6353 13.75H27.5C27.9142 13.75 28.25 14.0858 28.25 14.5C28.25 14.9142 27.9142 15.25 27.5 15.25H26.3853L26.1353 16.75H27C27.4142 16.75 27.75 17.0858 27.75 17.5C27.75 17.9142 27.4142 18.25 27 18.25H25.8853L25.7398 19.1233C25.6717 19.5319 25.2853 19.8079 24.8767 19.7398C24.4681 19.6717 24.1921 19.2853 24.2602 18.8767L24.3647 18.25H22.8853L22.7398 19.1233C22.6717 19.5319 22.2853 19.8079 21.8767 19.7398C21.4681 19.6717 21.1921 19.2853 21.2602 18.8767L21.3647 18.25H20.5C20.0858 18.25 19.75 17.9142 19.75 17.5C19.75 17.0858 20.0858 16.75 20.5 16.75H21.6147L21.8647 15.25H21C20.5858 15.25 20.25 14.9142 20.25 14.5C20.25 14.0858 20.5858 13.75 21 13.75H22.1147L22.2602 12.8767C22.3283 12.4681 22.7147 12.1921 23.1233 12.2602C23.5319 12.3283 23.8079 12.7147 23.7398 13.1233L23.6353 13.75H25.1147L25.2602 12.8767C25.3283 12.4681 25.7147 12.1921 26.1233 12.2602ZM23.1353 16.75H24.6147L24.8647 15.25H23.3853L23.1353 16.75Z" fill="black"/>
</svg>
