<svg width="48" height="32" viewBox="0 0 48 32" fill="none" xmlns="http://www.w3.org/2000/svg">
<path fill-rule="evenodd" clip-rule="evenodd" d="M20.5 11H27.5C28.3284 11 29 11.6716 29 12.5V19.5C29 20.3284 28.3284 21 27.5 21H20.5C19.6716 21 19 20.3284 19 19.5V12.5C19 11.6716 19.6716 11 20.5 11ZM17.5 12.5C17.5 10.8431 18.8431 9.5 20.5 9.5H27.5C29.1569 9.5 30.5 10.8431 30.5 12.5V19.5C30.5 21.1569 29.1569 22.5 27.5 22.5H20.5C18.8431 22.5 17.5 21.1569 17.5 19.5V12.5ZM21.25 17.9982C20.8358 17.9982 20.5 18.334 20.5 18.7482C20.5 19.1624 20.8358 19.4982 21.25 19.4982H23.2519C23.6661 19.4982 24.0019 19.1624 24.0019 18.7482C24.0019 18.334 23.6661 17.9982 23.2519 17.9982H21.25ZM20.5 16C20.5 15.5858 20.8358 15.25 21.25 15.25H26.7519C27.1661 15.25 27.5019 15.5858 27.5019 16C27.5019 16.4142 27.1661 16.75 26.7519 16.75H21.25C20.8358 16.75 20.5 16.4142 20.5 16ZM21.25 12.5018C20.8358 12.5018 20.5 12.8376 20.5 13.2518C20.5 13.666 20.8358 14.0018 21.25 14.0018H24.7519C25.1661 14.0018 25.5019 13.666 25.5019 13.2518C25.5019 12.8376 25.1661 12.5018 24.7519 12.5018H21.25Z" fill="black"/>
</svg>
