<svg width="48" height="32" viewBox="0 0 48 32" fill="none" xmlns="http://www.w3.org/2000/svg">
<path fill-rule="evenodd" clip-rule="evenodd" d="M27.5 11H20.5C19.6716 11 19 11.6716 19 12.5V19.5C19 20.3284 19.6716 21 20.5 21H27.5C28.3284 21 29 20.3284 29 19.5V12.5C29 11.6716 28.3284 11 27.5 11ZM20.5 9.5C18.8431 9.5 17.5 10.8431 17.5 12.5V19.5C17.5 21.1569 18.8431 22.5 20.5 22.5H27.5C29.1569 22.5 30.5 21.1569 30.5 19.5V12.5C30.5 10.8431 29.1569 9.5 27.5 9.5H20.5ZM25 18.5C25 19.0523 24.5523 19.5 24 19.5C23.4477 19.5 23 19.0523 23 18.5C23 17.9477 23.4477 17.5 24 17.5C24.5523 17.5 25 17.9477 25 18.5ZM24.75 13C24.75 12.5858 24.4142 12.25 24 12.25C23.5858 12.25 23.25 12.5858 23.25 13V15.5C23.25 15.9142 23.5858 16.25 24 16.25C24.4142 16.25 24.75 15.9142 24.75 15.5V13Z" fill="black"/>
</svg>
