<svg width="48" height="32" viewBox="0 0 48 32" fill="none" xmlns="http://www.w3.org/2000/svg">
<path fill-rule="evenodd" clip-rule="evenodd" d="M20.5 11H27.5C28.3284 11 29 11.6716 29 12.5V19.5C29 20.3284 28.3284 21 27.5 21H20.5C19.6716 21 19 20.3284 19 19.5V12.5C19 11.6716 19.6716 11 20.5 11ZM17.5 12.5C17.5 10.8431 18.8431 9.5 20.5 9.5H27.5C29.1569 9.5 30.5 10.8431 30.5 12.5V19.5C30.5 21.1569 29.1569 22.5 27.5 22.5H20.5C18.8431 22.5 17.5 21.1569 17.5 19.5V12.5ZM22.5303 13.4697C22.2374 13.1768 21.7626 13.1768 21.4697 13.4697C21.1768 13.7626 21.1768 14.2374 21.4697 14.5303L22.9393 16L21.4697 17.4697C21.1768 17.7626 21.1768 18.2374 21.4697 18.5303C21.7626 18.8232 22.2374 18.8232 22.5303 18.5303L24 17.0607L25.4697 18.5303C25.7626 18.8232 26.2374 18.8232 26.5303 18.5303C26.8232 18.2374 26.8232 17.7626 26.5303 17.4697L25.0607 16L26.5303 14.5303C26.8232 14.2374 26.8232 13.7626 26.5303 13.4697C26.2374 13.1768 25.7626 13.1768 25.4697 13.4697L24 14.9393L22.5303 13.4697Z" fill="black"/>
</svg>
