<svg width="48" height="32" viewBox="0 0 48 32" fill="none" xmlns="http://www.w3.org/2000/svg">
<path fill-rule="evenodd" clip-rule="evenodd" d="M19.25 11.5C18.8358 11.5 18.5 11.8358 18.5 12.25V19.75C18.5 20.1642 18.8358 20.5 19.25 20.5H20.2609C20.6751 20.5 21.0109 20.8358 21.0109 21.25C21.0109 21.6642 20.6751 22 20.2609 22H19.25C18.0074 22 17 20.9926 17 19.75V12.25C17 11.0074 18.0074 10 19.25 10H20.2609C20.6751 10 21.0109 10.3358 21.0109 10.75C21.0109 11.1642 20.6751 11.5 20.2609 11.5H19.25ZM26.9891 10.75C26.9891 10.3358 27.3249 10 27.7391 10H28.75C29.9926 10 31 11.0074 31 12.25V19.75C31 20.9926 29.9926 22 28.75 22H27.7391C27.3249 22 26.9891 21.6642 26.9891 21.25C26.9891 20.8358 27.3249 20.5 27.7391 20.5H28.75C29.1642 20.5 29.5 20.1642 29.5 19.75V12.25C29.5 11.8358 29.1642 11.5 28.75 11.5H27.7391C27.3249 11.5 26.9891 11.1642 26.9891 10.75ZM22.7911 13.3378C22.9801 12.8338 23.4618 12.5 24 12.5C24.5382 12.5 25.0199 12.8339 25.2089 13.3378L26.9522 17.9867C27.0977 18.3745 26.9012 18.8068 26.5133 18.9522C26.1255 19.0977 25.6932 18.9012 25.5478 18.5133L25.1678 17.5L22.8323 17.5L22.4522 18.5133C22.3068 18.9012 21.8745 19.0977 21.4867 18.9522C21.0988 18.8068 20.9023 18.3745 21.0478 17.9867L22.7911 13.3378ZM23.3948 16L24.6053 16L24 14.386L23.3948 16Z" fill="black"/>
</svg>
