<svg width="48" height="32" viewBox="0 0 48 32" fill="none" xmlns="http://www.w3.org/2000/svg">
<path fill-rule="evenodd" clip-rule="evenodd" d="M20.5 11H27.5C28.3284 11 29 11.6716 29 12.5V19.5C29 20.3284 28.3284 21 27.5 21H20.5C19.6716 21 19 20.3284 19 19.5V12.5C19 11.6716 19.6716 11 20.5 11ZM17.5 12.5C17.5 10.8431 18.8431 9.5 20.5 9.5H27.5C29.1569 9.5 30.5 10.8431 30.5 12.5V19.5C30.5 21.1569 29.1569 22.5 27.5 22.5H20.5C18.8431 22.5 17.5 21.1569 17.5 19.5V12.5ZM22 12.75C21.5858 12.75 21.25 13.0858 21.25 13.5C21.25 13.9142 21.5858 14.25 22 14.25H23.25V18.5C23.25 18.9142 23.5858 19.25 24 19.25C24.4142 19.25 24.75 18.9142 24.75 18.5V14.25H26C26.4142 14.25 26.75 13.9142 26.75 13.5C26.75 13.0858 26.4142 12.75 26 12.75H24H22Z" fill="black"/>
</svg>
