<svg width="48" height="32" viewBox="0 0 48 32" fill="none" xmlns="http://www.w3.org/2000/svg">
<path fill-rule="evenodd" clip-rule="evenodd" d="M20.5 11H27.5C28.3284 11 29 11.6716 29 12.5V19.5C29 20.3284 28.3284 21 27.5 21H20.5C19.6716 21 19 20.3284 19 19.5V12.5C19 11.6716 19.6716 11 20.5 11ZM17.5 12.5C17.5 10.8431 18.8431 9.5 20.5 9.5H27.5C29.1569 9.5 30.5 10.8431 30.5 12.5V19.5C30.5 21.1569 29.1569 22.5 27.5 22.5H20.5C18.8431 22.5 17.5 21.1569 17.5 19.5V12.5ZM22.25 13.25C22.25 13.8023 21.8023 14.25 21.25 14.25C20.6977 14.25 20.25 13.8023 20.25 13.25C20.25 12.6977 20.6977 12.25 21.25 12.25C21.8023 12.25 22.25 12.6977 22.25 13.25ZM23.25 13.25C23.25 12.8358 23.5858 12.5 24 12.5H26.75C27.1642 12.5 27.5 12.8358 27.5 13.25C27.5 13.6642 27.1642 14 26.75 14H24C23.5858 14 23.25 13.6642 23.25 13.25ZM21.25 17C21.8023 17 22.25 16.5523 22.25 16C22.25 15.4477 21.8023 15 21.25 15C20.6977 15 20.25 15.4477 20.25 16C20.25 16.5523 20.6977 17 21.25 17ZM22.25 18.75C22.25 19.3023 21.8023 19.75 21.25 19.75C20.6977 19.75 20.25 19.3023 20.25 18.75C20.25 18.1977 20.6977 17.75 21.25 17.75C21.8023 17.75 22.25 18.1977 22.25 18.75ZM24 15.25C23.5858 15.25 23.25 15.5858 23.25 16C23.25 16.4142 23.5858 16.75 24 16.75H26.75C27.1642 16.75 27.5 16.4142 27.5 16C27.5 15.5858 27.1642 15.25 26.75 15.25H24ZM23.25 18.75C23.25 18.3358 23.5858 18 24 18H26.75C27.1642 18 27.5 18.3358 27.5 18.75C27.5 19.1642 27.1642 19.5 26.75 19.5H24C23.5858 19.5 23.25 19.1642 23.25 18.75Z" fill="black"/>
</svg>
