<svg width="48" height="32" viewBox="0 0 48 32" fill="none" xmlns="http://www.w3.org/2000/svg">
<path fill-rule="evenodd" clip-rule="evenodd" d="M20.5 11C19.6716 11 19 11.6716 19 12.5V14.25C19 14.6642 18.6642 15 18.25 15C17.8358 15 17.5 14.6642 17.5 14.25V12.5C17.5 10.8431 18.8431 9.5 20.5 9.5H22.25C22.6642 9.5 23 9.83579 23 10.25C23 10.6642 22.6642 11 22.25 11H20.5ZM25 10.25C25 9.83579 25.3358 9.5 25.75 9.5H27.5C29.1569 9.5 30.5 10.8431 30.5 12.5V14.25C30.5 14.6642 30.1642 15 29.75 15C29.3358 15 29 14.6642 29 14.25V12.5C29 11.6716 28.3284 11 27.5 11H25.75C25.3358 11 25 10.6642 25 10.25ZM18.25 17C18.6642 17 19 17.3358 19 17.75V19.5C19 20.3284 19.6716 21 20.5 21H22.25C22.6642 21 23 21.3358 23 21.75C23 22.1642 22.6642 22.5 22.25 22.5H20.5C18.8431 22.5 17.5 21.1569 17.5 19.5V17.75C17.5 17.3358 17.8358 17 18.25 17ZM29.75 17C30.1642 17 30.5 17.3358 30.5 17.75V19.5C30.5 21.1569 29.1569 22.5 27.5 22.5H25.75C25.3358 22.5 25 22.1642 25 21.75C25 21.3358 25.3358 21 25.75 21H27.5C28.3284 21 29 20.3284 29 19.5V17.75C29 17.3358 29.3358 17 29.75 17ZM22.7911 13.3378C22.9801 12.8338 23.4618 12.5 24 12.5C24.5382 12.5 25.0199 12.8339 25.2089 13.3378L26.9522 17.9867C27.0977 18.3745 26.9012 18.8068 26.5133 18.9522C26.1255 19.0977 25.6932 18.9012 25.5478 18.5133L25.1677 17.5H22.8323L22.4522 18.5133C22.3068 18.9012 21.8745 19.0977 21.4867 18.9522C21.0988 18.8068 20.9023 18.3745 21.0478 17.9867L22.7911 13.3378ZM23.3948 16L24.6053 16L24 14.386L23.3948 16Z" fill="black"/>
</svg>
