<svg width="48" height="56" viewBox="0 0 48 56" fill="none" xmlns="http://www.w3.org/2000/svg">
<path fill-rule="evenodd" clip-rule="evenodd" d="M25.1943 12.9993L25.5452 13.8732L26.4848 13.9369L29.6823 14.1537L27.2229 16.2086L26.5002 16.8124L26.73 17.7256L27.5118 20.8337L24.7975 19.1296L24 18.6289L23.2024 19.1296L20.4881 20.8337L21.27 17.7256L21.4998 16.8124L20.7771 16.2086L18.3177 14.1537L21.5152 13.9369L22.4548 13.8732L22.8057 12.9993L24 10.0253L25.1943 12.9993ZM17.4708 12.7077L21.4137 12.4403L22.8864 8.77302C23.2895 7.76926 24.7105 7.76926 25.1135 8.77303L26.5862 12.4403L30.5291 12.7077C31.6083 12.7809 32.0474 14.1323 31.2174 14.8258L28.1846 17.3597L29.1488 21.1922C29.4127 22.2412 28.2631 23.0764 27.347 22.5013L24 20.4L20.653 22.5013C19.7369 23.0764 18.5873 22.2412 18.8512 21.1922L19.8153 17.3597L16.7826 14.8258C15.9525 14.1323 16.3916 12.7809 17.4708 12.7077Z" fill="black"/>
<path d="M22.8864 32.773C23.2895 31.7693 24.7105 31.7693 25.1135 32.773L26.5862 36.4403L30.5291 36.7077C31.6083 36.7809 32.0474 38.1323 31.2174 38.8258L28.1846 41.3597L29.1488 45.1922C29.4127 46.2412 28.2631 47.0764 27.347 46.5013L24 44.4L20.653 46.5013C19.7369 47.0764 18.5873 46.2412 18.8512 45.1922L19.8153 41.3597L16.7826 38.8258C15.9525 38.1323 16.3916 36.7809 17.4708 36.7077L21.4137 36.4403L22.8864 32.773Z" fill="black"/>
</svg>
