<svg width="48" height="32" viewBox="0 0 48 32" fill="none" xmlns="http://www.w3.org/2000/svg">
<path fill-rule="evenodd" clip-rule="evenodd" d="M19.5133 10.452C19.9012 10.3066 20.0977 9.87429 19.9522 9.48645C19.8068 9.09861 19.3745 8.9021 18.9867 9.04754L17.96 9.43255C17.0818 9.76187 16.5 10.6014 16.5 11.5393V14.0003C16.5 16.4628 18.3739 18.4877 20.7736 18.7267C21.0127 21.1262 23.0375 23.0001 25.5 23.0001C28.1234 23.0001 30.25 20.8734 30.25 18.2501V17.8855C31.2643 17.567 32 16.6194 32 15.5C32 14.1193 30.8807 13 29.5 13C28.1193 13 27 14.1193 27 15.5C27 16.6194 27.7357 17.567 28.75 17.8855V18.2501C28.75 20.045 27.2949 21.5001 25.5 21.5001C23.837 21.5001 22.4657 20.251 22.2731 18.6398C24.4047 18.1719 26 16.2724 26 14.0003V11.5393C26 10.6014 25.4182 9.76187 24.54 9.43255L23.5133 9.04754C23.1255 8.9021 22.6932 9.09861 22.5478 9.48645C22.4023 9.87429 22.5988 10.3066 22.9867 10.452L24.0133 10.837C24.3061 10.9468 24.5 11.2267 24.5 11.5393V14.0003C24.5 15.7952 23.0449 17.2503 21.25 17.2503C19.4551 17.2503 18 15.7952 18 14.0003V11.5393C18 11.2267 18.1939 10.9468 18.4867 10.837L19.5133 10.452ZM29.5 16.5C30.0523 16.5 30.5 16.0523 30.5 15.5C30.5 14.9477 30.0523 14.5 29.5 14.5C28.9477 14.5 28.5 14.9477 28.5 15.5C28.5 16.0523 28.9477 16.5 29.5 16.5Z" fill="black"/>
</svg>
