<svg width="48" height="32" viewBox="0 0 48 32" fill="none" xmlns="http://www.w3.org/2000/svg">
<path fill-rule="evenodd" clip-rule="evenodd" d="M27.5 11L20.5 11C19.6716 11 19 11.6716 19 12.5L19 19.5C19 20.3284 19.6716 21 20.5 21L23.5 21V18.5C23.5 16.8431 24.8431 15.5 26.5 15.5H29V12.5C29 11.6716 28.3284 11 27.5 11ZM28.8033 17C28.7375 17.1154 28.6562 17.2225 28.5607 17.318L25.318 20.5607C25.2225 20.6562 25.1154 20.7375 25 20.8033V18.5C25 17.6716 25.6716 17 26.5 17H28.8033ZM29.6213 18.3787C30.1839 17.8161 30.5 17.053 30.5 16.2574V12.5C30.5 10.8431 29.1569 9.5 27.5 9.5L20.5 9.5C18.8431 9.5 17.5 10.8431 17.5 12.5V19.5C17.5 21.1569 18.8431 22.5 20.5 22.5H24.2574C25.053 22.5 25.8161 22.1839 26.3787 21.6213L29.6213 18.3787Z" fill="black"/>
</svg>
