<svg width="48" height="32" viewBox="0 0 48 32" fill="none" xmlns="http://www.w3.org/2000/svg">
<path fill-rule="evenodd" clip-rule="evenodd" d="M22.25 8C21.8358 8 21.5 8.33579 21.5 8.75C21.5 9.16421 21.8358 9.5 22.25 9.5H25.75C26.1642 9.5 26.5 9.16421 26.5 8.75C26.5 8.33579 26.1642 8 25.75 8H22.25ZM29 17C29 19.7614 26.7614 22 24 22C21.2386 22 19 19.7614 19 17C19 14.2386 21.2386 12 24 12C26.7614 12 29 14.2386 29 17ZM30.5 17C30.5 20.5899 27.5899 23.5 24 23.5C20.4101 23.5 17.5 20.5899 17.5 17C17.5 13.4101 20.4101 10.5 24 10.5C27.5899 10.5 30.5 13.4101 30.5 17ZM28.2197 9.71967C28.5126 9.42678 28.9874 9.42678 29.2803 9.71967L30.7803 11.2197C31.0732 11.5126 31.0732 11.9874 30.7803 12.2803C30.4874 12.5732 30.0126 12.5732 29.7197 12.2803L28.2197 10.7803C27.9268 10.4874 27.9268 10.0126 28.2197 9.71967ZM24.75 14C24.75 13.5858 24.4142 13.25 24 13.25C23.5858 13.25 23.25 13.5858 23.25 14V17C23.25 17.2361 23.3611 17.4584 23.55 17.6L24.8833 18.6C25.2147 18.8485 25.6848 18.7814 25.9333 18.45C26.1819 18.1186 26.1147 17.6485 25.7833 17.4L24.75 16.625V14Z" fill="black"/>
</svg>
