<svg width="48" height="56" viewBox="0 0 48 56" fill="none" xmlns="http://www.w3.org/2000/svg">
<path fill-rule="evenodd" clip-rule="evenodd" d="M27.5 11H20.5C19.6716 11 19 11.6716 19 12.5V19.5C19 20.3284 19.6716 21 20.5 21H27.5C28.3284 21 29 20.3284 29 19.5V12.5C29 11.6716 28.3284 11 27.5 11ZM20.5 9.5C18.8431 9.5 17.5 10.8431 17.5 12.5V19.5C17.5 21.1569 18.8431 22.5 20.5 22.5H27.5C29.1569 22.5 30.5 21.1569 30.5 19.5V12.5C30.5 10.8431 29.1569 9.5 27.5 9.5H20.5Z" fill="black"/>
<path fill-rule="evenodd" clip-rule="evenodd" d="M20.5 33.5C18.8431 33.5 17.5 34.8431 17.5 36.5V43.5C17.5 45.1569 18.8431 46.5 20.5 46.5H27.5C29.1569 46.5 30.5 45.1569 30.5 43.5V36.5C30.5 34.8431 29.1569 33.5 27.5 33.5H20.5Z" fill="black"/>
</svg>
