<svg width="48" height="32" viewBox="0 0 48 32" fill="none" xmlns="http://www.w3.org/2000/svg">
<path d="M28.75 15.25C29.1642 15.25 29.5 15.5858 29.5 16C29.5 16.4142 29.1642 16.75 28.75 16.75H27.5469C27.9721 17.2683 28.25 17.9269 28.25 18.75C28.25 19.9964 27.6386 20.8606 26.7695 21.373C25.9474 21.8576 24.9232 22.0166 24.0088 22.0166C22.3896 22.0165 20.4442 21.4555 19.7881 19.4873C19.6572 19.0944 19.8699 18.6691 20.2627 18.5381C20.6556 18.4072 21.0809 18.6198 21.2119 19.0127C21.5558 20.0442 22.6104 20.5165 24.0088 20.5166C24.7858 20.5166 25.5076 20.3758 26.0078 20.0811C26.4611 19.8138 26.75 19.4187 26.75 18.75C26.75 17.7668 25.9658 17.0849 24.7705 16.7627L24.7676 16.7617L24.7246 16.75H19.25C18.8358 16.75 18.5 16.4142 18.5 16C18.5 15.5858 18.8358 15.25 19.25 15.25H28.75ZM23.9844 10C25.6687 10.0001 26.9994 10.5722 27.6709 11.915C27.8558 12.2854 27.7052 12.7357 27.335 12.9209C26.9646 13.1057 26.5143 12.9552 26.3291 12.585C26.0006 11.9284 25.331 11.5001 23.9844 11.5C23.3731 11.5 22.7926 11.671 22.3867 11.9678C22.0033 12.2483 21.7599 12.6462 21.7598 13.209C21.7598 13.6127 21.9263 13.9681 22.2246 14.25H20.4502C20.3307 13.9383 20.2598 13.5923 20.2598 13.209C20.2599 12.1254 20.7673 11.2941 21.502 10.7568C22.2146 10.2359 23.1225 10 23.9844 10Z" fill="black"/>
<path fill-rule="evenodd" clip-rule="evenodd" d="M21.5017 10.7568C22.2144 10.2357 23.122 10.0001 23.984 10.0001C25.6687 10.0001 26.9993 10.5716 27.6708 11.9147C27.8561 12.2852 27.7059 12.7357 27.3354 12.9209C26.9649 13.1062 26.5144 12.956 26.3292 12.5855C26.0007 11.9286 25.3313 11.5001 23.984 11.5001C23.3726 11.5001 22.7931 11.6708 22.3871 11.9676C22.0033 12.2482 21.76 12.6463 21.76 13.2095C21.76 13.6128 21.9251 13.9684 22.2226 14.2501H20.4465C20.3274 13.9388 20.26 13.5922 20.26 13.2095C20.26 12.1257 20.7669 11.2941 21.5017 10.7568ZM27.5494 16.7501H28.75C29.1642 16.7501 29.5 16.4143 29.5 16.0001C29.5 15.5859 29.1642 15.2501 28.75 15.2501H19.25C18.8358 15.2501 18.5 15.5859 18.5 16.0001C18.5 16.4143 18.8358 16.7501 19.25 16.7501H24.7246L24.7675 16.7619L24.77 16.7625C25.9657 17.0846 26.75 17.7668 26.75 18.7501C26.75 19.4189 26.4614 19.8135 26.008 20.0808C25.5077 20.3757 24.7862 20.5172 24.0089 20.5172C22.6103 20.5172 21.5554 20.0446 21.2115 19.013C21.0805 18.62 20.6558 18.4076 20.2628 18.5386C19.8699 18.6696 19.6575 19.0943 19.7885 19.4873C20.4446 21.4557 22.3897 22.0172 24.0089 22.0172C24.9235 22.0172 25.9475 21.8577 26.7698 21.3729C27.639 20.8605 28.25 19.9965 28.25 18.7501C28.25 17.9278 27.9737 17.2686 27.5494 16.7501Z" fill="black"/>
</svg>
