<svg width="48" height="32" viewBox="0 0 48 32" fill="none" xmlns="http://www.w3.org/2000/svg">
<path fill-rule="evenodd" clip-rule="evenodd" d="M25 9.5H23C22.7239 9.5 22.5 9.72386 22.5 10V11H25.5V10C25.5 9.72386 25.2761 9.5 25 9.5ZM21 10V11C19.3431 11 18 12.3431 18 14V20C18 21.6569 19.3431 23 21 23H27C28.6569 23 30 21.6569 30 20V14C30 12.3431 28.6569 11 27 11V10C27 8.89543 26.1046 8 25 8H23C21.8954 8 21 8.89543 21 10ZM25.5 12.5H27C27.8284 12.5 28.5 13.1716 28.5 14V20C28.5 20.8284 27.8284 21.5 27 21.5H21C20.1716 21.5 19.5 20.8284 19.5 20V14C19.5 13.1716 20.1716 12.5 21 12.5H22.5H25.5ZM21.75 14C21.3358 14 21 14.3358 21 14.75C21 15.1642 21.3358 15.5 21.75 15.5H26.25C26.6642 15.5 27 15.1642 27 14.75C27 14.3358 26.6642 14 26.25 14H21.75Z" fill="black"/>
</svg>
