<svg width="48" height="32" viewBox="0 0 48 32" fill="none" xmlns="http://www.w3.org/2000/svg">
<path fill-rule="evenodd" clip-rule="evenodd" d="M24 11C23.5858 11 23.25 10.6642 23.25 10.25V8.75C23.25 8.33579 23.5858 8 24 8C24.4142 8 24.75 8.33579 24.75 8.75V10.25C24.75 10.6642 24.4142 11 24 11ZM24 18.5C25.3807 18.5 26.5 17.3807 26.5 16C26.5 14.6193 25.3807 13.5 24 13.5C22.6193 13.5 21.5 14.6193 21.5 16C21.5 17.3807 22.6193 18.5 24 18.5ZM24 20C26.2091 20 28 18.2091 28 16C28 13.7909 26.2091 12 24 12C21.7909 12 20 13.7909 20 16C20 18.2091 21.7909 20 24 20ZM23.25 23.25C23.25 23.6642 23.5858 24 24 24C24.4142 24 24.75 23.6642 24.75 23.25V21.75C24.75 21.3358 24.4142 21 24 21C23.5858 21 23.25 21.3358 23.25 21.75V23.25ZM29 16C29 15.5858 29.3358 15.25 29.75 15.25H31.25C31.6642 15.25 32 15.5858 32 16C32 16.4142 31.6642 16.75 31.25 16.75H29.75C29.3358 16.75 29 16.4142 29 16ZM16.75 15.25C16.3358 15.25 16 15.5858 16 16C16 16.4142 16.3358 16.75 16.75 16.75H18.25C18.6642 16.75 19 16.4142 19 16C19 15.5858 18.6642 15.25 18.25 15.25H16.75ZM27.5356 12.4645C27.2427 12.1716 27.2427 11.6967 27.5356 11.4038L28.5962 10.3431C28.8891 10.0503 29.364 10.0503 29.6569 10.3431C29.9498 10.636 29.9498 11.1109 29.6569 11.4038L28.5962 12.4645C28.3034 12.7574 27.8285 12.7574 27.5356 12.4645ZM18.3432 20.5962C18.0503 20.8891 18.0503 21.364 18.3432 21.6569C18.6361 21.9497 19.111 21.9497 19.4039 21.6569L20.4645 20.5962C20.7574 20.3033 20.7574 19.8284 20.4645 19.5355C20.1716 19.2426 19.6968 19.2426 19.4039 19.5355L18.3432 20.5962ZM27.5356 19.5355C27.8285 19.2426 28.3034 19.2426 28.5962 19.5355L29.6569 20.5962C29.9498 20.8891 29.9498 21.364 29.6569 21.6569C29.364 21.9497 28.8891 21.9497 28.5962 21.6569L27.5356 20.5962C27.2427 20.3033 27.2427 19.8284 27.5356 19.5355ZM19.4039 10.3431C19.111 10.0503 18.6361 10.0503 18.3432 10.3431C18.0503 10.636 18.0503 11.1109 18.3432 11.4038L19.4039 12.4645C19.6968 12.7574 20.1716 12.7574 20.4645 12.4645C20.7574 12.1716 20.7574 11.6967 20.4645 11.4038L19.4039 10.3431Z" fill="black"/>
</svg>
