<svg width="48" height="32" viewBox="0 0 48 32" fill="none" xmlns="http://www.w3.org/2000/svg">
<path fill-rule="evenodd" clip-rule="evenodd" d="M31.177 11.0885L27.6334 9.31672C27.2169 9.10844 26.7575 9 26.2918 9H25.4147C25.2087 9.5826 24.6531 10 24 10C23.3469 10 22.7913 9.5826 22.5854 9H21.7082C21.2425 9 20.7831 9.10844 20.3666 9.31672L16.823 11.0885C16.3578 11.3211 16.1486 11.8714 16.3417 12.3543L17.6366 15.5915C17.6971 15.7428 17.7906 15.8713 17.9055 15.972C18.174 16.2071 18.5596 16.2901 18.9162 16.1564L19.2683 16.0244L19.0798 20.9231C19.0362 22.057 19.9436 23 21.0784 23H26.9216C28.0563 23 28.9637 22.057 28.9201 20.9231L28.7317 16.0244L29.0838 16.1564C29.4404 16.2901 29.826 16.2071 30.0945 15.972C30.2094 15.8713 30.3029 15.7428 30.3634 15.5915L31.6583 12.3543C31.8514 11.8714 31.6422 11.3211 31.177 11.0885ZM21.7643 10.5H21.7082C21.4753 10.5 21.2457 10.5542 21.0374 10.6584L17.9053 12.2244L18.8476 14.5801L20.8538 13.8278L20.5787 20.9808C20.5678 21.2643 20.7947 21.5 21.0784 21.5H26.9216C27.2052 21.5 27.4321 21.2643 27.4212 20.9808L27.1461 13.8278L29.1524 14.5801L30.0947 12.2244L26.9626 10.6584C26.7543 10.5542 26.5247 10.5 26.2918 10.5H26.2357C25.6871 11.1132 24.8896 11.5 24 11.5C23.1104 11.5 22.3129 11.1132 21.7643 10.5Z" fill="black"/>
</svg>
