<svg width="48" height="32" viewBox="0 0 48 32" fill="none" xmlns="http://www.w3.org/2000/svg">
<path fill-rule="evenodd" clip-rule="evenodd" d="M23.182 10.9393L18.3126 15.8087C17.9245 16.1968 17.9217 16.825 18.3062 17.2166L22.6763 21.6661C23.0632 22.06 23.6961 22.0658 24.0901 21.6791L29.0506 16.8114C29.3381 16.5293 29.5 16.1435 29.5 15.7407L29.5 11.5C29.5 10.9477 29.0523 10.5 28.5 10.5L24.2426 10.5C23.8448 10.5 23.4633 10.658 23.182 10.9393ZM30.1012 17.882C30.6761 17.3178 31 16.5462 31 15.7407L31 11.5C31 10.1193 29.8807 9 28.5 9L24.2426 9C23.447 9 22.6839 9.31607 22.1213 9.87868L17.2519 14.7481C16.2818 15.7182 16.2747 17.2888 17.2361 18.2676L21.6061 22.7171C22.5733 23.7019 24.1556 23.7165 25.1407 22.7497L30.1012 17.882ZM26.1945 12.0377C25.9017 11.7448 25.4268 11.7448 25.1339 12.0377L23.3661 13.8055L23.2777 13.7171C22.9848 13.4242 22.51 13.4242 22.2171 13.7171C21.9242 14.01 21.9242 14.4849 22.2171 14.7778L22.3055 14.8661L21.9519 15.2197L21.8635 15.1313C21.5706 14.8384 21.0957 14.8384 20.8029 15.1313C20.51 15.4242 20.51 15.8991 20.8029 16.192L20.8912 16.2804L20.5377 16.6339C20.2448 16.9268 20.2448 17.4017 20.5377 17.6946C20.8306 17.9875 21.3055 17.9875 21.5983 17.6946L21.9519 17.341L23.0126 18.4017C23.3055 18.6946 23.7803 18.6946 24.0732 18.4017C24.3661 18.1088 24.3661 17.6339 24.0732 17.341L23.0126 16.2804L23.3661 15.9268L24.1616 16.7223C25.0891 17.6498 26.5929 17.6498 27.5204 16.7223C28.4479 15.7948 28.4479 14.291 27.5204 13.3635L26.1945 12.0377ZM25.2223 15.6616L24.4268 14.8661L25.6642 13.6287L26.4597 14.4242C26.8014 14.7659 26.8014 15.3199 26.4597 15.6616C26.118 16.0033 25.564 16.0033 25.2223 15.6616Z" fill="black"/>
</svg>
