<svg width="48" height="32" viewBox="0 0 48 32" fill="none" xmlns="http://www.w3.org/2000/svg">
<path fill-rule="evenodd" clip-rule="evenodd" d="M23.182 10.9393L18.3126 15.8087C17.9245 16.1968 17.9217 16.825 18.3062 17.2166L22.6763 21.6661C23.0632 22.06 23.6961 22.0658 24.0901 21.6791L29.0506 16.8114C29.3381 16.5293 29.5 16.1435 29.5 15.7407L29.5 11.5C29.5 10.9477 29.0523 10.5 28.5 10.5L24.2426 10.5C23.8448 10.5 23.4633 10.658 23.182 10.9393ZM30.1012 17.882C30.6761 17.3178 31 16.5462 31 15.7407L31 11.5C31 10.1193 29.8807 9 28.5 9L24.2426 9C23.447 9 22.6839 9.31607 22.1213 9.87868L17.2519 14.7481C16.2818 15.7182 16.2747 17.2888 17.2361 18.2676L21.6061 22.7171C22.5733 23.7019 24.1556 23.7165 25.1407 22.7497L30.1012 17.882ZM26.3817 12.5576C26.0498 12.3498 25.6982 12.2181 25.3366 12.1786C24.7192 12.1112 24.1463 12.3232 23.7214 12.7481C23.1809 13.2885 23.1615 13.9777 23.2836 14.5152C23.403 15.0408 23.6777 15.5439 23.9206 15.9256C24.1747 16.3247 24.3814 16.6574 24.4696 16.9581C24.5426 17.207 24.5057 17.3102 24.3983 17.4176C24.3259 17.49 24.2161 17.5421 23.9811 17.4836C23.7277 17.4204 23.4123 17.2375 23.1255 16.9507C22.8823 16.7074 22.7235 16.3877 22.6572 16.0722C22.588 15.7433 22.6343 15.5014 22.6914 15.3917C22.8826 15.0242 22.7397 14.5713 22.3722 14.3802C22.0048 14.189 21.5519 14.3319 21.3607 14.6994C21.0977 15.205 21.0722 15.8244 21.1893 16.3811C21.2591 16.7127 21.385 17.0512 21.5706 17.3688L21.318 17.6213C21.0251 17.9142 21.0251 18.3891 21.318 18.682C21.6109 18.9749 22.0858 18.9749 22.3787 18.682L22.6 18.4607C22.9124 18.6787 23.2583 18.8493 23.6183 18.939C24.2188 19.0887 24.9191 19.0179 25.4588 18.4785C26.0701 17.8674 26.084 17.1327 25.909 16.5359C25.7559 16.0139 25.4373 15.5142 25.2148 15.1653L25.2148 15.1653L25.2148 15.1653L25.186 15.1201C24.9735 14.7862 24.8084 14.4562 24.7463 14.1829C24.687 13.9216 24.7444 13.8464 24.7821 13.8087C24.8926 13.6982 25.0184 13.6528 25.1738 13.6697C25.3459 13.6885 25.6195 13.7946 25.9505 14.1256C26.2817 14.4568 26.3975 14.7267 26.4332 14.9154C26.4689 15.1039 26.4368 15.2747 26.3656 15.4294C26.1925 15.8057 26.3572 16.2511 26.7335 16.4242C27.1099 16.5973 27.5552 16.4326 27.7283 16.0563C27.9086 15.6643 28.0094 15.1772 27.907 14.6365C27.8405 14.285 27.6933 13.9376 27.4607 13.6L27.682 13.3787C27.9749 13.0858 27.9749 12.611 27.682 12.3181C27.3891 12.0252 26.9142 12.0252 26.6213 12.3181L26.3817 12.5576Z" fill="black"/>
</svg>
