<svg width="48" height="32" viewBox="0 0 48 32" fill="none" xmlns="http://www.w3.org/2000/svg">
<path fill-rule="evenodd" clip-rule="evenodd" d="M29.0607 16.818L24.1913 21.6874C23.8032 22.0755 23.175 22.0783 22.7834 21.6938L18.3339 17.3237C17.94 16.9368 17.9342 16.3039 18.3209 15.9099L23.1886 10.9494C23.4707 10.6619 23.8565 10.5 24.2593 10.5H28.5C29.0523 10.5 29.5 10.9477 29.5 11.5V15.7574C29.5 16.1552 29.342 16.5367 29.0607 16.818ZM22.118 9.89879C22.6822 9.32389 23.4538 9 24.2593 9H28.5C29.8807 9 31 10.1193 31 11.5V15.7574C31 16.553 30.6839 17.3161 30.1213 17.8787L25.2519 22.7481C24.2818 23.7182 22.7112 23.7253 21.7324 22.7639L17.2829 18.3939C16.2981 17.4267 16.2835 15.8444 17.2503 14.8593L22.118 9.89879ZM26.5 14.5C25.8096 14.5 25.25 13.9404 25.25 13.25C25.25 12.5596 25.8096 12 26.5 12C27.1904 12 27.75 12.5596 27.75 13.25C27.75 13.9404 27.1904 14.5 26.5 14.5Z" fill="black"/>
</svg>
