<svg width="48" height="32" viewBox="0 0 48 32" fill="none" xmlns="http://www.w3.org/2000/svg">
<path fill-rule="evenodd" clip-rule="evenodd" d="M26.8839 14.9948L22.764 19.1147C22.4733 19.4054 22.0026 19.4079 21.7088 19.1201L17.9061 15.3949C17.6103 15.1052 17.6053 14.6306 17.8948 14.3346L22.0132 10.1258C22.2484 9.88545 22.5704 9.75 22.9066 9.75H26.5C26.9142 9.75 27.25 10.0858 27.25 10.5V14.1109C27.25 14.4424 27.1183 14.7604 26.8839 14.9948ZM20.9411 9.07671C21.4584 8.548 22.1669 8.25 22.9066 8.25H26.5C27.7426 8.25 28.75 9.25736 28.75 10.5V11.25H29.5C30.7426 11.25 31.75 12.2574 31.75 13.5V17.1109C31.75 17.8403 31.4603 18.5397 30.9445 19.0555L26.8247 23.1753C25.9524 24.0476 24.5404 24.0549 23.6592 23.1916L19.8564 19.4665C19.7479 19.3602 19.6525 19.2456 19.5701 19.1248L16.8564 16.4665C15.9691 15.5972 15.954 14.1734 16.8227 13.2856L20.9411 9.07671ZM23.1827 20.6251C23.4152 20.517 23.633 20.367 23.8247 20.1753L27.5209 16.4791C27.5952 16.4928 27.6718 16.5 27.75 16.5C28.4404 16.5 29 15.9404 29 15.25C29 14.9548 28.8977 14.6835 28.7265 14.4696C28.7421 14.3513 28.75 14.2315 28.75 14.1109V12.75H29.5C29.9142 12.75 30.25 13.0858 30.25 13.5V17.1109C30.25 17.4424 30.1183 17.7604 29.8839 17.9948L25.764 22.1147C25.4733 22.4054 25.0026 22.4079 24.7088 22.1201L23.1827 20.6251ZM24.75 13.5C24.0596 13.5 23.5 12.9404 23.5 12.25C23.5 11.5596 24.0596 11 24.75 11C25.4404 11 26 11.5596 26 12.25C26 12.9404 25.4404 13.5 24.75 13.5Z" fill="black"/>
</svg>
