<svg width="48" height="32" viewBox="0 0 48 32" fill="none" xmlns="http://www.w3.org/2000/svg">
<path fill-rule="evenodd" clip-rule="evenodd" d="M28 11.5H20C19.1716 11.5 18.5 12.1716 18.5 13V19C18.5 19.8284 19.1716 20.5 20 20.5H28C28.8284 20.5 29.5 19.8284 29.5 19V13C29.5 12.1716 28.8284 11.5 28 11.5ZM20 10C18.3431 10 17 11.3431 17 13V19C17 20.6569 18.3431 22 20 22H28C29.6569 22 31 20.6569 31 19V13C31 11.3431 29.6569 10 28 10H20ZM20.4697 18.5303C20.1768 18.2374 20.1768 17.7626 20.4697 17.4697L21.9393 16L20.4697 14.5303C20.1768 14.2374 20.1768 13.7626 20.4697 13.4697C20.7626 13.1768 21.2374 13.1768 21.5303 13.4697L23.5303 15.4697C23.8232 15.7626 23.8232 16.2374 23.5303 16.5303L21.5303 18.5303C21.2374 18.8232 20.7626 18.8232 20.4697 18.5303ZM24.75 17.5C24.3358 17.5 24 17.8358 24 18.25C24 18.6642 24.3358 19 24.75 19H27.25C27.6642 19 28 18.6642 28 18.25C28 17.8358 27.6642 17.5 27.25 17.5H24.75Z" fill="black"/>
</svg>
