<svg width="48" height="32" viewBox="0 0 48 32" fill="none" xmlns="http://www.w3.org/2000/svg">
<path fill-rule="evenodd" clip-rule="evenodd" d="M17.2197 19.2197C16.9268 19.5126 16.9268 19.9874 17.2197 20.2803C17.5126 20.5732 17.9874 20.5732 18.2803 20.2803L22.0303 16.5303C22.3232 16.2374 22.3232 15.7626 22.0303 15.4697L18.2803 11.7197C17.9874 11.4268 17.5126 11.4268 17.2197 11.7197C16.9268 12.0126 16.9268 12.4874 17.2197 12.7803L20.4393 16L17.2197 19.2197ZM30.25 20.5C30.6642 20.5 31 20.1642 31 19.75C31 19.3358 30.6642 19 30.25 19H23.75C23.3358 19 23 19.3358 23 19.75C23 20.1642 23.3358 20.5 23.75 20.5H30.25Z" fill="black"/>
</svg>
