<svg width="48" height="32" viewBox="0 0 48 32" fill="none" xmlns="http://www.w3.org/2000/svg">
<path fill-rule="evenodd" clip-rule="evenodd" d="M19.2788 10.544C19.3708 10.222 19.6651 10 19.9999 10H23.9999H27.9999C28.3348 10 28.6291 10.222 28.7211 10.544L29.2211 12.294C29.3349 12.6922 29.1043 13.1073 28.706 13.2211C28.3077 13.3349 27.8926 13.1043 27.7788 12.706L27.4342 11.5H24.7497L24.7463 20.5H25.4999C25.9142 20.5 26.2499 20.8358 26.2499 21.25C26.2499 21.6642 25.9142 22 25.4999 22H23.9999H23.9963C23.9961 22 23.996 22 23.9958 22H22.4999C22.0857 22 21.7499 21.6642 21.7499 21.25C21.7499 20.8358 22.0857 20.5 22.4999 20.5H23.2463L23.2497 11.5H20.5657L20.2211 12.706C20.1073 13.1043 19.6922 13.3349 19.2939 13.2211C18.8956 13.1073 18.665 12.6922 18.7788 12.294L19.2788 10.544Z" fill="black"/>
</svg>
