<svg width="48" height="32" viewBox="0 0 48 32" fill="none" xmlns="http://www.w3.org/2000/svg">
<path fill-rule="evenodd" clip-rule="evenodd" d="M29.25 10L18.75 10C18.3358 10 18 10.3358 18 10.75C18 11.1642 18.3358 11.5 18.75 11.5L29.25 11.5C29.6642 11.5 30 11.1642 30 10.75C30 10.3358 29.6642 10 29.25 10ZM29.25 13.5L23.75 13.5C23.3358 13.5 23 13.8358 23 14.25C23 14.6642 23.3358 15 23.75 15L29.25 15C29.6642 15 30 14.6642 30 14.25C30 13.8358 29.6642 13.5 29.25 13.5ZM29.25 17L23.75 17C23.3358 17 23 17.3358 23 17.75C23 18.1642 23.3358 18.5 23.75 18.5L29.25 18.5C29.6642 18.5 30 18.1642 30 17.75C30 17.3358 29.6642 17 29.25 17ZM18.75 20.5L29.25 20.5C29.6642 20.5 30 20.8358 30 21.25C30 21.6642 29.6642 22 29.25 22L18.75 22C18.3358 22 18 21.6642 18 21.25C18 20.8358 18.3358 20.5 18.75 20.5ZM20.7596 13.5C20.5915 13.5 20.4284 13.5572 20.2971 13.6622L18.3903 15.1877C18.1436 15.3851 17.9999 15.684 17.9999 16C17.9999 16.316 18.1436 16.6149 18.3903 16.8123L20.2971 18.3378C20.4284 18.4428 20.5915 18.5 20.7596 18.5C21.1685 18.5 21.4999 18.1686 21.4999 17.7597L21.4999 14.2403C21.4999 13.8314 21.1685 13.5 20.7596 13.5Z" fill="black"/>
</svg>
