<svg width="48" height="32" viewBox="0 0 48 32" fill="none" xmlns="http://www.w3.org/2000/svg">
<path fill-rule="evenodd" clip-rule="evenodd" d="M18.75 10C18.3358 10 18 10.3358 18 10.75C18 11.1642 18.3358 11.5 18.75 11.5L29.25 11.5C29.6642 11.5 30 11.1642 30 10.75C30 10.3358 29.6642 10 29.25 10L18.75 10ZM18 14.25C18 13.8358 18.3358 13.5 18.75 13.5L29.25 13.5C29.6642 13.5 30 13.8358 30 14.25C30 14.6642 29.6642 15 29.25 15L18.75 15C18.3358 15 18 14.6642 18 14.25ZM18.75 17C18.3358 17 18 17.3358 18 17.75C18 18.1642 18.3358 18.5 18.75 18.5L29.25 18.5C29.6642 18.5 30 18.1642 30 17.75C30 17.3358 29.6642 17 29.25 17L18.75 17ZM18.75 20.5C18.3358 20.5 18 20.8358 18 21.25C18 21.6642 18.3358 22 18.75 22L29.25 22C29.6642 22 30 21.6642 30 21.25C30 20.8358 29.6642 20.5 29.25 20.5L18.75 20.5Z" fill="black"/>
</svg>
