<svg width="48" height="32" viewBox="0 0 48 32" fill="none" xmlns="http://www.w3.org/2000/svg">
<path fill-rule="evenodd" clip-rule="evenodd" d="M18.75 10C18.3358 10 18 10.3358 18 10.75C18 11.1642 18.3358 11.5 18.75 11.5L29.25 11.5C29.6642 11.5 30 11.1642 30 10.75C30 10.3358 29.6642 10 29.25 10L18.75 10ZM18.75 17C18.3358 17 18 17.3358 18 17.75C18 18.1642 18.3358 18.5 18.75 18.5L29.25 18.5C29.6642 18.5 30 18.1642 30 17.75C30 17.3358 29.6642 17 29.25 17L18.75 17ZM20.75 20.5C20.3358 20.5 20 20.8358 20 21.25C20 21.6642 20.3358 22 20.75 22L27.25 22C27.6642 22 28 21.6642 28 21.25C28 20.8358 27.6642 20.5 27.25 20.5L20.75 20.5ZM20 14.25C20 13.8358 20.3358 13.5 20.75 13.5L27.25 13.5C27.6642 13.5 28 13.8358 28 14.25C28 14.6642 27.6642 15 27.25 15L20.75 15C20.3358 15 20 14.6642 20 14.25Z" fill="black"/>
</svg>
