<svg width="48" height="56" viewBox="0 0 48 56" fill="none" xmlns="http://www.w3.org/2000/svg">
<path fill-rule="evenodd" clip-rule="evenodd" d="M20 15L22.9409 9.95864C23.2872 9.36502 23.9227 9 24.6099 9C25.8401 9 26.757 10.1343 26.4993 11.3371L26.2501 12.5L25.9287 14H27.4627H28.8688C30.1914 14 31.1498 15.2609 30.7958 16.5353L29.9174 19.6975C29.3895 21.598 27.555 22.83 25.596 22.5995L20.5001 22L20 15ZM25.7713 21.1098L21.9079 20.6553L21.5292 15.3554L24.2365 10.7145C24.314 10.5817 24.4562 10.5 24.6099 10.5C24.8851 10.5 25.0902 10.7537 25.0326 11.0228L24.462 13.6857L24.0732 15.5H25.9287H28.8688C29.1994 15.5 29.439 15.8152 29.3505 16.1338L28.4722 19.296C28.1422 20.4838 26.9956 21.2538 25.7713 21.1098ZM18.7481 15.4466C18.7186 15.0334 18.3598 14.7224 17.9466 14.7519C17.5334 14.7814 17.2224 15.1403 17.2519 15.5534L17.7519 22.5534C17.7814 22.9666 18.1403 23.2776 18.5535 23.2481C18.9666 23.2186 19.2776 22.8597 19.2481 22.4466L18.7481 15.4466Z" fill="black"/>
<path fill-rule="evenodd" clip-rule="evenodd" d="M23.1007 33.6847C23.348 33.2607 23.8019 33 24.2928 33C25.1715 33 25.8264 33.8102 25.6423 34.6693L24.9286 38H25.5H28.8688C30.1914 38 31.1498 39.2609 30.7958 40.5353L29.9174 43.6975C29.3895 45.598 27.555 46.83 25.596 46.5995L20.5001 46L20 39L23.1007 33.6847ZM18.7481 39.4466C18.7186 39.0334 18.3598 38.7224 17.9466 38.7519C17.5334 38.7814 17.2224 39.1403 17.2519 39.5534L17.7519 46.5534C17.7814 46.9666 18.1403 47.2776 18.5535 47.2481C18.9666 47.2186 19.2776 46.8597 19.2481 46.4466L18.7481 39.4466Z" fill="black"/>
</svg>
