<svg width="48" height="56" viewBox="0 0 48 56" fill="none" xmlns="http://www.w3.org/2000/svg">
<path fill-rule="evenodd" clip-rule="evenodd" d="M28 17L25.0591 22.0414C24.7128 22.635 24.0773 23 23.3901 23C22.1599 23 21.243 21.8657 21.5007 20.6629L21.7499 19.5L22.0713 18H20.5373H19.1312C17.8086 18 16.8502 16.7391 17.2042 15.4647L18.0826 12.3025C18.6105 10.402 20.445 9.17001 22.404 9.40048L27.4999 10L28 17ZM22.2287 10.8902L26.0921 11.3447L26.4708 16.6446L23.7635 21.2855C23.686 21.4183 23.5438 21.5 23.3901 21.5C23.1149 21.5 22.9098 21.2463 22.9674 20.9772L23.538 18.3143L23.9268 16.5H22.0713H19.1312C18.8006 16.5 18.561 16.1848 18.6495 15.8662L19.5278 12.704C19.8578 11.5162 21.0044 10.7462 22.2287 10.8902ZM29.2519 16.5534C29.2814 16.9666 29.6402 17.2776 30.0534 17.2481C30.4666 17.2186 30.7776 16.8597 30.7481 16.4466L30.2481 9.44656C30.2186 9.0334 29.8597 8.72239 29.4465 8.75191C29.0334 8.78142 28.7224 9.14027 28.7519 9.55344L29.2519 16.5534Z" fill="black"/>
<path fill-rule="evenodd" clip-rule="evenodd" d="M24.8993 46.3153C24.652 46.7393 24.1981 47 23.7072 47C22.8285 47 22.1736 46.1898 22.3577 45.3307L23.0714 42H22.5H19.1312C17.8086 42 16.8502 40.7391 17.2042 39.4647L18.0826 36.3025C18.6105 34.402 20.445 33.17 22.404 33.4005L27.4999 34L28 41L24.8993 46.3153ZM29.2519 40.5534C29.2814 40.9666 29.6402 41.2776 30.0534 41.2481C30.4666 41.2186 30.7776 40.8597 30.7481 40.4466L30.2481 33.4466C30.2186 33.0334 29.8597 32.7224 29.4465 32.7519C29.0334 32.7814 28.7224 33.1403 28.7519 33.5534L29.2519 40.5534Z" fill="black"/>
</svg>
