<svg width="48" height="32" viewBox="0 0 48 32" fill="none" xmlns="http://www.w3.org/2000/svg">
<g clip-path="url(#clip0_74_5284)">
<path fill-rule="evenodd" clip-rule="evenodd" d="M29.3447 10.9777L29.2103 11.5866L28.8793 13.0866H30.0382C30.1649 13.0866 30.2885 13.0983 30.408 13.1205C31.4758 13.3189 32.2189 14.3607 32.0007 15.472L31.7413 16.7933C31.3429 18.8219 29.4666 20.2079 27.4189 20.0028C26.8485 21.8151 25.0593 22.9988 23.1331 22.7702L19.1485 22.2975L18.669 15.945L21.4817 11.3812C21.8192 10.8335 22.4166 10.5 23.0599 10.5C24.0557 10.5 24.8358 11.2739 24.909 12.2066L26.3612 9.7892C26.6553 9.29954 27.1847 9 27.7559 9C28.7958 9 29.5688 9.96217 29.3447 10.9777ZM24.9647 15.0375L25.1801 14.6681L27.647 10.5616C27.67 10.5234 27.7113 10.5 27.7559 10.5C27.8371 10.5 27.8975 10.5751 27.88 10.6544L27.4146 12.7634L27.0122 14.5866H28.8793H30.0382C30.353 14.5866 30.5895 14.8741 30.5288 15.183L30.2694 16.5042C30.0316 17.7149 28.9517 18.5594 27.7404 18.5215L27.9598 17.4325C28.2093 16.1941 27.2625 15.0375 25.9992 15.0375H25.8911H24.9647ZM20.5513 20.9534L23.3098 21.2807C24.6033 21.4342 25.7979 20.5687 26.0551 19.2918L26.4894 17.1362C26.5517 16.8266 26.315 16.5375 25.9992 16.5375H24.3532H22.4756L22.8902 14.7063L23.4051 12.432C23.4552 12.2107 23.2869 12 23.0599 12C22.9371 12 22.8231 12.0637 22.7586 12.1682L20.2014 16.3175L20.5513 20.9534ZM16.6952 15.6509C17.1083 15.6198 17.4683 15.9294 17.4994 16.3425L17.9773 22.695C18.0083 23.108 17.6987 23.468 17.2857 23.4991C16.8726 23.5302 16.5126 23.2205 16.4815 22.8075L16.0036 16.455C15.9725 16.042 16.2822 15.6819 16.6952 15.6509Z" fill="black"/>
</g>
<defs>
<clipPath id="clip0_74_5284">
<rect width="16" height="16" fill="white" transform="translate(16 8)"/>
</clipPath>
</defs>
</svg>
