<svg width="48" height="56" viewBox="0 0 48 56" fill="none" xmlns="http://www.w3.org/2000/svg">
<path fill-rule="evenodd" clip-rule="evenodd" d="M23.8355 14L24.5955 11.9733L25.3355 10H21.5C21.2074 10 20.9443 10.1781 20.8356 10.4498L18.5127 16.2572C18.5043 16.2781 18.5 16.3004 18.5 16.323C18.5 16.4207 18.5793 16.5 18.677 16.5H21.5H23.6416L22.9097 18.5126L21.8279 21.4875C21.7373 21.7366 21.9218 22 22.1869 22C22.2922 22 22.3928 21.9565 22.465 21.8798L29.4212 14.4889C29.4718 14.4351 29.5 14.364 29.5 14.2901C29.5 14.1299 29.3701 14 29.2099 14H26H23.8355ZM25.3933 9.84597L25.3932 9.8461L25.3933 9.84597ZM26.5625 11L26.7978 10.3727C27.1375 9.46656 26.4677 8.5 25.5 8.5H21.5C20.5941 8.5 19.7794 9.05156 19.4429 9.89271L17.1199 15.7001C17.0407 15.8982 17 16.1096 17 16.323C17 17.2492 17.7508 18 18.677 18H19.9039H21.5L20.9545 19.5L20.4182 20.9749C19.9719 22.2023 20.8809 23.5 22.1869 23.5C22.7058 23.5 23.2017 23.2857 23.5573 22.9079L30.5135 15.517C30.826 15.1849 31 14.7461 31 14.2901C31 13.3015 30.1985 12.5 29.2099 12.5H27.602H26L26.5625 11Z" fill="black"/>
<path d="M30.6093 38.9136L22.9777 46.9942C22.6728 47.317 22.2484 47.5 21.8043 47.5C20.6842 47.5 19.9047 46.3871 20.2875 45.3344L21.5 42H18.677C17.7508 42 17 41.2492 17 40.323C17 40.1096 17.0407 39.8982 17.1199 39.7001L19.4429 33.8927C19.7794 33.0516 20.5941 32.5 21.5 32.5H25.5C26.4677 32.5 27.1375 33.4666 26.7978 34.3727L26 36.5H29.569C30.3593 36.5 31 37.1407 31 37.931C31 38.2964 30.8602 38.648 30.6093 38.9136Z" fill="black"/>
</svg>
