<svg width="48" height="32" viewBox="0 0 48 32" fill="none" xmlns="http://www.w3.org/2000/svg">
<g clip-path="url(#clip0_74_5046)">
<path fill-rule="evenodd" clip-rule="evenodd" d="M27.0911 10.3184C27.4731 10.6049 27.5825 11.108 27.397 11.5151C27.3595 11.5976 27.3098 11.6761 27.2479 11.7481C27.2316 11.767 27.2146 11.7854 27.1966 11.8033L26.9999 12C26.7238 12.2762 26.7238 12.7239 26.9999 13C27.2761 13.2762 27.7238 13.2762 27.9999 13L28.1966 12.8033C28.2146 12.7854 28.233 12.7683 28.2519 12.7521C28.3239 12.6901 28.4024 12.6405 28.4849 12.6029C28.892 12.4175 29.395 12.5269 29.6815 12.9089L30.925 14.5668C31.4999 15.3333 31.2853 16.4288 30.4637 16.9218C28.1895 18.2863 26.2862 20.1896 24.9217 22.4638C24.4287 23.2854 23.3332 23.5 22.5667 22.9251L20.9087 21.6817C20.5267 21.3952 20.4174 20.8921 20.6028 20.485C20.6404 20.4025 20.69 20.324 20.7519 20.252C20.7682 20.2331 20.7853 20.2147 20.8032 20.1967L20.9999 20C21.2761 19.7239 21.2761 19.2762 20.9999 19C20.7238 18.7239 20.2761 18.7239 19.9999 19L19.8032 19.1967C19.7853 19.2147 19.7668 19.2318 19.748 19.248C19.676 19.3099 19.5974 19.3596 19.515 19.3972C19.1078 19.5826 18.6048 19.4732 18.3183 19.0912L17.0748 17.4333C16.5 16.6668 16.7146 15.5712 17.5361 15.0783C19.8103 13.7138 21.7137 11.8105 23.0782 9.53627C23.5711 8.71468 24.6666 8.50008 25.4331 9.07496L27.0911 10.3184ZM24.5331 10.275L25.734 11.1756C25.0838 12.0402 25.1523 13.2737 25.9393 14.0607C26.7263 14.8477 27.9597 14.9161 28.8243 14.2659L29.725 15.4668C29.7662 15.5217 29.7508 15.6002 29.6919 15.6355C27.2066 17.1267 25.1266 19.2068 23.6354 21.6921C23.6001 21.7509 23.5216 21.7663 23.4667 21.7251L22.2658 20.8245C22.916 19.9598 22.8476 18.7264 22.0606 17.9394C21.2736 17.1524 20.0401 17.084 19.1755 17.7341L18.2748 16.5333C18.2336 16.4783 18.249 16.3999 18.3079 16.3645C20.7932 14.8734 22.8732 12.7933 24.3644 10.308C24.3997 10.2491 24.4782 10.2338 24.5331 10.275ZM23.5302 14.4697C23.2374 14.1768 22.7625 14.1768 22.4696 14.4697C22.1767 14.7626 22.1767 15.2375 22.4696 15.5304L24.4696 17.5304C24.7625 17.8233 25.2374 17.8233 25.5302 17.5304C25.8231 17.2375 25.8231 16.7626 25.5302 16.4697L23.5302 14.4697Z" fill="black"/>
</g>
<defs>
<clipPath id="clip0_74_5046">
<rect width="16" height="16" fill="white" transform="translate(16 8)"/>
</clipPath>
</defs>
</svg>
