<svg width="48" height="32" viewBox="0 0 48 32" fill="none" xmlns="http://www.w3.org/2000/svg">
<path fill-rule="evenodd" clip-rule="evenodd" d="M30.5 20.75C30.5 19.4912 29.6543 18.43 28.5 18.1035L28.5 16.75L30.75 16.75C31.1642 16.75 31.5 16.4142 31.5 16C31.5 15.5858 31.1642 15.25 30.75 15.25L27.7508 15.25C27.7505 15.25 27.7503 15.25 27.75 15.25L24.75 15.25L24.75 13.8965C25.8172 13.5946 26.6207 12.6647 26.7358 11.5312C26.7452 11.4387 26.75 11.3449 26.75 11.25C26.75 9.73122 25.5188 8.5 24 8.5C22.4812 8.5 21.25 9.73121 21.25 11.25C21.25 12.5088 22.0957 13.57 23.25 13.8965L23.25 15.25L20.25 15.25C20.2495 15.25 20.249 15.25 20.2485 15.25L17.25 15.25C16.8358 15.25 16.5 15.5858 16.5 16C16.5 16.4142 16.8358 16.75 17.25 16.75L19.5 16.75L19.5 18.1035C18.4328 18.4054 17.6293 19.3353 17.5142 20.4688C17.5048 20.5613 17.5 20.6551 17.5 20.75C17.5 22.2688 18.7312 23.5 20.25 23.5C21.7688 23.5 23 22.2688 23 20.75C23 19.4912 22.1543 18.43 21 18.1035L21 16.75L24 16.75L27 16.75L27 18.1035C25.8458 18.43 25 19.4912 25 20.75C25 22.2688 26.2312 23.5 27.75 23.5C29.1739 23.5 30.345 22.4179 30.4858 21.0312C30.4952 20.9387 30.5 20.8449 30.5 20.75ZM27.75 22C28.4404 22 29 21.4404 29 20.75C29 20.7069 28.9978 20.6642 28.9935 20.6222C28.9295 19.9919 28.3972 19.5 27.75 19.5C27.0596 19.5 26.5 20.0596 26.5 20.75C26.5 21.4404 27.0596 22 27.75 22ZM24 12.5C24.6904 12.5 25.25 11.9404 25.25 11.25C25.25 11.2069 25.2478 11.1642 25.2435 11.1222C25.1795 10.4919 24.6472 10 24 10C23.3096 10 22.75 10.5596 22.75 11.25C22.75 11.9404 23.3096 12.5 24 12.5ZM20.25 22C20.9404 22 21.5 21.4404 21.5 20.75C21.5 20.0596 20.9404 19.5 20.25 19.5C19.5596 19.5 19 20.0596 19 20.75C19 21.4404 19.5596 22 20.25 22Z" fill="black"/>
</svg>
