<svg width="48" height="32" viewBox="0 0 48 32" fill="none" xmlns="http://www.w3.org/2000/svg">
<path fill-rule="evenodd" clip-rule="evenodd" d="M23.25 9.25L23.25 22.75C23.25 23.1642 23.5858 23.5 24 23.5C24.4142 23.5 24.75 23.1642 24.75 22.75L24.75 9.25C24.75 8.83579 24.4142 8.5 24 8.5C23.5858 8.5 23.25 8.83579 23.25 9.25ZM18.5 10H22V11.5H18.5C17.9477 11.5 17.5 11.9477 17.5 12.5V14.25C17.5 14.8023 17.9477 15.25 18.5 15.25L21.5 15.25H22V16.75H21.5C20.9477 16.75 20.5 17.1977 20.5 17.75V19.5C20.5 20.0523 20.9477 20.5 21.5 20.5H22V22H21.5C20.1193 22 19 20.8807 19 19.5V17.75C19 17.3944 19.0742 17.0562 19.208 16.75H18.5C17.1193 16.75 16 15.6307 16 14.25V12.5C16 11.1193 17.1193 10 18.5 10ZM26.5 15.25H26V16.75H26.5H29.5C30.0523 16.75 30.5 17.1977 30.5 17.75V19.5C30.5 20.0523 30.0523 20.5 29.5 20.5H26V22H29.5C30.8807 22 32 20.8807 32 19.5V17.75C32 16.3693 30.8807 15.25 29.5 15.25H28.792C28.9258 14.9438 29 14.6056 29 14.25V12.5C29 11.1193 27.8807 10 26.5 10H26V11.5H26.5C27.0523 11.5 27.5 11.9477 27.5 12.5V14.25C27.5 14.8023 27.0523 15.25 26.5 15.25Z" fill="black"/>
</svg>
