<svg width="48" height="32" viewBox="0 0 48 32" fill="none" xmlns="http://www.w3.org/2000/svg">
<path fill-rule="evenodd" clip-rule="evenodd" d="M20.5 20.5L20.5 11.5C20.5 10.6716 21.1716 10 22 10L26 10C26.8284 10 27.5 10.6716 27.5 11.5V12.2479L27.5 12.25V15.25L27.5 15.2521V16.9979L27.5 17V20L27.5 20.0021V20.5C27.5 21.3284 26.8284 22 26 22H22C21.1716 22 20.5 21.3284 20.5 20.5ZM30.874 12.666L29 15.4771V16.25H30.25C30.5266 16.25 30.7807 16.4022 30.9113 16.6461C31.0418 16.89 31.0275 17.1859 30.874 17.416L29 20.2271V20.5C29 22.1569 27.6569 23.5 26 23.5H22C20.3431 23.5 19 22.1569 19 20.5V20.2271L17.126 17.416C16.9725 17.1859 16.9582 16.89 17.0887 16.6461C17.2193 16.4022 17.4734 16.25 17.75 16.25H19L19 15.4771L17.126 12.666C16.9725 12.4359 16.9582 12.14 17.0887 11.8961C17.2193 11.6522 17.4734 11.5 17.75 11.5L19 11.5C19 9.84315 20.3431 8.5 22 8.5H26C27.6569 8.5 29 9.84314 29 11.5L30.25 11.5C30.5266 11.5 30.7807 11.6522 30.9113 11.8961C31.0418 12.14 31.0275 12.4359 30.874 12.666ZM24 15.25C24.9665 15.25 25.75 14.4665 25.75 13.5C25.75 12.5335 24.9665 11.75 24 11.75C23.0335 11.75 22.25 12.5335 22.25 13.5C22.25 14.4665 23.0335 15.25 24 15.25ZM24 20.25C24.9665 20.25 25.75 19.4665 25.75 18.5C25.75 17.5335 24.9665 16.75 24 16.75C23.0335 16.75 22.25 17.5335 22.25 18.5C22.25 19.4665 23.0335 20.25 24 20.25Z" fill="black"/>
</svg>
