<svg width="48" height="32" viewBox="0 0 48 32" fill="none" xmlns="http://www.w3.org/2000/svg">
<path fill-rule="evenodd" clip-rule="evenodd" d="M25.0002 10H23.0002C22.7241 10 22.5002 10.2239 22.5002 10.5V11H25.5002V10.5C25.5002 10.2239 25.2763 10 25.0002 10ZM27.0002 11V10.5C27.0002 9.39543 26.1048 8.5 25.0002 8.5H23.0002C21.8956 8.5 21.0002 9.39543 21.0002 10.5V11H20.0014H18.5001H18.2502C17.836 11 17.5002 11.3358 17.5002 11.75C17.5002 12.1642 17.836 12.5 18.2502 12.5H18.5626L18.8803 20.1249C18.9473 21.7318 20.2694 23 21.8777 23H26.1225C27.7308 23 29.053 21.7318 29.1199 20.1249L29.4376 12.5H29.7502C30.1644 12.5 30.5002 12.1642 30.5002 11.75C30.5002 11.3358 30.1644 11 29.7502 11H29.5001H27.9988H27.0002ZM27.9363 12.5H27.0002H25.5002H22.5002H21.0002H20.0639L20.379 20.0624C20.4125 20.8659 21.0736 21.5 21.8777 21.5H26.1225C26.9266 21.5 27.5877 20.8659 27.6212 20.0624L27.9363 12.5ZM21.75 14.5V19.5C21.75 19.9142 22.0858 20.25 22.5 20.25C22.9142 20.25 23.25 19.9142 23.25 19.5V14.5C23.25 14.0858 22.9142 13.75 22.5 13.75C22.0858 13.75 21.75 14.0858 21.75 14.5ZM25.5 13.75C25.9142 13.75 26.25 14.0858 26.25 14.5V19.5C26.25 19.9142 25.9142 20.25 25.5 20.25C25.0858 20.25 24.75 19.9142 24.75 19.5V14.5C24.75 14.0858 25.0858 13.75 25.5 13.75Z" fill="black"/>
</svg>
