<svg width="48" height="32" viewBox="0 0 48 32" fill="none" xmlns="http://www.w3.org/2000/svg">
<path fill-rule="evenodd" clip-rule="evenodd" d="M29.5 16.5H27.1123C26.5645 17.701 25.3576 18.5 24 18.5C22.6424 18.5 21.4355 17.701 20.8877 16.5H18.5V19C18.5 19.8284 19.1716 20.5 20 20.5H28C28.8284 20.5 29.5 19.8284 29.5 19V16.5ZM27.2964 11.7428L29.2507 15H26L25.8638 15.5448C25.65 16.4 24.8816 17 24 17C23.1184 17 22.35 16.4 22.1362 15.5448L22 15H18.7493L20.7036 11.7428C20.794 11.5921 20.9567 11.5 21.1324 11.5H26.8676C27.0433 11.5 27.206 11.5921 27.2964 11.7428ZM31 16.5V15.831C31 15.2872 30.8522 14.7537 30.5725 14.2875L28.5826 10.971C28.2212 10.3686 27.5701 10 26.8676 10H21.1324C20.4299 10 19.7788 10.3686 19.4174 10.971L17.4275 14.2875C17.1478 14.7537 17 15.2872 17 15.831V16.5V19C17 20.6569 18.3431 22 20 22H28C29.6569 22 31 20.6569 31 19V16.5Z" fill="black"/>
</svg>
