<svg width="48" height="56" viewBox="0 0 48 56" fill="none" xmlns="http://www.w3.org/2000/svg">
<path fill-rule="evenodd" clip-rule="evenodd" d="M23.1341 10.9945L18.2171 19.4995C17.8317 20.1662 18.3128 21 19.0828 21L28.9168 21C29.6868 21 30.1679 20.1662 29.7825 19.4995L24.8655 10.9945C24.4805 10.3285 23.5191 10.3285 23.1341 10.9945ZM26.1641 10.2437C25.2016 8.57875 22.798 8.57875 21.8355 10.2437L16.9185 18.7488C15.955 20.4154 17.1577 22.5 19.0828 22.5L28.9168 22.5C30.8419 22.5 32.0446 20.4154 31.0811 18.7488L26.1641 10.2437ZM23.9998 13C24.414 13 24.7498 13.3358 24.7498 13.75V15.75C24.7498 16.1642 24.414 16.5 23.9998 16.5C23.5856 16.5 23.2498 16.1642 23.2498 15.75V13.75C23.2498 13.3358 23.5856 13 23.9998 13ZM24.9998 18.75C24.9998 19.3023 24.5521 19.75 23.9998 19.75C23.4475 19.75 22.9998 19.3023 22.9998 18.75C22.9998 18.1977 23.4475 17.75 23.9998 17.75C24.5521 17.75 24.9998 18.1977 24.9998 18.75Z" fill="black"/>
<path fill-rule="evenodd" clip-rule="evenodd" d="M21.8355 34.2437C22.798 32.5787 25.2016 32.5787 26.1641 34.2437L31.0811 42.7488C32.0446 44.4154 30.8419 46.5 28.9168 46.5L19.0828 46.5C17.1577 46.5 15.955 44.4154 16.9185 42.7488L21.8355 34.2437ZM23.9999 37C24.4141 37 24.7499 37.3358 24.7499 37.75V39.75C24.7499 40.1642 24.4141 40.5 23.9999 40.5C23.5857 40.5 23.2499 40.1642 23.2499 39.75V37.75C23.2499 37.3358 23.5857 37 23.9999 37ZM24.9999 42.75C24.9999 43.3023 24.5522 43.75 23.9999 43.75C23.4476 43.75 22.9999 43.3023 22.9999 42.75C22.9999 42.1977 23.4476 41.75 23.9999 41.75C24.5522 41.75 24.9999 42.1977 24.9999 42.75Z" fill="black"/>
</svg>
