<svg width="48" height="32" viewBox="0 0 48 32" fill="none" xmlns="http://www.w3.org/2000/svg">
<path fill-rule="evenodd" clip-rule="evenodd" d="M23.1341 10.9945L18.2171 19.4995C17.8317 20.1662 18.3128 21 19.0828 21L28.9168 21C29.6868 21 30.1679 20.1662 29.7825 19.4995L24.8655 10.9945C24.4805 10.3285 23.5191 10.3285 23.1341 10.9945ZM26.1641 10.2437C25.2016 8.57875 22.798 8.57875 21.8355 10.2437L16.9185 18.7488C15.955 20.4154 17.1577 22.5 19.0828 22.5L28.9168 22.5C30.8419 22.5 32.0446 20.4154 31.0811 18.7488L26.1641 10.2437ZM24.6706 14.5854C24.8558 14.2149 24.7057 13.7644 24.3352 13.5792C23.9647 13.3939 23.5142 13.5441 23.3289 13.9146L22.0789 16.4146C21.9627 16.6471 21.9751 16.9232 22.1118 17.1443C22.2484 17.3654 22.4898 17.5 22.7498 17.5H24.0362L23.3289 18.9146C23.1437 19.2851 23.2939 19.7356 23.6643 19.9208C24.0348 20.1061 24.4853 19.9559 24.6706 19.5854L25.9206 17.0854C26.0368 16.8529 26.0244 16.5768 25.8877 16.3557C25.7511 16.1346 25.5097 16 25.2498 16H23.9633L24.6706 14.5854Z" fill="black"/>
</svg>
