<svg width="48" height="56" viewBox="0 0 48 56" fill="none" xmlns="http://www.w3.org/2000/svg">
<path fill-rule="evenodd" clip-rule="evenodd" d="M18.9946 15.1341L27.4996 10.2171C28.1663 9.83168 29.0001 10.3128 29.0001 11.0828L29.0001 20.9168C29.0001 21.6868 28.1663 22.1679 27.4996 21.7825L18.9946 16.8655C18.3286 16.4805 18.3286 15.5191 18.9946 15.1341ZM18.2439 18.1641C16.5789 17.2016 16.5789 14.798 18.2439 13.8355L26.7489 8.9185C28.4155 7.95496 30.5001 9.15769 30.5001 11.0828L30.5001 20.9168C30.5001 22.8419 28.4155 24.0446 26.7489 23.0811L18.2439 18.1641Z" fill="black"/>
<path d="M18.2439 42.1643C16.5789 41.2017 16.5789 38.7982 18.2439 37.8356L26.7489 32.9186C28.4155 31.9551 30.5001 33.1578 30.5001 35.083L30.5001 44.9169C30.5001 46.842 28.4155 48.0448 26.7489 47.0812L18.2439 42.1643Z" fill="black"/>
</svg>
