<svg width="48" height="56" viewBox="0 0 48 56" fill="none" xmlns="http://www.w3.org/2000/svg">
<path fill-rule="evenodd" clip-rule="evenodd" d="M23.1341 10.9946L18.2171 19.4996C17.8317 20.1663 18.3128 21.0001 19.0828 21.0001L28.9168 21.0001C29.6868 21.0001 30.1679 20.1663 29.7825 19.4996L24.8655 10.9946C24.4805 10.3286 23.5191 10.3286 23.1341 10.9946ZM26.1641 10.2439C25.2016 8.57887 22.798 8.57887 21.8355 10.2439L16.9185 18.7489C15.955 20.4155 17.1577 22.5001 19.0828 22.5001L28.9168 22.5001C30.8419 22.5001 32.0446 20.4155 31.0811 18.7489L26.1641 10.2439Z" fill="black"/>
<path d="M26.1641 34.2439C25.2016 32.5789 22.798 32.5789 21.8355 34.2439L16.9185 42.7489C15.955 44.4155 17.1577 46.5001 19.0828 46.5001L28.9168 46.5001C30.8419 46.5001 32.0446 44.4155 31.0811 42.7489L26.1641 34.2439Z" fill="black"/>
</svg>
