<svg width="48" height="56" viewBox="0 0 48 56" fill="none" xmlns="http://www.w3.org/2000/svg">
<path fill-rule="evenodd" clip-rule="evenodd" d="M23.1341 21.0054L18.2171 12.5004C17.8317 11.8337 18.3128 10.9999 19.0828 10.9999L28.9168 10.9999C29.6868 10.9999 30.1679 11.8337 29.7825 12.5004L24.8655 21.0054C24.4805 21.6714 23.5191 21.6714 23.1341 21.0054ZM26.1641 21.7561C25.2016 23.4211 22.798 23.4211 21.8355 21.7561L16.9185 13.2511C15.955 11.5845 17.1577 9.49986 19.0828 9.49986L28.9168 9.49986C30.8419 9.49986 32.0446 11.5845 31.0811 13.2511L26.1641 21.7561Z" fill="black"/>
<path d="M26.1641 45.7561C25.2016 47.4211 22.798 47.4211 21.8355 45.7561L16.9185 37.2511C15.955 35.5845 17.1577 33.4999 19.0828 33.4999L28.9168 33.4999C30.8419 33.4999 32.0446 35.5845 31.0811 37.2511L26.1641 45.7561Z" fill="black"/>
</svg>
