<svg width="48" height="56" viewBox="0 0 48 56" fill="none" xmlns="http://www.w3.org/2000/svg">
<path fill-rule="evenodd" clip-rule="evenodd" d="M29.0054 15.1341L20.5004 10.2171C19.8337 9.83168 18.9999 10.3128 18.9999 11.0828L18.9999 20.9168C18.9999 21.6868 19.8337 22.1679 20.5004 21.7825L29.0054 16.8655C29.6714 16.4805 29.6714 15.5191 29.0054 15.1341ZM29.7561 18.1641C31.4211 17.2016 31.4211 14.798 29.7561 13.8355L21.2511 8.9185C19.5845 7.95496 17.4999 9.15769 17.4999 11.0828L17.4999 20.9168C17.4999 22.8419 19.5845 24.0446 21.2511 23.0811L29.7561 18.1641Z" fill="black"/>
<path d="M29.7561 42.1643C31.4211 41.2017 31.4211 38.7982 29.7561 37.8356L21.2511 32.9186C19.5845 31.9551 17.4999 33.1578 17.4999 35.083L17.4999 44.9169C17.4999 46.842 19.5845 48.0448 21.2511 47.0812L29.7561 42.1643Z" fill="black"/>
</svg>
