<svg width="48" height="32" viewBox="0 0 48 32" fill="none" xmlns="http://www.w3.org/2000/svg">
<path fill-rule="evenodd" clip-rule="evenodd" d="M22.9882 19C22.1652 19.0064 21.5 19.6755 21.5 20.5C21.5 21.3284 22.1716 22 23 22C23.8284 22 24.5 21.3284 24.5 20.5C24.5 20.4961 24.5 20.4921 24.5 20.4882C24.4936 19.6652 23.8245 19 23 19C22.9961 19 22.9922 19 22.9882 19ZM25.9999 20.4762L26 20.5C26 22.1569 24.6569 23.5 23 23.5C21.3431 23.5 20 22.1569 20 20.5C20 19.3786 20.6153 18.4009 21.5267 17.8861L19.5723 10.5568C19.4847 10.2284 19.1874 10 18.8476 10H17.25C16.8358 10 16.5 9.66421 16.5 9.25C16.5 8.83579 16.8358 8.5 17.25 8.5H18.8476C19.8669 8.5 20.759 9.18531 21.0216 10.1703L21.5641 12.2045C21.5871 12.1888 21.6104 12.1734 21.6341 12.1585C21.8212 12.0405 22.029 11.9482 22.254 11.888L26.8556 10.6568C27.9067 10.3756 28.9831 10.8871 29.4502 11.8244C29.517 11.9583 29.5713 12.1009 29.6113 12.2511L30.8386 16.8578C31.1585 18.0584 30.4447 19.291 29.2442 19.6111L25.9999 20.4762ZM27.2433 12.1059C27.6437 11.9987 28.0551 12.2367 28.1619 12.6373L29.3892 17.244C29.4958 17.6441 29.2579 18.055 28.8577 18.1617L25.6139 19.0267C25.0991 18.1153 24.1214 17.5 23 17.5L22.9764 17.5001L22.1108 14.2548C22.0042 13.8548 22.2418 13.4441 22.6417 13.3371L24.2361 12.9105L24.8775 15.2014C24.9892 15.6002 25.4033 15.8339 25.8022 15.7222C26.2011 15.6105 26.4339 15.1967 26.3222 14.7978L25.6852 12.5227L27.2433 12.1059Z" fill="black"/>
</svg>
