<svg width="48" height="32" viewBox="0 0 48 32" fill="none" xmlns="http://www.w3.org/2000/svg">
<path fill-rule="evenodd" clip-rule="evenodd" d="M22.0857 8.7815C21.8269 8.45806 21.3549 8.40562 21.0315 8.66437C20.708 8.92313 20.6556 9.39509 20.9143 9.71854L21.9395 11H20C18.3431 11 17 12.3431 17 13.9999V18.9999C17 20.5862 18.2312 21.8849 19.7901 21.9926L19.5792 22.4144C19.3939 22.7849 19.5441 23.2354 19.9146 23.4207C20.2851 23.6059 20.7356 23.4557 20.9208 23.0853L21.4208 22.0853C21.4349 22.0572 21.447 22.0287 21.4572 21.9999H26.5428C26.553 22.0287 26.5651 22.0572 26.5792 22.0853L27.0792 23.0853C27.2644 23.4557 27.7149 23.6059 28.0854 23.4207C28.4559 23.2354 28.6061 22.7849 28.4208 22.4144L28.2099 21.9926C29.7688 21.8849 31 20.5862 31 18.9999V13.9999C31 12.3431 29.6569 11 28 11H26.0605L27.0857 9.71854C27.3444 9.39509 27.292 8.92313 26.9685 8.66437C26.6451 8.40562 26.1731 8.45806 25.9143 8.7815L24.1396 11H23.8604L22.0857 8.7815ZM23.4936 12.5L23.5 12.5H24.5L24.5064 12.5H28C28.8284 12.5 29.5 13.1715 29.5 13.9999V18.9999C29.5 19.8283 28.8284 20.4999 28 20.4999H20C19.1716 20.4999 18.5 19.8283 18.5 18.9999V13.9999C18.5 13.1715 19.1716 12.5 20 12.5H23.4936ZM21.5 15.4999V17.4999H24V15.4999H21.5ZM21 13.9999C20.4477 13.9999 20 14.4477 20 14.9999V17.9999C20 18.5522 20.4477 18.9999 21 18.9999H24.5C25.0523 18.9999 25.5 18.5522 25.5 17.9999V14.9999C25.5 14.4477 25.0523 13.9999 24.5 13.9999H21ZM28 14.7499C28 14.3357 27.6642 13.9999 27.25 13.9999C26.8358 13.9999 26.5 14.3357 26.5 14.7499V18.2499C26.5 18.6641 26.8358 18.9999 27.25 18.9999C27.6642 18.9999 28 18.6641 28 18.2499V14.7499Z" fill="black"/>
</svg>
