<svg width="48" height="32" viewBox="0 0 48 32" fill="none" xmlns="http://www.w3.org/2000/svg">
<path fill-rule="evenodd" clip-rule="evenodd" d="M19 11.5H29C29.8284 11.5 30.5 12.1716 30.5 13V18C30.5 18.8284 29.8284 19.5 29 19.5H28H20H19C18.1716 19.5 17.5 18.8284 17.5 18V13C17.5 12.1716 18.1716 11.5 19 11.5ZM18.7901 20.9928C17.2312 20.885 16 19.5863 16 18V13C16 11.3431 17.3431 10 19 10H29C30.6569 10 32 11.3431 32 13V18C32 19.5863 30.7688 20.885 29.2099 20.9928L29.6708 21.9146C29.8561 22.2851 29.7059 22.7356 29.3354 22.9208C28.9649 23.1061 28.5144 22.9559 28.3292 22.5854L27.5365 21H20.4635L19.6708 22.5854C19.4856 22.9559 19.0351 23.1061 18.6646 22.9208C18.2941 22.7356 18.1439 22.2851 18.3292 21.9146L18.7901 20.9928Z" fill="black"/>
</svg>
