<svg width="48" height="32" viewBox="0 0 48 32" fill="none" xmlns="http://www.w3.org/2000/svg">
<path fill-rule="evenodd" clip-rule="evenodd" d="M27.1835 19.5945C27.1338 19.6142 26.8439 19.7066 26.0697 19.4076C25.1174 19.0399 23.8116 18.1901 22.3108 16.6893C20.8099 15.1884 19.9602 13.8827 19.5924 12.9304C19.2936 12.1565 19.3858 11.8665 19.4055 11.8167C20.9758 10.2818 24.5826 9.80436 26.8891 12.1108C29.2098 14.4316 28.8035 17.9411 27.1835 19.5945ZM21.7897 18.2711C24.7374 21.0183 27.2174 21.6821 28.2176 20.6819C30.2801 18.6195 30.8337 14.5399 28.4528 11.6078L29.0304 11.0302C29.3233 10.7373 29.3233 10.2624 29.0304 9.96952C28.7375 9.67662 28.2626 9.67662 27.9697 9.96952L27.3911 10.5482C24.4484 8.1778 20.2862 8.81435 18.3181 10.7825C17.3179 11.7827 17.9818 14.2627 20.729 17.2105L18.4699 19.4695C17.6246 20.3146 17.6246 21.6849 18.4698 22.5301C19.315 23.3753 20.6853 23.3753 21.5304 22.5301L21.7805 22.2801C22.0733 21.9872 22.0733 21.5124 21.7805 21.2195C21.4876 20.9266 21.0127 20.9266 20.7198 21.2195L20.4698 21.4695C20.2104 21.7289 19.7899 21.7289 19.5305 21.4695C19.2711 21.2101 19.2711 20.7895 19.5305 20.5302L21.7897 18.2711Z" fill="black"/>
</svg>
