<svg width="48" height="32" viewBox="0 0 48 32" fill="none" xmlns="http://www.w3.org/2000/svg">
<path fill-rule="evenodd" clip-rule="evenodd" d="M21 10.75C21 10.3358 20.6642 10 20.25 10C19.8358 10 19.5 10.3358 19.5 10.75V15C19.5 17.4853 21.5147 19.5 24 19.5C26.4853 19.5 28.5 17.4853 28.5 15V10.75C28.5 10.3358 28.1642 10 27.75 10C27.3358 10 27 10.3358 27 10.75V15C27 16.6569 25.6569 18 24 18C22.3431 18 21 16.6569 21 15L21 10.75ZM20.25 20.5C19.8358 20.5 19.5 20.8358 19.5 21.25C19.5 21.6642 19.8358 22 20.25 22H27.75C28.1642 22 28.5 21.6642 28.5 21.25C28.5 20.8358 28.1642 20.5 27.75 20.5H20.25Z" fill="black"/>
</svg>
