<svg width="48" height="32" viewBox="0 0 48 32" fill="none" xmlns="http://www.w3.org/2000/svg">
<path fill-rule="evenodd" clip-rule="evenodd" d="M20.5 22.25L20.5 21.5L27.5 21.5L27.5 22.25C27.5 22.6642 27.8358 23 28.25 23C28.6642 23 29 22.6642 29 22.25L29 21.4585C30.4189 21.2205 31.5 19.9865 31.5 18.5L31.5 12.5C31.5 10.8431 30.1569 9.5 28.5 9.5L19.5 9.5C17.8431 9.5 16.5 10.8431 16.5 12.5L16.5 18.5C16.5 19.9865 17.5811 21.2205 19 21.4585L19 22.25C19 22.6642 19.3358 23 19.75 23C20.1642 23 20.5 22.6642 20.5 22.25ZM19.5 20L28.5 20C29.3284 20 30 19.3284 30 18.5L30 12.5C30 11.6716 29.3284 11 28.5 11L19.5 11C18.6716 11 18 11.6716 18 12.5L18 18.5C18 19.3284 18.6716 20 19.5 20ZM24 16.5C24.5523 16.5 25 16.0523 25 15.5C25 14.9477 24.5523 14.5 24 14.5C23.4477 14.5 23 14.9477 23 15.5C23 16.0523 23.4477 16.5 24 16.5ZM26.3843 16.254C26.4595 16.0161 26.5 15.7628 26.5 15.5C26.5 14.9266 26.3069 14.3982 25.9822 13.9764L26.6421 13.034C26.8797 12.6947 26.7972 12.2271 26.4579 11.9895C26.1186 11.7519 25.651 11.8344 25.4134 12.1737L24.7538 13.1156C24.5159 13.0405 24.2627 13 24 13C23.4266 13 22.8983 13.1931 22.4765 13.5177L21.5339 12.8577C21.1946 12.6201 20.7269 12.7026 20.4893 13.0419C20.2518 13.3812 20.3342 13.8489 20.6735 14.0864L21.6157 14.7461C21.5405 14.984 21.5 15.2373 21.5 15.5C21.5 16.0733 21.693 16.6016 22.0176 17.0234L21.3576 17.9659C21.12 18.3052 21.2025 18.7729 21.5418 19.0105C21.8811 19.2481 22.3487 19.1656 22.5863 18.8263L23.2459 17.8843C23.4839 17.9595 23.7372 18 24 18C24.5734 18 25.1017 17.807 25.5234 17.4824L26.4658 18.1422C26.8051 18.3798 27.2728 18.2974 27.5103 17.9581C27.7479 17.6188 27.6655 17.1511 27.3262 16.9135L26.3843 16.254Z" fill="black"/>
</svg>
