<svg width="48" height="32" viewBox="0 0 48 32" fill="none" xmlns="http://www.w3.org/2000/svg">
<path fill-rule="evenodd" clip-rule="evenodd" d="M22.0911 13.1936C22.223 12.98 22.3266 12.7471 22.3965 12.5L25.6035 12.5C25.8625 13.4158 26.5842 14.1375 27.5 14.3965V17.6035C26.5842 17.8625 25.8625 18.5842 25.6035 19.5H22.3965C22.2073 18.8313 21.7715 18.2661 21.1936 17.9089C20.98 17.777 20.7471 17.6734 20.5 17.6035V14.3965C21.1687 14.2073 21.7339 13.7715 22.0911 13.1936ZM29 14.3965V17.6035C29.2471 17.6734 29.48 17.777 29.6936 17.9089C30.4776 18.3934 31 19.2607 31 20.25C31 20.7795 30.8504 21.274 30.5911 21.6936C30.1066 22.4776 29.2393 23 28.25 23C26.9912 23 25.93 22.1543 25.6035 21H22.3965C22.3266 21.2471 22.223 21.48 22.0911 21.6936C21.6066 22.4776 20.7393 23 19.75 23C18.2312 23 17 21.7688 17 20.25C17 18.9912 17.8457 17.93 19 17.6035V14.3965C17.8457 14.07 17 13.0088 17 11.75C17 10.2312 18.2312 9 19.75 9C20.2795 9 20.774 9.14963 21.1936 9.40892C21.7715 9.76606 22.2073 10.3313 22.3965 11L25.6035 11C25.93 9.84575 26.9912 9 28.25 9C28.7795 9 29.274 9.14963 29.6936 9.40892C30.4776 9.89339 31 10.7607 31 11.75C31 12.2795 30.8504 12.774 30.5911 13.1936C30.2339 13.7715 29.6687 14.2073 29 14.3965ZM19.75 10.5C20.4404 10.5 21 11.0596 21 11.75C21 12.4404 20.4404 13 19.75 13C19.0596 13 18.5 12.4404 18.5 11.75C18.5 11.0596 19.0596 10.5 19.75 10.5ZM21 20.25C21 19.5596 20.4404 19 19.75 19C19.0596 19 18.5 19.5596 18.5 20.25C18.5 20.9404 19.0596 21.5 19.75 21.5C20.4404 21.5 21 20.9404 21 20.25ZM28.25 19C28.9404 19 29.5 19.5596 29.5 20.25C29.5 20.9404 28.9404 21.5 28.25 21.5C27.5596 21.5 27 20.9404 27 20.25C27 19.5596 27.5596 19 28.25 19ZM29.5 11.75C29.5 11.0596 28.9404 10.5 28.25 10.5C27.5596 10.5 27 11.0596 27 11.75C27 12.4404 27.5596 13 28.25 13C28.9404 13 29.5 12.4404 29.5 11.75Z" fill="black"/>
</svg>
