<svg width="48" height="32" viewBox="0 0 48 32" fill="none" xmlns="http://www.w3.org/2000/svg">
<path fill-rule="evenodd" clip-rule="evenodd" d="M24 13.5C23.4705 13.5 22.976 13.3504 22.5564 13.0911C22.183 12.8603 21.8689 12.5427 21.6423 12.1664C21.0425 12.536 20.536 13.0425 20.1664 13.6423C20.9655 14.1234 21.5 14.9993 21.5 16C21.5 16.5295 21.3504 17.024 21.0911 17.4436C20.8603 17.817 20.5427 18.1311 20.1664 18.3577C20.536 18.9575 21.0425 19.464 21.6423 19.8336C22.1234 19.0345 22.9993 18.5 24 18.5C25.0007 18.5 25.8766 19.0345 26.3577 19.8337C26.9575 19.464 27.464 18.9575 27.8337 18.3577C27.8246 18.3522 27.8155 18.3467 27.8064 18.3411C27.0224 17.8566 26.5 16.9893 26.5 16C26.5 14.9993 27.0345 14.1234 27.8337 13.6423C27.464 13.0425 26.9575 12.536 26.3577 12.1663C26.3522 12.1755 26.3467 12.1845 26.3411 12.1936C25.8566 12.9776 24.9893 13.5 24 13.5ZM26.7487 10.6652C26.7039 9.18567 25.4904 8 24 8C22.5096 8 21.2961 9.18568 21.2513 10.6653C20.1437 11.2371 19.2371 12.1437 18.6653 13.2513C17.1857 13.2961 16 14.5096 16 16C16 16.9893 16.5224 17.8566 17.3064 18.3411C17.7035 18.5865 18.1678 18.7337 18.6653 18.7487C19.2371 19.8563 20.1437 20.7629 21.2513 21.3347C21.2802 22.2887 21.7949 23.1205 22.5564 23.5911C22.976 23.8504 23.4705 24 24 24C24.9893 24 25.8566 23.4776 26.3411 22.6936C26.5865 22.2965 26.7337 21.8322 26.7487 21.3348C27.8563 20.7629 28.7629 19.8563 29.3348 18.7487C30.2887 18.7198 31.1205 18.2051 31.5911 17.4436C31.8504 17.024 32 16.5295 32 16C32 14.5096 30.8143 13.2961 29.3348 13.2513C28.7629 12.1437 27.8563 11.2371 26.7487 10.6652ZM25.25 10.75C25.25 11.4404 24.6904 12 24 12C23.3096 12 22.75 11.4404 22.75 10.75C22.75 10.0596 23.3096 9.5 24 9.5C24.6904 9.5 25.25 10.0596 25.25 10.75ZM20 16C20 16.6904 19.4404 17.25 18.75 17.25C18.0596 17.25 17.5 16.6904 17.5 16C17.5 15.3096 18.0596 14.75 18.75 14.75C19.4404 14.75 20 15.3096 20 16ZM25.25 21.25C25.25 21.9404 24.6904 22.5 24 22.5C23.3096 22.5 22.75 21.9404 22.75 21.25C22.75 20.5596 23.3096 20 24 20C24.6904 20 25.25 20.5596 25.25 21.25ZM29.25 17.25C29.9404 17.25 30.5 16.6904 30.5 16C30.5 15.3096 29.9404 14.75 29.25 14.75C28.5596 14.75 28 15.3096 28 16C28 16.6904 28.5596 17.25 29.25 17.25Z" fill="black"/>
</svg>
