<svg width="48" height="32" viewBox="0 0 48 32" fill="none" xmlns="http://www.w3.org/2000/svg">
<path fill-rule="evenodd" clip-rule="evenodd" d="M19 12.5H24.5C25.3284 12.5 26 13.1716 26 14V14.5V17.5V18C26 18.8284 25.3284 19.5 24.5 19.5H19C18.1716 19.5 17.5 18.8284 17.5 18V14C17.5 13.1716 18.1716 12.5 19 12.5ZM27.452 18.5372C27.1989 19.9377 25.9735 21 24.5 21H19C17.3431 21 16 19.6569 16 18V14C16 12.3431 17.3431 11 19 11H24.5C25.9735 11 27.1989 12.0623 27.452 13.4628L29.0063 12.3527C29.3274 12.1233 29.7121 12 30.1067 12C31.1524 12 32 12.8476 32 13.8933V18.1067C32 19.1524 31.1524 20 30.1067 20C29.7121 20 29.3274 19.8767 29.0063 19.6473L27.452 18.5372ZM27.5 16.7281L29.8781 18.4267C29.9448 18.4744 30.0248 18.5 30.1067 18.5C30.3239 18.5 30.5 18.3239 30.5 18.1067V13.8933C30.5 13.6761 30.3239 13.5 30.1067 13.5C30.0248 13.5 29.9448 13.5256 29.8781 13.5733L27.5 15.2719V16.7281Z" fill="black"/>
</svg>
