<svg width="48" height="56" viewBox="0 0 48 56" fill="none" xmlns="http://www.w3.org/2000/svg">
<g clip-path="url(#clip0_74_2767)">
<path fill-rule="evenodd" clip-rule="evenodd" d="M21.0607 17.9393C20.7794 17.658 20.3978 17.5 20 17.5H18C17.7239 17.5 17.5 17.2761 17.5 17V15C17.5 14.7239 17.7239 14.5 18 14.5H20C20.3978 14.5 20.7794 14.342 21.0607 14.0607L23.5429 11.5784C23.5931 11.5282 23.6612 11.5 23.7322 11.5C23.8801 11.5 24 11.6199 24 11.7678V20.2322C24 20.3801 23.8801 20.5 23.7322 20.5C23.6612 20.5 23.5931 20.4718 23.5429 20.4216L21.0607 17.9393ZM18 13H20L22.4822 10.5178C22.8138 10.1862 23.2634 10 23.7322 10C24.7085 10 25.5 10.7915 25.5 11.7678V20.2322C25.5 21.2085 24.7085 22 23.7322 22C23.2634 22 22.8138 21.8138 22.4822 21.4822L20 19H18C16.8954 19 16 18.1046 16 17V15C16 13.8954 16.8954 13 18 13ZM30.1617 21.1026C29.8974 21.4215 29.4194 21.4195 29.1265 21.1266C28.8336 20.8337 28.8376 20.3612 29.095 20.0367C29.9746 18.9279 30.5 17.5253 30.5 16.0001C30.5 14.4748 29.9746 13.0722 29.095 11.9634C28.8376 11.6389 28.8336 11.1664 29.1265 10.8735C29.4194 10.5806 29.8974 10.5786 30.1617 10.8975C31.3099 12.2823 32 14.0606 32 16.0001C32 17.9395 31.3099 19.7178 30.1617 21.1026ZM28.0244 18.9677C27.7783 19.3009 27.2981 19.2981 27.0052 19.0053C26.7123 18.7124 26.7207 18.2406 26.9449 17.8923C27.2962 17.3467 27.5 16.6972 27.5 16.0001C27.5 15.3029 27.2962 14.6534 26.9449 14.1078C26.7207 13.7596 26.7123 13.2877 27.0052 12.9948C27.2981 12.702 27.7783 12.6992 28.0244 13.0324C28.6376 13.8624 29 14.8889 29 16.0001C29 17.1112 28.6376 18.1377 28.0244 18.9677Z" fill="black"/>
</g>
<g clip-path="url(#clip1_74_2767)">
<path fill-rule="evenodd" clip-rule="evenodd" d="M18 37H20L22.4822 34.5178C22.8138 34.1862 23.2634 34 23.7322 34C24.7085 34 25.5 34.7915 25.5 35.7678V44.2322C25.5 45.2085 24.7085 46 23.7322 46C23.2634 46 22.8138 45.8138 22.4822 45.4822L20 43H18C16.8954 43 16 42.1046 16 41V39C16 37.8954 16.8954 37 18 37ZM30.1617 45.1026C29.8974 45.4215 29.4194 45.4195 29.1265 45.1266C28.8336 44.8337 28.8376 44.3612 29.095 44.0367C29.9746 42.9279 30.5 41.5253 30.5 40.0001C30.5 38.4748 29.9746 37.0722 29.095 35.9634C28.8376 35.6389 28.8336 35.1664 29.1265 34.8735C29.4194 34.5806 29.8974 34.5786 30.1617 34.8975C31.3099 36.2823 32 38.0606 32 40.0001C32 41.9395 31.3099 43.7178 30.1617 45.1026ZM28.0244 42.9677C27.7783 43.3009 27.2981 43.2981 27.0052 43.0053C26.7123 42.7124 26.7207 42.2406 26.9449 41.8923C27.2962 41.3467 27.5 40.6972 27.5 40.0001C27.5 39.3029 27.2962 38.6534 26.9449 38.1078C26.7207 37.7596 26.7123 37.2877 27.0052 36.9948C27.2981 36.702 27.7783 36.6992 28.0244 37.0324C28.6376 37.8624 29 38.8889 29 40.0001C29 41.1112 28.6376 42.1377 28.0244 42.9677Z" fill="black"/>
</g>
<defs>
<clipPath id="clip0_74_2767">
<rect width="16" height="16" fill="white" transform="translate(16 8)"/>
</clipPath>
<clipPath id="clip1_74_2767">
<rect width="16" height="16" fill="white" transform="translate(16 32)"/>
</clipPath>
</defs>
</svg>
