<svg width="48" height="32" viewBox="0 0 48 32" fill="none" xmlns="http://www.w3.org/2000/svg">
<path fill-rule="evenodd" clip-rule="evenodd" d="M21.0607 17.9393C20.7794 17.658 20.3978 17.5 20 17.5H18C17.7239 17.5 17.5 17.2761 17.5 17V15C17.5 14.7239 17.7239 14.5 18 14.5H20C20.3978 14.5 20.7794 14.342 21.0607 14.0607L23.5429 11.5784C23.5931 11.5282 23.6612 11.5 23.7322 11.5C23.8801 11.5 24 11.6199 24 11.7678V20.2322C24 20.3801 23.8801 20.5 23.7322 20.5C23.6612 20.5 23.5931 20.4718 23.5429 20.4216L21.0607 17.9393ZM18 13H20L22.4822 10.5178C22.8138 10.1862 23.2634 10 23.7322 10C24.7085 10 25.5 10.7915 25.5 11.7678V20.2322C25.5 21.2085 24.7085 22 23.7322 22C23.2634 22 22.8138 21.8138 22.4822 21.4822L20 19H18C16.8954 19 16 18.1046 16 17V15C16 13.8954 16.8954 13 18 13Z" fill="black"/>
</svg>
