<svg width="48" height="32" viewBox="0 0 48 32" fill="none" xmlns="http://www.w3.org/2000/svg">
<path fill-rule="evenodd" clip-rule="evenodd" d="M21.0607 17.9393C20.7794 17.658 20.3978 17.5 20 17.5H18C17.7239 17.5 17.5 17.2761 17.5 17V15C17.5 14.7239 17.7239 14.5 18 14.5H20C20.3978 14.5 20.7794 14.342 21.0607 14.0607L23.5429 11.5784C23.5931 11.5282 23.6612 11.5 23.7322 11.5C23.8801 11.5 24 11.6199 24 11.7678V20.2322C24 20.3801 23.8801 20.5 23.7322 20.5C23.6612 20.5 23.5931 20.4718 23.5429 20.4216L21.0607 17.9393ZM18 13H20L22.4822 10.5178C22.8138 10.1862 23.2634 10 23.7322 10C24.7085 10 25.5 10.7915 25.5 11.7678V20.2322C25.5 21.2085 24.7085 22 23.7322 22C23.2634 22 22.8138 21.8138 22.4822 21.4822L20 19H18C16.8954 19 16 18.1046 16 17V15C16 13.8954 16.8954 13 18 13ZM28.2803 13.7197C27.9874 13.4268 27.5126 13.4268 27.2197 13.7197C26.9268 14.0126 26.9268 14.4874 27.2197 14.7803L28.4393 16L27.2197 17.2197C26.9268 17.5126 26.9268 17.9874 27.2197 18.2803C27.5126 18.5732 27.9874 18.5732 28.2803 18.2803L29.5 17.0607L30.7197 18.2803C31.0126 18.5732 31.4874 18.5732 31.7803 18.2803C32.0732 17.9874 32.0732 17.5126 31.7803 17.2197L30.5607 16L31.7803 14.7803C32.0732 14.4874 32.0732 14.0126 31.7803 13.7197C31.4874 13.4268 31.0126 13.4268 30.7197 13.7197L29.5 14.9393L28.2803 13.7197Z" fill="black"/>
</svg>
