<svg width="48" height="32" viewBox="0 0 48 32" fill="none" xmlns="http://www.w3.org/2000/svg">
<path fill-rule="evenodd" clip-rule="evenodd" d="M23.25 12.8855C23.0044 12.8084 22.7751 12.6944 22.5687 12.55C21.9226 12.098 21.5 11.3483 21.5 10.5C21.5 9.11929 22.6193 8 24 8C25.3807 8 26.5 9.11929 26.5 10.5C26.5 11.0324 26.3336 11.5259 26.05 11.9313C25.7372 12.3784 25.2819 12.7185 24.75 12.8855V14H27.6536C28.7511 14 29.7202 14.7158 30.043 15.7648L31.4039 20.1877C31.4676 20.3947 31.5 20.6101 31.5 20.8268C31.5 22.027 30.527 23 29.3268 23H18.6732C17.473 23 16.5 22.027 16.5 20.8268C16.5 20.6101 16.5324 20.3947 16.5961 20.1877L16.8485 19.3675L17.957 15.7648C18.2798 14.7158 19.2489 14 20.3464 14H23.25V12.8855ZM25 10.5C25 11.0523 24.5523 11.5 24 11.5C23.4477 11.5 23 11.0523 23 10.5C23 9.94772 23.4477 9.5 24 9.5C24.5523 9.5 25 9.94772 25 10.5ZM20.3464 15.5C19.9074 15.5 19.5198 15.7863 19.3907 16.2059L18.0298 20.6288C18.01 20.6929 18 20.7597 18 20.8268C18 21.1986 18.3014 21.5 18.6732 21.5H29.3268C29.6986 21.5 30 21.1986 30 20.8268C30 20.7597 29.99 20.6929 29.9702 20.6288L28.6093 16.2059C28.4802 15.7863 28.0926 15.5 27.6536 15.5H20.3464Z" fill="black"/>
</svg>
