<svg width="48" height="32" viewBox="0 0 48 32" fill="none" xmlns="http://www.w3.org/2000/svg">
<path fill-rule="evenodd" clip-rule="evenodd" d="M24.581 17.2976L25.3569 17.4413C25.5643 17.4797 25.7791 17.5 26 17.5C27.933 17.5 29.5 15.933 29.5 14C29.5 13.8823 29.49 13.7641 29.4728 13.6485L28.0825 15.0388C27.7872 15.3341 27.3867 15.5 26.9691 15.5C25.6055 15.5 24.5 14.3945 24.5 13.0309C24.5 12.6133 24.6659 12.2128 24.9612 11.9175L26.3515 10.5272C26.2359 10.51 26.1177 10.5 26 10.5C24.067 10.5 22.5 12.067 22.5 14C22.5 14.2209 22.5203 14.4357 22.5587 14.6431L22.7024 15.419L18.8891 19.2322C18.64 19.4814 18.5 19.8193 18.5 20.1716C18.5 20.9052 19.0948 21.5 19.8284 21.5C20.1807 21.5 20.5186 21.36 20.7678 21.1109L24.581 17.2976ZM28.3979 10.5107C28.5435 10.1434 28.3977 9.69887 28.014 9.50704C28.0047 9.50238 27.9959 9.49778 27.9867 9.49293C27.8708 9.43195 27.0141 9 26 9C23.2386 9 21 11.2386 21 14C21 14.313 21.0288 14.6192 21.0838 14.9162L17.8284 18.1716C17.298 18.702 17 19.4214 17 20.1716C17 21.7337 18.2663 23 19.8284 23C20.5786 23 21.298 22.702 21.8284 22.1716L25.0838 18.9162C25.3808 18.9712 25.687 19 26 19C28.7614 19 31 16.7614 31 14C31 12.9858 30.568 12.1291 30.5071 12.0133C30.5023 12.0041 30.4977 11.9953 30.493 11.986C30.3012 11.6023 29.8566 11.4565 29.4893 11.6021C29.3923 11.6406 29.3007 11.6994 29.2205 11.7795L27.0218 13.9782C27.0079 13.9921 26.9889 14 26.9691 14C26.4339 14 26 13.5661 26 13.0309C26 13.0111 26.0079 12.9921 26.0218 12.9782L28.2205 10.7795C28.3006 10.6994 28.3595 10.6077 28.3979 10.5107Z" fill="black"/>
</svg>
