<svg width="48" height="32" viewBox="0 0 48 32" fill="none" xmlns="http://www.w3.org/2000/svg">
<path fill-rule="evenodd" clip-rule="evenodd" d="M19.4697 11.4697C19.7626 11.1768 20.2374 11.1768 20.5303 11.4697L24 14.9393L27.4697 11.4697C27.7626 11.1768 28.2374 11.1768 28.5303 11.4697C28.8232 11.7626 28.8232 12.2374 28.5303 12.5303L25.0607 16L28.5303 19.4697C28.8232 19.7626 28.8232 20.2374 28.5303 20.5303C28.2374 20.8232 27.7626 20.8232 27.4697 20.5303L24 17.0607L20.5303 20.5303C20.2374 20.8232 19.7626 20.8232 19.4697 20.5303C19.1768 20.2374 19.1768 19.7626 19.4697 19.4697L22.9393 16L19.4697 12.5303C19.1768 12.2374 19.1768 11.7626 19.4697 11.4697Z" fill="black"/>
</svg>
