<svg width="279" height="62" viewBox="0 0 279 62" fill="none" xmlns="http://www.w3.org/2000/svg">
<path d="M31.5718 27.2208C31.6473 27.778 31.6895 28.3724 31.6895 29.0127C31.6895 33.3441 30.0547 35.8608 26.1734 35.8608C22.2398 35.8608 20.6574 33.3441 20.6574 29.0127C20.6574 24.6841 22.343 22.2161 26.1734 22.2161C26.9131 22.2161 27.5713 22.3106 28.154 22.4897C29.6987 21.9726 31.4279 21.6976 33.3257 21.6976C34.6233 21.6976 35.8425 21.8279 36.9774 22.0786C34.9517 18.4747 31.1736 16.478 26.2243 16.478C18.5111 16.478 13.71 21.1103 13.71 29.0628C13.71 36.9179 18.3585 41.7006 26.2243 41.7006C33.9375 41.7006 38.6354 36.9179 38.6354 29.0628C38.6354 28.424 38.5933 27.8152 38.5322 27.2208H31.5718Z" fill="#6F04D7"/>
<path d="M33.3239 22.6328C25.6107 22.6328 20.8096 27.2651 20.8096 35.219C20.8096 36.723 20.9825 38.1124 21.3138 39.3786H28.5373C28.004 38.2814 27.757 36.8662 27.757 35.1689C27.757 30.8403 29.4426 28.3723 33.273 28.3723C37.1035 28.3723 38.7891 30.8388 38.7891 35.1689C38.7891 39.5004 37.1543 42.017 33.273 42.017C32.606 42.017 32.0117 41.9383 31.4755 41.7979C29.9149 42.3479 28.1566 42.6373 26.2225 42.6373C24.8769 42.6373 23.6214 42.4897 22.4501 42.2233C24.4467 45.8142 28.1958 47.8582 33.3224 47.8582C41.0356 47.8582 45.7336 43.0756 45.7336 35.2205C45.735 27.2651 40.883 22.6328 33.3239 22.6328Z" fill="#6F04D7"/>
<path d="M61.6455 35.4056V45.2789H54.1328V14.4229H76.7754V21.2108H61.6455V28.9757H75.4196V35.4042H61.6455V35.4056Z" fill="#6F04D7"/>
<path d="M85.7509 45.2787H78.6553V12.2627H85.7509V45.2787Z" fill="#6F04D7"/>
<path d="M87.5781 33.0908C87.5781 24.965 92.4824 20.2339 100.36 20.2339C108.082 20.2339 113.038 24.965 113.038 33.0908C113.038 41.1135 108.239 45.9993 100.36 45.9993C92.3269 45.9979 87.5781 41.1135 87.5781 33.0908ZM94.6737 33.0392C94.6737 37.4624 96.2911 40.0335 100.309 40.0335C104.275 40.0335 105.944 37.4624 105.944 33.0392C105.944 28.6161 104.222 26.0966 100.309 26.0966C96.3957 26.0966 94.6737 28.6161 94.6737 33.0392Z" fill="#6F04D7"/>
<path d="M114.606 33.0908C114.606 24.965 119.511 20.2339 127.388 20.2339C135.11 20.2339 140.065 24.965 140.065 33.0908C140.065 41.1135 135.266 45.9993 127.388 45.9993C119.355 45.9979 114.606 41.1135 114.606 33.0908ZM121.702 33.0392C121.702 37.4624 123.319 40.0335 127.337 40.0335C131.303 40.0335 132.972 37.4624 132.972 33.0392C132.972 28.6161 131.251 26.0966 127.337 26.0966C123.424 26.0966 121.702 28.6161 121.702 33.0392Z" fill="#6F04D7"/>
<path d="M141.636 33.605C141.636 25.1713 146.28 20.2339 154.314 20.2339C161.932 20.2339 165.531 24.657 165.531 31.3935C165.531 32.4219 165.479 33.3988 165.374 34.685H148.627C149.044 38.5925 150.87 40.3415 154.262 40.3415C157.601 40.3415 158.645 38.7988 159.271 36.9467L165.219 38.541C164.123 42.7579 161.253 45.9463 154.21 45.9463C146.748 45.9477 141.636 41.8841 141.636 33.605ZM148.679 31.1371H159.009C158.905 27.3313 157.287 25.4806 154.105 25.4806C150.87 25.4792 149.044 27.125 148.679 31.1371Z" fill="#6F04D7"/>
<path d="M174.454 45.2788H167.358V20.9028H174.297V27.4344H174.766C176.227 22.7033 179.254 20.2339 183.115 20.2339C187.862 20.2339 190.263 23.4725 190.263 28.7708V45.2788H183.167V30.726C183.167 28.258 182.019 26.5592 179.411 26.5592C176.385 26.5592 174.454 28.6677 174.454 31.7014V45.2788Z" fill="#6F04D7"/>
<path d="M204.353 26.3545C201.066 26.3545 199.031 28.4113 199.031 33.0407C199.031 37.3608 200.806 39.8803 204.457 39.8803C207.64 39.8803 208.84 37.7719 209.362 35.2523L215.883 36.795C215.049 42.4528 211.553 46.0008 204.51 46.0008C196.685 46.0008 191.78 41.7323 191.78 33.4017C191.78 25.1212 196.58 20.2368 204.459 20.2368C211.815 20.2368 214.946 23.6831 215.832 29.5973L209.258 30.8306C208.631 28.2051 207.483 26.3545 204.353 26.3545Z" fill="#6F04D7"/>
<path d="M217.608 33.605C217.608 25.1713 222.251 20.2339 230.287 20.2339C237.904 20.2339 241.504 24.657 241.504 31.3935C241.504 32.4219 241.451 33.3988 241.347 34.685H224.599C225.016 38.5925 226.843 40.3415 230.235 40.3415C233.574 40.3415 234.617 38.7988 235.244 36.9467L241.191 38.541C240.096 42.7579 237.226 45.9463 230.182 45.9463C222.72 45.9477 217.608 41.8841 217.608 33.605ZM224.652 31.1371H234.982C234.877 27.3313 233.26 25.4806 230.078 25.4806C226.843 25.4792 225.016 27.125 224.652 31.1371Z" fill="#6F04D7"/>
<path d="M243.331 45.2789V20.9028H250.062V28.8224H250.636C252.201 22.0344 254.288 20.645 257.522 20.645H258.253V28.6677H256.793C251.836 28.6677 250.428 30.1072 250.428 34.4273V45.2789H243.331Z" fill="#6F04D7"/>
<path d="M261.856 37.9248V45.2786H254.134V37.9248H261.856Z" fill="#6F04D7"/>
</svg>
