<svg width="279" height="63" viewBox="0 0 279 63" fill="none" xmlns="http://www.w3.org/2000/svg">
<path d="M32.8618 29.1992C32.9374 29.7654 32.9795 30.3694 32.9795 31.02C32.9795 35.4214 31.3447 37.9786 27.4635 37.9786C23.5298 37.9786 21.9474 35.4214 21.9474 31.02C21.9474 26.6216 23.633 24.1138 27.4635 24.1138C28.2031 24.1138 28.8614 24.2099 29.4441 24.3918C30.9887 23.8664 32.718 23.5869 34.6157 23.5869C35.9134 23.5869 37.1325 23.7194 38.2674 23.9741C36.2418 20.3121 32.4637 18.2832 27.5143 18.2832C19.8011 18.2832 15 22.9902 15 31.071C15 39.0528 19.6485 43.9126 27.5143 43.9126C35.2275 43.9126 39.9255 39.0528 39.9255 31.071C39.9255 30.4218 39.8833 29.8032 39.8223 29.1992H32.8618Z" fill="white"/>
<path d="M34.6139 24.5376C26.9007 24.5376 22.0996 29.2446 22.0996 37.3268C22.0996 38.8551 22.2725 40.2669 22.6038 41.5535H29.8273C29.294 40.4386 29.047 39.0006 29.047 37.2759C29.047 32.8774 30.7326 30.3697 34.5631 30.3697C38.3935 30.3697 40.0791 32.876 40.0791 37.2759C40.0791 41.6772 38.4444 44.2345 34.5631 44.2345C33.8961 44.2345 33.3017 44.1544 32.7655 44.0118C31.2049 44.5707 29.4466 44.8647 27.5125 44.8647C26.1669 44.8647 24.9114 44.7148 23.7402 44.4441C25.7368 48.0929 29.4858 50.1699 34.6125 50.1699C42.3257 50.1699 47.0236 45.3101 47.0236 37.3283C47.0251 29.2446 42.1731 24.5376 34.6139 24.5376Z" fill="white"/>
<path d="M62.9355 37.516V47.5485H55.4229V16.1948H78.0654V23.0923H62.9355V30.9824H76.7097V37.5145H62.9355V37.516Z" fill="white"/>
<path d="M87.0409 47.5486H79.9453V14H87.0409V47.5486Z" fill="white"/>
<path d="M88.8682 35.1639C88.8682 26.907 93.7725 22.0996 101.65 22.0996C109.372 22.0996 114.328 26.907 114.328 35.1639C114.328 43.316 109.529 48.2806 101.65 48.2806C93.617 48.2791 88.8682 43.316 88.8682 35.1639ZM95.9638 35.1115C95.9638 39.606 97.5811 42.2186 101.599 42.2186C105.565 42.2186 107.234 39.606 107.234 35.1115C107.234 30.617 105.512 28.0568 101.599 28.0568C97.6857 28.0568 95.9638 30.617 95.9638 35.1115Z" fill="white"/>
<path d="M115.896 35.1639C115.896 26.907 120.801 22.0996 128.678 22.0996C136.4 22.0996 141.355 26.907 141.355 35.1639C141.355 43.316 136.556 48.2806 128.678 48.2806C120.645 48.2791 115.896 43.316 115.896 35.1639ZM122.992 35.1115C122.992 39.606 124.609 42.2186 128.627 42.2186C132.593 42.2186 134.263 39.606 134.263 35.1115C134.263 30.617 132.541 28.0568 128.627 28.0568C124.714 28.0568 122.992 30.617 122.992 35.1115Z" fill="white"/>
<path d="M142.926 35.6864C142.926 27.1166 147.57 22.0996 155.604 22.0996C163.222 22.0996 166.821 26.5941 166.821 33.4392C166.821 34.4842 166.769 35.4768 166.664 36.7838H149.917C150.334 40.7544 152.16 42.5315 155.552 42.5315C158.891 42.5315 159.935 40.9639 160.561 39.082L166.509 40.702C165.413 44.9869 162.543 48.2267 155.5 48.2267C148.038 48.2282 142.926 44.099 142.926 35.6864ZM149.969 33.1786H160.299C160.195 29.3115 158.577 27.431 155.395 27.431C152.16 27.4295 150.334 29.1019 149.969 33.1786Z" fill="white"/>
<path d="M175.744 47.5485H168.648V22.7793H175.587V29.4163H176.056C177.517 24.6088 180.544 22.0996 184.405 22.0996C189.152 22.0996 191.553 25.3904 191.553 30.7742V47.5485H184.457V32.7609C184.457 30.2532 183.309 28.527 180.701 28.527C177.675 28.527 175.744 30.6694 175.744 33.7521V47.5485Z" fill="white"/>
<path d="M205.643 28.3189C202.356 28.3189 200.321 30.4089 200.321 35.113C200.321 39.5027 202.096 42.0629 205.747 42.0629C208.93 42.0629 210.13 39.9204 210.652 37.3602L217.173 38.9278C216.339 44.6769 212.843 48.2821 205.8 48.2821C197.975 48.2821 193.07 43.9448 193.07 35.4798C193.07 27.0657 197.87 22.1025 205.749 22.1025C213.105 22.1025 216.236 25.6044 217.122 31.614L210.549 32.8672C209.921 30.1993 208.773 28.3189 205.643 28.3189Z" fill="white"/>
<path d="M218.898 35.6864C218.898 27.1166 223.541 22.0996 231.577 22.0996C239.194 22.0996 242.794 26.5941 242.794 33.4392C242.794 34.4842 242.741 35.4768 242.637 36.7838H225.889C226.306 40.7544 228.133 42.5315 231.525 42.5315C234.864 42.5315 235.907 40.9639 236.534 39.082L242.481 40.702C241.386 44.9869 238.516 48.2267 231.472 48.2267C224.011 48.2282 218.898 44.099 218.898 35.6864ZM225.942 33.1786H236.272C236.167 29.3115 234.55 27.431 231.368 27.431C228.133 27.4295 226.306 29.1019 225.942 33.1786Z" fill="white"/>
<path d="M244.621 47.5487V22.7796H251.352V30.8269H251.926C253.491 23.9294 255.578 22.5176 258.812 22.5176H259.543V30.6697H258.083C253.126 30.6697 251.718 32.1324 251.718 36.5221V47.5487H244.621Z" fill="white"/>
<path d="M263.146 40.0762V47.5486H255.424V40.0762H263.146Z" fill="white"/>
</svg>
