<svg width="279" height="63" viewBox="0 0 279 63" fill="none" xmlns="http://www.w3.org/2000/svg">
<path d="M31.5718 27.6597C31.6473 28.2259 31.6895 28.8299 31.6895 29.4805C31.6895 33.8818 30.0547 36.4391 26.1734 36.4391C22.2398 36.4391 20.6574 33.8818 20.6574 29.4805C20.6574 25.082 22.343 22.5743 26.1734 22.5743C26.9131 22.5743 27.5713 22.6703 28.154 22.8523C29.6987 22.3268 31.4279 22.0474 33.3257 22.0474C34.6233 22.0474 35.8425 22.1798 36.9774 22.4345C34.9517 18.7726 31.1736 16.7437 26.2243 16.7437C18.5111 16.7437 13.71 21.4506 13.71 29.5314C13.71 37.5132 18.3585 42.373 26.2243 42.373C33.9375 42.373 38.6354 37.5132 38.6354 29.5314C38.6354 28.8823 38.5933 28.2637 38.5322 27.6597H31.5718Z" fill="#0F0F0F"/>
<path d="M33.3239 22.998C25.6107 22.998 20.8096 27.705 20.8096 35.7873C20.8096 37.3155 20.9825 38.7273 21.3138 40.0139H28.5373C28.004 38.8991 27.757 37.461 27.757 35.7363C27.757 31.3379 29.4426 28.8301 33.273 28.8301C37.1035 28.8301 38.7891 31.3364 38.7891 35.7363C38.7891 40.1377 37.1543 42.6949 33.273 42.6949C32.606 42.6949 32.0117 42.6149 31.4755 42.4722C29.9149 43.0311 28.1566 43.3251 26.2225 43.3251C24.8769 43.3251 23.6214 43.1752 22.4501 42.9045C24.4467 46.5534 28.1958 48.6303 33.3224 48.6303C41.0356 48.6303 45.7336 43.7705 45.7336 35.7887C45.735 27.705 40.883 22.998 33.3239 22.998Z" fill="#0F0F0F"/>
<path d="M61.6455 35.9764V46.009H54.1328V14.6553H76.7754V21.5527H61.6455V29.4428H75.4196V35.975H61.6455V35.9764Z" fill="#0F0F0F"/>
<path d="M85.7509 46.009H78.6553V12.4604H85.7509V46.009Z" fill="#0F0F0F"/>
<path d="M87.5781 33.6244C87.5781 25.3675 92.4824 20.5601 100.36 20.5601C108.082 20.5601 113.038 25.3675 113.038 33.6244C113.038 41.7764 108.239 46.741 100.36 46.741C92.3269 46.7396 87.5781 41.7764 87.5781 33.6244ZM94.6737 33.572C94.6737 38.0664 96.2911 40.679 100.309 40.679C104.275 40.679 105.944 38.0664 105.944 33.572C105.944 29.0775 104.222 26.5173 100.309 26.5173C96.3957 26.5173 94.6737 29.0775 94.6737 33.572Z" fill="#0F0F0F"/>
<path d="M114.606 33.6244C114.606 25.3675 119.511 20.5601 127.388 20.5601C135.11 20.5601 140.065 25.3675 140.065 33.6244C140.065 41.7764 135.266 46.741 127.388 46.741C119.355 46.7396 114.606 41.7764 114.606 33.6244ZM121.702 33.572C121.702 38.0664 123.319 40.679 127.337 40.679C131.303 40.679 132.972 38.0664 132.972 33.572C132.972 29.0775 131.251 26.5173 127.337 26.5173C123.424 26.5173 121.702 29.0775 121.702 33.572Z" fill="#0F0F0F"/>
<path d="M141.636 34.1469C141.636 25.5771 146.28 20.5601 154.314 20.5601C161.932 20.5601 165.531 25.0545 165.531 31.8996C165.531 32.9446 165.479 33.9373 165.374 35.2443H148.627C149.044 39.2148 150.87 40.9919 154.262 40.9919C157.601 40.9919 158.645 39.4244 159.271 37.5425L165.219 39.1624C164.123 43.4473 161.253 46.6872 154.21 46.6872C146.748 46.6886 141.636 42.5595 141.636 34.1469ZM148.679 31.6391H159.009C158.905 27.7719 157.287 25.8914 154.105 25.8914C150.87 25.89 149.044 27.5623 148.679 31.6391Z" fill="#0F0F0F"/>
<path d="M174.454 46.0089H167.358V21.2398H174.297V27.8767H174.766C176.227 23.0693 179.254 20.5601 183.115 20.5601C187.862 20.5601 190.263 23.8509 190.263 29.2347V46.0089H183.167V31.2214C183.167 28.7136 182.019 26.9874 179.411 26.9874C176.385 26.9874 174.454 29.1299 174.454 32.2126V46.0089Z" fill="#0F0F0F"/>
<path d="M204.353 26.7793C201.066 26.7793 199.031 28.8694 199.031 33.5734C199.031 37.9631 200.806 40.5233 204.457 40.5233C207.64 40.5233 208.84 38.3808 209.362 35.8207L215.883 37.3882C215.049 43.1373 211.553 46.7425 204.51 46.7425C196.685 46.7425 191.78 42.4052 191.78 33.9402C191.78 25.5261 196.58 20.563 204.459 20.563C211.815 20.563 214.946 24.0648 215.832 30.0745L209.258 31.3276C208.631 28.6598 207.483 26.7793 204.353 26.7793Z" fill="#0F0F0F"/>
<path d="M217.608 34.1469C217.608 25.5771 222.251 20.5601 230.287 20.5601C237.904 20.5601 241.504 25.0545 241.504 31.8996C241.504 32.9446 241.451 33.9373 241.347 35.2443H224.599C225.016 39.2148 226.843 40.9919 230.235 40.9919C233.574 40.9919 234.617 39.4244 235.244 37.5425L241.191 39.1624C240.096 43.4473 237.226 46.6872 230.182 46.6872C222.72 46.6886 217.608 42.5595 217.608 34.1469ZM224.652 31.6391H234.982C234.877 27.7719 233.26 25.8914 230.078 25.8914C226.843 25.89 225.016 27.5623 224.652 31.6391Z" fill="#0F0F0F"/>
<path d="M243.331 46.0092V21.24H250.062V29.2873H250.636C252.201 22.3898 254.288 20.978 257.522 20.978H258.253V29.1301H256.793C251.836 29.1301 250.428 30.5929 250.428 34.9826V46.0092H243.331Z" fill="#0F0F0F"/>
<path d="M261.856 38.5366V46.009H254.134V38.5366H261.856Z" fill="#0F0F0F"/>
</svg>
