<svg width="47" height="47" viewBox="0 0 47 47" fill="none" xmlns="http://www.w3.org/2000/svg">
<path d="M28.7854 9.21923C18.9602 9.21923 12.3542 14.4476 10.7821 23.6195C10.3817 22.2398 10.1942 20.6173 10.1942 18.7753C10.1942 12.2915 12.6676 8.59629 18.2902 8.59629C19.3759 8.59629 20.3414 8.73732 21.1965 9.00611C23.4632 8.23176 26.0007 7.81877 28.7854 7.81877C30.6903 7.81877 32.4789 8.01517 34.1453 8.38836C31.1717 2.99069 25.6284 0 18.3651 0C7.04658 0 0 6.93858 0 18.8506C0 30.6158 6.82211 37.7799 18.3651 37.7799C28.186 37.7799 34.677 32.3866 36.2233 23.2743C36.6163 24.622 36.8058 26.2019 36.8058 27.9954C36.8058 34.4826 34.4067 38.2532 28.7103 38.2532C27.7314 38.2532 26.8599 38.1355 26.0733 37.9241C23.7822 38.7469 21.2022 39.1812 18.3648 39.1812C16.3891 39.1812 14.5469 38.9603 12.8289 38.5609C15.7598 43.9392 21.261 47 28.7851 47C40.1042 47 47 39.8359 47 28.0707C47.0003 16.1578 39.8789 9.21923 28.7854 9.21923ZM20.6266 28.783C20.6186 28.5252 20.6143 28.2628 20.6143 27.9954C20.6143 22.4913 22.3968 18.9977 26.3743 18.067C26.3817 18.2989 26.3857 18.5348 26.3857 18.7753C26.3857 24.2932 24.65 27.8443 20.6266 28.783Z" fill="#6F04D7"/>
</svg>
