<svg width="47" height="46" viewBox="0 0 47 46" fill="none" xmlns="http://www.w3.org/2000/svg">
<path d="M28.7671 9.01306C18.9481 9.01306 12.3463 14.1245 10.7753 23.0913C10.375 21.7425 10.1877 20.1562 10.1877 18.3554C10.1877 12.0167 12.6595 8.40405 18.2786 8.40405C19.3635 8.40405 20.3284 8.54192 21.183 8.8047C23.4482 8.04766 25.9841 7.64391 28.7671 7.64391C30.6707 7.64391 32.4581 7.83592 34.1235 8.20076C31.1518 2.92381 25.612 0 18.3533 0C7.04208 0 0 6.78341 0 18.429C0 29.9311 6.81776 36.935 18.3533 36.935C28.168 36.935 34.6549 31.6623 36.2002 22.7538C36.593 24.0714 36.7823 25.6159 36.7823 27.3693C36.7823 33.7115 34.3847 37.3977 28.692 37.3977C27.7137 37.3977 26.8427 37.2827 26.0566 37.076C23.767 37.8804 21.1887 38.305 18.3531 38.305C16.3786 38.305 14.5377 38.089 12.8208 37.6985C15.7498 42.9566 21.2474 45.9489 28.7668 45.9489C40.0786 45.9489 46.97 38.945 46.97 27.4429C46.9703 15.7965 39.8534 9.01306 28.7671 9.01306ZM20.6134 28.1393C20.6054 27.8873 20.6011 27.6307 20.6011 27.3693C20.6011 21.9883 22.3825 18.5728 26.3574 17.663C26.3649 17.8897 26.3689 18.1203 26.3689 18.3554C26.3689 23.75 24.6342 27.2216 20.6134 28.1393Z" fill="url(#paint0_linear_3802_82061)"/>
<defs>
<linearGradient id="paint0_linear_3802_82061" x1="-1.19034" y1="47.2513" x2="36.8114" y2="8.63815" gradientUnits="userSpaceOnUse">
<stop stop-color="#2C0456"/>
<stop offset="0.1449" stop-color="#330463"/>
<stop offset="0.4154" stop-color="#450487"/>
<stop offset="0.7792" stop-color="#6304BF"/>
<stop offset="0.9209" stop-color="#6F04D7"/>
</linearGradient>
</defs>
</svg>
