<svg width="47" height="47" viewBox="0 0 47 47" fill="none" xmlns="http://www.w3.org/2000/svg">
<path d="M28.7644 9.15721C18.9464 9.15721 12.3452 14.3504 10.7743 23.4607C10.3741 22.0902 10.1867 20.4786 10.1867 18.649C10.1867 12.2089 12.6583 8.53846 18.2769 8.53846C19.3617 8.53846 20.3265 8.67854 21.181 8.94552C23.446 8.17638 25.9818 7.76617 28.7644 7.76617C30.6679 7.76617 32.4552 7.96125 34.1203 8.33193C31.1489 2.97057 25.6097 0 18.3517 0C7.04143 0 0 6.8919 0 18.7238C0 30.4098 6.81714 37.5258 18.3517 37.5258C28.1654 37.5258 34.6517 32.1687 36.1969 23.1178C36.5896 24.4564 36.779 26.0256 36.779 27.8071C36.779 34.2507 34.3816 37.9958 28.6894 37.9958C27.7111 37.9958 26.8403 37.879 26.0542 37.669C23.7649 38.4863 21.1867 38.9177 18.3514 38.9177C16.3771 38.9177 14.5363 38.6982 12.8196 38.3015C15.7483 43.6437 21.2455 46.6838 28.7641 46.6838C40.0749 46.6838 46.9657 39.5679 46.9657 27.8818C46.966 16.0491 39.8498 9.15721 28.7644 9.15721ZM20.6115 28.5894C20.6035 28.3333 20.5992 28.0726 20.5992 27.8071C20.5992 22.34 22.3804 18.8699 26.355 17.9455C26.3625 18.1758 26.3665 18.4101 26.3665 18.649C26.3665 24.1298 24.632 27.657 20.6115 28.5894Z" fill="#0F0F0F"/>
</svg>
