<svg width="47" height="46" viewBox="0 0 47 46" fill="none" xmlns="http://www.w3.org/2000/svg">
<path d="M28.7854 9.02308C18.9602 9.02308 12.3542 14.1402 10.7821 23.117C10.3817 21.7667 10.1942 20.1786 10.1942 18.3758C10.1942 12.03 12.6676 8.41339 18.2902 8.41339C19.3759 8.41339 20.3414 8.55142 21.1965 8.81449C23.4632 8.05661 26.0007 7.65241 28.7854 7.65241C30.6903 7.65241 32.4789 7.84463 34.1453 8.20988C31.1717 2.92706 25.6284 0 18.3651 0C7.04658 0 0 6.79095 0 18.4495C0 29.9644 6.82211 36.9761 18.3651 36.9761C28.186 36.9761 34.677 31.6975 36.2233 22.7791C36.6163 24.0981 36.8058 25.6444 36.8058 27.3998C36.8058 33.749 34.4067 37.4393 28.7103 37.4393C27.7314 37.4393 26.8599 37.3241 26.0733 37.1172C23.7822 37.9225 21.2022 38.3476 18.3648 38.3476C16.3891 38.3476 14.5469 38.1314 12.8289 37.7404C15.7598 43.0044 21.261 46 28.7851 46C40.1042 46 47 38.9883 47 27.4734C47.0003 15.814 39.8789 9.02308 28.7854 9.02308ZM20.6266 28.1706C20.6186 27.9183 20.6143 27.6614 20.6143 27.3998C20.6143 22.0128 22.3968 18.5935 26.3743 17.6826C26.3817 17.9095 26.3857 18.1404 26.3857 18.3758C26.3857 23.7764 24.65 27.2519 20.6266 28.1706Z" fill="white"/>
</svg>
