<svg width="561" height="352" viewBox="0 0 561 352" fill="none" xmlns="http://www.w3.org/2000/svg">
<path d="M0 194.001C59.4009 193.853 118.802 193.739 178.203 193.671C185.225 193.662 192.248 193.654 199.271 193.645C200.669 193.644 202.067 193.642 203.507 193.64C226.104 193.612 248.701 193.561 271.297 193.501C294.507 193.441 317.716 193.405 340.926 193.392C355.232 193.383 369.538 193.355 383.844 193.302C393.672 193.268 403.499 193.257 413.327 193.266C418.986 193.27 424.645 193.264 430.304 193.229C470.719 193.015 504.324 196.804 534.531 226.409C538.877 231.536 542.472 236.82 545.87 242.613C546.613 243.837 547.356 245.061 548.122 246.322C552.697 254.565 555.384 263.001 557.715 272.083C557.993 273.161 558.271 274.239 558.557 275.35C560.23 282.373 560.842 288.878 560.448 296.085C558.828 297.705 558.828 297.705 555.968 297.889C554.755 297.881 553.542 297.872 552.292 297.863C550.982 297.858 549.672 297.853 548.322 297.848C546.256 297.827 546.256 297.827 544.149 297.806C542.765 297.799 541.382 297.792 539.957 297.784C536.529 297.765 533.1 297.736 529.672 297.705C529.434 296.176 529.196 294.647 528.951 293.072C525.546 273.576 519.795 253.433 502.926 241.309C484.855 229.421 470.66 226.172 449.179 226.153C447.26 226.145 445.34 226.137 443.362 226.128C438.046 226.108 432.731 226.094 427.416 226.084C421.678 226.071 415.941 226.049 410.204 226.028C400.269 225.992 390.334 225.963 380.398 225.937C366.034 225.901 351.669 225.855 337.304 225.807C313.997 225.73 290.691 225.66 267.384 225.594C244.746 225.531 222.107 225.463 199.468 225.392C197.375 225.385 197.375 225.385 195.239 225.378C188.237 225.356 181.235 225.334 174.233 225.312C116.155 225.127 58.0777 224.954 0 224.789C0 214.629 0 204.469 0 194.001Z" fill="#063743"/>
<path d="M106.4 12.0133C116.665 19.2767 125.323 28.9326 131.203 40.066C131.203 41.6702 131.203 43.2743 131.203 44.9271C127.57 46.8756 123.926 48.7948 120.27 50.6997C118.729 51.5315 118.729 51.5315 117.156 52.3802C112.99 54.5292 109.592 56.277 104.844 56.2444C100.995 54.0495 99.601 51.4791 97.39 47.6615C92.0196 39.3047 87.713 34.8592 77.769 32.3756C67.1333 30.3998 58.7158 29.5343 48.5938 33.5845C43.2972 37.2526 42.3015 39.3805 40.596 45.636C40.4799 52.2565 41.1399 54.4787 45.3542 59.5105C55.7725 68.2692 69.0681 69.7973 82.0273 72.7646C98.5304 76.7533 118.438 82.5143 128.849 97.0322C135.235 109.477 137.902 122.29 134.949 136.174C130.473 148.753 124.606 157.431 113.385 164.835C90.5455 175.654 65.7368 174.577 42.2981 166.455C26.4128 159.27 12.3315 145.612 3.23958 130.807C2.07382 127.596 0.973936 124.359 0 121.085C3.94186 118.912 7.89058 116.753 11.8447 114.603C13.5219 113.676 13.5219 113.676 15.233 112.729C23.7464 108.122 23.7464 108.122 29.1563 108.122C31.5416 111.976 31.5416 111.976 34.1169 117.135C40.7174 128.984 48.8383 135.768 61.3939 140.788C71.8372 143.621 83.1584 143.711 93.3405 140.023C99.8523 135.622 99.8523 135.622 102.863 128.693C103.028 121.471 102.991 117.501 98.6048 111.565C90.0759 105.89 79.4502 104.116 69.651 101.64C23.6948 89.7965 23.6948 89.7965 9.81999 67.4098C5.67495 56.1105 6.2016 41.498 10.7311 30.4451C12.566 27.0271 12.566 27.0271 14.5781 23.8623C15.2087 22.8513 15.8393 21.8404 16.489 20.7988C36.6985 -6.71515 80.4471 -3.75731 106.4 12.0133Z" fill="#073641"/>
<path d="M538.378 54.1432C550.157 64.04 558.038 76.6475 560.448 91.9181C560.596 95.8318 560.659 99.7493 560.65 103.666C560.657 106.686 560.657 106.686 560.663 109.768C560.448 114.603 560.448 114.603 558.828 116.224C556.244 116.423 553.652 116.512 551.061 116.556C549.407 116.589 547.753 116.621 546.05 116.654C544.251 116.681 542.452 116.708 540.599 116.736C538.768 116.77 536.937 116.804 535.05 116.838C529.174 116.945 523.298 117.04 517.422 117.135C513.45 117.205 509.477 117.276 505.505 117.347C495.743 117.521 485.981 117.686 476.219 117.844C476.965 120.18 477.72 122.513 478.478 124.845C478.897 126.144 479.316 127.443 479.748 128.782C481.973 134.879 484.663 138.968 490.455 142.093C501.594 146.76 511.65 146.37 522.946 142.352C529.76 138.789 534.371 132.748 537.771 125.946C543.733 128.436 547.47 132.073 551.944 136.681C553.239 138.005 554.533 139.329 555.867 140.694C556.844 141.709 557.821 142.724 558.828 143.77C552.644 156.659 544.106 163.277 530.887 168.582C512.345 174.705 493.823 174.258 475.915 166.354C460.31 157.83 452.287 144.186 447.063 127.566C442.909 106.949 445.566 85.6609 456.781 67.6126C464.286 56.5726 475.37 49.2136 488.367 45.9401C505.23 43.0744 523.976 44.0524 538.378 54.1432ZM477.839 83.1074C475.809 87.3449 475.809 87.3449 476.219 93.5385C494.927 93.5385 513.636 93.5385 532.911 93.5385C529.913 84.5403 527.989 80.6616 521.573 74.094C505.884 66.3002 488.594 69.3219 477.839 83.1074Z" fill="#073641"/>
<path d="M150.641 48.168C160.262 48.168 169.884 48.168 179.797 48.168C179.821 50.5629 179.844 52.9578 179.869 55.4252C179.963 64.3371 180.088 73.2484 180.222 82.1597C180.276 86.0117 180.321 89.8638 180.358 93.716C180.413 99.2632 180.498 104.809 180.588 110.356C180.598 112.07 180.609 113.783 180.619 115.549C180.808 125.091 181.63 132.124 186.276 140.529C192.095 145.836 197.799 146.16 205.372 145.833C210.896 145.15 214.189 143.867 218.672 140.529C225.791 130.695 226.124 120.702 226.138 108.932C226.165 107.188 226.192 105.444 226.22 103.647C226.298 98.1169 226.333 92.5875 226.366 87.0569C226.412 83.2907 226.46 79.5246 226.512 75.7586C226.631 66.5618 226.712 57.3654 226.771 48.168C236.927 48.168 247.083 48.168 257.547 48.168C257.547 88.2721 257.547 128.376 257.547 169.696C247.391 169.696 237.235 169.696 226.771 169.696C226.771 163.814 226.771 157.932 226.771 151.872C225.067 153.626 225.067 153.626 223.329 155.416C211.475 167.207 201.635 172.658 184.657 172.936C173.477 172.106 164.874 168.092 157.12 159.974C149.79 147.718 149.777 135.176 150.008 121.275C150.017 119.175 150.026 117.076 150.036 114.914C150.06 109.389 150.124 103.865 150.196 98.3398C150.263 92.6801 150.292 87.0202 150.325 81.3602C150.394 70.2956 150.507 59.232 150.641 48.168Z" fill="#073641"/>
<path d="M448.176 4.7219C454.062 8.21876 458.817 12.1277 463.261 17.381C464.229 18.4839 465.198 19.5868 466.197 20.7231C468.12 23.8625 468.12 23.8625 468.12 30.344C464.988 31.9762 461.848 33.5939 458.705 35.2051C456.957 36.1075 455.21 37.0098 453.409 37.9395C448.683 40.0662 448.683 40.0662 443.823 40.0662C443.272 37.7602 443.272 37.7602 442.71 35.4077C441.089 30.1648 441.089 30.1648 436.939 28.116C429.452 26.4137 423.724 26.8637 416.287 28.7236C415.218 35.1403 414.149 41.557 413.047 48.1681C424.272 48.1681 435.497 48.1681 447.063 48.1681C447.063 56.1889 447.063 64.2097 447.063 72.4736C435.838 72.4736 424.612 72.4736 413.047 72.4736C413.047 104.557 413.047 136.64 413.047 169.696C402.891 169.696 392.735 169.696 382.271 169.696C382.161 153.82 382.072 137.944 382.019 122.068C381.994 114.694 381.96 107.32 381.904 99.9456C381.851 92.8117 381.823 85.6781 381.81 78.544C381.801 75.8401 381.784 73.1362 381.757 70.4325C381.348 26.8602 381.348 26.8602 392.755 13.1592C407.453 -0.265395 430.01 -4.03498 448.176 4.7219Z" fill="#073641"/>
<path d="M361.214 49.7885C366.857 54.3051 370.539 58.453 372.21 65.6314C373.347 77.6163 371.47 88.6854 367.693 100.02C358.606 100.02 349.519 100.02 340.156 100.02C338.536 95.1588 338.536 95.1588 340.156 90.2977C340.268 86.9574 340.293 83.6137 340.258 80.2717C340.243 78.5109 340.228 76.75 340.213 74.9359C340.194 73.5886 340.176 72.2414 340.156 70.8533C332.12 70.0494 327.111 69.888 320.111 74.2966C311.866 83.33 309.284 92.3973 309.048 104.392C309.015 105.852 308.983 107.311 308.95 108.814C308.909 111.144 308.909 111.144 308.868 113.521C308.834 115.128 308.8 116.735 308.766 118.391C308.66 123.508 308.564 128.626 308.469 133.744C308.399 137.22 308.328 140.696 308.257 144.172C308.084 152.68 307.919 161.188 307.76 169.696C302.935 169.739 298.109 169.772 293.284 169.797C291.907 169.811 290.529 169.824 289.111 169.838C287.8 169.844 286.49 169.849 285.14 169.854C283.927 169.863 282.714 169.871 281.465 169.88C278.604 169.696 278.604 169.696 276.984 168.076C276.831 164.348 276.794 160.615 276.801 156.884C276.8 155.715 276.8 154.545 276.8 153.34C276.801 149.456 276.814 145.572 276.826 141.688C276.829 139.001 276.832 136.315 276.833 133.629C276.839 126.546 276.855 119.463 276.873 112.38C276.89 105.157 276.897 97.9348 276.905 90.7123C276.923 76.5309 276.951 62.3495 276.984 48.1681C287.141 48.1681 297.297 48.1681 307.76 48.1681C307.76 54.05 307.76 59.932 307.76 65.9922C308.662 65.0898 309.564 64.1875 310.494 63.2578C311.73 62.0213 312.966 60.7847 314.24 59.5107C315.543 58.1405 316.845 56.7702 318.188 55.3585C330.83 43.3284 345.831 41.3685 361.214 49.7885Z" fill="#073641"/>
<path d="M430.865 249.094C440.486 249.094 450.108 249.094 460.021 249.094C465.414 265.278 455.931 286.395 448.682 300.946C432.99 326.578 410.801 343.162 381.48 350.576C376.666 351.287 372.051 351.332 367.187 351.278C364.147 351.245 361.106 351.212 357.974 351.177C357.974 341.552 357.974 331.927 357.974 322.01C361.616 321.409 365.257 320.807 369.009 320.187C389.297 316.365 406.296 305.972 418.413 289.097C426.043 276.893 428.272 263.058 430.865 249.094Z" fill="#073641"/>
<path d="M72.8906 249.094C82.5122 249.094 92.1337 249.094 102.047 249.094C103.572 276.945 94.1166 300.223 75.7253 320.896C61.0052 336.654 40.9696 347.995 19.4375 351.177C16.0307 351.284 12.6208 351.316 9.21256 351.278C6.17242 351.245 3.13227 351.212 0 351.177C0 341.552 0 331.927 0 322.01C3.64149 321.409 7.28299 320.807 11.0348 320.188C29.537 316.701 46.6619 307.768 57.8569 292.217C66.5898 278.235 70.2593 265.292 72.8906 249.094Z" fill="#073641"/>
<path d="M195.616 248.91C196.829 248.919 198.042 248.927 199.291 248.936C200.602 248.941 201.912 248.946 203.262 248.952C204.639 248.965 206.016 248.979 207.435 248.993C208.818 249 210.201 249.007 211.627 249.015C215.055 249.034 218.483 249.063 221.912 249.094C222.495 276.438 213.205 300.413 195.198 321.144C182.707 333.775 169.031 342.233 152.261 347.937C151.133 348.334 150.006 348.73 148.844 349.139C139.326 352.012 129.726 351.402 119.865 351.177C119.865 341.552 119.865 331.927 119.865 322.011C123.206 321.409 126.546 320.808 129.988 320.188C150.652 315.736 167.518 306.828 179.392 289.097C186.363 277.542 189.815 266.983 190.794 253.55C191.258 249.695 191.727 249.16 195.616 248.91Z" fill="#063640"/>
<path d="M311 249.094C321.156 249.094 331.313 249.094 341.776 249.094C340.544 279.917 331.262 303.287 309.381 325.251C308.366 326.304 307.351 327.357 306.305 328.441C291.411 342.775 268.99 351.409 248.436 351.481C245.563 351.381 242.69 351.28 239.729 351.177C239.729 341.552 239.729 331.927 239.729 322.01C244.841 321.058 244.841 321.058 250.056 320.086C264.375 317.016 275.503 312.02 286.703 302.566C287.773 302.566 288.842 302.566 289.943 302.566C290.598 301.175 290.598 301.175 291.265 299.756C293.233 295.987 295.489 292.668 297.941 289.198C306.512 276.368 308.755 264.299 311 249.094Z" fill="#073641"/>
</svg>
